<?xml version="1.0" encoding="UTF-8"?>
<svg xmlns="http://www.w3.org/2000/svg" xmlns:xlink="http://www.w3.org/1999/xlink" viewBox="0 0 79.42 82.01">
  <defs>
    <style>
      .cls-1 {
        fill: #b09061;
      }

      .cls-2 {
        fill: #f3a984;
      }

      .cls-3 {
        clip-path: url(#clippath-11);
      }

      .cls-4 {
        fill: #13b7fd;
      }

      .cls-5 {
        fill: #eff6fe;
      }

      .cls-6 {
        fill: #fff;
      }

      .cls-7 {
        fill: #1c232a;
      }

      .cls-8 {
        fill: #ee9c76;
      }

      .cls-9 {
        fill: #283032;
      }

      .cls-10 {
        fill: #e9ecf5;
      }

      .cls-11 {
        clip-path: url(#clippath-2);
      }

      .cls-12 {
        isolation: isolate;
      }

      .cls-13 {
        fill: #8763cd;
      }

      .cls-14 {
        fill: #a6afcd;
      }

      .cls-15 {
        fill: #ffbf99;
      }

      .cls-16 {
        fill: #372b3d;
      }

      .cls-17 {
        clip-path: url(#clippath-6);
      }

      .cls-18 {
        fill: #47e0ff;
      }

      .cls-18, .cls-19 {
        mix-blend-mode: screen;
        opacity: .3;
      }

      .cls-20 {
        fill: #ecf5fe;
      }

      .cls-21 {
        clip-path: url(#clippath-1);
      }

      .cls-22 {
        clip-path: url(#clippath-4);
      }

      .cls-23 {
        fill: #ffbfa2;
      }

      .cls-24 {
        fill: #1499fc;
      }

      .cls-25 {
        fill: #c6d5fa;
      }

      .cls-26 {
        fill: #0f1317;
      }

      .cls-27 {
        fill: #cddcfb;
      }

      .cls-28, .cls-19 {
        fill: #15d9fd;
      }

      .cls-29, .cls-30 {
        mix-blend-mode: multiply;
        opacity: .5;
      }

      .cls-31 {
        fill: #dde3f4;
      }

      .cls-32, .cls-30 {
        fill: #bcc5df;
      }

      .cls-33 {
        clip-path: url(#clippath);
      }

      .cls-34 {
        fill: #0d1315;
      }

      .cls-35 {
        fill: #f8b495;
      }

      .cls-36 {
        fill: none;
      }

      .cls-37 {
        fill: #251b29;
      }

      .cls-38 {
        clip-path: url(#clippath-3);
      }

      .cls-39 {
        clip-path: url(#clippath-8);
      }

      .cls-40 {
        fill: #1582d6;
      }

      .cls-41 {
        fill: #6e4cb3;
      }

      .cls-42 {
        clip-path: url(#clippath-14);
      }

      .cls-43 {
        clip-path: url(#clippath-17);
      }

      .cls-44 {
        clip-path: url(#clippath-5);
      }

      .cls-45 {
        fill: #5e3e9e;
      }

      .cls-46 {
        fill: #d6af75;
      }

      .cls-47 {
        fill: #d4dbef;
      }

      .cls-48 {
        fill: #10191b;
      }

      .cls-49 {
        fill: #f5a783;
      }

      .cls-50 {
        fill: #d4e2fc;
      }
    </style>
    <clipPath id="clippath">
      <path class="cls-5" d="m6.06,44.29l.07-.04s.05-.05.05-.1l-.07.04s-.02.08-.05.1Z"/>
    </clipPath>
    <clipPath id="clippath-1">
      <path class="cls-5" d="m6.11,42.71l.07-.04c0-.1-.07-.22-.16-.27l-.07.04c.09.05.16.17.16.27Z"/>
    </clipPath>
    <clipPath id="clippath-2">
      <path class="cls-48" d="m37.81,56.86v1.23c0,1.3.86,2.6,2.56,3.6,3.43,2,9.01,2,12.46,0,1.74-1.01,2.6-2.33,2.6-3.65v-1.23c0,1.32-.87,2.64-2.6,3.65-3.45,2-9.03,2-12.46,0-1.7-.99-2.56-2.3-2.56-3.6Z"/>
    </clipPath>
    <clipPath id="clippath-3">
      <path class="cls-36" d="m37.81,56.12v1.23c0,1.3.86,2.6,2.56,3.6,3.43,2,9.01,2,12.46,0,1.74-1.01,2.6-2.33,2.6-3.65v-1.23c0,1.32-.87,2.64-2.6,3.65-3.45,2-9.03,2-12.46,0-1.7-.99-2.56-2.3-2.56-3.6Z"/>
    </clipPath>
    <clipPath id="clippath-4">
      <path class="cls-25" d="m27.74,2l-1.44.84c.3-.18.72-.15,1.18.12l1.44-.84c-.46-.27-.88-.29-1.18-.12Z"/>
    </clipPath>
    <clipPath id="clippath-5">
      <path class="cls-25" d="m68.31,59.52l1.44-.84c.3-.17.48-.54.48-1.07l-1.44.84c0,.53-.19.9-.48,1.07Z"/>
    </clipPath>
    <clipPath id="clippath-6">
      <path class="cls-25" d="m68.88,28.88l1.44-.84c0-1.06-.74-2.35-1.66-2.88l-1.44.84c.92.53,1.66,1.82,1.66,2.88Z"/>
    </clipPath>
    <clipPath id="clippath-8">
      <path class="cls-16" d="m56.49,64.56l-.23.13s.04,0,.06,0l.23-.13s-.05-.02-.06,0Z"/>
    </clipPath>
    <clipPath id="clippath-11">
      <path class="cls-16" d="m59.31,66.55l.23-.13c0-.06-.04-.12-.09-.15l-.23.13s.09.1.09.15Z"/>
    </clipPath>
    <clipPath id="clippath-14">
      <path class="cls-37" d="m45.76,75.36l.23.14s-.04,0-.06,0l-.23-.14s.05-.02.06,0Z"/>
    </clipPath>
    <clipPath id="clippath-17">
      <path class="cls-37" d="m42.88,77.39l-.23-.14c0-.06.04-.13.09-.16l.23.14s-.09.1-.09.16Z"/>
    </clipPath>
  </defs>
  <g class="cls-12">
    <g id="Layer_2" data-name="Layer 2">
      <g id="Layer_1-2" data-name="Layer 1">
        <g>
          <g id="man">
            <path class="cls-23" d="m6.32,42.85s-.08-.09-.13-.06c-.04.03-.04.1-.04.14,0,.07,0,.12.03.18.03.06.06.12.06.18,0,.02,0,.03,0,.05.12.09.22.18.32.29.02-.04.03-.08.03-.11.01-.24-.12-.47-.26-.66Z"/>
            <path class="cls-15" d="m3.35,42.93s0,0-.01,0c-.02-.07,0-.14.01-.21.02-.18-.04-.37-.01-.55,0-.05.03-.11.06-.15.03-.04.07-.06.11-.09.01,0,.2-.12.2-.13.13.23.15.52.05.76l-.42.37Z"/>
            <path class="cls-6" d="m2.97,42.85c-.42.08-.84.19-1.25.33-.18.06-.37.11-.52.27-.14.15-.15.38-.08.58.04.11.09.21.2.24.11.03.28-.03.39-.06.27-.08.53-.18.79-.32.09-.04.17-.09.26-.14.13-.07.25-.14.38-.22-.13-.2-.2-.44-.16-.68Z"/>
            <g>
              <g class="cls-12">
                <g class="cls-12">
                  <path class="cls-5" d="m6.06,44.29l.07-.04s.05-.05.05-.1l-.07.04s-.02.08-.05.1Z"/>
                  <g class="cls-33">
                    <g class="cls-12">
                      <path class="cls-5" d="m6.06,44.29l.07-.04s.05-.05.05-.1l-.07.04s-.02.08-.05.1h0Z"/>
                    </g>
                  </g>
                </g>
                <polygon class="cls-5" points="6.1 44.19 6.17 44.15 6.18 42.67 6.11 42.71 6.1 44.19"/>
                <polygon class="cls-5" points="5.95 42.44 6.02 42.39 3.91 41.17 3.84 41.21 5.95 42.44"/>
                <g class="cls-12">
                  <path class="cls-5" d="m6.11,42.71l.07-.04c0-.1-.07-.22-.16-.27l-.07.04c.09.05.16.17.16.27Z"/>
                  <g class="cls-21">
                    <g class="cls-12">
                      <path class="cls-5" d="m6.11,42.71l.07-.04s-.01-.08-.03-.12l-.07.04s.03.08.03.12h0Z"/>
                      <path class="cls-5" d="m6.08,42.59l.07-.04s-.03-.06-.05-.09l-.07.04s.04.06.05.09h0Z"/>
                      <path class="cls-5" d="m6.02,42.5l.07-.04s-.05-.05-.08-.07l-.07.04s.05.04.08.07h0Z"/>
                    </g>
                  </g>
                </g>
                <g>
                  <path class="cls-27" d="m3.84,41.21c-.09-.05-.16,0-.16.09v1.48c0,.1.07.22.15.27l2.11,1.23c.09.05.16,0,.16-.09v-1.48c0-.1-.07-.22-.15-.27l-2.11-1.23Z"/>
                  <path class="cls-32" d="m3.76,42.78c0,.07.05.16.11.2l2.11,1.23s.02,0,.02,0c0,0,0-.01,0-.03h0s0-1.48,0-1.48c0-.07-.05-.16-.11-.2l-2.09-1.21h-.02s-.02-.02-.02-.02c0,0,0,.01,0,.03v1.48Z"/>
                  <path class="cls-28" d="m3.81,42.77c0,.07.05.16.11.2l2.09,1.21v-1.47c0-.07-.05-.16-.11-.2l-2.09-1.21v1.47Z"/>
                </g>
              </g>
              <path class="cls-5" d="m3.8,41.16l-.07.04s.07-.01.11.01l.07-.04s-.08-.03-.11-.01Z"/>
              <polygon class="cls-6" points="5.45 43.55 4.17 42.81 4.17 42.36 5.45 43.1 5.45 43.55"/>
              <polygon class="cls-18" points="5.5 42.28 6.02 43.11 6.02 43.43 5.1 42.04 5.5 42.28"/>
              <polygon class="cls-18" points="6.02 43.82 6.02 44.18 5.9 44.11 4.08 41.45 4.69 41.81 6.02 43.82"/>
            </g>
            <path class="cls-23" d="m6.21,43.35s-.02.02-.04.03c-.05.03-.15.07-.18-.01,0-.03,0-.05,0-.08,0-.06.02-.11.03-.17,0-.03,0-.07-.03-.08-.02,0-.04.01-.05.03-.04.05-.07.1-.1.15-.01.02-.02.04-.03.07-.08.18-.16.34-.2.53-.03.11-.04.2-.03.31,0,.09.02.17.04.26.02.06.04.14.1.17.06.03.13-.02.17-.06.06-.07.09-.16.14-.24.02-.04.03-.08.06-.11.03-.04.07-.07.11-.09.09-.06.17-.14.24-.23.04-.05.08-.12.11-.18-.1-.1-.21-.2-.32-.29,0,0,0,0,0,.01Z"/>
            <g id="man-2" data-name="man">
              <g>
                <path class="cls-32" d="m1.4,54.49s.04-.06.11-.07c.09,0,.17-.01.26-.02.12,0,.23-.01.35-.02,0-.1,0-.19-.02-.29.12.03.19,0,.31-.05.14-.05.28-.1.43-.14.06-.02.13-.03.19-.02.16.03.24.29.22.43-.02.1-.08.18-.16.24-.12.09-.28.17-.42.19-.16.02-.3.07-.42.17-.16.13-.28.26-.49.28-.22.02-.39-.12-.4-.34,0-.08.01-.16.03-.24,0-.05.01-.09.02-.12Z"/>
                <path class="cls-47" d="m2.05,54.75s0-.03,0-.05c-.01-.18.06-.32.12-.49.02-.06.05-.12.1-.17.12-.09.3-.01.37.12.03.06.05.13.08.19.06.12.18.26.32.26.19,0,.4-.06.59-.07.07,0,.15,0,.22.02.16.07.21.33.15.48-.04.09-.12.16-.21.2-.13.06-.31.1-.45.09-.16-.01-.31,0-.45.07-.25.12-.53.29-.78.06-.07-.06-.1-.15-.11-.24-.01-.16.04-.31.04-.47Z"/>
              </g>
            </g>
            <path class="cls-41" d="m2.13,51.1l.09-.37c-.04.12-.06.25-.09.37Z"/>
            <path class="cls-41" d="m.68,48.12c-.03.29-.04.57-.02.86.02.31.08.57.19,1.1.1.51.13.59.14.86-.02-.02-.18,1.79.31,3.42.03.1.07.21.16.27.05.03.1.04.16.05.05,0,.11.01.16,0,.06,0,.12-.03.16-.08.04-.05.07-.12.09-.18.03-.11.04-.23.04-.35,0-.56-.03-1.12-.04-1.68,0-.32.01-.65.05-.97.1-.37.18-.75.24-1.13.05-.36.03-.73.11-1.09.06-.27.11-.7.11-1.09H.68Z"/>
            <path class="cls-45" d="m2.11,47.3c0,.06-.46.28-.57.16-.03-.03-.07-.1-.13-.17-.47.5-.6,1.34-.33,1.89.19.4.47,1.36.57,2.45.11,1.21.02,2.55.04,3.05.03,0,.06,0,.1,0,.06,0,.12-.03.16-.08.04-.05.07-.12.09-.18.03-.11.04-.23.04-.35,0-.56-.03-1.12-.04-1.68,0-.32.01-.65.05-.97.1-.37.18-.75.24-1.13.05-.36.03-.73.11-1.09.15-.66.22-2.32-.32-1.9Z"/>
            <path class="cls-13" d="m2.36,47.58c.05-.03.31-.16.31-.23,0-.05.13-.09.16-.09.06,0,.12.04.17.07.12.09.21.22.26.36.07.19.09.41.1.62.03.62.02,1.25-.05,1.87-.03.31-.08.63-.14.94-.03.15-.06.31-.1.46-.03.15-.06.19-.19.27-.26.17-.74.14-.93-.16-.2-.32-.12-.83-.18-1.19-.09-.53-.45-.92-.61-1.42-.12-.37-.1-.72-.04-1.09.03-.18.08-.6.26-.71.05-.03.37-.1.63.16.15.15.14.22.32.13Z"/>
            <path class="cls-20" d="m.56,46.12c-.01-.09-.03-.19-.04-.28-.08-.44-.21-.88-.27-1.32-.04-.35-.07-.78.2-1.05.04-.04.1-.08.15-.11.53-.3,1.04.07,1.54.25.33.12.64.27.94.46.1.07.21.11.28.21.07.11.11.23.12.36,0,.15-.02.3-.04.44-.14.86-.21,1.73-.1,2.59.04.37.09,1.38.09,1.38-.12.05-.2.1-.8.12-1.23.02-1.91-.29-1.98-.35-.07-.06-.05-.21-.05-.3,0-.27,0-.54,0-.81.01-.53.03-1.06-.04-1.59Z"/>
            <path class="cls-50" d="m3.48,44.63c0-.13-.05-.25-.12-.36-.07-.1-.17-.15-.28-.21-.06-.04-.12-.08-.19-.11-.39.33-.92.72-.65,1.2.71,1.28.88,2.62.91,3.98.14-.02.19-.05.26-.08,0,0-.04-1.01-.09-1.38-.1-.86-.04-1.74.1-2.59.02-.15.05-.3.04-.44Z"/>
            <path class="cls-27" d="m2.4,43.7c-.09-.04-.19-.08-.26-.1-.35-.13-.7-.34-1.06-.36-.17.26-.03.57.22.71.32.16.75.14,1.05-.07.06-.04.11-.12.04-.17Z"/>
            <path class="cls-13" d="m3.06,51.83c-.02.27-.04.54-.06.81-.01.21-.03.43-.04.64,0,.17-.02.33-.02.5-.03.91.06,1.11-.36,1.23-.1.03-.2.03-.29.01-.28-.07-.32-.31-.36-.62-.02-.17-.03-.38-.03-.55,0-.15,0-.29-.01-.44,0-.2,0-.39,0-.59,0-.26,0-.52,0-.78,0-.33-.03-.67-.03-1,0-.05.03-.1.07-.12.05-.03,1.05.33,1.15.45,0,0,.04.13.01.46Z"/>
            <path class="cls-6" d="m3.26,44.16c-.18-.12-.39-.22-.59-.13-.08.04-.15.11-.2.18-.14.19-.25.41-.23.66,0,.05,0,.09.03.14.06.16.21.21.35.28.17.08.33.18.49.27.32.19.64.38.99.53.2.08.44.15.64.06.14-.06.24-.19.27-.34.07-.35-.19-.43-.23-.46-1.13-.86-1.54-1.19-1.51-1.18Z"/>
            <path class="cls-6" d="m5.91,43.93c.07.04.18.12.18.21,0,.07-.08.18-.11.24-.1.19-.2.38-.31.57-.05.09-.09.17-.14.25-.15.25-.31.48-.5.68-.07.08-.19.22-.3.25-.11.03-.21-.02-.3-.1-.16-.13-.27-.33-.23-.53.04-.21.17-.35.3-.5.29-.35.6-.67.93-.98.06-.05.12-.11.19-.14.08-.03.2-.02.29.03Z"/>
            <path class="cls-15" d="m3.93,42.39c-.05.13-.08.26-.09.4,0,.06,0,.12-.02.17-.03.1-.11.18-.2.25-.04.03-.09.06-.14.05.01-.04.02-.07.01-.11,0-.05-.03-.1-.06-.13-.03-.03-.07-.04-.08-.08-.03-.07.01-.13.03-.2.02-.07.02-.14.05-.21,0-.02.02-.04.03-.06s.04-.02.06-.02c.03.01.04.06.04.09,0,0,0,.01,0,.02.01.01.03,0,.04-.02.05-.07.09-.14.13-.21.04-.06.06-.12.12-.16,0,0,.02-.01.03-.01,0,0,0,0,0,0,.03,0,.04.03.05.06.01.05,0,.11-.02.16Z"/>
            <path class="cls-6" d="m3.49,43.01c-.05-.09-.14-.17-.23-.18-.08-.01-.16,0-.24.01-.02,0-.03,0-.05,0-.04.24.03.48.16.68.06-.03.12-.07.18-.1.06-.04.18-.08.22-.14.04-.08,0-.21-.04-.28Z"/>
            <path class="cls-23" d="m2.28,43.16c.02-.13.12-.1.07-.22-.04-.1-.11-.2-.2-.26s-.2-.11-.31-.1c-.04,0-.06.02-.1.02-.1,0-.21-.02-.31,0-.1.02-.2.02-.2.14,0,.16,0,.31-.04.46-.03.08-.07.16-.07.25-.01.17.11.33.26.4.19.09.4.08.6.05.1-.01.24-.03.3-.13.04-.07.03-.17.02-.24-.01-.12-.03-.24,0-.36Z"/>
            <g>
              <path class="cls-23" d="m2.72,41.47c.06.08.11.16.13.26.03.23-.06.46,0,.68.05.22-.05.71-.47.83-.22.06-.64-.01-.78-.08-.18-.09-.3-.27-.41-.44-.89-1.42.94-2,1.54-1.26Z"/>
              <path class="cls-46" d="m.92,41.19s.1-.08.16-.11c.02,0,.04-.02.05-.03.01-.01.02-.03.02-.04.03-.07.09-.11.15-.15.24-.13.52-.14.79-.1.09.01.18.03.27.07.1.04.18.11.26.18.14.13.31.34.3.54,0,.05-.03.08-.05.12-.02.03-.04.05-.06.08-.07.09-.1.21-.14.31-.02.04-.04.09-.08.12-.08.05-.18,0-.27.03-.05.02-.09.06-.12.1s-.04.1-.05.15c-.02.08-.02.15-.03.23-.01.08-.03.17-.09.23-.13.14-.38.13-.55.09-.06-.01-.12-.03-.18-.05-.13-.06-.22-.19-.3-.3-.08-.11-.15-.22-.19-.34-.02-.07-.03-.14-.04-.22-.04-.3-.07-.68.15-.91Z"/>
              <path class="cls-23" d="m2.23,42.1c-.17-.01-.22.2-.1.36.03.05.09.09.14.13.3.27.38-.01.29-.11-.22-.21-.11-.37-.32-.39Z"/>
              <path class="cls-2" d="m2.28,42.43s-.21-.14-.08-.21c.04-.02.08.01.08.05,0,.02,0,.04,0,.06,0,.01,0,.02.01.03.02.03.08.06.06.1-.01.04-.07-.02-.08-.03Z"/>
            </g>
          </g>
          <g>
            <path class="cls-30" d="m55.51,53.54c4.01,2.33,4.01,6.1,0,8.43-4.01,2.33-10.52,2.33-14.54,0-4.01-2.33-4.01-6.1,0-8.43,4.01-2.33,10.52-2.33,14.54,0Z"/>
            <g class="cls-12">
              <g class="cls-12">
                <path class="cls-48" d="m37.81,56.86v1.23c0,1.3.86,2.6,2.56,3.6,3.43,2,9.01,2,12.46,0,1.74-1.01,2.6-2.33,2.6-3.65v-1.23c0,1.32-.87,2.64-2.6,3.65-3.45,2-9.03,2-12.46,0-1.7-.99-2.56-2.3-2.56-3.6Z"/>
                <g class="cls-11">
                  <g class="cls-12">
                    <path class="cls-48" d="m37.81,56.86v1.23c0,.68.24,1.36.71,2v-1.23c-.47-.64-.71-1.32-.71-2h0Z"/>
                    <path class="cls-48" d="m38.51,58.86v1.23c.43.58,1.05,1.12,1.86,1.6,1.68.98,3.87,1.48,6.08,1.5v-1.23c-2.21-.02-4.41-.52-6.09-1.5-.81-.47-1.43-1.02-1.86-1.6h0Z"/>
                    <path class="cls-48" d="m46.45,61.96v1.23c2.3.02,4.62-.48,6.38-1.5,1.74-1.01,2.6-2.33,2.6-3.65v-1.23c0,1.32-.87,2.64-2.6,3.65-1.76,1.02-4.08,1.52-6.38,1.5h0Z"/>
                  </g>
                </g>
              </g>
              <path class="cls-48" d="m40.41,53.21c-3.45,2-3.47,5.25-.04,7.25,3.43,2,9.01,2,12.46,0,3.45-2,3.47-5.25.04-7.25-3.43-2-9.01-2-12.46,0Z"/>
            </g>
            <g class="cls-12">
              <g class="cls-12">
                <g class="cls-38">
                  <g class="cls-12">
                    <path class="cls-47" d="m37.81,56.12v1.23c0,.68.24,1.36.71,2v-1.23c-.47-.64-.71-1.32-.71-2h0Z"/>
                    <path class="cls-47" d="m38.51,58.13v1.23c.43.58,1.05,1.12,1.86,1.6,1.68.98,3.87,1.48,6.08,1.5v-1.23c-2.21-.02-4.41-.52-6.09-1.5-.81-.47-1.43-1.02-1.86-1.6h0Z"/>
                    <path class="cls-47" d="m46.45,61.22v1.23c2.3.02,4.62-.48,6.38-1.5,1.74-1.01,2.6-2.33,2.6-3.65v-1.23c0,1.32-.87,2.64-2.6,3.65-1.76,1.02-4.08,1.52-6.38,1.5h0Z"/>
                  </g>
                </g>
              </g>
              <path class="cls-10" d="m40.41,52.48c-3.45,2-3.47,5.25-.04,7.25,3.43,2,9.01,2,12.46,0,3.45-2,3.47-5.25.04-7.25-3.43-2-9.01-2-12.46,0Z"/>
            </g>
            <g class="cls-12">
              <polygon class="cls-48" points="51.03 57.79 53.15 56.55 50.52 41.6 48.4 42.84 51.03 57.79"/>
              <polygon class="cls-37" points="48.4 42.84 50.52 41.6 43.04 37.29 40.93 38.52 48.4 42.84"/>
              <polygon class="cls-37" points="40.93 38.52 43.55 53.47 51.03 57.79 48.4 42.84 40.93 38.52"/>
            </g>
            <g class="cls-12">
              <g class="cls-12">
                <path class="cls-25" d="m27.74,2l-1.44.84c.3-.18.72-.15,1.18.12l1.44-.84c-.46-.27-.88-.29-1.18-.12Z"/>
                <g class="cls-22">
                  <g class="cls-12">
                    <path class="cls-25" d="m27.48,2.96l1.44-.84c-.46-.27-.88-.29-1.18-.12l-1.44.84c.3-.18.72-.15,1.18.12h0Z"/>
                  </g>
                </g>
              </g>
              <g class="cls-12">
                <path class="cls-25" d="m68.31,59.52l1.44-.84c.3-.17.48-.54.48-1.07l-1.44.84c0,.53-.19.9-.48,1.07Z"/>
                <g class="cls-44">
                  <g class="cls-12">
                    <path class="cls-25" d="m68.31,59.52l1.44-.84c.3-.17.48-.54.48-1.07l-1.44.84c0,.53-.19.9-.48,1.07h0Z"/>
                  </g>
                </g>
              </g>
              <polygon class="cls-25" points="68.79 58.45 70.24 57.61 70.32 28.04 68.88 28.88 68.79 58.45"/>
              <polygon class="cls-25" points="67.22 26 68.66 25.16 28.92 2.12 27.48 2.96 67.22 26"/>
              <g class="cls-12">
                <path class="cls-25" d="m68.88,28.88l1.44-.84c0-1.06-.74-2.35-1.66-2.88l-1.44.84c.92.53,1.66,1.82,1.66,2.88Z"/>
                <g class="cls-17">
                  <g class="cls-12">
                    <path class="cls-25" d="m68.88,28.88l1.44-.84c0-1.06-.74-2.35-1.66-2.88l-1.44.84c.92.53,1.66,1.82,1.66,2.88h0Z"/>
                  </g>
                </g>
              </g>
              <path class="cls-10" d="m27.48,2.96c-.92-.53-1.66-.11-1.67.95l-.08,29.57c0,1.06.74,2.35,1.66,2.88l39.74,23.04c.92.53,1.66.11,1.67-.95l.08-29.57c0-1.06-.74-2.35-1.66-2.88L27.48,2.96Z"/>
            </g>
            <g>
              <path class="cls-10" d="m67.91,56.42v2.02c0,.17-.04.26-.05.29-.04,0-.14-.02-.29-.11l-39.74-23.04c-.65-.38-1.21-1.36-1.21-2.11v-1s41.29,23.94,41.29,23.94Z"/>
              <path class="cls-32" d="m26.62,32.48l41.29,23.94v-.66s.08-26.88.08-26.88c0-.75-.56-1.73-1.21-2.11L27.33,3.9l-.3-.17c-.15-.09-.25-.11-.29-.11-.02.04-.05.13-.05.29l-.08,28.57Z"/>
              <path class="cls-28" d="m27.25,32.19l38.02,22.05,2.64,1.53.02-6.61.02-7.56.02-6.26.02-6.44c0-.75-.56-1.73-1.21-2.11l-6.37-3.7-7.67-4.45h0l-7.89-4.57-11.71-6.79-5.8-3.37-.08,28.28Z"/>
            </g>
            <polygon class="cls-19" points="52.73 18.63 67.95 41.58 67.97 35.32 60.4 23.08 52.73 18.63"/>
            <polygon class="cls-19" points="33.14 7.27 65.28 54.23 67.91 55.76 67.93 49.15 44.84 14.06 33.14 7.27"/>
          </g>
          <g>
            <g class="cls-29">
              <polygon class="cls-32" points="16.41 62.91 7.38 68.21 0 63.93 0 62.68 9.03 58.63 16.41 62.91"/>
            </g>
            <g class="cls-12">
              <polygon class="cls-32" points="14.27 55.34 14.25 62.78 7.15 66.92 7.17 59.49 14.27 55.34"/>
              <polygon class="cls-31" points="7.17 59.49 7.15 66.92 0 62.78 .02 55.34 7.17 59.49"/>
              <polygon class="cls-6" points="14.27 55.34 7.17 59.49 .02 55.34 7.12 51.2 14.27 55.34"/>
            </g>
            <path class="cls-24" d="m3.77,60.33c.03.16.07.34.12.53.04.2.09.4.13.62s.1.43.15.64c.05.21.1.41.14.6.04-.15.08-.31.12-.49.04-.18.08-.37.11-.56.03-.2.07-.39.1-.58.03-.19.06-.38.09-.56l.71.41c-.1.53-.22,1.05-.35,1.58s-.28,1.01-.43,1.47l-.62-.36c-.1-.38-.2-.78-.3-1.19-.1-.41-.19-.82-.28-1.23-.09.3-.19.61-.28.91-.09.3-.19.58-.29.85l-.62-.36c-.15-.63-.3-1.29-.43-1.97-.13-.68-.25-1.34-.35-1.99l.74.43c.03.22.06.44.1.67.03.23.07.47.11.71.04.24.08.47.12.69s.08.43.12.63c.05-.13.1-.28.15-.44.05-.16.1-.31.14-.47.05-.16.09-.31.13-.46s.07-.28.11-.4l.58.34Z"/>
          </g>
          <g>
            <g class="cls-29">
              <polygon class="cls-32" points="36.53 61.33 27.5 66.63 20.12 62.34 20.12 61.09 29.15 57.04 36.53 61.33"/>
            </g>
            <g class="cls-12">
              <polygon class="cls-32" points="34.39 53.9 34.37 61.33 27.27 65.47 27.29 58.04 34.39 53.9"/>
              <polygon class="cls-31" points="27.29 58.04 27.27 65.47 20.12 61.33 20.14 53.9 27.29 58.04"/>
              <polygon class="cls-6" points="34.39 53.9 27.29 58.04 20.14 53.9 27.24 49.75 34.39 53.9"/>
            </g>
            <path class="cls-24" d="m25.12,60.5c0,.3-.04.54-.12.72-.08.18-.18.31-.32.39-.13.08-.29.1-.48.07s-.38-.11-.59-.23c-.21-.12-.4-.27-.58-.45-.18-.18-.34-.39-.48-.62-.14-.23-.24-.48-.32-.76s-.12-.56-.12-.86.04-.54.12-.72c.08-.18.19-.31.33-.38s.3-.1.48-.07c.18.03.37.1.57.22.21.12.4.27.58.45.18.18.34.39.48.63.14.23.24.49.32.76.08.27.12.56.12.86Zm-2.3-1.34c0,.17.02.34.05.5.04.16.09.31.16.45.07.14.15.26.25.37.1.11.21.2.34.28.12.07.24.11.34.11.1,0,.18-.02.25-.08.07-.06.12-.15.16-.27.04-.12.05-.26.05-.43s-.02-.34-.05-.5c-.04-.16-.09-.31-.16-.45-.07-.14-.15-.26-.25-.38-.1-.11-.21-.2-.34-.28-.13-.07-.24-.11-.34-.11s-.18.03-.25.09c-.07.06-.12.15-.16.27-.04.12-.05.26-.05.43Z"/>
          </g>
          <g>
            <g class="cls-29">
              <polygon class="cls-32" points="45.28 73.8 36.24 79.1 28.87 74.81 28.87 73.56 37.9 69.51 45.28 73.8"/>
            </g>
            <g class="cls-12">
              <polygon class="cls-14" points="43.14 66.53 43.12 73.96 36.01 78.11 36.04 70.68 43.14 66.53"/>
              <polygon class="cls-31" points="36.04 70.68 36.01 78.11 28.87 73.96 28.89 66.53 36.04 70.68"/>
              <polygon class="cls-6" points="43.14 66.53 36.04 70.68 28.89 66.53 35.99 62.39 43.14 66.53"/>
            </g>
            <path class="cls-24" d="m33.77,73.73c0,.3-.04.54-.12.72-.08.18-.2.3-.35.36-.15.06-.33.07-.55.02s-.46-.15-.72-.31c-.12-.07-.26-.16-.43-.27-.16-.11-.32-.22-.48-.35v-3.41c.16.06.32.13.49.22.17.09.32.17.44.24.26.15.49.32.7.51.21.19.39.4.54.63.15.23.27.48.35.76s.12.57.12.88Zm-1.96-.03s.07.05.11.07c.04.03.09.06.15.09.34.2.59.24.76.14.16-.1.25-.33.25-.68s-.08-.69-.24-.97c-.16-.28-.41-.52-.74-.71-.05-.03-.09-.05-.14-.08-.05-.03-.1-.05-.14-.07v2.21Z"/>
          </g>
          <g>
            <g class="cls-29">
              <polygon class="cls-32" points="73.63 74.38 64.6 79.68 57.22 75.39 57.22 74.14 66.25 70.09 73.63 74.38"/>
            </g>
            <g class="cls-12">
              <polygon class="cls-32" points="71.49 66.96 71.47 74.39 64.37 78.54 64.39 71.1 71.49 66.96"/>
              <polygon class="cls-31" points="64.39 71.1 64.37 78.54 57.22 74.39 57.24 66.96 64.39 71.1"/>
              <polygon class="cls-6" points="71.49 66.96 64.39 71.1 57.24 66.96 64.34 62.81 71.49 66.96"/>
            </g>
            <path class="cls-24" d="m60.26,74.26c.1.06.17.09.24.11.06.02.11.02.15.01.04-.01.06-.03.08-.07.01-.04.02-.08.02-.13,0-.11-.05-.24-.14-.37-.09-.13-.25-.3-.48-.52-.1-.1-.2-.2-.3-.31-.1-.11-.19-.23-.27-.35-.08-.12-.14-.26-.19-.4-.05-.14-.07-.29-.07-.45s.03-.29.08-.39c.05-.1.13-.17.22-.2.1-.04.21-.04.35,0,.14.03.29.1.46.19.2.12.38.24.53.38.15.14.27.26.37.38l-.2.51c-.08-.1-.18-.2-.28-.3-.1-.1-.23-.19-.37-.27-.16-.09-.28-.14-.35-.12-.07.01-.11.07-.11.18,0,.06.01.13.04.18.03.06.06.12.11.18s.1.13.17.19c.06.06.13.13.21.21.16.16.29.3.41.44.12.13.21.27.29.4.08.13.13.27.17.41.04.14.06.29.06.46,0,.33-.1.52-.3.59-.2.07-.49-.02-.89-.25-.13-.08-.25-.16-.36-.24-.11-.08-.2-.16-.29-.23-.08-.07-.15-.14-.21-.21-.06-.06-.11-.12-.15-.17l.19-.52c.09.11.2.23.33.35.13.12.29.24.49.35Z"/>
          </g>
          <g>
            <g class="cls-29">
              <polygon class="cls-32" points="25.75 45.67 16.72 50.97 9.34 46.68 9.34 45.43 18.37 41.38 25.75 45.67"/>
            </g>
            <g class="cls-12">
              <polygon class="cls-14" points="23.61 38.18 23.59 45.61 16.49 49.76 16.51 42.32 23.61 38.18"/>
              <polygon class="cls-31" points="16.51 42.32 16.49 49.76 9.34 45.61 9.36 38.18 16.51 42.32"/>
              <polygon class="cls-6" points="23.61 38.18 16.51 42.32 9.36 38.18 16.46 34.03 23.61 38.18"/>
            </g>
            <path class="cls-24" d="m12.81,43.97c.12-.17.24-.34.35-.51.11-.17.21-.36.31-.54l.75.43c-.17.28-.34.55-.51.8s-.36.5-.56.74v1.34s-.68-.39-.68-.39v-1.33c-.2-.47-.39-.94-.56-1.4-.18-.46-.35-.93-.52-1.4l.79.46c.09.3.19.59.3.89s.22.61.34.91Z"/>
          </g>
          <g>
            <g class="cls-12">
              <polygon class="cls-32" points="27.03 30.94 27.01 38.38 19.91 42.52 19.93 35.09 27.03 30.94"/>
              <polygon class="cls-31" points="19.93 35.09 19.91 42.52 12.76 38.38 12.78 30.94 19.93 35.09"/>
              <polygon class="cls-6" points="27.03 30.94 19.93 35.09 12.78 30.94 19.89 26.8 27.03 30.94"/>
            </g>
            <path class="cls-24" d="m15.28,38.02v-3.5l2.04,1.18v.66l-1.36-.79v.69l1.21.7v.65l-1.21-.7v.84l1.46.85v.66s-2.14-1.24-2.14-1.24Z"/>
          </g>
          <g>
            <g class="cls-12">
              <polygon class="cls-32" points="23.48 20.85 23.46 28.29 16.36 32.43 16.38 25 23.48 20.85"/>
              <polygon class="cls-31" points="16.38 25 16.36 32.43 9.21 28.29 9.23 20.85 16.38 25"/>
              <polygon class="cls-6" points="23.48 20.85 16.38 25 9.23 20.85 16.33 16.71 23.48 20.85"/>
            </g>
            <path class="cls-24" d="m13.41,28.67c-.06-.15-.13-.31-.22-.49-.08-.18-.17-.37-.27-.56-.1-.19-.2-.38-.3-.56-.1-.18-.21-.35-.31-.51v1.48s-.68-.39-.68-.39v-3.5l.68.39v1.32c.17-.11.35-.23.53-.36.18-.13.35-.25.5-.36l.81.47c-.21.16-.41.32-.62.46-.21.14-.43.28-.66.41.24.37.47.79.7,1.24.22.45.44.93.65,1.44l-.81-.47Z"/>
          </g>
          <g>
            <g>
              <g>
                <path class="cls-48" d="m57.64,70.56c-.41.2-.8.45-1.19.69-.11.07-.22.09-.32.18-.08.07-.19.22-.2.33-.01.15.28.26.4.29.16.05.31.06.47.03.16-.03.26-.1.37-.22.09-.11.19-.23.32-.28.13-.05.28-.03.38-.12.05-.05.07-.12.09-.18.03-.13.03-.26.06-.38.02-.09.07-.19.06-.28,0-.08-.09-.15-.17-.17-.08-.02-.18,0-.25.03l-.02.09Z"/>
                <path class="cls-24" d="m60.57,63.76c.18-.43.36-1,.6-1.71.07-.19.1-.39.11-.6,0-.2-.06-.38-.16-.56-.04-.08-.1-.17-.2-.19-.09-.02-.17.03-.24.08-.41.31-.63.82-.72,1.31-.09.45-.06.99-.1,1.45,0,.09.03.84.31.71.14-.06.29-.26.39-.5Z"/>
                <path class="cls-24" d="m60.47,63.33c-.1-.08-.45-.23-.51-.14-.04.07-.28.54-.48.82.26.18.49.4.72.62.3-.36.56-.76.56-1.01,0-.13-.16-.19-.29-.29Z"/>
                <path class="cls-48" d="m59.41,71.45c-.35.29-.67.61-.99.93-.09.09-.18.18-.26.29-.06.09-.14.2-.13.31.02.14.33.18.45.19.16.01.31-.01.46-.07.15-.06.23-.16.3-.3.07-.13.13-.26.25-.34.11-.07.27-.09.34-.2.04-.06.04-.13.05-.2,0-.13-.03-.26-.03-.38,0-.09.02-.19,0-.29-.02-.08-.12-.13-.2-.13-.09,0-.17.03-.24.09v.1Z"/>
                <path class="cls-2" d="m63.03,64.53h0c-.02.16-.03.33-.04.49,0-.16.02-.33.04-.49Z"/>
                <path class="cls-2" d="m62.99,65.02c0,.1,0,.2,0,.3,0,0,0,0,0,0,0-.1,0-.2,0-.3Z"/>
                <g>
                  <path class="cls-37" d="m57.29,66.95c-.24.16-.5,1.2.41,1.23.47.02.9-.25,1.33-.46.59-.29,1.22-.48,1.81-.75.18-.08.36-.18.52-.3.38-.31.59-.81.54-1.3,0-.07-.02-.14-.05-.2-.16-.29-1.16-.19-1.4-.07-.86.43-2.92,1.69-3.17,1.85Z"/>
                  <path class="cls-37" d="m57.01,67.69c.01.25.04.5.07.76.04.28.09.56.1.84.02.3,0,.61,0,.92,0,.19,0,.39.05.57.02.09.05.18.13.23.09.06.21.09.31.11.07.01.15.01.22-.01.24-.08.25-.42.3-.62.05-.19.08-.39.1-.58.05-.38.07-.77.09-1.16.01-.26.03-.51.02-.77,0-.23-.02-.48-.12-.69-.11-.21-.35-.36-.57-.4-.25-.05-.49.05-.62.28-.07.14-.1.3-.09.45,0,.03,0,.05,0,.08Z"/>
                </g>
                <g>
                  <path class="cls-16" d="m58.86,67.84c-.22.18-.4,1.27.47,1.25.45-.01.84-.32,1.23-.57,1.25-.79,2.81-1.07,2.57-2.64-.02-.14-.06-.76-.17-.83-.08-.05-.53.11-.63.13-.97.16-1.1.17-1.26.28-.03.73-.14.86-.54,1.1-.18.11-1.5,1.14-1.67,1.28Z"/>
                  <path class="cls-16" d="m58.67,68.57c.03.25.07.5.12.75.06.28.12.55.16.84.04.3.04.61.06.91.02.19.02.38.09.57.03.09.07.18.15.22.1.05.21.08.32.08.08,0,.15,0,.22-.03.24-.09.22-.43.26-.64.03-.19.05-.39.06-.59.02-.39.02-.77.01-1.16,0-.26,0-.51-.03-.77-.02-.23-.05-.47-.17-.68-.12-.2-.37-.33-.59-.36-.25-.03-.49.08-.6.32-.06.14-.08.3-.06.46,0,.03,0,.05,0,.08Z"/>
                </g>
                <path class="cls-4" d="m63.03,61.37c-.29-.2-.86-.45-1.43-.63-.79-.25-.9.04-1.13.67-.21.59-.15,1.56-.06,2.18.05.33.08.67.09,1,0,.12-.02.25-.04.37,0,.05-.02.11,0,.16.03.06.12.13.17.17.24.2.56.32.87.34.44.03.92-.05,1.34-.18.09-.03.18-.06.24-.14.05-.06.06-.15.08-.23.04-.26.06-.52.06-.79,0-.12,0-.24,0-.35.01-.17.05-.34.09-.51.05-.23.1-.47.16-.7.03-.12.05-.23.08-.35.02-.09.06-.16.05-.25-.02-.35-.32-.58-.58-.76Z"/>
                <path class="cls-24" d="m62,63.12c-.17.83-.34,1.68-1.14,2.09-.06.03-.12.07-.18.11.24.18.53.29.83.31.44.03.92-.05,1.34-.18.09-.03.18-.06.24-.14.05-.06.06-.15.08-.23.04-.26.06-.52.06-.79,0-.12,0-.24,0-.35.01-.17.05-.34.09-.51.05-.23.1-.47.16-.7.03-.12.05-.23.08-.35.02-.09.06-.16.05-.25,0-.05-.01-.09-.02-.14-.13.06-.27.11-.4.16-.48.19-1.09.46-1.19.97Z"/>
              </g>
              <path class="cls-4" d="m63.47,64.81c.14-.45.25-1.03.42-1.76.04-.2.06-.4.04-.61-.02-.2-.1-.37-.22-.54-.05-.08-.12-.16-.22-.17-.09,0-.16.05-.23.11-.37.35-.54.88-.58,1.38-.04.46-.14.91-.18,1.37,0,.09-.02.18,0,.27.05.42.36.65.62.49.13-.08.26-.29.34-.53Z"/>
              <g>
                <path class="cls-16" d="m61.58,64.97c-.08.07-.18.16-.26.23-.12-.19-.12-.2-.23-.39,0-1.12.04-2.17.31-3.24.1.07.15.11.26.18-.14,1.02-.22,2.09-.07,3.22Z"/>
                <path class="cls-9" d="m61.28,61.54s0,0,0,.02c0,.03.02.07.03.1.02.06.05.13.09.18.02.03.04.06.08.08.04.02.08,0,.12-.02.04-.02.12-.06.11-.11,0-.05-.02-.09-.04-.13-.03-.09-.07-.2-.15-.25-.09-.06-.16.03-.21.1-.01.01-.02.02-.02.04Z"/>
                <path class="cls-8" d="m62.44,61.09c0-.22-.16-.28-.11-.71.02-.14.17-.35-.23-.34-.11,0-.22.03-.33.06-.38.13-.43.22-.46,1.01.32-.03.61-.39.94-.18.09.07.15.15.19.24,0-.03,0-.05,0-.08Z"/>
                <path class="cls-49" d="m62.25,60.93c-.33-.21-.61.15-.94.18,0,.01,0,.02,0,.03-.02.56,1.04.58,1.12.03-.04-.09-.1-.18-.19-.24Z"/>
                <path class="cls-6" d="m61.51,61.47c-.02.07-.11.09-.17.13-.03.02-.07.05-.1.04-.03,0-.05-.05-.07-.08-.08-.2-.13-.42-.13-.64,0-.07.01-.15.06-.19.05-.04.13-.05.19-.03.06.03.08.15.06.21-.08.21.01.45.15.56Z"/>
                <path class="cls-6" d="m61.5,61.48s.1.16.22.27c.03.03.06.06.1.05.2-.06.62-.42.71-.64.03-.08-.03-.18-.07-.25,0-.01-.07-.1-.08-.11,0,.01-.05.17-.12.28-.16.24-.46.36-.75.4Z"/>
                <path class="cls-23" d="m60.91,59.13c-.08.13-.13.28-.13.44,0,.07.01.14.03.2.02.06.06.12.06.19,0,.08-.06.17-.08.24-.02.07-.04.14,0,.21.01.04.04.07.06.1.1.16,0,.4.19.52.04.03.1.03.15.04.07,0,.37-.08.48-.13.13-.06.25-.2.34-.31.07-.08.19-.19.24-.29.01-.03-.02-.04.01-.05.02,0,.04-.13.06-.13.02,0,.06-.03.08-.04.04-.03.06.07.07.02.06-.2.13-.4.12-.61,0-.19,0-.35-.13-.52-.09-.12-.22-.21-.37-.27-.22-.08-.46-.09-.68-.01-.21.07-.39.22-.51.4Z"/>
                <path class="cls-35" d="m62.6,59.52c0-.19,0-.35-.13-.52-.09-.12-.22-.21-.37-.27-.13-.05-.27-.07-.41-.06-.21.42.09.95-.13,1.38-.08.1-.23.18-.23.3-.05.23.18.43.05.66.1-.03.22-.06.28-.09.13-.06.25-.2.34-.31.07-.08.19-.19.24-.29.01-.03-.02-.04.01-.05.02,0,.04-.13.06-.13.02,0,.06-.03.08-.04.04-.03.06.07.07.02.06-.2.13-.4.12-.61Z"/>
                <path class="cls-16" d="m62.73,59.49c.01-.56-.37-.66-.37-.66,0,0-.17-.29-.62-.27-.23.01-.46.09-.66.21,0,0-.02.01-.02.02-.1.06-.19.14-.25.23-.17.27.06.48.34.43.13-.02.25-.08.38-.13.09-.03.18-.05.27-.01.08.04.13.13.15.22.03.2-.04.4-.05.6,0,.03,0,.06.02.09.04.07.11.03.16-.01.03-.03.05-.06.07-.09.03-.03.06-.06.1-.06.06-.01.11.04.12.1,0,.05,0,.11-.01.16,0,.01-.03.1,0,.1.04,0,.37-.34.38-.92Z"/>
                <path class="cls-37" d="m61.63,59.3c.05,0,.11,0,.16.02.08.04.13.13.15.22.03.2-.04.4-.05.6,0,.03,0,.06.02.09.04.07.11.03.16-.01.03-.03.05-.06.07-.09.03-.03.06-.06.1-.06.06-.01.11.04.12.1,0,.05,0,.11-.01.16,0,.01-.03.1,0,.1.04,0,.37-.34.38-.92.01-.56-.37-.66-.37-.66,0,0-.16.03-.36.16-.21.14-.36.31-.36.31Z"/>
                <path class="cls-23" d="m62.37,60.3c-.08.11-.2.15-.27.1-.07-.05-.07-.18,0-.29.08-.11.2-.15.27-.1.07.05.07.18,0,.29Z"/>
                <path class="cls-2" d="m62.3,60.12s.02.07,0,.1c-.03.03-.09.03-.1.07,0,.01,0,.03-.02.04-.02,0-.03,0-.04-.03s0-.03.02-.05c.01-.01.02-.03.03-.04,0-.02,0-.04,0-.06,0-.06.07-.09.11-.04Z"/>
              </g>
            </g>
            <g class="cls-12">
              <polygon class="cls-48" points="56.93 66.41 56.93 66.68 60.01 68.47 60.01 68.21 56.93 66.41"/>
              <polygon class="cls-37" points="60.01 68.21 60.01 68.47 61.92 67.37 61.92 67.1 60.01 68.21"/>
              <g>
                <polygon class="cls-16" points="56.93 66.41 60.01 68.21 61.92 67.1 58.84 65.3 56.93 66.41"/>
                <polygon class="cls-34" points="59.33 66.24 60.17 66.72 60.63 66.46 59.79 65.97 59.33 66.24"/>
                <polygon class="cls-34" points="61.08 67.4 58.27 65.76 57.27 66.34 60.08 67.98 61.08 67.4"/>
              </g>
            </g>
            <g>
              <g>
                <g>
                  <path class="cls-35" d="m59.16,65.71c-.02.05-.11.18-.15.22-.04.04-.01-.13-.07-.12-.09,0-.18.06-.24,0-.05-.04-.1-.09-.14-.15-.04-.06-.06-.12-.06-.19,0-.03,0-.05.02-.07.01-.01.02-.03.04-.04.08-.07.15-.13.23-.2.02-.01.03-.03.05-.04.03-.01.06-.02.09-.02.11,0,.21.05.28.12.03.04.07.09.08.14,0,.04-.02.09-.03.13-.03.08-.05.15-.09.23Z"/>
                  <path class="cls-35" d="m59.26,65.51c0,.11.01.22.02.33,0,.04,0,.09,0,.13,0,.03-.02.06-.03.09-.01.03-.02.06-.03.09-.04.08-.12.14-.2.19-.03.02-.06.04-.1.05-.02,0-.05,0-.06-.02,0-.01,0-.02,0-.03,0-.03.01-.07.03-.09.02-.03.06-.05.09-.08.05-.05.05-.13.02-.19-.02-.06-.06-.12-.09-.18s-.04-.14-.01-.2c.01-.02.03-.04.04-.06.04-.04.08-.08.13-.1.04-.02.09-.03.14-.01.05.01.05.06.06.11Z"/>
                </g>
                <path class="cls-35" d="m58.74,65.65c.06-.03.19.11.2.14.03.09-.06.01-.18.19-.03.05-.07.1-.08.16-.01.04-.01.1-.06.12-.03.01-.07,0-.09-.03,0,.06-.1.01-.12-.05-.04-.12-.13-.01-.14-.22-.01,0-.02,0-.03.01-.14-.12.15-.45.28-.59.22-.23.28.13.21.26Z"/>
              </g>
              <path class="cls-24" d="m60.2,64.61c-.22-.22-.34-.62-.6-.8-.23.32-.65.96-.77,1.24-.12.26.38.49.49.36.1-.11.61-.48.87-.8Z"/>
              <g>
                <path class="cls-23" d="m60.63,66.67c-.06.03-.2.14-.24.18-.04.05.14,0,.14.07,0,.1-.06.2,0,.27.05.06.11.11.17.15.06.04.14.07.22.06.03,0,.06-.01.08-.03.02-.01.03-.03.04-.04.07-.09.14-.17.21-.26.02-.02.03-.04.04-.06.01-.03.02-.06.02-.1,0-.12-.06-.23-.15-.3-.04-.04-.1-.08-.16-.09-.05,0-.1.03-.14.04-.08.03-.17.07-.25.11Z"/>
                <path class="cls-23" d="m60.86,66.55c-.12,0-.25,0-.37,0-.05,0-.1,0-.14.01-.04,0-.07.03-.1.04-.03.01-.06.02-.09.04-.09.05-.15.14-.2.23-.02.04-.04.07-.05.11,0,.03,0,.06.03.07.01,0,.02,0,.04,0,.04,0,.07-.02.1-.04.03-.03.05-.07.08-.1.05-.05.14-.06.21-.03.07.02.14.06.21.09.07.03.15.04.22,0,.02-.01.04-.03.06-.05.05-.04.09-.09.11-.15.02-.05.03-.11,0-.16-.02-.06-.07-.06-.12-.06Z"/>
              </g>
              <path class="cls-4" d="m61.24,66.91c.15.03.31-.07.43-.16.29-.21,1.69-1.38,1.78-1.93.02-.14-.13-.21-.25-.32-.09-.08-.57.02-.66.12-.13.16-1.17,1.21-1.52,1.73-.05.07-.09.15-.09.23,0,.13.19.3.31.32Z"/>
              <path class="cls-23" d="m60.72,67.13c.03-.07-.13-.21-.17-.22-.1-.03-.01.07-.2.2-.06.04-.11.08-.18.1-.05.01-.11.02-.13.07-.01.04,0,.08.04.1-.07.01,0,.11.06.13.13.03.02.14.25.15,0,.01-.01.03-.02.04.13.15.5-.19.64-.34.25-.26-.16-.3-.3-.23Z"/>
            </g>
            <g class="cls-12">
              <g>
                <path class="cls-16" d="m56.49,64.56l-.23.13s.04,0,.06,0l.23-.13s-.05-.02-.06,0Z"/>
                <g class="cls-39">
                  <g class="cls-12">
                    <path class="cls-16" d="m56.32,64.7l.23-.13s-.02,0-.03-.01l-.23.13s.02,0,.03.01h0Z"/>
                    <path class="cls-16" d="m56.29,64.69l.23-.13s-.02,0-.03,0l-.23.13s.02,0,.03,0h0Z"/>
                    <polygon class="cls-16" points="56.26 64.7 56.49 64.56 56.49 64.56 56.26 64.7 56.26 64.7 56.26 64.7"/>
                  </g>
                </g>
              </g>
              <polygon class="cls-16" points="59.22 66.4 59.45 66.26 56.55 64.57 56.32 64.7 59.22 66.4"/>
              <g>
                <path class="cls-16" d="m59.31,66.55l.23-.13c0-.06-.04-.12-.09-.15l-.23.13s.09.1.09.15Z"/>
                <g class="cls-3">
                  <g>
                    <path class="cls-16" d="m59.27,66.43l.23-.13s-.03-.03-.04-.04l-.23.13s.03.02.04.04h0Z"/>
                    <path class="cls-16" d="m59.3,66.48l.23-.13s-.02-.03-.03-.05l-.23.13s.02.03.03.05h0Z"/>
                  </g>
                </g>
              </g>
              <path class="cls-48" d="m56.32,64.7s-.09,0-.09.05l.7,1.66,3.08,1.8-.69-1.66s-.02-.1-.1-.15l-2.9-1.69Z"/>
              <polygon class="cls-37" points="60.01 68.21 60.24 68.07 59.53 66.35 59.3 66.48 60.01 68.21"/>
            </g>
          </g>
          <g>
            <g class="cls-12">
              <polygon class="cls-32" points="41.37 38.22 42.08 37.8 42.11 30.64 41.39 31.06 41.37 38.22"/>
              <polygon class="cls-6" points="41.39 31.06 42.11 30.64 30.12 23.67 29.4 24.09 41.39 31.06"/>
              <polygon class="cls-31" points="29.4 24.09 29.38 31.24 41.37 38.22 41.39 31.06 29.4 24.09"/>
            </g>
            <g>
              <path class="cls-24" d="m33.4,29.15c.03.12.06.26.09.42.03.15.07.32.11.48.04.17.08.33.11.5.04.17.08.32.11.47.03-.12.06-.25.09-.39.03-.14.06-.29.09-.44.03-.15.05-.31.08-.46.03-.15.05-.3.07-.44l.55.32c-.08.41-.17.82-.28,1.24-.1.41-.22.79-.34,1.15l-.49-.28c-.08-.3-.16-.61-.23-.93-.07-.32-.15-.64-.22-.96-.07.24-.15.47-.22.71-.07.24-.15.46-.23.66l-.49-.28c-.12-.49-.23-1.01-.34-1.54-.1-.53-.2-1.05-.28-1.55l.58.33c.02.17.05.34.08.53.03.18.06.37.09.55.03.19.06.37.09.54.03.18.06.34.09.49.04-.11.08-.22.12-.34.04-.12.08-.25.11-.37.04-.12.07-.24.1-.36s.06-.22.08-.31l.45.26Z"/>
              <path class="cls-24" d="m35.04,32.55v-2.74s1.6.92,1.6.92v.52l-1.06-.62v.54l.94.55v.51s-.94-.55-.94-.55v.66l1.14.66v.52l-1.67-.97Z"/>
              <path class="cls-24" d="m37.9,34.24c-.13-.07-.26-.15-.39-.24-.13-.08-.26-.18-.4-.3v-2.66c.11.04.23.09.36.15.13.06.25.13.36.19.15.09.29.18.41.28.13.1.23.2.33.32.09.11.16.23.21.36.05.13.08.27.08.41,0,.22-.09.34-.27.36.15.15.25.3.31.45.05.14.08.29.08.43,0,.29-.09.45-.27.49-.18.04-.45-.04-.81-.25Zm-.27-1.39v.71s.08.06.13.08c.05.03.1.06.15.09.16.09.29.14.39.14.1,0,.15-.07.15-.21,0-.13-.04-.24-.12-.34-.08-.1-.2-.2-.35-.28l-.33-.19Zm0-.47l.26.15c.16.09.28.14.35.13.07,0,.11-.07.11-.17s-.04-.21-.11-.3c-.07-.09-.18-.17-.32-.25-.05-.03-.09-.05-.15-.08-.05-.03-.1-.05-.14-.07v.6Z"/>
            </g>
          </g>
          <g>
            <g class="cls-12">
              <polygon class="cls-32" points="49.23 31.82 49.94 31.4 49.97 22.66 49.25 23.08 49.23 31.82"/>
              <polygon class="cls-6" points="49.25 23.08 49.97 22.66 42.22 18.18 41.5 18.6 49.25 23.08"/>
              <polygon class="cls-31" points="41.5 18.6 41.48 27.33 49.23 31.82 49.25 23.08 41.5 18.6"/>
            </g>
            <path class="cls-24" d="m44.95,23.38l.8.46.22-1.23.89.52-.22,1.23.5.29v.92l-.65-.38-.16.89.81.47v.92l-.97-.56-.22,1.23-.89-.52.22-1.23-.8-.46-.22,1.23-.89-.52.22-1.23-.5-.29v-.92l.65.38.16-.89-.81-.47v-.92l.97.56.22-1.23.89.52-.22,1.23Zm-.31,1.72l.8.46.16-.89-.8-.46-.16.89Z"/>
          </g>
          <g>
            <g class="cls-12">
              <polygon class="cls-32" points="64.3 18.43 64.76 18.16 64.78 12.57 64.32 12.83 64.3 18.43"/>
              <polygon class="cls-6" points="64.32 12.83 64.78 12.57 59.82 9.69 59.36 9.96 64.32 12.83"/>
              <polygon class="cls-31" points="59.36 9.96 59.34 15.56 64.3 18.43 64.32 12.83 59.36 9.96"/>
            </g>
            <path class="cls-24" d="m61.57,13.02l.51.3.14-.79.57.33-.14.79.32.19v.59l-.42-.24-.1.57.52.3v.59s-.62-.36-.62-.36l-.14.79-.57-.33.14-.79-.51-.3-.14.79-.57-.33.14-.79-.32-.19v-.59s.42.24.42.24l.1-.57-.52-.3v-.59l.62.36.14-.79.57.33-.14.78Zm-.2,1.1l.51.3.1-.57-.51-.3-.1.57Z"/>
          </g>
          <g>
            <g class="cls-12">
              <polygon class="cls-32" points="45.2 58.73 45.18 66.16 38.07 70.31 38.09 62.87 45.2 58.73"/>
              <polygon class="cls-31" points="38.09 62.87 38.07 70.31 30.92 66.16 30.94 58.73 38.09 62.87"/>
              <polygon class="cls-6" points="45.2 58.73 38.09 62.87 30.94 58.73 38.05 54.58 45.2 58.73"/>
            </g>
            <path class="cls-24" d="m34.16,62.61c.45.26.8.56,1.04.88.24.33.36.69.36,1.08,0,.25-.05.42-.15.51s-.24.14-.42.12c.06.12.12.26.19.41.07.15.13.31.2.47.07.16.13.33.19.49s.12.33.17.49l-.76-.44c-.06-.15-.11-.3-.17-.45-.06-.15-.12-.3-.17-.44-.06-.15-.12-.29-.18-.42-.06-.13-.12-.26-.17-.37l-.34-.19v1.28l-.68-.39v-3.45c.15.05.3.12.46.2.16.08.3.15.42.23Zm.04.69s-.09-.05-.13-.07c-.04-.02-.08-.04-.11-.05v.95l.19.11c.26.15.44.22.55.21.11-.01.17-.1.17-.28s-.06-.33-.17-.46c-.11-.14-.28-.27-.49-.4Z"/>
          </g>
          <g id="woman">
            <path class="cls-30" d="m39.06,77.47c-1.79,1.04-1.79,2.72,0,3.76,1.79,1.04,4.7,1.04,6.49,0,1.79-1.04,1.79-2.72,0-3.76-1.79-1.04-4.7-1.04-6.49,0Z"/>
            <g id="woman-2" data-name="woman">
              <path class="cls-47" d="m41.72,74.67c-.18-.43-.36-1-.6-1.7-.06-.19-.1-.39-.1-.59,0-.2.06-.38.16-.56.04-.08.1-.17.2-.19.09-.02.17.03.23.08.4.31.47.72.57,1.21.09.45.07,1.04.11,1.5,0,.09.11.88-.17.75-.14-.06-.29-.26-.39-.49Z"/>
              <path class="cls-47" d="m41.81,74.24c.1-.08.21-.5.27-.41.04.06.52.81.71,1.09-.26.18-.49.4-.71.62-.29-.36-.56-.75-.56-1,0-.13.15-.19.28-.29Z"/>
              <g>
                <path class="cls-40" d="m43.26,76.34c.57.17,1.11.41,1.65.65.25.11.43.63.22,1.06-.11.21-.08.15-.57.08-.27-.04-.63-.13-.9-.17-.55-.08-3.01-.34-3.11-1.51-.02-.18.31-.33.46-.45.41-.33,1.74.18,2.26.34Z"/>
                <path class="cls-40" d="m44.9,78.34c-.07.07-.15.13-.22.19-.55.45-1.19.76-1.67,1.3-.09.1-.18.2-.26.3-.11.12-.24.25-.4.23-.09-.01-.16-.07-.23-.13-.09-.1-.15-.23-.16-.36-.02-.16.09-.23.19-.33.27-.26.41-.63.6-.95.19-.32.49-.62.76-.87.16-.14.33-.28.52-.37.32-.15.79-.18,1.06.11.14.16.13.41.04.6-.05.1-.13.19-.21.27Z"/>
                <path class="cls-32" d="m41.66,81.69c.09-.07.17-.16.23-.26.08-.13.14-.26.21-.39.09-.18.19-.35.29-.51,0-.01.25-.32.25-.33l-.48-.51c-.07,0-.14,0-.2.01-.12.03-.22.1-.28.21-.07.12-.07.26-.1.4-.04.17-.13.3-.25.42-.11.11-.2.28-.24.44-.03.1-.03.22.02.31.05.1.15.16.25.21.05.03.11.05.16.06.06.01.09,0,.14-.05Z"/>
                <path class="cls-24" d="m39.26,76.41c.16-.39.44-.74.84-.93l-.12.34c.05-.07.1-.14.15-.21.03-.03.05-.05.07-.07.09-.06.15.01.28.09.16.09.34.14.5.21.52.24.52.36.97.21-.06.43-.22.97-.25,1.07-.14.48-.55.39-.64.63-.22.56-.72,1.5-.98,2.04-.1.21-.3.39-.47.55-.2.18-.35.23-.59.17-.19-.05-.44-.32-.37-1.14.02-.28.27-1.22.35-1.74.06-.42.12-.84.29-1.23Z"/>
                <g id="people">
                  <g>
                    <path class="cls-1" d="m38.33,70.12c-.04.29,0,.57-.01.86,0,.31-.04.63-.1.93-.06.28-.14.55-.17.83s0,.58.15.81c.04.06.09.12.15.15.08.05.18.05.28.03.29-.05.53-.29.64-.56.11-.27.12-.58.08-.88-.04-.29-.11-.58-.15-.88-.05-.36-.01-.69.01-1.05,0-.11,0-.19.08-.27.09-.1.22-.16.35-.18.12-.02.25,0,.36-.05.15-.06.25-.23.22-.4-.02-.11-.09-.21-.17-.3-.17-.19-.4-.35-.65-.37-.26-.02-.51.12-.68.32-.17.2-.26.45-.32.7-.02.09-.04.19-.05.28Z"/>
                    <g>
                      <path class="cls-2" d="m39.6,71.8c.24-.11.33-.17.59-.23.04,0,.18.04.22.03.31-.07.65-.05.94.08,0,0,0,0,0,0v1.93h-1.84l.08-1.81Z"/>
                      <path class="cls-50" d="m38.7,72.71s0-.08.01-.12c.12-.39.56-.59.88-.79-.02.01.05.25.06.27.03.09.07.17.12.25.22.32.59.42.94.27.46-.2.22-.54.39-.85.03-.06.1-.09.16-.09.12,0,.24.02.31.13.05.08.08.18.11.26.06.14.12.28.19.41.1.19.2.38.28.58.07.2.14.44.14.65,0,.25-.23.85-.23,1.47,0,.42.2.85.14,1.26,0,.04-.01.07-.03.11-.06.18-.18.33-.33.44s-.32.19-.49.25c-.35.14-.71.24-1.08.33-.32.08-.83.12-1.07-.17-.08-.1-.12-.23-.12-.37s.03-.26.06-.39c.09-.35.25-.69.34-1.04.11-.42.14-.5.02-.93-.05-.18-.13-.36-.2-.53-.12-.27-.24-.53-.36-.8-.06-.13-.12-.26-.17-.39-.04-.08-.07-.14-.08-.21Z"/>
                      <path class="cls-47" d="m40.84,74.66c-.33,1.09-.77,1.78-.84,2.94-.29.03-.61,0-.79-.22-.08-.1-.12-.23-.12-.37s.03-.26.06-.39c.09-.35.25-.69.34-1.04.11-.42.14-.5.02-.93-.04-.16-.1-.3-.17-.45.41.33.94.48,1.49.46Z"/>
                      <path class="cls-10" d="m38.72,72.59c.12-.39.56-.59.88-.79-.02.01.05.25.06.27.03.09.07.17.12.25.22.32.59.42.94.27.46-.2.22-.54.39-.85.03-.06.1-.09.16-.09.12,0,.24.02.31.13.05.08.08.18.11.26.06.14.12.28.19.41.1.19.2.38.28.58.07.2.14.44.14.65,0,.25-.23.85-.23,1.47,0,.42.2.85.14,1.26,0,.04-.01.07-.03.11-.06.18-.18.33-.33.44s-.32.19-.49.25c-.35.14-.71.24-1.08.33-.08.02-.18.04-.28.05.07-1.16.51-1.84.84-2.94-.55.02-1.08-.12-1.49-.46-.01-.03-.02-.05-.04-.08-.12-.27-.24-.53-.36-.8-.06-.13-.12-.26-.17-.39-.04-.08-.07-.14-.08-.21,0-.04,0-.08.01-.12Z"/>
                    </g>
                    <g>
                      <path class="cls-2" d="m39.7,71.89c-.02.68,1.16.69,1.15.05-.02-.89-.07-.99-.46-1.13-.11-.04-.22-.07-.33-.07-.41,0-.25.22-.24.37.05.47-.11.53-.12.78Z"/>
                      <path class="cls-8" d="m39.81,71.42c-.03.21-.11.29-.11.47-.02.63,1,.69,1.13.18-.39-.08-.76-.31-1.02-.65Z"/>
                      <path class="cls-8" d="m40.38,70.81c-.11-.04-.22-.07-.33-.07-.41,0-.25.22-.24.37.01.13,0,.23,0,.31.25.34.62.57,1.02.65.01-.04.02-.08.01-.13-.02-.89-.07-.99-.46-1.13Z"/>
                      <path class="cls-23" d="m40.19,71.44s-.07-.06-.1-.09c-.11-.11-.24-.23-.32-.36-.25-.43-.26-1.01.09-1.38.25-.27.66-.38,1.01-.27.1.03.19.07.28.11.08.04.15.08.21.15.04.04.07.09.09.14.03.06.06.11.07.18.07.28-.12.56-.01.84.02.06.06.12.08.18.02.06.03.13,0,.19-.03.05-.07.08-.09.13-.03.08-.04.16-.06.24-.02.09-.05.17-.09.25-.11.19-.26.2-.45.13-.26-.1-.5-.24-.71-.42Z"/>
                      <path class="cls-46" d="m39.34,70.14c.02-.54.18-.63.38-.81.2-.17.47-.24.72-.23.26,0,.52.1.74.24,0,0,.02.01.03.02.12.08.22.16.28.29.03.07.06.14.07.21.02.14-.1.2-.22.23-.16.05-.39-.02-.56-.04-.08,0-.16-.02-.23,0-.08.02-.15.07-.16.15-.02.08.02.16.04.24.04.16-.04.33-.18.42-.08.05-.13.06-.22.02-.08-.03-.15-.09-.24-.04-.08.05-.05.15-.03.22,0,.01.03.12,0,.12-.04,0-.45-.38-.43-1.03Z"/>
                      <path class="cls-1" d="m40.39,70.2c-.02.08.02.16.04.24.04.16-.04.33-.18.42-.08.05-.13.06-.22.02-.08-.03-.15-.09-.24-.04-.08.05-.05.15-.03.22,0,.01.03.12,0,.12-.04,0-.45-.38-.43-1.03.01-.32.07-.48.16-.6,0,0,.25.1.47.25.2.15.43.41.43.41Z"/>
                      <path class="cls-23" d="m39.85,70.63c-.18-.01-.23.22-.1.39.04.05.1.1.15.14.33.28.41-.02.31-.12-.24-.22-.12-.4-.35-.41Z"/>
                      <path class="cls-2" d="m39.97,71.05s-.23-.14-.09-.23c.04-.02.08.01.09.05,0,.02,0,.04,0,.07,0,.01,0,.02.01.04.02.03.08.06.07.1-.01.04-.07-.02-.09-.03Z"/>
                    </g>
                  </g>
                </g>
                <path class="cls-10" d="m42.9,78.27c.08-.14.19-.26.33-.32.15-.07.33-.05.47.06.07.06.12.14.18.2.17.18.37.19.57.23.22.05.45.01.67.12.03.02.06.03.08.06.02.02.03.05.04.08.03.14-.01.28-.05.42-.05.17-.14.36-.31.41-.15.04-.39-.09-.54-.14-.4-.12-.82-.2-1.22-.18-.11,0-.24.01-.32-.09-.17-.21,0-.65.1-.83,0-.01.01-.02.02-.03Z"/>
                <path class="cls-24" d="m39.91,79.17c.73-.08,1.42-.24,2.11-.47.15-.05.29-.1.44-.15.12-.04.27-.12.39-.11.13,0,.23.11.3.21.05.08.09.16.11.25.02.09,0,.18-.03.26-.04.08-.12.12-.2.16-.15.08-.32.11-.48.18-.13.06-.26.13-.39.2-.29.16-.56.35-.86.49-.25.11-.52.19-.79.26-.2.05-.41.09-.62.11-.19.02-.76.03-.94-.06-.07-.03.65-1.3.94-1.33Z"/>
              </g>
              <g class="cls-12">
                <polygon class="cls-7" points="45.31 77.2 45.31 77.48 42.1 79.35 42.1 79.08 45.31 77.2"/>
                <polygon class="cls-37" points="42.1 79.08 42.1 79.35 40.13 78.21 40.13 77.93 42.1 79.08"/>
                <g>
                  <polygon class="cls-7" points="45.28 77.22 42.1 79.08 40.13 77.93 43.31 76.08 45.28 77.22"/>
                  <polygon class="cls-26" points="42.8 77.04 41.93 77.54 41.46 77.27 42.33 76.77 42.8 77.04"/>
                  <polygon class="cls-26" points="40.99 78.24 43.9 76.55 44.93 77.15 42.03 78.84 40.99 78.24"/>
                </g>
              </g>
              <path class="cls-6" d="m38.59,75.43c-.09-.47-.14-1.07-.23-1.82-.02-.2-.02-.41.02-.61.04-.2.14-.36.28-.52.06-.07.14-.15.24-.15.09,0,.16.07.22.13.34.39.45.95.43,1.45-.01.47.04.94.03,1.4,0,.09,0,.18-.02.27-.1.42-.43.61-.68.42-.12-.09-.23-.32-.28-.58Z"/>
              <g>
                <g>
                  <g>
                    <path class="cls-35" d="m43.04,76.53c.02.05.12.19.16.23s.01-.13.07-.13c.09,0,.18.06.25,0,.05-.05.1-.09.14-.15.04-.06.07-.13.06-.2,0-.03,0-.05-.02-.08-.01-.02-.02-.03-.04-.04-.08-.07-.15-.14-.23-.21-.02-.01-.03-.03-.05-.04-.03-.01-.06-.02-.09-.02-.11,0-.21.05-.28.12-.03.04-.07.09-.09.14,0,.04.02.09.03.13.03.08.06.16.09.23Z"/>
                    <path class="cls-35" d="m42.94,76.33c0,.11-.01.23-.02.34,0,.04,0,.09,0,.13,0,.03.02.06.03.1.01.03.02.06.03.09.04.08.12.14.2.19.03.02.07.04.1.05.02,0,.05,0,.06-.02,0-.01,0-.02,0-.03,0-.03-.01-.07-.03-.09-.02-.03-.06-.05-.09-.08-.05-.05-.05-.13-.02-.2s.06-.12.09-.19.04-.14.01-.2c-.01-.02-.03-.04-.04-.06-.04-.04-.08-.08-.13-.11-.04-.02-.1-.03-.14-.01-.05.02-.05.06-.06.11Z"/>
                  </g>
                  <path class="cls-35" d="m43.46,76.47c-.06-.03-.19.11-.2.15-.03.09.06.01.18.19.03.05.07.11.08.17.01.04.01.1.06.12.03.01.07,0,.09-.03,0,.06.1.01.12-.05.04-.12.13-.01.14-.23.01,0,.02.01.04.02.14-.12-.16-.46-.29-.6-.23-.24-.28.13-.22.27Z"/>
                </g>
                <path class="cls-47" d="m42.08,75.53c.22-.22.45-.44.71-.62.24.33.45.68.58.96.12.26-.38.5-.5.37-.1-.11-.52-.39-.78-.71Z"/>
                <g>
                  <path class="cls-23" d="m41.53,77.51c.06.03.2.14.25.18.04.05-.14,0-.14.07,0,.1.06.2,0,.28-.05.06-.11.11-.17.15-.07.04-.14.07-.22.06-.03,0-.06-.01-.08-.03-.02-.01-.03-.03-.04-.04-.07-.09-.15-.18-.22-.27-.02-.02-.03-.04-.04-.06-.02-.03-.02-.06-.02-.1,0-.12.06-.23.15-.31.04-.04.1-.08.16-.09.05,0,.1.03.14.04.09.03.17.07.25.11Z"/>
                  <path class="cls-23" d="m41.31,77.38c.13,0,.25,0,.38,0,.05,0,.1,0,.14.01.04.01.07.03.1.04.03.01.07.02.1.04.09.05.15.14.2.23.02.04.04.07.05.12,0,.03,0,.06-.03.07-.01,0-.03,0-.04,0-.04,0-.07-.02-.1-.04-.04-.03-.05-.07-.09-.1-.06-.05-.14-.06-.22-.04-.07.02-.14.06-.21.09-.07.03-.16.04-.22,0-.02-.01-.05-.03-.07-.05-.05-.04-.09-.09-.11-.15-.02-.05-.03-.11,0-.16.02-.06.07-.06.12-.06Z"/>
                </g>
                <path class="cls-6" d="m40.91,77.75c-.16.03-.32-.07-.44-.16-.29-.22-1.72-1.41-1.82-1.96-.02-.14.13-.21.26-.33.09-.08.58.02.67.12.14.16,1.19,1.23,1.55,1.77.05.07.09.15.09.23,0,.14-.19.3-.31.33Z"/>
                <path class="cls-23" d="m41.44,77.97c-.03-.07.13-.21.17-.22.1-.03.01.07.21.21.06.04.11.08.18.1.05.01.11.02.13.07.01.04,0,.08-.04.1.07.01,0,.12-.06.14-.14.04-.02.14-.26.15,0,.01.01.03.02.04-.14.16-.51-.19-.65-.34-.25-.27.16-.31.31-.23Z"/>
              </g>
              <g class="cls-12">
                <g>
                  <path class="cls-37" d="m45.76,75.36l.23.14s-.04,0-.06,0l-.23-.14s.05-.02.06,0Z"/>
                  <g class="cls-42">
                    <g class="cls-12">
                      <path class="cls-37" d="m45.93,75.5l-.23-.14s.02,0,.03-.01l.23.14s-.02,0-.03.01h0Z"/>
                      <path class="cls-37" d="m45.96,75.49l-.23-.14s.02,0,.03,0l.23.14s-.02,0-.03,0h0Z"/>
                      <polygon class="cls-37" points="45.99 75.5 45.76 75.36 45.76 75.36 45.99 75.5 45.99 75.5 45.99 75.5"/>
                    </g>
                  </g>
                </g>
                <polygon class="cls-37" points="42.97 77.23 42.74 77.09 45.69 75.37 45.93 75.5 42.97 77.23"/>
                <g>
                  <path class="cls-37" d="m42.88,77.39l-.23-.14c0-.06.04-.13.09-.16l.23.14s-.09.1-.09.16Z"/>
                  <g class="cls-43">
                    <g>
                      <path class="cls-37" d="m42.93,77.27l-.23-.14s.03-.03.04-.04l.23.14s-.03.02-.04.04h0Z"/>
                      <path class="cls-37" d="m42.9,77.32l-.23-.14s.02-.03.03-.05l.23.14s-.02.03-.03.05h0Z"/>
                    </g>
                  </g>
                </g>
                <path class="cls-7" d="m45.93,75.5s.09,0,.09.05l-.71,1.69-3.14,1.83.7-1.69s.02-.1.1-.15l2.96-1.73Z"/>
                <polygon class="cls-37" points="42.17 79.07 41.93 78.94 42.66 77.18 42.9 77.32 42.17 79.07"/>
              </g>
            </g>
          </g>
          <g>
            <g class="cls-12">
              <polygon class="cls-32" points="38.15 25.65 38.87 25.23 38.89 19.3 38.17 19.72 38.15 25.65"/>
              <polygon class="cls-6" points="38.17 19.72 38.89 19.3 21.21 9.05 20.5 9.47 38.17 19.72"/>
              <polygon class="cls-31" points="20.5 9.47 20.47 15.4 38.15 25.65 38.17 19.72 20.5 9.47"/>
            </g>
            <g>
              <path class="cls-24" d="m22.58,15.22c-.38-.22-.68-.52-.88-.88-.2-.36-.3-.77-.3-1.23,0-.23.03-.41.09-.55.06-.14.15-.24.25-.3.11-.06.23-.08.38-.06.15.02.31.08.48.18.1.06.19.12.27.18s.15.13.21.18c.06.06.11.11.15.16.04.05.07.08.09.11l-.15.41c-.07-.09-.16-.17-.25-.26-.1-.09-.21-.17-.33-.24-.08-.05-.16-.08-.24-.09-.08-.01-.15,0-.21.03-.06.03-.11.1-.14.19-.04.09-.05.21-.05.37,0,.13.01.25.04.37.02.12.06.24.12.35s.12.21.21.31c.09.1.19.18.31.25.08.04.15.08.21.1.06.02.12.04.16.06.05.01.09.02.13.02.04,0,.07,0,.1,0l.15.58c-.08,0-.18,0-.32-.04-.14-.04-.29-.11-.47-.21Z"/>
              <path class="cls-24" d="m25.87,15.71c0,.23-.03.42-.09.57-.06.14-.14.24-.25.3-.1.06-.23.08-.37.05s-.3-.08-.47-.18c-.16-.09-.31-.21-.46-.36-.14-.14-.27-.31-.37-.49-.11-.18-.19-.38-.25-.59-.06-.21-.09-.44-.09-.67s.03-.42.1-.56c.06-.14.15-.24.26-.3.11-.06.23-.08.37-.06.14.02.29.08.45.17.16.09.31.21.46.36s.27.31.37.49c.11.18.19.38.25.59.06.21.09.44.09.67Zm-1.8-1.05c0,.13.01.26.04.39.03.12.07.24.12.35.05.11.12.21.2.29.08.09.17.16.27.22.1.06.19.09.26.09s.14-.02.2-.07c.05-.05.09-.12.12-.21.03-.09.04-.2.04-.34s-.01-.26-.04-.39c-.03-.13-.07-.24-.12-.35-.05-.11-.12-.21-.2-.29-.08-.09-.17-.16-.26-.22-.1-.06-.19-.09-.27-.09-.08,0-.14.02-.2.07s-.09.12-.12.21c-.03.09-.04.21-.04.34Z"/>
              <path class="cls-24" d="m27.9,18.25c-.15-.4-.32-.81-.49-1.22-.18-.41-.37-.81-.57-1.19v1.79l-.52-.3v-2.74l.43.25c.08.13.16.29.25.46.09.18.18.37.28.57.09.2.19.4.28.61s.18.41.26.6v-1.62l.53.31v2.74l-.45-.26Z"/>
              <path class="cls-24" d="m30.65,17.11v.53l-.71-.41v2.21l-.53-.31v-2.21l-.71-.41v-.53l1.96,1.13Z"/>
              <path class="cls-24" d="m30.99,20.04v-2.74l1.6.92v.52l-1.06-.62v.54l.94.55v.51l-.94-.55v.66l1.14.66v.52l-1.67-.97Z"/>
              <path class="cls-24" d="m34.64,22.16c-.15-.4-.32-.81-.49-1.22-.18-.41-.37-.81-.57-1.19v1.79l-.52-.3v-2.74l.43.25c.07.13.16.29.25.46.09.18.18.37.28.57.09.2.19.4.28.61.09.21.18.41.26.6v-1.62l.53.31v2.74l-.45-.26Z"/>
              <path class="cls-24" d="m37.38,21.01v.53l-.71-.41v2.21l-.53-.31v-2.21l-.71-.41v-.53l1.96,1.13Z"/>
            </g>
          </g>
          <g>
            <g class="cls-12">
              <polygon class="cls-32" points="72.67 56.15 73.38 55.74 73.41 48.58 72.69 49 72.67 56.15"/>
              <polygon class="cls-6" points="72.69 49 73.41 48.58 44.49 31.78 43.78 32.2 72.69 49"/>
              <polygon class="cls-31" points="43.78 32.2 43.75 39.36 72.67 56.15 72.69 49 43.78 32.2"/>
            </g>
            <g>
              <path class="cls-24" d="m46.07,35.71c.35.2.62.43.81.69.19.25.28.54.28.87s-.1.51-.29.55c-.19.04-.46-.05-.82-.25l-.17-.1v.92s-.53-.31-.53-.31v-2.7c.12.04.24.09.37.16.13.06.24.13.34.18Zm.03.55s-.08-.04-.11-.06c-.04-.02-.07-.04-.1-.05v.79l.17.1c.18.11.32.16.42.15.09,0,.14-.08.14-.24,0-.08-.01-.15-.04-.21s-.06-.12-.1-.18c-.04-.06-.1-.11-.16-.16s-.13-.1-.21-.14Z"/>
              <path class="cls-24" d="m47.55,39.34v-2.74s1.59.92,1.59.92v.52l-1.06-.62v.54l.94.55v.51l-.94-.55v.66s1.14.66,1.14.66v.52l-1.67-.97Z"/>
              <path class="cls-24" d="m50.31,38.17c.35.21.63.44.81.69.19.26.28.54.28.85,0,.19-.04.33-.11.4-.08.08-.19.11-.33.09.05.1.1.2.15.32.05.12.1.24.15.37.05.13.1.25.15.39.05.13.09.26.13.38l-.59-.34c-.04-.11-.09-.23-.13-.35-.04-.12-.09-.23-.14-.35-.05-.11-.09-.22-.14-.33-.05-.1-.09-.2-.14-.29l-.26-.15v1s-.53-.31-.53-.31v-2.7c.12.04.24.09.36.15.12.06.23.12.33.18Zm.03.54s-.07-.04-.1-.06c-.03-.02-.06-.03-.09-.04v.74l.15.09c.2.12.34.17.43.16.09,0,.13-.08.13-.22s-.04-.26-.13-.36c-.09-.11-.22-.21-.39-.31Z"/>
              <path class="cls-24" d="m51.89,41.86v-2.74s1.58.92,1.58.92v.52l-1.05-.61v.57l.93.54v.52l-.93-.54v1.13s-.53-.31-.53-.31Z"/>
              <path class="cls-24" d="m56.07,42.91c0,.23-.03.42-.09.57-.06.14-.14.24-.25.3-.1.06-.23.08-.37.05-.14-.02-.3-.08-.47-.18-.16-.09-.31-.21-.46-.36-.14-.14-.27-.31-.37-.49s-.19-.38-.25-.59-.09-.44-.09-.67.03-.42.1-.56c.06-.14.15-.24.26-.3.11-.06.23-.08.37-.06.14.02.29.08.45.17.16.09.31.21.46.36s.27.31.37.49c.11.18.19.38.25.59.06.21.09.44.09.67Zm-1.8-1.05c0,.13.01.26.04.39.03.12.07.24.12.35.05.11.12.21.2.29.08.09.17.16.27.22.1.06.19.09.26.09.08,0,.14-.02.2-.07.05-.05.09-.12.12-.21.03-.09.04-.2.04-.34s-.01-.26-.04-.39c-.03-.13-.07-.24-.12-.35-.05-.11-.12-.21-.2-.29-.08-.09-.17-.16-.26-.22-.1-.06-.19-.09-.27-.09-.08,0-.14.02-.2.07-.05.05-.09.12-.12.21-.03.09-.04.21-.04.34Z"/>
              <path class="cls-24" d="m57.21,42.17c.35.21.63.44.81.69.19.26.28.54.28.85,0,.19-.04.33-.11.4s-.19.11-.33.09c.05.1.1.2.15.32.05.12.1.24.16.37.05.13.1.25.15.39.05.13.09.26.13.38l-.59-.34c-.04-.11-.09-.23-.13-.35-.04-.12-.09-.23-.14-.35-.05-.11-.09-.22-.14-.33-.05-.1-.09-.2-.14-.29l-.26-.15v1s-.53-.31-.53-.31v-2.7c.12.04.24.09.36.15.12.06.23.12.33.18Zm.03.54s-.07-.04-.1-.06c-.03-.02-.06-.03-.09-.04v.74l.15.09c.2.12.34.17.43.16.09,0,.13-.08.13-.22s-.04-.26-.13-.36c-.09-.11-.22-.21-.39-.31Z"/>
              <path class="cls-24" d="m59.41,43.48c.04.11.09.25.14.4.05.16.11.33.17.51.06.18.12.37.17.56.06.19.11.37.16.53.05-.11.1-.22.16-.35.06-.12.11-.24.17-.36.06-.12.11-.22.17-.32.05-.1.1-.18.14-.24l.48.28c.02.19.04.41.06.65s.04.48.05.73c.01.25.03.5.04.76.01.25.02.49.03.71l-.52-.3c0-.27-.02-.57-.03-.89-.01-.32-.03-.65-.05-.98-.04.09-.09.18-.14.29-.05.11-.1.21-.15.32-.05.11-.1.21-.14.3-.05.1-.08.18-.12.25l-.37-.22c-.03-.11-.07-.23-.12-.38-.05-.15-.09-.3-.14-.47-.05-.16-.1-.33-.15-.49-.05-.16-.1-.31-.14-.45-.02.31-.04.61-.05.92-.01.31-.02.59-.03.85l-.52-.3c0-.21.02-.44.03-.67.01-.24.03-.47.04-.71.01-.24.03-.46.05-.67.02-.21.04-.41.06-.57l.51.29Z"/>
              <path class="cls-24" d="m63.43,48.55c-.03-.11-.05-.22-.08-.34-.03-.12-.06-.24-.09-.35l-.92-.53c-.03.08-.06.17-.09.25-.03.08-.06.16-.08.24l-.55-.32c.09-.24.17-.47.25-.67.08-.2.16-.39.23-.57.08-.18.15-.34.23-.5.07-.16.15-.31.23-.45l.5.29c.08.23.15.47.23.72.08.24.15.5.23.76s.15.55.23.84c.08.3.16.62.25.96l-.57-.33Zm-.64-2.49s-.03.08-.05.13c-.02.06-.05.12-.08.19s-.06.15-.1.24c-.04.09-.07.18-.11.28l.68.39c-.04-.14-.07-.27-.1-.4-.03-.13-.07-.25-.1-.35-.03-.11-.06-.2-.08-.28-.02-.08-.04-.15-.06-.19Z"/>
              <path class="cls-24" d="m65.89,49.97c-.15-.4-.32-.81-.49-1.22-.18-.41-.37-.81-.57-1.19v1.79s-.52-.3-.52-.3v-2.74l.43.25c.07.13.16.29.25.46.09.18.18.37.28.57.09.2.19.4.28.61.09.21.18.41.26.6v-1.62l.53.31v2.74l-.45-.26Z"/>
              <path class="cls-24" d="m67.95,51.23c-.38-.22-.68-.52-.88-.88-.2-.36-.3-.77-.3-1.23,0-.23.03-.41.09-.55.06-.14.15-.24.25-.3.11-.06.23-.08.38-.06s.31.08.48.18c.1.06.19.12.27.18.08.06.15.13.21.18.06.06.11.11.15.16.04.05.07.08.09.11l-.15.41c-.07-.09-.16-.17-.25-.26-.1-.09-.21-.17-.33-.24-.08-.05-.16-.08-.24-.09-.08-.01-.15,0-.21.03-.06.03-.11.1-.14.19-.04.09-.05.21-.05.37,0,.13.01.25.04.37.02.12.06.24.12.35.05.11.12.21.21.31.09.1.19.18.31.25.08.04.15.08.21.1.06.02.12.04.16.06.05.01.09.02.13.02.04,0,.07,0,.1,0l.15.58c-.08,0-.18,0-.32-.04-.14-.04-.29-.11-.47-.21Z"/>
              <path class="cls-24" d="m69.09,51.83v-2.74l1.6.92v.52l-1.06-.62v.54l.94.55v.51l-.94-.55v.66s1.14.66,1.14.66v.52l-1.67-.97Z"/>
            </g>
          </g>
          <g>
            <g class="cls-12">
              <polygon class="cls-32" points="78.68 47.61 79.4 47.19 79.42 40.17 78.7 40.59 78.68 47.61"/>
              <polygon class="cls-6" points="78.7 40.59 79.42 40.17 54.73 25.85 54.01 26.27 78.7 40.59"/>
              <polygon class="cls-31" points="54.01 26.27 53.99 33.3 78.68 47.61 78.7 40.59 54.01 26.27"/>
            </g>
            <g>
              <path class="cls-24" d="m58.69,34.37c-.03-.14-.07-.28-.1-.42-.04-.14-.07-.29-.11-.43l-1.13-.66c-.04.1-.07.2-.11.31-.04.1-.07.2-.1.3l-.68-.39c.11-.3.21-.57.31-.83.1-.25.19-.49.29-.7.09-.22.19-.42.28-.61.09-.19.19-.38.28-.55l.62.36c.1.29.19.58.28.88.09.3.19.61.28.94.09.33.19.67.29,1.04.1.36.2.76.31,1.19l-.7-.41Zm-.79-3.06s-.04.09-.06.16c-.03.07-.06.15-.1.24s-.08.19-.12.29-.09.22-.14.34l.83.48c-.04-.17-.09-.34-.13-.49s-.08-.3-.12-.43c-.04-.13-.07-.25-.1-.35-.03-.1-.05-.18-.07-.24Z"/>
              <path class="cls-24" d="m61.71,36.13c-.19-.49-.39-.99-.61-1.49-.22-.5-.45-.99-.7-1.47v2.21l-.65-.37v-3.37l.53.31c.09.16.19.35.31.57.11.22.23.45.34.7.12.24.23.49.35.75.11.26.22.5.32.73v-1.99l.65.38v3.37l-.55-.32Z"/>
              <path class="cls-24" d="m64.87,37.96c-.03-.14-.07-.28-.1-.42-.04-.14-.07-.29-.11-.43l-1.13-.66c-.04.1-.07.2-.11.31s-.07.2-.1.3l-.68-.39c.11-.3.21-.57.31-.83s.19-.49.29-.7c.09-.22.19-.42.28-.61.09-.19.19-.38.28-.55l.62.36c.1.29.19.58.28.88.09.3.19.61.28.94.09.33.19.67.29,1.04.1.36.2.76.31,1.19l-.7-.41Zm-.79-3.06s-.04.09-.06.16c-.03.07-.06.15-.1.24-.04.09-.08.19-.12.29-.04.11-.09.22-.14.34l.83.48c-.04-.17-.09-.34-.13-.49-.04-.16-.08-.3-.12-.43-.04-.13-.07-.25-.1-.35-.03-.1-.05-.18-.07-.24Z"/>
              <path class="cls-24" d="m67.89,39.06v.65l-1.94-1.12v-3.37l.65.38v2.72l1.29.75Z"/>
              <path class="cls-24" d="m68.95,38.34c.12-.16.23-.33.34-.49.11-.17.2-.34.29-.52l.72.42c-.16.27-.32.53-.49.77s-.35.48-.54.71v1.29l-.65-.38v-1.28c-.19-.45-.37-.9-.54-1.34-.17-.44-.34-.89-.5-1.35l.76.44c.09.28.19.57.29.86.1.29.21.58.33.88Z"/>
              <path class="cls-24" d="m71.41,41.17c.09.05.17.09.23.11.06.02.11.02.14.01.04,0,.06-.03.08-.07.01-.03.02-.08.02-.13,0-.11-.04-.23-.13-.35-.09-.12-.24-.29-.46-.5-.09-.09-.19-.19-.28-.3-.09-.11-.18-.22-.26-.34-.08-.12-.14-.25-.18-.38-.05-.14-.07-.28-.07-.44s.03-.28.08-.38c.05-.1.12-.16.21-.19.09-.03.2-.04.34,0,.13.03.28.09.44.19.2.11.36.24.51.37.14.13.26.25.35.36l-.19.49c-.08-.1-.17-.19-.27-.29-.1-.09-.22-.18-.36-.26-.16-.09-.27-.13-.34-.12-.07.01-.1.07-.1.17,0,.06.01.12.04.18.03.06.06.12.11.18.05.06.1.12.16.18.06.06.13.13.2.2.15.15.28.29.39.42s.2.26.28.38.13.26.17.39.05.28.05.44c0,.31-.1.5-.28.57-.19.06-.48-.02-.86-.24-.13-.07-.24-.15-.35-.23-.1-.08-.19-.15-.27-.22-.08-.07-.15-.14-.21-.2-.06-.06-.11-.12-.14-.17l.18-.5c.09.11.19.22.32.33.13.12.28.23.47.34Z"/>
              <path class="cls-24" d="m73.05,39.34l.65.38v3.37l-.65-.38v-3.37Z"/>
              <path class="cls-24" d="m75.17,43.35c.09.05.17.09.23.11s.11.02.14.01c.04,0,.06-.03.08-.07.01-.03.02-.08.02-.13,0-.11-.04-.23-.13-.35-.09-.12-.24-.29-.46-.5-.09-.09-.19-.19-.28-.3-.09-.11-.18-.22-.26-.34-.08-.12-.14-.25-.18-.38-.05-.14-.07-.28-.07-.44s.03-.28.08-.38c.05-.1.12-.16.21-.19.09-.03.2-.04.34,0,.13.03.28.09.44.19.2.11.36.24.51.37.14.13.26.25.35.36l-.19.49c-.08-.1-.17-.19-.27-.29-.1-.09-.22-.18-.36-.26-.16-.09-.27-.13-.34-.12-.07.01-.1.07-.1.17,0,.06.01.12.04.18.03.06.06.12.11.18.05.06.1.12.16.18.06.06.13.13.2.2.15.15.28.29.39.42.11.13.2.26.28.38.07.13.13.26.17.39.04.13.05.28.05.44,0,.31-.09.5-.28.57-.19.06-.48-.02-.86-.24-.13-.07-.24-.15-.35-.23-.1-.08-.19-.15-.27-.22-.08-.07-.15-.14-.21-.2-.06-.06-.11-.12-.14-.17l.18-.5c.09.11.19.22.32.33.13.12.28.23.47.34Z"/>
            </g>
          </g>
          <g>
            <g class="cls-12">
              <polygon class="cls-32" points="53.71 21.76 54.43 21.34 54.45 14.31 53.74 14.73 53.71 21.76"/>
              <polygon class="cls-6" points="53.74 14.73 54.45 14.31 29.76 0 29.05 .42 53.74 14.73"/>
              <polygon class="cls-31" points="29.05 .42 29.02 7.44 53.71 21.76 53.74 14.73 29.05 .42"/>
            </g>
            <g>
              <path class="cls-24" d="m30.84,3.44c.04.11.09.25.14.4.05.16.11.33.17.51.06.18.12.37.17.56s.11.37.16.53c.05-.11.1-.22.16-.35.06-.12.11-.24.17-.36.06-.12.11-.22.17-.32.05-.1.1-.18.14-.24l.48.28c.02.19.04.41.06.65.02.24.04.48.05.73.01.25.03.5.04.76.01.25.02.49.03.71l-.52-.3c0-.27-.02-.57-.03-.89-.01-.32-.03-.65-.05-.98-.04.09-.09.18-.14.29-.05.11-.1.21-.15.32-.05.11-.1.21-.14.3-.05.1-.08.18-.12.25l-.37-.22c-.03-.11-.07-.23-.12-.38-.05-.15-.09-.3-.14-.47-.05-.16-.1-.33-.15-.49-.05-.16-.1-.31-.14-.45-.02.31-.04.61-.05.92-.01.31-.02.59-.03.85l-.52-.3c0-.21.02-.43.03-.67s.03-.47.04-.71c.01-.24.03-.46.05-.67.02-.21.04-.41.06-.57l.51.29Z"/>
              <path class="cls-24" d="m35.52,7.52c0,.23-.03.42-.09.57-.06.14-.14.24-.25.3-.1.06-.23.08-.37.05-.14-.02-.3-.08-.47-.18-.16-.09-.31-.21-.46-.36-.14-.14-.27-.31-.37-.49s-.19-.38-.25-.59c-.06-.21-.09-.44-.09-.67,0-.23.03-.42.1-.56.06-.14.15-.24.26-.3.11-.06.23-.08.37-.06s.29.08.45.17c.16.09.31.21.46.36.14.14.27.31.37.49.11.18.19.38.25.59.06.21.09.44.09.67Zm-1.8-1.05c0,.13.01.26.04.39.03.12.07.24.12.35.05.11.12.21.2.29.08.09.17.16.27.22.1.06.19.09.26.09.08,0,.14-.02.2-.07.05-.05.09-.12.12-.21.03-.09.04-.2.04-.34s-.01-.26-.04-.39c-.03-.13-.07-.24-.12-.35-.05-.11-.12-.21-.2-.29-.08-.09-.17-.16-.26-.22-.1-.06-.19-.09-.27-.09-.08,0-.14.02-.2.07-.05.05-.09.12-.12.21-.03.09-.04.21-.04.34Z"/>
              <path class="cls-24" d="m37.55,10.07c-.15-.4-.32-.81-.49-1.22-.18-.41-.37-.81-.57-1.19v1.79s-.52-.3-.52-.3v-2.74s.43.25.43.25c.07.13.16.29.25.46.09.18.18.37.28.57.09.2.19.4.28.61.09.21.18.41.26.6v-1.62s.53.31.53.31v2.74s-.45-.26-.45-.26Z"/>
              <path class="cls-24" d="m38.54,7.9l.53.31v2.74s-.53-.31-.53-.31v-2.74Z"/>
              <path class="cls-24" d="m41.37,9.54v.53l-.71-.41v2.21s-.53-.31-.53-.31v-2.21s-.71-.41-.71-.41v-.53l1.96,1.13Z"/>
              <path class="cls-24" d="m43.88,12.37c0,.23-.03.42-.09.57-.06.14-.14.24-.25.3s-.23.08-.37.05c-.14-.02-.3-.08-.47-.18-.16-.09-.31-.21-.46-.36-.14-.14-.27-.31-.37-.49-.11-.18-.19-.38-.25-.59s-.09-.44-.09-.67c0-.23.03-.42.1-.56.06-.14.15-.24.26-.3s.23-.08.38-.06c.14.02.29.08.45.17.16.09.31.21.46.36.14.14.27.31.37.49.11.18.19.38.25.59.06.21.09.44.09.67Zm-1.8-1.05c0,.13.01.26.04.39.03.12.07.24.12.35.05.11.12.21.2.29.08.09.17.16.27.22.1.06.19.09.26.09.08,0,.14-.02.2-.07.05-.05.09-.12.12-.21s.04-.2.04-.34-.01-.26-.04-.39-.07-.24-.12-.35c-.05-.11-.12-.21-.2-.29-.08-.09-.17-.16-.26-.22-.1-.06-.19-.09-.27-.09-.08,0-.14.02-.2.07-.05.05-.09.12-.12.21-.03.09-.04.21-.04.34Z"/>
              <path class="cls-24" d="m45.01,11.62c.35.21.63.44.81.69.19.26.28.54.28.85,0,.19-.04.33-.11.4-.08.08-.19.11-.33.09.05.1.1.2.15.32.05.12.1.24.16.37.05.13.1.25.15.39.05.13.09.26.13.38l-.59-.34c-.04-.11-.09-.23-.13-.35-.04-.12-.09-.23-.14-.35-.05-.11-.09-.22-.14-.33-.05-.1-.09-.2-.14-.29l-.26-.15v1l-.53-.31v-2.7c.12.04.24.09.36.15.12.06.23.12.33.18Zm.03.54s-.07-.04-.1-.06c-.03-.01-.06-.03-.09-.04v.74l.15.09c.2.12.34.17.43.16.09,0,.13-.08.13-.22s-.04-.26-.13-.36c-.09-.11-.22-.21-.39-.31Z"/>
              <path class="cls-24" d="m46.6,12.57l.53.31v2.74s-.53-.31-.53-.31v-2.74Z"/>
              <path class="cls-24" d="m49.26,16.85c-.15-.4-.32-.81-.49-1.22-.18-.41-.37-.81-.57-1.19v1.79s-.53-.3-.53-.3v-2.74s.43.25.43.25c.07.13.16.29.25.46.09.18.18.37.28.57.09.2.19.4.28.61.09.21.18.41.26.6v-1.62s.53.31.53.31v2.74s-.45-.26-.45-.26Z"/>
              <path class="cls-24" d="m51.4,15.83c-.25-.14-.43-.17-.54-.07-.11.1-.17.28-.17.56,0,.13.01.26.04.39.03.13.07.24.12.35.05.11.12.21.2.3.08.09.18.17.29.23.06.03.11.06.15.08.04.02.08.04.11.05v-.95s.53.31.53.31v1.36c-.06,0-.17-.04-.31-.08-.14-.05-.31-.13-.52-.25-.18-.1-.34-.23-.48-.37-.14-.15-.27-.31-.37-.49-.1-.18-.18-.38-.24-.58-.06-.21-.08-.43-.08-.65,0-.23.03-.41.09-.56.06-.14.15-.24.25-.3.11-.06.23-.08.38-.06.14.02.3.08.46.17.11.06.21.13.3.2.09.07.17.13.23.19.06.06.12.11.16.16s.07.08.09.11l-.15.41c-.07-.09-.16-.17-.25-.26-.09-.09-.2-.16-.31-.23Z"/>
            </g>
          </g>
        </g>
      </g>
    </g>
  </g>
</svg>