<?xml version="1.0" encoding="UTF-8"?>
<svg xmlns="http://www.w3.org/2000/svg" xmlns:xlink="http://www.w3.org/1999/xlink" viewBox="0 0 83.6 81.7">
  <defs>
    <style>
      .cls-1 {
        opacity: .8;
      }

      .cls-1, .cls-2, .cls-3 {
        fill: #bcc5df;
      }

      .cls-1, .cls-3 {
        mix-blend-mode: multiply;
      }

      .cls-4 {
        fill: #f3a984;
      }

      .cls-5 {
        clip-path: url(#clippath-11);
      }

      .cls-6 {
        fill: #13b7fd;
      }

      .cls-7 {
        clip-path: url(#clippath-16);
      }

      .cls-8 {
        fill: #f4f4f4;
      }

      .cls-9 {
        fill: #eff6fe;
      }

      .cls-10 {
        fill: #fff;
      }

      .cls-11 {
        fill: #1c232a;
      }

      .cls-12 {
        fill: #ee9c76;
      }

      .cls-13 {
        fill: #283032;
      }

      .cls-14 {
        fill: #e9ecf5;
      }

      .cls-15 {
        fill: #0e8fa7;
      }

      .cls-16 {
        clip-path: url(#clippath-2);
      }

      .cls-17 {
        fill: #ffde23;
      }

      .cls-18 {
        fill: #f75061;
      }

      .cls-19 {
        clip-path: url(#clippath-13);
      }

      .cls-20 {
        isolation: isolate;
      }

      .cls-21 {
        fill: #8763cd;
      }

      .cls-22 {
        fill: #a6afcd;
      }

      .cls-23 {
        fill: #ffbf99;
      }

      .cls-24 {
        fill: #372b3d;
      }

      .cls-25 {
        opacity: .2;
      }

      .cls-26 {
        clip-path: url(#clippath-15);
      }

      .cls-27 {
        clip-path: url(#clippath-6);
      }

      .cls-28 {
        fill: #a89317;
      }

      .cls-29 {
        fill: #ffb700;
      }

      .cls-30 {
        fill: #b98c74;
      }

      .cls-31 {
        fill: #47e0ff;
        mix-blend-mode: screen;
      }

      .cls-31, .cls-32 {
        opacity: .3;
      }

      .cls-33 {
        clip-path: url(#clippath-7);
      }

      .cls-34 {
        fill: #e5354f;
      }

      .cls-35 {
        fill: #ecf5fe;
      }

      .cls-36 {
        clip-path: url(#clippath-1);
      }

      .cls-37 {
        clip-path: url(#clippath-4);
      }

      .cls-38 {
        fill: #2c2030;
      }

      .cls-39 {
        fill: #ffd438;
      }

      .cls-40 {
        fill: #ffbfa2;
      }

      .cls-41 {
        fill: #c99c83;
      }

      .cls-42 {
        opacity: .4;
      }

      .cls-43 {
        clip-path: url(#clippath-12);
      }

      .cls-44 {
        fill: #1499fc;
      }

      .cls-45 {
        fill: #0f1317;
      }

      .cls-46 {
        fill: #cddcfb;
      }

      .cls-47 {
        fill: #828cc0;
      }

      .cls-48, .cls-32 {
        fill: #15d9fd;
      }

      .cls-49 {
        clip-path: url(#clippath-9);
      }

      .cls-50 {
        fill: #dde3f4;
      }

      .cls-51 {
        clip-path: url(#clippath);
      }

      .cls-52 {
        fill: #546282;
      }

      .cls-53 {
        fill: #f8b495;
      }

      .cls-54 {
        fill: none;
      }

      .cls-55 {
        fill: #251b29;
      }

      .cls-56 {
        clip-path: url(#clippath-3);
      }

      .cls-57 {
        fill: #ff445f;
      }

      .cls-58 {
        clip-path: url(#clippath-8);
      }

      .cls-59 {
        fill: #6e4cb3;
      }

      .cls-60 {
        clip-path: url(#clippath-14);
      }

      .cls-3 {
        opacity: .5;
      }

      .cls-61 {
        clip-path: url(#clippath-5);
      }

      .cls-62 {
        fill: #5e3e9e;
      }

      .cls-63 {
        fill: #d6af75;
      }

      .cls-64 {
        fill: #3f4961;
      }

      .cls-65 {
        clip-path: url(#clippath-10);
      }

      .cls-66 {
        fill: #d4dbef;
      }

      .cls-67 {
        fill: #0d889f;
      }

      .cls-68 {
        fill: #7f89a6;
      }

      .cls-69 {
        fill: #eef1f8;
      }

      .cls-70 {
        fill: #f5a783;
      }

      .cls-71 {
        fill: #d4e2fc;
      }
    </style>
    <clipPath id="clippath">
      <path class="cls-55" d="m61.49,32.59l-2.18,1.27c-1,.58-1.63,1.82-1.63,3.59-.01,3.55,2.48,7.87,5.57,9.65l2.18-1.27c-3.09-1.78-5.58-6.1-5.57-9.65,0-1.76.63-3,1.63-3.59Z"/>
    </clipPath>
    <clipPath id="clippath-1">
      <path class="cls-55" d="m67.23,47.49l2.18-1.27c-1.02.59-2.42.51-3.98-.39l-2.18,1.27c1.55.9,2.96.98,3.98.39Z"/>
    </clipPath>
    <clipPath id="clippath-2">
      <path class="cls-55" d="m60.06,30.13l-2.18,1.27c1.38-.8,3.3-.69,5.42.53l2.18-1.27c-2.12-1.22-4.03-1.34-5.42-.53Z"/>
    </clipPath>
    <clipPath id="clippath-3">
      <path class="cls-55" d="m68.67,49.95l2.18-1.27c1.37-.79,2.21-2.48,2.22-4.88.01-4.83-3.38-10.72-7.59-13.14l-2.18,1.27c4.2,2.43,7.6,8.31,7.59,13.14,0,2.4-.85,4.09-2.22,4.88Z"/>
    </clipPath>
    <clipPath id="clippath-4">
      <path class="cls-14" d="m75.66,53.53l-3.99-5.7s-.21.14-.57.4l3.99,5.7c.37-.26.57-.4.57-.4Z"/>
    </clipPath>
    <clipPath id="clippath-5">
      <path class="cls-14" d="m69.37,49.44l3.99,5.7s.05-.03.15-.11c.32-.22,1.02-.71,1.57-1.1l-3.99-5.7c-.55.38-1.25.88-1.57,1.1-.1.07-.15.11-.15.11Z"/>
    </clipPath>
    <clipPath id="clippath-6">
      <path class="cls-34" d="m82.66,61.91l-7.54-10.77s-.34.24-.94.66l7.54,10.77c.6-.42.94-.66.94-.66Z"/>
    </clipPath>
    <clipPath id="clippath-7">
      <path class="cls-34" d="m71.34,53.77l7.54,10.77s.08-.06.25-.18c.52-.36,1.67-1.17,2.57-1.8l-7.54-10.77c-.9.63-2.05,1.44-2.57,1.8-.17.12-.25.18-.25.18Z"/>
    </clipPath>
    <clipPath id="clippath-8">
      <path class="cls-54" d="m19.25,50.01v3.7c-.34-.7-.97-1.35-1.92-1.9v-3.7c.96.55,1.59,1.2,1.92,1.9Z"/>
    </clipPath>
    <clipPath id="clippath-9">
      <path class="cls-54" d="m19.51,51.14v3.7c0-.38-.1-.76-.27-1.13v-3.7c.18.37.27.75.27,1.13Z"/>
    </clipPath>
    <clipPath id="clippath-10">
      <path class="cls-34" d="m4.82,54.8v-3.7c.01-1.08.72-2.16,2.14-2.98,2.86-1.66,7.5-1.66,10.38,0v3.7c-2.88-1.66-7.53-1.66-10.39,0-1.42.82-2.13,1.9-2.13,2.98Z"/>
    </clipPath>
    <clipPath id="clippath-11">
      <path class="cls-54" d="m0,54.77v-3.7c0,.62.15,1.24.44,1.86v3.7C.14,56.01,0,55.39,0,54.77Z"/>
    </clipPath>
    <clipPath id="clippath-12">
      <path class="cls-54" d="m9.08,57.92v3.7c-2.18-.34-4.04-.96-5.51-1.81s-2.55-1.93-3.13-3.18v-3.7c.6,1.25,1.67,2.33,3.15,3.18,1.47.85,3.34,1.47,5.5,1.81Z"/>
    </clipPath>
    <clipPath id="clippath-13">
      <path class="cls-54" d="m24.37,51.15v3.7c-.02,3.1-3.58,5.93-9,6.77-2.16.34-4.14.34-6.3,0v-3.7c2.18.34,4.15.34,6.31,0,5.41-.84,8.98-3.67,8.99-6.77Z"/>
    </clipPath>
    <clipPath id="clippath-14">
      <path class="cls-54" d="m19.42,56.27l-.5.29s.08-.02.14.01l.5-.29c-.05-.03-.1-.03-.14-.01Z"/>
    </clipPath>
    <clipPath id="clippath-15">
      <path class="cls-9" d="m48.45,67.47l.09-.05s.05-.06.05-.12l-.09.05c0,.06-.02.1-.05.12Z"/>
    </clipPath>
    <clipPath id="clippath-16">
      <path class="cls-9" d="m48.51,65.59l.09-.05c0-.12-.08-.26-.19-.32l-.09.05c.1.06.19.2.19.32Z"/>
    </clipPath>
  </defs>
  <g class="cls-20">
    <g id="Layer_2" data-name="Layer 2">
      <g id="Layer_1-2" data-name="Layer 1">
        <g>
          <g>
            <g class="cls-20">
              <polygon class="cls-2" points="82.03 47.92 82.84 47.45 82.91 23.56 82.1 24.03 82.03 47.92"/>
              <polygon class="cls-10" points="82.1 24.03 82.91 23.56 48.17 3.5 47.36 3.97 82.1 24.03"/>
              <polygon class="cls-14" points="47.36 3.97 47.29 27.86 82.03 47.92 82.1 24.03 47.36 3.97"/>
            </g>
            <g>
              <g class="cls-42">
                <path class="cls-24" d="m80.84,46.39l-.03-.02-32.69-18.88V5.66s.03.02.03.02l32.69,18.88v21.84Zm-32.68-18.92l32.64,18.85v-21.75S48.15,5.73,48.15,5.73v21.75Z"/>
                <rect class="cls-24" x="64.46" y="-.11" width=".04" height="37.74" transform="translate(15.99 65.22) rotate(-60)"/>
                <rect class="cls-24" x="64.46" y="3.52" width=".04" height="37.74" transform="translate(12.85 67.03) rotate(-60)"/>
                <rect class="cls-24" x="64.46" y="7.15" width=".04" height="37.74" transform="translate(9.7 68.85) rotate(-60)"/>
                <rect class="cls-24" x="64.46" y="10.79" width=".04" height="37.74" transform="translate(6.56 70.67) rotate(-60)"/>
                <rect class="cls-24" x="64.46" y="14.42" width=".04" height="37.74" transform="translate(3.41 72.48) rotate(-60)"/>
                <rect class="cls-24" x="51.38" y="7.58" width=".04" height="21.79"/>
                <rect class="cls-24" x="54.65" y="9.47" width=".04" height="21.79"/>
                <rect class="cls-24" x="57.92" y="11.35" width=".04" height="21.79"/>
                <rect class="cls-24" x="61.19" y="13.24" width=".04" height="21.79"/>
                <rect class="cls-24" x="64.46" y="15.13" width=".04" height="21.79"/>
                <rect class="cls-24" x="67.72" y="17.01" width=".04" height="21.79"/>
                <rect class="cls-24" x="70.99" y="18.9" width=".04" height="21.79"/>
                <rect class="cls-24" x="74.26" y="20.79" width=".04" height="21.79"/>
                <rect class="cls-24" x="77.53" y="22.68" width=".04" height="21.79"/>
              </g>
              <polygon class="cls-22" points="77.55 44.47 80.82 46.36 80.82 36.32 77.55 34.43 77.55 44.47"/>
              <polygon class="cls-22" points="72.65 41.64 75.92 43.53 75.92 40.4 72.65 38.51 72.65 41.64"/>
              <polygon class="cls-22" points="53.04 30.32 56.3 32.2 56.31 15.91 53.04 14.03 53.04 30.32"/>
              <polygon class="cls-22" points="62.84 35.98 66.11 37.86 66.11 30.45 62.84 28.57 62.84 35.98"/>
              <polygon class="cls-22" points="48.13 27.49 51.4 29.37 51.4 23.21 48.13 21.32 48.13 27.49"/>
              <polygon class="cls-22" points="67.74 38.81 71.01 40.69 71.01 21.45 67.74 19.56 67.74 38.81"/>
              <polygon class="cls-22" points="57.94 33.15 61.21 35.03 61.21 22.71 57.94 20.82 57.94 33.15"/>
            </g>
          </g>
          <g>
            <g>
              <g class="cls-20">
                <polygon class="cls-2" points="67.36 30.75 68.21 30.26 68.08 75.37 67.23 75.86 67.36 30.75"/>
                <polygon class="cls-10" points="15.42 .77 16.27 .27 68.21 30.26 67.36 30.75 15.42 .77"/>
                <polygon class="cls-69" points="67.36 30.75 67.23 75.86 15.3 45.88 15.42 .77 67.36 30.75"/>
              </g>
              <g>
                <polygon class="cls-18" points="53.12 44.38 51.22 43.28 51.22 41.08 53.12 42.18 53.12 44.38"/>
                <polygon class="cls-48" points="53.12 47.39 51.22 46.29 51.22 44.08 53.12 45.19 53.12 47.39"/>
                <polygon class="cls-17" points="53.12 50.4 51.22 49.29 51.22 47.09 53.12 48.19 53.12 50.4"/>
                <polygon class="cls-18" points="66.11 51.87 54.04 44.91 54.04 42.71 66.11 49.67 66.11 51.87"/>
                <polygon class="cls-48" points="66.11 54.88 54.04 47.92 54.04 45.71 66.11 52.68 66.11 54.88"/>
                <polygon class="cls-17" points="66.11 57.89 54.04 50.92 54.04 48.72 66.11 55.69 66.11 57.89"/>
              </g>
              <g>
                <g class="cls-25">
                  <path class="cls-47" d="m16.71,21.63v24.24l32.92,19.01v-24.24l-.03-.02h0L16.79,21.68h0l-.08-.05Zm.11,17.41l2.87,1.66v3.32l-2.87-1.66v-3.32Zm32.7,4.97l-2.87-1.66v-3.32l2.87,1.66v3.32ZM16.82,21.82l2.87,1.66v3.32l-2.87-1.66v-3.32Zm17.79,17.16v3.32l-2.87-1.66v-3.32l2.87,1.66Zm-2.87,5.1v-3.32l2.87,1.66v3.32l-2.87-1.66Zm5.86.06v3.32l-2.87-1.66v-3.32l2.87,1.66Zm-8.84-1.79v-3.32l2.87,1.66v3.32l-2.87-1.66Zm0-3.44v-3.32l2.87,1.66v3.32l-2.87-1.66Zm8.84,1.79v3.32l-2.87-1.66v-3.32l2.87,1.66Zm2.98,5.17v3.32l-2.87-1.66v-3.32l2.87,1.66Zm0,3.44v3.32l-2.87-1.66v-3.32l2.87,1.66Zm-2.98,1.59l-2.87-1.66v-3.32l2.87,1.66v3.32Zm-2.98-1.72l-2.87-1.66v-3.32l2.87,1.66v3.32Zm-2.98-1.72l-2.87-1.66v-3.32l2.87,1.66v3.32Zm-5.86-6.82v-3.32l2.87,1.66v3.32l-2.87-1.66Zm0-3.44v-3.32l2.87,1.66v3.32l-2.87-1.66Zm14.8,5.23v3.32l-2.87-1.66v-3.32l2.87,1.66Zm2.98,5.17v3.32l-2.87-1.66v-3.32l2.87,1.66Zm0,3.44v3.32l-2.87-1.66v-3.32l2.87,1.66Zm-17.79-6.95v-3.32l2.87,1.66v3.32l-2.87-1.66Zm-2.98-5.17v-3.32l2.87,1.66v3.32l-2.87-1.66Zm0-3.44v-3.32l2.87,1.66v3.32l-2.87-1.66Zm2.98-1.72v-3.32l2.87,1.66v3.32l-2.87-1.66Zm2.98-1.59l2.87,1.66v3.32l-2.87-1.66v-3.32Zm2.98,1.72l2.87,1.66v3.32l-2.87-1.66v-3.32Zm2.98,1.72l2.87,1.66v3.32l-2.87-1.66v-3.32Zm2.98,1.72l2.87,1.66v3.32l-2.87-1.66v-3.32Zm2.98,1.72l2.87,1.66v3.32l-2.87-1.66v-3.32Zm2.87,5.1v3.32l-2.87-1.66v-3.32l2.87,1.66Zm2.98,5.17v3.32l-2.87-1.66v-3.32l2.87,1.66Zm0,3.44v3.32l-2.87-1.66v-3.32l2.87,1.66Zm-23.75-10.4v-3.32l2.87,1.66v3.32l-2.87-1.66Zm-2.98-5.17v-3.32l2.87,1.66v3.32l-2.87-1.66Zm0-3.44v-3.32l2.87,1.66v3.32l-2.87-1.66Zm2.98-1.72v-3.32l2.87,1.66v3.32l-2.87-1.66Zm0-3.44v-3.32l2.87,1.66v3.32l-2.87-1.66Zm2.98-1.59l2.87,1.66v3.32l-2.87-1.66v-3.32Zm2.98,1.72l2.87,1.66v3.32l-2.87-1.66v-3.32Zm2.98,1.72l2.87,1.66v3.32l-2.87-1.66v-3.32Zm2.98,1.72l2.87,1.66v3.32l-2.87-1.66v-3.32Zm2.98,1.72l2.87,1.66v3.32l-2.87-1.66v-3.32Zm2.98,1.72l2.87,1.66v3.32l-2.87-1.66v-3.32Zm2.98,1.72l2.87,1.66v3.32l-2.87-1.66v-3.32Zm2.87,5.1v3.32l-2.87-1.66v-3.32l2.87,1.66Zm0,3.44v3.32l-2.87-1.66v-3.32l2.87,1.66Zm2.98,5.17v3.32l-2.87-1.66v-3.32l2.87,1.66Zm0,6.76l-2.87-1.66v-3.32l2.87,1.66v3.32Zm-5.97-3.32v3.32l-2.87-1.66v-3.32l2.87,1.66Zm-2.98,1.59l-2.87-1.66v-3.32l2.87,1.66v3.32Zm-2.98-1.72l-2.87-1.66v-3.32l2.87,1.66v3.32Zm-2.98-1.72l-2.87-1.66v-3.32l2.87,1.66v3.32Zm-2.98-1.72l-2.87-1.66v-3.32l2.87,1.66v3.32Zm-2.98-1.72l-2.87-1.66v-3.32l2.87,1.66v3.32Zm-2.98-1.72l-2.87-1.66v-3.32l2.87,1.66v3.32Zm-5.86-6.82v-3.32l2.87,1.66v3.32l-2.87-1.66Zm-2.98-5.17v-3.32l2.87,1.66v3.32l-2.87-1.66Zm0-3.44v-3.32l2.87,1.66v3.32l-2.87-1.66Zm2.98-1.72v-3.32l2.87,1.66v3.32l-2.87-1.66Zm0-3.44v-3.32l2.87,1.66v3.32l-2.87-1.66Zm29.72,20.6l-2.87-1.66v-3.32l2.87,1.66v3.32Zm0,3.44l-2.87-1.66v-3.32l2.87,1.66v3.32Zm0,10.33l-2.87-1.66v-3.32l2.87,1.66v3.32Zm-2.98-1.72l-2.87-1.66v-3.32l2.87,1.66v3.32Zm0,.13v3.32l-2.87-1.66v-3.32l2.87,1.66Zm-2.98,1.59l-2.87-1.66v-3.32l2.87,1.66v3.32Zm-2.98-1.72l-2.87-1.66v-3.32l2.87,1.66v3.32Zm-2.98-1.72l-2.87-1.66v-3.32l2.87,1.66v3.32Zm-2.98-1.72l-2.87-1.66v-3.32l2.87,1.66v3.32Zm-2.98-1.72l-2.87-1.66v-3.32l2.87,1.66v3.32Zm-2.98-1.72l-2.87-1.66v-3.32l2.87,1.66v3.32Zm-2.98-1.72l-2.87-1.66v-3.32l2.87,1.66v3.32Zm-2.98-1.72l-2.87-1.66v-3.32l2.87,1.66v3.32Zm-2.87-5.1v-3.32l2.87,1.66v3.32l-2.87-1.66Zm-2.98-8.48l2.87,1.66v3.32l-2.87-1.66v-3.32Zm0-10.33l2.87,1.66v3.32l-2.87-1.66v-3.32Zm32.7,39.42l-2.87-1.66v-3.32l2.87,1.66v3.32Zm-32.7-18.88v-3.32l2.87,1.66v3.32l-2.87-1.66Z"/>
                </g>
                <path class="cls-18" d="m49.05,54.22s.06,0,.09-.02c.11-.05.16-.18.11-.29-.21-.47-2.08-4.64-3.18-5.31-.59-.36-1.13.16-1.61.61-.49.46-.8.72-1.09.54-1.11-.71-2.11-3.24-3.08-5.69-1.04-2.62-2.02-5.1-3.24-5.89-.66-.43-1.29.14-1.85.65-.57.51-.96.83-1.31.61-.69-.43-1.26-2.09-1.86-3.84-.88-2.58-1.88-5.51-3.77-6.27-1.25-.5-2.34-.29-3.33.64-.84.79-1.48,1.96-2.11,3.1-1.16,2.13-1.96,3.38-3.21,2.8-.9-.42-1.89-2.68-2.19-3.51-.04-.11-.17-.17-.28-.13-.11.04-.17.17-.13.28.05.13,1.17,3.18,2.42,3.76.78.36,1.5.19,2.19-.52.58-.6,1.07-1.5,1.6-2.46,1.22-2.22,2.47-4.52,4.89-3.55,1.7.69,2.67,3.51,3.52,6,.65,1.91,1.21,3.55,2.04,4.07.66.41,1.29-.16,1.84-.66.59-.53.97-.83,1.32-.6,1.1.72,2.11,3.24,3.07,5.69,1.04,2.63,2.03,5.11,3.25,5.9.59.38,1.14-.14,1.63-.59.47-.44.8-.72,1.08-.55.83.5,2.45,3.86,3.01,5.11.04.08.12.13.2.13Z"/>
                <g>
                  <polygon class="cls-18" points="41.13 59.84 46.43 62.9 46.43 53.18 41.13 50.12 41.13 59.84"/>
                  <polygon class="cls-17" points="33.17 55.24 38.47 58.3 38.47 43.79 33.17 40.73 33.17 55.24"/>
                  <polygon class="cls-39" points="17.26 46.06 22.56 49.12 22.56 40.07 17.26 37.01 17.26 46.06"/>
                  <polygon class="cls-18" points="25.21 50.65 30.52 53.71 30.52 35.27 25.21 32.2 25.21 50.65"/>
                </g>
              </g>
              <g>
                <g>
                  <path class="cls-39" d="m19.65,16l-1.68.48c1.25,2.64,3.23,5.03,5.46,6.32v-2.42c-1.54-.89-2.92-2.55-3.78-4.37Z"/>
                  <path class="cls-39" d="m27.8,19.52c-.71,1.57-2.4,2-4.37.86v2.42c2.84,1.64,5.29,1.03,6.31-1.24l-1.94-2.04Z"/>
                  <path class="cls-39" d="m23.44,9.47v-2.42c-2.84-1.64-5.29-1.03-6.31,1.24l1.94,2.04c.71-1.57,2.4-2,4.37-.86Z"/>
                  <path class="cls-39" d="m18.71,12.19c0-.73.13-1.36.36-1.87l-1.94-2.04c-.33.73-.51,1.64-.51,2.7,0,1.77.51,3.7,1.36,5.51l1.68-.48c-.59-1.25-.94-2.59-.94-3.81Z"/>
                  <path class="cls-57" d="m27.22,13.84l1.68-.48c-1.25-2.64-3.23-5.03-5.46-6.32v2.42c1.54.89,2.92,2.55,3.78,4.37Z"/>
                  <path class="cls-57" d="m28.16,17.65c0,.73-.13,1.36-.36,1.87l1.94,2.04c.33-.73.51-1.64.51-2.7,0-1.77-.51-3.7-1.36-5.51l-1.68.48c.59,1.25.94,2.59.94,3.81Z"/>
                </g>
                <g>
                  <g class="cls-42">
                    <path class="cls-46" d="m60.55,43.01l-.03-.02-28.38-16.38v-13.69s.03.02.03.02l28.38,16.38v13.69Zm-28.37-16.43l28.33,16.35v-13.6s-28.33-16.35-28.33-16.35v13.6Z"/>
                    <rect class="cls-46" x="46.32" y="7.04" width=".04" height="32.76" transform="translate(2.89 51.84) rotate(-60)"/>
                    <rect class="cls-46" x="46.32" y="9.31" width=".04" height="32.76" transform="translate(.92 52.98) rotate(-60)"/>
                    <rect class="cls-46" x="46.32" y="11.59" width=".04" height="32.76" transform="translate(-1.05 54.12) rotate(-60)"/>
                    <rect class="cls-46" x="46.32" y="13.86" width=".04" height="32.76" transform="translate(-3.02 55.25) rotate(-60)"/>
                    <rect class="cls-46" x="46.32" y="16.13" width=".04" height="32.76" transform="translate(-4.99 56.39) rotate(-60)"/>
                    <rect class="cls-46" x="57.67" y="27.69" width=".04" height="13.65"/>
                    <rect class="cls-46" x="54.83" y="26.05" width=".04" height="13.65"/>
                    <rect class="cls-46" x="52" y="24.42" width=".04" height="13.65"/>
                    <rect class="cls-46" x="49.16" y="22.78" width=".04" height="13.65"/>
                    <rect class="cls-46" x="46.32" y="21.14" width=".04" height="13.65"/>
                    <rect class="cls-46" x="43.49" y="19.5" width=".04" height="13.65"/>
                    <rect class="cls-46" x="40.65" y="17.87" width=".04" height="13.65"/>
                    <rect class="cls-46" x="37.81" y="16.23" width=".04" height="13.65"/>
                    <rect class="cls-46" x="34.97" y="14.59" width=".04" height="13.65"/>
                  </g>
                  <polygon class="cls-39" points="35 28.24 32.16 26.6 32.16 15.23 35 16.86 35 28.24"/>
                  <polygon class="cls-18" points="39.25 30.69 36.41 29.05 36.41 22.19 39.25 23.83 39.25 30.69"/>
                  <polygon class="cls-18" points="56.27 40.52 53.43 38.88 53.44 32.02 56.27 33.66 56.27 40.52"/>
                  <polygon class="cls-18" points="47.76 35.61 44.92 33.97 44.92 31.48 47.76 33.12 47.76 35.61"/>
                  <polygon class="cls-39" points="60.53 42.98 57.69 41.34 57.69 35.65 60.53 37.29 60.53 42.98"/>
                  <polygon class="cls-39" points="43.51 33.15 40.67 31.51 40.67 22.41 43.51 24.04 43.51 33.15"/>
                  <polygon class="cls-39" points="52.02 38.06 49.18 36.43 49.18 24.3 52.02 25.94 52.02 38.06"/>
                </g>
              </g>
              <g>
                <path class="cls-48" d="m58.25,62.44l-3.19,4.53c-3.05-3.79-4.09-8.89-2.33-11.39,1.17-1.67,3.17-1.85,5.52-.49v7.36Z"/>
                <path class="cls-22" d="m58.25,62.44l3.18,8.21c-2.03.18-4.34-1.15-6.37-3.68l3.19-4.53Z"/>
                <path class="cls-18" d="m58.25,62.44l3.19-4.53c3.05,3.79,4.09,8.89,2.33,11.39-.59.83-1.32,1.26-2.33,1.35l-3.18-8.21Z"/>
                <path class="cls-17" d="m58.25,62.44v-7.36c1.17.68,2.17,1.56,3.19,2.82l-3.19,4.53Z"/>
              </g>
            </g>
            <g>
              <g class="cls-20">
                <g class="cls-20">
                  <path class="cls-55" d="m61.49,32.59l-2.18,1.27c-1,.58-1.63,1.82-1.63,3.59-.01,3.55,2.48,7.87,5.57,9.65l2.18-1.27c-3.09-1.78-5.58-6.1-5.57-9.65,0-1.76.63-3,1.63-3.59Z"/>
                  <g class="cls-51">
                    <g class="cls-20">
                      <path class="cls-55" d="m63.25,47.1l2.18-1.27c-.96-.56-1.87-1.36-2.66-2.31l-2.18,1.27c.79.95,1.7,1.75,2.66,2.31h0Z"/>
                      <path class="cls-55" d="m60.59,44.79l2.18-1.27c-1.74-2.09-2.92-4.9-2.91-7.34,0-.89.16-1.65.45-2.26l-2.18,1.27c-.29.61-.45,1.36-.45,2.26,0,2.44,1.17,5.25,2.91,7.34h0Z"/>
                      <path class="cls-55" d="m58.13,35.19l2.18-1.27c.28-.59.68-1.04,1.18-1.33l-2.18,1.27c-.5.29-.9.74-1.18,1.33h0Z"/>
                    </g>
                  </g>
                </g>
                <g class="cls-20">
                  <path class="cls-55" d="m67.23,47.49l2.18-1.27c-1.02.59-2.42.51-3.98-.39l-2.18,1.27c1.55.9,2.96.98,3.98.39Z"/>
                  <g class="cls-36">
                    <g class="cls-20">
                      <path class="cls-55" d="m67.23,47.49l2.18-1.27c-1.02.59-2.42.51-3.98-.39l-2.18,1.27c1.55.9,2.96.98,3.98.39h0Z"/>
                    </g>
                  </g>
                </g>
                <g class="cls-20">
                  <path class="cls-55" d="m60.06,30.13l-2.18,1.27c1.38-.8,3.3-.69,5.42.53l2.18-1.27c-2.12-1.22-4.03-1.34-5.42-.53Z"/>
                  <g class="cls-16">
                    <g class="cls-20">
                      <path class="cls-55" d="m63.3,31.92l2.18-1.27c-2.12-1.22-4.03-1.34-5.42-.53l-2.18,1.27c1.38-.8,3.3-.69,5.42.53h0Z"/>
                    </g>
                  </g>
                </g>
                <g class="cls-20">
                  <path class="cls-55" d="m68.67,49.95l2.18-1.27c1.37-.79,2.21-2.48,2.22-4.88.01-4.83-3.38-10.72-7.59-13.14l-2.18,1.27c4.2,2.43,7.6,8.31,7.59,13.14,0,2.4-.85,4.09-2.22,4.88Z"/>
                  <g class="cls-56">
                    <g class="cls-20">
                      <path class="cls-55" d="m68.67,49.95l2.18-1.27c.68-.39,1.22-1,1.61-1.81l-2.18,1.27c-.38.81-.93,1.42-1.61,1.81h0Z"/>
                      <path class="cls-55" d="m70.27,48.14l2.18-1.27c.39-.83.61-1.86.61-3.07,0-3.32-1.6-7.14-3.97-10l-2.18,1.27c2.37,2.85,3.98,6.67,3.97,10,0,1.21-.22,2.25-.61,3.07h0Z"/>
                      <path class="cls-55" d="m66.92,35.07l2.18-1.27c-1.08-1.29-2.31-2.39-3.62-3.15l-2.18,1.27c1.31.76,2.55,1.85,3.62,3.15h0Z"/>
                    </g>
                  </g>
                </g>
              </g>
              <g class="cls-20">
                <g class="cls-20">
                  <path class="cls-14" d="m75.66,53.53l-3.99-5.7s-.21.14-.57.4l3.99,5.7c.37-.26.57-.4.57-.4Z"/>
                  <g class="cls-37">
                    <g class="cls-20">
                      <path class="cls-14" d="m75.66,53.53l-3.99-5.7s-.08.06-.24.17l3.99,5.7c.16-.11.24-.17.24-.17h0Z"/>
                      <path class="cls-14" d="m75.42,53.7l-3.99-5.7c-.09.06-.2.14-.33.23l3.99,5.7c.13-.09.25-.17.33-.23h0Z"/>
                    </g>
                  </g>
                </g>
                <g class="cls-20">
                  <path class="cls-14" d="m69.37,49.44l3.99,5.7s.05-.03.15-.11c.32-.22,1.02-.71,1.57-1.1l-3.99-5.7c-.55.38-1.25.88-1.57,1.1-.1.07-.15.11-.15.11Z"/>
                  <g class="cls-61">
                    <g class="cls-20">
                      <path class="cls-10" d="m75.09,53.93l-3.99-5.7c-.33.23-.72.5-1.04.73l3.99,5.7c.32-.23.71-.5,1.04-.73h0Z"/>
                      <path class="cls-14" d="m74.05,54.66l-3.99-5.7c-.22.15-.4.28-.53.37-.1.07-.15.11-.15.11l3.99,5.7s.05-.03.15-.11c.13-.09.32-.22.53-.37h0Z"/>
                    </g>
                  </g>
                </g>
              </g>
              <g class="cls-20">
                <g class="cls-20">
                  <path class="cls-34" d="m82.66,61.91l-7.54-10.77s-.34.24-.94.66l7.54,10.77c.6-.42.94-.66.94-.66Z"/>
                  <g class="cls-27">
                    <g class="cls-20">
                      <path class="cls-34" d="m82.66,61.91l-7.54-10.77s-.14.1-.39.28l7.54,10.77c.26-.18.39-.28.39-.28h0Z"/>
                      <path class="cls-34" d="m82.26,62.18l-7.54-10.77c-.15.1-.33.23-.55.38l7.54,10.77c.22-.15.4-.28.55-.38h0Z"/>
                    </g>
                  </g>
                </g>
                <g class="cls-20">
                  <path class="cls-34" d="m71.34,53.77l7.54,10.77s.08-.06.25-.18c.52-.36,1.67-1.17,2.57-1.8l-7.54-10.77c-.9.63-2.05,1.44-2.57,1.8-.17.12-.25.18-.25.18Z"/>
                  <g class="cls-33">
                    <g class="cls-20">
                      <path class="cls-57" d="m81.72,62.57l-7.54-10.77c-.54.38-1.17.82-1.7,1.19l7.54,10.77c.53-.37,1.16-.81,1.7-1.19h0Z"/>
                      <path class="cls-34" d="m80.01,63.76l-7.54-10.77c-.35.25-.66.46-.87.61-.17.12-.25.18-.25.18l7.54,10.77s.08-.06.25-.18c.21-.15.52-.36.87-.61h0Z"/>
                    </g>
                  </g>
                </g>
              </g>
              <path class="cls-32" d="m64.35,46.49c-3.09-1.78-5.58-6.1-5.57-9.65,0-3.55,2.52-4.98,5.61-3.2,3.09,1.78,5.58,6.1,5.57,9.65,0,3.55-2.52,4.98-5.61,3.2h0Z"/>
              <path class="cls-32" d="m58.78,36.84c0,3.55,2.49,7.87,5.57,9.65,1.89,1.09,3.57.98,4.58-.09-.79.03-1.68-.21-2.63-.76-3.09-1.78-5.58-6.1-5.57-9.65,0-1.37.38-2.43,1.03-3.11-1.77.06-2.97,1.51-2.98,3.96Z"/>
              <path class="cls-24" d="m70.89,45.07c-.01,4.83-3.43,6.78-7.64,4.35-4.21-2.43-7.6-8.31-7.59-13.14.01-4.83,3.43-6.78,7.64-4.35,4.2,2.43,7.6,8.31,7.59,13.14Zm-7.63,2.03c3.09,1.78,5.6.35,5.61-3.2.01-3.55-2.48-7.87-5.57-9.65-3.09-1.78-5.6-.35-5.61,3.2-.01,3.55,2.48,7.87,5.57,9.65h0Z"/>
            </g>
            <g>
              <g>
                <polygon class="cls-34" points="47.65 29.02 38.59 21.3 32.6 6 19.69 .76 20 0 33.23 5.38 39.28 20.81 47.79 28.07 57.97 23.69 71.58 24.54 82.8 23.96 82.84 24.78 71.58 25.35 71.56 25.35 58.12 24.51 47.65 29.02"/>
                <g>
                  <path class="cls-18" d="m31.68,5.26c0,.7.49,1.56,1.1,1.91.61.35,1.1.07,1.1-.64,0-.7-.49-1.56-1.1-1.91-.61-.35-1.1-.07-1.1.64Z"/>
                  <path class="cls-18" d="m37.77,20.19c0,.7.49,1.56,1.1,1.91.61.35,1.1.07,1.1-.64,0-.7-.49-1.56-1.1-1.91-.61-.35-1.1-.07-1.1.64Z"/>
                  <path class="cls-18" d="m46.34,28.12c0,.7.49,1.56,1.1,1.91.61.35,1.1.07,1.1-.64s-.49-1.56-1.1-1.91c-.61-.35-1.1-.07-1.1.64Z"/>
                  <path class="cls-18" d="m81.39,23.64c0,.7.49,1.56,1.1,1.91.61.35,1.1.07,1.1-.64s-.49-1.56-1.1-1.91c-.61-.35-1.1-.07-1.1.64Z"/>
                  <path class="cls-18" d="m56.94,23.32c0,.7.49,1.56,1.1,1.91.61.35,1.1.07,1.1-.64s-.49-1.56-1.1-1.91c-.61-.35-1.1-.07-1.1.64Z"/>
                  <path class="cls-18" d="m70.39,24.43c0,.7.49,1.56,1.1,1.91.61.35,1.1.07,1.1-.64,0-.7-.49-1.56-1.1-1.91-.61-.35-1.1-.07-1.1.64Z"/>
                </g>
              </g>
              <g>
                <polygon class="cls-6" points="56.61 28.48 44.31 14.81 34.93 16.5 27.28 9.19 16.59 11.4 16.42 10.6 27.54 8.3 35.2 15.62 44.61 13.92 56.69 27.35 69.57 16.55 82.72 13.08 82.93 13.87 69.95 17.29 56.61 28.48"/>
                <g>
                  <path class="cls-44" d="m43.68,13.99c0,.7.49,1.56,1.1,1.91.61.35,1.1.07,1.1-.64s-.49-1.56-1.1-1.91c-.61-.35-1.1-.07-1.1.64Z"/>
                  <path class="cls-44" d="m55.55,27.28c0,.7.49,1.56,1.1,1.91.61.35,1.1.07,1.1-.64s-.49-1.56-1.1-1.91c-.61-.35-1.1-.07-1.1.64Z"/>
                  <path class="cls-44" d="m68.18,16.36c0,.7.49,1.56,1.1,1.91.61.35,1.1.07,1.1-.64s-.49-1.56-1.1-1.91c-.61-.35-1.1-.07-1.1.64Z"/>
                  <path class="cls-44" d="m81.39,12.74c0,.7.49,1.56,1.1,1.91.61.35,1.1.07,1.1-.64s-.49-1.56-1.1-1.91c-.61-.35-1.1-.07-1.1.64Z"/>
                  <path class="cls-44" d="m33.86,15.15c0,.7.49,1.56,1.1,1.91.61.35,1.1.07,1.1-.64s-.49-1.56-1.1-1.91c-.61-.35-1.1-.07-1.1.64Z"/>
                  <path class="cls-44" d="m26.64,8.38c0,.7.49,1.56,1.1,1.91.61.35,1.1.07,1.1-.64,0-.7-.49-1.56-1.1-1.91-.61-.35-1.1-.07-1.1.64Z"/>
                </g>
              </g>
            </g>
            <g>
              <ellipse class="cls-3" cx="14.03" cy="55.48" rx="13.05" ry="7.54"/>
              <g class="cls-20">
                <polygon class="cls-67" points="20.77 46.12 20.76 49.82 17.33 51.81 17.34 48.11 20.77 46.12"/>
                <path class="cls-48" d="m20.77,46.12c1.59.92,2.58,1.91,3.17,3.16l-4.69.73c-.33-.7-.96-1.35-1.91-1.9l3.43-1.99Z"/>
                <polygon class="cls-28" points="23.94 49.28 23.93 52.98 19.24 53.71 19.25 50.01 23.94 49.28"/>
                <g class="cls-20">
                  <g class="cls-58">
                    <g class="cls-20">
                      <path class="cls-44" d="m19.25,50.01v3.7c-.34-.7-.97-1.35-1.92-1.9v-3.7c.96.55,1.59,1.2,1.92,1.9h0Z"/>
                    </g>
                  </g>
                </g>
                <g class="cls-20">
                  <g class="cls-49">
                    <g class="cls-20">
                      <path class="cls-29" d="m19.51,51.14v3.7c0-.38-.1-.76-.27-1.13v-3.7c.18.37.27.75.27,1.13h0Z"/>
                    </g>
                  </g>
                </g>
                <g class="cls-20">
                  <path class="cls-34" d="m4.82,54.8v-3.7c.01-1.08.72-2.16,2.14-2.98,2.86-1.66,7.5-1.66,10.38,0v3.7c-2.88-1.66-7.53-1.66-10.39,0-1.42.82-2.13,1.9-2.13,2.98Z"/>
                  <g class="cls-65">
                    <g class="cls-20">
                      <path class="cls-34" d="m17.34,48.11v3.7c-2.88-1.66-7.53-1.66-10.39,0-1.42.82-2.13,1.9-2.13,2.98v-3.7c.01-1.08.72-2.16,2.14-2.98,2.86-1.66,7.5-1.66,10.38,0h0Z"/>
                    </g>
                  </g>
                </g>
                <path class="cls-57" d="m20.77,46.12l-3.43,1.99c-2.87-1.66-7.52-1.66-10.38,0-1.91,1.11-2.54,2.68-1.88,4.1l-4.65.72c-1.76-3.76,2.07-7.63,8.56-8.64,4.32-.67,8.59,0,11.77,1.82Z"/>
                <g class="cls-20">
                  <g class="cls-5">
                    <g class="cls-20">
                      <path class="cls-34" d="m.44,52.93v3.7C.14,56.01,0,55.39,0,54.77v-3.7c0,.62.15,1.24.44,1.86H.44Z"/>
                    </g>
                  </g>
                </g>
                <polygon class="cls-15" points="5.09 52.21 5.08 55.91 .43 56.64 .44 52.93 5.09 52.21"/>
                <path class="cls-14" d="m10.31,55.23l-1.23,2.69c-2.16-.34-4.03-.96-5.5-1.81-1.47-.85-2.55-1.93-3.13-3.18l4.65-.72c.32.7.96,1.36,1.91,1.91.95.55,2.1.92,3.31,1.1Z"/>
                <g class="cls-20">
                  <g class="cls-43">
                    <g class="cls-20">
                      <path class="cls-66" d="m9.08,57.92v3.7c-2.18-.34-4.04-.96-5.51-1.81s-2.55-1.93-3.13-3.18v-3.7c.6,1.25,1.67,2.33,3.15,3.18,1.47.85,3.34,1.47,5.5,1.81h0Z"/>
                    </g>
                  </g>
                </g>
                <g class="cls-20">
                  <g class="cls-19">
                    <g class="cls-20">
                      <path class="cls-29" d="m24.37,51.15v3.7c-.02,3.1-3.58,5.93-9,6.77-2.16.34-4.14.34-6.3,0v-3.7c2.18.34,4.15.34,6.31,0,5.41-.84,8.98-3.67,8.99-6.77h0Z"/>
                    </g>
                  </g>
                </g>
                <path class="cls-39" d="m23.94,49.28c1.76,3.76-2.07,7.63-8.56,8.64-2.16.34-4.14.34-6.3,0l1.23-2.69c2.45.38,5.16,0,7.07-1.1,1.92-1.11,2.54-2.69,1.87-4.11l4.69-.73Z"/>
              </g>
            </g>
            <g>
              <path class="cls-1" d="m25.67,68.86c-1.39.8-1.39,2.11,0,2.91,1.39.8,3.65.8,5.04,0,1.39-.8,1.39-2.11,0-2.91-1.39-.8-3.65-.8-5.04,0Z"/>
              <path class="cls-1" d="m17.09,70.45c-1.39.8-1.39,2.11,0,2.91,1.39.8,3.65.8,5.04,0,1.39-.8,1.39-2.11,0-2.91-1.39-.8-3.65-.8-5.04,0Z"/>
              <g id="man">
                <g id="man-2" data-name="man">
                  <g>
                    <g>
                      <path class="cls-10" d="m26.98,59.35c.2-.46.39-1.07.65-1.84.07-.2.11-.42.11-.64,0-.22-.07-.41-.17-.6-.05-.09-.11-.19-.21-.21-.09-.02-.18.03-.25.09-.44.33-.68.88-.78,1.41-.09.49-.26.96-.34,1.45-.02.09-.04.19-.04.29.01.45.31.73.61.59.15-.07.32-.28.42-.53Z"/>
                      <path class="cls-2" d="m29.03,69.52c-.37.31-.71.67-1.05,1.02-.1.1-.19.2-.27.32-.07.09-.15.22-.13.34.03.15.36.19.49.2.18,0,.34-.02.5-.09.16-.07.25-.17.32-.33.07-.14.13-.29.26-.37.12-.08.29-.1.36-.22.04-.06.04-.14.04-.21,0-.14-.04-.27-.04-.41,0-.1.02-.21-.01-.31-.03-.08-.13-.13-.22-.14-.09,0-.18.04-.25.1v.1Z"/>
                      <path class="cls-2" d="m27.85,68.87c-.43.24-.82.52-1.22.8-.11.08-.23.16-.33.26-.08.08-.19.19-.19.31,0,.16.32.26.44.29.17.04.33.05.51,0,.17-.04.27-.12.38-.26.09-.12.19-.26.33-.32.13-.06.3-.04.4-.15.05-.05.07-.13.08-.2.03-.14.01-.28.04-.41.02-.1.06-.2.05-.3-.01-.09-.11-.16-.19-.17-.09-.02-.19,0-.27.05l-.02.1Z"/>
                      <path class="cls-45" d="m28.41,67.16c.03-.88-.13-1.13-.18-1.53,0,0,0,0,0,0,.07-.15.12-.32.12-.49.01-.3-.02-.71-.02-1.01.01-.61.53-2.6-.73-2.93-.19-.05-.49-.41-.64-.27-.03.03-.13.16-.2.44-.04.16-.05.41-.07.62-.04.37-.02.8.05,1.25.1.6.12,2.04.43,2.68h0c.15.71.24,3.26.24,3.27.04.17.15.36.74.31.16-.01.23-.48.25-.61.09-.54-.03-1.18,0-1.73Z"/>
                      <path class="cls-11" d="m29.6,61.3s-.07-.1-.07-.1c-.28.13-.61.09-.93.12-.7.07-.75.19-1.2-.12-.1.48,0,.93,0,1.04-.03.55.48.6.49.89.03.67.09,2,.18,2.67.02.19.05.38.12.55.01.23.02.45.03.68.09,1.68.08,2.54.21,2.9.11.29.49.28.74.2.11-.03.21-.1.28-.19.06-.09.08-.21.1-.32.16-1.01.15-2.03-.05-3.03h0c-.04-.53.04-1.27.17-1.79.25-1.05.37-2.2-.06-3.5Z"/>
                      <path class="cls-4" d="m29.63,60.17h0c-.02.18-.04.35-.04.53,0-.18.02-.35.05-.53Z"/>
                      <path class="cls-4" d="m29.59,60.7c0,.11,0,.21,0,.32,0,0,0,0,0,0,0-.11,0-.21,0-.32Z"/>
                      <path class="cls-8" d="m29.59,60.7c0-.18.02-.35.05-.53h0c.03-.22.07-.45.12-.66.09-.39.19-.7.3-1.09.06-.22.19-.54.21-.7.04-.36-.16-.63-.63-.94-.31-.21-.93-.49-1.54-.68-.85-.27-.97.04-1.22.72-.23.63-.16,1.67-.06,2.35.05.36.09.72.1,1.08.01.31-.02.61-.08.91.74.53,1.76.39,2.61.19.05,0,.1-.03.15-.05-.02-.2-.02-.4-.01-.6Z"/>
                      <path class="cls-71" d="m28.76,58.18c-.17.48.08.95.08,1.43.02.62,0,1.24-.04,1.87.22-.03.44-.08.65-.13.05,0,.1-.03.15-.05-.02-.2-.02-.4-.01-.6,0-.18.02-.35.05-.53h0c.03-.22.07-.45.12-.66.09-.39.19-.7.3-1.09.06-.22.19-.54.21-.7.02-.21-.04-.4-.19-.58-.51.29-1.09.46-1.31,1.04Z"/>
                      <path class="cls-11" d="m28.08,60.72c-.09.08-.2.17-.29.25-.13-.21-.14-.22-.26-.43,0-1.23.05-2.39.34-3.57.11.08.17.12.29.2-.15,1.13-.24,2.3-.08,3.54Z"/>
                      <path class="cls-13" d="m27.75,56.95s0,.01,0,.02c0,.03.02.08.03.11.03.07.06.14.1.2.02.04.05.07.08.09.04.02.09,0,.13-.02.05-.03.13-.06.12-.12,0-.05-.03-.1-.04-.15-.03-.1-.08-.22-.17-.28-.1-.07-.17.03-.23.11-.01.02-.02.03-.02.04Z"/>
                      <path class="cls-70" d="m29.03,56.45c.02.69-1.27.7-1.25.05.03-.9.08-1,.51-1.14.12-.04.24-.07.36-.07.45,0,.27.22.26.38-.05.47.12.54.13.78Z"/>
                      <path class="cls-12" d="m29.03,56.45c0-.25-.18-.31-.13-.78.02-.16.19-.39-.26-.38-.12,0-.24.03-.36.07-.42.14-.48.24-.5,1.11.36-.03.67-.43,1.04-.19.1.07.16.17.21.27,0-.03,0-.06,0-.09Z"/>
                      <path class="cls-70" d="m28.82,56.27c-.36-.23-.68.16-1.04.19,0,.01,0,.02,0,.04-.02.62,1.15.63,1.24.04-.05-.1-.11-.2-.21-.27Z"/>
                      <path class="cls-10" d="m27.99,56.87c-.02.07-.12.1-.18.14-.03.02-.08.06-.11.05-.04,0-.06-.06-.07-.09-.09-.22-.14-.46-.15-.7,0-.08.01-.16.07-.21.05-.05.15-.06.21-.03.07.03.09.17.06.23-.09.23.01.5.17.61Z"/>
                      <path class="cls-10" d="m27.98,56.88s.11.18.25.3c.03.03.06.07.11.05.22-.07.69-.46.78-.71.03-.09-.03-.2-.08-.27,0-.01-.08-.11-.09-.12,0,.01-.06.19-.14.31-.18.26-.51.4-.82.44Z"/>
                    </g>
                    <g>
                      <path class="cls-40" d="m27.64,60.69c-.07,0-.26,0-.33,0-.07.01.12.1.08.15-.06.08-.18.14-.16.24.01.08.02.16.05.24.03.08.08.15.15.19.03.02.06.03.09.03.02,0,.04,0,.06-.01.12-.03.24-.06.35-.09.03,0,.05-.01.08-.03.03-.02.06-.04.08-.07.08-.1.09-.24.06-.36-.01-.06-.04-.13-.08-.18-.04-.04-.1-.04-.15-.05-.09-.03-.19-.05-.29-.06Z"/>
                      <path class="cls-40" d="m27.91,60.73c-.11-.08-.21-.16-.32-.24-.04-.03-.08-.06-.13-.08-.04-.01-.08-.02-.12-.03-.04,0-.07-.02-.11-.03-.11-.02-.22.03-.32.07-.04.02-.08.04-.11.07-.02.02-.03.05-.02.08,0,.01.02.02.03.02.04.02.07.03.11.03.05,0,.09-.03.14-.04.08-.01.16.04.21.1.05.06.08.14.13.21.04.07.11.13.19.14.03,0,.06,0,.09,0,.07,0,.13-.02.19-.06.05-.03.09-.08.11-.13.02-.06-.02-.09-.07-.13Z"/>
                    </g>
                    <polygon class="cls-11" points="26.8 59.32 25.1 58.33 25.18 58.27 26.89 59.26 26.8 59.32"/>
                    <polygon class="cls-45" points="26.89 59.26 27.61 61.47 27.47 61.38 26.8 59.32 26.89 59.26"/>
                    <polygon class="cls-45" points="27.53 61.52 25.82 60.53 25.1 58.33 26.8 59.32 27.53 61.52"/>
                    <path class="cls-40" d="m27.64,61.02c.07-.04-.18-.13-.21-.17-.07-.09-.06.05-.31.05-.07,0-.15,0-.22-.03-.05-.02-.11-.05-.15-.02-.03.02-.04.07-.02.11-.07-.03-.08.09-.03.15.1.12-.07.13.13.29-.01,0-.03.02-.04.02.02.22.56.15.77.11.38-.07.26-.49.08-.52Z"/>
                    <g>
                      <path class="cls-40" d="m25.64,59.77c-.12.06-.18-.09-.13-.13.05-.05.24-.07.28.03.03.08-.07.06-.15.1Z"/>
                      <path class="cls-40" d="m25.32,59.1c-.07.05-.02.19.02.19.02,0,.05-.02.06-.02.05-.02.1-.02.15-.01.02,0,.04.01.07,0,.02,0,.04-.01.05-.04.03-.09-.11-.15-.16-.16-.11-.03-.16,0-.2.03Z"/>
                      <path class="cls-40" d="m25.36,59.46c.06.06.08-.05.24-.02.02,0,.04,0,.06,0,.02,0,.04-.01.05-.04.03-.09-.11-.14-.16-.15-.2-.05-.31.1-.2.21Z"/>
                      <path class="cls-40" d="m25.43,59.62c.07.03.07,0,.2-.02.19-.02.12-.2-.11-.16-.01,0-.08.01-.09.02-.07.03-.07.13,0,.16Z"/>
                    </g>
                  </g>
                  <path class="cls-10" d="m30.6,58.3c-.01-.22-.05-.43-.13-.64-.08-.21-.21-.35-.38-.5-.08-.07-.17-.13-.27-.11-.09.02-.16.1-.2.18-.28.47-.31,1.07-.21,1.59.09.48.12.98.21,1.46-.5.09-1.21.27-1.6.47-.08.04-.16.09-.21.17-.07.13.02.38.12.47.13.11.33.1.49.07.33-.04,1.37-.13,1.89-.46.06-.02.12-.05.17-.1.11-.12.19-.38.2-.65.01-.5-.04-1.14-.07-1.95Z"/>
                  <g>
                    <path class="cls-40" d="m27.34,54.29c-.09.14-.14.31-.14.48,0,.08.01.15.04.22.02.07.07.13.07.2,0,.09-.06.18-.09.26-.03.07-.04.16-.01.23.02.04.05.08.07.11.11.18,0,.44.2.57.05.03.11.04.17.04.07,0,.4-.09.53-.15.14-.06.28-.22.38-.34.08-.09.21-.21.26-.32.02-.03-.02-.04.01-.06.02,0,.05-.14.07-.14.03,0,.06-.03.09-.05.04-.03.07.08.08.03.06-.22.14-.44.13-.67,0-.21,0-.39-.14-.57-.1-.13-.25-.23-.4-.29-.24-.09-.51-.1-.76-.01-.23.08-.44.24-.56.44Z"/>
                    <path class="cls-53" d="m29.21,54.72c0-.21,0-.39-.14-.57-.1-.13-.25-.23-.4-.29-.14-.05-.3-.08-.45-.07-.23.46.1,1.05-.15,1.52-.08.11-.25.2-.25.34-.06.25.19.47.06.73.11-.03.24-.07.31-.1.14-.06.28-.22.38-.34.08-.09.21-.21.26-.32.02-.03-.02-.04.01-.06.02,0,.05-.14.07-.14.03,0,.06-.03.09-.05.04-.03.07.08.08.03.06-.22.14-.44.13-.67Z"/>
                    <path class="cls-41" d="m28.14,54.48c.06,0,.12,0,.17.02.09.04.15.14.16.24.03.22-.04.44-.05.66,0,.03,0,.07.02.1.04.08.13.04.17-.01.03-.03.05-.07.08-.1.03-.03.06-.06.11-.07.07-.01.12.04.13.1,0,.06,0,.12-.02.17,0,.01-.03.11,0,.11.04,0,.41-.38.42-1.02.02-.61-.41-.73-.41-.73,0,0-.19-.32-.68-.29-.26.01-.51.1-.73.23,0,0-.02.01-.03.02-.11.07-.21.15-.28.26-.19.29.07.53.37.48.14-.02.28-.09.42-.14.04-.01.08-.03.12-.03h0Z"/>
                  </g>
                  <path class="cls-30" d="m29.35,54.69c0,.07,0,.13-.02.19-.07.52-.37.83-.41.83-.04,0-.01-.1,0-.11.02-.06.03-.11.02-.17-.01-.06-.06-.12-.13-.1-.04,0-.08.04-.11.07-.03.03-.05.07-.08.1-.05.05-.13.09-.17.01-.02-.03-.02-.06-.02-.1,0-.03,0-.06,0-.09,0-.06.01-.11.02-.17.02-.13.04-.26.02-.4-.01-.1-.07-.2-.16-.24-.05-.02-.11-.03-.17-.02,0,0,.2-.2.37-.31.18-.11.43-.21.43-.21,0,0,.39.1.41.65,0,.03,0,.05,0,.08Z"/>
                  <path class="cls-53" d="m28.87,55.14c.18-.01.23.21.1.39-.04.05-.1.1-.15.14-.33.28-.41-.02-.3-.12.24-.22.12-.39.35-.41Z"/>
                  <path class="cls-4" d="m28.76,55.58s.23-.14.09-.23c-.04-.02-.08.01-.09.05,0,.02,0,.04,0,.06,0,.01,0,.02-.01.04-.02.03-.08.06-.07.1.01.04.07-.02.08-.03Z"/>
                </g>
              </g>
              <g id="man-3" data-name="man">
                <g class="cls-20">
                  <g class="cls-20">
                    <g class="cls-60">
                      <g class="cls-20">
                        <path class="cls-68" d="m19.05,56.57l.5-.29c-.05-.03-.1-.03-.14-.01l-.5.29s.08-.02.14.01h0Z"/>
                      </g>
                    </g>
                  </g>
                </g>
                <g id="man-4" data-name="man">
                  <g id="man-5" data-name="man">
                    <g>
                      <path class="cls-64" d="m18.41,71.54s.05-.07.13-.07c.1,0,.2,0,.3,0,.14,0,.27,0,.41-.01,0-.11,0-.22-.01-.33.14.04.23,0,.37-.05.17-.05.33-.1.5-.15.07-.02.15-.04.22-.02.18.04.27.35.24.51-.02.11-.1.21-.19.27-.14.1-.33.18-.5.2-.18.02-.35.07-.5.18-.19.14-.33.29-.59.3-.25,0-.45-.15-.46-.41,0-.09.02-.19.04-.28.01-.06.02-.1.03-.14Z"/>
                      <path class="cls-52" d="m19.42,72.03s0-.04,0-.06c-.01-.2.07-.38.14-.57.03-.07.06-.14.12-.19.14-.11.35-.01.43.14.04.07.06.15.1.22.07.14.2.3.37.31.22,0,.47-.07.69-.08.09,0,.18,0,.26.02.19.08.25.38.18.56-.04.11-.14.18-.24.23-.15.07-.36.12-.53.1-.18-.01-.36,0-.53.08-.29.14-.62.33-.91.07-.08-.07-.12-.18-.12-.28-.02-.19.05-.36.05-.55Z"/>
                    </g>
                  </g>
                  <path class="cls-59" d="m19.51,67.8l.1-.43c-.04.14-.07.29-.1.43Z"/>
                  <path class="cls-38" d="m17.91,63.7c.05-.26-.02-.74.35-.78.33-.04.52.38.6.47.13.15.67-.09.68-.16.64-.46.5,1.46.29,2.22-.11.41-.1.84-.17,1.26-.08.44-.18.87-.32,1.3-.06.37-.09.75-.1,1.12-.02.65,0,1.3-.03,1.95,0,.14-.01.28-.06.41-.02.07-.06.15-.11.21-.05.05-.12.07-.19.08-.06,0-.13,0-.19-.01-.06-.01-.13-.03-.18-.06-.11-.07-.15-.2-.18-.32-.04-.15-.07-.29-.1-.44-.08-.39-.14-.78-.17-1.18-.03-.39-.04-.78-.03-1.16,0-.2.02-.4.03-.59,0-.1.02-.2.02-.3,0-.05,0-.1.01-.15,0-.02.03-.14.02-.15,0,0,0,0,0,0,0-.15,0-.3-.03-.45-.05-.31-.1-.62-.15-.94-.05-.27-.09-.55-.11-.82-.03-.5.03-1,.12-1.49Z"/>
                  <path class="cls-24" d="m19.78,63.7c.06-.03.37-.18.36-.27,0-.06.15-.1.19-.1.07,0,.14.05.2.09.14.1.24.25.31.42.09.23.11.47.12.72.04.73.02,1.45-.06,2.18-.04.36-.09.73-.16,1.09-.03.18-.07.36-.11.54-.04.17-.08.22-.22.32-.31.19-.86.17-1.08-.18-.24-.38-.14-.96-.21-1.38-.11-.61-.52-1.06-.71-1.65-.14-.43-.12-.83-.05-1.27.03-.21.1-.7.31-.82.06-.03.43-.12.74.19.18.18.16.26.38.15Z"/>
                  <path class="cls-14" d="m17.68,62.01c-.01-.11-.03-.22-.05-.32-.09-.51-.24-1.02-.31-1.54-.05-.4-.09-.91.23-1.22.05-.05.11-.09.18-.13.62-.35,1.22.08,1.8.29.38.14.75.32,1.09.54.12.08.24.13.32.25.08.13.13.26.14.41,0,.17-.02.34-.05.52-.17.99-.24,2.01-.12,3.01.04.32.05.64.07.97,0,.12.08.31.02.42-.06.12-.3.21-.41.27-.32.16-.66.25-1.02.27-.55.02-1.1-.14-1.54-.47-.19-.14-.33-.29-.32-.53.02-.3,0-.6.01-.89.01-.61.03-1.23-.04-1.84Z"/>
                  <path class="cls-14" d="m17.68,62.01c-.01-.11-.03-.22-.05-.32-.09-.51-.24-1.02-.31-1.54-.05-.4-.09-.91.23-1.22.05-.05.11-.09.18-.13.62-.35,1.22.08,1.8.29.38.14.75.32,1.09.54.12.08.24.13.32.25.08.13.13.26.14.41,0,.17-.02.34-.05.52-.17.99-.24,2.01-.12,3.01.04.32.05.64.07.97,0,.12.08.31.02.42-.06.12-.3.21-.41.27-.32.16-.66.25-1.02.27-.55.02-1.1-.14-1.54-.47-.19-.14-.33-.29-.32-.53.02-.3,0-.6.01-.89.01-.61.03-1.23-.04-1.84Z"/>
                  <path class="cls-46" d="m19.82,59.21c-.11-.05-.22-.09-.3-.12-.4-.15-.82-.4-1.24-.42-.2.31-.04.66.26.82.38.19.87.17,1.23-.09.07-.05.12-.14.05-.2Z"/>
                  <path class="cls-24" d="m20.6,68.64c-.03.31-.05.63-.07.94-.02.25-.03.5-.05.75,0,.19-.02.38-.03.58-.04,1.05.07,1.29-.42,1.42-.11.03-.23.04-.34.01-.32-.08-.38-.36-.42-.72-.02-.2-.03-.44-.04-.64,0-.17,0-.34-.01-.51,0-.23,0-.46,0-.69,0-.3,0-.6,0-.91,0-.39-.04-.78-.04-1.17,0-.06.03-.11.08-.14.06-.04,1.22.39,1.34.52,0,0,.05.15.01.54Z"/>
                  <path class="cls-40" d="m19.68,58.58c.02-.15.14-.12.08-.26-.05-.12-.13-.23-.23-.31-.1-.08-.23-.13-.36-.12-.04,0-.07.03-.12.03-.12,0-.24-.02-.36,0-.12.02-.23.03-.23.16,0,.18,0,.36-.05.53-.03.1-.08.19-.09.29-.02.2.13.38.3.46.22.11.46.1.7.06.12-.02.28-.04.35-.15.05-.08.03-.19.02-.28-.02-.14-.03-.28-.01-.41Z"/>
                  <path class="cls-40" d="m20.2,56.61c.07.09.13.19.15.31.04.26-.07.53,0,.79.05.25-.05.82-.55.97-.25.07-.75-.01-.9-.09-.21-.1-.35-.31-.48-.51-1.04-1.64,1.09-2.32,1.8-1.47Z"/>
                </g>
                <path class="cls-63" d="m17.93,57.34s.01.1.02.15c0,.04.02.07.03.11,0,.03.02.06.03.09.05.11.12.21.19.31.1.14.2.28.35.35.07.03.14.05.21.06.2.04.48.05.64-.11.07-.07.09-.17.11-.27.01-.09.02-.17.04-.27,0-.02.01-.05.02-.07.01-.04.02-.07.04-.11.03-.05.08-.1.14-.12.1-.03.23.03.31-.03.05-.03.07-.08.09-.14.02-.05.04-.11.06-.16.03-.07.06-.15.1-.2.02-.03.05-.06.07-.09.03-.05.06-.09.06-.14,0-.24-.19-.48-.35-.63-.09-.08-.19-.16-.3-.2-.1-.04-.2-.06-.31-.08-.31-.05-.65-.04-.92.12-.07.04-.14.09-.18.17,0,.02-.01.03-.03.05-.02.02-.04.03-.06.04-.08.03-.14.08-.19.13-.25.26-.22.71-.17,1.05Z"/>
                <path class="cls-40" d="m19.63,57.35c-.2-.02-.25.23-.12.42.04.06.11.11.16.15.35.31.45-.02.33-.12-.26-.24-.12-.43-.37-.45Z"/>
                <path class="cls-4" d="m19.69,57.73s-.25-.16-.09-.25c.04-.02.09.01.1.06,0,.02,0,.05,0,.07,0,.01,0,.03.01.04.02.03.09.07.07.11-.01.04-.08-.02-.09-.04Z"/>
                <path class="cls-4" d="m25.32,62.02c.04-.06.02-.18-.05-.15.01-.04,0-.09-.03-.1-.05-.02-.1.01-.14.04-.06.03-.14.04-.21.05-.15.02-.31-.04-.3-.06.03-.06.09-.1.16-.1.04,0,.07.02.11.02.03,0,.06-.02.09-.03,0,0,.02-.01.02-.02.01-.02,0-.04-.02-.06-.03-.02-.06-.03-.1-.05-.08-.03-.17-.06-.26-.03-.03,0-.05.02-.08.03-.03.01-.06.02-.09.03-.04.02-.25.14-.32.2-.38.17-.35.41-.15.57.1.08.39.14.56.16,0,0,0,0,.01,0,0,0,.02,0,.03,0,0,0,0,0,0,0h0c.23.02.7.02.7-.19-.01,0-.03-.01-.04-.02.18-.17.01-.17.09-.29Z"/>
                <path class="cls-14" d="m24.15,62.06c.01.08,0,.25-.05.33-.05.06-.17.08-.23.11-.31.14-2.14.72-2.44.51-.16-.11.03-.68.31-.92.3-.26,1.76-.32,2.08-.32.07,0,.14,0,.2.03.07.04.12.14.13.26Z"/>
                <path class="cls-14" d="m21.24,60.21c-.11-.23-.27-.45-.52-.48-.11-.01-.21.02-.31.06-.26.11-.49.27-.62.52-.02.05-.05.1-.05.15-.03.2.09.34.19.49.12.18.23.37.34.56.21.38.42.76.69,1.11.15.2.35.41.6.43.17.02.35-.05.46-.18.28-.31.16-.58.14-.63-.63-1.53-.94-2.07-.93-2.03Z"/>
              </g>
              <path class="cls-50" d="m22.98,51.24l2.24,1.3c.28.16.51.56.51.89v.58c.09.33.42,1.51.44,1.62l-.72-.93c-.1-.13-.21-.23-.32-.29l-2.16-1.24c-.28-.16-.51-.56-.51-.89v-.73c0-.33.23-.46.51-.3Z"/>
            </g>
          </g>
          <g id="man-6" data-name="man">
            <path class="cls-1" d="m41.93,78.47c-1.28.74-1.28,1.94,0,2.68,1.28.74,3.36.74,4.64,0,1.28-.74,1.28-1.94,0-2.68-1.28-.74-3.36-.74-4.64,0Z"/>
            <path class="cls-40" d="m48.76,65.76c-.04-.05-.1-.11-.15-.08-.05.03-.05.12-.05.16-.01.08,0,.14.03.21.03.07.07.14.07.21,0,.02,0,.04-.01.06.14.1.26.22.39.34.02-.05.04-.09.04-.13.02-.29-.15-.56-.31-.78Z"/>
            <path class="cls-23" d="m45.22,65.85s0,0-.01,0c-.02-.08,0-.17.01-.25.03-.22-.05-.44-.01-.65.01-.06.03-.13.07-.18.04-.04.09-.08.14-.1.02,0,.24-.14.24-.15.15.27.18.62.06.91l-.5.43Z"/>
            <path class="cls-10" d="m44.77,65.76c-.5.1-1,.23-1.49.39-.22.07-.44.14-.61.32-.17.18-.17.45-.1.68.04.13.11.25.24.28.13.03.33-.03.46-.07.32-.09.64-.22.94-.37.1-.05.2-.11.31-.17.15-.08.3-.17.46-.26-.16-.24-.24-.53-.19-.81Z"/>
            <g>
              <g class="cls-20">
                <g class="cls-20">
                  <path class="cls-9" d="m48.45,67.47l.09-.05s.05-.06.05-.12l-.09.05c0,.06-.02.1-.05.12Z"/>
                  <g class="cls-26">
                    <g class="cls-20">
                      <path class="cls-9" d="m48.45,67.47l.09-.05s.05-.06.05-.12l-.09.05c0,.06-.02.1-.05.12h0Z"/>
                    </g>
                  </g>
                </g>
                <polygon class="cls-9" points="48.5 67.35 48.59 67.3 48.59 65.54 48.51 65.59 48.5 67.35"/>
                <polygon class="cls-9" points="48.32 65.26 48.41 65.21 45.89 63.76 45.8 63.81 48.32 65.26"/>
                <g class="cls-20">
                  <path class="cls-9" d="m48.51,65.59l.09-.05c0-.12-.08-.26-.19-.32l-.09.05c.1.06.19.2.19.32Z"/>
                  <g class="cls-7">
                    <g class="cls-20">
                      <path class="cls-9" d="m48.51,65.59l.09-.05s-.01-.09-.03-.14l-.09.05s.03.1.03.14h0Z"/>
                      <path class="cls-9" d="m48.47,65.44l.09-.05s-.04-.07-.06-.1l-.09.05s.05.07.06.1h0Z"/>
                      <path class="cls-9" d="m48.41,65.34l.09-.05s-.06-.06-.09-.08l-.09.05s.06.05.09.08h0Z"/>
                    </g>
                  </g>
                </g>
                <g>
                  <path class="cls-46" d="m45.8,63.81c-.1-.06-.19-.01-.19.11v1.76c0,.12.08.26.18.32l2.52,1.46c.1.06.19.01.19-.11v-1.76c0-.12-.08-.26-.18-.32l-2.52-1.46Z"/>
                  <path class="cls-2" d="m45.71,65.68c0,.08.06.19.14.23l2.52,1.46s.02.01.03.01c0,0,0-.01,0-.03v-1.76c0-.08-.06-.19-.13-.23l-2.5-1.44h-.02s-.02-.02-.03-.03c0,0,0,.01,0,.03v1.76Z"/>
                  <path class="cls-48" d="m45.77,65.66c0,.08.06.19.14.23l2.5,1.44v-1.74c0-.08-.06-.19-.13-.23l-2.5-1.44v1.74Z"/>
                </g>
              </g>
              <path class="cls-9" d="m45.75,63.74l-.09.05s.08-.02.13.01l.09-.05c-.05-.03-.1-.03-.13-.01Z"/>
              <polygon class="cls-10" points="47.73 66.59 46.2 65.7 46.2 65.17 47.73 66.05 47.73 66.59"/>
              <polygon class="cls-31" points="47.79 65.07 48.4 66.07 48.4 66.44 47.31 64.8 47.79 65.07"/>
              <polygon class="cls-31" points="48.4 66.91 48.4 67.33 48.26 67.25 46.1 64.1 46.82 64.52 48.4 66.91"/>
            </g>
            <path class="cls-40" d="m48.64,66.34s-.03.03-.05.04c-.06.03-.18.09-.21-.02,0-.03,0-.06,0-.1.01-.07.02-.13.03-.2,0-.04,0-.09-.03-.1-.02,0-.05.01-.07.03-.05.05-.09.12-.12.18-.01.03-.02.05-.04.08-.09.21-.19.4-.24.63-.03.13-.05.24-.04.37,0,.1.02.21.05.3.02.07.05.16.12.2.07.04.15-.02.2-.07.08-.08.1-.19.16-.28.03-.04.04-.09.07-.13.03-.05.09-.08.14-.11.11-.07.2-.17.28-.27.04-.06.1-.14.14-.22-.12-.12-.25-.24-.39-.34,0,0,0,0,0,.01Z"/>
            <g id="man-7" data-name="man">
              <g>
                <path class="cls-2" d="m42.89,79.57s.05-.07.13-.08c.1,0,.21-.01.31-.02.14,0,.28-.02.42-.03,0-.11-.01-.23-.02-.34.15.03.23-.01.37-.06.17-.06.34-.12.51-.17.07-.02.15-.04.22-.03.19.04.29.35.27.51-.02.12-.1.21-.19.29-.14.11-.33.2-.5.22-.19.03-.36.09-.51.2-.19.15-.33.31-.59.33-.26.02-.47-.14-.48-.4,0-.1.01-.19.03-.28.01-.06.01-.11.02-.14Z"/>
                <path class="cls-66" d="m43.67,79.89s0-.04,0-.06c-.01-.21.07-.39.14-.58.03-.07.06-.15.12-.2.14-.11.36-.01.44.14.04.07.06.15.1.22.07.14.21.31.38.31.23.01.48-.07.71-.08.09,0,.18,0,.26.03.19.08.25.39.18.57-.04.11-.14.19-.25.24-.16.08-.37.12-.54.11-.19-.01-.37,0-.54.09-.29.14-.64.34-.93.07-.08-.07-.12-.18-.13-.29-.02-.19.05-.37.05-.56Z"/>
              </g>
            </g>
            <path class="cls-59" d="m43.76,75.56l.11-.44c-.04.15-.08.29-.11.44Z"/>
            <path class="cls-59" d="m42.03,72.01c-.04.34-.05.68-.02,1.02.03.36.1.68.23,1.31.12.61.15.7.17,1.02-.03-.02-.21,2.12.37,4.06.04.12.08.25.19.32.06.03.12.05.19.06.06,0,.13.01.19,0,.07,0,.14-.04.19-.09.05-.06.09-.14.11-.22.04-.14.04-.28.04-.42,0-.66-.04-1.33-.04-1.99,0-.38.01-.77.06-1.15.12-.44.22-.89.28-1.34.06-.43.03-.87.13-1.29.07-.32.13-.83.13-1.29h-2.21Z"/>
            <path class="cls-62" d="m43.74,71.04c0,.07-.54.33-.68.19-.03-.04-.08-.11-.15-.2-.56.6-.71,1.6-.4,2.25.23.47.56,1.61.68,2.9.13,1.43.03,3.03.05,3.62.04,0,.08,0,.11,0,.07,0,.14-.04.19-.09.05-.06.09-.14.11-.22.04-.14.04-.28.04-.42,0-.66-.04-1.33-.04-1.99,0-.38.01-.77.06-1.15.12-.44.22-.89.28-1.34.06-.43.03-.87.13-1.29.18-.78.26-2.76-.38-2.26Z"/>
            <path class="cls-21" d="m44.04,71.37c.06-.03.37-.19.37-.27,0-.06.15-.1.19-.1.07,0,.14.05.2.09.14.1.25.26.31.43.09.23.11.48.12.73.04.74.02,1.49-.06,2.23-.04.37-.09.74-.16,1.11-.03.18-.07.37-.12.55-.04.18-.08.23-.22.32-.32.2-.88.17-1.11-.18-.24-.38-.14-.98-.22-1.42-.11-.63-.53-1.09-.72-1.69-.14-.44-.12-.85-.05-1.3.03-.21.1-.72.32-.84.06-.03.44-.12.76.19.18.18.16.27.39.15Z"/>
            <path class="cls-35" d="m41.89,69.63c-.01-.11-.03-.22-.05-.33-.09-.53-.25-1.04-.32-1.57-.05-.41-.09-.93.24-1.25.05-.05.11-.1.18-.13.64-.36,1.24.08,1.84.29.39.14.77.33,1.12.55.12.08.25.13.33.25.09.13.13.27.14.42.01.18-.02.35-.05.53-.17,1.02-.25,2.06-.12,3.08.05.44.1,1.64.1,1.64-.15.06-.24.12-.95.14-1.47.03-2.28-.34-2.36-.42-.08-.08-.05-.26-.06-.36,0-.32,0-.64,0-.96.01-.63.04-1.26-.04-1.88Z"/>
            <path class="cls-71" d="m45.37,67.87c0-.16-.06-.29-.14-.42-.08-.12-.21-.18-.33-.25-.07-.05-.15-.09-.22-.14-.46.39-1.1.86-.78,1.43.85,1.52,1.05,3.11,1.09,4.73.16-.03.23-.06.31-.1,0,0-.05-1.2-.1-1.64-.12-1.02-.05-2.06.12-3.08.03-.17.06-.35.05-.53Z"/>
            <path class="cls-46" d="m44.09,66.77c-.11-.05-.22-.09-.31-.12-.41-.15-.83-.41-1.27-.43-.21.31-.04.67.27.84.38.19.89.17,1.26-.09.07-.05.13-.14.05-.2Z"/>
            <path class="cls-21" d="m44.88,76.42c-.03.32-.05.64-.08.97-.02.25-.03.51-.05.76-.01.2-.02.39-.03.59-.04,1.08.08,1.32-.43,1.46-.11.03-.23.04-.35.01-.33-.08-.39-.37-.43-.73-.02-.2-.03-.45-.04-.65,0-.17,0-.35-.01-.52,0-.23,0-.47,0-.7,0-.31,0-.62,0-.93,0-.39-.04-.8-.04-1.19,0-.06.04-.12.08-.15.06-.04,1.25.4,1.37.53,0,0,.05.15.01.55Z"/>
            <path class="cls-10" d="m45.11,67.32c-.21-.15-.47-.26-.71-.15-.1.04-.18.13-.24.21-.17.23-.29.49-.27.78,0,.06.01.11.03.16.07.19.26.25.42.33.2.1.39.21.59.32.39.22.77.45,1.18.62.24.1.52.18.76.07.16-.07.28-.22.32-.4.08-.42-.23-.52-.28-.55-1.35-1.02-1.83-1.42-1.8-1.4Z"/>
            <path class="cls-10" d="m48.27,67.04c.08.04.22.15.22.25,0,.09-.1.21-.13.28-.12.23-.24.45-.37.68-.06.1-.11.2-.17.3-.17.29-.37.56-.6.81-.09.1-.23.26-.35.3-.13.04-.25-.03-.35-.11-.19-.16-.33-.39-.28-.63.05-.25.2-.42.35-.6.34-.41.71-.8,1.11-1.16.07-.06.14-.13.23-.16.1-.04.23-.02.35.04Z"/>
            <path class="cls-23" d="m45.91,65.21c-.06.15-.09.31-.1.48,0,.07,0,.14-.02.2-.03.12-.13.22-.23.29-.05.03-.11.08-.17.06.01-.04.02-.09.02-.13,0-.06-.03-.12-.07-.16-.03-.03-.08-.05-.1-.09-.04-.08.02-.16.04-.23.03-.08.02-.17.05-.25,0-.02.02-.05.04-.07s.05-.03.07-.02c.04.02.05.07.05.11,0,0,0,.02,0,.02.01.01.04,0,.05-.02.05-.08.1-.17.16-.25.04-.07.08-.15.14-.19.01,0,.02-.01.03-.01,0,0,0,0,0,0,.03,0,.05.03.06.07.02.06,0,.13-.02.19Z"/>
            <path class="cls-10" d="m45.39,65.95c-.06-.11-.17-.2-.27-.22-.09-.02-.19,0-.28.02-.02,0-.04,0-.06.01-.04.28.03.57.19.81.07-.04.14-.08.21-.12.07-.04.22-.09.26-.17.05-.09,0-.25-.05-.33Z"/>
            <path class="cls-40" d="m43.94,66.13c.02-.16.14-.12.08-.26-.05-.12-.13-.23-.23-.31-.1-.08-.24-.13-.37-.12-.05,0-.08.03-.12.03-.12,0-.25-.02-.37,0-.12.02-.24.03-.24.17,0,.19,0,.36-.05.55-.03.1-.08.19-.09.29-.02.2.13.39.31.48.22.11.47.1.71.06.12-.02.29-.04.36-.15.05-.09.03-.2.02-.29-.02-.14-.03-.28-.01-.42Z"/>
            <g>
              <path class="cls-40" d="m44.47,64.11c.07.09.13.19.15.31.04.27-.07.54,0,.81.06.26-.05.84-.56.99-.26.08-.76-.01-.93-.09-.22-.1-.36-.32-.49-.52-1.06-1.68,1.12-2.37,1.84-1.5Z"/>
              <path class="cls-63" d="m42.32,63.78c.05-.05.11-.1.19-.13.02-.01.05-.02.06-.04.01-.01.02-.03.03-.05.04-.08.11-.13.18-.17.28-.16.63-.16.95-.12.11.02.22.04.32.08.11.05.22.13.31.21.17.16.37.4.36.65,0,.05-.03.1-.06.15-.02.03-.05.06-.07.09-.08.1-.12.25-.17.37-.02.05-.05.11-.09.14-.09.06-.22,0-.32.03-.06.02-.11.07-.14.12-.03.06-.05.12-.06.18-.03.1-.03.18-.04.28-.01.1-.04.2-.11.28-.15.17-.45.16-.65.11-.07-.02-.15-.03-.21-.07-.15-.07-.26-.22-.36-.36-.09-.13-.18-.26-.23-.41-.03-.08-.04-.17-.05-.26-.05-.35-.09-.81.17-1.08Z"/>
              <path class="cls-40" d="m43.89,64.87c-.2-.02-.26.23-.12.43.04.06.11.11.16.16.36.32.46-.02.34-.13-.26-.25-.13-.44-.38-.46Z"/>
              <path class="cls-4" d="m43.94,65.25s-.25-.16-.09-.25c.04-.02.09.01.1.06,0,.02,0,.05,0,.07,0,.01,0,.03.01.04.02.03.09.07.08.12-.01.04-.08-.02-.09-.04Z"/>
            </g>
          </g>
          <g>
            <g class="cls-20">
              <polygon class="cls-2" points="30.13 29.31 30.85 28.91 30.96 21.91 30.24 22.32 30.13 29.31"/>
              <polygon class="cls-10" points="30.24 22.32 30.96 21.91 6.46 7.34 5.74 7.75 30.24 22.32"/>
              <polygon class="cls-50" points="5.74 7.75 5.62 14.74 30.13 29.31 30.24 22.32 5.74 7.75"/>
            </g>
            <g>
              <path class="cls-44" d="m10.31,15.88c-.03-.14-.06-.28-.1-.42-.04-.14-.07-.29-.11-.43l-1.13-.67c-.04.1-.08.2-.11.3-.04.1-.07.2-.11.3l-.67-.4c.11-.3.22-.57.32-.82.1-.25.2-.48.3-.7.1-.22.19-.42.29-.61.09-.19.19-.37.29-.55l.61.37c.09.29.18.58.27.88.09.3.18.61.27.94.09.33.18.67.28,1.04.09.36.19.76.3,1.19l-.69-.41Zm-.75-3.06s-.04.09-.07.16c-.03.07-.06.15-.1.23-.04.09-.08.19-.12.29-.05.11-.09.22-.14.34l.82.49c-.04-.17-.08-.34-.12-.49-.04-.16-.08-.3-.11-.43-.04-.13-.07-.25-.09-.35s-.05-.18-.07-.24Z"/>
              <path class="cls-44" d="m13.31,17.66c-.18-.49-.38-.99-.59-1.5-.21-.5-.44-.99-.68-1.47l-.03,2.2-.64-.38.04-3.35.53.31c.09.16.19.35.3.57.11.22.22.45.33.7.11.24.22.49.34.75.11.26.22.5.31.73l.03-1.98.64.38-.04,3.35-.54-.32Z"/>
              <path class="cls-44" d="m16.45,19.53c-.03-.14-.06-.28-.1-.42-.04-.14-.07-.29-.11-.43l-1.13-.67c-.04.1-.08.2-.11.3-.04.1-.07.2-.11.3l-.67-.4c.11-.3.22-.57.32-.82.1-.25.2-.48.3-.7.1-.22.19-.42.29-.61.09-.19.19-.37.29-.55l.61.37c.09.29.18.58.27.88.09.3.18.61.27.94.09.33.18.67.28,1.04.09.36.19.76.3,1.19l-.69-.41Zm-.75-3.06s-.04.09-.07.16c-.03.07-.06.15-.1.23-.04.09-.08.19-.12.29-.05.11-.09.22-.14.34l.82.49c-.04-.17-.08-.34-.12-.49-.04-.16-.08-.3-.11-.43-.04-.13-.07-.25-.09-.35s-.05-.18-.07-.24Z"/>
              <path class="cls-44" d="m19.45,20.66v.65s-1.93-1.14-1.93-1.14l.04-3.35.65.39-.03,2.7,1.28.76Z"/>
              <path class="cls-44" d="m20.52,19.96c.12-.16.23-.32.34-.49.11-.17.21-.34.3-.52l.72.43c-.16.27-.33.52-.5.76-.17.24-.36.47-.55.7l-.02,1.28-.65-.39.02-1.27c-.18-.45-.36-.9-.53-1.35-.17-.44-.33-.89-.48-1.35l.75.45c.09.28.18.57.28.86.1.29.21.58.32.88Z"/>
              <path class="cls-44" d="m22.94,22.81c.09.05.17.09.23.11s.11.02.14.01c.04,0,.06-.03.08-.06.01-.03.02-.08.02-.13,0-.11-.04-.23-.13-.35s-.24-.29-.45-.51c-.09-.09-.19-.2-.28-.3s-.18-.22-.25-.34c-.07-.12-.13-.25-.18-.38-.05-.14-.07-.28-.07-.44,0-.15.03-.28.08-.37.05-.09.12-.16.22-.19.09-.03.2-.03.34,0,.13.03.28.09.44.19.19.12.36.24.5.37.14.13.26.25.35.37l-.19.48c-.08-.1-.17-.19-.27-.29-.1-.1-.22-.18-.35-.27-.16-.09-.27-.13-.34-.12-.07,0-.1.07-.1.17,0,.06.01.12.04.18.02.06.06.12.1.18.05.06.1.12.16.19.06.06.12.13.2.2.15.15.28.29.39.42.11.13.2.26.27.38.07.13.13.26.16.39.03.13.05.28.05.44,0,.31-.1.5-.29.56-.19.06-.48-.02-.86-.25-.13-.08-.24-.15-.34-.23-.1-.08-.19-.15-.27-.23-.08-.07-.15-.14-.2-.2-.06-.06-.1-.12-.14-.17l.19-.49c.09.11.19.22.32.34.13.12.28.23.46.34Z"/>
              <path class="cls-44" d="m24.61,21l.65.39-.04,3.35-.65-.39.04-3.35Z"/>
              <path class="cls-44" d="m26.67,25.03c.09.05.17.09.23.11.06.02.11.02.14.01.04,0,.06-.03.08-.06.01-.03.02-.08.02-.13,0-.11-.04-.23-.13-.35-.09-.13-.24-.29-.45-.51-.09-.09-.19-.2-.28-.3-.09-.11-.18-.22-.25-.34-.07-.12-.13-.25-.18-.38-.05-.14-.07-.28-.07-.44,0-.15.03-.28.08-.37.05-.09.12-.16.22-.19.09-.03.2-.03.34,0,.13.03.28.09.44.19.19.12.36.24.5.37.14.13.26.25.35.37l-.19.48c-.08-.1-.17-.19-.27-.29-.1-.1-.22-.18-.35-.27-.16-.09-.27-.13-.34-.12-.07,0-.1.07-.1.17,0,.06.01.12.04.18.02.06.06.12.1.18.05.06.1.12.16.19.06.06.12.13.2.2.15.15.28.29.39.42.11.13.2.26.27.38.07.13.13.26.16.39.03.13.05.28.05.44,0,.31-.1.5-.29.56-.19.06-.48-.02-.86-.25-.13-.08-.24-.15-.34-.23-.1-.08-.19-.15-.27-.23-.08-.07-.15-.14-.2-.2-.06-.06-.1-.12-.14-.17l.19-.49c.09.11.19.22.32.34.13.12.28.23.46.34Z"/>
            </g>
          </g>
        </g>
      </g>
    </g>
  </g>
</svg>