<?xml version="1.0" encoding="UTF-8"?>
<svg xmlns="http://www.w3.org/2000/svg" xmlns:xlink="http://www.w3.org/1999/xlink" viewBox="0 0 70.74 79.2">
  <defs>
    <style>
      .cls-1 {
        fill: #b09061;
      }

      .cls-2 {
        fill: #f3a984;
      }

      .cls-3 {
        fill: #13b7fd;
      }

      .cls-4 {
        fill: #eff6fe;
      }

      .cls-5 {
        fill: #fff;
      }

      .cls-6 {
        fill: #15d8fc;
      }

      .cls-7 {
        fill: #ee9c76;
      }

      .cls-8 {
        fill: #404b63;
      }

      .cls-9 {
        fill: #e9ecf5;
      }

      .cls-10 {
        clip-path: url(#clippath-2);
      }

      .cls-11 {
        fill: #f75061;
      }

      .cls-12 {
        isolation: isolate;
      }

      .cls-13 {
        fill: #8763cd;
      }

      .cls-14 {
        fill: #a6afcd;
      }

      .cls-15 {
        fill: #372b3d;
      }

      .cls-16 {
        fill: #ffb700;
      }

      .cls-17 {
        fill: #b98c74;
      }

      .cls-18 {
        clip-path: url(#clippath-1);
      }

      .cls-19 {
        fill: #ffbfa2;
      }

      .cls-20 {
        fill: #faece2;
      }

      .cls-21 {
        fill: #1499fc;
      }

      .cls-22 {
        fill: #0f1317;
      }

      .cls-23 {
        fill: #cddcfb;
      }

      .cls-24 {
        fill: #828cc0;
      }

      .cls-25 {
        fill: #15d9fd;
      }

      .cls-26, .cls-27 {
        mix-blend-mode: multiply;
        opacity: .5;
      }

      .cls-28 {
        fill: #dde3f4;
      }

      .cls-29, .cls-27 {
        fill: #bcc5df;
      }

      .cls-30 {
        clip-path: url(#clippath);
      }

      .cls-31 {
        fill: #546282;
      }

      .cls-32 {
        fill: #1c161f;
      }

      .cls-33 {
        fill: none;
      }

      .cls-34 {
        fill: #251b29;
      }

      .cls-35 {
        clip-path: url(#clippath-3);
      }

      .cls-36 {
        fill: #ffc400;
      }

      .cls-37 {
        fill: #6e4cb3;
      }

      .cls-38 {
        fill: #5e3e9e;
      }

      .cls-39 {
        fill: #d6af75;
      }

      .cls-40 {
        fill: #3f4961;
      }

      .cls-41 {
        fill: #d4dbef;
      }

      .cls-42 {
        fill: #7f89a6;
      }

      .cls-43 {
        fill: #eef1f8;
      }
    </style>
    <clipPath id="clippath">
      <path class="cls-5" d="m20.11,67.93l-2.65-1.54c-.4-.24-.66-.74-.66-1.45l2.65,1.54c0,.71.25,1.21.66,1.45Z"/>
    </clipPath>
    <clipPath id="clippath-1">
      <path class="cls-5" d="m40.43.15l2.65,1.54c-.41-.24-.98-.2-1.6.16l-2.65-1.54c.63-.36,1.19-.4,1.6-.16Z"/>
    </clipPath>
    <clipPath id="clippath-2">
      <path class="cls-5" d="m19.31,17.24l-2.65-1.54c0-1.43,1-3.17,2.25-3.89l2.65,1.54c-1.24.72-2.25,2.46-2.25,3.89Z"/>
    </clipPath>
    <clipPath id="clippath-3">
      <path class="cls-33" d="m63.05,49.62l.53.31s-.09-.02-.15.01l-.53-.31c.06-.03.11-.04.15-.01Z"/>
    </clipPath>
  </defs>
  <g class="cls-12">
    <g id="Layer_2" data-name="Layer 2">
      <g id="Layer_1-2" data-name="Layer 1">
        <g>
          <g>
            <g class="cls-26">
              <polygon class="cls-29" points="24.82 60.76 7.38 70.87 0 66.6 0 65.35 17.45 56.49 24.82 60.76"/>
            </g>
            <g class="cls-12">
              <polygon class="cls-29" points="22.66 59.66 22.66 60.77 7.15 69.73 7.15 68.62 22.66 59.66"/>
              <polygon class="cls-28" points="7.15 68.62 7.15 69.73 0 65.6 0 64.5 7.15 68.62"/>
              <polygon class="cls-5" points="22.66 59.66 7.15 68.62 0 64.5 15.52 55.54 22.66 59.66"/>
            </g>
            <g class="cls-12">
              <polygon class="cls-29" points="22.8 58.19 22.8 59.3 7.28 68.26 7.28 67.15 22.8 58.19"/>
              <polygon class="cls-28" points="7.28 67.15 7.28 68.26 .13 64.13 .13 63.03 7.28 67.15"/>
              <polygon class="cls-5" points="22.8 58.19 7.28 67.15 .13 63.03 15.65 54.07 22.8 58.19"/>
            </g>
            <g class="cls-12">
              <polygon class="cls-29" points="24.12 57.34 24.12 58.45 8.6 67.41 8.6 66.31 24.12 57.34"/>
              <polygon class="cls-28" points="8.6 66.31 8.6 67.41 1.46 63.28 1.46 62.18 8.6 66.31"/>
              <polygon class="cls-5" points="24.12 57.34 8.6 66.31 1.46 62.18 16.97 53.22 24.12 57.34"/>
            </g>
            <g class="cls-12">
              <polygon class="cls-29" points="24.12 55.94 24.12 57.04 8.6 66 8.6 64.9 24.12 55.94"/>
              <polygon class="cls-28" points="8.6 64.9 8.6 66 1.46 61.88 1.46 60.77 8.6 64.9"/>
              <polygon class="cls-5" points="24.12 55.94 8.6 64.9 1.46 60.77 16.97 51.81 24.12 55.94"/>
            </g>
            <g class="cls-12">
              <polygon class="cls-29" points="24.12 54.34 24.12 55.45 8.6 64.41 8.6 63.3 24.12 54.34"/>
              <polygon class="cls-28" points="8.6 63.3 8.6 64.41 1.46 60.28 1.46 59.17 8.6 63.3"/>
              <polygon class="cls-5" points="24.12 54.34 8.6 63.3 1.46 59.17 16.97 50.21 24.12 54.34"/>
            </g>
          </g>
          <g>
            <g class="cls-12">
              <g class="cls-12">
                <path class="cls-5" d="m20.11,67.93l-2.65-1.54c-.4-.24-.66-.74-.66-1.45l2.65,1.54c0,.71.25,1.21.66,1.45Z"/>
                <g class="cls-30">
                  <g class="cls-12">
                    <path class="cls-41" d="m20.11,67.93l-2.65-1.54c-.4-.24-.66-.74-.66-1.45l2.65,1.54c0,.71.25,1.21.66,1.45h0Z"/>
                  </g>
                </g>
              </g>
              <g class="cls-12">
                <path class="cls-5" d="m40.43.15l2.65,1.54c-.41-.24-.98-.2-1.6.16l-2.65-1.54c.63-.36,1.19-.4,1.6-.16Z"/>
                <g class="cls-18">
                  <g class="cls-12">
                    <path class="cls-5" d="m41.48,1.85l-2.65-1.54c.63-.36,1.19-.4,1.6-.16l2.65,1.54c-.41-.24-.98-.2-1.6.16h0Z"/>
                  </g>
                </g>
              </g>
              <polygon class="cls-41" points="19.45 66.48 16.8 64.94 16.66 15.7 19.31 17.24 19.45 66.48"/>
              <polygon class="cls-5" points="21.56 13.35 18.91 11.81 38.83 .31 41.48 1.85 21.56 13.35"/>
              <g class="cls-12">
                <path class="cls-5" d="m19.31,17.24l-2.65-1.54c0-1.43,1-3.17,2.25-3.89l2.65,1.54c-1.24.72-2.25,2.46-2.25,3.89Z"/>
                <g class="cls-10">
                  <g class="cls-12">
                    <path class="cls-9" d="m19.31,17.24l-2.65-1.54c0-1.43,1-3.17,2.25-3.89l2.65,1.54c-1.24.72-2.25,2.46-2.25,3.89h0Z"/>
                  </g>
                </g>
              </g>
              <g>
                <polygon class="cls-6" points="43.75 6.79 19.32 20.89 19.44 61.96 43.87 47.86 43.75 6.79"/>
                <path class="cls-9" d="m43.74,3.14c0-1.43-1.02-2.01-2.26-1.29l-19.92,11.5c-1.24.72-2.25,2.46-2.25,3.89v3.65s24.44-14.1,24.44-14.1v-3.65Z"/>
                <path class="cls-9" d="m19.44,61.96v4.52c.02,1.43,1.03,2.01,2.27,1.29l19.92-11.5c1.25-.72,2.25-2.46,2.25-3.89v-4.52s-24.44,14.1-24.44,14.1Z"/>
              </g>
            </g>
            <g>
              <path class="cls-15" d="m37.25,7.74c0,.56-.4,1.25-.88,1.53-.49.28-.88.05-.88-.51s.4-1.25.88-1.53c.49-.28.88-.05.88.51Z"/>
              <path class="cls-15" d="m27.69,13.22c0,.4-.28.88-.63,1.08-.35.2-.63.04-.63-.36s.28-.88.63-1.08c.35-.2.63-.04.63.36Z"/>
              <path class="cls-15" d="m26.08,14.15c0,.4-.28.88-.63,1.08-.35.2-.63.04-.63-.36s.28-.88.63-1.08c.35-.2.63-.04.63.36Z"/>
              <path class="cls-15" d="m34.28,10.17l-5.89,3.41c-.14.08-.25.02-.25-.15v-.84c0-.16.11-.36.25-.44l5.89-3.41c.14-.08.25-.02.25.15v.84c0,.16-.11.36-.25.44Z"/>
            </g>
            <path class="cls-24" d="m30.77,61.1c-.13,0-.25-.03-.35-.09-.25-.14-.39-.44-.39-.82v-1.14c0-.73.5-1.59,1.13-1.96l3.62-2.09c.33-.19.65-.22.9-.07.25.14.39.44.39.82v1.14c0,.73-.5,1.59-1.13,1.96l-3.62,2.09c-.19.11-.38.17-.55.17Zm4.55-5.94c-.11,0-.25.04-.39.12l-3.62,2.09c-.52.3-.97,1.07-.97,1.67v1.14c0,.26.08.45.23.54.15.08.35.06.58-.07l3.62-2.09c.52-.3.97-1.07.97-1.67v-1.14c0-.26-.08-.45-.23-.54-.06-.03-.12-.05-.19-.05Z"/>
          </g>
          <g>
            <g class="cls-26">
              <polygon class="cls-29" points="25.92 72.9 16.89 78.18 9.51 73.91 9.51 72.66 18.54 68.63 25.92 72.9"/>
            </g>
            <g class="cls-12">
              <polygon class="cls-29" points="23.76 71.81 23.76 72.91 16.66 77.04 16.66 75.93 23.76 71.81"/>
              <polygon class="cls-28" points="16.66 75.93 16.66 77.04 9.51 72.91 9.51 71.81 16.66 75.93"/>
              <polygon class="cls-5" points="23.76 71.81 16.66 75.93 9.51 71.81 16.61 67.68 23.76 71.81"/>
            </g>
            <g class="cls-12">
              <polygon class="cls-29" points="23.89 70.34 23.89 71.44 16.79 75.57 16.79 74.46 23.89 70.34"/>
              <polygon class="cls-28" points="16.79 74.46 16.79 75.57 9.64 71.44 9.64 70.34 16.79 74.46"/>
              <polygon class="cls-5" points="23.89 70.34 16.79 74.46 9.64 70.34 16.74 66.21 23.89 70.34"/>
            </g>
            <g class="cls-12">
              <polygon class="cls-29" points="25.22 69.49 25.22 70.59 18.11 74.72 18.11 73.61 25.22 69.49"/>
              <polygon class="cls-28" points="18.11 73.61 18.11 74.72 10.97 70.59 10.97 69.49 18.11 73.61"/>
              <polygon class="cls-5" points="25.22 69.49 18.11 73.61 10.97 69.49 18.07 65.36 25.22 69.49"/>
            </g>
            <path class="cls-11" d="m18.64,66.88c-1.15.05-2.46.71-2.03,1.56-1.48-.25-2.62.51-2.7,1.17-.13,1,1.93,2.17,7.22,1.44,1.27-3.06-.76-4.25-2.49-4.17Z"/>
          </g>
          <g>
            <g class="cls-12">
              <polygon class="cls-29" points="35.81 15.12 35.01 14.66 34.99 6.57 35.79 7.04 35.81 15.12"/>
              <polygon class="cls-5" points="35.79 7.04 34.99 6.57 42.39 2.3 43.19 2.77 35.79 7.04"/>
              <polygon class="cls-43" points="43.19 2.77 43.22 10.85 35.81 15.12 35.79 7.04 43.19 2.77"/>
            </g>
            <g>
              <polygon class="cls-25" points="36.76 13.8 42.37 10.56 42.37 4.09 36.76 7.33 36.76 13.8"/>
              <polygon class="cls-21" points="37.89 10.39 39.17 11.2 41.2 7.19 42.37 8.9 42.37 10.56 36.76 13.8 36.76 12.18 37.89 10.39"/>
              <path class="cls-21" d="m37.89,8.46c0-.48.34-1.06.75-1.3.42-.24.75-.05.75.43s-.34,1.06-.75,1.3c-.42.24-.75.05-.75-.43Z"/>
            </g>
          </g>
          <g>
            <g class="cls-12">
              <polygon class="cls-29" points="21.72 30.37 20.91 29.9 20.89 21.81 21.7 22.28 21.72 30.37"/>
              <polygon class="cls-5" points="21.7 22.28 20.89 21.81 27.91 17.77 28.71 18.23 21.7 22.28"/>
              <polygon class="cls-43" points="28.71 18.23 28.73 26.32 21.72 30.37 21.7 22.28 28.71 18.23"/>
            </g>
            <g>
              <polygon class="cls-21" points="28.08 25.95 22.65 29.08 22.65 22.81 28.08 19.67 28.08 25.95"/>
              <polygon class="cls-4" points="27.52 23.15 23.98 22.83 23.98 27.55 27.52 23.15"/>
            </g>
          </g>
          <g>
            <g class="cls-12">
              <polygon class="cls-29" points="22.36 52.99 21.55 52.52 21.53 44.43 22.33 44.9 22.36 52.99"/>
              <polygon class="cls-5" points="22.33 44.9 21.53 44.43 28.54 40.39 29.35 40.86 22.33 44.9"/>
              <polygon class="cls-43" points="29.35 40.86 29.37 48.94 22.36 52.99 22.33 44.9 29.35 40.86"/>
            </g>
            <path class="cls-36" d="m26.04,43.67l.74,1.09s.08.06.15.04l1.48-.51c.17-.06.23.14.12.35l-1.02,1.88c-.04.08-.06.16-.06.23l.17,1.63c.02.18-.15.43-.31.43l-1.38.07c-.06,0-.12.04-.18.1l-1.38,1.52c-.15.17-.33.13-.31-.08l.17-1.84c0-.08-.01-.14-.06-.17l-1.02-.69c-.11-.08-.05-.35.12-.48l1.48-1.2c.06-.05.12-.13.15-.21l.74-1.95c.08-.22.3-.34.38-.22Z"/>
          </g>
          <g class="cls-12">
            <polygon class="cls-29" points="33.27 29.47 32.46 29.01 32.43 19.52 33.24 19.99 33.27 29.47"/>
            <polygon class="cls-5" points="33.24 19.99 32.43 19.52 49.56 9.63 50.37 10.1 33.24 19.99"/>
            <polygon class="cls-28" points="50.37 10.1 50.4 19.59 33.27 29.47 33.24 19.99 50.37 10.1"/>
          </g>
          <g>
            <polygon class="cls-14" points="42.67 15.26 41.27 16.07 41.27 17.51 42.67 16.69 42.67 15.26"/>
            <polygon class="cls-14" points="43.09 15.02 43.09 16.45 49.78 12.59 49.78 11.16 43.09 15.02"/>
          </g>
          <polygon class="cls-14" points="45.85 15.62 41.27 18.27 41.27 19.71 45.85 17.06 45.85 15.62"/>
          <g>
            <polygon class="cls-14" points="42.5 19.76 41.27 20.47 41.27 21.91 42.5 21.2 42.5 19.76"/>
            <polygon class="cls-14" points="44.89 18.38 43.01 19.47 43.01 20.9 44.89 19.82 44.89 18.38"/>
            <polygon class="cls-14" points="45.65 17.94 45.65 19.38 49.78 16.99 49.78 15.56 45.65 17.94"/>
          </g>
          <polygon class="cls-14" points="49.78 17.72 41.27 22.63 41.27 24.07 49.78 19.15 49.78 17.72"/>
          <g>
            <polygon class="cls-16" points="40.88 24.2 33.98 28.18 33.98 20.22 40.88 16.24 40.88 24.2"/>
            <g>
              <path class="cls-5" d="m38.88,19.56c0-.92-.65-1.3-1.45-.84-.8.46-1.45,1.59-1.45,2.51s.65,1.3,1.45.84c.8-.46,1.45-1.59,1.45-2.51Z"/>
              <path class="cls-5" d="m39.93,24.25v-.97c0-1.3-.92-1.83-2.05-1.18l-.9.52c-1.13.65-2.05,2.25-2.05,3.55v.97l4.99-2.88Z"/>
            </g>
          </g>
          <g>
            <g class="cls-12">
              <polygon class="cls-29" points="33.87 52.74 33.06 52.27 33.04 37.84 33.84 38.31 33.87 52.74"/>
              <polygon class="cls-5" points="33.84 38.31 33.04 37.84 50.17 27.96 50.97 28.42 33.84 38.31"/>
              <polygon class="cls-28" points="50.97 28.42 51 42.85 33.87 52.74 33.84 38.31 50.97 28.42"/>
            </g>
            <g>
              <path class="cls-21" d="m36.72,38.51c0,.74-.52,1.65-1.16,2.02s-1.16.07-1.16-.67.52-1.65,1.16-2.02c.64-.37,1.16-.07,1.16.67Z"/>
              <polygon class="cls-21" points="48.05 31.97 37.43 38.1 37.43 39.45 48.05 33.31 48.05 31.97"/>
              <polygon class="cls-24" points="40.17 48.53 48.05 43.98 48.05 42.63 40.17 47.18 40.17 48.53"/>
              <polygon class="cls-24" points="47.3 41.02 37.43 46.71 37.43 48.06 47.3 42.36 47.3 41.02"/>
              <path class="cls-21" d="m36.72,44.51c0,.74-.52,1.65-1.16,2.02-.64.37-1.16.07-1.16-.67s.52-1.65,1.16-2.02c.64-.37,1.16-.07,1.16.67Z"/>
              <polygon class="cls-21" points="48.05 37.97 37.43 44.1 37.43 45.45 48.05 39.32 48.05 37.97"/>
              <polygon class="cls-21" points="43.95 36.31 37.43 40.07 37.43 41.41 43.95 37.65 43.95 36.31"/>
              <g>
                <path class="cls-24" d="m48.05,35.95c0,.74.52,1.04,1.17.67.64-.37,1.16-1.28,1.16-2.02,0-.74-.52-1.04-1.17-.67-.64.37-1.16,1.28-1.16,2.02Z"/>
                <polygon class="cls-24" points="42.74 39.02 47.34 36.36 47.34 37.71 42.74 40.37 42.74 39.02"/>
              </g>
              <path class="cls-24" d="m48.05,40.59c0,.74.52,1.04,1.17.67.64-.37,1.16-1.28,1.16-2.02,0-.74-.52-1.04-1.17-.67-.64.37-1.16,1.28-1.16,2.02Z"/>
            </g>
          </g>
          <g>
            <g class="cls-12">
              <polygon class="cls-29" points="46.52 35.89 45.72 35.42 45.69 25.88 46.5 26.34 46.52 35.89"/>
              <polygon class="cls-5" points="46.5 26.34 45.69 25.88 54.21 20.96 55.02 21.43 46.5 26.34"/>
              <polygon class="cls-43" points="55.02 21.43 55.04 30.97 46.52 35.89 46.5 26.34 55.02 21.43"/>
            </g>
            <g>
              <path class="cls-11" d="m54.45,26.54c0-2.34-1.65-3.29-3.68-2.12-2.03,1.17-3.68,4.02-3.68,6.37,0,2.34,1.65,3.29,3.68,2.12,2.03-1.17,3.68-4.02,3.68-6.37Z"/>
              <path class="cls-4" d="m49.83,26.77v4.33c-.18-.02-.42.05-.69.2-.56.32-1.02.92-1.02,1.34s.46.49,1.02.16c.56-.32,1.02-.92,1.02-1.34v-4.63s0,0,0,0l2.35-2.02v4.45c-.18-.02-.42.05-.69.2-.56.32-1.02.92-1.02,1.34s.46.49,1.02.16c.56-.32,1.02-.92,1.02-1.34v-5.21c0-.1-.12-.16-.2-.09l-2.77,2.35s-.04.06-.04.09Z"/>
            </g>
          </g>
          <g>
            <path class="cls-27" d="m55.37,66.14c2.1,1.21,2.1,3.17,0,4.39s-5.5,1.21-7.6,0c-2.1-1.21-2.1-3.17,0-4.39,2.1-1.21,5.5-1.21,7.6,0Z"/>
            <g>
              <g class="cls-12">
                <polygon class="cls-31" points="45.26 38.13 45.67 37.89 54.35 67.31 53.94 67.55 45.26 38.13"/>
                <polygon class="cls-32" points="44.7 38.07 45.11 37.83 45.67 37.89 45.26 38.13 44.7 38.07"/>
                <polygon class="cls-40" points="45.26 38.13 53.94 67.55 53.38 67.49 44.7 38.07 45.26 38.13"/>
              </g>
              <g class="cls-12">
                <polygon class="cls-40" points="41.82 44.01 41.49 43.82 41.49 43.33 41.82 43.52 41.82 44.01"/>
                <polygon class="cls-40" points="41.82 43.52 41.49 43.33 45.79 40.85 46.12 41.04 41.82 43.52"/>
                <polygon class="cls-31" points="46.12 41.04 46.46 41.33 41.82 44.01 41.82 43.52 46.12 41.04"/>
              </g>
              <g class="cls-12">
                <polygon class="cls-40" points="42.89 47.56 42.56 47.37 42.56 46.88 42.89 47.07 42.89 47.56"/>
                <polygon class="cls-40" points="42.89 47.07 42.56 46.88 46.86 44.4 47.18 44.59 42.89 47.07"/>
                <polygon class="cls-31" points="47.18 44.59 47.53 44.88 42.89 47.56 42.89 47.07 47.18 44.59"/>
              </g>
              <g class="cls-12">
                <polygon class="cls-40" points="43.92 51.12 43.6 50.93 43.6 50.44 43.92 50.63 43.92 51.12"/>
                <polygon class="cls-40" points="43.92 50.63 43.6 50.44 47.89 47.96 48.22 48.15 43.92 50.63"/>
                <polygon class="cls-31" points="48.22 48.15 48.57 48.44 43.92 51.12 43.92 50.63 48.22 48.15"/>
              </g>
              <g class="cls-12">
                <polygon class="cls-40" points="44.99 54.67 44.67 54.48 44.67 53.99 44.99 54.18 44.99 54.67"/>
                <polygon class="cls-40" points="44.99 54.18 44.67 53.99 48.97 51.51 49.29 51.7 44.99 54.18"/>
                <polygon class="cls-31" points="49.29 51.7 49.64 51.99 44.99 54.67 44.99 54.18 49.29 51.7"/>
              </g>
              <g class="cls-12">
                <polygon class="cls-40" points="46.03 58.24 45.7 58.05 45.7 57.56 46.03 57.75 46.03 58.24"/>
                <polygon class="cls-40" points="46.03 57.75 45.7 57.56 50 55.08 50.33 55.27 46.03 57.75"/>
                <polygon class="cls-31" points="50.33 55.27 50.67 55.55 46.03 58.24 46.03 57.75 50.33 55.27"/>
              </g>
              <g class="cls-12">
                <polygon class="cls-40" points="46.03 58.24 45.71 58.05 45.7 57.56 46.03 57.75 46.03 58.24"/>
                <polygon class="cls-40" points="46.03 57.75 45.7 57.56 50 55.08 50.33 55.27 46.03 57.75"/>
              </g>
              <g class="cls-12">
                <polygon class="cls-40" points="47.07 61.8 46.74 61.61 46.74 61.12 47.07 61.31 47.07 61.8"/>
                <polygon class="cls-40" points="47.07 61.31 46.74 61.12 51.04 58.64 51.36 58.83 47.07 61.31"/>
                <polygon class="cls-31" points="51.36 58.83 51.71 59.12 47.07 61.8 47.07 61.31 51.36 58.83"/>
              </g>
              <g class="cls-12">
                <polygon class="cls-40" points="48.12 65.36 47.8 65.17 47.79 64.68 48.12 64.87 48.12 65.36"/>
                <polygon class="cls-40" points="48.12 64.87 47.79 64.68 52.09 62.2 52.42 62.39 48.12 64.87"/>
                <polygon class="cls-31" points="52.42 62.39 52.77 62.68 48.12 65.36 48.12 64.87 52.42 62.39"/>
              </g>
              <g class="cls-12">
                <polygon class="cls-40" points="49.17 68.91 48.85 68.73 48.85 68.24 49.17 68.43 49.17 68.91"/>
                <polygon class="cls-40" points="49.17 68.43 48.85 68.24 53.15 65.75 53.47 65.94 49.17 68.43"/>
                <polygon class="cls-31" points="53.47 65.94 53.82 66.23 49.17 68.91 49.17 68.43 53.47 65.94"/>
              </g>
              <g class="cls-12">
                <polygon class="cls-31" points="40.67 40.8 41.08 40.56 49.76 69.98 49.35 70.22 40.67 40.8"/>
                <polygon class="cls-32" points="40.11 40.74 40.52 40.5 41.08 40.56 40.67 40.8 40.11 40.74"/>
                <polygon class="cls-40" points="40.67 40.8 49.35 70.22 48.79 70.16 40.11 40.74 40.67 40.8"/>
              </g>
            </g>
            <g id="man">
              <g id="man-2" data-name="man">
                <path class="cls-29" d="m50.76,64.45c-.05-.07-.1-.03-.17-.03-.08,0-.17-.03-.25-.07-.1-.05-.19-.1-.28-.16-.24-.14-.51-.23-.78-.27-.12-.02-.26-.02-.38.02-.09.03-.18.08-.25.14-.06.05-.1.12-.11.2-.01.07.01.15.03.22.02.07.04.13.07.19.07.12.19.19.3.26.13.08.28.15.43.18.12.02.25.02.38.06.08.03.16.07.22.12.05.04.1.1.17.12.14.04.29.06.43.03.28-.06.45-.29.38-.57-.03-.1-.07-.2-.12-.29-.03-.06-.05-.11-.07-.14Z"/>
              </g>
              <g>
                <g id="man-3" data-name="man">
                  <path class="cls-24" d="m53.01,66.06c-.03-.08-.09-.05-.16-.07-.08-.02-.16-.07-.23-.12-.08-.07-.16-.14-.24-.21-.21-.19-.45-.33-.7-.43-.17-.06-.34-.12-.52-.05-.1.04-.19.1-.25.18-.06.08-.06.18-.06.28,0,.07,0,.13.03.2.04.13.14.23.24.32.11.11.24.21.38.27.12.05.24.07.35.14.07.04.14.1.19.17.04.05.08.12.14.15.12.07.27.12.41.12.28,0,.5-.18.5-.48,0-.1-.03-.21-.05-.31-.02-.06-.02-.11-.04-.15Z"/>
                </g>
                <path class="cls-21" d="m51.5,59.01c0-.09.01-.14.12-.18.31-.1.62-.2.94-.27.19-.05.38-.08.56-.08l.41-.37c.05.36.08.72.04,1.08-.09.78-.3,2.6-.35,3.46-.04.59-.04,1.17-.04,1.76,0,.57-.05,1.15-.09,1.72,0,.13-.02.26-.12.36-.09.09-.23.15-.36.16-.21.02-.42-.05-.57-.2-.09-.09-.09-.28-.1-.4-.01-.11-.02-.23-.02-.34-.01-.33-.01-.65-.02-.98-.01-.34-.03-.69-.05-1.03-.02-.23-.03-.45-.05-.68-.01-.12-.02-.25-.03-.37-.04-.35-.09-.7-.13-1.05-.06-.66-.1-1.33-.12-1.99,0-.17,0-.33,0-.5,0-.04,0-.07,0-.1Z"/>
                <path class="cls-3" d="m50.84,57.53c.3-.09.82.45,1.06.58.21.12.44.23.66.33.1.05.22.13.32.15.09.02.19-.01.28,0,.08.02.33-.03.37.04.05.11-.2.33-.27.42-.65.83-1.63,1.31-2.26,2.15-.26.35-.44.76-.67,1.14-.03.05-.06.09-.1.13-.07.06-.17.08-.26.1-.34.05-.3-.16-.49-.47-.15-.24-.57-.13-.59-.41-.04-.41.19-.77.32-1.02.48-.95.91-1.91,1.4-2.86.05-.09.1-.19.19-.25.02-.01.03-.02.05-.02Z"/>
                <g>
                  <path class="cls-5" d="m49.75,54.17c0,.1,0,.29.1.35.08.05.25.03.34.04.28.03.56.04.84.06.13,0,.25.02.38.02.37.01.74-.01,1.1-.07.14-.02.37-.06.49-.15.11-.09.12-.24.1-.39-.03-.27-.16-.53-.42-.63-.25-.1-.51-.06-.76-.03-.58.07-1.16.19-1.72.33-.1.03-.2.05-.29.12-.1.07-.16.2-.17.35Z"/>
                  <path class="cls-19" d="m45.41,53.2s0,.02,0,.03c.02.04.09.03.11,0,.02-.03.02-.06.03-.09.01-.07.04-.14.07-.2,0,0,0-.02.02-.02,0,0,.02,0,.02,0,.01,0,.02,0,.03,0,0,0,.02,0,.03,0,.01,0,.02.02.03.04.03.06.09.09.14.13.05.04.07.09.11.14.09.12.18.25.25.38.07.13.12.24.14.38.02.11.03.22.02.34,0,.08-.01.18-.07.24-.07.06-.16.02-.23-.03-.1-.07-.16-.18-.25-.26-.04-.04-.07-.09-.1-.12-.05-.04-.12-.06-.17-.08-.13-.05-.26-.12-.37-.22-.11-.09-.21-.17-.23-.31-.02-.15-.02-.3.03-.45.02-.08.06-.17.13-.22.07-.05.17-.07.24-.02.02.01.04.03.04.06,0,.02,0,.05,0,.07,0,.04-.03.15-.02.21Z"/>
                  <path class="cls-9" d="m49.85,53.85s0-.02,0-.03c0-.15,0-.33.09-.46.08-.12.23-.18.34-.25.38-.25.79-.45,1.22-.6.65-.24,1.32-.71,2.01-.32.07.04.14.09.2.14.36.35.32.91.26,1.36-.07.58-.24,1.14-.35,1.72-.02.12-.04.24-.05.36-.05.42-.01.85-.07,1.26-.05.36.06.77.11,1.13.03.22.05.47-.07.66-.13.2-.39.28-.63.33-.87.2-1.79.35-2.63.05-.15-.05-.3-.14-.36-.28-.04-.1-.03-.2-.02-.31.12-1.17.15-2.35.03-3.52-.04-.41-.1-.83-.1-1.25Z"/>
                  <path class="cls-28" d="m51.37,54.49c.08-.25.11-.52-.01-.78-.12-.26-.35-.45-.62-.53-.24-.07-.59-.05-.74.18-.09.13-.09.31-.09.46,0,0,0,.02,0,.03,0,.42.05.83.1,1.25.12,1.17.09,2.35-.03,3.52-.01.1-.02.21.02.31.03.08.09.14.16.18-.01-.47.03-.94.11-1.4.11-.63.3-1.25.53-1.85.12-.3.25-.6.38-.89.07-.15.15-.31.2-.47Z"/>
                  <path class="cls-23" d="m51.18,52.64c.12-.05.24-.1.33-.13.45-.16.91-.44,1.38-.47.23.34.04.74-.29.92-.42.21-.98.19-1.38-.1-.08-.06-.14-.15-.05-.22Z"/>
                  <path class="cls-5" d="m49.66,53.51c.24-.2.56-.37.88-.28.12.03.23.11.32.19.08.07.15.14.2.22.13.2.15.45.08.67-.09.28-.28.42-.51.57-.21.13-.41.27-.61.41-.4.28-.79.58-1.22.8-.25.13-.55.25-.82.16-.18-.06-.33-.21-.39-.4-.13-.45.2-.59.24-.63,1.36-1.25,1.84-1.74,1.81-1.71Z"/>
                  <path class="cls-5" d="m45.91,53.85c-.07.07-.19.21-.17.33.02.09.16.2.22.26.18.21.38.42.57.62.09.09.17.19.26.28.26.26.55.5.85.71.12.08.31.22.46.23.14,0,.25-.09.34-.21.16-.22.24-.5.13-.74-.11-.25-.33-.39-.53-.54-.47-.35-.97-.66-1.48-.94-.09-.05-.18-.1-.29-.11-.12-.02-.25.04-.36.13Z"/>
                  <path class="cls-19" d="m51.34,51.94c-.03-.17-.16-.13-.09-.29.06-.13.14-.25.25-.34.11-.09.26-.14.4-.13.05,0,.08.03.13.03.14,0,.27-.03.41,0,.13.02.26.03.26.18,0,.2,0,.4.06.6.03.11.09.21.1.32.02.22-.14.42-.34.52-.24.12-.52.11-.78.07-.13-.02-.31-.04-.39-.17-.06-.09-.03-.22-.02-.32.02-.15.03-.31.01-.46Z"/>
                  <g>
                    <path class="cls-19" d="m50.76,49.73c-.08.1-.15.21-.17.34-.04.29.07.59.01.88-.06.28.06.92.61,1.08.28.08.83-.01,1.01-.1.24-.11.4-.35.54-.57,1.16-1.84-1.22-2.6-2.01-1.64Z"/>
                    <path class="cls-34" d="m53.11,49.37c-.06-.06-.13-.11-.21-.15-.03-.01-.05-.02-.07-.04-.01-.02-.02-.04-.03-.06-.04-.08-.12-.14-.2-.19-.31-.17-.68-.18-1.03-.13-.12.02-.24.04-.35.09-.13.05-.24.14-.34.23-.14.13-.28.28-.35.46-.03.08-.04.17-.07.26-.02.08,0,.17.07.22.03.02.06.03.09.05.12.08.14.26.19.39.03.08.1.12.11.21.02.09.02.18.05.26.01.04.04.08.08.09.02,0,.03,0,.05-.01.05-.03.08-.09.09-.14.02-.06.03-.11.06-.16,0,0,.01-.01.02-.02,0,0,.01,0,.02,0,.06.01.1.06.13.11.03.06.05.13.07.2.03.11.03.2.05.3.01.11.04.22.12.3.17.18.49.17.71.12.08-.02.16-.04.23-.07.17-.08.28-.24.39-.39.1-.14.2-.28.25-.45.03-.09.04-.19.06-.28.05-.39.09-.89-.19-1.18Z"/>
                    <path class="cls-19" d="m51.39,50.54c.22-.05.31.22.19.45-.03.07-.1.13-.16.19-.34.39-.5.05-.39-.09.25-.31.08-.5.35-.56Z"/>
                    <path class="cls-2" d="m51.38,50.96s.25-.21.06-.29c-.05-.02-.1.03-.1.08,0,.03.01.05.01.08,0,.02,0,.03-.01.05-.02.04-.09.09-.07.14.02.05.08-.04.1-.05Z"/>
                  </g>
                </g>
                <path class="cls-3" d="m48.99,62.08s0,.02.01.04c.21.55.37,1.12.55,1.68.12.37.39,1.39.83,1.39.21,0,.62-.09.67-.28.18-.73-.45-2.85-.63-3.44-.05-.15-.05-.09-.09-.24-.03-.12-.04-.31-.12-.41-.15-.19-.45.05-.59.15-.21.15-.5.29-.66.5-.16.21-.05.43.03.63Z"/>
              </g>
            </g>
          </g>
          <g id="woman">
            <path class="cls-27" d="m64.19,59.56c-1.5.86-1.5,2.27,0,3.13,1.5.86,3.92.86,5.42,0s1.5-2.27,0-3.13c-1.5-.86-3.92-.86-5.42,0Z"/>
            <path class="cls-19" d="m62.37,47.94c.05-.02-.13-.03.33.16.87.36,2.14,1.05,1.81,1.51-.08.11-.26.21-.4.19-.13-.02-1.4-1.05-1.71-1.27-.07-.05-.15-.54-.04-.59Z"/>
            <path class="cls-19" d="m61.35,48.17s-.04-.04-.04-.07c0-.04.05-.06.09-.07.05-.01.11,0,.16.02.07.02.13.06.2.08.02,0,.04,0,.06,0s.04-.02.03-.04c0-.04-.06-.06-.09-.08-.04-.03-.09-.05-.13-.07-.07-.03-.16-.07-.24-.08-.09,0-.18.02-.27.01-.02,0-.04,0-.05,0-.03-.01-.04-.03-.06-.06-.02-.03-.03-.05-.05-.08,0,0,0-.01,0-.02,0,0,0-.01.01-.02.09-.07.22-.11.32-.16.08-.03.16-.07.23-.1.02,0,.04-.01.06-.01.02,0,.04.01.06.02.06.03.12.04.18.06.21.07.39.21.56.35.12.09.23.18.34.28.09.08.05.24-.03.32-.02.02-.03.03-.05.04-.07.05-.16.05-.25.03-.04,0-.24-.07-.3-.08-.25-.06-.49-.13-.72-.25-.01,0-.03-.02-.04-.03Z"/>
            <path class="cls-19" d="m66.05,48.55c.63-.41.87-1.07.64-1.29-.39-.37-.73-.12-1.63.66-.02.02-.04.03-.06.05-.22.19-.44.38-.64.58-.11.12-.22.24-.32.37-.02.03-.04.06-.06.09-.02.03-.03.07-.04.11-.03.09-.05.19-.06.29,0,.12.04.25.13.33.11.09.27.1.4.06.15-.05.49-.27.89-.65.26-.25-.07-.06.75-.59Z"/>
            <path class="cls-37" d="m66.52,47.18c-.18-.21-.51-.09-.71,0-.2.09-.38.22-.56.35-.09.07-.17.15-.26.23-.1.09-.21.17-.3.26-.09.08-.18.17-.19.29,0,.11.03.22.09.31.07.11.16.2.26.29.07.07.15.14.23.2.03.03.06.05.1.07.09.04.19.04.28,0,.09-.03.17-.08.25-.14.1-.08.2-.17.29-.27.08-.1.16-.19.23-.29.14-.19.26-.4.33-.63.07-.21.13-.51-.03-.7Z"/>
            <path class="cls-22" d="m67.48,60.7s-.06.11-.08.14c-.04.07-.09.14-.13.22-.05.1-.07.21-.1.31-.07.21-.13.41-.2.62-.03.08-.05.17-.06.25,0,.09,0,.18.04.25.08.14.24.2.39.24.09.03.19.05.27.02.07-.03.11-.09.15-.15.19-.28.28-.58.39-.89.06-.16.1-.34.1-.51,0-.1-.03-.19-.07-.28-.02-.04-.05-.09-.09-.12-.03-.04-.07-.05-.09-.1-.04-.09-.07-.19-.14-.26-.06-.06-.17-.06-.24-.03-.08.04-.14.11-.18.19,0,.03.04.05.04.08,0,0,0,0,0,0Z"/>
            <path class="cls-22" d="m66.35,59.73c-.08.06-.15.12-.22.18-.07.06-.15.1-.23.16-.16.13-.33.25-.5.36-.13.08-.27.16-.39.26-.09.08-.18.16-.25.27-.04.06-.05.09-.03.16.02.06.05.11.08.16.06.1.13.19.24.24.1.04.22.03.32,0,.16-.06.32-.17.43-.3.11-.14.25-.24.41-.31.13-.05.28-.07.4-.15.1-.07.17-.19.19-.31.02-.15-.04-.29-.03-.44,0-.09.03-.2.01-.29-.02-.08-.12-.14-.2-.14-.09,0-.18.02-.25.08v.1Z"/>
            <path class="cls-29" d="m65.41,54.13s0,.09,0,.14c.04.62.17,1.22.3,1.83.06.28.06,1.01.55.88.24-.06.65-.48.7-.99.02-.28.01-.68.03-.96.04-.58.61-2.43-.56-2.8-.18-.06-.45-.41-.6-.28-.26.21-.32.66-.36.96-.06.4-.08.81-.05,1.22Z"/>
            <path class="cls-29" d="m65.63,55.44c.05.63.17,1.26.27,1.88.11.65.15,1.29.12,1.96,0,.15-.02.3-.02.46,0,.18,0,.39.14.51.07.06.17.08.26.08.14,0,.28-.07.38-.16.13-.12.1-.25.1-.42-.02-.5.22-.97.29-1.46.04-.25.03-.5.03-.75,0-.49-.12-.92-.32-1.37-.05-.11-.12-.23-.24-.25l-1.01-.47Z"/>
            <path class="cls-20" d="m68.58,53.38c-.04-.44-.19-.88-.5-1.2v.38c0-.09-.03-.17-.06-.26-.01-.04-.03-.07-.05-.09-.06-.09-.14-.04-.28,0-.17.04-.35.03-.52.05-.55.08-.59.2-.95-.09-.07.45.03.88.02.98-.01.52.39.56.41.84.04.64.12,1.89.2,2.52.03.25.16.49.28.7.13.25.26.38.5.36.11-.01.29-.13.35-.23.04-.06.05-.18.07-.24.06-.2.12-.4.16-.61,0-.04.02-.09.03-.13h0s0,0,0-.01c.11-.55.17-1.11.25-1.66.07-.44.13-.88.09-1.32Z"/>
            <g id="people">
              <g>
                <path class="cls-1" d="m69.4,45.5c.05.31,0,.59.01.9,0,.33.04.65.11.97.06.29.15.57.18.86.03.29,0,.6-.16.85-.04.06-.09.12-.16.16-.09.05-.19.05-.29.04-.3-.05-.55-.3-.67-.59-.12-.29-.12-.61-.08-.91s.11-.61.15-.91c.05-.37.01-.72-.01-1.09,0-.12,0-.19-.08-.29-.09-.1-.23-.17-.37-.19-.12-.02-.26,0-.37-.05-.16-.06-.26-.25-.23-.41.02-.12.1-.22.18-.31.18-.2.42-.36.68-.38.27-.02.53.13.71.33.18.21.28.47.34.73.02.1.04.2.06.3Z"/>
                <g>
                  <path class="cls-2" d="m68.08,47.26c-.26-.12-.35-.18-.62-.24-.04,0-.19.05-.23.04-.33-.07-.68-.05-.98.08,0,0,0,0-.01,0v2.01h1.93l-.08-1.89Z"/>
                  <path class="cls-13" d="m69.02,48.2s0-.08-.01-.13c-.13-.41-.59-.62-.93-.82-.06.38-.22.73-.61.86-.2.09-.47,0-.58-.17,0,0,0,0,0,0-.15-.2-.17-.46-.16-.7,0-.06,0-.13.01-.19,0-.08-.03-.06-.09-.06-.14,0-.27.04-.41.08-.05.02-.11.04-.15.07-.16.11-.11.21-.4.8-.1.2-.21.4-.29.6-.08.21-.15.46-.14.68,0,.27.31,1.27.31,1.92,0,.44-.21.88-.15,1.32,0,.04.01.08.03.12.06.18.19.34.35.46.16.12.34.19.52.26.37.14.75.25,1.13.34.34.08.87.13,1.12-.18.09-.1.12-.24.12-.38,0-.14-.03-.27-.06-.4-.1-.37-.26-.72-.36-1.09-.12-.44-.22-.9-.1-1.36.05-.19.13-.37.21-.56.12-.28.25-.56.37-.83.06-.14.12-.27.18-.41.04-.08.07-.15.08-.22Z"/>
                  <path class="cls-37" d="m68.93,47.92c-.45.46-.74,1.03-1.23,1.5-.33.33-.79.52-1.31.58-.03,0-.09.06-.06.12.53,1.09.83,2.27.89,3.46.07.02.14.03.21.05.34.08.87.13,1.12-.18.09-.1.12-.24.12-.38,0-.14-.03-.27-.06-.4-.1-.37-.26-.72-.36-1.09-.12-.44-.22-.9-.1-1.36.05-.19.13-.37.21-.56.12-.28.25-.56.37-.83.06-.14.12-.27.18-.41.04-.08.07-.15.08-.22,0-.04,0-.08-.01-.13-.02-.06-.04-.11-.07-.16Z"/>
                </g>
                <g>
                  <path class="cls-2" d="m67.98,47.34c.02.71-1.22.72-1.2.05.02-.93.08-1.04.49-1.18.11-.04.23-.07.35-.07.43,0,.26.23.25.39-.05.49.11.55.12.81Z"/>
                  <path class="cls-2" d="m67.86,46.85c.03.22.11.31.12.49.02.66-1.04.72-1.18.19.41-.09.8-.32,1.06-.68Z"/>
                  <path class="cls-7" d="m67.26,46.21c.11-.04.23-.07.35-.07.43,0,.26.23.25.39-.01.13-.01.24,0,.32-.27.35-.65.59-1.06.68-.01-.04-.02-.09-.02-.13.02-.93.08-1.04.49-1.18Z"/>
                  <path class="cls-19" d="m67.46,46.88s.07-.06.11-.09c.12-.11.25-.24.34-.38.26-.45.28-1.05-.1-1.44-.27-.28-.69-.39-1.06-.29-.1.03-.2.07-.29.12-.08.04-.16.09-.22.15-.04.04-.07.09-.1.15-.03.06-.06.12-.08.18-.07.29.12.59.01.87-.02.06-.06.12-.08.18s-.03.14,0,.19c.03.05.08.08.1.14.03.08.04.17.07.25.03.09.05.18.1.26.11.2.27.21.47.13.27-.11.52-.26.74-.44Z"/>
                  <path class="cls-39" d="m68.35,45.51c-.02-.56-.19-.66-.4-.84-.21-.17-.49-.25-.76-.24-.28,0-.55.1-.78.25,0,0-.02.01-.03.02-.12.08-.23.17-.29.3-.03.07-.06.14-.07.22-.02.14.1.2.23.24.17.05.41-.02.58-.04.08,0,.16-.02.24,0,.08.02.15.08.17.16.02.08-.03.17-.04.25-.04.16.05.34.18.43.08.05.14.06.23.02.08-.04.16-.1.25-.04.08.05.05.15.03.23,0,.01-.03.12,0,.12.04,0,.47-.4.45-1.08Z"/>
                  <path class="cls-1" d="m67.25,45.58c.02.08-.03.17-.04.25-.04.16.05.34.18.43.08.05.14.06.23.02.08-.04.16-.1.25-.04.08.05.05.15.03.23,0,.01-.03.12,0,.12.04,0,.47-.4.45-1.08-.01-.33-.07-.5-.17-.62,0,0-.26.1-.49.26-.21.15-.45.43-.45.43Z"/>
                </g>
                <path class="cls-19" d="m68.89,49.53c.45-.71.37-1.44.06-1.6-.3-.15-.76.24-1.3,1.45-.13.29-.66,1.1-.73,1.68-.05.37.27.53.4.5.45-.08.68-.63,1.57-2.02Z"/>
                <path class="cls-19" d="m66.55,51.53c.58.19,1.09,0,1.15-.26.05-.24-.31-.49-1.27-.65-.23-.04-1.09-.14-1.56-.25-.27-.07-.29.33-.25.42.05.1.16.12.31.18.32.14.85.31,1.62.55Z"/>
                <path class="cls-19" d="m64.87,50.37s-.06-.03-.09-.04c-.17-.05-.35-.08-.53-.09-.15,0-.35-.02-.48.07-.09.06-.17.11-.26.17-.09.06-.18.12-.25.2-.05.06-.1.13-.08.21,0,0,0,.01,0,.02,0,0,0,0,.01,0,.03,0,.06-.02.08-.04.03-.03.06-.06.09-.09.04-.03.08-.05.12-.06.03-.01.09-.02.12.02.02.03.01.06,0,.09,0,.04,0,.09,0,.13,0,.03.02.07.05.08.03,0,.06,0,.08.01.03.03,0,.07.03.09.01,0,.03,0,.04.01.01.01.02.04.03.05.02.02.04.04.07.06,0,0,.02.01.03.01,0,0,.02,0,.02-.01.07-.05.11-.12.17-.17.05-.04.11-.06.17-.06s.12,0,.19,0c.08,0,.15,0,.23-.02.06-.01.15-.06.21-.03l-.06-.61Z"/>
                <path class="cls-37" d="m68.92,47.82c-.24-.12-.51.11-.66.28-.15.16-.27.35-.38.54-.06.1-.1.21-.15.31-.06.12-.12.24-.18.36-.05.1-.11.22-.07.34.04.1.11.19.2.26.11.08.23.13.35.17.09.04.19.07.29.1.04.01.08.02.12.03.1,0,.19-.04.26-.1.07-.06.13-.14.18-.23.07-.11.13-.23.16-.36.04-.12.08-.24.1-.36.05-.23.08-.47.07-.71-.01-.23-.07-.52-.29-.63Z"/>
              </g>
            </g>
            <path class="cls-20" d="m66.86,56.31c.05.63.3,1.09.41,1.71.11.65.15,1.29.12,1.96,0,.14-.01.28-.02.42,0,.11-.03.26,0,.37.04.11.15.17.27.2.08.02.17.04.25.03.08,0,.16-.04.22-.09.06-.05.07-.14.09-.21.03-.15.02-.31.04-.46.02-.13.05-.26.08-.39.07-.29.17-.57.21-.87.04-.25.03-.5.03-.75,0-.49-.18-1.17-.38-1.62-.05-.11-.06.02-.18,0l-1.15-.31Z"/>
            <path class="cls-19" d="m67.81,46.03c.19-.01.24.23.11.41-.04.05-.11.1-.16.14-.35.29-.43-.02-.32-.12.25-.23.13-.41.37-.43Z"/>
            <path class="cls-2" d="m67.69,46.47s.24-.15.09-.24c-.04-.02-.09.01-.09.06,0,.02,0,.05,0,.07,0,.01,0,.03-.01.04-.02.03-.09.06-.07.11.01.04.08-.02.09-.03Z"/>
          </g>
          <g id="man-4" data-name="man">
            <path class="cls-27" d="m59.52,64.25c-1.74,1.01-1.74,2.64,0,3.64,1.74,1.01,4.57,1.01,6.31,0,1.74-1.01,1.74-2.64,0-3.64-1.74-1.01-4.57-1.01-6.31,0Z"/>
            <path class="cls-19" d="m57.24,51.71s.06-.02.09-.02c.03,0,.06.02.08.04.24.16.5.37.71.56h-.02s.06.05.09.07c0,0,.01.01.02.02.09.01.18.03.24.08.05.04.07.09.1.14.04.09.1.36.11.45,0,.03-.04.1-.08.12,0,0,0,0-.01,0h0c-.06.07-.1.14-.13.21-.03.06-.09.06-.15.09-.29-.27-.62-.39-.85-.7-.03-.04-.06-.08-.05-.13,0-.05.05-.09.1-.08-.03-.04-.03-.1,0-.14.03-.04.09-.06.14-.04-.02-.04,0-.09.04-.12.02-.01.04-.02.06-.02-.13-.1-.25-.19-.38-.32-.04-.04-.11-.09-.11-.15,0-.02,0-.04.02-.05Z"/>
            <g id="man-5" data-name="man">
              <g>
                <path class="cls-29" d="m63.86,65.93s-.05-.08-.14-.08c-.11,0-.21-.01-.32-.02-.14,0-.29-.02-.43-.03,0-.12.01-.24.02-.35-.15.03-.24-.01-.38-.07-.17-.06-.35-.12-.52-.17-.08-.02-.15-.04-.23-.03-.19.04-.3.36-.27.53.02.12.1.22.19.29.14.11.34.2.52.23.19.03.37.09.52.21.2.16.34.32.61.34.27.02.49-.14.5-.42,0-.1-.01-.2-.03-.29-.01-.06-.01-.11-.03-.14Z"/>
                <path class="cls-41" d="m63.05,66.26s0-.04,0-.06c.01-.22-.07-.4-.15-.6-.03-.07-.06-.15-.12-.2-.14-.11-.37-.01-.46.14-.04.07-.07.16-.1.23-.07.14-.22.31-.39.32-.23.01-.49-.07-.73-.08-.09,0-.19,0-.27.03-.2.08-.26.41-.19.59.04.11.15.19.25.24.16.08.38.12.56.11.19-.01.38,0,.55.09.3.14.66.35.96.07.08-.07.12-.19.13-.3.02-.2-.05-.39-.05-.58Z"/>
              </g>
            </g>
            <path class="cls-37" d="m63.69,57.33c-.15.15-.7-.12-.71-.2-.66-.51-.58,1.52-.39,2.33.1.44.07.89.14,1.33.07.49.17.98.31,1.46.03.1.06.21.14.29.15.16.41.15.63.11.19-.03.4-.08.5-.25.06-.1.06-.23.06-.35,0-.31,0-.63.06-.94.07-.33.13-.65.2-.98.06-.29.12-.57.14-.86.05-.53,0-1.05-.07-1.57-.04-.27.05-.78-.34-.84-.35-.05-.56.38-.66.47Z"/>
            <path class="cls-37" d="m63.85,57.13c.12-.15.28-.3.5-.27.39.06.3.57.34.84.08.52.13,1.05.07,1.57-.03.29-.09.58-.14.86-.07.33-.13.65-.2.98-.06.31-.06.63-.06.94,0,.12,0,.24-.06.35-.09.17-.31.22-.5.25-.08.01-.16.02-.24.02,0-1.1.18-2.2.69-3.23.32-.67.16-1.7-.41-2.32Z"/>
            <path class="cls-38" d="m62.98,57.13c0,.07.56.34.71.2.04-.04.09-.12.15-.2.57.62.73,1.65.41,2.32-.51,1.03-.68,2.13-.69,3.23-.15,0-.29-.03-.39-.13-.07-.08-.11-.18-.14-.29-.14-.48-.24-.97-.31-1.46-.06-.44-.03-.9-.14-1.33-.19-.81-.27-2.84.39-2.33Z"/>
            <path class="cls-37" d="m62.96,61.79l-.11-.46c.04.15.08.3.11.46Z"/>
            <path class="cls-37" d="m63.12,62.08c.11-.16.39-.15.48-.11.07.03.61-.27.76-.39-.01,0,0,.14.01.16,0,.05,0,.11,0,.16,0,.11.01.21.01.32,0,.21.01.42,0,.63,0,.41-.03.82-.07,1.23-.05.42-.12.83-.23,1.23-.04.16-.08.31-.13.46-.04.12-.08.26-.2.33-.06.04-.13.05-.19.06-.07,0-.13.01-.2,0-.07-.01-.15-.04-.19-.09-.05-.06-.09-.15-.11-.22-.04-.14-.04-.29-.05-.43,0-.68.04-1.37.04-2.05,0-.53-.03-1.06-.13-1.58l.16.29Z"/>
            <path class="cls-38" d="m62.96,61.79l.16.29s.06-.08.1-.1c.12-.06.34-.04.38,0-.14,1.4-.03,2.81-.09,4.2-.04,0-.08,0-.12,0-.07-.01-.15-.04-.19-.09-.05-.06-.09-.15-.11-.22-.04-.14-.04-.29-.05-.43,0-.68.04-1.37.04-2.05,0-.53-.03-1.06-.13-1.58Z"/>
            <path class="cls-13" d="m62.68,57.47c-.06-.03-.39-.19-.38-.28,0-.06-.16-.11-.2-.11-.07,0-.15.05-.21.09-.15.11-.26.27-.32.44-.09.24-.11.5-.13.76-.04.77-.02,1.53.06,2.3.04.38.1.77.17,1.15.04.19.08.38.12.57.04.18.08.24.23.33.33.2.91.18,1.14-.19.25-.4.15-1.01.23-1.46.12-.65.55-1.12.75-1.74.15-.45.13-.88.05-1.34-.04-.22-.1-.74-.33-.87-.06-.03-.46-.12-.78.2-.19.19-.17.28-.4.16Z"/>
            <path class="cls-25" d="m64.89,55.68c.01-.11.03-.23.05-.34.1-.54.26-1.07.33-1.62.05-.43.09-.96-.25-1.29-.06-.05-.12-.1-.18-.14-.66-.37-1.28.08-1.9.3-.4.15-.79.34-1.15.57-.13.08-.26.14-.34.26-.09.13-.14.28-.15.44-.01.18.02.36.05.54.18,1.05.25,2.12.13,3.18-.05.45-.11,1.7-.11,1.7.15.07.25.13.98.14,1.51.03,2.35-.35,2.44-.43.09-.08.06-.26.06-.37,0-.33,0-.66,0-.99-.02-.65-.04-1.3.04-1.94Z"/>
            <path class="cls-3" d="m61.3,53.87c0-.16.06-.3.15-.44.08-.13.21-.18.34-.26.08-.05.15-.1.23-.14.48.4,1.14.89.8,1.47-.88,1.57-1.08,3.21-1.12,4.88-.17-.03-.24-.06-.32-.1,0,0,.05-1.24.11-1.7.13-1.06.05-2.13-.13-3.18-.03-.18-.06-.36-.05-.54Z"/>
            <path class="cls-3" d="m62.62,52.73c.11-.05.23-.1.32-.13.43-.15.86-.42,1.3-.44.21.32.04.69-.27.87-.4.2-.92.18-1.3-.09-.08-.05-.13-.14-.05-.21Z"/>
            <path class="cls-13" d="m61.81,62.68c.03.33.05.66.08,1,.02.26.03.53.05.79.01.2.02.41.03.61.04,1.11-.08,1.36.44,1.5.12.03.24.04.36.01.34-.08.4-.38.44-.75.02-.21.03-.46.04-.67,0-.18,0-.36.01-.54,0-.24,0-.48,0-.72,0-.32,0-.64,0-.96,0-.41.04-.82.04-1.23,0-.06-.04-.12-.08-.15-.06-.04-1.29.41-1.41.55,0,0-.05.16-.01.57Z"/>
            <path class="cls-25" d="m61.57,53.29c.22-.15.48-.27.73-.16.1.05.18.13.25.22.18.23.3.5.28.8,0,.06-.01.11-.03.17-.08.2-.26.26-.43.34-.21.1-.41.22-.61.33-.4.23-.79.47-1.22.64-.25.1-.54.18-.78.07-.17-.07-.29-.23-.33-.41-.08-.43.24-.53.28-.57,1.39-1.05,1.89-1.46,1.86-1.44Z"/>
            <path class="cls-25" d="m58.31,53.01c-.08.04-.22.15-.23.26,0,.09.1.22.14.29.12.24.25.47.38.7.06.1.12.21.18.31.18.3.39.58.62.84.09.1.24.27.37.31.13.04.25-.03.36-.12.19-.16.34-.4.29-.65-.05-.25-.21-.43-.36-.61-.36-.42-.74-.82-1.14-1.2-.07-.07-.15-.13-.24-.17-.1-.04-.24-.02-.36.04Z"/>
            <path class="cls-19" d="m62.78,52.07c-.02-.16-.15-.12-.08-.27.05-.13.13-.24.24-.32.11-.08.24-.13.38-.12.05,0,.08.03.12.03.13,0,.26-.02.38,0,.13.02.24.03.24.17,0,.19,0,.38.05.56.03.1.08.2.09.3.02.21-.13.4-.32.49-.23.11-.49.1-.73.07-.12-.02-.3-.04-.37-.16-.05-.09-.03-.2-.02-.3.02-.15.03-.29.01-.44Z"/>
            <g>
              <g class="cls-12">
                <g class="cls-12">
                  <g class="cls-35">
                    <g class="cls-12">
                      <path class="cls-42" d="m63.44,49.95l-.53-.31c.06-.03.11-.04.15-.01l.53.31s-.09-.02-.15.01h0Z"/>
                    </g>
                  </g>
                </g>
              </g>
              <path class="cls-19" d="m62.23,49.99c-.08.09-.14.2-.16.32-.04.28.07.56.01.83-.06.27.06.87.58,1.02.26.08.79-.01.96-.09.23-.11.38-.33.51-.54,1.09-1.74-1.16-2.45-1.9-1.55Z"/>
              <path class="cls-1" d="m64.62,50.76c0,.05-.01.1-.02.15,0,.04-.02.08-.03.11-.01.03-.02.06-.04.09-.05.12-.13.22-.2.33-.1.14-.21.3-.37.37-.07.03-.14.05-.22.07-.21.05-.51.06-.67-.12-.07-.08-.1-.18-.11-.29-.01-.1-.02-.18-.04-.28,0-.02-.01-.05-.02-.07-.01-.04-.03-.08-.05-.11-.03-.06-.08-.11-.15-.13-.11-.03-.24.03-.33-.03-.05-.03-.07-.09-.1-.14-.02-.05-.04-.11-.06-.17-.03-.08-.06-.15-.11-.21-.03-.03-.06-.06-.08-.1-.03-.05-.06-.09-.06-.15-.01-.25.2-.51.37-.67.09-.09.2-.17.32-.22.1-.04.22-.07.33-.08.33-.05.68-.04.98.12.08.04.15.1.19.18,0,.02.01.04.03.05.02.02.04.03.07.04.08.04.14.08.2.14.27.28.23.75.18,1.11Z"/>
              <path class="cls-19" d="m62.83,50.77c.21-.02.27.24.13.45-.04.06-.11.11-.17.16-.37.33-.47-.02-.35-.13.27-.26.13-.45.4-.48Z"/>
              <path class="cls-2" d="m62.77,51.17s.26-.17.1-.26c-.05-.03-.1.01-.1.06,0,.02,0,.05,0,.08,0,.01,0,.03-.02.04-.02.03-.09.07-.08.12.01.04.08-.02.1-.04Z"/>
            </g>
          </g>
          <g>
            <path class="cls-27" d="m32.09,74.37c-1.91,1.11-1.91,2.9,0,4,1.91,1.11,5.02,1.11,6.93,0,1.91-1.11,1.91-2.9,0-4-1.91-1.11-5.02-1.11-6.93,0Z"/>
            <g class="cls-12">
              <polygon class="cls-29" points="39.97 70.67 40.72 70.23 40.74 62.64 39.99 63.08 39.97 70.67"/>
              <polygon class="cls-5" points="39.99 63.08 40.74 62.64 33.8 58.63 33.04 59.07 39.99 63.08"/>
              <polygon class="cls-43" points="33.04 59.07 33.02 66.66 39.97 70.67 39.99 63.08 33.04 59.07"/>
            </g>
            <g id="man-6" data-name="man">
              <g>
                <path class="cls-8" d="m34.48,76.69s0-.05,0-.07c-.02-.24.08-.43.16-.65.03-.08.07-.17.14-.22.16-.12.4-.02.5.16.05.08.07.17.11.25.08.16.24.34.42.35.25.01.54-.08.8-.09.1,0,.2,0,.3.03.22.09.28.44.2.64-.05.12-.16.21-.28.27-.18.08-.41.13-.61.12-.21-.02-.41,0-.61.1-.33.16-.72.38-1.05.08-.09-.08-.13-.2-.14-.32-.02-.21.05-.42.06-.63Z"/>
                <g id="man-7" data-name="man">
                  <path class="cls-8" d="m32.66,76.21c.03-.08.08-.06.15-.08.08-.02.15-.08.21-.13.08-.07.15-.15.22-.22.19-.19.41-.35.65-.47.08-.03.15-.07.24-.07.16-.01.31.06.45.12.14.07.14.15.14.29,0,.07,0,.13-.02.19-.03.13-.12.23-.21.33-.1.11-.22.22-.35.29-.11.06-.23.09-.34.16-.07.05-.13.11-.18.17-.04.05-.07.12-.13.16-.12.08-.25.14-.39.15-.27.02-.5-.15-.51-.43,0-.1.01-.2.03-.3.01-.06.01-.11.03-.15Z"/>
                </g>
                <path class="cls-14" d="m34.68,69.23c-.06-.08-.16-.09-.26-.11-.41-.07-.81-.24-1.22-.34-.18-.04-.36-.07-.55-.08l-.4-.36c-.05.35-.08.7-.04,1.05.09.76.29,2.52.34,3.36.04.64.04,1.28.04,1.92,0,.28.02.55-.01.83-.03.25-.04.59.08.81.09.18.28.3.48.33.2.02.41-.05.55-.19.09-.09.09-.27.1-.39.01-.11.02-.22.02-.33.01-.32.01-.63.02-.95.01-.34.03-.67.05-1,.02-.22.03-.44.05-.66.01-.12.02-.24.03-.36,0-.1,0-.3.04-.39.21-.39.39-.8.42-1.03.04-.32.04-.65.08-.98.03-.3.14-.57.19-.86.02-.09.03-.2-.03-.27Z"/>
                <path class="cls-41" d="m35.49,73.3s0,.03,0,.04c-.01.66.03,1.33.05,1.99.01.44.1,1.63-.3,1.78-.2.07-.6.13-.7-.06-.41-.71-.53-3.19-.56-3.89,0-.18.01-.11,0-.29,0-.14-.07-.34-.03-.48.08-.26.42-.11.59-.06.25.09.56.13.77.29.21.16.19.44.18.68Z"/>
                <path class="cls-41" d="m35.54,68.7c-.22-.2-.91.05-1.17.06-.24.01-.48.02-.72.01-.11,0-.24.02-.34,0-.09-.02-.16-.09-.25-.11-.07-.02-.28-.17-.34-.12-.09.07.03.37.06.48.22,1,.88,1.84,1.07,2.84.08.42.07.85.11,1.28,0,.05.01.11.03.15.04.08.11.14.19.2.19.12.4.21.62.25.12.02.24.03.36.02.09,0,.21-.05.29,0,.05-.36.01-.72.09-1.07.08-.37.06-.77.07-1.14.03-.83.04-1.66.02-2.49,0-.1,0-.21-.06-.3-.01-.02-.02-.03-.04-.04Z"/>
                <g>
                  <path class="cls-5" d="m31.6,63.06c.06-.32.33-.53.61-.66-.03.01.31-.11,1.17-.46v1.66c-.12.07-.24.14-.35.22-.23.15-.43.25-.71.22-.22-.03-.44-.15-.56-.34-.05-.08-.09-.18-.11-.27-.03-.12-.06-.24-.03-.36Z"/>
                  <path class="cls-5" d="m35.93,64.51c0,.09,0,.28-.1.34-.08.05-.24.03-.33.04-.27.03-.54.04-.82.06-.12,0-.25.02-.37.02-.36.01-.72-.01-1.07-.07-.14-.02-.36-.06-.47-.15-.11-.09-.12-.24-.1-.38.03-.26.16-.51.41-.61.25-.1.49-.06.74-.03.57.07,1.13.18,1.68.32.1.03.2.05.28.11.09.07.15.2.16.34Z"/>
                  <path class="cls-19" d="m40.67,65.42s-.01.02-.02.02c-.04.02-.09-.02-.09-.06,0-.03,0-.06.02-.09.02-.07.03-.13.03-.2,0,0,0-.02,0-.03,0,0-.01,0-.02-.01-.01,0-.02,0-.03-.01,0,0-.02,0-.02,0-.02,0-.03.01-.04.02-.06.04-.11.04-.18.05-.06.01-.11.04-.16.07-.13.06-.27.13-.39.21-.12.08-.21.15-.3.26-.07.09-.13.18-.18.28-.03.07-.08.16-.05.24.03.09.13.09.21.08.12-.01.22-.08.33-.11.05-.01.1-.04.15-.06.06-.02.13,0,.19,0,.14.02.28.01.42-.01.13-.03.25-.05.34-.16.09-.12.15-.25.19-.4.02-.08.02-.17,0-.25-.03-.08-.11-.14-.2-.13-.02,0-.05.01-.06.03-.02.02-.03.04-.04.06-.02.04-.05.14-.08.19Z"/>
                  <path class="cls-3" d="m35.83,64.2s0-.02,0-.03c0-.15,0-.32-.09-.45-.08-.11-.22-.17-.33-.24-.37-.24-.77-.44-1.19-.59-.63-.23-1.28-.69-1.96-.31-.07.04-.13.08-.19.14-.35.34-.31.89-.25,1.33.07.57.24,1.11.34,1.67.02.12.04.23.05.35.05.41.01.83.07,1.23.05.35-.06.75-.11,1.1-.03.22-.05.46.07.64.13.2.38.27.61.32.84.19,1.74.34,2.56.04.14-.05.3-.13.35-.27.04-.09.03-.2.02-.3-.11-1.14-.14-2.29-.03-3.42.04-.4.1-.81.09-1.21Z"/>
                  <path class="cls-21" d="m34.4,64.83c-.08-.25-.11-.5.01-.76.12-.25.34-.44.61-.52.23-.07.57-.04.72.18.09.13.09.3.09.45,0,0,0,.02,0,.03,0,.41-.05.81-.09,1.21-.11,1.14-.08,2.29.03,3.42.01.1.02.21-.02.3-.03.08-.09.13-.16.18.01-.46-.03-.91-.11-1.36-.11-.62-.29-1.22-.52-1.8-.11-.29-.24-.58-.37-.87-.07-.15-.14-.3-.19-.46Z"/>
                  <path class="cls-21" d="m34.54,63.03c-.12-.05-.24-.1-.33-.13-.44-.16-.89-.43-1.35-.46-.22.33-.04.72.28.89.41.2.95.18,1.34-.09.08-.05.14-.15.05-.21Z"/>
                  <path class="cls-3" d="m36.07,63.93c-.2-.23-.48-.44-.8-.41-.12.01-.24.06-.34.13-.08.05-.17.11-.23.18-.16.17-.22.41-.18.63.04.28.2.45.4.63.18.16.35.32.51.49.33.34.66.68,1.04.97.22.17.49.32.76.28.19-.03.35-.15.44-.32.2-.41-.1-.59-.13-.64-1.11-1.42-1.49-1.96-1.46-1.93Z"/>
                  <path class="cls-3" d="m39.98,65.74c.03.09.06.27,0,.36-.06.07-.23.09-.31.12-.26.09-.51.18-.77.27-.12.04-.23.08-.35.12-.35.1-.7.18-1.05.21-.14.01-.37.04-.49-.02-.13-.06-.17-.2-.2-.34-.04-.26.02-.54.23-.7.21-.16.46-.18.7-.22.57-.08,1.13-.12,1.7-.12.1,0,.2,0,.3.04.11.04.2.15.25.28Z"/>
                  <path class="cls-19" d="m34.39,62.35c.02-.17.15-.13.09-.28-.05-.13-.14-.25-.25-.33-.11-.09-.25-.14-.39-.13-.05,0-.08.03-.13.03-.13,0-.26-.02-.4,0-.13.02-.25.03-.25.18,0,.2,0,.39-.05.58-.03.1-.08.2-.09.31-.02.21.14.41.33.51.24.11.51.1.76.07.13-.02.3-.04.38-.16.06-.09.03-.21.02-.31-.02-.15-.03-.3-.01-.45Z"/>
                  <g>
                    <path class="cls-19" d="m34.95,60.2c.08.1.14.21.16.33.04.28-.07.58-.01.86.06.27-.06.9-.6,1.05-.27.08-.81-.01-.99-.1-.23-.11-.39-.34-.52-.56-1.13-1.79,1.19-2.53,1.96-1.6Z"/>
                    <path class="cls-17" d="m32.66,59.85c.05-.06.12-.1.2-.14.02-.01.05-.02.07-.04.01-.02.02-.04.03-.05.04-.08.12-.14.19-.19.3-.17.67-.18,1.01-.13.12.02.23.04.34.09.12.05.23.13.33.22.14.13.27.28.34.45.03.08.04.17.06.25.02.07,0,.16-.07.21-.03.02-.06.03-.09.05-.11.08-.14.26-.19.38-.03.08-.09.12-.11.2-.02.09-.02.17-.04.26-.01.04-.04.08-.08.08-.02,0-.03,0-.05-.01-.05-.03-.07-.09-.09-.14-.02-.05-.03-.11-.06-.16,0,0,0-.01-.02-.02,0,0-.01,0-.02,0-.06.01-.1.05-.12.1-.03.06-.05.13-.07.19-.03.1-.03.19-.04.29-.01.1-.04.22-.12.29-.16.18-.48.17-.69.12-.08-.02-.15-.04-.23-.07-.16-.08-.28-.23-.38-.38-.1-.14-.19-.28-.24-.43-.03-.09-.04-.18-.05-.28-.05-.38-.09-.86.18-1.15Z"/>
                    <path class="cls-19" d="m34.34,60.99c-.21-.05-.31.21-.19.44.03.07.1.13.15.19.34.38.48.04.38-.09-.24-.3-.07-.48-.34-.54Z"/>
                    <path class="cls-2" d="m34.35,61.4s-.24-.21-.06-.28c.05-.02.1.03.1.08,0,.03-.01.05-.01.08,0,.02,0,.03.01.04.02.04.09.08.06.13-.02.04-.08-.04-.09-.05Z"/>
                  </g>
                </g>
              </g>
            </g>
          </g>
          <g>
            <g>
              <polygon class="cls-29" points="13.04 47.7 12.23 47.23 12.2 37.13 13.01 37.59 13.04 47.7"/>
              <polygon class="cls-5" points="13.01 37.59 12.2 37.13 38.04 22.21 38.85 22.68 13.01 37.59"/>
              <polygon class="cls-43" points="38.85 22.68 38.87 32.78 13.04 47.7 13.01 37.59 38.85 22.68"/>
            </g>
            <g>
              <polygon class="cls-29" points="38.57 23.81 13.55 38.26 13.55 39.73 38.57 25.28 38.57 23.81"/>
              <polygon class="cls-29" points="38.57 26.16 13.55 40.61 13.55 42.08 38.57 27.63 38.57 26.16"/>
              <polygon class="cls-29" points="38.57 28.47 13.55 42.92 13.55 44.39 38.57 29.95 38.57 28.47"/>
              <polygon class="cls-29" points="38.57 30.82 13.55 45.27 13.55 46.74 38.57 32.3 38.57 30.82"/>
            </g>
          </g>
        </g>
      </g>
    </g>
  </g>
</svg>