<?xml version="1.0" encoding="UTF-8"?>
<svg xmlns="http://www.w3.org/2000/svg" xmlns:xlink="http://www.w3.org/1999/xlink" viewBox="0 0 80.1 73.83">
  <defs>
    <style>
      .cls-1 {
        opacity: .8;
      }

      .cls-1, .cls-2, .cls-3 {
        mix-blend-mode: multiply;
      }

      .cls-1, .cls-4, .cls-3 {
        fill: #bcc5df;
      }

      .cls-5 {
        fill: #b09061;
      }

      .cls-6 {
        fill: #f3a984;
      }

      .cls-7 {
        clip-path: url(#clippath-20);
      }

      .cls-8 {
        clip-path: url(#clippath-11);
      }

      .cls-9, .cls-10 {
        fill: #13b7fd;
      }

      .cls-11 {
        fill: #eff6fe;
      }

      .cls-12 {
        fill: #fff;
      }

      .cls-13 {
        fill: #9aa7d2;
      }

      .cls-14 {
        fill: #1c232a;
      }

      .cls-15 {
        fill: #ee9c76;
      }

      .cls-10, .cls-2, .cls-3 {
        opacity: .5;
      }

      .cls-16 {
        fill: #283032;
      }

      .cls-17 {
        fill: #e9ecf5;
      }

      .cls-18 {
        fill: #98a4e0;
      }

      .cls-19 {
        clip-path: url(#clippath-2);
      }

      .cls-20 {
        fill: #ffde23;
      }

      .cls-21 {
        fill: #f75061;
      }

      .cls-22 {
        isolation: isolate;
      }

      .cls-23 {
        fill: #8763cd;
      }

      .cls-24 {
        fill: #ffbf99;
      }

      .cls-25 {
        fill: #372b3d;
      }

      .cls-26 {
        clip-path: url(#clippath-6);
      }

      .cls-27 {
        fill: #098ba5;
      }

      .cls-28 {
        fill: #ffb700;
      }

      .cls-29 {
        fill: #47e0ff;
        opacity: .3;
      }

      .cls-29, .cls-30 {
        mix-blend-mode: screen;
      }

      .cls-31 {
        clip-path: url(#clippath-7);
      }

      .cls-32 {
        clip-path: url(#clippath-21);
      }

      .cls-33 {
        fill: #e5354f;
      }

      .cls-34 {
        fill: #ecf5fe;
      }

      .cls-35 {
        clip-path: url(#clippath-1);
      }

      .cls-36 {
        clip-path: url(#clippath-4);
      }

      .cls-37 {
        fill: #078aa5;
      }

      .cls-38 {
        fill: #2c2030;
      }

      .cls-39 {
        fill: #ffbfa2;
      }

      .cls-40 {
        opacity: .4;
      }

      .cls-41 {
        clip-path: url(#clippath-12);
      }

      .cls-42 {
        fill: #1499fc;
      }

      .cls-43 {
        fill: #0f1317;
      }

      .cls-44 {
        fill: #cddcfb;
      }

      .cls-45 {
        fill: #15d9fd;
      }

      .cls-46 {
        clip-path: url(#clippath-9);
      }

      .cls-47 {
        fill: #dde3f4;
      }

      .cls-30, .cls-48 {
        fill: #251b29;
      }

      .cls-49 {
        clip-path: url(#clippath);
      }

      .cls-50 {
        fill: #546282;
      }

      .cls-51 {
        fill: #0d1315;
      }

      .cls-52 {
        fill: #f8b495;
      }

      .cls-53 {
        fill: none;
      }

      .cls-54 {
        clip-path: url(#clippath-19);
      }

      .cls-55 {
        clip-path: url(#clippath-3);
      }

      .cls-56 {
        fill: #ff445f;
      }

      .cls-57 {
        clip-path: url(#clippath-8);
      }

      .cls-58 {
        fill: #1582d6;
      }

      .cls-59 {
        fill: #ffc400;
      }

      .cls-60 {
        fill: #6e4cb3;
      }

      .cls-61 {
        fill: #18b6d6;
      }

      .cls-62 {
        clip-path: url(#clippath-14);
      }

      .cls-63 {
        clip-path: url(#clippath-17);
      }

      .cls-64 {
        fill: #c5243c;
      }

      .cls-65 {
        clip-path: url(#clippath-5);
      }

      .cls-66 {
        fill: #5e3e9e;
      }

      .cls-67 {
        fill: #d12842;
      }

      .cls-68 {
        fill: #d6af75;
      }

      .cls-69 {
        fill: #3f4961;
      }

      .cls-70 {
        clip-path: url(#clippath-10);
      }

      .cls-71 {
        fill: #d4dbef;
      }

      .cls-72 {
        fill: #7f89a6;
      }

      .cls-73 {
        fill: #d4e2fc;
      }

      .cls-74 {
        fill: #fefefe;
      }
    </style>
    <clipPath id="clippath">
      <path class="cls-71" d="m61.03,45.86l1.07-.62c.41-.24.67-.75.67-1.48l-1.07.62c0,.72-.26,1.24-.67,1.48Z"/>
    </clipPath>
    <clipPath id="clippath-1">
      <path class="cls-71" d="m61.76,22.77l1.07-.62c0-1.46-1.02-3.24-2.29-3.97l-1.07.62c1.27.73,2.29,2.51,2.29,3.97Z"/>
    </clipPath>
    <clipPath id="clippath-2">
      <path class="cls-4" d="m4.54,40.08v1.24c0,.48.32.95.94,1.32v-1.24c-.63-.36-.94-.84-.94-1.32Z"/>
    </clipPath>
    <clipPath id="clippath-3">
      <path class="cls-4" d="m60.57,48.3v-1.24c0,.48-.32.97-.96,1.34v1.24c.64-.37.96-.85.96-1.34Z"/>
    </clipPath>
    <clipPath id="clippath-4">
      <path class="cls-4" d="m36.22,59.26v1.24c1.27.73,3.32.73,4.59,0v-1.24c-1.27.73-3.33.73-4.59,0Z"/>
    </clipPath>
    <clipPath id="clippath-5">
      <path class="cls-11" d="m8.24,48.44l.08-.05s.05-.06.05-.11l-.08.05c0,.06-.02.1-.05.11Z"/>
    </clipPath>
    <clipPath id="clippath-6">
      <path class="cls-11" d="m8.29,46.67l.08-.05c0-.11-.08-.25-.18-.31l-.08.05c.1.06.18.19.18.31Z"/>
    </clipPath>
    <clipPath id="clippath-7">
      <path class="cls-4" d="m66.87,57.09v2.28c0-.94-.62-1.87-1.86-2.59-2.46-1.42-6.43-1.42-8.87,0-1.21.7-1.82,1.63-1.82,2.55v-2.28c0-.92.62-1.85,1.83-2.55,2.44-1.42,6.41-1.42,8.87,0,1.24.71,1.85,1.65,1.85,2.59Z"/>
    </clipPath>
    <clipPath id="clippath-8">
      <path class="cls-4" d="m69.14,57.1v2.28c-.01,1.26-.84,2.51-2.49,3.47-3.33,1.93-8.73,1.93-12.08,0-1.68-.97-2.53-2.25-2.52-3.52v-2.28c0,1.27.84,2.55,2.53,3.52,3.35,1.93,8.76,1.93,12.08,0,1.65-.96,2.48-2.22,2.48-3.47Z"/>
    </clipPath>
    <clipPath id="clippath-9">
      <path class="cls-25" d="m47.3,64.22l6.17-3.59c.15-.09.35-.07.57.06l-6.17,3.59c-.22-.13-.43-.14-.57-.06Z"/>
    </clipPath>
    <clipPath id="clippath-10">
      <path class="cls-25" d="m54.62,62.59l-6.17,3.59c.14-.08.23-.26.23-.52,0-.51-.36-1.13-.8-1.39l6.17-3.59c.44.26.8.88.8,1.39,0,.25-.09.43-.23.52Z"/>
    </clipPath>
    <clipPath id="clippath-11">
      <path class="cls-33" d="m41.29,66.62l8.82-5.13c.27-.16.64-.13,1.05.1l-8.82,5.13c-.41-.24-.78-.26-1.05-.1Z"/>
    </clipPath>
    <clipPath id="clippath-12">
      <path class="cls-33" d="m52.21,65.1l-8.82,5.13c.27-.15.43-.48.43-.95,0-.94-.66-2.08-1.47-2.55l8.82-5.13c.82.47,1.48,1.61,1.47,2.55,0,.47-.17.79-.43.95Z"/>
    </clipPath>
    <clipPath id="clippath-14">
      <path class="cls-48" d="m73.27,54.85l.23.13s-.04,0-.06,0l-.23-.13s.05-.02.06,0Z"/>
    </clipPath>
    <clipPath id="clippath-17">
      <path class="cls-48" d="m70.49,56.8l-.23-.13c0-.05.04-.12.09-.15l.23.13s-.09.09-.09.15Z"/>
    </clipPath>
    <clipPath id="clippath-19">
      <path class="cls-64" d="m19.72,7.3l2.59-1.01c2.66-1.03,6-.3,9.39,2.44l-2.59,1.01c-3.38-2.74-6.73-3.47-9.39-2.44Z"/>
    </clipPath>
    <clipPath id="clippath-20">
      <path class="cls-64" d="m36.14,41.95l-2.59,1.01c2.63-1.02,4.59-3.75,5.27-7.98,1.37-8.5-2.98-19.8-9.7-25.24l2.59-1.01c6.72,5.44,11.07,16.74,9.7,25.24-.68,4.22-2.64,6.96-5.27,7.98Z"/>
    </clipPath>
    <clipPath id="clippath-21">
      <path class="cls-53" d="m51.27,33.89l.51.3s-.09-.02-.14.01l-.51-.3c.05-.03.1-.03.14-.01Z"/>
    </clipPath>
  </defs>
  <g class="cls-22">
    <g id="Layer_2" data-name="Layer 2">
      <g id="Layer_1-2" data-name="Layer 1">
        <g>
          <g>
            <g class="cls-2">
              <polygon class="cls-4" points="80.1 47.7 74.33 51.07 70.29 48.74 70.29 47.94 76.06 45.37 80.1 47.7"/>
            </g>
            <g class="cls-2">
              <polygon class="cls-4" points="75.36 44.95 69.59 48.33 65.55 45.99 65.55 45.2 71.32 42.62 75.36 44.95"/>
            </g>
            <g class="cls-2">
              <polygon class="cls-4" points="70.64 42.26 64.87 45.63 60.83 43.3 60.83 42.5 66.6 39.93 70.64 42.26"/>
            </g>
            <g class="cls-22">
              <polygon class="cls-64" points="68.34 31.74 68.28 42.48 64.57 44.64 64.62 33.9 68.34 31.74"/>
              <polygon class="cls-33" points="64.62 33.9 64.57 44.64 60.83 42.48 60.88 31.74 64.62 33.9"/>
              <polygon class="cls-21" points="68.34 31.74 64.62 33.9 60.88 31.74 64.6 29.58 68.34 31.74"/>
            </g>
            <g class="cls-22">
              <polygon class="cls-37" points="73.08 29.65 73.02 45.22 69.3 47.38 69.36 31.81 73.08 29.65"/>
              <polygon class="cls-61" points="69.36 31.81 69.3 47.38 65.56 45.22 65.62 29.65 69.36 31.81"/>
              <polygon class="cls-45" points="73.08 29.65 69.36 31.81 65.62 29.65 69.34 27.49 73.08 29.65"/>
            </g>
            <g class="cls-22">
              <polygon class="cls-28" points="77.81 27.37 77.76 47.95 74.04 50.11 74.1 29.53 77.81 27.37"/>
              <polygon class="cls-59" points="74.1 29.53 74.04 50.11 70.3 47.95 70.36 27.37 74.1 29.53"/>
              <polygon class="cls-20" points="77.81 27.37 74.1 29.53 70.36 27.37 74.07 25.21 77.81 27.37"/>
            </g>
          </g>
          <g id="signature">
            <g>
              <polygon class="cls-4" points="65.28 57.35 37.06 73.83 10.73 52.85 31.94 38.33 65.28 57.35"/>
              <polygon class="cls-47" points="64.92 60.73 43.54 73.08 7.11 56.21 32.1 41.78 64.92 60.73"/>
              <polygon class="cls-17" points="64.92 58.38 39.93 72.81 7.11 53.86 32.1 39.43 64.92 58.38"/>
            </g>
          </g>
          <g>
            <g class="cls-2">
              <path class="cls-4" d="m5.4,40.74c-1.33.77-1.33,2.01-.02,2.77l32.11,18.66c1.32.77,3.46.77,4.79,0l19.65-11.34c1.33-.77,1.33-2.01.02-2.77L29.83,29.39c-1.32-.77-3.46-.77-4.79,0l-19.65,11.34Z"/>
            </g>
            <g>
              <g class="cls-22">
                <g>
                  <path class="cls-71" d="m61.03,45.86l1.07-.62c.41-.24.67-.75.67-1.48l-1.07.62c0,.72-.26,1.24-.67,1.48Z"/>
                  <g class="cls-49">
                    <g class="cls-22">
                      <path class="cls-71" d="m61.03,45.86l1.07-.62c.41-.24.67-.75.67-1.48l-1.07.62c0,.72-.26,1.24-.67,1.48h0Z"/>
                    </g>
                  </g>
                </g>
                <polygon class="cls-71" points="61.7 44.38 62.77 43.76 62.83 22.15 61.76 22.77 61.7 44.38"/>
                <polygon class="cls-71" points="59.47 18.8 60.54 18.18 29.6 .32 28.53 .94 59.47 18.8"/>
                <g>
                  <path class="cls-71" d="m61.76,22.77l1.07-.62c0-1.46-1.02-3.24-2.29-3.97l-1.07.62c1.27.73,2.29,2.51,2.29,3.97Z"/>
                  <g class="cls-35">
                    <g class="cls-22">
                      <path class="cls-71" d="m61.76,22.77l1.07-.62c0-.56-.15-1.17-.4-1.74l-1.07.62c.26.58.41,1.18.4,1.74h0Z"/>
                      <path class="cls-71" d="m61.35,21.03l1.07-.62c-.2-.45-.46-.88-.77-1.25l-1.07.62c.31.38.57.81.77,1.25h0Z"/>
                      <path class="cls-71" d="m60.58,19.77l1.07-.62c-.33-.4-.71-.74-1.11-.97l-1.07.62c.4.23.78.57,1.11.97h0Z"/>
                    </g>
                  </g>
                </g>
                <g>
                  <path class="cls-74" d="m28.53.94c-1.27-.73-2.3-.15-2.31,1.31l-.06,21.61c0,1.46,1.02,3.24,2.29,3.97l30.94,17.86c1.27.73,2.3.14,2.31-1.32l.06-21.61c0-1.46-1.02-3.24-2.29-3.97L28.53.94Z"/>
                  <path class="cls-4" d="m27.42,23.87c0,1,.79,2.37,1.66,2.87l30.94,17.86c.18.1.3.13.36.14.02-.06.05-.17.06-.37v-.2l.06-21.42c0-1-.79-2.37-1.66-2.87L28.18,2.2l-.29-.17c-.18-.1-.3-.13-.36-.14-.02.06-.05.17-.06.37l-.06,21.62Z"/>
                  <path class="cls-45" d="m28.12,23.61c0,1,.79,2.37,1.66,2.87l30.65,17.7.06-21.42c0-1-.79-2.37-1.66-2.87L28.18,2.2l-.06,21.42Z"/>
                  <polygon class="cls-30" points="52.94 16.49 60.48 28.64 60.47 33.24 47.04 13.08 52.94 16.49"/>
                  <polygon class="cls-30" points="60.45 38.96 60.44 44.18 58.78 43.23 32.16 4.49 41.08 9.64 60.45 38.96"/>
                </g>
              </g>
              <path class="cls-71" d="m27.96.16l-1.07.62c.42-.24,1-.21,1.64.16l1.07-.62c-.64-.37-1.22-.4-1.64-.16Z"/>
            </g>
            <g class="cls-22">
              <g>
                <path class="cls-4" d="m4.54,40.08v1.24c0,.48.32.95.94,1.32v-1.24c-.63-.36-.94-.84-.94-1.32Z"/>
                <g class="cls-19">
                  <g class="cls-22">
                    <path class="cls-4" d="m4.54,40.08v1.24c0,.15.03.3.1.44v-1.24c-.06-.15-.1-.29-.1-.44h0Z"/>
                    <path class="cls-4" d="m4.63,40.52v1.24c.14.32.42.62.85.87v-1.24c-.43-.25-.72-.55-.85-.87h0Z"/>
                  </g>
                </g>
              </g>
              <g>
                <path class="cls-4" d="m60.57,48.3v-1.24c0,.48-.32.97-.96,1.34v1.24c.64-.37.96-.85.96-1.34Z"/>
                <g class="cls-55">
                  <g class="cls-22">
                    <path class="cls-4" d="m59.61,48.4v1.24c.64-.37.96-.85.96-1.34v-1.24c0,.48-.32.97-.96,1.34h0Z"/>
                  </g>
                </g>
              </g>
              <polygon class="cls-4" points="5.48 41.39 5.48 42.63 36.22 60.49 36.22 59.26 5.48 41.39"/>
              <polygon class="cls-4" points="40.8 59.26 40.8 60.49 59.61 49.63 59.61 48.4 40.8 59.26"/>
              <g>
                <path class="cls-4" d="m36.22,59.26v1.24c1.27.73,3.32.73,4.59,0v-1.24c-1.27.73-3.33.73-4.59,0Z"/>
                <g class="cls-36">
                  <g class="cls-22">
                    <path class="cls-4" d="m36.22,59.26v1.24c.65.38,1.5.56,2.35.55v-1.24c-.85,0-1.71-.17-2.35-.55h0Z"/>
                    <path class="cls-4" d="m38.56,59.81v1.24c.81,0,1.62-.19,2.24-.55v-1.24c-.62.36-1.43.54-2.24.55h0Z"/>
                  </g>
                </g>
              </g>
              <path class="cls-34" d="m5.49,38.74c-1.27.73-1.28,1.92-.02,2.65l30.74,17.86c1.26.73,3.32.73,4.58,0l18.81-10.86c1.27-.73,1.28-1.92.01-2.66l-30.74-17.86c-1.26-.73-3.31-.73-4.58,0l-18.81,10.86Z"/>
              <path class="cls-4" d="m11.79,37.2c.06.32.3.63.73.88l29.23,16.97c1,.58,2.63.58,3.63,0l12.55-7.24c.39-.23.63-.51.72-.8.14-.46-.1-.95-.71-1.3l-29.23-16.97c-1-.58-2.62-.58-3.63,0l-12.55,7.24c-.58.33-.83.78-.74,1.22Z"/>
              <path class="cls-71" d="m11.79,37.2c.06.32.3.63.73.88l29.23,16.97c1,.58,2.63.58,3.63,0l12.55-7.24c.39-.23.63-.51.72-.8-.06-.32-.31-.64-.73-.88l-29.23-16.97c-1-.58-2.62-.58-3.63,0l-12.55,7.24c-.39.23-.63.51-.72.8Z"/>
            </g>
            <g>
              <g>
                <g class="cls-22">
                  <polygon class="cls-48" points="24.98 30.27 24.98 30.48 26.83 31.56 26.83 31.35 24.98 30.27"/>
                  <polygon class="cls-48" points="26.83 31.35 26.83 31.56 28.7 30.48 28.7 30.27 26.83 31.35"/>
                </g>
                <g class="cls-22">
                  <polygon class="cls-48" points="27.31 31.63 27.31 31.83 29.16 32.91 29.16 32.71 27.31 31.63"/>
                  <polygon class="cls-48" points="29.16 32.71 29.16 32.91 31.03 31.83 31.03 31.63 29.16 32.71"/>
                </g>
                <g class="cls-22">
                  <polygon class="cls-48" points="29.64 32.98 29.64 33.19 31.5 34.27 31.5 34.06 29.64 32.98"/>
                  <polygon class="cls-48" points="31.5 34.06 31.5 34.27 33.36 33.19 33.36 32.98 31.5 34.06"/>
                </g>
                <g class="cls-22">
                  <polygon class="cls-48" points="31.97 34.34 31.97 34.54 33.83 35.62 33.83 35.41 31.97 34.34"/>
                  <polygon class="cls-48" points="33.83 35.41 33.83 35.62 35.69 34.54 35.69 34.34 33.83 35.41"/>
                </g>
                <g class="cls-22">
                  <polygon class="cls-48" points="34.3 35.69 34.3 35.9 36.16 36.98 36.16 36.77 34.3 35.69"/>
                  <polygon class="cls-48" points="36.16 36.77 36.16 36.98 38.03 35.9 38.02 35.69 36.16 36.77"/>
                </g>
                <g class="cls-22">
                  <polygon class="cls-48" points="36.63 37.05 36.63 37.25 38.49 38.33 38.49 38.13 36.63 37.05"/>
                  <polygon class="cls-48" points="38.49 38.13 38.49 38.33 40.36 37.25 40.36 37.05 38.49 38.13"/>
                </g>
                <g class="cls-22">
                  <polygon class="cls-48" points="38.96 38.4 38.96 38.61 40.82 39.69 40.82 39.48 38.96 38.4"/>
                  <polygon class="cls-48" points="40.82 39.48 40.82 39.69 42.69 38.61 42.69 38.4 40.82 39.48"/>
                </g>
                <g class="cls-22">
                  <polygon class="cls-48" points="41.3 39.76 41.3 39.96 43.15 41.04 43.15 40.83 41.3 39.76"/>
                  <polygon class="cls-48" points="43.15 40.83 43.15 41.04 45.02 39.96 45.02 39.76 43.15 40.83"/>
                </g>
                <g class="cls-22">
                  <polygon class="cls-48" points="43.63 41.11 43.63 41.32 45.48 42.4 45.48 42.19 43.63 41.11"/>
                  <polygon class="cls-48" points="45.48 42.19 45.48 42.4 47.35 41.32 47.35 41.11 45.48 42.19"/>
                </g>
                <g class="cls-22">
                  <polygon class="cls-48" points="45.96 42.47 45.96 42.67 47.82 43.75 47.81 43.54 45.96 42.47"/>
                  <polygon class="cls-48" points="47.81 43.54 47.82 43.75 49.68 42.67 49.68 42.47 47.81 43.54"/>
                </g>
                <g class="cls-22">
                  <polygon class="cls-48" points="48.29 43.82 48.29 44.03 50.15 45.1 50.15 44.9 48.29 43.82"/>
                  <polygon class="cls-48" points="50.15 44.9 50.15 45.1 52.01 44.03 52.01 43.82 50.15 44.9"/>
                </g>
                <g class="cls-22">
                  <polygon class="cls-48" points="50.62 45.18 50.62 45.38 52.48 46.46 52.48 46.25 50.62 45.18"/>
                  <polygon class="cls-48" points="52.48 46.25 52.48 46.46 54.34 45.38 54.34 45.18 52.48 46.25"/>
                </g>
                <g class="cls-22">
                  <polygon class="cls-48" points="52.95 46.53 52.95 46.74 54.81 47.81 54.81 47.61 52.95 46.53"/>
                  <polygon class="cls-48" points="54.81 47.61 54.81 47.81 56.68 46.74 56.68 46.53 54.81 47.61"/>
                </g>
                <g class="cls-22">
                  <polygon class="cls-48" points="22.75 31.68 22.75 31.89 26.52 34.08 26.52 33.87 22.75 31.68"/>
                  <polygon class="cls-48" points="26.52 33.87 26.52 34.08 28.39 33 28.39 32.8 26.52 33.87"/>
                </g>
                <g class="cls-22">
                  <polygon class="cls-48" points="26.95 34.12 26.95 34.33 28.8 35.4 28.8 35.2 26.95 34.12"/>
                  <polygon class="cls-48" points="28.8 35.2 28.8 35.4 30.67 34.33 30.67 34.12 28.8 35.2"/>
                </g>
                <g class="cls-22">
                  <polygon class="cls-48" points="29.17 35.41 29.17 35.62 31.03 36.7 31.03 36.49 29.17 35.41"/>
                  <polygon class="cls-48" points="31.03 36.49 31.03 36.7 32.89 35.62 32.89 35.41 31.03 36.49"/>
                </g>
                <g class="cls-22">
                  <polygon class="cls-48" points="31.39 36.7 31.39 36.91 33.25 37.99 33.25 37.78 31.39 36.7"/>
                  <polygon class="cls-48" points="33.25 37.78 33.25 37.99 35.12 36.91 35.12 36.71 33.25 37.78"/>
                </g>
                <g class="cls-22">
                  <polygon class="cls-48" points="33.62 38 33.62 38.2 35.47 39.28 35.47 39.08 33.62 38"/>
                  <polygon class="cls-48" points="35.47 39.08 35.47 39.28 37.34 38.2 37.34 38 35.47 39.08"/>
                </g>
                <g class="cls-22">
                  <polygon class="cls-48" points="35.84 39.29 35.84 39.5 37.7 40.57 37.7 40.37 35.84 39.29"/>
                  <polygon class="cls-48" points="37.7 40.37 37.7 40.57 39.57 39.5 39.57 39.29 37.7 40.37"/>
                </g>
                <g class="cls-22">
                  <polygon class="cls-48" points="38.07 40.58 38.07 40.79 39.92 41.87 39.92 41.66 38.07 40.58"/>
                  <polygon class="cls-48" points="39.92 41.66 39.92 41.87 41.79 40.79 41.79 40.58 39.92 41.66"/>
                </g>
                <g class="cls-22">
                  <polygon class="cls-48" points="40.29 41.87 40.29 42.08 42.15 43.16 42.15 42.95 40.29 41.87"/>
                  <polygon class="cls-48" points="42.15 42.95 42.15 43.16 44.02 42.08 44.01 41.88 42.15 42.95"/>
                </g>
                <g class="cls-22">
                  <polygon class="cls-48" points="42.51 43.17 42.51 43.37 44.37 44.45 44.37 44.25 42.51 43.17"/>
                  <polygon class="cls-48" points="44.37 44.25 44.37 44.45 46.24 43.37 46.24 43.17 44.37 44.25"/>
                </g>
                <g class="cls-22">
                  <polygon class="cls-48" points="44.74 44.46 44.74 44.67 46.6 45.74 46.59 45.54 44.74 44.46"/>
                  <polygon class="cls-48" points="46.59 45.54 46.6 45.74 48.46 44.67 48.46 44.46 46.59 45.54"/>
                </g>
                <g class="cls-22">
                  <polygon class="cls-48" points="46.96 45.75 46.96 45.96 48.82 47.04 48.82 46.83 46.96 45.75"/>
                  <polygon class="cls-48" points="48.82 46.83 48.82 47.04 50.69 45.96 50.69 45.75 48.82 46.83"/>
                </g>
                <g class="cls-22">
                  <polygon class="cls-48" points="49.21 47.06 49.21 47.26 52.49 49.17 52.49 48.96 49.21 47.06"/>
                  <polygon class="cls-48" points="52.49 48.96 52.49 49.17 54.35 48.09 54.35 47.88 52.49 48.96"/>
                </g>
                <g class="cls-22">
                  <polygon class="cls-48" points="20.41 33.03 20.41 33.23 25.12 35.97 25.12 35.76 20.41 33.03"/>
                  <polygon class="cls-48" points="25.12 35.76 25.12 35.97 26.99 34.89 26.99 34.68 25.12 35.76"/>
                </g>
                <g class="cls-22">
                  <polygon class="cls-48" points="25.54 36.01 25.54 36.21 27.4 37.29 27.4 37.09 25.54 36.01"/>
                  <polygon class="cls-48" points="27.4 37.09 27.4 37.29 29.26 36.21 29.26 36.01 27.4 37.09"/>
                </g>
                <g class="cls-22">
                  <polygon class="cls-48" points="27.73 37.28 27.73 37.49 29.59 38.57 29.59 38.36 27.73 37.28"/>
                  <polygon class="cls-48" points="29.59 38.36 29.59 38.57 31.46 37.49 31.46 37.28 29.59 38.36"/>
                </g>
                <g class="cls-22">
                  <polygon class="cls-48" points="29.92 38.56 29.92 38.76 31.78 39.84 31.78 39.63 29.92 38.56"/>
                  <polygon class="cls-48" points="31.78 39.63 31.78 39.84 33.65 38.76 33.65 38.55 31.78 39.63"/>
                </g>
                <g class="cls-22">
                  <polygon class="cls-48" points="32.12 39.83 32.12 40.03 33.97 41.11 33.97 40.91 32.12 39.83"/>
                  <polygon class="cls-48" points="33.97 40.91 33.97 41.11 35.84 40.03 35.84 39.83 33.97 40.91"/>
                </g>
                <g class="cls-22">
                  <polygon class="cls-48" points="34.31 41.1 34.31 41.31 36.16 42.39 36.16 42.18 34.31 41.1"/>
                  <polygon class="cls-48" points="36.16 42.18 36.16 42.39 38.03 41.31 38.03 41.1 36.16 42.18"/>
                </g>
                <g class="cls-22">
                  <polygon class="cls-48" points="36.5 42.38 36.5 42.58 38.35 43.66 38.35 43.45 36.5 42.38"/>
                  <polygon class="cls-48" points="38.35 43.45 38.35 43.66 40.22 42.58 40.22 42.38 38.35 43.45"/>
                </g>
                <g class="cls-22">
                  <polygon class="cls-48" points="38.69 43.65 38.69 43.86 40.55 44.93 40.55 44.73 38.69 43.65"/>
                  <polygon class="cls-48" points="40.55 44.73 40.55 44.93 42.42 43.85 42.41 43.65 40.55 44.73"/>
                </g>
                <g class="cls-22">
                  <polygon class="cls-48" points="40.88 44.92 40.88 45.13 42.74 46.21 42.74 46 40.88 44.92"/>
                  <polygon class="cls-48" points="42.74 46 42.74 46.21 44.61 45.13 44.61 44.92 42.74 46"/>
                </g>
                <g class="cls-22">
                  <polygon class="cls-48" points="43.07 46.2 43.07 46.4 44.93 47.48 44.93 47.28 43.07 46.2"/>
                  <polygon class="cls-48" points="44.93 47.28 44.93 47.48 46.8 46.4 46.8 46.2 44.93 47.28"/>
                </g>
                <g class="cls-22">
                  <polygon class="cls-48" points="45.42 47.56 45.42 47.77 50.15 50.52 50.15 50.31 45.42 47.56"/>
                  <polygon class="cls-48" points="50.15 50.31 50.15 50.52 52.02 49.44 52.02 49.23 50.15 50.31"/>
                </g>
                <g class="cls-22">
                  <polygon class="cls-48" points="20.47 35.72 20.47 35.93 21.53 36.55 21.53 36.34 20.47 35.72"/>
                  <polygon class="cls-48" points="21.53 36.34 21.53 36.55 23.37 35.49 23.37 35.28 21.53 36.34"/>
                  <polygon class="cls-48" points="18.1 37.09 18.1 37.3 20.47 35.93 20.47 35.72 18.1 37.09"/>
                  <polygon class="cls-48" points="15.74 35.72 15.75 35.93 18.1 37.3 18.1 37.09 15.74 35.72"/>
                  <polygon class="cls-48" points="23.78 37.69 23.78 37.89 25.65 36.81 25.65 36.61 23.78 37.69"/>
                  <polygon class="cls-48" points="21.92 36.61 21.92 36.82 23.78 37.89 23.78 37.69 21.92 36.61"/>
                  <polygon class="cls-48" points="20.42 38.44 20.42 38.65 22.29 37.57 22.29 37.36 20.42 38.44"/>
                  <polygon class="cls-48" points="18.56 37.36 18.56 37.57 20.42 38.65 20.42 38.44 18.56 37.36"/>
                </g>
                <g class="cls-22">
                  <polygon class="cls-48" points="13.33 37.12 13.33 37.32 18.04 40.06 18.03 39.85 13.33 37.12"/>
                  <polygon class="cls-48" points="18.03 39.85 18.04 40.06 19.9 38.98 19.9 38.77 18.03 39.85"/>
                </g>
                <g class="cls-22">
                  <polygon class="cls-48" points="24.14 37.9 24.14 38.1 25.99 39.18 25.99 38.97 24.14 37.9"/>
                  <polygon class="cls-48" points="25.99 38.97 25.99 39.18 27.86 38.1 27.86 37.89 25.99 38.97"/>
                </g>
                <g class="cls-22">
                  <polygon class="cls-48" points="26.35 39.18 26.35 39.39 28.21 40.47 28.21 40.26 26.35 39.18"/>
                  <polygon class="cls-48" points="28.21 40.26 28.21 40.47 30.07 39.39 30.07 39.18 28.21 40.26"/>
                </g>
                <g class="cls-22">
                  <polygon class="cls-48" points="28.56 40.47 28.56 40.67 30.42 41.75 30.42 41.55 28.56 40.47"/>
                  <polygon class="cls-48" points="30.42 41.55 30.42 41.75 32.29 40.67 32.29 40.47 30.42 41.55"/>
                </g>
                <g class="cls-22">
                  <polygon class="cls-48" points="30.77 41.75 30.77 41.96 32.63 43.04 32.63 42.83 30.77 41.75"/>
                  <polygon class="cls-48" points="32.63 42.83 32.63 43.04 34.5 41.96 34.5 41.75 32.63 42.83"/>
                </g>
                <g class="cls-22">
                  <polygon class="cls-48" points="32.99 43.04 32.99 43.24 34.84 44.32 34.84 44.12 32.99 43.04"/>
                  <polygon class="cls-48" points="34.84 44.12 34.84 44.32 36.71 43.24 36.71 43.04 34.84 44.12"/>
                </g>
                <g class="cls-22">
                  <polygon class="cls-48" points="35.2 44.32 35.2 44.53 37.06 45.61 37.06 45.4 35.2 44.32"/>
                  <polygon class="cls-48" points="37.06 45.4 37.06 45.61 38.93 44.53 38.92 44.32 37.06 45.4"/>
                </g>
                <g class="cls-22">
                  <polygon class="cls-48" points="37.41 45.61 37.41 45.82 39.27 46.89 39.27 46.69 37.41 45.61"/>
                  <polygon class="cls-48" points="39.27 46.69 39.27 46.89 41.14 45.82 41.14 45.61 39.27 46.69"/>
                </g>
                <g class="cls-22">
                  <polygon class="cls-48" points="39.63 46.9 39.63 47.1 41.48 48.18 41.48 47.98 39.63 46.9"/>
                  <polygon class="cls-48" points="41.48 47.98 41.48 48.18 43.35 47.1 43.35 46.9 41.48 47.98"/>
                </g>
                <g class="cls-22">
                  <polygon class="cls-48" points="41.84 48.18 41.84 48.39 43.7 49.47 43.69 49.26 41.84 48.18"/>
                  <polygon class="cls-48" points="43.69 49.26 43.7 49.47 45.56 48.39 45.56 48.18 43.69 49.26"/>
                </g>
                <g class="cls-22">
                  <polygon class="cls-48" points="44.15 49.53 44.15 49.73 47.82 51.86 47.82 51.66 44.15 49.53"/>
                  <polygon class="cls-48" points="47.82 51.66 47.82 51.86 49.69 50.78 49.69 50.58 47.82 51.66"/>
                </g>
                <g class="cls-22">
                  <polygon class="cls-48" points="20.78 38.65 20.78 38.85 22.63 39.93 22.63 39.73 20.78 38.65"/>
                  <polygon class="cls-48" points="22.63 39.73 22.63 39.93 24.5 38.85 24.5 38.65 22.63 39.73"/>
                </g>
                <g class="cls-22">
                  <polygon class="cls-48" points="22.99 39.93 22.99 40.14 24.85 41.22 24.85 41.01 22.99 39.93"/>
                  <polygon class="cls-48" points="24.85 41.01 24.85 41.22 26.72 40.14 26.72 39.93 24.85 41.01"/>
                </g>
                <g class="cls-22">
                  <polygon class="cls-48" points="25.2 41.22 25.2 41.42 27.06 42.5 27.06 42.3 25.2 41.22"/>
                  <polygon class="cls-48" points="27.06 42.3 27.06 42.5 28.93 41.42 28.93 41.22 27.06 42.3"/>
                </g>
                <g class="cls-22">
                  <polygon class="cls-48" points="27.42 42.5 27.42 42.71 29.27 43.79 29.27 43.58 27.42 42.5"/>
                  <polygon class="cls-48" points="29.27 43.58 29.27 43.79 31.14 42.71 31.14 42.5 29.27 43.58"/>
                </g>
                <g class="cls-22">
                  <polygon class="cls-48" points="29.63 43.79 29.63 44 31.49 45.08 31.49 44.87 29.63 43.79"/>
                  <polygon class="cls-48" points="31.49 44.87 31.49 45.08 33.36 44 33.35 43.79 31.49 44.87"/>
                </g>
                <g class="cls-22">
                  <polygon class="cls-48" points="31.84 45.08 31.84 45.28 33.7 46.36 33.7 46.16 31.84 45.08"/>
                  <polygon class="cls-48" points="33.7 46.16 33.7 46.36 35.57 45.28 35.57 45.08 33.7 46.16"/>
                </g>
                <g class="cls-22">
                  <polygon class="cls-48" points="34.05 46.36 34.05 46.57 35.91 47.65 35.91 47.44 34.05 46.36"/>
                  <polygon class="cls-48" points="35.91 47.44 35.91 47.65 37.78 46.57 37.78 46.36 35.91 47.44"/>
                </g>
                <g class="cls-22">
                  <polygon class="cls-48" points="36.27 47.65 36.27 47.85 38.12 48.93 38.12 48.73 36.27 47.65"/>
                  <polygon class="cls-48" points="38.12 48.73 38.12 48.93 39.99 47.85 39.99 47.65 38.12 48.73"/>
                </g>
                <g class="cls-22">
                  <polygon class="cls-48" points="38.48 48.93 38.48 49.14 40.34 50.22 40.34 50.01 38.48 48.93"/>
                  <polygon class="cls-48" points="40.34 50.01 40.34 50.22 42.21 49.14 42.21 48.93 40.34 50.01"/>
                </g>
                <g class="cls-22">
                  <polygon class="cls-48" points="40.75 50.25 40.75 50.46 45.48 53.21 45.48 53 40.75 50.25"/>
                  <polygon class="cls-48" points="45.48 53 45.48 53.21 47.35 52.13 47.35 51.93 45.48 53"/>
                </g>
                <g class="cls-22">
                  <polygon class="cls-48" points="18.46 40.1 18.46 40.3 20.31 41.38 20.31 41.18 18.46 40.1"/>
                  <polygon class="cls-48" points="20.31 41.18 20.31 41.38 22.18 40.3 22.18 40.1 20.31 41.18"/>
                </g>
                <g class="cls-22">
                  <polygon class="cls-48" points="20.65 41.37 20.65 41.58 22.51 42.66 22.51 42.45 20.65 41.37"/>
                  <polygon class="cls-48" points="22.51 42.45 22.51 42.66 24.38 41.58 24.38 41.37 22.51 42.45"/>
                </g>
                <g class="cls-22">
                  <polygon class="cls-48" points="22.85 42.65 22.85 42.86 24.71 43.93 24.71 43.73 22.85 42.65"/>
                  <polygon class="cls-48" points="24.71 43.73 24.71 43.93 26.58 42.85 26.57 42.65 24.71 43.73"/>
                </g>
                <g class="cls-22">
                  <polygon class="cls-48" points="25.05 43.93 25.05 44.13 26.9 45.21 26.9 45 25.05 43.93"/>
                  <polygon class="cls-48" points="26.9 45 26.9 45.21 28.77 44.13 28.77 43.93 26.9 45"/>
                </g>
                <g class="cls-22">
                  <polygon class="cls-48" points="27.23 45.2 27.23 45.4 35.66 50.3 35.66 50.09 27.23 45.2"/>
                  <polygon class="cls-48" points="35.66 50.09 35.66 50.3 37.53 49.22 37.53 49.01 35.66 50.09"/>
                </g>
                <g class="cls-22">
                  <polygon class="cls-48" points="36.1 50.35 36.1 50.55 37.95 51.63 37.95 51.43 36.1 50.35"/>
                  <polygon class="cls-48" points="37.95 51.43 37.95 51.63 39.82 50.55 39.82 50.35 37.95 51.43"/>
                </g>
                <g class="cls-22">
                  <polygon class="cls-48" points="38.34 51.65 38.34 51.86 43.07 54.6 43.07 54.4 38.34 51.65"/>
                  <polygon class="cls-48" points="43.07 54.4 43.07 54.6 44.94 53.53 44.94 53.32 43.07 54.4"/>
                </g>
              </g>
              <polygon class="cls-25" points="24.98 30.27 26.83 31.35 28.7 30.27 26.84 29.19 24.98 30.27"/>
              <polygon class="cls-25" points="27.31 31.63 29.16 32.71 31.03 31.63 29.17 30.55 27.31 31.63"/>
              <polygon class="cls-25" points="29.64 32.98 31.5 34.06 33.36 32.98 31.51 31.9 29.64 32.98"/>
              <polygon class="cls-25" points="31.97 34.34 33.83 35.41 35.69 34.34 33.84 33.26 31.97 34.34"/>
              <polygon class="cls-25" points="34.3 35.69 36.16 36.77 38.02 35.69 36.17 34.61 34.3 35.69"/>
              <polygon class="cls-25" points="36.63 37.05 38.49 38.13 40.36 37.05 38.5 35.97 36.63 37.05"/>
              <polygon class="cls-25" points="38.96 38.4 40.82 39.48 42.69 38.4 40.83 37.32 38.96 38.4"/>
              <polygon class="cls-25" points="41.3 39.76 43.15 40.83 45.02 39.76 43.16 38.68 41.3 39.76"/>
              <polygon class="cls-25" points="43.63 41.11 45.48 42.19 47.35 41.11 45.49 40.03 43.63 41.11"/>
              <polygon class="cls-25" points="45.96 42.47 47.81 43.54 49.68 42.47 47.83 41.39 45.96 42.47"/>
              <polygon class="cls-25" points="48.29 43.82 50.15 44.9 52.01 43.82 50.16 42.74 48.29 43.82"/>
              <polygon class="cls-25" points="50.62 45.18 52.48 46.25 54.34 45.18 52.49 44.1 50.62 45.18"/>
              <polygon class="cls-25" points="52.95 46.53 54.81 47.61 56.68 46.53 54.82 45.45 52.95 46.53"/>
              <polygon class="cls-25" points="22.75 31.68 26.52 33.87 28.39 32.8 24.61 30.6 22.75 31.68"/>
              <polygon class="cls-25" points="26.95 34.12 28.8 35.2 30.67 34.12 28.81 33.04 26.95 34.12"/>
              <polygon class="cls-25" points="29.17 35.41 31.03 36.49 32.89 35.41 31.04 34.33 29.17 35.41"/>
              <polygon class="cls-25" points="31.39 36.7 33.25 37.78 35.12 36.71 33.26 35.63 31.39 36.7"/>
              <polygon class="cls-25" points="33.62 38 35.47 39.08 37.34 38 35.49 36.92 33.62 38"/>
              <polygon class="cls-25" points="35.84 39.29 37.7 40.37 39.57 39.29 37.71 38.21 35.84 39.29"/>
              <polygon class="cls-25" points="38.07 40.58 39.92 41.66 41.79 40.58 39.93 39.5 38.07 40.58"/>
              <polygon class="cls-25" points="40.29 41.87 42.15 42.95 44.01 41.88 42.16 40.8 40.29 41.87"/>
              <polygon class="cls-25" points="42.51 43.17 44.37 44.25 46.24 43.17 44.38 42.09 42.51 43.17"/>
              <polygon class="cls-25" points="44.74 44.46 46.59 45.54 48.46 44.46 46.61 43.38 44.74 44.46"/>
              <polygon class="cls-25" points="46.96 45.75 48.82 46.83 50.69 45.75 48.83 44.67 46.96 45.75"/>
              <polygon class="cls-25" points="49.21 47.06 52.49 48.96 54.35 47.88 51.08 45.98 49.21 47.06"/>
              <polygon class="cls-25" points="20.41 33.03 25.12 35.76 26.99 34.68 22.28 31.95 20.41 33.03"/>
              <polygon class="cls-25" points="25.54 36.01 27.4 37.09 29.26 36.01 27.41 34.93 25.54 36.01"/>
              <polygon class="cls-25" points="27.73 37.28 29.59 38.36 31.46 37.28 29.6 36.2 27.73 37.28"/>
              <polygon class="cls-25" points="29.92 38.56 31.78 39.63 33.65 38.55 31.79 37.48 29.92 38.56"/>
              <polygon class="cls-25" points="32.12 39.83 33.97 40.91 35.84 39.83 33.98 38.75 32.12 39.83"/>
              <polygon class="cls-25" points="34.31 41.1 36.16 42.18 38.03 41.1 36.18 40.02 34.31 41.1"/>
              <polygon class="cls-25" points="36.5 42.38 38.35 43.45 40.22 42.38 38.37 41.3 36.5 42.38"/>
              <polygon class="cls-25" points="38.69 43.65 40.55 44.73 42.41 43.65 40.56 42.57 38.69 43.65"/>
              <polygon class="cls-25" points="40.88 44.92 42.74 46 44.61 44.92 42.75 43.84 40.88 44.92"/>
              <polygon class="cls-25" points="43.07 46.2 44.93 47.28 46.8 46.2 44.94 45.12 43.07 46.2"/>
              <polygon class="cls-25" points="45.42 47.56 50.15 50.31 52.02 49.23 47.29 46.48 45.42 47.56"/>
              <polygon class="cls-25" points="15.74 35.72 18.1 37.09 20.47 35.72 21.53 36.34 23.37 35.28 19.95 33.3 15.74 35.72"/>
              <polygon class="cls-25" points="21.92 36.61 23.78 37.69 25.65 36.61 23.79 35.53 21.92 36.61"/>
              <polygon class="cls-25" points="18.56 37.36 20.42 38.44 22.29 37.36 20.43 36.28 18.56 37.36"/>
              <polygon class="cls-25" points="13.33 37.12 18.03 39.85 19.9 38.77 15.2 36.04 13.33 37.12"/>
              <polygon class="cls-25" points="24.14 37.9 25.99 38.97 27.86 37.89 26 36.82 24.14 37.9"/>
              <polygon class="cls-25" points="26.35 39.18 28.21 40.26 30.07 39.18 28.22 38.1 26.35 39.18"/>
              <polygon class="cls-25" points="28.56 40.47 30.42 41.55 32.29 40.47 30.43 39.39 28.56 40.47"/>
              <polygon class="cls-25" points="30.77 41.75 32.63 42.83 34.5 41.75 32.64 40.67 30.77 41.75"/>
              <polygon class="cls-25" points="32.99 43.04 34.84 44.12 36.71 43.04 34.86 41.96 32.99 43.04"/>
              <polygon class="cls-25" points="35.2 44.32 37.06 45.4 38.92 44.32 37.07 43.25 35.2 44.32"/>
              <polygon class="cls-25" points="37.41 45.61 39.27 46.69 41.14 45.61 39.28 44.53 37.41 45.61"/>
              <polygon class="cls-25" points="39.63 46.9 41.48 47.98 43.35 46.9 41.49 45.82 39.63 46.9"/>
              <polygon class="cls-25" points="41.84 48.18 43.69 49.26 45.56 48.18 43.71 47.1 41.84 48.18"/>
              <polygon class="cls-25" points="44.15 49.53 47.82 51.66 49.69 50.58 46.02 48.45 44.15 49.53"/>
              <polygon class="cls-25" points="20.78 38.65 22.63 39.73 24.5 38.65 22.65 37.57 20.78 38.65"/>
              <polygon class="cls-25" points="22.99 39.93 24.85 41.01 26.72 39.93 24.86 38.85 22.99 39.93"/>
              <polygon class="cls-25" points="25.2 41.22 27.06 42.3 28.93 41.22 27.07 40.14 25.2 41.22"/>
              <polygon class="cls-25" points="27.42 42.5 29.27 43.58 31.14 42.5 29.29 41.43 27.42 42.5"/>
              <polygon class="cls-25" points="29.63 43.79 31.49 44.87 33.35 43.79 31.5 42.71 29.63 43.79"/>
              <polygon class="cls-25" points="31.84 45.08 33.7 46.16 35.57 45.08 33.71 44 31.84 45.08"/>
              <polygon class="cls-25" points="34.05 46.36 35.91 47.44 37.78 46.36 35.92 45.28 34.05 46.36"/>
              <polygon class="cls-25" points="36.27 47.65 38.12 48.73 39.99 47.65 38.14 46.57 36.27 47.65"/>
              <polygon class="cls-25" points="38.48 48.93 40.34 50.01 42.21 48.93 40.35 47.86 38.48 48.93"/>
              <polygon class="cls-25" points="40.75 50.25 45.48 53 47.35 51.93 42.62 49.18 40.75 50.25"/>
              <polygon class="cls-25" points="18.46 40.1 20.31 41.18 22.18 40.1 20.33 39.02 18.46 40.1"/>
              <polygon class="cls-25" points="20.65 41.37 22.51 42.45 24.38 41.37 22.52 40.29 20.65 41.37"/>
              <polygon class="cls-25" points="22.85 42.65 24.71 43.73 26.57 42.65 24.72 41.57 22.85 42.65"/>
              <polygon class="cls-25" points="25.05 43.93 26.9 45 28.77 43.93 26.91 42.85 25.05 43.93"/>
              <polygon class="cls-25" points="27.23 45.2 35.66 50.09 37.53 49.01 29.1 44.12 27.23 45.2"/>
              <polygon class="cls-25" points="36.1 50.35 37.95 51.43 39.82 50.35 37.97 49.27 36.1 50.35"/>
              <polygon class="cls-25" points="38.34 51.65 43.07 54.4 44.94 53.32 40.21 50.57 38.34 51.65"/>
            </g>
            <path class="cls-4" d="m18.66,48.08c.04.07.11.13.21.19l7.3,4.21c.36.21.95.21,1.31,0l3.4-1.96c.09-.05.16-.12.21-.18.13-.19.06-.42-.21-.57l-7.3-4.21c-.36-.21-.95-.21-1.31,0l-3.41,1.97c-.27.15-.34.38-.21.57Z"/>
            <path class="cls-71" d="m18.66,48.08c.04.07.11.13.21.19l7.3,4.21c.36.21.95.21,1.31,0l3.4-1.96c.09-.05.16-.12.21-.18-.04-.07-.11-.13-.21-.19l-7.3-4.21c-.36-.21-.95-.21-1.31,0l-3.41,1.97c-.09.05-.16.12-.21.18Z"/>
          </g>
          <g>
            <g class="cls-40">
              <path class="cls-12" d="m59.94,41.52l-.03-.02-32-18.47V7.6s.03.02.03.02l32,18.47v15.43Zm-31.99-18.51l31.94,18.44v-15.34S27.95,7.67,27.95,7.67v15.34Z"/>
              <rect class="cls-12" x="43.9" y=".97" width=".04" height="36.93" transform="translate(5.13 47.76) rotate(-60)"/>
              <rect class="cls-12" x="43.9" y="3.53" width=".04" height="36.93" transform="translate(2.91 49.04) rotate(-60)"/>
              <rect class="cls-12" x="43.9" y="6.09" width=".04" height="36.93" transform="translate(.69 50.32) rotate(-60)"/>
              <rect class="cls-12" x="43.9" y="8.66" width=".04" height="36.93" transform="translate(-1.53 51.6) rotate(-60)"/>
              <rect class="cls-12" x="43.9" y="11.22" width=".04" height="36.93" transform="translate(-3.75 52.88) rotate(-60)"/>
              <rect class="cls-12" x="56.7" y="24.25" width=".04" height="15.39"/>
              <rect class="cls-12" x="53.5" y="22.41" width=".04" height="15.39"/>
              <rect class="cls-12" x="50.3" y="20.56" width=".04" height="15.39"/>
              <rect class="cls-12" x="47.1" y="18.71" width=".04" height="15.39"/>
              <rect class="cls-12" x="43.9" y="16.87" width=".04" height="15.39"/>
              <rect class="cls-12" x="40.7" y="15.02" width=".04" height="15.39"/>
              <rect class="cls-12" x="37.51" y="13.17" width=".04" height="15.39"/>
              <rect class="cls-12" x="34.31" y="11.33" width=".04" height="15.39"/>
              <rect class="cls-12" x="31.11" y="9.48" width=".04" height="15.39"/>
            </g>
            <polygon class="cls-18" points="31.13 24.87 27.93 23.02 27.93 15.93 31.13 17.78 31.13 24.87"/>
            <polygon class="cls-18" points="35.93 27.64 32.73 25.79 32.73 23.59 35.93 25.43 35.93 27.64"/>
            <polygon class="cls-27" points="54.81 38.54 51.41 36.58 51.41 24.34 54.81 26.31 54.81 38.54"/>
            <polygon class="cls-27" points="44.6 32.65 41.2 30.68 41.2 25.12 44.6 27.08 44.6 32.65"/>
            <polygon class="cls-27" points="59.92 41.49 56.51 39.52 56.51 34.89 59.92 36.86 59.92 41.49"/>
            <polygon class="cls-27" points="39.5 29.7 36.1 27.74 36.1 13.28 39.5 15.24 39.5 29.7"/>
            <polygon class="cls-27" points="49.71 35.59 46.3 33.63 46.3 24.37 49.71 26.33 49.71 35.59"/>
          </g>
          <g id="man">
            <path class="cls-3" d="m7.18,58.26c1.64.95,1.64,2.49,0,3.44-1.64.95-4.31.95-5.95,0-1.64-.95-1.64-2.49,0-3.44,1.64-.95,4.31-.95,5.95,0Z"/>
            <path class="cls-39" d="m8.53,46.83s-.09-.1-.14-.07c-.05.03-.04.11-.05.16,0,.07,0,.13.03.2.03.06.06.13.06.2,0,.02,0,.04-.01.06.13.1.25.21.36.32.02-.04.03-.09.04-.13.02-.27-.14-.53-.29-.74Z"/>
            <path class="cls-24" d="m5.19,46.92s0,0-.01,0c-.02-.08,0-.16.01-.24.03-.2-.05-.41-.01-.62,0-.06.03-.12.07-.17.03-.04.08-.07.13-.1.02,0,.23-.14.22-.14.14.26.17.58.06.86l-.47.41Z"/>
            <path class="cls-12" d="m4.77,46.83c-.48.09-.95.22-1.41.37-.21.07-.42.13-.58.3-.16.17-.16.43-.09.65.04.12.1.24.23.27.12.03.32-.03.43-.06.3-.09.6-.21.89-.35.1-.05.19-.1.29-.16.14-.08.29-.16.43-.24-.15-.23-.22-.5-.18-.77Z"/>
            <g>
              <g class="cls-22">
                <g class="cls-22">
                  <path class="cls-11" d="m8.24,48.44l.08-.05s.05-.06.05-.11l-.08.05c0,.06-.02.1-.05.11Z"/>
                  <g class="cls-65">
                    <g class="cls-22">
                      <path class="cls-11" d="m8.24,48.44l.08-.05s.05-.06.05-.11l-.08.05c0,.06-.02.1-.05.11h0Z"/>
                    </g>
                  </g>
                </g>
                <polygon class="cls-11" points="8.29 48.33 8.37 48.28 8.37 46.62 8.29 46.67 8.29 48.33"/>
                <polygon class="cls-11" points="8.12 46.36 8.2 46.31 5.82 44.94 5.74 44.99 8.12 46.36"/>
                <g class="cls-22">
                  <path class="cls-11" d="m8.29,46.67l.08-.05c0-.11-.08-.25-.18-.31l-.08.05c.1.06.18.19.18.31Z"/>
                  <g class="cls-26">
                    <g class="cls-22">
                      <path class="cls-11" d="m8.29,46.67l.08-.05s-.01-.09-.03-.13l-.08.05s.03.09.03.13h0Z"/>
                      <path class="cls-11" d="m8.26,46.53l.08-.05s-.04-.07-.06-.1l-.08.05s.04.06.06.1h0Z"/>
                      <path class="cls-11" d="m8.2,46.44l.08-.05s-.05-.06-.09-.07l-.08.05s.06.04.09.07h0Z"/>
                    </g>
                  </g>
                </g>
                <g>
                  <path class="cls-44" d="m5.74,44.99c-.1-.06-.18-.01-.18.1v1.66c0,.11.07.25.17.31l2.38,1.37c.1.06.18.01.18-.1v-1.66c0-.11-.07-.25-.17-.31l-2.38-1.37Z"/>
                  <path class="cls-4" d="m5.65,46.75c0,.08.06.18.13.22l2.38,1.37s.02.01.03.01c0,0,0-.01,0-.03v-1.66c0-.08-.06-.18-.12-.22l-2.36-1.36h-.02s-.02-.02-.03-.02c0,0,0,.01,0,.03v1.66Z"/>
                  <path class="cls-45" d="m5.71,46.73c0,.08.06.18.13.22l2.36,1.36v-1.65c0-.08-.06-.18-.12-.22l-2.36-1.36v1.65Z"/>
                </g>
              </g>
              <path class="cls-11" d="m5.69,44.93l-.08.05s.08-.02.13.01l.08-.05s-.09-.03-.13-.01Z"/>
              <polygon class="cls-12" points="7.55 47.61 6.11 46.78 6.11 46.27 7.55 47.11 7.55 47.61"/>
              <polygon class="cls-29" points="7.61 46.18 8.19 47.12 8.19 47.47 7.16 45.92 7.61 46.18"/>
              <polygon class="cls-29" points="8.19 47.91 8.19 48.31 8.06 48.24 6.02 45.26 6.7 45.66 8.19 47.91"/>
            </g>
            <path class="cls-39" d="m8.41,47.38s-.03.03-.04.04c-.06.03-.17.08-.2-.02,0-.03,0-.06,0-.09.01-.06.02-.13.03-.19,0-.03,0-.08-.03-.09-.02,0-.05.01-.06.03-.05.05-.08.11-.11.17-.01.02-.02.05-.03.07-.09.2-.18.38-.23.59-.03.12-.05.23-.04.35,0,.1.02.19.05.29.02.06.05.15.11.19.07.04.14-.02.19-.07.07-.08.1-.18.15-.27.03-.04.04-.08.06-.12.03-.05.08-.08.13-.11.1-.07.19-.16.26-.26.04-.06.09-.13.13-.21-.12-.12-.23-.23-.36-.32,0,0,0,0,0,.01Z"/>
            <g id="man-2" data-name="man">
              <g>
                <path class="cls-4" d="m2.99,59.87s.04-.07.13-.08c.1,0,.19-.01.29-.02.13,0,.26-.02.4-.03,0-.11,0-.22-.02-.32.14.03.22-.01.35-.06.16-.06.32-.11.48-.16.07-.02.14-.04.21-.02.18.04.28.33.25.48-.02.11-.09.2-.18.27-.13.1-.31.19-.48.21-.18.03-.34.08-.48.19-.18.14-.31.29-.55.31-.24.02-.44-.13-.45-.38,0-.09.01-.18.03-.27,0-.06.01-.1.02-.13Z"/>
                <path class="cls-71" d="m3.73,60.17s0-.04,0-.06c-.01-.2.06-.36.14-.55.03-.07.06-.14.11-.19.13-.1.34-.01.42.13.04.07.06.14.09.21.07.13.2.29.36.3.21,0,.45-.06.67-.08.08,0,.17,0,.25.02.18.07.24.37.17.54-.04.1-.13.18-.23.22-.15.07-.35.11-.51.1-.18-.01-.35,0-.51.08-.28.13-.6.32-.88.06-.08-.07-.11-.17-.12-.27-.02-.18.05-.35.05-.53Z"/>
              </g>
            </g>
            <path class="cls-60" d="m3.81,56.08l.1-.42c-.04.14-.07.28-.1.42Z"/>
            <path class="cls-60" d="m2.18,52.73c-.03.32-.05.64-.02.96.03.34.09.64.21,1.23.12.57.14.66.16.96-.03-.02-.2,2,.35,3.84.03.11.08.24.18.3.05.03.12.04.18.05.06,0,.12.01.18,0,.06,0,.13-.03.18-.09.05-.06.08-.13.1-.21.04-.13.04-.26.04-.4,0-.63-.04-1.25-.04-1.88,0-.36.01-.73.06-1.09.12-.41.21-.84.26-1.27.06-.4.03-.82.12-1.22.07-.3.12-.78.12-1.22h-2.09Z"/>
            <path class="cls-66" d="m3.79,51.81c0,.07-.51.32-.65.18-.03-.03-.08-.11-.14-.19-.53.56-.67,1.51-.38,2.12.22.45.53,1.52.64,2.74.12,1.35.02,2.86.05,3.42.04,0,.07,0,.11,0,.06,0,.13-.03.18-.09.05-.06.08-.13.1-.21.04-.13.04-.26.04-.4,0-.63-.04-1.25-.04-1.88,0-.36.01-.73.06-1.09.12-.41.21-.84.26-1.27.06-.4.03-.82.12-1.22.17-.74.24-2.6-.36-2.14Z"/>
            <path class="cls-23" d="m4.07,52.12c.06-.03.35-.18.35-.26,0-.05.14-.1.18-.1.07,0,.14.04.19.08.13.1.23.24.3.4.08.22.1.46.12.69.04.7.02,1.4-.05,2.1-.04.35-.09.7-.16,1.05-.03.17-.07.35-.11.52-.04.17-.07.22-.21.3-.3.19-.83.16-1.05-.17-.23-.36-.13-.93-.21-1.34-.11-.59-.5-1.03-.68-1.59-.13-.41-.12-.8-.05-1.23.03-.2.09-.68.3-.79.05-.03.42-.11.71.18.17.17.15.25.37.14Z"/>
            <path class="cls-34" d="m2.04,50.49c-.01-.1-.03-.21-.05-.31-.09-.5-.24-.98-.3-1.48-.05-.39-.08-.88.23-1.18.05-.05.11-.09.17-.12.6-.34,1.18.07,1.74.28.37.13.72.31,1.06.52.12.07.23.12.31.24.08.12.13.25.13.4,0,.17-.02.33-.05.5-.16.96-.23,1.94-.12,2.91.05.42.1,1.55.1,1.55-.14.06-.23.12-.9.13-1.39.02-2.15-.32-2.23-.4-.08-.07-.05-.24-.05-.34,0-.3,0-.6,0-.9.01-.59.03-1.19-.04-1.78Z"/>
            <path class="cls-73" d="m5.33,48.82c0-.15-.05-.28-.13-.4-.08-.11-.2-.17-.31-.24-.07-.04-.14-.09-.21-.13-.44.37-1.04.81-.73,1.35.8,1.43.99,2.94,1.03,4.47.16-.02.22-.06.29-.09,0,0-.05-1.14-.1-1.55-.12-.97-.04-1.95.12-2.91.03-.16.06-.33.05-.5Z"/>
            <path class="cls-44" d="m4.12,47.78c-.1-.04-.21-.09-.29-.12-.39-.14-.79-.38-1.19-.4-.2.3-.04.63.25.79.36.18.84.16,1.19-.08.07-.05.12-.13.05-.19Z"/>
            <path class="cls-23" d="m4.87,56.9c-.03.3-.05.61-.07.91-.02.24-.03.48-.04.72,0,.19-.02.37-.02.56-.04,1.02.07,1.24-.41,1.38-.11.03-.22.04-.33.01-.31-.08-.37-.35-.4-.69-.02-.19-.03-.42-.04-.61,0-.16,0-.33-.01-.49,0-.22,0-.44,0-.66,0-.29,0-.58,0-.87,0-.37-.03-.75-.04-1.13,0-.05.03-.11.08-.14.06-.04,1.18.37,1.29.5,0,0,.05.14.01.52Z"/>
            <path class="cls-12" d="m5.09,48.3c-.2-.14-.44-.25-.67-.14-.09.04-.17.12-.23.2-.16.21-.28.46-.26.73,0,.05.01.1.03.15.07.18.24.23.4.31.19.09.37.2.55.3.36.21.73.43,1.12.59.23.09.49.17.72.07.15-.07.27-.21.3-.38.08-.4-.22-.49-.26-.52-1.28-.96-1.73-1.34-1.7-1.32Z"/>
            <path class="cls-12" d="m8.07,48.04c.07.04.2.14.21.24,0,.08-.09.2-.13.27-.11.22-.23.43-.35.64-.05.1-.11.19-.16.29-.16.28-.35.53-.57.77-.08.09-.22.25-.34.28-.12.04-.23-.02-.33-.11-.18-.15-.31-.37-.26-.6.04-.23.19-.39.33-.56.33-.39.67-.76,1.04-1.1.07-.06.13-.12.22-.15.1-.04.22-.02.33.04Z"/>
            <path class="cls-24" d="m5.84,46.31c-.05.14-.09.3-.1.45,0,.06,0,.13-.02.19-.03.12-.12.21-.22.28-.05.03-.1.07-.16.06.01-.04.02-.08.01-.13,0-.06-.03-.11-.07-.15-.03-.03-.08-.05-.1-.08-.04-.08.01-.15.04-.22.03-.08.02-.16.05-.24,0-.02.02-.05.04-.06.02-.02.04-.03.07-.02.04.01.04.06.05.1,0,0,0,.01,0,.02.01.01.03,0,.04-.02.05-.08.1-.16.15-.23.04-.06.07-.14.14-.18,0,0,.02-.01.03-.01,0,0,0,0,0,0,.03,0,.05.03.05.06.02.06,0,.12-.02.18Z"/>
            <path class="cls-12" d="m5.35,47.01c-.06-.11-.16-.19-.26-.21-.09-.02-.18,0-.27.02-.02,0-.04,0-.06.01-.04.27.03.54.18.77.07-.04.13-.08.2-.12.07-.04.21-.09.25-.16.05-.09,0-.24-.05-.31Z"/>
            <path class="cls-39" d="m3.98,47.18c.02-.15.13-.11.08-.25-.05-.11-.12-.22-.22-.3-.1-.08-.22-.12-.35-.11-.04,0-.07.03-.11.03-.12,0-.23-.02-.35,0-.12.02-.22.03-.22.16,0,.17,0,.34-.05.52-.03.09-.08.18-.08.28-.02.19.12.37.29.45.21.1.45.09.67.06.11-.02.27-.04.34-.15.05-.08.03-.19.02-.27-.02-.13-.03-.27-.01-.4Z"/>
            <g>
              <path class="cls-39" d="m4.48,45.27c.07.09.13.18.14.3.04.25-.06.51,0,.76.05.24-.05.79-.53.94-.24.07-.72-.01-.87-.09-.21-.1-.34-.3-.46-.49-1-1.59,1.06-2.24,1.74-1.42Z"/>
              <path class="cls-68" d="m2.45,44.96s.11-.09.18-.13c.02-.01.05-.02.06-.04.01-.01.02-.03.03-.05.03-.07.1-.12.17-.16.27-.15.59-.16.89-.11.1.01.2.03.3.08.11.05.2.12.29.2.16.15.35.38.34.61,0,.05-.03.09-.06.14-.02.03-.05.06-.07.09-.08.1-.11.24-.16.35-.02.05-.04.1-.09.13-.09.06-.21,0-.3.03-.06.02-.1.06-.13.12-.03.05-.05.11-.06.17-.02.09-.03.17-.04.26-.01.09-.04.19-.1.26-.15.16-.42.15-.61.11-.07-.02-.14-.03-.2-.06-.15-.07-.25-.21-.34-.34-.08-.12-.17-.24-.22-.39-.03-.08-.04-.16-.05-.25-.05-.33-.08-.76.16-1.02Z"/>
              <path class="cls-39" d="m3.93,45.99c-.19-.02-.24.22-.12.41.04.05.1.1.15.15.34.3.43-.02.32-.12-.25-.24-.12-.42-.36-.44Z"/>
              <path class="cls-6" d="m3.98,46.35s-.24-.15-.09-.24c.04-.02.09.01.09.06,0,.02,0,.05,0,.07,0,.01,0,.03.01.04.02.03.08.06.07.11-.01.04-.08-.02-.09-.03Z"/>
            </g>
          </g>
          <g>
            <path class="cls-3" d="m55.8,61.6c-.22-.13-.43-.14-.57-.06l-2.01,1.17c-.1-.08-.19-.15-.3-.2-.41-.24-.78-.26-1.05-.1l-8.82,5.13s0,0,0,0c-.27.15-.43.48-.43.95,0,.94.66,2.08,1.47,2.55.42.24.8.26,1.07.09,0,0-.01,0-.02.01l8.82-5.13c.27-.15.43-.48.43-.95,0-.13-.01-.26-.03-.39l2.01-1.17c.14-.08.23-.26.23-.52,0-.51-.36-1.13-.8-1.39Zm-12.35,5.83s-.02,0-.03,0c.01,0,.02,0,.03,0Zm-.35.07s-.02,0-.02.01c0,0,.02,0,.02-.01Zm.29-.07s-.02,0-.03,0c0,0,.02,0,.03,0Zm-.06,0s-.02,0-.03,0c0,0,.02,0,.03,0Zm-.06,0s-.02,0-.03,0c0,0,.02,0,.03,0Zm-.06.01s-.02,0-.03,0c0,0,.02,0,.03,0Zm-.06.02s-.02,0-.03.01c0,0,.02,0,.03-.01Zm.34-.05s.02,0,.03,0c-.01,0-.02,0-.03,0Zm.07,0s.02,0,.03,0c-.01,0-.02,0-.03,0Zm.07.01s.02,0,.03,0c-.01,0-.02,0-.03,0Zm.07.02s.02,0,.03,0c-.01,0-.02,0-.03,0Zm.07.02s.02,0,.03.01c-.01,0-.02,0-.03-.01Zm.07.03s.02,0,.03.01c-.01,0-.02,0-.03-.01Zm.07.03s.02,0,.03.01c-.01,0-.02,0-.03-.01Zm.08.04s.02,0,.03.01c0,0-.02,0-.03-.01Zm1.19,3.52s.02-.01.02-.02c0,0-.02.01-.02.02Zm.05-.03s.02-.01.02-.02c0,0-.01.01-.02.02Zm.04-.04s.01-.01.02-.02c0,0-.01.01-.02.02Zm.29-.76s0-.06,0-.09c0,.03,0,.06,0,.09Zm-.25.72s.01-.02.02-.02c0,0-.01.02-.02.02Zm.04-.05s.01-.02.02-.03c0,0-.01.02-.02.03Zm.04-.05s.01-.02.02-.03c0,0-.01.02-.02.03Zm.03-.05s.01-.02.02-.03c0,.01,0,.02-.02.03Zm.03-.06s0-.02.01-.03c0,.01,0,.02-.01.03Zm.03-.06s0-.02.01-.03c0,.01,0,.02-.01.03Zm.02-.07s0-.02.01-.04c0,.01,0,.03-.01.04Zm.02-.07s0-.03,0-.04c0,.01,0,.03,0,.04Zm.02-.07s0-.03,0-.04c0,.01,0,.03,0,.04Zm.01-.08s0-.03,0-.05c0,.02,0,.03,0,.05Zm0-.08s0-.04,0-.05c0,.02,0,.04,0,.05Z"/>
            <path class="cls-3" d="m68.63,55.52c3.66,2.11,3.66,5.54,0,7.66-3.66,2.11-9.6,2.11-13.27,0-3.66-2.12-3.66-5.54,0-7.66,3.66-2.12,9.6-2.12,13.27,0Z"/>
            <g class="cls-22">
              <g class="cls-22">
                <path class="cls-4" d="m66.87,57.09v2.28c0-.94-.62-1.87-1.86-2.59-2.46-1.42-6.43-1.42-8.87,0-1.21.7-1.82,1.63-1.82,2.55v-2.28c0-.92.62-1.85,1.83-2.55,2.44-1.42,6.41-1.42,8.87,0,1.24.71,1.85,1.65,1.85,2.59Z"/>
                <g class="cls-31">
                  <g class="cls-22">
                    <path class="cls-4" d="m66.87,57.09v2.28c0-.44-.14-.89-.42-1.31v-2.28c.28.42.42.86.42,1.31h0Z"/>
                    <path class="cls-4" d="m66.45,55.78v2.28c-.31-.47-.79-.9-1.44-1.28-1.63-.94-3.94-1.26-6.02-.95v-2.28c2.08-.31,4.39,0,6.02.95.65.38,1.13.81,1.44,1.28h0Z"/>
                    <path class="cls-4" d="m59,53.56v2.28c-1.05.16-2.04.47-2.86.95-1.21.7-1.82,1.63-1.82,2.55v-2.28c0-.92.62-1.85,1.83-2.55.82-.48,1.81-.79,2.86-.95h0Z"/>
                  </g>
                </g>
              </g>
              <g class="cls-22">
                <path class="cls-4" d="m69.14,57.1v2.28c-.01,1.26-.84,2.51-2.49,3.47-3.33,1.93-8.73,1.93-12.08,0-1.68-.97-2.53-2.25-2.52-3.52v-2.28c0,1.27.84,2.55,2.53,3.52,3.35,1.93,8.76,1.93,12.08,0,1.65-.96,2.48-2.22,2.48-3.47Z"/>
                <g class="cls-57">
                  <g class="cls-22">
                    <path class="cls-4" d="m69.14,57.1v2.28c-.01,1.26-.84,2.51-2.49,3.47-1.11.65-2.46,1.08-3.89,1.29v-2.28c1.43-.21,2.78-.64,3.89-1.29,1.65-.96,2.48-2.22,2.48-3.47h0Z"/>
                    <path class="cls-4" d="m62.77,61.86v2.28c-2.84.42-5.97,0-8.2-1.29-.89-.51-1.54-1.11-1.96-1.74v-2.28c.43.64,1.08,1.23,1.97,1.74,2.23,1.29,5.36,1.72,8.19,1.29h0Z"/>
                    <path class="cls-4" d="m52.61,58.83v2.28c-.38-.57-.57-1.18-.57-1.78v-2.28c0,.6.19,1.21.57,1.78h0Z"/>
                  </g>
                </g>
              </g>
            </g>
            <g class="cls-22">
              <g class="cls-22">
                <path class="cls-25" d="m47.3,64.22l6.17-3.59c.15-.09.35-.07.57.06l-6.17,3.59c-.22-.13-.43-.14-.57-.06Z"/>
                <g class="cls-46">
                  <g class="cls-22">
                    <path class="cls-25" d="m47.3,64.22l6.17-3.59c.15-.09.35-.07.57.06l-6.17,3.59c-.22-.13-.43-.14-.57-.06h0Z"/>
                  </g>
                </g>
              </g>
              <g class="cls-22">
                <path class="cls-25" d="m54.62,62.59l-6.17,3.59c.14-.08.23-.26.23-.52,0-.51-.36-1.13-.8-1.39l6.17-3.59c.44.26.8.88.8,1.39,0,.25-.09.43-.23.52Z"/>
                <g class="cls-70">
                  <g class="cls-22">
                    <path class="cls-25" d="m47.87,64.28l6.17-3.59c.44.26.8.88.8,1.39,0,.25-.09.43-.23.52l-6.17,3.59c.14-.08.23-.26.23-.52,0-.51-.36-1.13-.8-1.39h0Z"/>
                  </g>
                </g>
              </g>
              <path class="cls-25" d="m47.87,64.28c.44.26.8.88.8,1.39,0,.51-.36.72-.81.46-.44-.26-.8-.88-.8-1.39,0-.51.36-.72.81-.46Z"/>
            </g>
            <g class="cls-22">
              <g class="cls-22">
                <path class="cls-33" d="m41.29,66.62l8.82-5.13c.27-.16.64-.13,1.05.1l-8.82,5.13c-.41-.24-.78-.26-1.05-.1Z"/>
                <g class="cls-8">
                  <g class="cls-22">
                    <path class="cls-33" d="m41.29,66.62l8.82-5.13c.27-.16.64-.13,1.05.1l-8.82,5.13c-.41-.24-.78-.26-1.05-.1h0Z"/>
                  </g>
                </g>
              </g>
              <g class="cls-22">
                <path class="cls-33" d="m52.21,65.1l-8.82,5.13c.27-.15.43-.48.43-.95,0-.94-.66-2.08-1.47-2.55l8.82-5.13c.82.47,1.48,1.61,1.47,2.55,0,.47-.17.79-.43.95Z"/>
                <g class="cls-41">
                  <g class="cls-22">
                    <path class="cls-33" d="m42.35,66.72l8.82-5.13c.82.47,1.48,1.61,1.47,2.55,0,.47-.17.79-.43.95l-8.82,5.13c.27-.15.43-.48.43-.95,0-.94-.66-2.08-1.47-2.55h0Z"/>
                  </g>
                </g>
              </g>
              <path class="cls-67" d="m42.35,66.72c.82.47,1.48,1.61,1.47,2.55,0,.94-.67,1.32-1.48.84-.82-.47-1.48-1.61-1.47-2.55,0-.94.67-1.32,1.48-.84Z"/>
            </g>
            <path class="cls-10" d="m56.17,60.34c2.46,1.42,6.43,1.42,8.87,0,2.44-1.42,2.43-3.72-.03-5.14-2.46-1.42-6.43-1.42-8.87,0-2.44,1.42-2.43,3.72.03,5.14h0Z"/>
            <path class="cls-10" d="m65.04,60.34c-2.44,1.42-6.41,1.42-8.87,0-1.13-.65-1.74-1.49-1.84-2.34.24.22.53.43.86.62,2.46,1.42,6.43,1.42,8.87,0,1.32-.77,1.92-1.79,1.81-2.8,1.56,1.4,1.28,3.29-.83,4.52Z"/>
            <path class="cls-17" d="m66.61,53.57c3.35,1.93,3.37,5.07.04,7-3.33,1.93-8.73,1.93-12.08,0-3.35-1.93-3.36-5.07-.04-7,3.33-1.93,8.73-1.93,12.08,0Zm-10.44,6.07c2.46,1.42,6.43,1.42,8.87,0,2.44-1.42,2.43-3.72-.03-5.14-2.46-1.42-6.43-1.42-8.87,0-2.44,1.42-2.43,3.72.03,5.14h0Z"/>
          </g>
          <g>
            <g>
              <path class="cls-47" d="m58.87,33.64c-.1,0-.2-.06-.25-.16l-6.39-12.92c-.07-.14-.01-.31.13-.37.14-.07.31-.01.37.13l6.39,12.92c.07.14.01.31-.13.37-.04.02-.08.03-.12.03Z"/>
              <path class="cls-47" d="m47.72,22.98c-.1,0-.2-.06-.25-.16-.07-.14,0-.31.13-.37l4.77-2.26c.14-.07.31,0,.37.13s0,.31-.13.37l-4.77,2.26s-.08.03-.12.03Z"/>
              <path class="cls-47" d="m42.54,23.38c-.14,0-.27-.11-.28-.26-.01-.15.1-.29.26-.3l5.18-.4c.15-.01.29.1.3.26.01.15-.1.29-.26.3l-5.18.4s-.01,0-.02,0Z"/>
              <path class="cls-47" d="m42.54,23.38c-.12,0-.24-.08-.27-.21l-3.43-12.49c-.04-.15.05-.3.2-.34.15-.04.3.05.34.2l3.43,12.49c.04.15-.05.3-.2.34-.02,0-.05.01-.07.01Z"/>
              <path class="cls-47" d="m39.11,10.89s-.04,0-.06,0l-8.98-2.01c-.15-.03-.25-.18-.21-.33s.18-.25.33-.21l8.98,2.01c.15.03.25.18.21.33-.03.13-.14.22-.27.22Z"/>
            </g>
            <g>
              <polygon class="cls-47" points="59.85 32.97 59.85 35 58.09 33.99 58.09 31.95 59.85 32.97"/>
              <polygon class="cls-47" points="53.57 20.19 53.57 22.22 51.81 21.21 51.81 19.17 53.57 20.19"/>
              <polygon class="cls-47" points="48.62 21.84 48.62 23.87 46.86 22.86 46.86 20.82 48.62 21.84"/>
              <polygon class="cls-47" points="43.51 22.8 43.51 24.84 41.75 23.82 41.75 21.79 43.51 22.8"/>
              <polygon class="cls-47" points="40.14 12.14 38.38 11.13 38.38 9.09 40.14 10.11 40.14 12.14"/>
              <polygon class="cls-47" points="31.26 8.3 31.26 10.34 29.5 9.32 29.5 7.29 31.26 8.3"/>
            </g>
          </g>
          <g id="woman_sit" data-name="woman sit">
            <path class="cls-3" d="m74.37,60.18c1.41.81,1.41,2.13,0,2.94-1.41.81-3.69.81-5.1,0-1.41-.81-1.41-2.13,0-2.94,1.41-.81,3.69-.81,5.1,0Z"/>
            <path class="cls-39" d="m71.24,58.01c.18.15.34,1.09-.4,1.07-.39-.01-.72-.27-1.06-.48-.19-.12-.09-.33-.29-.43-.91-.47-2.08-.72-1.91-1.82.02-.12.05-.65.15-.7.07-.04.45.09.54.11.84.14.94.14,1.08.24.02.63.12.74.47.94.16.1,1.29.98,1.43,1.09Z"/>
            <g>
              <path class="cls-16" d="m71.45,61.83v-.68h.19l-.05.69s-.1.04-.14,0Z"/>
              <path class="cls-38" d="m72.7,61.72c.09.11.21.29.29.42.02.03.04.07.04.11,0,.04-.03.08-.07.1-.04.02-.08.03-.12.04-.16.02-.33.02-.48-.03-.09-.02-.17-.06-.23-.12-.09-.09-.12-.22-.15-.34-.03-.12-.09-.25-.2-.31-.03-.02-.07-.03-.1-.04-.23-.11-.28-.42-.15-.62.07-.11.16-.1.27-.06.13.06.2.17.3.27.01.01.03.03.04.04.11.09-.05-.39.02-.26.18.36.43.68.54.81Z"/>
              <path class="cls-15" d="m72.03,57c.08.07.13.17.15.29.06.42.04.89.03,1.31,0,.39-.09.78-.09,1.17,0,.25.03.94.09,1.18.03.13-.21.22-.33.16-.08-.04-.24-.14-.25-.23-.05-.51-.32-.98-.45-1.48-.11-.41-.11-.87-.03-1.29.07-.35.09-.79.34-1.06.17-.18.39-.17.54-.04Z"/>
              <path class="cls-15" d="m72.19,60.79c0,.09.03.17.05.26.01.04.01.08.03.12.02.04.04.08.06.12.04.07.08.14.13.2.04.06.1.12.14.19.02.05.05.15,0,.18-.03.02-.07.02-.11.01-.11-.02-.2-.1-.28-.18-.08-.08-.15-.17-.25-.23-.06-.04-.13-.07-.19-.11-.12-.08-.22-.22-.21-.37,0-.08.06-.15.06-.22,0-.08,0-.16.04-.23l.52.28Z"/>
            </g>
            <g>
              <path class="cls-38" d="m72.08,62.51s0,.04,0,.07c0,.07-.02.15-.08.2-.05.04-.11.05-.17.05-.21,0-.39-.18-.49-.35-.12-.21-.17-.48-.34-.65-.04-.04-.09-.07-.12-.11-.06-.07-.09-.16-.1-.25,0-.08,0-.16.05-.22.08-.13.26-.13.38-.07.09.05.23.02.29.1.08.1.07.12.12.21.14.25.31.6.41.87.02.05.03.1.04.15Z"/>
              <path class="cls-52" d="m71.07,56.9c.14.97.07,2.18.21,3.16.04.27.27,1.35.37,1.6.05.13-.31.21-.45.17-.09-.03-.26-.4-.29-.5-.14-.55-.5-1.01-.71-1.54-.22-.54-.3-1.35-.19-1.92.02-.12.07-.25.18-.29l.88-.68Z"/>
              <path class="cls-52" d="m71.41,61.22c.03.06.12.05.14.12.02.07.08.26.12.33.04.09.08.2.09.3,0,.08-.02.14-.08.19-.08.06-.16.06-.24,0-.08-.06-.15-.14-.21-.22-.06-.07-.11-.15-.15-.23-.08-.16-.16-.34-.19-.52,0-.02,0-.26,0-.25.03.01.07.03.1.05.13.07.26.14.39.21.05.03,0-.03.03.03Z"/>
            </g>
            <g>
              <g>
                <path class="cls-4" d="m69.36,54.19c-.18-.41-.34-.96-.58-1.64-.06-.18-.1-.38-.1-.57,0-.2.06-.36.15-.54.04-.08.1-.17.19-.18.08-.02.16.03.23.08.39.3.46.7.55,1.16.08.43.07,1,.11,1.44,0,.08.11.85-.16.72-.13-.06-.28-.25-.38-.47Z"/>
                <path class="cls-4" d="m69.45,53.77c.09-.07.21-.48.26-.39.04.06.5.78.69,1.04-.25.18-.48.38-.69.6-.28-.35-.54-.73-.54-.97,0-.12.15-.19.27-.28Z"/>
                <path class="cls-6" d="m66.69,54.61h0c.02.17.04.34.04.5,0-.17-.02-.34-.04-.5Z"/>
                <path class="cls-6" d="m66.73,55.12c0,.1,0,.21,0,.31,0,0,0,0,0,0,0-.1,0-.2,0-.3Z"/>
                <path class="cls-50" d="m71.62,58.22c-.16.11-.32.21-.49.29-.3.15-.7.3-1.05.27-.29-.03-.51-.34-.77-.44-.82-.33-1.17-.4-1.7-.82-.52-.41-.56-1.05-.47-1.67.02-.13.03-.27.06-.4.01-.07.03-.22.1-.26.08-.05.55.11.65.13,1,.17,1.38-.21,1.54-.09.43.29.88.56,1.33.82.35.2.69.42,1.03.63.18.11.29.3.38.48.08.15.11.43.01.58-.05.08-.13.14-.21.2-.14.1-.27.2-.41.3Z"/>
              </g>
              <path class="cls-6" d="m67.25,51.46c.23-.11.49-.17.73-.23.04,0,.08-.02.12-.03.3-.06.61-.05.89.07,0,0,0,0,0,0v1.83h-1.75v-1.65Z"/>
              <path class="cls-71" d="m66.46,52.26c.04-.42.51-.65.86-.86.05.34.2.66.55.78.19.08.42,0,.53-.16.18-.24.16-.55.13-.86.16.02.31.07.45.13.14.06.25.16.34.29.06.09.05.24.08.34.03.13.07.26.13.39.06.15.17.29.22.45.05.15.02.39-.03.53-.03.08-.07.16-.11.23-.06.12-.12.24-.17.36-.05.11-.09.23-.11.35-.01.11,0,.21.02.32.04.29.25.68,0,.92-.16.15-.35.27-.55.35-.09.04-.19.07-.29.09-.41.07-.89-.04-1.22-.29-.04-.03-.06-.04-.06-.08,0-.02,0-.08,0-.11,0-.11.01-.22.02-.32.01-.23.01-.45-.02-.68-.11-.68-.56-1.25-.74-1.91-.02-.09-.03-.17-.03-.25Z"/>
              <path class="cls-4" d="m66.59,51.93c.52.11.44,1.06.71,1.48.2.33.63.25.98.28-.23.13-.38.33-.38.58-.03.53.01,1.08.12,1.62-.26-.03-.52-.12-.73-.29-.04-.03-.06-.04-.06-.08,0-.02,0-.08,0-.11,0-.11.01-.22.02-.32.01-.23.01-.45-.02-.68-.11-.68-.56-1.25-.74-1.91-.02-.09-.03-.17-.03-.25.01-.12.06-.23.13-.33Z"/>
              <path class="cls-12" d="m68.21,52.17c.02.07.32.12.35.11.04,0,.06-.05.07-.08.09-.21.14-.44.14-.67,0-.07-.01-.15-.07-.2-.05-.05-.14-.06-.2-.03-.07.03-.04.03-.02.09.09.22-.12.66-.27.77Z"/>
              <path class="cls-48" d="m68.03,49.32c0,.37-.3.67-.67.67-.27,0-.51-.16-.61-.4-.04-.08-.06-.18-.06-.27,0-.37.3-.67.67-.67.06,0,.11,0,.16.02.29.07.51.33.51.65Z"/>
              <g>
                <path class="cls-6" d="m67.41,51.47c-.02.65,1.11.66,1.09.05-.02-.85-.07-.94-.44-1.07-.1-.04-.21-.06-.32-.07-.39,0-.24.21-.23.36.04.44-.1.5-.11.74Z"/>
                <path class="cls-15" d="m67.41,51.47c0-.23.15-.29.11-.74-.01-.15-.17-.36.23-.36.11,0,.21.03.32.07.37.13.42.23.44,1.04-.31-.03-.59-.4-.9-.18-.08.07-.14.16-.18.25,0-.03,0-.06,0-.09Z"/>
                <path class="cls-39" d="m67.88,51.05s-.06-.06-.1-.08c-.11-.1-.23-.22-.3-.34-.24-.41-.25-.95.09-1.31.24-.25.63-.36.96-.26.09.03.18.06.26.11.07.04.14.08.2.14.04.04.06.09.09.13.03.05.06.11.07.17.07.26-.11.53,0,.79.02.06.05.11.07.17.02.06.03.12,0,.18-.03.05-.07.07-.09.13-.02.07-.04.15-.06.23-.02.08-.05.16-.09.24-.1.18-.25.19-.43.12-.24-.1-.47-.23-.67-.4Z"/>
                <path class="cls-39" d="m68.6,50.58c-.08-.32-.46-.43-.62-.7-.14-.22-.23-.45-.27-.68.24-.16.55-.22.83-.14.09.03.18.06.26.11.07.04.14.08.2.14.04.04.06.09.09.13.03.05.06.11.07.17.07.26-.11.53,0,.79.02.06.05.11.07.17.02.06.03.12,0,.18-.03.05-.07.07-.09.13-.02.07-.04.15-.06.23-.02.08-.05.16-.09.24-.07.13-.17.17-.28.16-.2-.24-.03-.61-.1-.91Z"/>
                <path class="cls-52" d="m67.57,49.31s.09-.08.14-.12c.05.24.14.47.27.68.16.27.54.38.62.7.07.3-.1.66.1.91-.05,0-.1-.02-.15-.04-.24-.1-.47-.23-.67-.4-.03-.03-.06-.06-.1-.08-.11-.1-.23-.22-.3-.34-.24-.41-.25-.95.09-1.31Z"/>
                <path class="cls-25" d="m67.1,49.81c.02-.51.18-.59.36-.76.18-.17.44-.23.69-.22.25,0,.5.09.71.23,0,0,.02.01.03.02.15.1.27.21.3.4,0,.05.03.17-.01.21-.03.03-.21.02-.25.02-.11,0-.2-.08-.32-.06-.08.01-.16.08-.18.16-.02.06,0,.13-.04.19-.04.06-.11.08-.17.13-.1.1-.1.29-.22.35-.08.04-.17.01-.25,0-.08-.02-.19-.02-.23.06-.02.03,0,.05,0,.08,0,.04.01.2.01.2,0,0-.04,0-.05-.01-.06-.03-.11-.11-.15-.17-.16-.23-.24-.52-.23-.8Z"/>
                <path class="cls-52" d="m67.56,50.28c-.18-.01-.22.21-.1.37.04.05.1.09.14.13.31.27.39-.02.29-.11-.23-.21-.12-.38-.34-.39Z"/>
                <path class="cls-6" d="m67.67,50.68s-.22-.14-.08-.22c.04-.02.08.01.09.05,0,.02,0,.04,0,.06,0,.01,0,.02.01.03.02.03.08.06.07.1-.01.04-.07-.02-.08-.03Z"/>
              </g>
              <path class="cls-12" d="m68.21,52.17s-.16.19-.31.28c-.04.02-.07.05-.11.03-.19-.11-.55-.56-.59-.81-.01-.09.03-.21.09-.26.01,0,.13-.06.15-.06,0,.01.02.19.07.31.12.28.42.42.71.52Z"/>
            </g>
            <g class="cls-22">
              <polygon class="cls-25" points="72.83 56.67 72.83 56.93 69.8 58.69 69.8 58.43 72.83 56.67"/>
              <polygon class="cls-48" points="69.8 58.43 69.8 58.69 67.92 57.61 67.92 57.34 69.8 58.43"/>
              <g>
                <polygon class="cls-25" points="72.83 56.67 69.8 58.43 67.92 57.34 70.95 55.58 72.83 56.67"/>
                <polygon class="cls-51" points="70.46 56.5 69.64 56.97 69.19 56.72 70.02 56.24 70.46 56.5"/>
                <polygon class="cls-51" points="68.74 57.63 71.51 56.03 72.5 56.6 69.73 58.21 68.74 57.63"/>
              </g>
            </g>
            <path class="cls-12" d="m66.34,54.92c-.09-.45-.13-1.03-.22-1.75-.02-.2-.02-.4.02-.59.04-.2.14-.35.27-.5.06-.07.14-.14.23-.14.09,0,.15.06.21.13.32.38.43.91.42,1.4-.01.45.04.9.02,1.35,0,.09,0,.18-.02.26-.1.4-.42.59-.66.41-.12-.09-.23-.31-.27-.55Z"/>
            <g>
              <g>
                <g>
                  <path class="cls-52" d="m70.64,55.98s.11.18.15.22c.04.04.01-.12.07-.12.08,0,.18.06.24,0,.05-.04.1-.09.14-.14.04-.06.06-.12.06-.19,0-.03,0-.05-.02-.07-.01-.01-.02-.03-.04-.04-.07-.07-.15-.13-.22-.2-.02-.01-.03-.03-.05-.04-.03-.01-.06-.02-.08-.02-.1,0-.2.05-.27.12-.03.04-.07.09-.08.14,0,.04.02.09.03.13.03.08.05.15.09.22Z"/>
                  <path class="cls-52" d="m70.54,55.78c0,.11-.01.22-.02.33,0,.04,0,.08,0,.13,0,.03.02.06.03.09.01.03.02.06.03.08.04.08.12.13.19.18.03.02.06.04.1.05.02,0,.05,0,.06-.02,0-.01,0-.02,0-.03,0-.03-.01-.06-.03-.09-.02-.03-.06-.05-.09-.08-.04-.05-.04-.13-.02-.19.02-.06.06-.12.09-.18.03-.06.04-.13.01-.19-.01-.02-.03-.04-.04-.06-.04-.04-.08-.08-.13-.1-.04-.02-.09-.03-.14-.01-.05.01-.05.06-.05.11Z"/>
                </g>
                <path class="cls-52" d="m71.05,55.92c-.06-.03-.19.11-.2.14-.03.09.06.01.17.19.03.05.07.1.08.16,0,.04.01.1.05.11.03.01.07,0,.09-.03,0,.06.1.01.12-.05.03-.12.12-.01.14-.22.01,0,.02,0,.03.01.14-.11-.15-.44-.28-.57-.22-.23-.27.13-.21.26Z"/>
              </g>
              <path class="cls-4" d="m69.72,55.02c.21-.22.44-.42.69-.6.23.31.43.66.56.93.11.25-.37.48-.49.36-.1-.11-.5-.37-.76-.69Z"/>
              <g>
                <path class="cls-39" d="m69.18,56.92c.05.03.2.13.24.18.04.04-.14,0-.14.07,0,.09.06.2,0,.27-.05.05-.1.11-.17.15-.06.04-.14.07-.21.06-.03,0-.06-.01-.08-.03-.02-.01-.03-.03-.04-.04-.07-.09-.14-.17-.21-.26-.02-.02-.03-.04-.04-.06-.01-.03-.02-.06-.02-.09,0-.12.06-.22.14-.3.04-.04.1-.08.15-.09.05,0,.1.03.14.04.08.03.17.07.25.11Z"/>
                <path class="cls-39" d="m68.97,56.8c.12,0,.24,0,.36,0,.05,0,.09,0,.14.01.03,0,.07.03.1.04.03.01.06.02.09.04.09.04.14.14.19.22.02.04.04.07.05.11,0,.03,0,.06-.03.07-.01,0-.02,0-.04,0-.03,0-.07-.02-.1-.04-.03-.03-.05-.07-.08-.1-.05-.05-.14-.05-.21-.03-.07.02-.14.06-.21.09s-.15.04-.22,0c-.02-.01-.04-.03-.06-.05-.04-.04-.09-.09-.11-.15-.02-.05-.03-.1,0-.15.02-.06.07-.06.12-.06Z"/>
              </g>
              <path class="cls-12" d="m68.58,57.16c-.15.03-.31-.07-.42-.16-.28-.21-1.66-1.36-1.76-1.89-.02-.13.13-.21.25-.31.09-.08.56.02.65.11.13.16,1.15,1.19,1.5,1.7.05.07.09.14.09.22,0,.13-.19.29-.3.32Z"/>
              <path class="cls-39" d="m69.1,57.37c-.03-.07.12-.2.16-.21.1-.03.01.07.2.2.05.04.11.08.17.09.05.01.11.02.12.06.01.03,0,.07-.04.09.07.01,0,.11-.06.13-.13.03-.02.14-.25.15,0,.01,0,.03.01.04-.13.15-.49-.18-.63-.33-.25-.26.15-.3.3-.22Z"/>
            </g>
            <g class="cls-22">
              <g>
                <path class="cls-48" d="m73.27,54.85l.23.13s-.04,0-.06,0l-.23-.13s.05-.02.06,0Z"/>
                <g class="cls-62">
                  <g class="cls-22">
                    <path class="cls-48" d="m73.43,54.99l-.23-.13s.02,0,.03-.01l.23.13s-.02,0-.03.01h0Z"/>
                    <path class="cls-48" d="m73.46,54.98l-.23-.13s.02,0,.03,0l.23.13s-.02,0-.03,0h0Z"/>
                    <polygon class="cls-48" points="73.49 54.99 73.27 54.85 73.27 54.85 73.49 54.99 73.49 54.99 73.49 54.99"/>
                  </g>
                </g>
              </g>
              <polygon class="cls-48" points="70.57 56.65 70.35 56.52 73.21 54.86 73.43 54.99 70.57 56.65"/>
              <g>
                <path class="cls-48" d="m70.49,56.8l-.23-.13c0-.05.04-.12.09-.15l.23.13s-.09.09-.09.15Z"/>
                <g class="cls-63">
                  <g>
                    <path class="cls-48" d="m70.53,56.69l-.23-.13s.03-.03.04-.04l.23.13s-.03.02-.04.04h0Z"/>
                    <path class="cls-48" d="m70.5,56.74l-.23-.13s.02-.03.03-.05l.23.13s-.02.03-.03.05h0Z"/>
                  </g>
                </g>
              </g>
              <path class="cls-25" d="m73.43,54.99s.09,0,.09.05l-.69,1.62-3.03,1.76.68-1.63s.02-.1.1-.15l2.86-1.66Z"/>
              <polygon class="cls-48" points="69.8 58.43 69.57 58.3 70.28 56.61 70.5 56.74 69.8 58.43"/>
            </g>
          </g>
          <g>
            <path class="cls-1" d="m40.76,33.64c4.28,2.47,4.28,6.47,0,8.94-4.28,2.47-11.21,2.47-15.49,0-4.28-2.47-4.28-6.47,0-8.94,4.28-2.47,11.21-2.47,15.49,0Z"/>
            <g class="cls-22">
              <g class="cls-22">
                <path class="cls-64" d="m19.72,7.3l2.59-1.01c2.66-1.03,6-.3,9.39,2.44l-2.59,1.01c-3.38-2.74-6.73-3.47-9.39-2.44Z"/>
                <g class="cls-54">
                  <g class="cls-22">
                    <path class="cls-64" d="m19.72,7.3l2.59-1.01c2.66-1.03,6-.3,9.39,2.44l-2.59,1.01c-3.38-2.74-6.73-3.47-9.39-2.44h0Z"/>
                  </g>
                </g>
              </g>
              <g class="cls-22">
                <path class="cls-64" d="m36.14,41.95l-2.59,1.01c2.63-1.02,4.59-3.75,5.27-7.98,1.37-8.5-2.98-19.8-9.7-25.24l2.59-1.01c6.72,5.44,11.07,16.74,9.7,25.24-.68,4.22-2.64,6.96-5.27,7.98Z"/>
                <g class="cls-7">
                  <g class="cls-22">
                    <path class="cls-64" d="m29.11,9.74l2.59-1.01c6.72,5.44,11.07,16.74,9.7,25.24-.68,4.22-2.64,6.96-5.27,7.98l-2.59,1.01c2.63-1.02,4.59-3.75,5.27-7.98,1.37-8.5-2.98-19.8-9.7-25.24h0Z"/>
                  </g>
                </g>
              </g>
              <path class="cls-56" d="m29.11,9.74c6.72,5.44,11.07,16.74,9.7,25.24-1.37,8.5-7.93,10.98-14.65,5.54-6.72-5.44-11.07-16.74-9.7-25.24,1.37-8.5,7.93-10.98,14.65-5.54Z"/>
              <path class="cls-17" d="m28.63,12.72c5.42,4.39,8.92,13.5,7.82,20.35-1.1,6.85-6.39,8.85-11.81,4.46-5.42-4.39-8.92-13.5-7.82-20.35,1.1-6.85,6.39-8.85,11.81-4.46Z"/>
              <path class="cls-56" d="m28.1,15.99c3.99,3.23,6.57,9.94,5.76,14.99-.81,5.05-4.71,6.52-8.7,3.29-3.99-3.23-6.57-9.94-5.76-14.99.81-5.05,4.71-6.52,8.7-3.29Z"/>
              <path class="cls-17" d="m27.61,19.03c2.66,2.15,4.38,6.63,3.84,9.99-.54,3.37-3.14,4.35-5.8,2.19-2.66-2.15-4.38-6.63-3.84-9.99.54-3.37,3.14-4.35,5.8-2.19Z"/>
              <path class="cls-56" d="m27.18,21.75c1.48,1.19,2.43,3.67,2.13,5.54-.3,1.87-1.74,2.41-3.22,1.22-1.48-1.19-2.43-3.67-2.13-5.54.3-1.87,1.74-2.41,3.22-1.22Z"/>
            </g>
            <g>
              <g class="cls-22">
                <polygon class="cls-4" points="24 24.97 23.04 24.42 23.51 23.8 24.47 24.36 24 24.97"/>
                <polygon class="cls-4" points="24.47 24.36 23.51 23.8 23.49 23.17 24.45 23.73 24.47 24.36"/>
                <polygon class="cls-4" points="22.55 26.86 21.59 26.3 23.04 24.42 24 24.97 22.55 26.86"/>
                <path class="cls-12" d="m24.37,21.8l.08,1.93.02.63-.47.62-1.45,1.89,4.14-1.93c-.01-.48-.04-.94-.12-1.4l-2.2-1.73Z"/>
                <polygon class="cls-4" points="24.45 23.73 23.49 23.17 23.41 21.24 24.37 21.8 24.45 23.73"/>
              </g>
              <path class="cls-13" d="m7.89,23.77c-.07-.1-.11-.21-.1-.34.01-.3.27-.54.57-.52l15.29.63c.3.01.54.27.52.57s-.27.54-.57.52l-15.29-.63c-.17,0-.33-.09-.42-.23Z"/>
              <polygon class="cls-71" points="5.13 26.52 4.17 25.96 6.98 23.33 7.94 23.89 5.13 26.52"/>
              <polygon class="cls-71" points="7.06 21.17 6.1 20.61 9.44 20.7 10.4 21.26 7.06 21.17"/>
              <polygon class="cls-4" points="7.94 23.89 6.98 23.33 6.1 20.61 7.06 21.17 7.94 23.89"/>
              <polygon class="cls-12" points="7.06 21.17 10.4 21.26 12.27 23.07 12.39 24.16 11.56 24.62 8.47 26.61 5.13 26.52 7.94 23.89 7.06 21.17"/>
            </g>
            <g class="cls-22">
              <polygon class="cls-4" points="25.86 27.81 25.85 28.92 25.07 28.96 25.07 27.85 25.86 27.81"/>
              <polygon class="cls-4" points="25.07 27.85 25.07 28.96 22.66 29.09 22.66 27.98 25.07 27.85"/>
              <polygon class="cls-4" points="26.31 28.18 26.31 29.29 25.85 28.92 25.86 27.81 26.31 28.18"/>
              <path class="cls-4" d="m27.7,30.44l.31-4.09s-.05-.03-.08-.04l-.23,3.02v1.11Z"/>
              <path class="cls-12" d="m26.75,25.77l-4.08,2.2,2.41-.13.79-.04.45.37,1.39,1.15.23-3.02c-.37-.21-.77-.39-1.19-.53Z"/>
              <polygon class="cls-4" points="27.71 29.33 27.7 30.44 26.31 29.29 26.31 28.18 27.71 29.33"/>
              <polygon class="cls-4" points="17.96 38.16 17.95 39.27 17.4 39.12 17.41 38.01 17.96 38.16"/>
              <polygon class="cls-4" points="18.04 38.58 18.04 39.69 17.95 39.27 17.96 38.16 18.04 38.58"/>
              <path class="cls-13" d="m16.11,41.06c-.12,0-.24-.04-.34-.12-.24-.19-.28-.53-.09-.77l9.48-12.01c.19-.24.53-.28.77-.09.24.19.28.53.09.77l-9.48,12.01c-.11.14-.27.21-.43.21Z"/>
              <polygon class="cls-71" points="14.87 41.62 14.87 42.73 10.97 43.56 10.98 42.45 14.87 41.62"/>
              <polygon class="cls-4" points="16.31 43.88 16.31 44.99 14.87 42.73 14.87 41.62 16.31 43.88"/>
              <polygon class="cls-71" points="18.53 41.09 18.52 42.2 16.31 44.99 16.31 43.88 18.53 41.09"/>
              <polygon class="cls-12" points="18.24 38.7 18.53 41.09 16.31 43.88 14.87 41.62 10.98 42.45 13.19 39.66 16.8 38.25 17.31 38.11 18.24 38.7"/>
            </g>
          </g>
          <g>
            <path class="cls-1" d="m44.4,46.7c1.41.81,1.41,2.13,0,2.94-1.41.81-3.69.81-5.1,0-1.41-.81-1.41-2.13,0-2.94,1.41-.81,3.69-.81,5.1,0Z"/>
            <path class="cls-1" d="m53.07,48.31c1.41.81,1.41,2.13,0,2.94-1.41.81-3.69.81-5.1,0-1.41-.81-1.41-2.13,0-2.94,1.41-.81,3.69-.81,5.1,0Z"/>
            <g id="woman">
              <g>
                <path class="cls-43" d="m41.2,47.45s.05.1.07.14c.03.07.08.14.11.21.04.09.05.2.08.29.05.19.1.39.15.58.02.08.04.15.05.23,0,.08,0,.16-.05.23-.08.12-.23.17-.37.2-.08.02-.17.04-.25,0-.06-.03-.1-.09-.13-.15-.16-.26-.23-.55-.31-.84-.04-.15-.08-.31-.06-.47,0-.09.03-.18.08-.25.02-.04.05-.08.09-.11.03-.03.07-.04.09-.08.04-.08.07-.17.14-.23.06-.05.16-.05.23-.01.07.04.13.11.15.18,0,.02-.04.05-.04.07,0,0,0,0,0,0Z"/>
                <path class="cls-43" d="m42.98,47.6c-.04-.1-.1-.2-.17-.29-.09-.11-.2-.21-.3-.31-.14-.13-.26-.27-.39-.41,0,0-.02-.02-.02-.03h-.81c-.02.06-.04.12-.05.19,0,.12.03.23.11.32.09.09.22.14.33.21.14.09.24.21.32.35.07.13.2.27.33.35.09.05.19.09.29.07.1-.02.19-.09.26-.17.04-.04.08-.08.1-.13.03-.06.02-.09,0-.15Z"/>
                <path class="cls-28" d="m43.33,41.72c.05.57.02,1.14,0,1.71-.01.26.09.92-.37.88-.23-.02-.66-.34-.78-.8-.06-.25-.11-.61-.16-.86-.12-.52-.91-2.12.11-2.63.15-.08.57-.53.72-.44.44.26.44,1.63.49,2.15Z"/>
                <path class="cls-28" d="m43.29,44.07c-.1.22-.23.37-.37.63-.27.49-.53.89-.69,1.44-.03.12-.07.25-.1.37-.04.15-.1.31-.25.36-.08.03-.17.01-.25-.02-.12-.05-.22-.14-.29-.24-.08-.13-.02-.23.03-.36.15-.39.07-.84.14-1.25.03-.21.11-.41.18-.61.14-.39.35-.7.65-1,.07-.07.16-.14.27-.13l.69.81Z"/>
                <path class="cls-20" d="m40.14,40.71c.03-.4.17-.81.46-1.1v.35c0-.08.03-.16.06-.23.01-.04.03-.06.04-.08.06-.08.13-.03.26,0,.16.04.32.03.48.05.5.07.54.18.88-.09.06.42-.02.81-.02.9.01.48-.36.52-.38.77-.04.58-.11,1.74-.19,2.32-.03.23-.15.45-.25.65-.12.23-.24.35-.46.33-.1-.01-.27-.12-.33-.21-.04-.05-.04-.16-.06-.22-.06-.18-.11-.37-.15-.56,0-.04-.02-.08-.02-.12h0s0,0,0-.01c-.1-.5-.16-1.02-.23-1.52-.06-.4-.12-.81-.09-1.21Z"/>
                <g id="people">
                  <g>
                    <path class="cls-39" d="m42.33,36.41c-.34-.61-.25-1.26.03-1.34.49-.14.66.22,1.05,1.25,0,.02.02.05.03.07.1.25.2.5.27.76.04.14.08.29.1.44,0,.03,0,.07.01.1,0,.04,0,.07-.02.11-.02.09-.04.18-.08.26-.05.1-.14.19-.25.22-.13.03-.26-.03-.35-.13-.09-.09-.14-.22-.19-.34-.05-.13-.1-.27-.14-.41-.03-.09-.06-.19-.09-.28-.02-.07-.07-.15-.11-.22-.09-.17-.18-.33-.27-.49Z"/>
                    <path class="cls-58" d="m42.33,36.41c-.34-.61-.25-1.26.03-1.34.49-.14.66.22,1.05,1.25,0,.02.02.05.03.07.1.25.2.5.27.76.04.14.08.29.1.44,0,.03,0,.07.01.1,0,.04,0,.07-.02.11-.02.09-.04.18-.08.26-.05.1-.14.19-.25.22-.13.03-.26-.03-.35-.13-.09-.09-.14-.22-.19-.34-.05-.13-.1-.27-.14-.41-.03-.09-.06-.19-.09-.28-.02-.07-.07-.15-.11-.22-.09-.17-.18-.33-.27-.49Z"/>
                    <path class="cls-5" d="m39.4,33.53c-.04.29,0,.56-.01.84,0,.31-.04.61-.1.92-.06.27-.14.54-.17.81-.03.27,0,.57.15.8.04.06.09.11.15.15.08.05.18.05.27.03.29-.05.52-.28.63-.55.11-.27.11-.57.08-.86-.04-.29-.11-.57-.15-.86-.05-.35-.01-.68.01-1.03,0-.11,0-.18.07-.27.09-.09.22-.16.34-.18.12-.02.24,0,.35-.05.15-.06.24-.23.22-.39-.02-.11-.09-.21-.17-.29-.17-.18-.39-.34-.64-.36-.25-.02-.5.12-.67.31-.17.19-.26.44-.32.69-.02.09-.04.18-.05.28Z"/>
                    <g>
                      <path class="cls-6" d="m40.61,35.08c.24-.11.32-.17.57-.22.04,0,.18.04.22.03.3-.06.62-.05.9.07,0,0,0,0,0,0v1.85h-1.77l.08-1.74Z"/>
                      <path class="cls-42" d="m39.74,35.95s0-.07.01-.12c.12-.38.54-.57.85-.76-.02.01.05.24.06.26.03.08.07.16.12.24.21.31.57.4.91.26.44-.19.21-.52.38-.81.03-.06.09-.08.16-.09.12,0,.23.02.3.12.05.08.07.17.11.25.05.13.11.27.18.39.09.18.19.36.27.56.07.19.14.42.13.63,0,.24-.29,1.17-.29,1.76,0,.4.2.81.13,1.21,0,.04-.01.07-.02.11-.05.17-.18.31-.32.42-.14.11-.31.18-.47.24-.34.13-.69.23-1.04.31-.31.07-.8.12-1.03-.16-.08-.1-.11-.23-.11-.35,0-.13.03-.25.06-.37.09-.34.24-.66.33-1,.11-.41.2-.83.09-1.25-.05-.18-.12-.34-.2-.51l-.34-.77c-.06-.12-.11-.25-.17-.38-.03-.08-.07-.14-.08-.2Z"/>
                    </g>
                    <g>
                      <path class="cls-6" d="m40.7,35.16c-.02.65,1.12.66,1.1.05-.02-.86-.07-.95-.45-1.09-.1-.04-.21-.06-.32-.07-.4,0-.24.21-.23.36.04.45-.1.51-.11.74Z"/>
                      <path class="cls-15" d="m41.36,34.12c-.1-.04-.21-.06-.32-.07-.4,0-.24.21-.23.36.01.12,0,.22,0,.29.24.33.6.55.98.63.01-.04.02-.08.01-.12-.02-.86-.07-.95-.45-1.09Z"/>
                      <path class="cls-39" d="m41.23,34.82s-.07-.06-.1-.09c-.11-.1-.24-.22-.31-.36-.25-.42-.26-.99.09-1.35.25-.26.65-.37,1-.27.09.03.18.07.27.11.08.04.15.08.21.14.04.04.07.09.09.14.03.05.06.11.07.17.07.27-.11.55-.01.82.02.06.06.11.08.17s.03.13,0,.18c-.03.05-.07.08-.09.13-.02.08-.04.16-.06.23-.02.08-.05.17-.09.25-.1.19-.26.2-.44.13-.25-.1-.49-.24-.69-.41Z"/>
                      <path class="cls-68" d="m40.39,33.54c.02-.53.17-.62.38-.79.2-.16.46-.24.71-.23.26,0,.51.1.73.23,0,0,.02.01.03.02.11.07.21.16.27.28.03.07.06.14.07.21.02.14-.1.19-.21.23-.16.05-.39-.02-.55-.04-.08,0-.15-.02-.23,0-.07.02-.14.07-.16.15-.02.08.02.16.04.23.03.15-.04.32-.17.41-.08.05-.13.05-.21.02-.07-.03-.15-.09-.23-.04-.08.05-.05.15-.03.22,0,.01.03.11,0,.11-.04,0-.44-.38-.42-1.01Z"/>
                      <path class="cls-5" d="m41.43,33.61c-.02.08.02.16.04.23.03.15-.04.32-.17.41-.08.05-.13.05-.21.02-.07-.03-.15-.09-.23-.04-.08.05-.05.15-.03.22,0,.01.03.11,0,.11-.04,0-.44-.38-.42-1.01.01-.31.07-.47.16-.58,0,0,.24.09.46.25.2.14.42.4.42.4Z"/>
                      <path class="cls-39" d="m40.89,34.03c-.18-.01-.23.21-.1.39.04.05.1.1.15.14.32.28.41-.02.3-.12-.24-.22-.12-.39-.35-.41Z"/>
                      <path class="cls-6" d="m41.01,34.44s-.23-.14-.09-.22c.04-.02.08.01.09.05,0,.02,0,.04,0,.06,0,.01,0,.02.01.04.02.03.08.06.07.1-.01.04-.07-.02-.08-.03Z"/>
                    </g>
                    <path class="cls-39" d="m39.17,36.09c.37-.59.98-.83,1.19-.62.35.36.17.75-.54,1.6-.17.21-.75.92-1.16,1.17-.26.17-.6.06-.63-.05-.1-.37.41-.94,1.14-2.1Z"/>
                  </g>
                </g>
                <path class="cls-20" d="m41.72,43.4c-.04.58-.28,1-.38,1.58-.1.6-.14,1.19-.11,1.8,0,.13,0,.26.02.38,0,.1.03.24,0,.34-.04.1-.14.16-.24.19-.08.02-.15.04-.23.03-.07,0-.15-.03-.2-.08-.05-.05-.07-.13-.08-.19-.03-.14-.02-.28-.03-.42-.01-.12-.05-.24-.07-.36-.06-.27-.16-.53-.2-.8-.03-.23-.03-.46-.03-.69,0-.45.16-1.08.35-1.49.04-.1.06.02.16,0l1.05-.28Z"/>
              </g>
              <path class="cls-39" d="m40.44,39.54c.01-.16-1.86-2.38-2.32-1.72-.07.1-.12.3-.06.42.08.14,1.31.9,1.88,1.42.06.06.08.04.16.03.13-.02.32-.04.33-.16Z"/>
              <path class="cls-9" d="m39.17,36.09c.37-.59.98-.83,1.19-.62.35.36.17.75-.54,1.6-.17.21-.75.92-1.16,1.17-.26.17-.6.06-.63-.05-.1-.37.41-.94,1.14-2.1Z"/>
              <path class="cls-39" d="m40.52,40.64s-.02.05-.04.06c-.03.01-.07-.03-.09-.05-.03-.04-.04-.1-.04-.15,0-.07,0-.13,0-.2,0-.02,0-.04-.02-.05-.01-.01-.03-.02-.05-.01-.03.02-.03.08-.04.11,0,.05-.02.09-.02.14,0,.09,0,.19.02.28.01.05.03.1.02.15,0,.06-.03.1-.07.14-.02.02-.03.02-.06,0-.02-.02-.05-.03-.07-.05-.09-.08-.15-.18-.19-.29-.05-.14-.07-.3-.06-.45.01-.14.04-.28.08-.42.02-.07.04-.14.06-.21.01-.05.02-.14.06-.18.07-.09.18-.11.28-.07.02,0,.04.02.06.03.07.05.1.12.11.2,0,.04.02.23.03.29.04.23.06.47.03.7,0,.01,0,.03,0,.04Z"/>
              <path class="cls-39" d="m45.39,38.18c.05-.01.11-.04.16-.05.07-.02.15-.02.22-.03.22,0,.43-.01.65-.02.04,0,.08,0,.09.04,0,.01,0,.03,0,.05-.02.04-.06.07-.11.09-.05.01-.09.01-.14.02-.08,0-.16.02-.24.05,0,0-.01,0-.02.01,0,.01,0,.03.01.04.04.04.09.08.15.11.03.02.06.03.09.04.03.01.05.03.08.04.15.05.3.07.44.14.05.02.1.09.02.12-.07.02-.14,0-.21-.02-.08-.02-.17-.04-.25-.05-.02,0-.04,0-.06,0,0,0-.02-.01-.03,0-.05.02.07.09.08.1.06.04.11.08.17.12.06.05.13.1.14.17,0,.02,0,.05-.02.06-.02,0-.05,0-.07,0-.04,0-.07-.04-.11-.06-.08-.06-.16-.12-.25-.17-.04-.02-.09-.05-.13-.07-.06-.02-.04.04,0,.06.06.06.12.11.17.18.02.03.05.07.05.1,0,.04-.04.06-.07.04-.03-.01-.06-.04-.08-.06l-.18-.17s-.05-.06-.08-.08c-.02-.01-.05,0-.04.02,0,.04.03.08.05.12.01.03.02.06.02.09,0,.01,0,.03-.02.04-.01,0-.02,0-.03,0-.05-.03-.1-.07-.13-.13-.03-.06-.08-.11-.13-.16-.09-.1-.19-.2-.31-.25-.07-.04-.15-.06-.23-.1-.02,0-.03-.02-.04-.04,0-.02,0-.04,0-.07.02-.07.05-.14.1-.2.03-.04.1-.13.16-.11.05.02.09.03.14.01Z"/>
              <path class="cls-9" d="m40.44,39.54c.01-.16-1.86-2.38-2.32-1.72-.07.1-.12.3-.06.42.08.14,1.31.9,1.88,1.42.06.06.08.04.16.03.13-.02.32-.04.33-.16Z"/>
              <path class="cls-58" d="m43.14,37.82c-.02.12,0,.33.11.41.1.08,1.13.21,1.86.38.08-.15.13-.31.13-.46-.8-.36-2-.84-2.1-.33Z"/>
            </g>
            <g id="man-3" data-name="man">
              <g class="cls-22">
                <g class="cls-22">
                  <g class="cls-32">
                    <g class="cls-22">
                      <path class="cls-72" d="m51.64,34.2l-.51-.3c.05-.03.1-.03.14-.01l.51.3s-.09-.02-.14.01h0Z"/>
                    </g>
                  </g>
                </g>
              </g>
              <g id="man-4" data-name="man">
                <g id="man-5" data-name="man">
                  <g>
                    <path class="cls-43" d="m52.29,49.32s-.05-.07-.13-.08c-.1,0-.2,0-.31,0-.14,0-.28,0-.41-.01,0-.11,0-.23.01-.34-.15.04-.23,0-.37-.05-.17-.06-.34-.1-.51-.15-.07-.02-.15-.04-.22-.02-.18.04-.28.35-.24.51.02.11.1.21.2.28.14.1.33.18.51.2.18.02.35.07.51.18.2.14.34.3.59.3.25,0,.46-.15.46-.42,0-.09-.02-.19-.04-.28-.01-.06-.02-.1-.03-.14Z"/>
                    <path class="cls-14" d="m51.27,49.82s0-.04,0-.06c.01-.21-.07-.38-.14-.57-.03-.07-.06-.15-.12-.19-.14-.11-.35-.01-.44.14-.04.07-.06.15-.1.22-.07.14-.21.3-.37.31-.22,0-.47-.07-.7-.08-.09,0-.18,0-.26.02-.19.08-.25.39-.18.56.04.11.14.18.24.23.16.07.36.12.53.1.18-.01.36,0,.53.08.29.14.63.33.92.07.08-.07.12-.18.13-.28.02-.19-.05-.37-.05-.55Z"/>
                  </g>
                </g>
                <path class="cls-60" d="m51.18,45.54l-.1-.44c.04.14.08.29.1.44Z"/>
                <path class="cls-69" d="m52.79,41.41c-.05-.26.02-.75-.35-.79-.34-.04-.52.38-.61.48-.13.15-.67-.09-.68-.16-.65-.46-.5,1.48-.29,2.24.11.41.1.85.17,1.27.08.44.19.88.32,1.31.06.37.09.76.1,1.14.02.65,0,1.31.03,1.97,0,.14.01.28.06.41.02.07.06.15.11.21.05.05.12.08.19.08.06,0,.13,0,.19-.01.06-.01.13-.03.18-.06.11-.07.15-.2.18-.32.04-.15.07-.3.11-.45.08-.39.14-.79.17-1.19.03-.39.04-.78.03-1.18,0-.2-.02-.4-.03-.6,0-.1-.02-.2-.03-.31,0-.05,0-.1-.01-.16,0-.02-.03-.14-.02-.15,0,0,0,0,0,0,0-.15,0-.31.03-.46.05-.32.1-.63.16-.95.05-.28.09-.55.11-.83.03-.5-.03-1.01-.12-1.5Z"/>
                <path class="cls-50" d="m50.91,41.4c-.06-.03-.37-.19-.37-.27,0-.06-.15-.1-.19-.1-.07,0-.14.05-.2.09-.14.1-.24.26-.31.42-.09.23-.11.48-.12.72-.04.73-.02,1.47.06,2.2.04.37.09.73.16,1.1.03.18.07.36.11.54.04.17.08.23.22.32.31.2.87.17,1.1-.18.24-.38.14-.97.22-1.4.11-.62.52-1.07.71-1.66.14-.43.12-.84.05-1.28-.03-.21-.1-.71-.31-.83-.06-.03-.44-.12-.75.19-.18.18-.16.26-.38.15Z"/>
                <path class="cls-60" d="m53.03,39.69c.01-.11.03-.22.05-.33.09-.52.25-1.03.31-1.55.05-.41.09-.92-.24-1.23-.05-.05-.11-.09-.18-.13-.63-.35-1.23.08-1.82.29-.39.14-.76.32-1.1.54-.12.08-.24.13-.33.25-.09.13-.13.26-.14.42,0,.17.02.35.05.52.17,1,.24,2.03.12,3.04-.04.32-.05.65-.07.97,0,.12-.08.31-.02.43.06.12.3.22.42.27.32.16.67.26,1.03.27.55.02,1.11-.15,1.56-.47.19-.14.34-.29.32-.53-.02-.3,0-.6-.01-.9-.01-.62-.03-1.24.04-1.86Z"/>
                <path class="cls-66" d="m51.04,37.83c-.1-.48-.56-.63-1.01-.53-.11.07-.23.12-.3.24-.09.13-.13.26-.14.42,0,.17.02.35.05.52.17,1,.24,2.03.12,3.04-.04.32-.05.65-.07.97,0,.12-.08.31-.02.43.06.12.3.22.42.27.02.01.04.02.06.03,0-.14.02-.29.05-.43.26-1.71,1.25-3.22.84-4.96Z"/>
                <path class="cls-44" d="m50.86,36.86c.11-.05.22-.09.3-.12.41-.15.82-.4,1.25-.42.21.31.04.66-.26.83-.38.19-.88.17-1.24-.09-.07-.05-.13-.14-.05-.2Z"/>
                <path class="cls-50" d="m50.08,46.39c.03.32.05.64.07.95.02.25.03.5.05.75.01.19.02.39.03.58.04,1.06-.08,1.3.43,1.44.11.03.23.04.34.01.33-.08.38-.37.42-.72.02-.2.03-.44.04-.64,0-.17,0-.34.01-.51,0-.23,0-.46,0-.69,0-.3,0-.61,0-.91,0-.39.04-.79.04-1.18,0-.06-.04-.12-.08-.14-.06-.04-1.23.39-1.35.52,0,0-.05.15-.01.54Z"/>
                <path class="cls-39" d="m51.01,36.23c-.02-.16-.14-.12-.08-.26.05-.12.13-.23.23-.31s.23-.13.36-.12c.04,0,.07.03.12.03.12,0,.25-.02.37,0,.12.02.23.03.23.16,0,.18,0,.36.05.54.03.1.08.19.09.29.02.2-.13.38-.31.47-.22.11-.47.1-.7.06-.12-.02-.28-.04-.35-.15-.05-.08-.03-.19-.02-.29.02-.14.03-.28.01-.42Z"/>
                <path class="cls-39" d="m50.48,34.24c-.07.09-.13.19-.15.31-.04.26.07.54,0,.8-.06.25.05.83.55.98.25.07.75-.01.91-.09.22-.1.36-.31.49-.52,1.05-1.66-1.11-2.34-1.81-1.48Z"/>
              </g>
              <path class="cls-68" d="m52.77,34.98s-.01.1-.02.15c0,.04-.02.07-.03.11,0,.03-.02.06-.03.09-.05.11-.12.21-.19.31-.1.14-.2.28-.35.36-.07.03-.14.05-.21.06-.2.04-.49.05-.64-.11-.07-.07-.09-.18-.11-.27-.01-.1-.02-.18-.04-.27,0-.02-.01-.05-.02-.07-.01-.04-.02-.07-.04-.11-.03-.05-.08-.1-.14-.12-.1-.03-.23.03-.32-.03-.05-.03-.07-.09-.09-.14-.02-.05-.04-.11-.06-.16-.03-.07-.06-.15-.11-.2-.02-.03-.05-.06-.07-.09-.03-.05-.06-.09-.06-.14-.01-.24.19-.48.36-.64.09-.08.19-.16.3-.21.1-.04.21-.06.31-.08.32-.05.65-.04.93.12.07.04.14.09.18.17,0,.02.01.04.03.05.02.02.04.03.06.04.08.04.14.08.19.13.26.26.22.71.17,1.06Z"/>
              <path class="cls-39" d="m51.06,34.99c.2-.02.26.23.12.43-.04.06-.11.11-.16.15-.35.31-.45-.02-.34-.12.26-.25.13-.43.38-.46Z"/>
              <path class="cls-6" d="m51,35.37s.25-.16.09-.25c-.04-.02-.09.01-.1.06,0,.02,0,.05,0,.07,0,.01,0,.03-.01.04-.02.03-.09.07-.07.11.01.04.08-.02.09-.04Z"/>
              <path class="cls-6" d="m44.63,40.55c-.05-.06-.04-.18.03-.15-.02-.04-.01-.09.02-.11.04-.03.1,0,.15.02.07.02.14.02.21.02.15,0,.31-.08.29-.1-.04-.05-.11-.09-.17-.08-.04,0-.07.03-.11.03-.03,0-.06,0-.09-.02-.01,0-.02,0-.03-.02-.01-.02,0-.05.01-.06.02-.03.06-.04.09-.06.08-.04.16-.08.25-.07.03,0,.06.01.09.02.03,0,.06,0,.09.02.04.01.27.1.35.16.4.11.41.36.22.55-.09.09-.37.19-.53.23,0,0,0,0-.01,0,0,0-.02,0-.03,0h0s0,0,0,0c-.23.05-.7.11-.73-.09.01,0,.02-.02.04-.03-.2-.15-.04-.17-.13-.28Z"/>
              <path class="cls-23" d="m45.77,40.45c-.01.09,0,.26.08.32.07.05.22.04.3.05.41.06,2.83.13,3.22-.17.2-.16-.06-.69-.43-.86-.4-.18-2.32.17-2.74.26-.09.02-.18.04-.26.09-.09.06-.15.18-.16.31Z"/>
              <path class="cls-23" d="m49.43,37.88c.11-.23.27-.46.52-.48.11-.01.21.02.31.06.26.11.49.27.62.52.02.05.05.1.05.15.03.2-.09.34-.19.49-.12.18-.23.37-.34.57-.22.38-.43.77-.69,1.12-.16.21-.35.41-.61.44-.17.02-.35-.05-.47-.18-.28-.32-.17-.59-.15-.64.64-1.54.95-2.09.94-2.05Z"/>
            </g>
            <g>
              <path class="cls-47" d="m40.63,28.56l2.27,1.31c.29.16.52.57.52.9v.59c.09.34.42,1.52.44,1.63l-.72-.94c-.1-.13-.21-.23-.33-.3l-2.18-1.26c-.29-.16-.52-.57-.52-.9v-.74c0-.33.23-.46.52-.3Z"/>
              <path class="cls-47" d="m55.57,32.43l-2.27-1.31c-.29-.16-.52-.03-.52.3v.59c-.09.23-.42,1.04-.44,1.12l.72-.1c.1-.01.21.01.33.08l2.18,1.26c.29.16.52.03.52-.3v-.74c0-.33-.23-.73-.52-.9Z"/>
              <path class="cls-47" d="m47.55,29.41l-2.27,1.31c-.29.16-.52.57-.52.9v.59c-.09.34-.42,1.52-.44,1.63l.72-.94c.1-.13.21-.23.33-.3l2.18-1.26c.29-.16.52-.57.52-.9v-.74c0-.33-.23-.46-.52-.3Z"/>
            </g>
          </g>
        </g>
      </g>
    </g>
  </g>
</svg>