<?xml version="1.0" encoding="UTF-8"?>
<svg xmlns="http://www.w3.org/2000/svg" xmlns:xlink="http://www.w3.org/1999/xlink" viewBox="0 0 80.61 72.9">
  <defs>
    <style>
      .cls-1 {
        fill: #f3a984;
      }

      .cls-2 {
        clip-path: url(#clippath-20);
      }

      .cls-3 {
        clip-path: url(#clippath-11);
      }

      .cls-4 {
        fill: #13b7fd;
      }

      .cls-5 {
        clip-path: url(#clippath-16);
      }

      .cls-6 {
        fill: #fff;
      }

      .cls-7 {
        fill: #ee9c76;
      }

      .cls-8 {
        clip-path: url(#clippath-33);
      }

      .cls-9 {
        clip-path: url(#clippath-47);
      }

      .cls-10 {
        fill: #9f2b3b;
      }

      .cls-11 {
        fill: #283032;
      }

      .cls-12 {
        clip-path: url(#clippath-41);
      }

      .cls-13 {
        fill: #e9ecf5;
      }

      .cls-14 {
        clip-path: url(#clippath-32);
      }

      .cls-15 {
        clip-path: url(#clippath-2);
      }

      .cls-16 {
        clip-path: url(#clippath-13);
      }

      .cls-17 {
        isolation: isolate;
      }

      .cls-18 {
        fill: #a6afcd;
      }

      .cls-19 {
        clip-path: url(#clippath-37);
      }

      .cls-20 {
        fill: #372b3d;
      }

      .cls-21 {
        clip-path: url(#clippath-25);
      }

      .cls-22 {
        clip-path: url(#clippath-15);
      }

      .cls-23 {
        clip-path: url(#clippath-6);
      }

      .cls-24 {
        clip-path: url(#clippath-40);
      }

      .cls-25 {
        clip-path: url(#clippath-26);
      }

      .cls-26 {
        fill: #ffb700;
      }

      .cls-27 {
        clip-path: url(#clippath-7);
      }

      .cls-28 {
        fill: #1e1821;
      }

      .cls-29 {
        clip-path: url(#clippath-21);
      }

      .cls-30 {
        clip-path: url(#clippath-34);
      }

      .cls-31 {
        clip-path: url(#clippath-1);
      }

      .cls-32 {
        clip-path: url(#clippath-4);
      }

      .cls-33 {
        clip-path: url(#clippath-38);
      }

      .cls-34 {
        fill: #2c2030;
      }

      .cls-35 {
        clip-path: url(#clippath-36);
      }

      .cls-36 {
        clip-path: url(#clippath-27);
      }

      .cls-37 {
        fill: #ffd438;
      }

      .cls-38 {
        fill: #ffbfa2;
      }

      .cls-39 {
        clip-path: url(#clippath-44);
      }

      .cls-40 {
        clip-path: url(#clippath-12);
      }

      .cls-41 {
        fill: #1499fc;
      }

      .cls-42 {
        fill: #cddcfb;
      }

      .cls-43 {
        fill: #828cc0;
      }

      .cls-44 {
        fill: #1f1923;
      }

      .cls-45 {
        clip-path: url(#clippath-24);
      }

      .cls-46 {
        clip-path: url(#clippath-30);
      }

      .cls-47 {
        clip-path: url(#clippath-22);
      }

      .cls-48 {
        clip-path: url(#clippath-9);
      }

      .cls-49 {
        fill: #dde3f4;
      }

      .cls-50, .cls-51 {
        fill: #bcc5df;
      }

      .cls-52 {
        clip-path: url(#clippath-52);
      }

      .cls-53 {
        clip-path: url(#clippath);
      }

      .cls-54 {
        fill: #546282;
      }

      .cls-55 {
        clip-path: url(#clippath-50);
      }

      .cls-56 {
        fill: #1c161f;
      }

      .cls-57 {
        fill: #0d1315;
      }

      .cls-58 {
        fill: #f8b495;
      }

      .cls-59 {
        clip-path: url(#clippath-39);
      }

      .cls-60 {
        fill: none;
      }

      .cls-61 {
        clip-path: url(#clippath-19);
      }

      .cls-62 {
        clip-path: url(#clippath-31);
      }

      .cls-63 {
        clip-path: url(#clippath-54);
      }

      .cls-64 {
        fill: #251b29;
      }

      .cls-65 {
        clip-path: url(#clippath-3);
      }

      .cls-66 {
        fill: #ff445f;
      }

      .cls-67 {
        clip-path: url(#clippath-8);
      }

      .cls-68 {
        fill: #f9435d;
      }

      .cls-69 {
        clip-path: url(#clippath-29);
      }

      .cls-70 {
        clip-path: url(#clippath-18);
      }

      .cls-71 {
        clip-path: url(#clippath-14);
      }

      .cls-72 {
        clip-path: url(#clippath-17);
      }

      .cls-51 {
        mix-blend-mode: multiply;
        opacity: .5;
      }

      .cls-73 {
        clip-path: url(#clippath-5);
      }

      .cls-74 {
        clip-path: url(#clippath-42);
      }

      .cls-75 {
        fill: #3f4961;
      }

      .cls-76 {
        clip-path: url(#clippath-10);
      }

      .cls-77 {
        fill: #d4dbef;
      }

      .cls-78 {
        clip-path: url(#clippath-23);
      }

      .cls-79 {
        clip-path: url(#clippath-53);
      }

      .cls-80 {
        clip-path: url(#clippath-49);
      }

      .cls-81 {
        clip-path: url(#clippath-51);
      }

      .cls-82 {
        clip-path: url(#clippath-28);
      }

      .cls-83 {
        fill: #1e1822;
      }

      .cls-84 {
        clip-path: url(#clippath-35);
      }
    </style>
    <clipPath id="clippath">
      <path class="cls-50" d="m12.02,52.66l-2.57-.7c-.9-.24-1.62-1.07-1.88-2.32l2.57.7c.26,1.25.98,2.08,1.88,2.32Z"/>
    </clipPath>
    <clipPath id="clippath-1">
      <path class="cls-50" d="m8.03,23.04l2.57.7c-.58-.16-1.22-.07-1.86.3l-2.57-.7c.64-.37,1.28-.45,1.86-.3Z"/>
    </clipPath>
    <clipPath id="clippath-2">
      <path class="cls-50" d="m5.91,29.85l-2.57-.7c-.42-2.05.56-4.51,2.19-5.45l2.57.7c-1.63.94-2.62,3.39-2.19,5.45Z"/>
    </clipPath>
    <clipPath id="clippath-3">
      <path class="cls-13" d="m12.68,8.14l2.56,1.5c-1.34-.79-3.21-.68-5.27.5l-2.56-1.5c2.06-1.18,3.92-1.29,5.27-.5Z"/>
    </clipPath>
    <clipPath id="clippath-4">
      <path class="cls-13" d="m4.71,27.64l-2.56-1.5C.82,25.37,0,23.73,0,21.39c0-4.7,3.32-10.41,7.41-12.76l2.56,1.5c-4.09,2.35-7.41,8.06-7.41,12.76,0,2.33.82,3.98,2.15,4.75Z"/>
    </clipPath>
    <clipPath id="clippath-5">
      <path class="cls-4" d="m17.81,8.02l8.48,4.9c-1.69-.99-4.04-.86-6.63.63l-8.48-4.9c2.59-1.49,4.94-1.62,6.63-.63Z"/>
    </clipPath>
    <clipPath id="clippath-6">
      <path class="cls-4" d="m13.03,35.58l-8.48-4.9c-1.67-.98-2.7-3.04-2.7-5.98,0-5.91,4.17-13.1,9.33-16.05l8.48,4.9c-5.15,2.96-9.33,10.14-9.33,16.05,0,2.94,1.03,5,2.7,5.98Z"/>
    </clipPath>
    <clipPath id="clippath-7">
      <path class="cls-13" d="m50.7,18.54l3.23,1.88c-2.82-1.64-6.73-1.41-11.04,1.08l-3.23-1.88c4.31-2.49,8.22-2.72,11.04-1.08Z"/>
    </clipPath>
    <clipPath id="clippath-8">
      <path class="cls-13" d="m31.95,58.25l-3.23-1.88c-2.79-1.62-4.51-5.06-4.53-9.95-.03-9.85,6.9-21.85,15.47-26.8l3.23,1.88c-8.57,4.95-15.5,16.95-15.47,26.8.01,4.89,1.74,8.34,4.53,9.95Z"/>
    </clipPath>
    <clipPath id="clippath-9">
      <path class="cls-60" d="m58.51,62.74l-.85.49s.08-.04.12-.06c.4-.16.97-.07,1.55.26l.85-.49c-.58-.33-1.15-.42-1.55-.26-.04.02-.08.04-.12.06Z"/>
    </clipPath>
    <clipPath id="clippath-10">
      <path class="cls-60" d="m61.1,65.62l.85-.49c-.39-1.06-1.08-1.8-1.77-2.19l-.85.49c.68.39,1.37,1.13,1.77,2.19Z"/>
    </clipPath>
    <clipPath id="clippath-11">
      <path class="cls-60" d="m63.51,72.15l.85-.49c2.13-1.24,1.92-3.57.91-5.16-.39-.62-.97-1.19-1.55-1.53-.52-.3-1.04-.41-1.44-.17l-.85.49c.4-.23.92-.12,1.44.17.58.33,1.15.91,1.55,1.53,1.01,1.59,1.21,3.92-.91,5.16Z"/>
    </clipPath>
    <clipPath id="clippath-12">
      <path class="cls-18" d="m68.91,40.36l1.48-.86s.11-.03.18,0l-1.48.86c-.07-.03-.13-.02-.18,0Z"/>
    </clipPath>
    <clipPath id="clippath-13">
      <path class="cls-18" d="m77.52,49.75l-1.48.86c.07-.04.11-.14.1-.27l1.48-.86c.01.14-.03.23-.1.27Z"/>
    </clipPath>
    <clipPath id="clippath-14">
      <path class="cls-50" d="m73.17,40.32l-1.48.86s-.11.03-.18,0l1.48-.86c.07.02.13.02.18,0Z"/>
    </clipPath>
    <clipPath id="clippath-15">
      <path class="cls-18" d="m75.96,47.08l1.48-.86c-.07.05-.1.15-.09.27l-1.48.86c-.01-.12.02-.22.09-.27Z"/>
    </clipPath>
    <clipPath id="clippath-16">
      <path class="cls-50" d="m74.79,42.88l1.48-.86c.05.13.14.26.24.34l-1.48.86c-.1-.08-.19-.2-.24-.34Z"/>
    </clipPath>
    <clipPath id="clippath-17">
      <path class="cls-50" d="m73.03,39.3l1.48-.86c.07-.04.16-.03.25.03l-1.48.86c-.09-.05-.18-.07-.25-.03Z"/>
    </clipPath>
    <clipPath id="clippath-18">
      <path class="cls-50" d="m73.28,39.33l1.48-.86c.12.07.24.21.31.39l-1.48.86c-.07-.18-.19-.32-.31-.39Z"/>
    </clipPath>
    <clipPath id="clippath-19">
      <path class="cls-50" d="m77.44,45.18l1.48-.86c.27.22.38.66.19.78l-1.48.86c.19-.12.08-.56-.19-.78Z"/>
    </clipPath>
    <clipPath id="clippath-20">
      <path class="cls-60" d="m54.5,26.65l-1.31.76c.06-.03.12-.06.18-.09.61-.25,1.5-.11,2.39.4l1.31-.76c-.89-.51-1.78-.65-2.39-.4-.06.03-.12.06-.18.09Z"/>
    </clipPath>
    <clipPath id="clippath-21">
      <path class="cls-60" d="m58.48,31.1l1.31-.76c-.61-1.64-1.67-2.77-2.72-3.38l-1.31.76c1.05.61,2.11,1.74,2.72,3.38Z"/>
    </clipPath>
    <clipPath id="clippath-22">
      <path class="cls-60" d="m62.19,41.17l1.31-.76c3.28-1.9,2.96-5.5,1.4-7.95-.61-.95-1.49-1.84-2.38-2.35-.8-.46-1.6-.62-2.22-.27l-1.31.76c.61-.35,1.41-.19,2.22.27.89.51,1.77,1.4,2.38,2.35,1.56,2.45,1.87,6.05-1.4,7.95Z"/>
    </clipPath>
    <clipPath id="clippath-23">
      <path class="cls-26" d="m60.29,51.39l1.48-.86s.11-.03.18,0l-1.48.86c-.07-.03-.13-.02-.18,0Z"/>
    </clipPath>
    <clipPath id="clippath-24">
      <path class="cls-26" d="m68.9,60.77l-1.48.86c.07-.04.11-.14.1-.27l1.48-.86c.01.14-.03.23-.1.27Z"/>
    </clipPath>
    <clipPath id="clippath-25">
      <path class="cls-26" d="m64.55,51.35l-1.48.86s-.11.03-.18,0l1.48-.86c.07.02.13.02.18,0Z"/>
    </clipPath>
    <clipPath id="clippath-26">
      <path class="cls-26" d="m67.34,58.11l1.48-.86c-.07.05-.1.14-.09.27l-1.48.86c-.01-.12.02-.22.09-.27Z"/>
    </clipPath>
    <clipPath id="clippath-27">
      <path class="cls-26" d="m66.17,53.91l1.48-.86c.05.13.14.25.24.34l-1.48.86c-.1-.08-.19-.2-.24-.34Z"/>
    </clipPath>
    <clipPath id="clippath-28">
      <path class="cls-26" d="m64.41,50.33l1.48-.86c.07-.04.16-.03.25.03l-1.48.86c-.09-.05-.18-.07-.25-.03Z"/>
    </clipPath>
    <clipPath id="clippath-29">
      <path class="cls-26" d="m64.66,50.35l1.48-.86c.12.07.24.21.31.38l-1.48.86c-.07-.18-.19-.32-.31-.38Z"/>
    </clipPath>
    <clipPath id="clippath-30">
      <path class="cls-26" d="m68.82,56.2l1.48-.86c.27.22.38.66.19.78l-1.48.86c.19-.13.08-.56-.19-.78Z"/>
    </clipPath>
    <clipPath id="clippath-31">
      <path class="cls-18" d="m49.31,44.91l1.09-.64s.08-.02.13,0l-1.09.64c-.05-.02-.1-.02-.13,0Z"/>
    </clipPath>
    <clipPath id="clippath-32">
      <path class="cls-18" d="m55.69,51.86l-1.09.64c.05-.03.08-.1.07-.2l1.09-.64c0,.1-.02.17-.07.2Z"/>
    </clipPath>
    <clipPath id="clippath-33">
      <path class="cls-50" d="m52.47,44.88l-1.09.64s-.08.02-.13,0l1.09-.64c.05.02.1.02.13,0Z"/>
    </clipPath>
    <clipPath id="clippath-34">
      <path class="cls-18" d="m54.53,49.89l1.09-.64c-.05.03-.08.11-.07.2l-1.09.64c0-.09.02-.16.07-.2Z"/>
    </clipPath>
    <clipPath id="clippath-35">
      <path class="cls-50" d="m53.67,46.78l1.09-.64c.04.1.1.19.18.25l-1.09.64c-.07-.06-.14-.15-.18-.25Z"/>
    </clipPath>
    <clipPath id="clippath-36">
      <path class="cls-50" d="m52.36,44.13l1.09-.64c.05-.03.12-.02.19.02l-1.09.64c-.07-.04-.13-.05-.19-.02Z"/>
    </clipPath>
    <clipPath id="clippath-37">
      <path class="cls-50" d="m52.55,44.15l1.09-.64c.09.05.18.15.23.29l-1.09.64c-.05-.13-.14-.23-.23-.29Z"/>
    </clipPath>
    <clipPath id="clippath-38">
      <path class="cls-50" d="m55.63,48.48l1.09-.64c.2.16.28.49.14.58l-1.09.64c.14-.09.06-.42-.14-.58Z"/>
    </clipPath>
    <clipPath id="clippath-39">
      <path class="cls-26" d="m40.36,51.57l1.15-.67c1.18-.69,2.82-.59,4.63.45l-1.15.67c-1.81-1.04-3.44-1.14-4.63-.45Z"/>
    </clipPath>
    <clipPath id="clippath-40">
      <path class="cls-26" d="m50.72,66.75l-1.15.67c1.17-.68,1.89-2.12,1.9-4.17.01-4.13-2.89-9.15-6.48-11.22l1.15-.67c3.59,2.07,6.49,7.1,6.48,11.22,0,2.05-.73,3.49-1.9,4.17Z"/>
    </clipPath>
    <clipPath id="clippath-41">
      <path class="cls-26" d="m72.09,59.44l.8-.47c.82-.48,1.96-.41,3.22.31l-.8.47c-1.26-.73-2.39-.79-3.22-.31Z"/>
    </clipPath>
    <clipPath id="clippath-42">
      <path class="cls-26" d="m79.29,69.98l-.8.47c.81-.47,1.31-1.47,1.32-2.9,0-2.87-2.01-6.36-4.5-7.8l.8-.47c2.5,1.44,4.51,4.93,4.5,7.8,0,1.42-.51,2.43-1.32,2.9Z"/>
    </clipPath>
    <clipPath id="clippath-44">
      <path class="cls-64" d="m8.19,10.02l-.26.15s.04,0,.07,0l.26-.15s-.05-.02-.07,0Z"/>
    </clipPath>
    <clipPath id="clippath-47">
      <path class="cls-64" d="m11.44,12.3l.26-.15c0-.06-.05-.14-.1-.17l-.26.15c.06.03.1.11.1.17Z"/>
    </clipPath>
    <clipPath id="clippath-49">
      <path class="cls-50" d="m52.3.69l.9-.52c.45-.26,1.08-.23,1.78.17l-.9.52c-.69-.4-1.32-.44-1.78-.17Z"/>
    </clipPath>
    <clipPath id="clippath-50">
      <path class="cls-50" d="m62.12,11.24l.9-.52c.45,1.62.83,8.29.93,8.82l-.9.52c-.1-.53-.48-7.2-.93-8.82Z"/>
    </clipPath>
    <clipPath id="clippath-51">
      <path class="cls-50" d="m59.63,4.1l.9-.52c1.38.8,2.5,2.73,2.49,4.32l-.9.52c0-1.59-1.11-3.52-2.49-4.32Z"/>
    </clipPath>
    <clipPath id="clippath-52">
      <path class="cls-50" d="m66.76,13.57l.9-.52c.46-.27,1.1-.23,1.81.18l-.9.52c-.71-.41-1.34-.44-1.81-.18Z"/>
    </clipPath>
    <clipPath id="clippath-53">
      <path class="cls-50" d="m77.72,26.56l-.9.52c.46-.26.74-.83.74-1.63l.9-.52c0,.8-.28,1.36-.74,1.63Z"/>
    </clipPath>
    <clipPath id="clippath-54">
      <path class="cls-50" d="m75.04,17.46l.9-.52c1.4.81,2.53,2.77,2.53,4.38l-.9.52c0-1.61-1.13-3.57-2.53-4.38Z"/>
    </clipPath>
  </defs>
  <g class="cls-17">
    <g id="Layer_2" data-name="Layer 2">
      <g id="Layer_1-2" data-name="Layer 1">
        <g>
          <g>
            <g>
              <g class="cls-17">
                <g class="cls-17">
                  <path class="cls-50" d="m12.02,52.66l-2.57-.7c-.9-.24-1.62-1.07-1.88-2.32l2.57.7c.26,1.25.98,2.08,1.88,2.32Z"/>
                  <g class="cls-53">
                    <g class="cls-17">
                      <path class="cls-50" d="m12.02,52.66l-2.57-.7c-.9-.24-1.62-1.07-1.88-2.32l2.57.7c.26,1.25.98,2.08,1.88,2.32h0Z"/>
                    </g>
                  </g>
                </g>
                <g class="cls-17">
                  <path class="cls-50" d="m8.03,23.04l2.57.7c-.58-.16-1.22-.07-1.86.3l-2.57-.7c.64-.37,1.28-.45,1.86-.3Z"/>
                  <g class="cls-31">
                    <g class="cls-17">
                      <path class="cls-50" d="m8.74,24.03l-2.57-.7c.64-.37,1.28-.45,1.86-.3l2.57.7c-.58-.16-1.22-.07-1.86.3h0Z"/>
                    </g>
                  </g>
                </g>
                <polygon class="cls-50" points="8.1 24.4 5.53 23.7 6.17 23.34 8.74 24.03 8.1 24.4"/>
                <polygon class="cls-50" points="10.14 50.34 7.57 49.65 3.33 29.15 5.91 29.85 10.14 50.34"/>
                <g class="cls-17">
                  <path class="cls-50" d="m5.91,29.85l-2.57-.7c-.42-2.05.56-4.51,2.19-5.45l2.57.7c-1.63.94-2.62,3.39-2.19,5.45Z"/>
                  <g class="cls-15">
                    <g class="cls-17">
                      <path class="cls-50" d="m5.91,29.85l-2.57-.7c-.42-2.05.56-4.51,2.19-5.45l2.57.7c-1.63.94-2.62,3.39-2.19,5.45h0Z"/>
                    </g>
                  </g>
                </g>
                <path class="cls-77" d="m8.74,24.03c1.63-.94,3.31-.03,3.74,2.02l4.24,20.49c.42,2.05-.56,4.51-2.19,5.45l-.64.37c-1.63.94-3.31.03-3.74-2.02l-4.24-20.49c-.42-2.05.56-4.51,2.19-5.45l.64-.37Z"/>
              </g>
              <g class="cls-17">
                <g class="cls-17">
                  <path class="cls-13" d="m12.68,8.14l2.56,1.5c-1.34-.79-3.21-.68-5.27.5l-2.56-1.5c2.06-1.18,3.92-1.29,5.27-.5Z"/>
                  <g class="cls-65">
                    <g class="cls-17">
                      <path class="cls-13" d="m9.97,10.14l-2.56-1.5c2.06-1.18,3.92-1.29,5.27-.5l2.56,1.5c-1.34-.79-3.21-.68-5.27.5h0Z"/>
                    </g>
                  </g>
                </g>
                <g class="cls-17">
                  <path class="cls-13" d="m4.71,27.64l-2.56-1.5C.82,25.37,0,23.73,0,21.39c0-4.7,3.32-10.41,7.41-12.76l2.56,1.5c-4.09,2.35-7.41,8.06-7.41,12.76,0,2.33.82,3.98,2.15,4.75Z"/>
                  <g class="cls-32">
                    <g class="cls-17">
                      <path class="cls-13" d="m4.71,27.64l-2.56-1.5C.82,25.37,0,23.73,0,21.39c0-4.7,3.32-10.41,7.41-12.76l2.56,1.5c-4.09,2.35-7.41,8.06-7.41,12.76,0,2.33.82,3.98,2.15,4.75h0Z"/>
                    </g>
                  </g>
                </g>
                <path class="cls-18" d="m9.97,10.14c4.09-2.35,7.41-.45,7.41,4.25,0,4.7-3.32,10.41-7.41,12.75-4.09,2.35-7.41.45-7.41-4.25,0-4.7,3.32-10.41,7.41-12.76Z"/>
              </g>
              <g class="cls-17">
                <g class="cls-17">
                  <path class="cls-4" d="m17.81,8.02l8.48,4.9c-1.69-.99-4.04-.86-6.63.63l-8.48-4.9c2.59-1.49,4.94-1.62,6.63-.63Z"/>
                  <g class="cls-73">
                    <g class="cls-17">
                      <path class="cls-4" d="m19.66,13.54l-8.48-4.9c2.59-1.49,4.94-1.62,6.63-.63l8.48,4.9c-1.69-.99-4.04-.86-6.63.63h0Z"/>
                    </g>
                  </g>
                </g>
                <g class="cls-17">
                  <path class="cls-4" d="m13.03,35.58l-8.48-4.9c-1.67-.98-2.7-3.04-2.7-5.98,0-5.91,4.17-13.1,9.33-16.05l8.48,4.9c-5.15,2.96-9.33,10.14-9.33,16.05,0,2.94,1.03,5,2.7,5.98Z"/>
                  <g class="cls-23">
                    <g class="cls-17">
                      <path class="cls-4" d="m13.03,35.58l-8.48-4.9c-1.67-.98-2.7-3.04-2.7-5.98,0-5.91,4.17-13.1,9.33-16.05l8.48,4.9c-5.15,2.96-9.33,10.14-9.33,16.05,0,2.94,1.03,5,2.7,5.98h0Z"/>
                    </g>
                  </g>
                </g>
                <path class="cls-41" d="m19.66,13.54c5.15-2.96,9.33-.56,9.33,5.35s-4.17,13.1-9.32,16.05c-5.15,2.96-9.33.56-9.33-5.35s4.17-13.1,9.33-16.05Z"/>
              </g>
              <g>
                <path class="cls-13" d="m26.77,13.23c-1.83-.71-4.04-.85-6.63.65-5.14,2.97-9.3,10.17-9.28,16.08,0,2.94,1.28,4.68,2.72,5.97,2.72,2.45,10.44,16.09,13.12,18.91-.24-1.09-2.82-7.29-2.83-8.6-.03-9.85,6.9-21.85,15.47-26.8,1.96-1.13,6.48-1.81,8.22-2.04-5.77-1.05-17.16-2.76-20.79-4.17Z"/>
                <g class="cls-17">
                  <path class="cls-50" d="m39.34,19.44c8.57-4.95,15.54-.98,15.57,8.87.03,9.85-6.9,21.85-15.47,26.8-8.57,4.95-15.54.98-15.57-8.87-.03-9.85,6.9-21.85,15.47-26.8Z"/>
                </g>
              </g>
              <g class="cls-17">
                <g class="cls-17">
                  <path class="cls-13" d="m50.7,18.54l3.23,1.88c-2.82-1.64-6.73-1.41-11.04,1.08l-3.23-1.88c4.31-2.49,8.22-2.72,11.04-1.08Z"/>
                  <g class="cls-27">
                    <g class="cls-17">
                      <path class="cls-13" d="m42.89,21.5l-3.23-1.88c4.31-2.49,8.22-2.72,11.04-1.08l3.23,1.88c-2.82-1.64-6.73-1.41-11.04,1.08h0Z"/>
                    </g>
                  </g>
                </g>
                <g class="cls-17">
                  <path class="cls-13" d="m31.95,58.25l-3.23-1.88c-2.79-1.62-4.51-5.06-4.53-9.95-.03-9.85,6.9-21.85,15.47-26.8l3.23,1.88c-8.57,4.95-15.5,16.95-15.47,26.8.01,4.89,1.74,8.34,4.53,9.95Z"/>
                  <g class="cls-67">
                    <g class="cls-17">
                      <path class="cls-13" d="m31.95,58.25l-3.23-1.88c-2.79-1.62-4.51-5.06-4.53-9.95-.03-9.85,6.9-21.85,15.47-26.8l3.23,1.88c-8.57,4.95-15.5,16.95-15.47,26.8.01,4.89,1.74,8.34,4.53,9.95h0Z"/>
                    </g>
                  </g>
                </g>
                <g>
                  <path class="cls-6" d="m42.89,21.5c8.57-4.95,15.54-.98,15.57,8.87.03,9.85-6.9,21.85-15.47,26.8-8.57,4.95-15.54.98-15.57-8.87-.03-9.85,6.9-21.85,15.47-26.8Z"/>
                  <path class="cls-18" d="m36.02,56.77c-1.77,0-3.19-.65-4.23-1.94-1.2-1.49-1.84-3.75-1.84-6.54,0-2.16.36-4.48,1.09-6.91.72-2.39,1.76-4.76,3.08-7.05,1.32-2.29,2.86-4.38,4.58-6.2,1.74-1.85,3.58-3.34,5.46-4.43,2.03-1.17,4-1.79,5.7-1.79s3.19.65,4.23,1.94c1.2,1.49,1.84,3.75,1.84,6.54,0,2.16-.36,4.48-1.09,6.91-.72,2.39-1.76,4.76-3.08,7.05-1.32,2.29-2.86,4.38-4.58,6.2-1.74,1.85-3.58,3.34-5.46,4.43-2.03,1.17-4,1.79-5.7,1.79Z"/>
                </g>
              </g>
              <path class="cls-41" d="m39.4,43.6c-.01-3.69,2.58-8.19,5.8-10.04,1.62-.93,3.08-1.02,4.14-.41l-9.93-5.77c-.24.24-.48.48-.71.73-1.71,1.82-3.25,3.91-4.58,6.2-1.32,2.29-2.36,4.67-3.08,7.05,0,.03-.02.06-.03.09l10.08,5.86c-1.04-.61-1.69-1.9-1.7-3.73Z"/>
              <path class="cls-4" d="m45.2,33.56c3.21-1.85,5.82-.37,5.83,3.33.01,3.69-2.58,8.19-5.8,10.04s-5.82.37-5.83-3.33c-.01-3.69,2.58-8.19,5.8-10.04Z"/>
            </g>
            <g class="cls-17">
              <g class="cls-17">
                <g class="cls-48">
                  <g class="cls-17">
                    <path class="cls-10" d="m59.34,63.43l.85-.49c-.58-.33-1.15-.42-1.55-.26-.04.02-.08.04-.12.06l-.85.49s.08-.04.12-.06c.4-.16.97-.07,1.55.26h0Z"/>
                  </g>
                </g>
              </g>
              <g class="cls-17">
                <g class="cls-76">
                  <g class="cls-17">
                    <path class="cls-10" d="m61.1,65.62l.85-.49c-.39-1.06-1.08-1.8-1.77-2.19l-.85.49c.68.39,1.37,1.13,1.77,2.19h0Z"/>
                  </g>
                </g>
              </g>
              <g class="cls-17">
                <g class="cls-3">
                  <g class="cls-17">
                    <path class="cls-10" d="m63.51,72.15l.85-.49c2.13-1.24,1.92-3.57.91-5.16-.39-.62-.97-1.19-1.55-1.53-.52-.3-1.04-.41-1.44-.17l-.85.49c.4-.23.92-.12,1.44.17.58.33,1.15.91,1.55,1.53,1.01,1.59,1.21,3.92-.91,5.16h0Z"/>
                  </g>
                </g>
              </g>
              <path class="cls-68" d="m59.34,63.43c-.58-.33-1.15-.42-1.55-.26-1.31.54-1.29,3.84,3.29,9.73,4.6-.59,4.64-3.86,3.34-5.9-.39-.62-.97-1.19-1.55-1.53-.68-.39-1.37-.45-1.77.15-.39-1.06-1.08-1.8-1.77-2.19Z"/>
            </g>
            <g class="cls-17">
              <g>
                <path class="cls-18" d="m68.91,40.36l1.48-.86s.11-.03.18,0l-1.48.86c-.07-.03-.13-.02-.18,0Z"/>
                <g class="cls-40">
                  <g class="cls-17">
                    <path class="cls-18" d="m68.91,40.36l1.48-.86s.11-.03.18,0l-1.48.86c-.07-.03-.13-.02-.18,0h0Z"/>
                  </g>
                </g>
              </g>
              <g class="cls-17">
                <path class="cls-18" d="m77.52,49.75l-1.48.86c.07-.04.11-.14.1-.27l1.48-.86c.01.14-.03.23-.1.27Z"/>
                <g class="cls-16">
                  <g class="cls-17">
                    <path class="cls-18" d="m76.14,50.33l1.48-.86c.01.14-.03.23-.1.27l-1.48.86c.07-.04.11-.14.1-.27h0Z"/>
                  </g>
                </g>
              </g>
              <polygon class="cls-18" points="69.09 40.35 70.57 39.5 72.99 40.33 71.51 41.19 69.09 40.35"/>
              <g class="cls-17">
                <path class="cls-50" d="m73.17,40.32l-1.48.86s-.11.03-.18,0l1.48-.86c.07.02.13.02.18,0Z"/>
                <g class="cls-71">
                  <g class="cls-17">
                    <path class="cls-50" d="m71.51,41.19l1.48-.86c.07.02.13.02.18,0l-1.48.86s-.11.03-.18,0h0Z"/>
                  </g>
                </g>
              </g>
              <polygon class="cls-18" points="75.87 47.35 77.34 46.49 77.62 49.47 76.14 50.33 75.87 47.35"/>
              <g class="cls-17">
                <path class="cls-18" d="m75.96,47.08l1.48-.86c-.07.05-.1.15-.09.27l-1.48.86c-.01-.12.02-.22.09-.27Z"/>
                <g class="cls-22">
                  <g class="cls-17">
                    <path class="cls-18" d="m75.96,47.08l1.48-.86c-.07.05-.1.15-.09.27l-1.48.86c-.01-.12.02-.22.09-.27h0Z"/>
                  </g>
                </g>
              </g>
              <g class="cls-17">
                <path class="cls-50" d="m74.79,42.88l1.48-.86c.05.13.14.26.24.34l-1.48.86c-.1-.08-.19-.2-.24-.34Z"/>
                <g class="cls-5">
                  <g class="cls-17">
                    <path class="cls-50" d="m74.79,42.88l1.48-.86c.05.13.14.26.24.34l-1.48.86c-.1-.08-.19-.2-.24-.34h0Z"/>
                  </g>
                </g>
              </g>
              <g class="cls-17">
                <path class="cls-50" d="m73.03,39.3l1.48-.86c.07-.04.16-.03.25.03l-1.48.86c-.09-.05-.18-.07-.25-.03Z"/>
                <g class="cls-72">
                  <g class="cls-17">
                    <path class="cls-50" d="m73.03,39.3l1.48-.86c.07-.04.16-.03.25.03l-1.48.86c-.09-.05-.18-.07-.25-.03h0Z"/>
                  </g>
                </g>
              </g>
              <polygon class="cls-50" points="73.59 39.71 75.06 38.86 76.27 42.02 74.79 42.88 73.59 39.71"/>
              <g class="cls-17">
                <path class="cls-50" d="m73.28,39.33l1.48-.86c.12.07.24.21.31.39l-1.48.86c-.07-.18-.19-.32-.31-.39Z"/>
                <g class="cls-70">
                  <g class="cls-17">
                    <path class="cls-50" d="m73.28,39.33l1.48-.86c.12.07.24.21.31.39l-1.48.86c-.07-.18-.19-.32-.31-.39h0Z"/>
                  </g>
                </g>
              </g>
              <polygon class="cls-18" points="77.63 45.96 79.11 45.1 77.43 46.22 75.96 47.08 77.63 45.96"/>
              <polygon class="cls-50" points="75.03 43.22 76.51 42.36 78.92 44.32 77.44 45.18 75.03 43.22"/>
              <path class="cls-49" d="m73.28,39.33c.12.07.24.21.31.39l1.2,3.17c.05.13.14.26.24.34l2.42,1.96c.27.22.38.66.19.78l-1.68,1.12c-.07.05-.1.15-.09.27l.28,2.98c.02.27-.15.37-.35.25-.05-.03-.1-.07-.15-.12l-2.24-2.48c-.05-.05-.1-.09-.15-.12-.05-.03-.1-.05-.15-.05l-2.25-.11s-.1-.02-.15-.05c-.2-.12-.38-.42-.35-.66l.29-2.65c.01-.11-.02-.25-.09-.37l-1.66-3.05c-.19-.34-.08-.66.19-.56l2.42.84c.1.04.19.01.24-.06l1.22-1.77c.07-.1.19-.1.31-.03Z"/>
              <g class="cls-17">
                <path class="cls-50" d="m77.44,45.18l1.48-.86c.27.22.38.66.19.78l-1.48.86c.19-.12.08-.56-.19-.78Z"/>
                <g class="cls-61">
                  <g class="cls-17">
                    <path class="cls-50" d="m77.44,45.18l1.48-.86c.27.22.38.66.19.78l-1.48.86c.19-.12.08-.56-.19-.78h0Z"/>
                  </g>
                </g>
              </g>
            </g>
            <g class="cls-17">
              <g class="cls-17">
                <g class="cls-2">
                  <g class="cls-17">
                    <path class="cls-10" d="m55.76,27.72l1.31-.76c-.89-.51-1.78-.65-2.39-.4-.06.03-.12.06-.18.09l-1.31.76c.06-.03.12-.06.18-.09.61-.25,1.5-.11,2.39.4h0Z"/>
                  </g>
                </g>
              </g>
              <g class="cls-17">
                <g class="cls-29">
                  <g class="cls-17">
                    <path class="cls-10" d="m58.48,31.1l1.31-.76c-.61-1.64-1.67-2.77-2.72-3.38l-1.31.76c1.05.61,2.11,1.74,2.72,3.38h0Z"/>
                  </g>
                </g>
              </g>
              <g class="cls-17">
                <g class="cls-47">
                  <g class="cls-17">
                    <path class="cls-10" d="m62.19,41.17l1.31-.76c3.28-1.9,2.96-5.5,1.4-7.95-.61-.95-1.49-1.84-2.38-2.35-.8-.46-1.6-.62-2.22-.27l-1.31.76c.61-.35,1.41-.19,2.22.27.89.51,1.77,1.4,2.38,2.35,1.56,2.45,1.87,6.05-1.4,7.95h0Z"/>
                  </g>
                </g>
              </g>
              <path class="cls-68" d="m55.76,27.72c-.89-.51-1.78-.65-2.39-.4-2.02.83-1.99,5.92,5.08,15.01,7.1-.91,7.15-5.95,5.15-9.1-.61-.95-1.49-1.84-2.38-2.35-1.05-.61-2.12-.7-2.73.23-.61-1.64-1.67-2.77-2.72-3.38Z"/>
            </g>
            <g class="cls-17">
              <g class="cls-17">
                <path class="cls-26" d="m60.29,51.39l1.48-.86s.11-.03.18,0l-1.48.86c-.07-.03-.13-.02-.18,0Z"/>
                <g class="cls-78">
                  <g class="cls-17">
                    <path class="cls-26" d="m60.29,51.39l1.48-.86s.11-.03.18,0l-1.48.86c-.07-.03-.13-.02-.18,0h0Z"/>
                  </g>
                </g>
              </g>
              <g class="cls-17">
                <path class="cls-26" d="m68.9,60.77l-1.48.86c.07-.04.11-.14.1-.27l1.48-.86c.01.14-.03.23-.1.27Z"/>
                <g class="cls-45">
                  <g class="cls-17">
                    <path class="cls-26" d="m67.52,61.35l1.48-.86c.01.14-.03.23-.1.27l-1.48.86c.07-.04.11-.14.1-.27h0Z"/>
                  </g>
                </g>
              </g>
              <polygon class="cls-26" points="60.47 51.38 61.95 50.52 64.37 51.36 62.89 52.21 60.47 51.38"/>
              <g class="cls-17">
                <path class="cls-26" d="m64.55,51.35l-1.48.86s-.11.03-.18,0l1.48-.86c.07.02.13.02.18,0Z"/>
                <g class="cls-21">
                  <g class="cls-17">
                    <path class="cls-26" d="m62.89,52.21l1.48-.86c.07.02.13.02.18,0l-1.48.86s-.11.03-.18,0h0Z"/>
                  </g>
                </g>
              </g>
              <polygon class="cls-26" points="67.24 58.38 68.72 57.52 69 60.5 67.52 61.35 67.24 58.38"/>
              <g class="cls-17">
                <path class="cls-26" d="m67.34,58.11l1.48-.86c-.07.05-.1.14-.09.27l-1.48.86c-.01-.12.02-.22.09-.27Z"/>
                <g class="cls-25">
                  <g class="cls-17">
                    <path class="cls-26" d="m67.34,58.11l1.48-.86c-.07.05-.1.14-.09.27l-1.48.86c-.01-.12.02-.22.09-.27h0Z"/>
                  </g>
                </g>
              </g>
              <g class="cls-17">
                <path class="cls-26" d="m66.17,53.91l1.48-.86c.05.13.14.25.24.34l-1.48.86c-.1-.08-.19-.2-.24-.34Z"/>
                <g class="cls-36">
                  <g class="cls-17">
                    <path class="cls-26" d="m66.17,53.91l1.48-.86c.05.13.14.25.24.34l-1.48.86c-.1-.08-.19-.2-.24-.34h0Z"/>
                  </g>
                </g>
              </g>
              <g class="cls-17">
                <path class="cls-26" d="m64.41,50.33l1.48-.86c.07-.04.16-.03.25.03l-1.48.86c-.09-.05-.18-.07-.25-.03Z"/>
                <g class="cls-82">
                  <g class="cls-17">
                    <path class="cls-26" d="m64.41,50.33l1.48-.86c.07-.04.16-.03.25.03l-1.48.86c-.09-.05-.18-.07-.25-.03h0Z"/>
                  </g>
                </g>
              </g>
              <polygon class="cls-26" points="64.97 50.74 66.44 49.88 67.65 53.05 66.17 53.91 64.97 50.74"/>
              <g class="cls-17">
                <path class="cls-26" d="m64.66,50.35l1.48-.86c.12.07.24.21.31.38l-1.48.86c-.07-.18-.19-.32-.31-.38Z"/>
                <g class="cls-69">
                  <g class="cls-17">
                    <path class="cls-26" d="m64.66,50.35l1.48-.86c.12.07.24.21.31.38l-1.48.86c-.07-.18-.19-.32-.31-.38h0Z"/>
                  </g>
                </g>
              </g>
              <polygon class="cls-26" points="69.01 56.98 70.49 56.13 68.81 57.25 67.34 58.11 69.01 56.98"/>
              <polygon class="cls-26" points="66.41 54.24 67.88 53.39 70.3 55.34 68.82 56.2 66.41 54.24"/>
              <path class="cls-37" d="m64.66,50.35c.12.07.24.21.31.38l1.2,3.17c.05.13.14.25.24.34l2.42,1.96c.27.22.38.66.19.78l-1.68,1.12c-.07.05-.1.14-.09.27l.28,2.98c.02.27-.15.37-.35.25-.05-.03-.1-.07-.15-.12l-2.24-2.48c-.05-.05-.1-.09-.15-.12-.05-.03-.1-.05-.15-.05l-2.25-.11s-.1-.02-.15-.05c-.2-.12-.38-.42-.35-.66l.29-2.65c.01-.11-.02-.25-.09-.37l-1.66-3.05c-.19-.34-.08-.66.19-.56l2.42.84c.1.03.19.01.24-.06l1.22-1.77c.07-.1.19-.1.31-.03Z"/>
              <g class="cls-17">
                <path class="cls-26" d="m68.82,56.2l1.48-.86c.27.22.38.66.19.78l-1.48.86c.19-.13.08-.56-.19-.78Z"/>
                <g class="cls-46">
                  <g class="cls-17">
                    <path class="cls-26" d="m68.82,56.2l1.48-.86c.27.22.38.66.19.78l-1.48.86c.19-.13.08-.56-.19-.78h0Z"/>
                  </g>
                </g>
              </g>
            </g>
            <g class="cls-17">
              <g>
                <path class="cls-18" d="m49.31,44.91l1.09-.64s.08-.02.13,0l-1.09.64c-.05-.02-.1-.02-.13,0Z"/>
                <g class="cls-62">
                  <g class="cls-17">
                    <path class="cls-18" d="m49.31,44.91l1.09-.64s.08-.02.13,0l-1.09.64c-.05-.02-.1-.02-.13,0h0Z"/>
                  </g>
                </g>
              </g>
              <g class="cls-17">
                <path class="cls-18" d="m55.69,51.86l-1.09.64c.05-.03.08-.1.07-.2l1.09-.64c0,.1-.02.17-.07.2Z"/>
                <g class="cls-14">
                  <g class="cls-17">
                    <path class="cls-18" d="m54.67,52.29l1.09-.64c0,.1-.02.17-.07.2l-1.09.64c.05-.03.08-.1.07-.2h0Z"/>
                  </g>
                </g>
              </g>
              <polygon class="cls-18" points="49.45 44.91 50.54 44.27 52.33 44.89 51.24 45.53 49.45 44.91"/>
              <g class="cls-17">
                <path class="cls-50" d="m52.47,44.88l-1.09.64s-.08.02-.13,0l1.09-.64c.05.02.1.02.13,0Z"/>
                <g class="cls-8">
                  <g class="cls-17">
                    <path class="cls-50" d="m51.24,45.53l1.09-.64c.05.02.1.02.13,0l-1.09.64s-.08.02-.13,0h0Z"/>
                  </g>
                </g>
              </g>
              <polygon class="cls-18" points="54.46 50.09 55.56 49.45 55.76 51.66 54.67 52.29 54.46 50.09"/>
              <g class="cls-17">
                <path class="cls-18" d="m54.53,49.89l1.09-.64c-.05.03-.08.11-.07.2l-1.09.64c0-.09.02-.16.07-.2Z"/>
                <g class="cls-30">
                  <g class="cls-17">
                    <path class="cls-18" d="m54.53,49.89l1.09-.64c-.05.03-.08.11-.07.2l-1.09.64c0-.09.02-.16.07-.2h0Z"/>
                  </g>
                </g>
              </g>
              <g class="cls-17">
                <path class="cls-50" d="m53.67,46.78l1.09-.64c.04.1.1.19.18.25l-1.09.64c-.07-.06-.14-.15-.18-.25Z"/>
                <g class="cls-84">
                  <g class="cls-17">
                    <path class="cls-50" d="m53.67,46.78l1.09-.64c.04.1.1.19.18.25l-1.09.64c-.07-.06-.14-.15-.18-.25h0Z"/>
                  </g>
                </g>
              </g>
              <g class="cls-17">
                <path class="cls-50" d="m52.36,44.13l1.09-.64c.05-.03.12-.02.19.02l-1.09.64c-.07-.04-.13-.05-.19-.02Z"/>
                <g class="cls-35">
                  <g class="cls-17">
                    <path class="cls-50" d="m52.36,44.13l1.09-.64c.05-.03.12-.02.19.02l-1.09.64c-.07-.04-.13-.05-.19-.02h0Z"/>
                  </g>
                </g>
              </g>
              <polygon class="cls-50" points="52.78 44.43 53.87 43.8 54.76 46.14 53.67 46.78 52.78 44.43"/>
              <g class="cls-17">
                <path class="cls-50" d="m52.55,44.15l1.09-.64c.09.05.18.15.23.29l-1.09.64c-.05-.13-.14-.23-.23-.29Z"/>
                <g class="cls-19">
                  <g class="cls-17">
                    <path class="cls-50" d="m52.55,44.15l1.09-.64c.09.05.18.15.23.29l-1.09.64c-.05-.13-.14-.23-.23-.29h0Z"/>
                  </g>
                </g>
              </g>
              <polygon class="cls-18" points="55.77 49.06 56.87 48.42 55.63 49.25 54.53 49.89 55.77 49.06"/>
              <polygon class="cls-50" points="53.84 47.03 54.94 46.39 56.73 47.84 55.63 48.48 53.84 47.03"/>
              <path class="cls-49" d="m52.55,44.15c.09.05.18.15.23.29l.89,2.35c.04.1.1.19.18.25l1.79,1.45c.2.16.28.49.14.58l-1.24.83c-.05.03-.08.11-.07.2l.2,2.21c.02.2-.11.27-.26.19-.04-.02-.07-.05-.11-.09l-1.66-1.83s-.07-.07-.11-.09c-.04-.02-.07-.03-.11-.04l-1.66-.08s-.07-.01-.11-.04c-.15-.09-.28-.31-.26-.49l.22-1.96c0-.08-.02-.18-.07-.28l-1.23-2.26c-.14-.25-.06-.49.14-.42l1.79.62c.07.03.14,0,.18-.05l.9-1.31c.05-.07.14-.07.23-.02Z"/>
              <g class="cls-17">
                <path class="cls-50" d="m55.63,48.48l1.09-.64c.2.16.28.49.14.58l-1.09.64c.14-.09.06-.42-.14-.58Z"/>
                <g class="cls-33">
                  <g class="cls-17">
                    <path class="cls-50" d="m55.63,48.48l1.09-.64c.2.16.28.49.14.58l-1.09.64c.14-.09.06-.42-.14-.58h0Z"/>
                  </g>
                </g>
              </g>
            </g>
            <g>
              <g class="cls-17">
                <g class="cls-17">
                  <path class="cls-26" d="m40.36,51.57l1.15-.67c1.18-.69,2.82-.59,4.63.45l-1.15.67c-1.81-1.04-3.44-1.14-4.63-.45Z"/>
                  <g class="cls-59">
                    <g class="cls-17">
                      <path class="cls-26" d="m40.36,51.57l1.15-.67c1.18-.69,2.82-.59,4.63.45l-1.15.67c-1.81-1.04-3.44-1.14-4.63-.45h0Z"/>
                    </g>
                  </g>
                </g>
                <g class="cls-17">
                  <path class="cls-26" d="m50.72,66.75l-1.15.67c1.17-.68,1.89-2.12,1.9-4.17.01-4.13-2.89-9.15-6.48-11.22l1.15-.67c3.59,2.07,6.49,7.1,6.48,11.22,0,2.05-.73,3.49-1.9,4.17Z"/>
                  <g class="cls-24">
                    <g class="cls-17">
                      <path class="cls-26" d="m44.99,52.02l1.15-.67c3.59,2.07,6.49,7.1,6.48,11.22,0,2.05-.73,3.49-1.9,4.17l-1.15.67c1.17-.68,1.89-2.12,1.9-4.17.01-4.13-2.89-9.15-6.48-11.22h0Z"/>
                    </g>
                  </g>
                </g>
                <path class="cls-37" d="m44.99,52.02c3.59,2.07,6.49,7.1,6.48,11.22-.01,4.13-2.93,5.79-6.52,3.72-3.59-2.07-6.49-7.1-6.48-11.22.01-4.13,2.93-5.79,6.52-3.72Z"/>
              </g>
              <g>
                <g>
                  <path class="cls-20" d="m46.85,58.93c0,.67.47,1.47,1.04,1.81s1.04.06,1.04-.6-.47-1.47-1.04-1.81c-.58-.33-1.04-.06-1.04.6Z"/>
                  <path class="cls-20" d="m41.05,55.58c0,.67.47,1.47,1.04,1.81.58.33,1.04.06,1.04-.6s-.47-1.47-1.04-1.81c-.58-.33-1.04-.06-1.04.6Z"/>
                </g>
                <path class="cls-20" d="m46.35,64.5c.91,0,1.61-.58,1.85-1.57.03-.13-.05-.26-.18-.29-.13-.03-.26.05-.29.18-.22.92-.89,1.36-1.78,1.16-.97-.21-2.08-1.16-2.84-2.4-.42-.69-.72-1.47-.86-2.18-.02-.13-.15-.22-.28-.19-.13.02-.22.15-.19.28.15.78.47,1.59.92,2.34.83,1.38,2.04,2.38,3.14,2.63.18.04.35.06.51.06Z"/>
                <g>
                  <path class="cls-66" d="m49.03,64.03l.88.51c.27.15.49.03.49-.28h0c0-.31-.22-.69-.49-.84l-.88-.51c-.27-.15-.49-.03-.49.28h0c0,.31.22.69.49.84Z"/>
                  <path class="cls-66" d="m40.06,58.85l.88.51c.27.15.49.03.49-.28h0c0-.31-.22-.69-.49-.84l-.88-.51c-.27-.15-.49-.03-.49.28h0c0,.31.22.69.49.84Z"/>
                </g>
              </g>
            </g>
            <g>
              <g class="cls-17">
                <g class="cls-17">
                  <path class="cls-26" d="m72.09,59.44l.8-.47c.82-.48,1.96-.41,3.22.31l-.8.47c-1.26-.73-2.39-.79-3.22-.31Z"/>
                  <g class="cls-12">
                    <g class="cls-17">
                      <path class="cls-26" d="m72.09,59.44l.8-.47c.82-.48,1.96-.41,3.22.31l-.8.47c-1.26-.73-2.39-.79-3.22-.31h0Z"/>
                    </g>
                  </g>
                </g>
                <g class="cls-17">
                  <path class="cls-26" d="m79.29,69.98l-.8.47c.81-.47,1.31-1.47,1.32-2.9,0-2.87-2.01-6.36-4.5-7.8l.8-.47c2.5,1.44,4.51,4.93,4.5,7.8,0,1.42-.51,2.43-1.32,2.9Z"/>
                  <g class="cls-74">
                    <g class="cls-17">
                      <path class="cls-26" d="m75.31,59.75l.8-.47c2.5,1.44,4.51,4.93,4.5,7.8,0,1.42-.51,2.43-1.32,2.9l-.8.47c.81-.47,1.31-1.47,1.32-2.9,0-2.87-2.01-6.36-4.5-7.8h0Z"/>
                    </g>
                  </g>
                </g>
                <path class="cls-37" d="m75.31,59.75c2.5,1.44,4.51,4.93,4.5,7.8,0,2.87-2.04,4.02-4.53,2.58-2.5-1.44-4.51-4.93-4.5-7.8,0-2.87,2.04-4.02,4.53-2.58Z"/>
              </g>
              <g>
                <g>
                  <path class="cls-20" d="m76.6,64.55c0,.46.32,1.02.72,1.26.4.23.72.04.72-.42s-.32-1.02-.72-1.26c-.4-.23-.72-.04-.72.42Z"/>
                  <path class="cls-20" d="m72.57,62.22c0,.46.32,1.02.72,1.26s.72.04.72-.42-.32-1.02-.72-1.26c-.4-.23-.72-.04-.72.42Z"/>
                </g>
                <path class="cls-20" d="m76.26,68.43c.63,0,1.12-.4,1.29-1.09.02-.09-.03-.18-.12-.2-.09-.02-.18.03-.2.12-.16.64-.62.94-1.24.81-.67-.15-1.45-.8-1.97-1.67-.29-.48-.5-1.02-.6-1.51-.02-.09-.11-.15-.2-.13s-.15.11-.13.2c.1.54.32,1.1.64,1.63.58.96,1.42,1.66,2.19,1.83.12.03.24.04.35.04Z"/>
                <g>
                  <path class="cls-66" d="m78.12,68.1l.61.35c.19.11.34.02.34-.2h0c0-.21-.15-.48-.34-.59l-.61-.35c-.19-.11-.34-.02-.34.2h0c0,.21.15.48.34.59Z"/>
                  <path class="cls-66" d="m71.88,64.5l.61.35c.19.11.34.02.34-.2h0c0-.21-.15-.48-.34-.59l-.61-.35c-.19-.11-.34-.02-.34.2h0c0,.21.15.48.34.59Z"/>
                </g>
              </g>
            </g>
          </g>
          <g>
            <path class="cls-51" d="m10.21,60.4c-2.1,1.21-2.1,3.17,0,4.39,2.1,1.21,5.5,1.21,7.6,0,2.1-1.21,2.1-3.17,0-4.39-2.1-1.21-5.5-1.21-7.6,0Z"/>
            <g>
              <g class="cls-17">
                <polygon class="cls-20" points="20.33 32.39 19.91 32.15 11.23 61.57 11.64 61.81 20.33 32.39"/>
                <polygon class="cls-56" points="20.88 32.33 20.47 32.09 19.91 32.15 20.33 32.39 20.88 32.33"/>
                <polygon class="cls-83" points="20.33 32.39 11.64 61.81 12.2 61.75 20.88 32.33 20.33 32.39"/>
              </g>
              <g class="cls-17">
                <polygon class="cls-28" points="23.76 38.27 24.09 38.08 24.09 37.59 23.76 37.78 23.76 38.27"/>
                <polygon class="cls-44" points="23.76 37.78 24.09 37.59 19.79 35.11 19.47 35.3 23.76 37.78"/>
                <polygon class="cls-20" points="19.47 35.3 19.12 35.59 23.76 38.27 23.76 37.78 19.47 35.3"/>
              </g>
              <g class="cls-17">
                <polygon class="cls-28" points="22.69 41.82 23.02 41.63 23.02 41.15 22.7 41.33 22.69 41.82"/>
                <polygon class="cls-44" points="22.7 41.33 23.02 41.15 18.72 38.66 18.4 38.85 22.7 41.33"/>
                <polygon class="cls-20" points="18.4 38.85 18.05 39.14 22.69 41.82 22.7 41.33 18.4 38.85"/>
              </g>
              <g class="cls-17">
                <polygon class="cls-28" points="21.66 45.39 21.98 45.2 21.99 44.71 21.66 44.9 21.66 45.39"/>
                <polygon class="cls-44" points="21.66 44.9 21.99 44.71 17.69 42.23 17.36 42.42 21.66 44.9"/>
                <polygon class="cls-20" points="17.36 42.42 17.01 42.71 21.66 45.39 21.66 44.9 17.36 42.42"/>
              </g>
              <g class="cls-17">
                <polygon class="cls-28" points="20.59 48.94 20.91 48.75 20.91 48.26 20.59 48.45 20.59 48.94"/>
                <polygon class="cls-44" points="20.59 48.45 20.91 48.26 16.62 45.78 16.29 45.97 20.59 48.45"/>
                <polygon class="cls-20" points="16.29 45.97 15.94 46.25 20.59 48.94 20.59 48.45 16.29 45.97"/>
              </g>
              <g class="cls-17">
                <polygon class="cls-28" points="19.55 52.5 19.88 52.31 19.88 51.82 19.55 52.01 19.55 52.5"/>
                <polygon class="cls-44" points="19.55 52.01 19.88 51.82 15.58 49.34 15.25 49.53 19.55 52.01"/>
                <polygon class="cls-20" points="15.25 49.53 14.91 49.82 19.55 52.5 19.55 52.01 15.25 49.53"/>
              </g>
              <g class="cls-17">
                <polygon class="cls-28" points="19.55 52.5 19.88 52.31 19.88 51.82 19.55 52.01 19.55 52.5"/>
                <polygon class="cls-44" points="19.55 52.01 19.88 51.82 15.58 49.34 15.25 49.53 19.55 52.01"/>
              </g>
              <g class="cls-17">
                <polygon class="cls-28" points="18.51 56.07 18.84 55.88 18.84 55.39 18.52 55.58 18.51 56.07"/>
                <polygon class="cls-44" points="18.52 55.58 18.84 55.39 14.54 52.91 14.22 53.1 18.52 55.58"/>
                <polygon class="cls-20" points="14.22 53.1 13.87 53.38 18.51 56.07 18.52 55.58 14.22 53.1"/>
              </g>
              <g class="cls-17">
                <polygon class="cls-28" points="17.46 59.62 17.79 59.44 17.79 58.95 17.46 59.14 17.46 59.62"/>
                <polygon class="cls-44" points="17.46 59.14 17.79 58.95 13.49 56.47 13.16 56.65 17.46 59.14"/>
                <polygon class="cls-20" points="13.16 56.65 12.82 56.94 17.46 59.62 17.46 59.14 13.16 56.65"/>
              </g>
              <g class="cls-17">
                <polygon class="cls-28" points="16.41 63.18 16.73 62.99 16.73 62.5 16.41 62.69 16.41 63.18"/>
                <polygon class="cls-44" points="16.41 62.69 16.73 62.5 12.44 60.02 12.11 60.21 16.41 62.69"/>
                <polygon class="cls-20" points="12.11 60.21 11.76 60.5 16.41 63.18 16.41 62.69 12.11 60.21"/>
              </g>
              <g class="cls-17">
                <polygon class="cls-20" points="24.92 35.06 24.5 34.83 15.82 64.25 16.23 64.49 24.92 35.06"/>
                <polygon class="cls-56" points="25.47 35.01 25.06 34.77 24.5 34.83 24.92 35.06 25.47 35.01"/>
                <polygon class="cls-83" points="24.92 35.06 16.23 64.49 16.79 64.43 25.47 35.01 24.92 35.06"/>
              </g>
            </g>
            <g id="man">
              <g id="man-2" data-name="man">
                <path class="cls-50" d="m14.82,58.71c.05-.07.1-.03.17-.03.08,0,.17-.03.25-.07.1-.05.19-.1.28-.16.24-.14.51-.23.78-.27.12-.02.26-.02.38.02.09.03.18.08.25.14.06.05.1.12.11.2.01.07-.01.15-.03.22-.02.07-.04.13-.07.19-.07.12-.19.19-.3.26-.13.08-.28.15-.43.18-.12.02-.25.02-.38.06-.08.03-.16.07-.22.12-.05.04-.1.1-.17.12-.14.04-.29.06-.43.03-.28-.06-.45-.29-.38-.57.03-.1.07-.2.12-.29.03-.06.05-.11.07-.14Z"/>
              </g>
              <g>
                <g id="man-3" data-name="man">
                  <path class="cls-43" d="m12.57,60.33c.03-.08.09-.05.16-.07.08-.02.16-.07.23-.12.08-.07.16-.14.24-.21.21-.19.44-.33.7-.43.17-.06.34-.12.52-.05.1.04.19.1.25.18.06.08.06.18.06.28,0,.07,0,.13-.03.2-.04.13-.14.23-.24.32-.11.11-.24.21-.38.27-.12.05-.24.07-.35.14-.07.04-.14.1-.19.17-.04.05-.08.12-.14.15-.12.07-.27.12-.41.12-.28,0-.5-.18-.5-.48,0-.1.03-.21.05-.31.02-.06.02-.11.04-.15Z"/>
                </g>
                <path class="cls-75" d="m14.08,53.27c0-.09-.01-.14-.12-.18-.31-.1-.62-.2-.94-.27-.19-.05-.38-.08-.56-.08l-.41-.37c-.05.36-.08.72-.04,1.08.09.78.29,2.6.35,3.46.04.59.04,1.17.04,1.76,0,.57.05,1.15.09,1.72,0,.13.02.26.12.36.09.09.23.15.36.17.21.02.42-.05.57-.2.09-.09.09-.28.1-.4.01-.11.02-.23.02-.34.01-.33.01-.65.02-.98.01-.34.03-.69.05-1.03.02-.23.03-.45.05-.68.01-.12.02-.25.03-.37.04-.35.09-.7.13-1.05.06-.66.1-1.33.12-1.99,0-.17,0-.33,0-.5,0-.04,0-.07,0-.1Z"/>
                <path class="cls-54" d="m14.74,51.79c-.3-.09-.82.45-1.06.58-.21.12-.44.23-.66.33-.1.05-.22.13-.32.15-.09.02-.19-.01-.28,0-.08.02-.33-.03-.37.04-.05.11.2.33.27.42.65.83,1.63,1.31,2.26,2.15.26.35.44.76.67,1.13.03.05.06.09.1.13.07.06.17.08.26.1.34.05.3-.16.49-.47.15-.24.57-.13.59-.41.04-.41-.19-.77-.32-1.02-.48-.95-.91-1.92-1.4-2.86-.05-.09-.1-.19-.19-.25-.02-.01-.03-.02-.05-.02Z"/>
                <g>
                  <path class="cls-6" d="m15.83,48.43c0,.1,0,.29-.1.35-.08.05-.25.03-.34.04-.28.03-.56.04-.84.06-.13,0-.25.02-.38.02-.37.01-.74-.01-1.1-.07-.14-.02-.37-.06-.49-.15-.11-.09-.12-.24-.1-.39.03-.27.16-.53.42-.63.25-.1.51-.06.76-.03.58.07,1.16.19,1.72.33.1.03.2.05.29.12.1.07.16.2.17.35Z"/>
                  <path class="cls-38" d="m20.18,47.47s0,.02,0,.03c-.02.04-.09.03-.11,0-.02-.03-.02-.06-.03-.09-.01-.07-.04-.14-.07-.2,0,0,0-.02-.02-.02,0,0-.02,0-.02,0-.01,0-.02,0-.03,0,0,0-.02,0-.03,0-.01,0-.02.02-.03.04-.03.06-.08.09-.14.13-.05.04-.07.09-.11.14-.09.12-.18.25-.25.38-.07.13-.12.24-.14.38-.02.11-.03.22-.02.34,0,.08.01.18.07.24.07.06.17.02.23-.03.1-.07.16-.18.25-.26.04-.04.07-.09.1-.12.05-.04.12-.06.17-.08.13-.05.26-.12.37-.22.11-.09.21-.17.23-.31.02-.15.02-.3-.03-.45-.02-.08-.06-.17-.13-.22-.07-.05-.17-.07-.24-.02-.02.01-.04.03-.04.06,0,.02,0,.05,0,.07,0,.04.03.15.02.21Z"/>
                  <path class="cls-4" d="m15.73,48.11s0-.02,0-.03c0-.15,0-.33-.09-.46-.08-.12-.23-.18-.34-.25-.38-.25-.79-.45-1.22-.6-.65-.24-1.32-.71-2.01-.32-.07.04-.14.09-.2.14-.36.35-.32.91-.26,1.36.07.58.24,1.14.35,1.72.02.12.04.24.05.36.05.42.01.85.07,1.26.05.36-.06.77-.11,1.13-.03.22-.05.47.07.66.13.2.39.28.63.33.87.2,1.79.35,2.63.05.15-.05.3-.14.36-.28.04-.1.03-.21.02-.31-.12-1.17-.15-2.35-.03-3.52.04-.41.1-.83.1-1.25Z"/>
                  <path class="cls-41" d="m14.26,48.75c-.08-.25-.11-.52.01-.78.12-.26.35-.45.62-.53.24-.07.59-.05.74.18.09.13.09.31.09.46,0,0,0,.02,0,.03,0,.42-.05.83-.1,1.25-.12,1.17-.09,2.35.03,3.52.01.1.02.21-.02.31-.03.08-.09.14-.16.18.01-.47-.03-.94-.11-1.4-.11-.63-.3-1.25-.53-1.85-.12-.3-.25-.6-.38-.89-.07-.15-.15-.31-.2-.47Z"/>
                  <path class="cls-42" d="m14.4,46.9c-.12-.05-.24-.1-.33-.13-.45-.16-.91-.44-1.38-.47-.23.34-.04.74.29.92.42.21.98.19,1.38-.1.08-.06.14-.15.05-.22Z"/>
                  <path class="cls-4" d="m15.92,47.78c-.24-.2-.56-.37-.88-.28-.12.03-.23.11-.32.19-.08.07-.15.14-.2.22-.13.2-.15.45-.08.67.09.28.28.42.51.57.21.13.41.27.61.41.4.28.79.58,1.22.8.25.13.55.25.82.16.18-.06.33-.22.39-.4.13-.45-.2-.59-.24-.63-1.36-1.25-1.85-1.74-1.81-1.71Z"/>
                  <path class="cls-4" d="m19.67,48.12c.07.07.19.21.17.33-.02.09-.16.2-.22.26-.18.21-.38.42-.57.62-.09.09-.17.19-.26.28-.26.26-.55.5-.85.71-.12.08-.31.22-.46.23-.14,0-.25-.09-.34-.21-.16-.22-.24-.5-.13-.74.11-.25.33-.39.53-.54.47-.35.97-.66,1.48-.94.09-.05.18-.1.29-.11.12-.02.25.04.36.13Z"/>
                  <path class="cls-38" d="m14.24,46.2c.03-.17.16-.13.09-.29-.06-.13-.14-.25-.25-.34s-.26-.14-.4-.13c-.05,0-.08.03-.13.03-.14,0-.27-.03-.41,0-.13.02-.26.03-.26.18,0,.2,0,.4-.06.6-.03.11-.09.21-.1.32-.02.22.14.42.34.52.24.12.52.11.78.07.13-.02.31-.04.39-.17.06-.09.03-.22.02-.32-.02-.16-.03-.31-.01-.46Z"/>
                  <g>
                    <path class="cls-38" d="m14.82,43.99c.08.1.15.21.17.34.04.29-.07.59-.01.88.06.28-.06.92-.61,1.08-.28.08-.83-.01-1.01-.1-.24-.11-.4-.35-.54-.57-1.16-1.84,1.22-2.6,2.01-1.64Z"/>
                    <path class="cls-64" d="m12.47,43.63c.06-.06.13-.11.21-.15.03-.01.05-.02.07-.04.01-.02.02-.04.03-.06.04-.08.12-.14.2-.19.31-.17.68-.18,1.03-.13.12.02.24.04.35.09.13.05.24.14.34.23.14.13.28.28.35.46.03.08.04.17.07.26.02.08,0,.17-.07.22-.03.02-.06.03-.09.05-.12.08-.14.26-.19.39-.03.08-.1.12-.11.21-.02.09-.02.18-.05.26-.01.04-.04.08-.08.09-.02,0-.03,0-.05-.01-.05-.03-.08-.09-.09-.14s-.03-.11-.06-.16c0,0-.01-.01-.02-.02,0,0-.01,0-.02,0-.06.01-.1.06-.13.11-.03.06-.05.13-.07.2-.03.11-.03.2-.05.3-.01.11-.04.22-.12.3-.17.18-.49.17-.71.12-.08-.02-.16-.04-.23-.07-.17-.08-.28-.24-.39-.39-.1-.14-.2-.28-.25-.45-.03-.09-.04-.19-.06-.28-.05-.39-.09-.89.19-1.18Z"/>
                    <path class="cls-38" d="m14.19,44.8c-.22-.05-.31.22-.19.45.03.07.1.13.16.19.34.39.5.05.39-.09-.25-.31-.08-.5-.35-.56Z"/>
                    <path class="cls-1" d="m14.2,45.23s-.25-.21-.06-.29c.05-.02.1.03.1.08,0,.03-.01.05-.01.08,0,.02,0,.03.01.05.02.04.09.09.06.14-.02.05-.08-.04-.1-.05Z"/>
                  </g>
                </g>
                <path class="cls-54" d="m16.59,56.34s0,.02-.01.04c-.21.55-.37,1.12-.55,1.68-.12.37-.39,1.39-.83,1.39-.21,0-.62-.09-.67-.28-.18-.73.45-2.84.63-3.44.05-.15.05-.09.09-.24.03-.12.04-.31.12-.41.15-.19.45.05.59.15.21.15.5.29.66.5.16.21.05.43-.03.63Z"/>
              </g>
            </g>
          </g>
          <g id="woman_sit" data-name="woman sit">
            <path class="cls-51" d="m10.5,10.97c-1.35.78-1.35,2.05,0,2.83,1.35.78,3.54.78,4.9,0,1.35-.78,1.35-2.05,0-2.83-1.35-.78-3.54-.78-4.9,0Z"/>
            <path class="cls-38" d="m10.55,13.71c-.22.18-.4,1.27.47,1.24.45-.01.84-.32,1.23-.56.22-.14.11-.38.34-.5,1.07-.55,2.43-.84,2.23-2.13-.02-.14-.06-.75-.17-.82-.08-.05-.53.11-.63.13-.98.16-1.1.17-1.26.28-.03.73-.14.86-.54,1.1-.18.11-1.51,1.14-1.67,1.27Z"/>
            <g>
              <path class="cls-11" d="m10.31,18.16v-.8h-.22l.06.81c.05.04.11.05.16,0Z"/>
              <path class="cls-34" d="m8.85,18.03c-.11.13-.25.34-.34.49-.03.04-.05.09-.04.13,0,.05.04.09.08.11.04.02.09.03.14.04.19.03.38.02.56-.03.1-.03.2-.07.27-.14.1-.1.14-.26.18-.4.04-.14.1-.3.23-.36.04-.02.08-.03.11-.05.27-.13.33-.49.18-.73-.08-.13-.19-.12-.32-.07-.15.07-.24.2-.36.31-.02.02-.03.03-.05.05-.12.1.05-.45-.02-.3-.2.42-.5.79-.63.95Z"/>
              <path class="cls-7" d="m9.63,12.52c-.09.08-.15.2-.17.34-.07.49-.05,1.04-.04,1.53,0,.46.1.91.1,1.36,0,.29-.04,1.09-.1,1.37-.03.15.24.26.38.19.09-.05.28-.17.29-.27.06-.6.38-1.14.53-1.72.12-.48.13-1.02.04-1.51-.08-.41-.1-.92-.4-1.24-.2-.21-.46-.2-.63-.05Z"/>
              <path class="cls-7" d="m9.45,16.95c-.01.1-.03.2-.06.3-.01.05-.02.09-.03.13-.02.05-.04.09-.07.14-.05.08-.1.16-.15.24-.05.07-.12.14-.16.22-.03.06-.06.17,0,.21.04.02.08.02.13.01.13-.03.24-.12.33-.21s.18-.2.29-.27c.07-.05.15-.08.22-.13.14-.1.26-.25.24-.43,0-.09-.07-.17-.07-.26,0-.09,0-.19-.05-.27l-.61.33Z"/>
            </g>
            <g>
              <path class="cls-34" d="m9.57,18.96s0,.05,0,.08c0,.09.03.18.09.24.05.05.13.06.2.06.25,0,.45-.21.57-.41.14-.24.2-.56.4-.76.05-.05.1-.08.15-.13.07-.08.1-.18.11-.29,0-.09,0-.18-.05-.26-.1-.15-.3-.15-.44-.08-.11.05-.26.02-.34.12-.1.11-.08.13-.14.24-.17.29-.36.7-.47,1.01-.02.06-.04.12-.05.18Z"/>
              <path class="cls-58" d="m10.76,12.41c-.17,1.14-.09,2.55-.24,3.69-.04.31-.32,1.58-.43,1.87-.06.16.36.25.52.19.11-.04.31-.47.33-.58.16-.64.58-1.18.83-1.79.26-.63.35-1.58.22-2.24-.03-.14-.08-.29-.21-.34l-1.03-.8Z"/>
              <path class="cls-58" d="m10.36,17.46c-.03.07-.14.06-.17.14-.03.09-.1.3-.14.38-.05.1-.09.23-.1.35,0,.1.02.17.1.22.09.07.19.07.28,0,.1-.07.18-.16.25-.25.06-.09.13-.17.18-.27.09-.19.19-.4.22-.61,0-.02,0-.3,0-.3-.04.01-.08.04-.12.06-.15.08-.3.16-.46.24-.06.03,0-.03-.04.03Z"/>
            </g>
            <g>
              <g>
                <path class="cls-50" d="m12.75,9.24c.21-.48.4-1.12.67-1.91.07-.21.11-.44.12-.67,0-.23-.07-.42-.18-.63-.05-.09-.12-.19-.22-.22-.1-.02-.19.03-.26.09-.46.34-.53.81-.64,1.36-.1.51-.08,1.17-.13,1.68,0,.1-.13.99.19.84.16-.07.33-.29.44-.55Z"/>
                <path class="cls-50" d="m12.65,8.76c-.11-.08-.24-.56-.31-.46-.05.07-.58.91-.8,1.22.3.21.56.44.8.7.33-.4.63-.85.63-1.13,0-.14-.17-.22-.32-.33Z"/>
                <path class="cls-1" d="m15.87,9.73h0c-.02.2-.04.39-.05.59,0-.2.03-.39.05-.59Z"/>
                <path class="cls-1" d="m15.82,10.32c0,.12,0,.24,0,.36,0,0,0,0,0,0,0-.12,0-.24,0-.36Z"/>
                <path class="cls-54" d="m10.11,13.95c.18.12.37.24.57.34.35.18.82.36,1.22.32.34-.03.59-.4.9-.52.96-.38,1.37-.47,1.99-.96.61-.48.65-1.22.55-1.95-.02-.16-.04-.32-.07-.47-.02-.09-.03-.25-.12-.31-.1-.06-.64.13-.76.15-1.17.19-1.61-.24-1.8-.11-.5.34-1.02.65-1.55.96-.41.24-.8.49-1.2.74-.2.13-.34.35-.44.56-.09.18-.13.5-.02.68.06.09.15.16.24.23.16.12.32.24.48.35Z"/>
              </g>
              <path class="cls-1" d="m15.22,6.06c-.27-.12-.57-.2-.85-.27-.05-.01-.09-.02-.14-.03-.35-.07-.72-.06-1.04.08,0,0,0,0-.01,0v2.13h2.04v-1.93Z"/>
              <path class="cls-77" d="m16.14,6.99c-.04-.49-.6-.76-1.01-1.01-.06.4-.23.77-.64.91-.22.09-.5,0-.62-.19-.21-.29-.19-.64-.15-1.01-.18.03-.37.08-.53.15-.16.07-.3.19-.4.33-.07.1-.06.28-.09.4-.04.15-.09.31-.15.45-.07.18-.2.34-.26.52-.06.17-.02.45.03.62.03.09.08.18.12.27.07.14.14.28.2.42.06.13.11.27.12.41.01.12,0,.25-.02.37-.05.34-.29.79,0,1.08.19.18.41.32.64.41.11.04.22.08.34.1.48.09,1.04-.04,1.43-.34.04-.03.07-.05.08-.1,0-.03,0-.09,0-.12,0-.12-.02-.25-.02-.38-.01-.26-.01-.53.03-.79.13-.79.65-1.46.87-2.23.03-.1.04-.2.03-.29Z"/>
              <path class="cls-50" d="m15.99,6.6c-.6.13-.51,1.24-.83,1.73-.23.38-.73.29-1.14.32.26.15.44.38.44.67.04.62-.01,1.27-.14,1.9.31-.04.61-.15.86-.34.04-.03.07-.05.08-.1,0-.03,0-.09,0-.12,0-.12-.02-.25-.02-.38-.01-.26-.02-.53.03-.79.13-.79.65-1.46.87-2.23.03-.1.04-.2.03-.29-.01-.14-.07-.27-.16-.38Z"/>
              <path class="cls-6" d="m14.09,6.88c-.03.08-.37.14-.41.13-.04,0-.07-.06-.08-.1-.1-.25-.16-.51-.16-.78,0-.08.01-.18.08-.24.06-.05.16-.06.23-.03.08.03.05.04.02.11-.1.26.14.77.32.9Z"/>
              <path class="cls-64" d="m14.31,3.56c0,.43.35.78.78.78.32,0,.59-.19.71-.46.04-.1.07-.2.07-.32,0-.43-.35-.78-.78-.78-.06,0-.13,0-.19.02-.34.08-.59.39-.59.76Z"/>
              <g>
                <path class="cls-1" d="m15.03,6.07c.02.75-1.29.77-1.27.06.03-.99.08-1.1.52-1.25.12-.04.24-.07.37-.08.46,0,.28.24.26.41-.05.52.12.59.13.86Z"/>
                <path class="cls-7" d="m15.03,6.07c0-.27-.18-.34-.13-.86.02-.17.19-.42-.26-.41-.13,0-.25.03-.37.08-.43.15-.49.26-.51,1.21.36-.04.69-.47,1.06-.21.1.08.17.18.21.3,0-.03,0-.07,0-.1Z"/>
                <path class="cls-38" d="m14.48,5.57s.08-.06.11-.1c.13-.12.27-.25.36-.4.28-.48.29-1.11-.11-1.53-.28-.29-.73-.42-1.13-.3-.11.03-.21.08-.31.13-.08.04-.17.09-.23.16-.04.05-.08.1-.1.16-.03.06-.06.13-.08.19-.08.31.13.62.01.93-.03.07-.06.13-.09.19-.02.07-.03.14,0,.2.03.06.08.09.1.15.03.09.05.18.07.26.03.1.05.19.1.28.12.21.29.22.5.14.28-.11.55-.27.78-.47Z"/>
                <path class="cls-38" d="m13.64,5.03c.09-.38.53-.5.72-.82.16-.25.26-.52.32-.8-.28-.19-.64-.26-.97-.17-.11.03-.21.08-.31.13-.08.04-.17.09-.23.16-.04.05-.08.1-.1.16-.03.06-.06.13-.08.19-.08.31.13.62.01.93-.03.07-.06.13-.09.19-.02.07-.03.14,0,.2.03.06.08.09.1.15.03.09.05.18.07.26.03.1.05.19.1.28.08.15.19.2.33.19.24-.29.03-.71.12-1.06Z"/>
                <path class="cls-58" d="m14.84,3.55c-.05-.05-.1-.1-.16-.14-.06.28-.16.55-.32.8-.19.31-.63.44-.72.82-.09.35.12.77-.12,1.06.05,0,.11-.02.17-.05.28-.11.55-.27.78-.47.04-.03.08-.06.11-.1.13-.12.27-.25.36-.4.28-.48.29-1.11-.11-1.53Z"/>
                <path class="cls-20" d="m15.4,4.13c-.02-.6-.21-.69-.43-.89-.21-.2-.52-.27-.8-.26-.29,0-.58.11-.83.26,0,0-.02.01-.03.02-.18.12-.32.24-.35.46,0,.06-.04.19.01.24.04.04.25.02.29.02.13,0,.24-.09.37-.07.1.01.18.09.21.18.02.07,0,.16.05.22.04.07.13.09.19.15.12.11.11.34.26.41.09.05.2.01.29,0,.1-.02.22-.02.27.07.02.03,0,.06,0,.1,0,.05-.01.23-.01.23,0,0,.04,0,.06-.01.07-.04.13-.13.17-.19.19-.27.28-.6.27-.93Z"/>
                <path class="cls-58" d="m14.85,4.68c.2-.01.26.24.12.44-.04.06-.11.11-.17.15-.37.31-.46-.03-.34-.13.27-.25.14-.44.39-.46Z"/>
                <path class="cls-1" d="m14.72,5.14s.26-.16.1-.25c-.04-.03-.09.01-.1.06,0,.02,0,.05,0,.07,0,.01,0,.03-.02.04-.02.03-.09.07-.08.12.01.04.08-.02.09-.03Z"/>
              </g>
              <path class="cls-6" d="m14.09,6.88s.19.22.37.32c.04.03.08.06.13.03.23-.13.65-.65.69-.94.02-.1-.03-.24-.11-.31-.01-.01-.15-.07-.17-.08,0,.02-.02.22-.08.36-.14.33-.49.49-.83.61Z"/>
            </g>
            <g class="cls-17">
              <polygon class="cls-20" points="8.7 12.14 8.7 12.44 12.24 14.5 12.24 14.19 8.7 12.14"/>
              <polygon class="cls-64" points="12.24 14.19 12.24 14.5 14.44 13.23 14.44 12.92 12.24 14.19"/>
              <g>
                <polygon class="cls-20" points="8.7 12.14 12.24 14.19 14.44 12.92 10.9 10.87 8.7 12.14"/>
                <polygon class="cls-57" points="11.46 11.94 12.43 12.49 12.95 12.19 11.99 11.64 11.46 11.94"/>
                <polygon class="cls-57" points="13.47 13.27 10.24 11.39 9.08 12.05 12.32 13.93 13.47 13.27"/>
              </g>
            </g>
            <path class="cls-6" d="m16.28,10.1c.1-.53.16-1.2.26-2.05.03-.23.02-.46-.03-.69-.05-.23-.16-.41-.31-.59-.07-.08-.16-.17-.27-.17-.1,0-.18.08-.24.15-.38.44-.5,1.07-.49,1.63.01.53-.05,1.05-.03,1.58,0,.1,0,.21.02.31.11.47.49.69.77.48.14-.1.26-.36.32-.65Z"/>
            <g>
              <g>
                <g>
                  <path class="cls-58" d="m11.26,11.34c-.03.06-.13.21-.18.26-.05.05-.01-.14-.08-.14-.1,0-.2.07-.28,0-.06-.05-.12-.1-.16-.17-.04-.06-.07-.14-.07-.22,0-.03,0-.06.03-.09.01-.02.03-.03.04-.04.09-.08.17-.15.26-.23.02-.02.04-.03.06-.05.03-.02.06-.02.1-.03.12,0,.24.05.32.14.04.04.08.1.1.16.01.05-.02.1-.04.15-.03.09-.06.18-.1.26Z"/>
                  <path class="cls-58" d="m11.37,11.1c0,.13.01.25.02.38,0,.05,0,.1,0,.15,0,.04-.03.07-.04.11-.01.03-.02.07-.03.1-.04.1-.14.16-.23.21-.04.02-.07.05-.12.05-.03,0-.06,0-.07-.03,0-.01,0-.03,0-.04,0-.04.01-.08.04-.11.03-.04.07-.06.1-.09.05-.06.05-.15.03-.22-.02-.07-.07-.14-.1-.21-.03-.07-.05-.16-.01-.23.01-.02.03-.05.05-.07.04-.05.09-.09.15-.12.05-.02.11-.03.16-.02.06.02.06.07.06.12Z"/>
                </g>
                <path class="cls-58" d="m10.78,11.26c.07-.03.22.12.23.16.03.1-.07.02-.2.22-.04.06-.08.12-.09.19-.01.05-.02.11-.06.13-.04.02-.08,0-.1-.04-.01.07-.12.01-.14-.06-.04-.14-.15-.01-.16-.25-.01,0-.03.01-.04.02-.16-.13.18-.52.32-.67.26-.27.32.15.25.3Z"/>
              </g>
              <path class="cls-50" d="m12.34,10.21c-.25-.25-.51-.49-.8-.7-.27.37-.51.77-.65,1.08-.13.29.43.57.57.42.11-.12.58-.44.88-.8Z"/>
              <g>
                <path class="cls-38" d="m12.96,12.43c-.06.03-.23.15-.28.21-.05.05.16,0,.16.08,0,.11-.07.23,0,.31.06.06.12.13.19.17.07.05.16.08.25.07.03,0,.07-.01.09-.03.02-.01.03-.03.05-.05.08-.1.16-.2.25-.3.02-.02.04-.04.05-.07.02-.03.02-.07.02-.11,0-.14-.07-.26-.17-.35-.05-.04-.12-.09-.18-.1-.05-.01-.11.03-.16.05-.1.04-.19.08-.29.13Z"/>
                <path class="cls-38" d="m13.21,12.29c-.14,0-.28,0-.43,0-.05,0-.11,0-.16.01-.04.01-.08.03-.12.05-.04.01-.07.02-.11.04-.1.05-.17.16-.23.26-.02.04-.05.08-.05.13,0,.03,0,.07.03.08.01,0,.03,0,.04,0,.04,0,.08-.02.12-.05.04-.03.06-.08.1-.12.06-.06.16-.06.25-.04.08.02.16.07.24.1.08.03.18.05.25,0,.03-.01.05-.03.07-.06.05-.05.1-.1.13-.17.02-.06.03-.12.01-.18-.02-.07-.08-.06-.14-.07Z"/>
              </g>
              <path class="cls-6" d="m13.66,12.71c.18.04.36-.08.5-.18.33-.24,1.94-1.58,2.05-2.21.03-.16-.15-.24-.29-.37-.11-.09-.66.02-.76.13-.15.18-1.34,1.38-1.75,1.99-.05.08-.11.17-.1.26,0,.15.22.34.35.37Z"/>
              <path class="cls-38" d="m13.06,12.96c.03-.08-.14-.24-.19-.25-.11-.03-.02.08-.23.23-.06.04-.13.09-.2.11-.05.01-.12.02-.14.08-.02.04,0,.09.05.11-.08.01-.01.13.07.15.15.04.02.16.29.17,0,.01-.01.03-.02.04.15.17.57-.22.73-.38.29-.3-.18-.35-.35-.26Z"/>
            </g>
            <g class="cls-17">
              <g>
                <path class="cls-64" d="m8.19,10.02l-.26.15s.04,0,.07,0l.26-.15s-.05-.02-.07,0Z"/>
                <g class="cls-39">
                  <g class="cls-17">
                    <path class="cls-64" d="m8,10.18l.26-.15s-.02-.01-.03-.01l-.26.15s.02,0,.03.01h0Z"/>
                    <path class="cls-64" d="m7.97,10.17l.26-.15s-.03,0-.04,0l-.26.15s.02,0,.04,0h0Z"/>
                    <polygon class="cls-64" points="7.93 10.17 8.19 10.02 8.19 10.02 7.93 10.17 7.93 10.17 7.93 10.17"/>
                  </g>
                </g>
              </g>
              <polygon class="cls-64" points="11.34 12.12 11.6 11.97 8.26 10.03 8 10.18 11.34 12.12"/>
              <g>
                <path class="cls-64" d="m11.44,12.3l.26-.15c0-.06-.05-.14-.1-.17l-.26.15c.06.03.1.11.1.17Z"/>
                <g class="cls-9">
                  <g>
                    <path class="cls-64" d="m11.39,12.16l.26-.15s-.03-.03-.05-.04l-.26.15s.03.03.05.04h0Z"/>
                    <path class="cls-64" d="m11.42,12.22l.26-.15s-.02-.04-.03-.06l-.26.15s.03.04.03.06h0Z"/>
                  </g>
                </g>
              </g>
              <path class="cls-20" d="m8,10.18c-.06-.03-.1,0-.1.06l.8,1.9,3.54,2.06-.79-1.9s-.02-.12-.11-.17l-3.34-1.94Z"/>
              <polygon class="cls-64" points="12.24 14.19 12.51 14.04 11.68 12.07 11.42 12.22 12.24 14.19"/>
            </g>
          </g>
          <g>
            <g class="cls-17">
              <g class="cls-17">
                <path class="cls-50" d="m52.3.69l.9-.52c.45-.26,1.08-.23,1.78.17l-.9.52c-.69-.4-1.32-.44-1.78-.17Z"/>
                <g class="cls-80">
                  <g class="cls-17">
                    <path class="cls-50" d="m52.3.69l.9-.52c.45-.26,1.08-.23,1.78.17l-.9.52c-.69-.4-1.32-.44-1.78-.17h0Z"/>
                  </g>
                </g>
              </g>
              <g class="cls-17">
                <path class="cls-50" d="m62.12,11.24l.9-.52c.45,1.62.83,8.29.93,8.82l-.9.52c-.1-.53-.48-7.2-.93-8.82Z"/>
                <g class="cls-55">
                  <g class="cls-17">
                    <path class="cls-50" d="m62.12,11.24l.9-.52c.45,1.62.83,8.29.93,8.82l-.9.52c-.1-.53-.48-7.2-.93-8.82h0Z"/>
                  </g>
                </g>
              </g>
              <polygon class="cls-50" points="62.13 8.42 63.03 7.9 63.02 10.72 62.12 11.24 62.13 8.42"/>
              <polygon class="cls-50" points="54.08 .87 54.98 .34 60.53 3.58 59.63 4.1 54.08 .87"/>
              <g class="cls-17">
                <path class="cls-50" d="m59.63,4.1l.9-.52c1.38.8,2.5,2.73,2.49,4.32l-.9.52c0-1.59-1.11-3.52-2.49-4.32Z"/>
                <g class="cls-81">
                  <g class="cls-17">
                    <path class="cls-50" d="m59.63,4.1l.9-.52c1.38.8,2.5,2.73,2.49,4.32l-.9.52c0-1.59-1.11-3.52-2.49-4.32h0Z"/>
                  </g>
                </g>
              </g>
              <path class="cls-13" d="m59.63,4.1c1.38.8,2.5,2.73,2.49,4.32v2.82c.44,1.62.82,8.29.92,8.82l-2.3-5.48c-.47-.61-1.02-1.1-1.57-1.42l-5.12-2.98c-1.38-.8-2.5-2.73-2.49-4.32v-3.56c.01-1.59,1.14-2.23,2.52-1.43l5.56,3.23Z"/>
            </g>
            <path class="cls-66" d="m59.22,6.34c-.64-1-1.9-1.84-2.44-1.01-.54-1.45-1.81-2.07-2.44-1.81-.96.4-.94,2.84,2.44,7.2,3.38-.45,3.4-2.87,2.44-4.38Z"/>
          </g>
          <g>
            <g class="cls-17">
              <g>
                <path class="cls-50" d="m66.76,13.57l.9-.52c.46-.27,1.1-.23,1.81.18l-.9.52c-.71-.41-1.34-.44-1.81-.18Z"/>
                <g class="cls-52">
                  <g class="cls-17">
                    <path class="cls-50" d="m66.76,13.57l.9-.52c.46-.27,1.1-.23,1.81.18l-.9.52c-.71-.41-1.34-.44-1.81-.18h0Z"/>
                  </g>
                </g>
              </g>
              <g>
                <path class="cls-50" d="m77.72,26.56l-.9.52c.46-.26.74-.83.74-1.63l.9-.52c0,.8-.28,1.36-.74,1.63Z"/>
                <g class="cls-79">
                  <g class="cls-17">
                    <path class="cls-50" d="m77.56,25.45l.9-.52c0,.8-.28,1.36-.74,1.63l-.9.52c.46-.26.74-.83.74-1.63h0Z"/>
                  </g>
                </g>
              </g>
              <polygon class="cls-50" points="77.57 21.84 78.47 21.32 78.46 24.93 77.56 25.45 77.57 21.84"/>
              <polygon class="cls-50" points="68.56 13.75 69.46 13.23 75.94 16.94 75.04 17.46 68.56 13.75"/>
              <g>
                <path class="cls-50" d="m75.04,17.46l.9-.52c1.4.81,2.53,2.77,2.53,4.38l-.9.52c0-1.61-1.13-3.57-2.53-4.38Z"/>
                <g class="cls-63">
                  <g class="cls-17">
                    <path class="cls-50" d="m75.04,17.46l.9-.52c1.4.81,2.53,2.77,2.53,4.38l-.9.52c0-1.61-1.13-3.57-2.53-4.38h0Z"/>
                  </g>
                </g>
              </g>
              <path class="cls-13" d="m75.04,17.46c1.4.81,2.53,2.77,2.53,4.38v3.61c-.01,1.61-1.15,2.26-2.56,1.45l-6.04-3.46c-.56-.33-1.12-.46-1.6-.4l-3.56.48c.1-.42,1.73-4.35,2.19-5.46v-2.86c.01-1.61,1.15-2.26,2.55-1.45l6.48,3.71Z"/>
            </g>
            <path class="cls-66" d="m74.2,19.21c-.64-1-1.9-1.84-2.44-1.01-.54-1.45-1.81-2.07-2.44-1.81-.96.4-.94,2.84,2.44,7.2,3.38-.45,3.4-2.87,2.44-4.38Z"/>
          </g>
        </g>
      </g>
    </g>
  </g>
</svg>