<?xml version="1.0" encoding="UTF-8"?>
<svg xmlns="http://www.w3.org/2000/svg" xmlns:xlink="http://www.w3.org/1999/xlink" viewBox="0 0 67.7 91.32">
  <defs>
    <style>
      .cls-1 {
        opacity: .8;
      }

      .cls-1, .cls-2, .cls-3 {
        fill: #bcc5df;
      }

      .cls-1, .cls-3 {
        mix-blend-mode: multiply;
      }

      .cls-4 {
        fill: #b09061;
      }

      .cls-5 {
        fill: #f3a984;
      }

      .cls-6 {
        clip-path: url(#clippath-20);
      }

      .cls-7 {
        clip-path: url(#clippath-11);
      }

      .cls-8 {
        fill: #13b7fd;
      }

      .cls-9 {
        clip-path: url(#clippath-16);
      }

      .cls-10 {
        fill: #fff;
      }

      .cls-11 {
        fill: #9aa7d2;
      }

      .cls-12 {
        fill: #1c232a;
      }

      .cls-13 {
        fill: #ee9c76;
      }

      .cls-14 {
        fill: #e9ecf5;
      }

      .cls-15 {
        clip-path: url(#clippath-2);
      }

      .cls-16 {
        fill: #ffde23;
      }

      .cls-17 {
        clip-path: url(#clippath-13);
      }

      .cls-18 {
        isolation: isolate;
      }

      .cls-19 {
        fill: #8763cd;
      }

      .cls-20 {
        clip-path: url(#clippath-25);
      }

      .cls-21 {
        clip-path: url(#clippath-15);
      }

      .cls-22 {
        clip-path: url(#clippath-6);
      }

      .cls-23 {
        clip-path: url(#clippath-26);
      }

      .cls-24 {
        fill: #ffb700;
      }

      .cls-25 {
        fill: #6d483a;
      }

      .cls-26 {
        clip-path: url(#clippath-7);
      }

      .cls-27 {
        clip-path: url(#clippath-21);
      }

      .cls-28 {
        clip-path: url(#clippath-1);
      }

      .cls-29 {
        clip-path: url(#clippath-4);
      }

      .cls-30 {
        fill: #ffbfa2;
      }

      .cls-31 {
        clip-path: url(#clippath-12);
      }

      .cls-32 {
        fill: #1499fc;
      }

      .cls-33 {
        fill: #0f1317;
      }

      .cls-34 {
        fill: #cddcfb;
      }

      .cls-35 {
        clip-path: url(#clippath-24);
      }

      .cls-36 {
        clip-path: url(#clippath-22);
      }

      .cls-37 {
        clip-path: url(#clippath-9);
      }

      .cls-38 {
        fill: #dde3f4;
      }

      .cls-39 {
        clip-path: url(#clippath);
      }

      .cls-40 {
        fill: #546282;
      }

      .cls-41 {
        fill: #f8b495;
      }

      .cls-42 {
        fill: none;
      }

      .cls-43 {
        clip-path: url(#clippath-19);
      }

      .cls-44 {
        clip-path: url(#clippath-31);
      }

      .cls-45 {
        fill: #251b29;
      }

      .cls-46 {
        clip-path: url(#clippath-3);
      }

      .cls-47 {
        fill: #ff445f;
      }

      .cls-48 {
        clip-path: url(#clippath-8);
      }

      .cls-49 {
        fill: #1582d6;
      }

      .cls-50 {
        fill: #ffc400;
      }

      .cls-51 {
        fill: #6e4cb3;
      }

      .cls-52 {
        clip-path: url(#clippath-18);
      }

      .cls-53 {
        clip-path: url(#clippath-14);
      }

      .cls-54 {
        clip-path: url(#clippath-17);
      }

      .cls-3 {
        opacity: .5;
      }

      .cls-55 {
        fill: #c5243c;
      }

      .cls-56 {
        clip-path: url(#clippath-5);
      }

      .cls-57 {
        fill: #5e3e9e;
      }

      .cls-58 {
        fill: #f90;
      }

      .cls-59 {
        fill: #d6af75;
      }

      .cls-60 {
        fill: #3f4961;
      }

      .cls-61 {
        clip-path: url(#clippath-10);
      }

      .cls-62 {
        fill: #d4dbef;
      }

      .cls-63 {
        clip-path: url(#clippath-23);
      }

      .cls-64 {
        fill: #7f89a6;
      }

      .cls-65 {
        clip-path: url(#clippath-28);
      }

      .cls-66 {
        fill: #d4e2fc;
      }

      .cls-67 {
        fill: #8a5c4c;
      }
    </style>
    <clipPath id="clippath">
      <path class="cls-58" d="m54.94,61.86v-.48s0-.06.02-.08c.02-.05.08-.1.16-.15.13-.08.29-.11.48-.09.19.01.41.09.66.24.25.14.46.29.63.45.17.16.31.31.41.45v.48c-.1-.14-.24-.29-.41-.45-.17-.16-.38-.31-.63-.45-.25-.14-.47-.22-.66-.24-.19-.01-.35.02-.48.09-.08.05-.14.1-.16.15-.01.03-.02.05-.02.08Z"/>
    </clipPath>
    <clipPath id="clippath-1">
      <path class="cls-58" d="m54.27,62.94v.48s-.01-.09-.03-.14c-.03-.08-.09-.18-.17-.29-.08-.11-.18-.23-.29-.37-.11-.13-.21-.27-.3-.41-.09-.14-.14-.27-.17-.41,0-.03,0-.07,0-.1v-.48s0,.07.01.1c.02.14.08.28.17.41.09.14.19.27.3.41.11.14.21.26.29.37.08.11.14.2.17.29.02.05.03.09.03.14Z"/>
    </clipPath>
    <clipPath id="clippath-2">
      <path class="cls-58" d="m51.52,63.36v.48c-.35-.23-.59-.44-.74-.63-.15-.18-.25-.33-.31-.42v-.48c.06.1.16.24.31.42.15.18.4.39.74.63Z"/>
    </clipPath>
    <clipPath id="clippath-3">
      <path class="cls-58" d="m55.87,63.09v.48c0,.13-.04.25-.11.38-.09.14-.25.28-.47.41-.15.09-.33.16-.53.22-.2.06-.41.1-.65.11-.24.01-.49,0-.75-.05-.26-.05-.54-.13-.84-.25v-.48c.29.12.57.21.84.25.26.05.52.06.75.05s.45-.05.65-.11c.2-.06.37-.14.53-.22.23-.13.38-.27.47-.41.07-.12.11-.25.11-.38Z"/>
    </clipPath>
    <clipPath id="clippath-4">
      <path class="cls-58" d="m53.89,59.62v-.48s0-.06.02-.08c.02-.05.08-.1.16-.15.13-.08.29-.11.48-.09.19.01.41.09.66.24.25.14.46.29.63.45.17.16.31.31.41.45v.48c-.1-.14-.24-.29-.41-.45-.17-.16-.38-.31-.63-.45-.25-.14-.47-.22-.66-.24-.19-.01-.35.02-.48.09-.08.05-.14.1-.16.15-.01.03-.02.05-.02.08Z"/>
    </clipPath>
    <clipPath id="clippath-5">
      <path class="cls-58" d="m53.23,60.69v.48s-.01-.09-.03-.14c-.03-.08-.09-.18-.17-.29-.08-.11-.18-.23-.29-.37-.11-.13-.21-.27-.3-.41-.09-.14-.14-.27-.17-.41,0-.03,0-.07,0-.1v-.48s0,.07.01.1c.02.14.08.28.17.41.09.14.19.27.3.41.11.14.21.26.29.37.08.11.14.2.17.29.02.05.03.09.03.14Z"/>
    </clipPath>
    <clipPath id="clippath-6">
      <path class="cls-58" d="m50.48,61.12v.48c-.35-.23-.59-.44-.74-.63-.15-.18-.25-.33-.31-.42v-.48c.06.1.16.24.31.42.15.18.4.39.74.63Z"/>
    </clipPath>
    <clipPath id="clippath-7">
      <path class="cls-58" d="m54.82,60.85v.48c0,.13-.04.25-.11.38-.09.14-.25.28-.47.41-.15.09-.33.16-.53.23-.2.06-.41.1-.65.11-.24.01-.49,0-.75-.05-.26-.05-.54-.13-.84-.25v-.48c.29.12.57.21.84.25.26.05.52.06.75.05.24-.01.45-.05.65-.11.2-.06.37-.14.53-.22.22-.13.38-.27.47-.41.07-.12.11-.25.11-.38Z"/>
    </clipPath>
    <clipPath id="clippath-8">
      <path class="cls-58" d="m56.32,57.2v-.48s0-.06.02-.08c.02-.05.08-.1.16-.15.13-.08.29-.11.48-.09.19.01.41.09.66.24.25.14.46.29.63.45.17.16.31.31.41.45v.48c-.1-.14-.24-.29-.41-.45-.17-.16-.38-.31-.63-.45-.25-.14-.47-.22-.66-.24-.19-.01-.35.02-.48.09-.08.05-.14.1-.16.15-.01.03-.02.05-.02.08Z"/>
    </clipPath>
    <clipPath id="clippath-9">
      <path class="cls-58" d="m55.65,58.27v.48s-.01-.09-.03-.14c-.03-.08-.09-.18-.17-.29-.08-.11-.18-.23-.29-.37-.11-.13-.21-.27-.3-.41-.09-.14-.14-.27-.17-.41,0-.03,0-.07,0-.1v-.48s0,.07.01.1c.02.14.08.28.17.41.09.14.19.27.3.41.11.14.21.26.29.37.08.11.14.2.17.29.02.05.03.1.03.14Z"/>
    </clipPath>
    <clipPath id="clippath-10">
      <path class="cls-58" d="m52.9,58.7v.48c-.35-.23-.59-.44-.74-.63-.15-.18-.25-.33-.31-.42v-.48c.06.1.16.24.31.42.15.18.4.39.74.63Z"/>
    </clipPath>
    <clipPath id="clippath-11">
      <path class="cls-58" d="m57.24,58.43v.48c0,.13-.04.25-.11.38-.09.14-.25.28-.47.41-.15.09-.33.16-.53.22-.2.06-.41.1-.65.11s-.49,0-.75-.05c-.26-.05-.54-.13-.84-.25v-.48c.29.12.57.21.84.25.26.05.52.06.75.05.24-.01.45-.05.65-.11.2-.06.37-.14.53-.23.23-.13.38-.27.47-.41.07-.12.11-.25.11-.38Z"/>
    </clipPath>
    <clipPath id="clippath-12">
      <path class="cls-58" d="m55.99,54.86v-.48s0-.06.02-.08c.02-.05.08-.1.16-.15.13-.08.29-.11.48-.09.19.01.41.09.66.24.25.14.46.29.63.45.17.16.31.31.41.45v.48c-.1-.14-.24-.29-.41-.45-.17-.16-.38-.31-.63-.45-.25-.14-.47-.22-.66-.24-.19-.01-.35.02-.48.09-.08.05-.14.1-.16.15-.01.03-.02.05-.02.08Z"/>
    </clipPath>
    <clipPath id="clippath-13">
      <path class="cls-58" d="m55.32,55.93v.48s-.01-.09-.03-.14c-.03-.08-.09-.18-.17-.29-.08-.11-.18-.23-.29-.37-.11-.13-.21-.27-.29-.41-.09-.14-.14-.27-.17-.41,0-.03,0-.07,0-.1v-.48s0,.07.01.1c.02.14.08.28.17.41.09.14.19.27.3.41.11.14.21.26.29.37.08.11.14.2.17.29.02.05.03.09.03.14Z"/>
    </clipPath>
    <clipPath id="clippath-14">
      <path class="cls-58" d="m52.58,56.36v.48c-.35-.23-.59-.44-.74-.63-.15-.18-.25-.33-.31-.42v-.48c.06.1.16.24.31.42.15.18.4.39.74.63Z"/>
    </clipPath>
    <clipPath id="clippath-15">
      <path class="cls-58" d="m56.92,56.09v.48c0,.13-.04.25-.11.38-.09.14-.25.28-.47.41-.15.09-.33.16-.53.22-.2.06-.41.1-.65.11-.24.01-.49,0-.75-.05-.26-.05-.54-.13-.84-.25v-.48c.29.12.57.21.84.25.26.05.52.06.75.05.24-.01.45-.05.65-.11.2-.06.37-.14.53-.22.23-.13.38-.27.47-.41.07-.12.11-.25.11-.38Z"/>
    </clipPath>
    <clipPath id="clippath-16">
      <path class="cls-58" d="m56.35,52.79v-.48s0-.06.02-.08c.02-.05.08-.1.16-.15.13-.08.29-.11.48-.09.19.01.41.09.66.24.25.14.46.29.63.45.17.16.31.31.41.45v.48c-.1-.14-.24-.29-.41-.45-.17-.16-.38-.31-.63-.45-.25-.14-.47-.22-.66-.24-.19-.01-.35.02-.48.09-.08.05-.14.1-.16.15-.01.03-.02.05-.02.08Z"/>
    </clipPath>
    <clipPath id="clippath-17">
      <path class="cls-58" d="m55.68,53.87v.48s-.01-.09-.03-.14c-.03-.08-.09-.18-.17-.29-.08-.11-.18-.23-.29-.37-.11-.13-.21-.27-.3-.41-.09-.14-.14-.27-.17-.41,0-.03,0-.07,0-.1v-.48s0,.07.01.1c.02.14.08.28.17.41.09.14.19.27.3.41.11.14.21.26.29.37.08.11.14.2.17.29.02.05.03.09.03.14Z"/>
    </clipPath>
    <clipPath id="clippath-18">
      <path class="cls-58" d="m52.93,54.29v.48c-.35-.23-.59-.44-.74-.63-.15-.18-.25-.33-.31-.42v-.48c.06.1.16.24.31.42.15.18.4.39.74.63Z"/>
    </clipPath>
    <clipPath id="clippath-19">
      <path class="cls-58" d="m57.27,54.02v.48c0,.13-.04.25-.11.38-.09.14-.25.28-.47.41-.15.09-.33.16-.53.22-.2.06-.41.1-.65.11-.24.01-.49,0-.75-.05-.26-.05-.54-.13-.84-.25v-.48c.29.12.57.21.84.25.26.05.52.06.75.05.24-.01.45-.05.65-.11.2-.06.37-.14.53-.22.23-.13.38-.27.47-.41.07-.12.11-.25.11-.38Z"/>
    </clipPath>
    <clipPath id="clippath-20">
      <path class="cls-58" d="m56.02,50.45v-.48s0-.06.02-.08c.02-.05.08-.1.16-.15.13-.08.29-.11.48-.09.19.01.41.09.66.24.25.14.46.29.63.45.17.16.31.31.41.45v.48c-.1-.14-.24-.29-.41-.45-.17-.16-.38-.31-.63-.45-.25-.14-.47-.22-.66-.24-.19-.01-.35.02-.48.09-.08.05-.14.1-.16.15-.01.03-.02.05-.02.08Z"/>
    </clipPath>
    <clipPath id="clippath-21">
      <path class="cls-58" d="m55.36,51.53v.48s-.01-.09-.03-.14c-.03-.08-.09-.18-.17-.29-.08-.11-.18-.23-.29-.37-.11-.13-.21-.27-.3-.41-.09-.14-.14-.27-.17-.41,0-.03,0-.07,0-.1v-.48s0,.07.01.1c.02.14.08.28.17.41.09.14.19.27.3.41.11.14.21.26.29.37.08.11.13.2.17.29.02.05.03.1.03.14Z"/>
    </clipPath>
    <clipPath id="clippath-22">
      <path class="cls-58" d="m52.61,51.95v.48c-.35-.23-.59-.44-.74-.63-.15-.18-.25-.33-.31-.42v-.48c.06.1.16.24.31.42.15.18.4.39.74.63Z"/>
    </clipPath>
    <clipPath id="clippath-23">
      <path class="cls-58" d="m56.95,51.68v.48c0,.13-.04.25-.11.38-.09.14-.25.28-.47.41-.15.09-.33.16-.53.23-.2.06-.41.1-.65.11-.24.01-.49,0-.75-.05-.26-.05-.54-.13-.84-.25v-.48c.29.12.57.21.84.25.26.05.52.06.75.05.24-.01.45-.05.65-.11.2-.06.37-.14.53-.22.23-.13.38-.27.47-.41.07-.12.11-.25.11-.38Z"/>
    </clipPath>
    <clipPath id="clippath-24">
      <path class="cls-55" d="m45.31,24.72l-3.73-1.45c-3.83-1.48-8.64-.43-13.51,3.51l3.73,1.45c4.87-3.94,9.68-5,13.51-3.51Z"/>
    </clipPath>
    <clipPath id="clippath-25">
      <path class="cls-55" d="m21.68,74.6l3.73,1.45c-3.78-1.47-6.6-5.4-7.58-11.48-1.97-12.23,4.28-28.5,13.96-36.33l-3.73-1.45c-9.68,7.83-15.93,24.1-13.96,36.33.98,6.08,3.8,10.02,7.58,11.48Z"/>
    </clipPath>
    <clipPath id="clippath-26">
      <path class="cls-42" d="m32.7,74.38l.48.28s-.08-.02-.13.01l-.48-.28c.05-.03.1-.03.13-.01Z"/>
    </clipPath>
    <clipPath id="clippath-28">
      <path class="cls-45" d="m65.74,66.12l.24.14s-.04,0-.06,0l-.24-.14s.05-.02.06,0Z"/>
    </clipPath>
    <clipPath id="clippath-31">
      <path class="cls-45" d="m62.82,68.17l-.24-.14c0-.06.04-.13.09-.16l.24.14c-.05.03-.09.1-.09.16Z"/>
    </clipPath>
  </defs>
  <g class="cls-18">
    <g id="Layer_2" data-name="Layer 2">
      <g id="Layer_1-2" data-name="Layer 1">
        <g>
          <g>
            <path class="cls-3" d="m60.91,61.8c2.93,1.69,2.93,4.44,0,6.13-2.93,1.69-7.69,1.69-10.62,0s-2.93-4.44,0-6.13c2.93-1.69,7.69-1.69,10.62,0Z"/>
            <g>
              <path class="cls-24" d="m61.72,64.08v.05h0c0,.07,0,.14-.01.22t0,0c-.03.3-.12.61-.27.9-.33.65-.93,1.25-1.81,1.76-2.79,1.61-7.3,1.61-10.07,0-.83-.48-1.41-1.06-1.74-1.67,0,0,0,0,0,0-.16-.3-.26-.61-.3-.92-.01-.08-.02-.17-.02-.25,0-.02,0-.04,0-.06v-.36s0-.18,0-.18v-.41s0-.92,0-.92c0,1.05.69,2.1,2.07,2.9,2.77,1.61,7.28,1.61,10.07,0,1.4-.81,2.1-1.87,2.1-2.93v.91s0,.42,0,.42v.54Z"/>
              <g class="cls-18">
                <path class="cls-16" d="m49.57,59.32c-2.79,1.61-2.81,4.22-.03,5.83,2.77,1.61,7.28,1.61,10.07,0,2.79-1.61,2.8-4.22.03-5.83-2.77-1.61-7.28-1.61-10.07,0Z"/>
                <path class="cls-58" d="m60.55,62.55c-.13.78-.71,1.54-1.74,2.13-2.34,1.35-6.13,1.35-8.46,0-1.02-.59-1.59-1.34-1.71-2.11-.16-1,.42-2.03,1.74-2.79,2.34-1.35,6.13-1.35,8.46,0,1.3.76,1.87,1.78,1.71,2.77Z"/>
                <path class="cls-50" d="m60.55,62.55c-.13.78-.71,1.54-1.74,2.13-2.34,1.35-6.13,1.35-8.46,0-1.02-.59-1.59-1.34-1.71-2.11.13-.78.71-1.54,1.74-2.13,2.34-1.35,6.13-1.35,8.46,0,1.02.59,1.58,1.34,1.71,2.11Z"/>
              </g>
              <g class="cls-18">
                <polygon class="cls-58" points="58.37 60.51 58.37 60.99 57.57 61.45 57.58 60.97 58.37 60.51"/>
                <polygon class="cls-58" points="58.46 61.79 58.46 62.27 57.3 62.67 57.3 62.19 58.46 61.79"/>
                <g class="cls-18">
                  <path class="cls-58" d="m54.94,61.86v-.48s0-.06.02-.08c.02-.05.08-.1.16-.15.13-.08.29-.11.48-.09.19.01.41.09.66.24.25.14.46.29.63.45.17.16.31.31.41.45v.48c-.1-.14-.24-.29-.41-.45-.17-.16-.38-.31-.63-.45-.25-.14-.47-.22-.66-.24-.19-.01-.35.02-.48.09-.08.05-.14.1-.16.15-.01.03-.02.05-.02.08Z"/>
                  <g class="cls-39">
                    <g class="cls-18">
                      <path class="cls-58" d="m57.3,62.19v.48c-.1-.14-.24-.29-.41-.45-.17-.16-.38-.31-.63-.45-.25-.14-.47-.22-.66-.24-.19-.01-.35.02-.48.09-.08.05-.14.1-.16.15-.01.03-.02.05-.02.08v-.48s0-.06.02-.08c.02-.05.08-.1.16-.15.13-.08.29-.11.48-.09.19.01.41.09.66.24.25.14.46.29.63.45.17.16.31.31.41.45h0Z"/>
                    </g>
                  </g>
                </g>
                <g class="cls-18">
                  <path class="cls-58" d="m54.27,62.94v.48s-.01-.09-.03-.14c-.03-.08-.09-.18-.17-.29-.08-.11-.18-.23-.29-.37-.11-.13-.21-.27-.3-.41-.09-.14-.14-.27-.17-.41,0-.03,0-.07,0-.1v-.48s0,.07.01.1c.02.14.08.28.17.41.09.14.19.27.3.41.11.14.21.26.29.37.08.11.14.2.17.29.02.05.03.09.03.14Z"/>
                  <g class="cls-28">
                    <g class="cls-18">
                      <path class="cls-58" d="m54.27,62.94v.48s-.01-.09-.03-.14c-.03-.08-.09-.18-.17-.29-.08-.11-.18-.23-.29-.37-.11-.13-.21-.27-.3-.41-.09-.14-.14-.27-.17-.41,0-.03,0-.07,0-.1v-.48s0,.07.01.1c.02.14.08.28.17.41.09.14.19.27.3.41.11.14.21.26.29.37.08.11.14.2.17.29.02.05.03.09.03.14h0Z"/>
                    </g>
                  </g>
                </g>
                <g class="cls-18">
                  <path class="cls-58" d="m51.52,63.36v.48c-.35-.23-.59-.44-.74-.63-.15-.18-.25-.33-.31-.42v-.48c.06.1.16.24.31.42.15.18.4.39.74.63Z"/>
                  <g class="cls-15">
                    <g class="cls-18">
                      <path class="cls-58" d="m51.52,63.36v.48c-.35-.23-.59-.44-.74-.63-.15-.18-.25-.33-.31-.42v-.48c.06.1.16.24.31.42.15.18.4.39.74.63h0Z"/>
                    </g>
                  </g>
                </g>
                <g class="cls-18">
                  <path class="cls-58" d="m55.87,63.09v.48c0,.13-.04.25-.11.38-.09.14-.25.28-.47.41-.15.09-.33.16-.53.22-.2.06-.41.1-.65.11-.24.01-.49,0-.75-.05-.26-.05-.54-.13-.84-.25v-.48c.29.12.57.21.84.25.26.05.52.06.75.05s.45-.05.65-.11c.2-.06.37-.14.53-.22.23-.13.38-.27.47-.41.07-.12.11-.25.11-.38Z"/>
                  <g class="cls-46">
                    <g class="cls-18">
                      <path class="cls-58" d="m55.87,63.09v.48c0,.13-.04.25-.11.38-.09.14-.25.28-.47.41-.15.09-.33.16-.53.22-.2.06-.41.1-.65.11-.24.01-.49,0-.75-.05-.26-.05-.54-.13-.84-.25v-.48c.29.12.57.21.84.25.26.05.52.06.75.05s.45-.05.65-.11c.2-.06.37-.14.53-.22.23-.13.38-.27.47-.41.07-.12.11-.25.11-.38h0Z"/>
                    </g>
                  </g>
                </g>
                <polygon class="cls-58" points="52.52 63.91 52.52 64.39 51.58 64.93 51.58 64.45 52.52 63.91"/>
                <path class="cls-16" d="m58.37,60.51l-.8.46c.24.17.43.33.58.47.14.14.24.26.31.35l-1.16.4c-.1-.14-.23-.29-.41-.45-.17-.16-.38-.31-.63-.45-.25-.14-.47-.22-.66-.24-.19-.01-.35.02-.48.09-.08.05-.14.1-.16.15-.03.05-.03.11,0,.18.03.07.07.15.13.23.06.09.14.19.24.3.14.18.26.35.36.52.1.17.15.33.17.48.02.15-.02.3-.11.45-.09.14-.25.28-.47.41-.15.09-.33.16-.53.22-.2.06-.41.1-.65.11s-.49,0-.75-.05c-.26-.05-.54-.13-.84-.25l-.94.54-.97-.56.91-.53c-.34-.23-.59-.44-.74-.63-.15-.18-.25-.33-.31-.42l1.21-.32c.09.15.23.32.41.51.18.19.41.36.68.52.31.18.57.28.77.3.2.02.38-.02.53-.11.1-.06.16-.12.18-.18.02-.07.02-.14-.01-.22-.03-.08-.09-.18-.17-.29-.08-.11-.18-.23-.29-.37-.11-.13-.21-.27-.3-.41-.09-.14-.14-.27-.17-.41-.02-.14,0-.28.08-.41.08-.14.22-.27.44-.4.17-.1.36-.18.56-.24.2-.06.42-.1.65-.12.23-.01.47,0,.73.04.25.04.51.12.78.22l.83-.48.97.56Z"/>
                <polygon class="cls-58" points="51.58 64.45 51.58 64.93 50.61 64.37 50.61 63.89 51.58 64.45"/>
              </g>
              <path class="cls-16" d="m61.72,63.71c-.22.87-.93,1.68-2.03,2.31-2.83,1.63-7.41,1.63-10.22,0-1.07-.62-1.76-1.41-1.99-2.26v.36s0,.04,0,.06c.32.74.97,1.41,1.92,1.96,1.42.83,3.3,1.24,5.17,1.24s3.75-.41,5.19-1.24c.97-.56,1.64-1.25,1.96-2.01h0v-.43Zm-12.32,1.84c1.42.83,3.3,1.24,5.17,1.24s3.75-.41,5.19-1.24c.97-.56,1.64-1.25,1.96-2.01v-.42c-.23.87-.93,1.67-2.03,2.3-2.83,1.63-7.41,1.63-10.22,0-1.07-.62-1.76-1.41-1.99-2.26v.41c.32.74.97,1.42,1.92,1.97Zm10.29,1.07c-2.83,1.63-7.41,1.63-10.22,0-1.04-.61-1.72-1.36-1.97-2.18.04.31.14.62.3.92,0,0,0,0,0,0,.37.51.9.98,1.59,1.38,1.42.83,3.3,1.24,5.17,1.24s3.75-.41,5.19-1.24c.74-.43,1.31-.93,1.67-1.48.15-.3.24-.6.27-.9-.24.85-.93,1.64-2.02,2.26Z"/>
            </g>
            <g>
              <path class="cls-24" d="m60.67,61.84v.05h0c0,.07,0,.14-.01.22t0,0c-.03.3-.12.61-.27.9-.33.65-.93,1.25-1.81,1.76-2.79,1.61-7.3,1.61-10.07,0-.83-.48-1.41-1.06-1.74-1.67,0,0,0,0,0,0-.16-.3-.26-.61-.3-.92-.01-.08-.02-.17-.02-.25,0-.02,0-.04,0-.06v-.36s0-.18,0-.18v-.41s0-.92,0-.92c0,1.05.69,2.1,2.07,2.9,2.77,1.61,7.28,1.61,10.07,0,1.4-.81,2.1-1.87,2.1-2.93v.91s0,.42,0,.42v.54Z"/>
              <g class="cls-18">
                <path class="cls-16" d="m48.53,57.07c-2.79,1.61-2.81,4.22-.03,5.83,2.77,1.61,7.28,1.61,10.07,0,2.79-1.61,2.81-4.22.03-5.83-2.77-1.61-7.28-1.61-10.07,0Z"/>
                <path class="cls-58" d="m59.5,60.31c-.13.78-.71,1.54-1.74,2.13-2.34,1.35-6.13,1.35-8.46,0-1.02-.59-1.59-1.34-1.71-2.11-.16-1,.42-2.03,1.74-2.79,2.34-1.35,6.13-1.35,8.46,0,1.3.76,1.87,1.78,1.71,2.77Z"/>
                <path class="cls-50" d="m59.5,60.31c-.13.78-.71,1.54-1.74,2.13-2.34,1.35-6.13,1.35-8.46,0-1.02-.59-1.59-1.34-1.71-2.11.13-.78.71-1.54,1.74-2.13,2.34-1.35,6.13-1.35,8.46,0,1.02.59,1.58,1.34,1.71,2.11Z"/>
              </g>
              <g class="cls-18">
                <polygon class="cls-58" points="57.33 58.26 57.33 58.75 56.53 59.21 56.53 58.73 57.33 58.26"/>
                <polygon class="cls-58" points="57.41 59.55 57.41 60.03 56.25 60.43 56.25 59.95 57.41 59.55"/>
                <g class="cls-18">
                  <path class="cls-58" d="m53.89,59.62v-.48s0-.06.02-.08c.02-.05.08-.1.16-.15.13-.08.29-.11.48-.09.19.01.41.09.66.24.25.14.46.29.63.45.17.16.31.31.41.45v.48c-.1-.14-.24-.29-.41-.45-.17-.16-.38-.31-.63-.45-.25-.14-.47-.22-.66-.24-.19-.01-.35.02-.48.09-.08.05-.14.1-.16.15-.01.03-.02.05-.02.08Z"/>
                  <g class="cls-29">
                    <g class="cls-18">
                      <path class="cls-58" d="m56.25,59.95v.48c-.1-.14-.24-.29-.41-.45-.17-.16-.38-.31-.63-.45-.25-.14-.47-.22-.66-.24-.19-.01-.35.02-.48.09-.08.05-.14.1-.16.15-.01.03-.02.05-.02.08v-.48s0-.06.02-.08c.02-.05.08-.1.16-.15.13-.08.29-.11.48-.09.19.01.41.09.66.24.25.14.46.29.63.45.17.16.31.31.41.45h0Z"/>
                    </g>
                  </g>
                </g>
                <g class="cls-18">
                  <path class="cls-58" d="m53.23,60.69v.48s-.01-.09-.03-.14c-.03-.08-.09-.18-.17-.29-.08-.11-.18-.23-.29-.37-.11-.13-.21-.27-.3-.41-.09-.14-.14-.27-.17-.41,0-.03,0-.07,0-.1v-.48s0,.07.01.1c.02.14.08.28.17.41.09.14.19.27.3.41.11.14.21.26.29.37.08.11.14.2.17.29.02.05.03.09.03.14Z"/>
                  <g class="cls-56">
                    <g class="cls-18">
                      <path class="cls-58" d="m53.23,60.69v.48s-.01-.09-.03-.14c-.03-.08-.09-.18-.17-.29-.08-.11-.18-.23-.29-.37-.11-.13-.21-.27-.3-.41-.09-.14-.14-.27-.17-.41,0-.03,0-.07,0-.1v-.48s0,.07.01.1c.02.14.08.28.17.41.09.14.19.27.3.41.11.14.21.26.29.37.08.11.14.2.17.29.02.05.03.09.03.14h0Z"/>
                    </g>
                  </g>
                </g>
                <g class="cls-18">
                  <path class="cls-58" d="m50.48,61.12v.48c-.35-.23-.59-.44-.74-.63-.15-.18-.25-.33-.31-.42v-.48c.06.1.16.24.31.42.15.18.4.39.74.63Z"/>
                  <g class="cls-22">
                    <g class="cls-18">
                      <path class="cls-58" d="m50.48,61.12v.48c-.35-.23-.59-.44-.74-.63-.15-.18-.25-.33-.31-.42v-.48c.06.1.16.24.31.42.15.18.4.39.74.63h0Z"/>
                    </g>
                  </g>
                </g>
                <g class="cls-18">
                  <path class="cls-58" d="m54.82,60.85v.48c0,.13-.04.25-.11.38-.09.14-.25.28-.47.41-.15.09-.33.16-.53.23-.2.06-.41.1-.65.11-.24.01-.49,0-.75-.05-.26-.05-.54-.13-.84-.25v-.48c.29.12.57.21.84.25.26.05.52.06.75.05.24-.01.45-.05.65-.11.2-.06.37-.14.53-.22.22-.13.38-.27.47-.41.07-.12.11-.25.11-.38Z"/>
                  <g class="cls-26">
                    <g class="cls-18">
                      <path class="cls-58" d="m54.82,60.85v.48c0,.13-.04.25-.11.38-.09.14-.25.28-.47.41-.15.09-.33.16-.53.23-.2.06-.41.1-.65.11-.24.01-.49,0-.75-.05-.26-.05-.54-.13-.84-.25v-.48c.29.12.57.21.84.25.26.05.52.06.75.05.24-.01.45-.05.65-.11.2-.06.37-.14.53-.22.22-.13.38-.27.47-.41.07-.12.11-.25.11-.38h0Z"/>
                    </g>
                  </g>
                </g>
                <polygon class="cls-58" points="51.47 61.67 51.47 62.15 50.54 62.69 50.54 62.21 51.47 61.67"/>
                <path class="cls-16" d="m57.33,58.26l-.8.46c.24.17.43.33.58.47.14.14.24.26.31.35l-1.16.4c-.1-.14-.23-.29-.41-.45-.17-.16-.38-.31-.63-.45-.25-.14-.47-.22-.66-.24-.19-.01-.35.02-.48.09-.08.05-.14.1-.16.15-.03.05-.03.11,0,.18.03.07.07.15.13.23s.14.19.24.3c.14.18.26.35.36.52.1.17.15.33.17.48.02.15-.02.3-.11.45-.09.14-.25.28-.47.41-.15.09-.33.16-.53.22-.2.06-.41.1-.65.11-.24.01-.49,0-.75-.05-.26-.05-.54-.13-.84-.25l-.94.54-.97-.56.91-.53c-.34-.23-.59-.44-.74-.63-.15-.18-.25-.33-.31-.42l1.21-.32c.09.15.23.32.41.51.18.19.41.36.68.52.31.18.57.28.77.3.2.02.38-.02.53-.11.1-.06.16-.12.18-.18.02-.07.02-.14-.01-.22-.03-.08-.09-.18-.17-.29-.08-.11-.18-.23-.29-.37-.11-.13-.21-.27-.3-.41-.09-.14-.14-.27-.17-.41-.02-.14,0-.28.08-.41.08-.14.22-.27.44-.4.17-.1.36-.18.56-.24.2-.06.42-.1.65-.12.23-.01.47,0,.73.04.25.04.51.12.78.23l.83-.48.97.56Z"/>
                <polygon class="cls-58" points="50.54 62.21 50.54 62.69 49.56 62.13 49.56 61.65 50.54 62.21"/>
              </g>
              <path class="cls-16" d="m60.67,61.47c-.22.87-.93,1.68-2.03,2.31-2.83,1.63-7.41,1.63-10.22,0-1.07-.62-1.76-1.41-1.99-2.26v.36s0,.04,0,.06c.32.74.97,1.41,1.92,1.96,1.42.83,3.3,1.24,5.17,1.24s3.75-.41,5.19-1.24c.97-.56,1.64-1.25,1.96-2.01h0v-.43Zm-12.32,1.84c1.42.83,3.3,1.24,5.17,1.24s3.75-.41,5.19-1.24c.97-.56,1.64-1.25,1.96-2.01v-.42c-.23.87-.93,1.67-2.03,2.3-2.83,1.63-7.41,1.63-10.22,0-1.07-.62-1.76-1.41-1.99-2.26v.41c.32.74.97,1.42,1.92,1.97Zm10.29,1.07c-2.83,1.63-7.41,1.63-10.22,0-1.04-.61-1.72-1.36-1.97-2.18.04.31.14.62.3.92,0,0,0,0,0,0,.37.51.9.98,1.59,1.38,1.42.83,3.3,1.24,5.17,1.24s3.75-.41,5.19-1.24c.74-.43,1.31-.93,1.67-1.48.15-.3.24-.6.27-.9-.24.85-.93,1.64-2.02,2.26Z"/>
            </g>
            <g>
              <path class="cls-24" d="m63.1,59.42v.05h0c0,.07,0,.14-.01.22t0,0c-.03.3-.12.61-.27.9-.33.65-.93,1.25-1.81,1.76-2.79,1.61-7.3,1.61-10.07,0-.83-.48-1.41-1.06-1.74-1.67,0,0,0,0,0,0-.16-.3-.26-.61-.3-.92-.01-.08-.02-.17-.02-.25,0-.02,0-.04,0-.06v-.36s0-.18,0-.18v-.41s0-.92,0-.92c0,1.05.69,2.1,2.07,2.9,2.77,1.61,7.28,1.61,10.07,0,1.4-.81,2.1-1.87,2.1-2.93v.91s0,.42,0,.42v.54Z"/>
              <g class="cls-18">
                <path class="cls-16" d="m50.95,54.65c-2.79,1.61-2.81,4.22-.03,5.83,2.77,1.61,7.28,1.61,10.07,0,2.79-1.61,2.81-4.22.03-5.83-2.77-1.61-7.28-1.61-10.07,0Z"/>
                <path class="cls-58" d="m61.92,57.89c-.13.78-.71,1.54-1.74,2.13-2.34,1.35-6.13,1.35-8.46,0-1.02-.59-1.59-1.34-1.71-2.11-.16-1,.42-2.03,1.74-2.79,2.34-1.35,6.13-1.35,8.46,0,1.3.76,1.87,1.78,1.71,2.77Z"/>
                <path class="cls-50" d="m61.92,57.89c-.13.78-.71,1.54-1.74,2.13-2.34,1.35-6.13,1.35-8.46,0-1.02-.59-1.59-1.34-1.71-2.11.13-.78.71-1.54,1.74-2.13,2.34-1.35,6.13-1.35,8.46,0,1.02.59,1.58,1.34,1.71,2.11Z"/>
              </g>
              <g class="cls-18">
                <polygon class="cls-58" points="59.75 55.84 59.75 56.32 58.95 56.79 58.95 56.31 59.75 55.84"/>
                <polygon class="cls-58" points="59.83 57.13 59.83 57.61 58.67 58.01 58.67 57.52 59.83 57.13"/>
                <g class="cls-18">
                  <path class="cls-58" d="m56.32,57.2v-.48s0-.06.02-.08c.02-.05.08-.1.16-.15.13-.08.29-.11.48-.09.19.01.41.09.66.24.25.14.46.29.63.45.17.16.31.31.41.45v.48c-.1-.14-.24-.29-.41-.45-.17-.16-.38-.31-.63-.45-.25-.14-.47-.22-.66-.24-.19-.01-.35.02-.48.09-.08.05-.14.1-.16.15-.01.03-.02.05-.02.08Z"/>
                  <g class="cls-48">
                    <g class="cls-18">
                      <path class="cls-58" d="m58.67,57.52v.48c-.1-.14-.24-.29-.41-.45-.17-.16-.38-.31-.63-.45-.25-.14-.47-.22-.66-.24-.19-.01-.35.02-.48.09-.08.05-.14.1-.16.15-.01.03-.02.05-.02.08v-.48s0-.06.02-.08c.02-.05.08-.1.16-.15.13-.08.29-.11.48-.09.19.01.41.09.66.24.25.14.46.29.63.45.17.16.31.31.41.45h0Z"/>
                    </g>
                  </g>
                </g>
                <g class="cls-18">
                  <path class="cls-58" d="m55.65,58.27v.48s-.01-.09-.03-.14c-.03-.08-.09-.18-.17-.29-.08-.11-.18-.23-.29-.37-.11-.13-.21-.27-.3-.41-.09-.14-.14-.27-.17-.41,0-.03,0-.07,0-.1v-.48s0,.07.01.1c.02.14.08.28.17.41.09.14.19.27.3.41.11.14.21.26.29.37.08.11.14.2.17.29.02.05.03.1.03.14Z"/>
                  <g class="cls-37">
                    <g class="cls-18">
                      <path class="cls-58" d="m55.65,58.27v.48s-.01-.09-.03-.14c-.03-.08-.09-.18-.17-.29-.08-.11-.18-.23-.29-.37-.11-.13-.21-.27-.3-.41-.09-.14-.14-.27-.17-.41,0-.03,0-.07,0-.1v-.48s0,.07.01.1c.02.14.08.28.17.41.09.14.19.27.3.41.11.14.21.26.29.37.08.11.14.2.17.29.02.05.03.1.03.14h0Z"/>
                    </g>
                  </g>
                </g>
                <g class="cls-18">
                  <path class="cls-58" d="m52.9,58.7v.48c-.35-.23-.59-.44-.74-.63-.15-.18-.25-.33-.31-.42v-.48c.06.1.16.24.31.42.15.18.4.39.74.63Z"/>
                  <g class="cls-61">
                    <g class="cls-18">
                      <path class="cls-58" d="m52.9,58.7v.48c-.35-.23-.59-.44-.74-.63-.15-.18-.25-.33-.31-.42v-.48c.06.1.16.24.31.42.15.18.4.39.74.63h0Z"/>
                    </g>
                  </g>
                </g>
                <g class="cls-18">
                  <path class="cls-58" d="m57.24,58.43v.48c0,.13-.04.25-.11.38-.09.14-.25.28-.47.41-.15.09-.33.16-.53.22-.2.06-.41.1-.65.11s-.49,0-.75-.05c-.26-.05-.54-.13-.84-.25v-.48c.29.12.57.21.84.25.26.05.52.06.75.05.24-.01.45-.05.65-.11.2-.06.37-.14.53-.23.23-.13.38-.27.47-.41.07-.12.11-.25.11-.38Z"/>
                  <g class="cls-7">
                    <g class="cls-18">
                      <path class="cls-58" d="m57.24,58.43v.48c0,.13-.04.25-.11.38-.09.14-.25.28-.47.41-.15.09-.33.16-.53.22-.2.06-.41.1-.65.11s-.49,0-.75-.05c-.26-.05-.54-.13-.84-.25v-.48c.29.12.57.21.84.25.26.05.52.06.75.05.24-.01.45-.05.65-.11.2-.06.37-.14.53-.23.23-.13.38-.27.47-.41.07-.12.11-.25.11-.38h0Z"/>
                    </g>
                  </g>
                </g>
                <polygon class="cls-58" points="53.9 59.24 53.89 59.73 52.96 60.27 52.96 59.79 53.9 59.24"/>
                <path class="cls-16" d="m59.75,55.84l-.8.46c.24.17.43.33.58.47.14.14.24.26.31.35l-1.16.4c-.1-.14-.23-.29-.41-.45-.17-.16-.38-.31-.63-.45-.25-.14-.47-.22-.66-.24-.19-.01-.35.02-.48.09-.08.05-.14.1-.16.15-.03.05-.03.11,0,.18.03.07.07.15.13.23s.14.19.24.3c.14.18.26.35.36.52.1.17.15.33.17.48.02.15-.02.3-.11.45-.09.14-.25.28-.47.41-.15.09-.33.16-.53.23-.2.06-.41.1-.65.11-.24.01-.49,0-.75-.05-.26-.05-.54-.13-.84-.25l-.94.54-.97-.56.91-.53c-.34-.23-.59-.44-.74-.63-.15-.18-.25-.33-.31-.42l1.21-.32c.09.15.23.32.41.51.18.19.41.36.68.52.31.18.57.28.77.3.2.02.38-.02.53-.11.1-.06.16-.12.18-.18.02-.07.02-.14-.01-.22-.03-.08-.09-.18-.17-.29-.08-.11-.18-.23-.29-.37-.11-.13-.21-.27-.3-.41-.09-.14-.14-.27-.17-.41-.02-.14,0-.28.08-.41.08-.14.22-.27.44-.4.17-.1.36-.18.56-.24.2-.06.42-.1.65-.12.23-.01.47,0,.73.04.25.04.51.12.78.22l.83-.48.97.56Z"/>
                <polygon class="cls-58" points="52.96 59.79 52.96 60.27 51.98 59.71 51.99 59.23 52.96 59.79"/>
              </g>
              <path class="cls-16" d="m63.09,59.04c-.23.87-.93,1.68-2.03,2.31-2.83,1.63-7.41,1.63-10.22,0-1.07-.62-1.76-1.41-1.99-2.26v.36s0,.04,0,.06c.32.74.97,1.41,1.92,1.96,1.42.83,3.3,1.24,5.17,1.24s3.75-.41,5.19-1.24c.97-.56,1.64-1.25,1.96-2.01h0v-.43Zm-12.32,1.84c1.42.83,3.3,1.24,5.17,1.24s3.75-.41,5.19-1.24c.97-.56,1.64-1.25,1.96-2.01v-.42c-.23.87-.93,1.67-2.03,2.3-2.83,1.63-7.41,1.63-10.22,0-1.07-.62-1.76-1.41-1.99-2.26v.41c.32.74.97,1.42,1.92,1.97Zm10.29,1.07c-2.83,1.63-7.41,1.63-10.22,0-1.04-.61-1.72-1.36-1.97-2.18.04.31.14.62.3.92,0,0,0,0,0,0,.37.51.9.98,1.59,1.38,1.42.83,3.3,1.24,5.17,1.24s3.75-.41,5.19-1.24c.74-.43,1.31-.93,1.67-1.48.15-.3.24-.6.27-.9-.24.85-.93,1.64-2.02,2.26Z"/>
            </g>
            <g>
              <path class="cls-24" d="m62.77,57.08v.05h0c0,.07,0,.14-.01.22t0,0c-.03.3-.12.61-.27.9-.33.65-.93,1.25-1.81,1.76-2.79,1.61-7.3,1.61-10.07,0-.83-.48-1.41-1.06-1.74-1.67,0,0,0,0,0,0-.16-.3-.26-.61-.3-.92-.01-.08-.02-.17-.02-.25,0-.02,0-.04,0-.06v-.36s0-.18,0-.18v-.41s0-.92,0-.92c0,1.05.69,2.1,2.07,2.9,2.77,1.61,7.28,1.61,10.07,0,1.4-.81,2.1-1.87,2.1-2.93v.91s0,.42,0,.42v.54Z"/>
              <g class="cls-18">
                <path class="cls-16" d="m50.63,52.31c-2.79,1.61-2.81,4.22-.03,5.83,2.77,1.61,7.28,1.61,10.07,0,2.79-1.61,2.8-4.22.03-5.83-2.77-1.61-7.28-1.61-10.07,0Z"/>
                <path class="cls-58" d="m61.6,55.55c-.13.78-.71,1.54-1.74,2.13-2.34,1.35-6.13,1.35-8.46,0-1.02-.59-1.59-1.34-1.71-2.11-.16-1,.42-2.03,1.74-2.79,2.34-1.35,6.13-1.35,8.46,0,1.3.76,1.87,1.78,1.71,2.77Z"/>
                <path class="cls-50" d="m61.6,55.55c-.13.78-.71,1.54-1.74,2.13-2.34,1.35-6.13,1.35-8.46,0-1.02-.59-1.59-1.34-1.71-2.11.13-.78.71-1.54,1.74-2.13,2.34-1.35,6.13-1.35,8.46,0,1.02.59,1.58,1.34,1.71,2.11Z"/>
              </g>
              <g class="cls-18">
                <polygon class="cls-58" points="59.43 53.5 59.42 53.98 58.63 54.45 58.63 53.97 59.43 53.5"/>
                <polygon class="cls-58" points="59.51 54.79 59.51 55.27 58.35 55.67 58.35 55.18 59.51 54.79"/>
                <g class="cls-18">
                  <path class="cls-58" d="m55.99,54.86v-.48s0-.06.02-.08c.02-.05.08-.1.16-.15.13-.08.29-.11.48-.09.19.01.41.09.66.24.25.14.46.29.63.45.17.16.31.31.41.45v.48c-.1-.14-.24-.29-.41-.45-.17-.16-.38-.31-.63-.45-.25-.14-.47-.22-.66-.24-.19-.01-.35.02-.48.09-.08.05-.14.1-.16.15-.01.03-.02.05-.02.08Z"/>
                  <g class="cls-31">
                    <g class="cls-18">
                      <path class="cls-58" d="m58.35,55.18v.48c-.1-.14-.24-.29-.41-.45-.17-.16-.38-.31-.63-.45-.25-.14-.47-.22-.66-.24-.19-.01-.35.02-.48.09-.08.05-.14.1-.16.15-.01.03-.02.05-.02.08v-.48s0-.06.02-.08c.02-.05.08-.1.16-.15.13-.08.29-.11.48-.09.19.01.41.09.66.24.25.14.46.29.63.45.17.16.31.31.41.45h0Z"/>
                    </g>
                  </g>
                </g>
                <g class="cls-18">
                  <path class="cls-58" d="m55.32,55.93v.48s-.01-.09-.03-.14c-.03-.08-.09-.18-.17-.29-.08-.11-.18-.23-.29-.37-.11-.13-.21-.27-.29-.41-.09-.14-.14-.27-.17-.41,0-.03,0-.07,0-.1v-.48s0,.07.01.1c.02.14.08.28.17.41.09.14.19.27.3.41.11.14.21.26.29.37.08.11.14.2.17.29.02.05.03.09.03.14Z"/>
                  <g class="cls-17">
                    <g class="cls-18">
                      <path class="cls-58" d="m55.32,55.93v.48s-.01-.09-.03-.14c-.03-.08-.09-.18-.17-.29-.08-.11-.18-.23-.29-.37-.11-.13-.21-.27-.29-.41-.09-.14-.14-.27-.17-.41,0-.03,0-.07,0-.1v-.48s0,.07.01.1c.02.14.08.28.17.41.09.14.19.27.3.41.11.14.21.26.29.37.08.11.14.2.17.29.02.05.03.09.03.14h0Z"/>
                    </g>
                  </g>
                </g>
                <g class="cls-18">
                  <path class="cls-58" d="m52.58,56.36v.48c-.35-.23-.59-.44-.74-.63-.15-.18-.25-.33-.31-.42v-.48c.06.1.16.24.31.42.15.18.4.39.74.63Z"/>
                  <g class="cls-53">
                    <g class="cls-18">
                      <path class="cls-58" d="m52.58,56.36v.48c-.35-.23-.59-.44-.74-.63-.15-.18-.25-.33-.31-.42v-.48c.06.1.16.24.31.42.15.18.4.39.74.63h0Z"/>
                    </g>
                  </g>
                </g>
                <g class="cls-18">
                  <path class="cls-58" d="m56.92,56.09v.48c0,.13-.04.25-.11.38-.09.14-.25.28-.47.41-.15.09-.33.16-.53.22-.2.06-.41.1-.65.11-.24.01-.49,0-.75-.05-.26-.05-.54-.13-.84-.25v-.48c.29.12.57.21.84.25.26.05.52.06.75.05.24-.01.45-.05.65-.11.2-.06.37-.14.53-.22.23-.13.38-.27.47-.41.07-.12.11-.25.11-.38Z"/>
                  <g class="cls-21">
                    <g class="cls-18">
                      <path class="cls-58" d="m56.92,56.09v.48c0,.13-.04.25-.11.38-.09.14-.25.28-.47.41-.15.09-.33.16-.53.22-.2.06-.41.1-.65.11-.24.01-.49,0-.75-.05-.26-.05-.54-.13-.84-.25v-.48c.29.12.57.21.84.25.26.05.52.06.75.05.24-.01.45-.05.65-.11.2-.06.37-.14.53-.22.23-.13.38-.27.47-.41.07-.12.11-.25.11-.38h0Z"/>
                    </g>
                  </g>
                </g>
                <polygon class="cls-58" points="53.57 56.9 53.57 57.39 52.64 57.93 52.64 57.45 53.57 56.9"/>
                <path class="cls-16" d="m59.43,53.5l-.8.46c.24.17.43.33.58.47.14.14.24.26.31.35l-1.16.4c-.1-.14-.23-.29-.41-.45-.17-.16-.38-.31-.63-.45-.25-.14-.47-.22-.66-.24-.19-.01-.35.02-.48.09-.08.05-.14.1-.16.15-.03.05-.03.11,0,.18.03.07.07.15.13.23.06.09.14.19.24.3.14.18.26.35.36.52.1.17.15.33.17.48.02.15-.02.3-.11.45-.09.14-.25.28-.47.41-.15.09-.33.16-.53.22-.2.06-.41.1-.65.11-.24.01-.49,0-.75-.05-.26-.05-.54-.13-.84-.25l-.94.54-.97-.56.91-.53c-.34-.23-.59-.44-.74-.63-.15-.18-.25-.33-.31-.42l1.21-.32c.09.15.23.32.41.51.18.19.41.36.68.52.31.18.57.28.77.3.2.02.38-.02.53-.11.1-.06.16-.12.18-.18.02-.07.02-.14-.01-.22s-.09-.18-.17-.29c-.08-.11-.18-.23-.29-.37-.11-.13-.21-.27-.3-.41-.09-.14-.14-.27-.17-.41-.02-.14,0-.28.08-.41s.22-.27.44-.4c.17-.1.36-.18.56-.24.2-.06.42-.1.65-.12.23-.01.47,0,.73.04.25.04.51.12.78.22l.83-.48.97.56Z"/>
                <polygon class="cls-58" points="52.64 57.45 52.64 57.93 51.66 57.37 51.66 56.89 52.64 57.45"/>
              </g>
              <path class="cls-16" d="m62.77,56.7c-.22.87-.93,1.68-2.03,2.31-2.83,1.63-7.41,1.63-10.22,0-1.07-.62-1.76-1.41-1.99-2.26v.36s0,.04,0,.06c.32.74.97,1.41,1.92,1.96,1.42.83,3.3,1.24,5.17,1.24s3.75-.41,5.19-1.24c.97-.56,1.64-1.25,1.96-2.01h0v-.43Zm-12.32,1.84c1.42.83,3.3,1.24,5.17,1.24s3.75-.41,5.19-1.24c.97-.56,1.64-1.25,1.96-2.01v-.42c-.23.87-.93,1.67-2.03,2.3-2.83,1.63-7.41,1.63-10.22,0-1.07-.62-1.76-1.41-1.99-2.26v.41c.32.74.97,1.42,1.92,1.97Zm10.29,1.07c-2.83,1.63-7.41,1.63-10.22,0-1.04-.61-1.72-1.36-1.97-2.18.04.31.14.62.3.92,0,0,0,0,0,0,.37.51.9.98,1.59,1.38,1.42.83,3.3,1.24,5.17,1.24s3.75-.41,5.19-1.24c.74-.43,1.31-.93,1.67-1.48.15-.3.24-.6.27-.9-.24.85-.93,1.64-2.02,2.26Z"/>
            </g>
            <g>
              <path class="cls-24" d="m63.13,55.01v.05h0c0,.07,0,.14-.01.22t0,0c-.03.3-.12.61-.27.9-.33.65-.93,1.25-1.81,1.76-2.79,1.61-7.3,1.61-10.07,0-.83-.48-1.41-1.06-1.74-1.67,0,0,0,0,0,0-.16-.3-.26-.61-.3-.92-.01-.08-.02-.17-.02-.25,0-.02,0-.04,0-.06v-.36s0-.18,0-.18v-.41s0-.92,0-.92c0,1.05.69,2.1,2.07,2.9,2.77,1.61,7.28,1.61,10.07,0,1.4-.81,2.1-1.87,2.1-2.93v.91s0,.42,0,.42v.54Z"/>
              <g class="cls-18">
                <path class="cls-16" d="m50.98,50.25c-2.79,1.61-2.81,4.22-.03,5.83,2.77,1.61,7.28,1.61,10.07,0,2.79-1.61,2.81-4.22.03-5.83-2.77-1.61-7.28-1.61-10.07,0Z"/>
                <path class="cls-58" d="m61.95,53.48c-.13.78-.71,1.54-1.74,2.13-2.34,1.35-6.13,1.35-8.46,0-1.02-.59-1.59-1.34-1.71-2.11-.16-1,.42-2.03,1.74-2.79,2.34-1.35,6.13-1.35,8.46,0,1.3.76,1.87,1.78,1.71,2.77Z"/>
                <path class="cls-50" d="m61.95,53.48c-.13.78-.71,1.54-1.74,2.13-2.34,1.35-6.13,1.35-8.46,0-1.02-.59-1.59-1.34-1.71-2.11.13-.78.71-1.54,1.74-2.13,2.34-1.35,6.13-1.35,8.46,0,1.02.59,1.58,1.34,1.71,2.11Z"/>
              </g>
              <g class="cls-18">
                <polygon class="cls-58" points="59.78 51.44 59.78 51.92 58.98 52.38 58.98 51.9 59.78 51.44"/>
                <polygon class="cls-58" points="59.86 52.72 59.86 53.2 58.7 53.6 58.7 53.12 59.86 52.72"/>
                <g class="cls-18">
                  <path class="cls-58" d="m56.35,52.79v-.48s0-.06.02-.08c.02-.05.08-.1.16-.15.13-.08.29-.11.48-.09.19.01.41.09.66.24.25.14.46.29.63.45.17.16.31.31.41.45v.48c-.1-.14-.24-.29-.41-.45-.17-.16-.38-.31-.63-.45-.25-.14-.47-.22-.66-.24-.19-.01-.35.02-.48.09-.08.05-.14.1-.16.15-.01.03-.02.05-.02.08Z"/>
                  <g class="cls-9">
                    <g class="cls-18">
                      <path class="cls-58" d="m58.7,53.12v.48c-.1-.14-.24-.29-.41-.45-.17-.16-.38-.31-.63-.45-.25-.14-.47-.22-.66-.24-.19-.01-.35.02-.48.09-.08.05-.14.1-.16.15-.01.03-.02.05-.02.08v-.48s0-.06.02-.08c.02-.05.08-.1.16-.15.13-.08.29-.11.48-.09.19.01.41.09.66.24.25.14.46.29.63.45.17.16.31.31.41.45h0Z"/>
                    </g>
                  </g>
                </g>
                <g class="cls-18">
                  <path class="cls-58" d="m55.68,53.87v.48s-.01-.09-.03-.14c-.03-.08-.09-.18-.17-.29-.08-.11-.18-.23-.29-.37-.11-.13-.21-.27-.3-.41-.09-.14-.14-.27-.17-.41,0-.03,0-.07,0-.1v-.48s0,.07.01.1c.02.14.08.28.17.41.09.14.19.27.3.41.11.14.21.26.29.37.08.11.14.2.17.29.02.05.03.09.03.14Z"/>
                  <g class="cls-54">
                    <g class="cls-18">
                      <path class="cls-58" d="m55.68,53.87v.48s-.01-.09-.03-.14c-.03-.08-.09-.18-.17-.29-.08-.11-.18-.23-.29-.37-.11-.13-.21-.27-.3-.41-.09-.14-.14-.27-.17-.41,0-.03,0-.07,0-.1v-.48s0,.07.01.1c.02.14.08.28.17.41.09.14.19.27.3.41.11.14.21.26.29.37.08.11.14.2.17.29.02.05.03.09.03.14h0Z"/>
                    </g>
                  </g>
                </g>
                <g class="cls-18">
                  <path class="cls-58" d="m52.93,54.29v.48c-.35-.23-.59-.44-.74-.63-.15-.18-.25-.33-.31-.42v-.48c.06.1.16.24.31.42.15.18.4.39.74.63Z"/>
                  <g class="cls-52">
                    <g class="cls-18">
                      <path class="cls-58" d="m52.93,54.29v.48c-.35-.23-.59-.44-.74-.63-.15-.18-.25-.33-.31-.42v-.48c.06.1.16.24.31.42.15.18.4.39.74.63h0Z"/>
                    </g>
                  </g>
                </g>
                <g class="cls-18">
                  <path class="cls-58" d="m57.27,54.02v.48c0,.13-.04.25-.11.38-.09.14-.25.28-.47.41-.15.09-.33.16-.53.22-.2.06-.41.1-.65.11-.24.01-.49,0-.75-.05-.26-.05-.54-.13-.84-.25v-.48c.29.12.57.21.84.25.26.05.52.06.75.05.24-.01.45-.05.65-.11.2-.06.37-.14.53-.22.23-.13.38-.27.47-.41.07-.12.11-.25.11-.38Z"/>
                  <g class="cls-43">
                    <g class="cls-18">
                      <path class="cls-58" d="m57.27,54.02v.48c0,.13-.04.25-.11.38-.09.14-.25.28-.47.41-.15.09-.33.16-.53.22-.2.06-.41.1-.65.11-.24.01-.49,0-.75-.05-.26-.05-.54-.13-.84-.25v-.48c.29.12.57.21.84.25.26.05.52.06.75.05.24-.01.45-.05.65-.11.2-.06.37-.14.53-.22.23-.13.38-.27.47-.41.07-.12.11-.25.11-.38h0Z"/>
                    </g>
                  </g>
                </g>
                <polygon class="cls-58" points="53.93 54.84 53.92 55.32 52.99 55.86 52.99 55.38 53.93 54.84"/>
                <path class="cls-16" d="m59.78,51.44l-.8.46c.24.17.43.33.58.47.14.14.24.26.31.35l-1.16.4c-.1-.14-.23-.29-.41-.45-.17-.16-.38-.31-.63-.45-.25-.14-.47-.22-.66-.24-.19-.01-.35.02-.48.09-.08.05-.14.1-.16.15-.03.05-.03.11,0,.18.03.07.07.15.13.23s.14.19.24.3c.14.18.26.35.36.52.1.17.15.33.17.48.02.15-.02.3-.11.45-.09.14-.25.28-.47.41-.15.09-.33.16-.53.22-.2.06-.41.1-.65.11-.24.01-.49,0-.75-.05-.26-.05-.54-.13-.84-.25l-.94.54-.97-.56.91-.53c-.34-.23-.59-.44-.74-.63-.15-.18-.25-.33-.31-.42l1.21-.32c.09.15.23.32.41.51.18.19.41.36.68.52.31.18.57.28.77.3.2.02.38-.02.53-.11.1-.06.16-.12.18-.18.02-.07.02-.14-.01-.22-.03-.08-.09-.18-.17-.29-.08-.11-.18-.23-.29-.37-.11-.13-.21-.27-.3-.41-.09-.14-.14-.27-.17-.41-.02-.14,0-.27.08-.41s.22-.27.44-.4c.17-.1.36-.18.56-.24.2-.06.42-.1.65-.12.23-.01.47,0,.73.04.25.04.51.12.78.22l.83-.48.97.56Z"/>
                <polygon class="cls-58" points="52.99 55.38 52.99 55.86 52.02 55.3 52.02 54.82 52.99 55.38"/>
              </g>
              <path class="cls-16" d="m63.12,54.64c-.23.87-.93,1.68-2.03,2.31-2.83,1.63-7.41,1.63-10.22,0-1.07-.62-1.76-1.41-1.99-2.26v.36s0,.04,0,.06c.32.74.97,1.41,1.92,1.96,1.42.83,3.3,1.24,5.17,1.24s3.75-.41,5.19-1.24c.97-.56,1.64-1.25,1.96-2.01h0v-.43Zm-12.32,1.84c1.42.83,3.3,1.24,5.17,1.24s3.75-.41,5.19-1.24c.97-.56,1.64-1.25,1.96-2.01v-.42c-.23.87-.93,1.67-2.03,2.3-2.83,1.63-7.41,1.63-10.22,0-1.07-.62-1.76-1.41-1.99-2.26v.41c.32.74.97,1.42,1.92,1.97Zm10.29,1.07c-2.83,1.63-7.41,1.63-10.22,0-1.04-.61-1.72-1.36-1.97-2.18.04.31.14.62.3.92,0,0,0,0,0,0,.37.51.9.98,1.59,1.38,1.42.83,3.3,1.24,5.17,1.24s3.75-.41,5.19-1.24c.74-.43,1.31-.93,1.67-1.48.15-.3.24-.6.27-.9-.24.85-.93,1.64-2.02,2.26Z"/>
            </g>
            <g>
              <path class="cls-24" d="m62.8,52.67v.05h0c0,.07,0,.14-.01.22t0,0c-.03.3-.12.61-.27.9-.33.65-.93,1.25-1.81,1.76-2.79,1.61-7.3,1.61-10.07,0-.83-.48-1.41-1.06-1.74-1.67,0,0,0,0,0,0-.16-.3-.26-.61-.3-.92-.01-.08-.02-.17-.02-.25,0-.02,0-.04,0-.06v-.36s0-.18,0-.18v-.41s0-.92,0-.92c0,1.05.69,2.1,2.07,2.9,2.77,1.61,7.28,1.61,10.07,0,1.4-.81,2.1-1.87,2.1-2.93v.91s0,.42,0,.42v.54Z"/>
              <g class="cls-18">
                <path class="cls-16" d="m50.66,47.91c-2.79,1.61-2.81,4.22-.03,5.83,2.77,1.61,7.28,1.61,10.07,0,2.79-1.61,2.8-4.22.03-5.83-2.77-1.61-7.28-1.61-10.07,0Z"/>
                <path class="cls-58" d="m61.63,51.14c-.13.78-.71,1.54-1.74,2.13-2.34,1.35-6.13,1.35-8.46,0-1.02-.59-1.59-1.34-1.71-2.11-.16-1,.42-2.03,1.74-2.79,2.34-1.35,6.13-1.35,8.46,0,1.3.76,1.87,1.78,1.71,2.77Z"/>
                <path class="cls-50" d="m61.63,51.14c-.13.78-.71,1.54-1.74,2.13-2.34,1.35-6.13,1.35-8.46,0-1.02-.59-1.59-1.34-1.71-2.11.13-.78.71-1.54,1.74-2.13,2.34-1.35,6.13-1.35,8.46,0,1.02.59,1.58,1.34,1.71,2.11Z"/>
              </g>
              <g class="cls-18">
                <polygon class="cls-58" points="59.46 49.1 59.45 49.58 58.66 50.04 58.66 49.56 59.46 49.1"/>
                <polygon class="cls-58" points="59.54 50.38 59.54 50.86 58.38 51.26 58.38 50.78 59.54 50.38"/>
                <g class="cls-18">
                  <path class="cls-58" d="m56.02,50.45v-.48s0-.06.02-.08c.02-.05.08-.1.16-.15.13-.08.29-.11.48-.09.19.01.41.09.66.24.25.14.46.29.63.45.17.16.31.31.41.45v.48c-.1-.14-.24-.29-.41-.45-.17-.16-.38-.31-.63-.45-.25-.14-.47-.22-.66-.24-.19-.01-.35.02-.48.09-.08.05-.14.1-.16.15-.01.03-.02.05-.02.08Z"/>
                  <g class="cls-6">
                    <g class="cls-18">
                      <path class="cls-58" d="m58.38,50.78v.48c-.1-.14-.24-.29-.41-.45-.17-.16-.38-.31-.63-.45-.25-.14-.47-.22-.66-.24-.19-.01-.35.02-.48.09-.08.05-.14.1-.16.15-.01.03-.02.05-.02.08v-.48s0-.06.02-.08c.02-.05.08-.1.16-.15.13-.08.29-.11.48-.09.19.01.41.09.66.24.25.14.46.29.63.45.17.16.31.31.41.45h0Z"/>
                    </g>
                  </g>
                </g>
                <g class="cls-18">
                  <path class="cls-58" d="m55.36,51.53v.48s-.01-.09-.03-.14c-.03-.08-.09-.18-.17-.29-.08-.11-.18-.23-.29-.37-.11-.13-.21-.27-.3-.41-.09-.14-.14-.27-.17-.41,0-.03,0-.07,0-.1v-.48s0,.07.01.1c.02.14.08.28.17.41.09.14.19.27.3.41.11.14.21.26.29.37.08.11.13.2.17.29.02.05.03.1.03.14Z"/>
                  <g class="cls-27">
                    <g class="cls-18">
                      <path class="cls-58" d="m55.36,51.53v.48s-.01-.09-.03-.14c-.03-.08-.09-.18-.17-.29-.08-.11-.18-.23-.29-.37-.11-.13-.21-.27-.3-.41-.09-.14-.14-.27-.17-.41,0-.03,0-.07,0-.1v-.48s0,.07.01.1c.02.14.08.28.17.41.09.14.19.27.3.41.11.14.21.26.29.37.08.11.13.2.17.29.02.05.03.1.03.14h0Z"/>
                    </g>
                  </g>
                </g>
                <g class="cls-18">
                  <path class="cls-58" d="m52.61,51.95v.48c-.35-.23-.59-.44-.74-.63-.15-.18-.25-.33-.31-.42v-.48c.06.1.16.24.31.42.15.18.4.39.74.63Z"/>
                  <g class="cls-36">
                    <g class="cls-18">
                      <path class="cls-58" d="m52.61,51.95v.48c-.35-.23-.59-.44-.74-.63-.15-.18-.25-.33-.31-.42v-.48c.06.1.16.24.31.42.15.18.4.39.74.63h0Z"/>
                    </g>
                  </g>
                </g>
                <g class="cls-18">
                  <path class="cls-58" d="m56.95,51.68v.48c0,.13-.04.25-.11.38-.09.14-.25.28-.47.41-.15.09-.33.16-.53.23-.2.06-.41.1-.65.11-.24.01-.49,0-.75-.05-.26-.05-.54-.13-.84-.25v-.48c.29.12.57.21.84.25.26.05.52.06.75.05.24-.01.45-.05.65-.11.2-.06.37-.14.53-.22.23-.13.38-.27.47-.41.07-.12.11-.25.11-.38Z"/>
                  <g class="cls-63">
                    <g class="cls-18">
                      <path class="cls-58" d="m56.95,51.68v.48c0,.13-.04.25-.11.38-.09.14-.25.28-.47.41-.15.09-.33.16-.53.23-.2.06-.41.1-.65.11-.24.01-.49,0-.75-.05-.26-.05-.54-.13-.84-.25v-.48c.29.12.57.21.84.25.26.05.52.06.75.05.24-.01.45-.05.65-.11.2-.06.37-.14.53-.22.23-.13.38-.27.47-.41.07-.12.11-.25.11-.38h0Z"/>
                    </g>
                  </g>
                </g>
                <polygon class="cls-58" points="53.6 52.5 53.6 52.98 52.67 53.52 52.67 53.04 53.6 52.5"/>
                <path class="cls-16" d="m59.46,49.1l-.8.46c.24.17.43.33.58.47.14.14.24.26.31.35l-1.16.4c-.1-.14-.23-.29-.41-.45-.17-.16-.38-.31-.63-.45-.25-.14-.47-.22-.66-.24-.19-.01-.35.02-.48.09-.08.05-.14.1-.16.15-.03.05-.03.11,0,.18.03.07.07.15.13.23s.14.19.24.3c.14.18.26.35.36.52.1.17.15.33.17.48.02.15-.02.3-.11.45-.09.14-.25.28-.47.41-.15.09-.33.16-.53.22-.2.06-.41.1-.65.11-.24.01-.49,0-.75-.05-.26-.05-.54-.13-.84-.25l-.94.54-.97-.56.91-.53c-.34-.23-.59-.44-.74-.63-.15-.18-.25-.33-.31-.42l1.21-.32c.09.15.23.32.41.51.18.19.41.36.68.52.31.18.57.28.77.3.2.02.38-.02.53-.11.1-.06.16-.12.18-.18.02-.07.02-.14-.01-.22-.03-.08-.09-.18-.17-.29-.08-.11-.18-.23-.29-.37-.11-.13-.21-.27-.3-.41-.09-.14-.14-.27-.17-.41-.02-.14,0-.27.08-.41s.22-.27.44-.4c.17-.1.36-.18.56-.24.2-.06.42-.1.65-.12.23-.01.47,0,.73.04.25.04.51.12.78.22l.83-.48.97.56Z"/>
                <polygon class="cls-58" points="52.67 53.04 52.67 53.52 51.69 52.96 51.69 52.48 52.67 53.04"/>
              </g>
              <path class="cls-16" d="m62.8,52.3c-.22.87-.93,1.68-2.03,2.31-2.83,1.63-7.41,1.63-10.22,0-1.07-.62-1.76-1.41-1.99-2.26v.36s0,.04,0,.06c.32.74.97,1.41,1.92,1.96,1.42.83,3.3,1.24,5.17,1.24s3.75-.41,5.19-1.24c.97-.56,1.64-1.25,1.96-2.01h0v-.43Zm-12.32,1.84c1.42.83,3.3,1.24,5.17,1.24s3.75-.41,5.19-1.24c.97-.56,1.64-1.25,1.96-2.01v-.42c-.23.87-.93,1.67-2.03,2.3-2.83,1.63-7.41,1.63-10.22,0-1.07-.62-1.76-1.41-1.99-2.26v.41c.32.74.97,1.42,1.92,1.97Zm10.29,1.07c-2.83,1.63-7.41,1.63-10.22,0-1.04-.61-1.72-1.36-1.97-2.18.04.31.14.62.3.92,0,0,0,0,0,0,.37.51.9.98,1.59,1.38,1.42.83,3.3,1.24,5.17,1.24s3.75-.41,5.19-1.24c.74-.43,1.31-.93,1.67-1.48.15-.3.24-.6.27-.9-.24.85-.93,1.64-2.02,2.26Z"/>
            </g>
          </g>
          <g>
            <g>
              <polygon class="cls-10" points="6.13 57 5.62 56.35 13.02 50.51 22.51 26.52 31.59 30.05 38.64 27.25 45.08 10.81 45.14 10.76 55.2 0 55.8 .56 45.79 11.26 39.28 27.88 31.59 30.93 22.97 27.58 13.7 51.02 6.13 57"/>
              <g>
                <path class="cls-10" d="m46.53,10.58c0,.76-.53,1.68-1.19,2.06-.66.38-1.19.07-1.19-.69s.53-1.68,1.19-2.06c.66-.38,1.19-.07,1.19.69Z"/>
                <path class="cls-10" d="m40.21,26.64c0,.76-.53,1.68-1.19,2.06-.66.38-1.19.07-1.19-.69s.53-1.68,1.19-2.06,1.19-.07,1.19.69Z"/>
                <path class="cls-10" d="m32.91,29.9c0,.76-.53,1.68-1.19,2.06-.66.38-1.19.07-1.19-.69s.53-1.68,1.19-2.06c.66-.38,1.19-.07,1.19.69Z"/>
                <path class="cls-10" d="m23.7,26.64c0,.76-.53,1.68-1.19,2.06-.66.38-1.19.07-1.19-.69s.53-1.68,1.19-2.06,1.19-.07,1.19.69Z"/>
                <path class="cls-10" d="m14.65,49.7c0,.76-.53,1.68-1.19,2.06s-1.19.07-1.19-.69.53-1.68,1.19-2.06c.66-.38,1.19-.07,1.19.69Z"/>
                <path class="cls-10" d="m7.14,55.6c0,.76-.53,1.68-1.19,2.06s-1.19.07-1.19-.69.53-1.68,1.19-2.06c.66-.38,1.19-.07,1.19.69Z"/>
              </g>
            </g>
            <g>
              <polygon class="cls-8" points="1.3 51.02 .66 50.52 11.94 35.96 21.18 39.95 32.56 22.84 42.9 21.8 49.54 12.44 60.98 9.33 61.2 10.12 50.04 13.15 43.35 22.58 33.03 23.62 21.49 40.97 12.2 36.96 1.3 51.02"/>
              <g>
                <path class="cls-8" d="m33.86,22.75c0,.76-.53,1.68-1.19,2.06-.66.38-1.19.07-1.19-.69s.53-1.68,1.19-2.06,1.19-.07,1.19.69Z"/>
                <path class="cls-8" d="m22.78,39.44c0,.76-.53,1.68-1.19,2.06s-1.19.07-1.19-.69.53-1.68,1.19-2.06c.66-.38,1.19-.07,1.19.69Z"/>
                <path class="cls-8" d="m13.36,35.79c0,.76-.53,1.68-1.19,2.06-.66.38-1.19.07-1.19-.69,0-.76.53-1.68,1.19-2.06.66-.38,1.19-.07,1.19.69Z"/>
                <path class="cls-8" d="m2.37,49.82c0,.76-.53,1.68-1.19,2.06s-1.19.07-1.19-.69.53-1.68,1.19-2.06c.66-.38,1.19-.07,1.19.69Z"/>
                <path class="cls-8" d="m44.42,21.21c0,.76-.53,1.68-1.19,2.06s-1.19.07-1.19-.69.53-1.68,1.19-2.06c.66-.38,1.19-.07,1.19.69Z"/>
                <path class="cls-8" d="m50.97,12.39c0,.76-.53,1.68-1.19,2.06-.66.38-1.19.07-1.19-.69,0-.76.53-1.68,1.19-2.06.66-.38,1.19-.07,1.19.69Z"/>
              </g>
            </g>
          </g>
          <g>
            <ellipse class="cls-1" cx="26.17" cy="69.08" rx="15.76" ry="9.1"/>
            <g class="cls-18">
              <g class="cls-18">
                <path class="cls-55" d="m45.31,24.72l-3.73-1.45c-3.83-1.48-8.64-.43-13.51,3.51l3.73,1.45c4.87-3.94,9.68-5,13.51-3.51Z"/>
                <g class="cls-35">
                  <g class="cls-18">
                    <path class="cls-55" d="m45.31,24.72l-3.73-1.45c-3.83-1.48-8.64-.43-13.51,3.51l3.73,1.45c4.87-3.94,9.68-5,13.51-3.51h0Z"/>
                  </g>
                </g>
              </g>
              <g class="cls-18">
                <path class="cls-55" d="m21.68,74.6l3.73,1.45c-3.78-1.47-6.6-5.4-7.58-11.48-1.97-12.23,4.28-28.5,13.96-36.33l-3.73-1.45c-9.68,7.83-15.93,24.1-13.96,36.33.98,6.08,3.8,10.02,7.58,11.48Z"/>
                <g class="cls-20">
                  <g class="cls-18">
                    <path class="cls-55" d="m31.8,28.24l-3.73-1.45c-9.68,7.83-15.93,24.1-13.96,36.33.98,6.08,3.8,10.02,7.58,11.48l3.73,1.45c-3.78-1.47-6.6-5.4-7.58-11.48-1.97-12.23,4.28-28.5,13.96-36.33h0Z"/>
                  </g>
                </g>
              </g>
              <path class="cls-47" d="m31.8,28.24c-9.68,7.83-15.93,24.1-13.96,36.33,1.97,12.23,11.41,15.8,21.09,7.97,9.68-7.83,15.93-24.1,13.96-36.33-1.97-12.23-11.41-15.8-21.09-7.97Z"/>
              <path class="cls-14" d="m32.49,32.52c-7.81,6.32-12.85,19.43-11.26,29.3,1.59,9.86,9.2,12.74,17.01,6.43,7.81-6.32,12.85-19.43,11.26-29.3-1.59-9.87-9.2-12.74-17.01-6.43Z"/>
              <path class="cls-47" d="m33.25,37.23c-5.75,4.65-9.46,14.31-8.29,21.57,1.17,7.26,6.77,9.38,12.52,4.73,5.75-4.65,9.46-14.31,8.29-21.57-1.17-7.26-6.77-9.38-12.52-4.73Z"/>
              <path class="cls-14" d="m33.95,41.61c-3.83,3.1-6.31,9.54-5.53,14.39.78,4.84,4.52,6.26,8.35,3.16,3.83-3.1,6.31-9.54,5.53-14.39-.78-4.84-4.52-6.26-8.35-3.16Z"/>
              <path class="cls-47" d="m34.58,45.52c-2.12,1.72-3.5,5.29-3.07,7.98.43,2.69,2.5,3.47,4.63,1.75,2.13-1.72,3.5-5.29,3.07-7.98-.43-2.69-2.5-3.47-4.63-1.75Z"/>
            </g>
            <g>
              <g class="cls-18">
                <polygon class="cls-2" points="39.15 50.17 40.54 49.36 39.86 48.48 38.47 49.28 39.15 50.17"/>
                <polygon class="cls-2" points="38.47 49.28 39.86 48.48 39.89 47.57 38.51 48.37 38.47 49.28"/>
                <polygon class="cls-2" points="41.24 52.88 42.63 52.08 40.54 49.36 39.15 50.17 41.24 52.88"/>
                <path class="cls-10" d="m38.62,45.6l-.11,2.78-.04.91.68.89,2.09,2.72-5.96-2.77c.02-.68.06-1.36.18-2.02l3.16-2.49Z"/>
                <polygon class="cls-2" points="38.51 48.37 39.89 47.57 40 44.79 38.62 45.6 38.51 48.37"/>
              </g>
              <path class="cls-11" d="m62.34,48.43c.1-.14.16-.31.15-.49-.02-.43-.38-.77-.82-.75l-22,.9c-.43.02-.77.38-.75.82.02.43.38.77.82.75l22-.9c.25-.01.47-.14.6-.32Z"/>
              <polygon class="cls-62" points="66.31 52.39 67.7 51.59 63.65 47.81 62.27 48.61 66.31 52.39"/>
              <polygon class="cls-62" points="63.53 44.68 64.92 43.88 60.12 44.01 58.73 44.82 63.53 44.68"/>
              <polygon class="cls-2" points="62.27 48.61 63.65 47.81 64.92 43.88 63.53 44.68 62.27 48.61"/>
              <polygon class="cls-10" points="63.53 44.68 58.73 44.82 56.04 47.42 55.87 49 57.06 49.66 61.51 52.53 66.31 52.39 62.27 48.61 63.53 44.68"/>
            </g>
            <g class="cls-18">
              <polygon class="cls-2" points="36.48 54.24 36.48 55.84 37.62 55.9 37.61 54.3 36.48 54.24"/>
              <polygon class="cls-2" points="37.61 54.3 37.62 55.9 41.08 56.09 41.08 54.49 37.61 54.3"/>
              <polygon class="cls-2" points="35.83 54.78 35.83 56.38 36.48 55.84 36.48 54.24 35.83 54.78"/>
              <path class="cls-2" d="m33.83,58.04l-.44-5.89s.07-.04.11-.06l.33,4.35v1.6Z"/>
              <path class="cls-10" d="m35.2,51.32l5.88,3.17-3.47-.18-1.13-.06-.65.54-2.01,1.65-.33-4.35c.54-.3,1.1-.56,1.71-.77Z"/>
              <polygon class="cls-2" points="33.82 56.43 33.83 58.04 35.83 56.38 35.83 54.78 33.82 56.43"/>
              <polygon class="cls-2" points="47.85 69.14 47.86 70.74 48.65 70.53 48.64 68.93 47.85 69.14"/>
              <polygon class="cls-2" points="47.73 69.75 47.74 71.35 47.86 70.74 47.85 69.14 47.73 69.75"/>
              <path class="cls-11" d="m50.51,73.32c.17,0,.34-.06.49-.17.34-.27.4-.76.13-1.1l-13.64-17.29c-.27-.34-.76-.4-1.1-.13-.34.27-.4.76-.13,1.1l13.64,17.29c.16.2.39.3.62.3Z"/>
              <polygon class="cls-62" points="52.3 74.13 52.3 75.73 57.91 76.92 57.9 75.32 52.3 74.13"/>
              <polygon class="cls-2" points="50.22 77.38 50.23 78.98 52.3 75.73 52.3 74.13 50.22 77.38"/>
              <polygon class="cls-62" points="47.03 73.37 47.04 74.97 50.23 78.98 50.22 77.38 47.03 73.37"/>
              <polygon class="cls-10" points="47.45 69.92 47.03 73.37 50.22 77.38 52.3 74.13 57.9 75.32 54.71 71.3 49.52 69.27 48.79 69.08 47.45 69.92"/>
            </g>
          </g>
          <g>
            <path class="cls-1" d="m26.23,86.45c1.33.77,1.33,2.01,0,2.77-1.33.77-3.48.77-4.8,0-1.33-.77-1.33-2.01,0-2.77,1.33-.77,3.48-.77,4.8,0Z"/>
            <path class="cls-1" d="m34.39,87.97c1.33.77,1.33,2.01,0,2.77s-3.48.77-4.8,0c-1.33-.77-1.33-2.01,0-2.77,1.33-.77,3.48-.77,4.8,0Z"/>
            <g id="woman">
              <g>
                <path class="cls-40" d="m23.21,87.16s.05.1.06.13c.03.06.07.13.1.2.04.08.05.19.07.28.05.18.1.36.15.55.02.07.04.15.04.22,0,.07,0,.15-.05.22-.07.12-.22.16-.35.19-.08.02-.16.04-.23,0-.06-.03-.09-.08-.13-.14-.15-.25-.22-.51-.29-.79-.04-.14-.07-.29-.06-.44,0-.08.03-.17.07-.24.02-.04.05-.07.08-.1.03-.03.06-.04.08-.08.04-.07.07-.16.13-.22.05-.05.15-.04.21-.01.07.03.12.1.14.17,0,.02-.04.04-.04.07,0,0,0,0,0,0Z"/>
                <path class="cls-60" d="m24.89,87.31c-.04-.1-.1-.19-.16-.27-.09-.1-.19-.19-.28-.29-.13-.12-.25-.25-.36-.39,0,0-.02-.02-.02-.03h-.77c-.02.06-.04.12-.04.18,0,.11.03.22.11.3.09.09.21.13.31.2.13.08.22.2.3.33.07.13.19.25.31.33.08.05.18.08.27.06.1-.02.18-.09.25-.16.04-.04.07-.08.1-.12.03-.05.02-.08,0-.14Z"/>
                <path class="cls-57" d="m25.22,81.77c.05.54.02,1.07,0,1.61-.01.25.08.87-.35.83-.21-.02-.63-.32-.73-.76-.06-.24-.1-.58-.15-.81-.11-.49-.85-2,.1-2.47.14-.07.53-.5.68-.41.42.24.42,1.53.46,2.02Z"/>
                <path class="cls-57" d="m25.18,83.97c-.09.21-.22.35-.35.59-.26.46-.5.84-.65,1.35-.03.12-.06.23-.1.35-.04.14-.1.3-.24.34-.07.02-.16.01-.24-.02-.12-.04-.21-.13-.27-.23-.08-.13-.02-.22.03-.34.14-.37.07-.79.13-1.18.03-.2.1-.39.17-.57.13-.37.33-.66.61-.94.07-.07.15-.14.26-.12l.65.76Z"/>
                <path class="cls-19" d="m22.21,80.81c.03-.38.16-.77.43-1.04v.33c0-.07.03-.15.06-.22.01-.03.03-.06.04-.08.06-.07.12-.03.25,0,.15.03.3.02.45.05.47.07.51.17.83-.08.06.39-.02.76-.02.85.01.45-.34.49-.35.73-.04.55-.1,1.64-.18,2.19-.03.21-.14.43-.24.61-.11.21-.22.33-.43.31-.09-.01-.26-.12-.31-.2-.03-.05-.04-.15-.06-.21-.05-.17-.1-.35-.14-.53,0-.04-.02-.07-.02-.11h0s0,0,0-.01c-.09-.47-.15-.96-.22-1.43-.06-.38-.11-.76-.08-1.14Z"/>
                <g id="people">
                  <g>
                    <path class="cls-30" d="m24.28,76.75c-.32-.58-.24-1.19.03-1.26.46-.13.62.2.99,1.18,0,.02.02.04.03.06.09.24.18.47.26.72.04.14.08.28.1.42,0,.03,0,.07.01.1,0,.03,0,.07-.02.1-.02.08-.04.17-.07.25-.05.1-.13.18-.24.2-.12.03-.25-.03-.33-.12s-.14-.2-.18-.32c-.05-.13-.09-.26-.14-.39-.03-.09-.06-.18-.08-.26-.02-.07-.07-.14-.1-.2-.08-.16-.17-.31-.25-.47Z"/>
                    <path class="cls-62" d="m24.28,76.75c-.32-.58-.24-1.19.03-1.26.46-.13.62.2.99,1.18,0,.02.02.04.03.06.09.24.18.47.26.72.04.14.08.28.1.42,0,.03,0,.07.01.1,0,.03,0,.07-.02.1-.02.08-.04.17-.07.25-.05.1-.13.18-.24.2-.12.03-.25-.03-.33-.12s-.14-.2-.18-.32c-.05-.13-.09-.26-.14-.39-.03-.09-.06-.18-.08-.26-.02-.07-.07-.14-.1-.2-.08-.16-.17-.31-.25-.47Z"/>
                    <path class="cls-4" d="m21.51,74.04c-.04.27,0,.52-.01.8,0,.29-.04.58-.1.86-.05.25-.13.5-.16.76-.03.26,0,.53.14.75.04.06.08.11.14.14.08.04.17.05.26.03.27-.05.49-.26.59-.52s.11-.54.07-.81c-.03-.27-.1-.54-.14-.81-.04-.33-.01-.64.01-.97,0-.1,0-.17.07-.25.08-.09.21-.15.32-.17.11-.02.23,0,.33-.05.14-.06.23-.22.2-.37-.02-.11-.09-.2-.16-.27-.16-.17-.37-.32-.6-.34-.24-.02-.47.11-.63.29-.16.18-.24.41-.3.65-.02.09-.04.17-.05.26Z"/>
                    <g>
                      <path class="cls-5" d="m22.65,75.5c.22-.1.3-.16.54-.21.04,0,.16.04.2.03.28-.06.59-.05.85.07,0,0,0,0,0,0v1.74h-1.67l.07-1.64Z"/>
                      <path class="cls-14" d="m21.83,76.32s0-.07.01-.11c.11-.36.51-.54.8-.71-.02.01.05.22.06.25.03.08.06.15.11.22.2.29.54.38.86.24.41-.18.2-.49.36-.77.03-.05.09-.08.15-.08.11,0,.22.02.28.12.05.07.07.16.1.24.05.13.11.25.17.37.09.17.18.34.25.52.07.18.13.4.12.59,0,.23-.27,1.1-.27,1.66,0,.38.18.76.13,1.14,0,.03-.01.07-.02.1-.05.16-.16.29-.3.39-.14.1-.29.17-.45.23-.32.12-.65.22-.98.29-.29.07-.75.11-.97-.15-.07-.09-.11-.21-.11-.33,0-.12.03-.23.06-.35.08-.32.23-.62.31-.94.1-.38.19-.78.08-1.18-.04-.17-.11-.32-.18-.48-.11-.24-.22-.48-.32-.72-.05-.12-.11-.24-.16-.35-.03-.07-.06-.13-.07-.19Z"/>
                    </g>
                    <g>
                      <path class="cls-5" d="m22.74,75.58c-.02.62,1.06.63,1.04.05-.02-.81-.07-.9-.42-1.02-.1-.03-.2-.06-.3-.06-.37,0-.23.2-.21.34.04.42-.1.48-.1.7Z"/>
                      <path class="cls-13" d="m23.36,74.6c-.1-.03-.2-.06-.3-.06-.37,0-.23.2-.21.34.01.12,0,.2,0,.28.23.31.56.51.92.59,0-.04.01-.07.01-.12-.02-.81-.07-.9-.42-1.02Z"/>
                      <path class="cls-30" d="m23.23,75.26s-.06-.05-.09-.08c-.1-.1-.22-.21-.3-.33-.23-.4-.25-.93.09-1.27.24-.25.61-.35.94-.25.09.03.17.06.26.11.07.04.14.08.19.14.04.04.06.08.09.13.03.05.05.11.07.16.06.26-.11.52,0,.77.02.06.05.11.07.16.02.06.02.12,0,.17-.03.05-.07.07-.09.12-.02.07-.04.15-.06.22-.02.08-.04.16-.08.23-.1.18-.24.19-.42.12-.24-.09-.46-.23-.65-.39Z"/>
                      <path class="cls-59" d="m22.44,74.06c.02-.5.16-.58.35-.74.18-.15.43-.22.67-.22.24,0,.48.09.69.22,0,0,.02.01.02.02.11.07.2.15.26.27.03.06.05.13.06.2.02.13-.09.18-.2.22-.15.05-.36-.02-.52-.03-.07,0-.15-.02-.22,0-.07.02-.14.07-.15.14-.02.07.02.15.04.22.03.15-.04.3-.16.39-.07.05-.12.05-.2.02-.07-.03-.14-.09-.22-.04-.07.04-.04.14-.03.2,0,.01.03.11,0,.11-.04,0-.42-.35-.4-.95Z"/>
                      <path class="cls-4" d="m23.42,74.12c-.02.07.02.15.04.22.03.15-.04.3-.16.39-.07.05-.12.05-.2.02-.07-.03-.14-.09-.22-.04-.07.04-.04.14-.03.2,0,.01.03.11,0,.11-.04,0-.42-.35-.4-.95.01-.29.07-.44.15-.55,0,0,.23.09.43.23.19.13.4.38.4.38Z"/>
                      <path class="cls-30" d="m22.92,74.51c-.17-.01-.21.2-.1.36.03.05.09.09.14.13.31.26.38-.02.29-.11-.23-.21-.11-.37-.33-.38Z"/>
                      <path class="cls-5" d="m23.03,74.9s-.21-.13-.08-.21c.04-.02.08.01.08.05,0,.02,0,.04,0,.06,0,.01,0,.02.01.03.02.03.08.06.06.1-.01.04-.07-.02-.08-.03Z"/>
                    </g>
                    <path class="cls-30" d="m21.3,76.45c.35-.56.93-.78,1.12-.58.33.34.16.71-.51,1.5-.16.19-.71.86-1.1,1.11-.25.16-.56.06-.59-.04-.09-.35.39-.88,1.07-1.98Z"/>
                  </g>
                </g>
                <path class="cls-19" d="m23.7,83.35c-.04.55-.26.94-.35,1.49-.1.57-.13,1.12-.1,1.7,0,.12,0,.24.02.36,0,.1.03.23,0,.32-.03.09-.13.15-.23.18-.07.02-.15.03-.22.03-.07,0-.14-.03-.19-.08-.05-.04-.06-.12-.08-.18-.03-.13-.02-.27-.03-.4-.01-.11-.04-.23-.07-.34-.06-.25-.15-.5-.19-.75-.03-.21-.03-.43-.02-.65,0-.43.15-1.01.33-1.4.04-.09.05.02.16,0l.99-.27Z"/>
              </g>
              <path class="cls-30" d="m22.49,79.71c.01-.15-1.75-2.24-2.18-1.62-.07.09-.11.29-.06.4.07.14,1.23.84,1.78,1.34.06.05.08.04.15.03.12-.02.3-.04.31-.15Z"/>
              <path class="cls-10" d="m21.3,76.45c.35-.56.93-.78,1.12-.58.33.34.16.71-.51,1.5-.16.19-.71.86-1.1,1.11-.25.16-.56.06-.59-.04-.09-.35.39-.88,1.07-1.98Z"/>
              <path class="cls-30" d="m22.57,80.74s-.02.05-.04.06c-.03.01-.07-.03-.08-.05-.03-.04-.04-.09-.04-.14,0-.06,0-.13,0-.19,0-.02,0-.04-.02-.05-.01-.01-.03-.02-.05-.01-.03.01-.03.07-.04.1,0,.04-.02.09-.02.13,0,.09,0,.18.02.26.01.05.03.09.02.14,0,.05-.03.1-.07.13-.02.02-.03.02-.05,0-.02-.02-.04-.03-.06-.05-.08-.07-.14-.17-.18-.27-.05-.14-.06-.28-.05-.43,0-.13.04-.27.07-.4.02-.07.03-.13.05-.2.01-.05.02-.13.05-.17.06-.08.17-.11.26-.07.02,0,.04.02.05.03.06.05.09.12.11.19,0,.04.02.22.03.27.03.22.06.44.03.66,0,.01,0,.03,0,.04Z"/>
              <path class="cls-30" d="m27.15,78.43c.05-.01.1-.04.15-.05.07-.02.14-.02.21-.02.2,0,.41-.01.61-.02.03,0,.07,0,.09.03,0,.01,0,.03,0,.04-.02.04-.06.07-.1.08-.04.01-.09.01-.13.02-.08,0-.15.02-.22.04,0,0-.01,0-.02.01,0,.01,0,.02.01.03.04.04.09.08.14.1.03.01.05.03.08.04.03.01.05.03.07.04.14.04.29.06.42.13.04.02.1.09.02.11-.06.02-.13,0-.2-.02-.08-.02-.16-.03-.24-.05-.02,0-.04,0-.06,0,0,0-.02-.01-.03,0-.05.02.06.09.08.1l.16.11c.06.04.12.09.14.16,0,.02,0,.04-.02.05-.02,0-.04,0-.06,0-.04,0-.07-.03-.1-.06-.07-.06-.15-.11-.24-.16-.04-.02-.08-.05-.12-.06-.05-.02-.03.03,0,.06.06.05.11.1.16.17.02.03.04.06.05.1,0,.04-.04.05-.07.04-.03,0-.06-.03-.08-.06-.06-.05-.11-.11-.17-.16-.02-.02-.05-.06-.08-.07-.02-.01-.05,0-.04.02,0,.04.03.07.05.11.01.03.02.05.02.08,0,.01,0,.03-.02.03,0,0-.02,0-.03,0-.05-.03-.09-.07-.12-.12-.03-.05-.08-.1-.12-.15-.08-.1-.18-.18-.29-.24-.07-.03-.14-.05-.21-.09-.02,0-.03-.02-.04-.04,0-.02,0-.04,0-.06.02-.07.05-.13.1-.19.03-.04.1-.12.15-.1.04.02.08.02.13.01Z"/>
              <path class="cls-10" d="m22.49,79.71c.01-.15-1.75-2.24-2.18-1.62-.07.09-.11.29-.06.4.07.14,1.23.84,1.78,1.34.06.05.08.04.15.03.12-.02.3-.04.31-.15Z"/>
              <path class="cls-62" d="m25.04,78.09c-.02.11,0,.31.1.39.09.07,1.06.2,1.75.36.08-.14.12-.29.13-.43-.75-.34-1.88-.79-1.98-.32Z"/>
            </g>
            <g id="man">
              <g class="cls-18">
                <g class="cls-18">
                  <g class="cls-23">
                    <g class="cls-18">
                      <path class="cls-64" d="m33.05,74.68l-.48-.28c.05-.03.1-.03.13-.01l.48.28s-.08-.02-.13.01h0Z"/>
                    </g>
                  </g>
                </g>
              </g>
              <g id="man-2" data-name="man">
                <g id="man-3" data-name="man">
                  <g>
                    <path class="cls-2" d="m33.66,88.92s-.05-.07-.13-.07c-.1,0-.19,0-.29,0-.13,0-.26,0-.39-.01,0-.11,0-.21,0-.32-.14.03-.22,0-.35-.05-.16-.05-.32-.1-.48-.14-.07-.02-.14-.03-.21-.02-.17.04-.26.33-.23.48.02.11.1.2.18.26.13.1.31.17.48.19.17.02.33.07.48.17.18.13.32.28.56.29.24,0,.43-.14.43-.39,0-.09-.02-.18-.04-.26-.01-.05-.02-.1-.03-.13Z"/>
                    <path class="cls-14" d="m32.7,89.39s0-.04,0-.06c.01-.19-.06-.36-.13-.54-.03-.07-.06-.14-.11-.18-.13-.1-.33-.01-.41.13-.04.07-.06.14-.09.21-.06.13-.19.28-.35.29-.21,0-.45-.06-.66-.08-.08,0-.17,0-.25.02-.18.07-.23.37-.17.53.04.1.13.17.23.22.15.07.34.11.5.1.17-.01.34,0,.5.08.27.13.59.32.87.06.07-.07.11-.17.12-.27.02-.18-.04-.35-.05-.52Z"/>
                  </g>
                </g>
                <path class="cls-51" d="m32.61,85.36l-.1-.41c.04.14.07.27.1.41Z"/>
                <path class="cls-60" d="m34.13,81.47c-.05-.24.02-.71-.33-.75-.32-.03-.49.36-.58.45-.13.14-.63-.09-.64-.15-.61-.44-.47,1.39-.28,2.12.11.39.1.8.16,1.2.07.42.18.83.31,1.24.06.35.09.71.1,1.07.02.62,0,1.24.03,1.85,0,.13.01.26.06.39.02.07.06.14.11.2.04.05.11.07.18.08.06,0,.12,0,.18,0,.06-.01.12-.02.17-.06.1-.07.14-.19.17-.31.04-.14.07-.28.1-.42.08-.37.13-.74.16-1.12.03-.37.04-.74.03-1.11,0-.19-.02-.38-.03-.57,0-.1-.01-.19-.02-.29,0-.05,0-.1-.01-.15,0-.02-.02-.13-.01-.14,0,0,0,0,0,0,0-.14,0-.29.03-.43.05-.3.1-.59.15-.89.04-.26.09-.52.1-.78.03-.48-.03-.95-.12-1.42Z"/>
                <path class="cls-40" d="m32.36,81.46c-.06-.03-.35-.18-.35-.25,0-.05-.14-.1-.18-.1-.07,0-.13.04-.19.08-.13.09-.23.24-.29.4-.08.21-.1.45-.12.68-.04.69-.02,1.38.05,2.07.04.35.09.69.15,1.03.03.17.07.34.11.51.04.16.07.21.21.3.29.18.82.16,1.03-.17.23-.36.13-.91.2-1.32.1-.58.49-1.01.67-1.57.13-.41.11-.79.04-1.21-.03-.2-.09-.67-.29-.78-.05-.03-.41-.11-.7.18-.17.17-.15.25-.36.14Z"/>
                <path class="cls-51" d="m34.36,79.85c.01-.1.03-.21.05-.31.09-.49.23-.97.29-1.46.05-.38.08-.86-.22-1.16-.05-.05-.11-.09-.17-.12-.59-.33-1.16.07-1.71.27-.36.13-.71.3-1.04.51-.11.07-.23.12-.31.24-.08.12-.12.25-.13.39,0,.16.02.33.05.49.16.95.23,1.91.12,2.86-.04.3-.05.61-.07.92,0,.12-.08.3-.02.4.06.11.29.2.39.26.3.15.63.24.97.25.52.02,1.05-.14,1.47-.44.18-.13.32-.28.3-.5-.01-.28,0-.57-.01-.85-.01-.58-.03-1.17.04-1.75Z"/>
                <path class="cls-57" d="m32.48,78.1c-.09-.45-.53-.59-.95-.5-.11.07-.21.12-.29.22-.08.12-.12.25-.13.39,0,.16.02.33.05.49.16.95.23,1.91.12,2.86-.04.3-.05.61-.07.92,0,.12-.08.3-.02.4.06.11.29.2.39.26.02.01.04.02.06.03,0-.14.02-.27.04-.41.25-1.61,1.17-3.03.79-4.67Z"/>
                <path class="cls-34" d="m32.31,77.19c.1-.04.21-.09.28-.11.39-.14.78-.38,1.18-.4.19.29.04.63-.25.78-.36.18-.83.16-1.17-.08-.07-.05-.12-.13-.04-.19Z"/>
                <path class="cls-40" d="m31.57,86.16c.03.3.05.6.07.9.02.24.03.47.04.71,0,.18.02.37.02.55.03,1-.07,1.23.4,1.36.11.03.22.04.32.01.31-.08.36-.35.4-.68.02-.19.03-.41.04-.61,0-.16,0-.32.01-.48,0-.22,0-.44,0-.65,0-.29,0-.57,0-.86,0-.37.03-.74.04-1.11,0-.05-.03-.11-.08-.14-.06-.04-1.16.37-1.27.49,0,0-.04.14-.01.51Z"/>
                <path class="cls-30" d="m32.45,76.59c-.02-.15-.13-.11-.08-.25.05-.11.12-.22.22-.29.1-.07.22-.12.34-.11.04,0,.07.03.11.03.12,0,.23-.02.35,0,.11.02.22.02.22.15,0,.17,0,.34.05.51.03.09.07.18.08.27.02.19-.12.36-.29.44-.21.1-.44.09-.66.06-.11-.02-.27-.04-.33-.14-.05-.08-.03-.18-.02-.27.02-.13.03-.26,0-.39Z"/>
                <path class="cls-30" d="m31.96,74.71c-.07.08-.12.18-.14.29-.04.25.06.5,0,.75-.05.24.05.78.52.92.24.07.71-.01.86-.08.2-.1.34-.29.46-.49.99-1.57-1.04-2.21-1.71-1.4Z"/>
              </g>
              <path class="cls-59" d="m34.12,75.41s-.01.09-.02.14c0,.03-.01.07-.03.1,0,.03-.02.06-.03.09-.05.1-.11.2-.18.3-.09.13-.19.27-.33.34-.06.03-.13.05-.2.06-.19.04-.46.05-.6-.1-.06-.07-.09-.17-.1-.26-.01-.09-.01-.17-.04-.26,0-.02-.01-.04-.02-.07-.01-.04-.02-.07-.04-.1-.03-.05-.07-.1-.13-.11-.1-.03-.21.03-.3-.03-.04-.03-.07-.08-.09-.13-.02-.05-.04-.1-.06-.15-.03-.07-.06-.14-.1-.19-.02-.03-.05-.06-.07-.09-.03-.04-.05-.09-.06-.14,0-.23.18-.46.34-.6.09-.08.18-.15.29-.19.09-.04.19-.06.29-.07.3-.04.62-.04.88.11.07.04.14.09.17.16,0,.02.01.03.02.05.02.02.04.03.06.04.07.03.13.08.18.12.24.25.21.67.16,1Z"/>
              <path class="cls-30" d="m32.5,75.42c.19-.02.24.22.11.4-.04.05-.1.1-.15.14-.33.29-.42-.02-.32-.12.25-.23.12-.41.36-.43Z"/>
              <path class="cls-5" d="m32.45,75.78s.23-.15.09-.24c-.04-.02-.09.01-.09.06,0,.02,0,.05,0,.07,0,.01,0,.03-.01.04-.02.03-.08.06-.07.11.01.04.07-.02.09-.03Z"/>
              <path class="cls-5" d="m26.44,80.66c-.05-.05-.04-.17.02-.14-.02-.03-.01-.08.02-.1.04-.03.09,0,.14.02.06.02.13.02.2.02.14,0,.29-.08.27-.1-.04-.05-.1-.08-.16-.07-.04,0-.07.03-.1.03-.03,0-.06,0-.09-.02,0,0-.02,0-.03-.02-.01-.02,0-.04.01-.06.02-.03.05-.04.08-.06.07-.04.16-.07.24-.06.03,0,.05.01.08.02.03,0,.06,0,.09.02.04.01.25.1.33.15.38.11.38.34.21.52-.08.09-.35.18-.5.22,0,0,0,0-.01,0,0,0-.02,0-.03,0,0,0,0,0,0,0h0c-.21.04-.66.11-.69-.08l.03-.02c-.19-.14-.03-.16-.13-.26Z"/>
              <path class="cls-19" d="m27.51,80.57c0,.08,0,.24.08.3.06.05.21.04.29.05.39.05,2.66.12,3.03-.16.19-.15-.06-.65-.41-.81-.38-.17-2.19.16-2.58.25-.09.02-.17.04-.25.09-.08.06-.14.17-.15.29Z"/>
              <path class="cls-19" d="m30.97,78.14c.1-.22.25-.43.49-.46.1-.01.2.02.29.06.24.1.47.25.59.49.02.05.04.09.05.15.03.19-.09.32-.18.46-.11.17-.22.35-.32.53-.2.36-.4.73-.65,1.06-.15.19-.33.39-.58.41-.16.02-.33-.05-.44-.17-.26-.3-.16-.56-.14-.6.6-1.45.9-1.97.88-1.94Z"/>
            </g>
            <g>
              <path class="cls-38" d="m22.67,69.36l2.14,1.23c.27.16.49.53.49.84v.55c.09.32.4,1.44.42,1.54l-.68-.88c-.09-.12-.2-.22-.31-.28l-2.05-1.18c-.27-.16-.49-.53-.49-.84v-.7c0-.31.22-.44.49-.28Z"/>
              <path class="cls-38" d="m36.75,73.01l-2.14-1.23c-.27-.16-.49-.03-.49.28v.55c-.09.22-.4.98-.42,1.06l.68-.09c.09-.01.2.01.31.08l2.05,1.18c.27.16.49.03.49-.28v-.7c0-.31-.22-.69-.49-.84Z"/>
              <path class="cls-38" d="m29.2,70.16l-2.14,1.23c-.27.16-.49.53-.49.84v.55c-.09.32-.4,1.44-.42,1.54l.68-.88c.09-.12.2-.22.31-.28l2.05-1.18c.27-.16.49-.53.49-.84v-.7c0-.31-.22-.44-.49-.28Z"/>
            </g>
          </g>
          <g id="woman-2" data-name="woman">
            <path class="cls-3" d="m58.94,68.26c-1.82,1.05-1.82,2.76,0,3.82,1.82,1.05,4.77,1.05,6.58,0s1.82-2.76,0-3.82c-1.82-1.05-4.77-1.05-6.58,0Z"/>
            <g id="woman-3" data-name="woman">
              <path class="cls-62" d="m61.64,65.42c-.19-.44-.36-1.01-.61-1.72-.07-.19-.1-.4-.11-.6,0-.21.06-.38.16-.57.04-.08.1-.18.2-.19.09-.02.17.03.24.08.41.31.48.73.57,1.23.09.46.08,1.05.11,1.52,0,.09.11.89-.17.76-.14-.06-.3-.26-.4-.5Z"/>
              <path class="cls-62" d="m61.73,64.98c.1-.08.22-.51.28-.41.04.07.52.82.72,1.1-.27.19-.5.4-.72.63-.3-.36-.57-.77-.57-1.02,0-.13.16-.2.29-.3Z"/>
              <g>
                <path class="cls-49" d="m63.2,67.11c.58.17,1.12.42,1.67.66.26.11.44.64.22,1.08-.11.21-.08.15-.58.08-.27-.04-.64-.13-.91-.17-.55-.08-3.05-.34-3.16-1.53-.02-.18.32-.34.47-.45.42-.34,1.77.19,2.3.34Z"/>
                <path class="cls-49" d="m64.87,69.15c-.07.07-.15.13-.23.2-.56.45-1.21.77-1.7,1.32-.09.1-.18.2-.27.31-.11.12-.24.25-.41.23-.09-.01-.17-.07-.23-.13-.09-.1-.15-.23-.16-.36-.02-.17.09-.23.2-.33.28-.27.41-.64.61-.96.19-.32.5-.63.77-.88.16-.15.33-.28.52-.38.32-.16.81-.18,1.07.11.15.16.14.42.04.61-.05.1-.13.19-.22.28Z"/>
                <path class="cls-2" d="m61.58,72.54c.09-.07.17-.17.23-.26.08-.13.15-.26.21-.4.09-.18.19-.35.3-.52,0-.01.25-.32.26-.34l-.49-.52c-.07,0-.14,0-.21.01-.12.03-.23.11-.28.21-.07.12-.07.27-.11.4-.04.17-.14.31-.26.43-.11.12-.2.29-.24.44-.03.1-.03.22.02.31.05.1.15.16.25.21.05.03.11.05.16.06.07.01.1,0,.15-.05Z"/>
                <path class="cls-32" d="m59.15,67.18c.17-.39.45-.76.85-.94l-.13.35c.05-.07.1-.14.15-.21.03-.03.05-.05.07-.07.09-.06.15.01.28.09.16.09.34.14.51.22.53.25.53.37.98.22-.06.44-.22.99-.25,1.08-.14.48-.55.39-.65.64-.23.57-.73,1.52-1,2.07-.1.22-.31.4-.48.56-.2.18-.36.23-.6.17-.19-.05-.45-.33-.38-1.16.02-.28.27-1.24.35-1.77.06-.42.13-.85.29-1.24Z"/>
                <g id="people-2" data-name="people">
                  <g>
                    <path class="cls-25" d="m58.58,60.19c0,.44.36.8.8.8.33,0,.61-.2.73-.48.05-.1.07-.21.07-.33,0-.44-.36-.8-.8-.8-.07,0-.13,0-.19.02-.35.09-.61.4-.61.78Z"/>
                    <g>
                      <path class="cls-5" d="m59.49,62.51c.25-.11.34-.18.6-.23.04,0,.18.04.23.04.32-.07.66-.05.95.08,0,0,0,0,0,0v1.96h-1.87l.08-1.84Z"/>
                      <path class="cls-66" d="m58.58,63.43s0-.08.01-.12c.12-.4.57-.6.9-.8-.02.01.06.25.06.28.03.09.07.17.12.25.22.33.6.43.96.27.46-.2.22-.55.4-.86.03-.06.1-.09.16-.09.12,0,.25.02.31.13.05.08.08.18.11.27.06.14.12.28.19.42.1.19.2.38.28.59.08.2.15.44.14.66,0,.26-.23.86-.24,1.49,0,.43.21.86.14,1.28,0,.04-.01.08-.03.11-.06.18-.18.33-.34.44-.15.11-.32.19-.5.26-.36.14-.72.24-1.1.33-.33.08-.84.12-1.08-.17-.08-.1-.12-.24-.12-.37s.03-.26.06-.39c.09-.36.25-.7.35-1.06.11-.43.14-.51.02-.95-.05-.19-.13-.36-.21-.54-.12-.27-.24-.54-.36-.81-.06-.13-.12-.26-.18-.4-.04-.08-.07-.14-.08-.22Z"/>
                      <path class="cls-62" d="m60.75,65.41c-.34,1.11-.78,1.81-.85,2.98-.29.03-.62,0-.8-.22-.08-.1-.12-.24-.12-.37s.03-.26.06-.39c.09-.36.25-.7.35-1.06.11-.43.14-.51.02-.95-.04-.16-.1-.31-.17-.46.41.34.95.49,1.51.46Z"/>
                      <path class="cls-14" d="m58.59,63.31c.12-.4.57-.6.9-.8-.02.01.06.25.06.28.03.09.07.17.12.25.22.33.6.43.96.27.46-.2.22-.55.4-.86.03-.06.1-.09.16-.09.12,0,.25.02.31.13.05.08.08.18.11.27.06.14.12.28.19.42.1.19.2.38.28.59.08.2.15.44.14.66,0,.26-.23.86-.24,1.49,0,.43.21.86.14,1.28,0,.04-.01.08-.03.11-.06.18-.18.33-.34.44-.15.11-.32.19-.5.26-.36.14-.72.24-1.1.33-.08.02-.18.04-.28.05.07-1.17.52-1.87.85-2.98-.56.02-1.1-.12-1.51-.46-.01-.03-.02-.06-.04-.08-.12-.27-.24-.54-.36-.81-.06-.13-.12-.26-.18-.4-.04-.08-.07-.14-.08-.22,0-.04,0-.08.01-.12Z"/>
                    </g>
                    <g>
                      <path class="cls-5" d="m59.59,62.6c-.02.69,1.18.7,1.16.05-.02-.91-.08-1.01-.47-1.15-.11-.04-.22-.07-.34-.07-.42,0-.26.22-.24.38.05.47-.11.54-.12.79Z"/>
                      <path class="cls-13" d="m59.7,62.12c-.03.21-.11.3-.12.48-.02.64,1.01.7,1.15.18-.4-.08-.77-.32-1.03-.66Z"/>
                      <path class="cls-13" d="m60.28,61.5c-.11-.04-.22-.07-.34-.07-.42,0-.26.22-.24.38.01.13,0,.23,0,.31.26.35.63.58,1.03.66.01-.04.02-.08.02-.13-.02-.91-.08-1.01-.47-1.15Z"/>
                      <path class="cls-30" d="m60.09,62.14s-.07-.06-.1-.09c-.11-.11-.25-.23-.32-.37-.26-.44-.27-1.02.1-1.4.26-.27.67-.38,1.03-.28.1.03.19.07.28.12.08.04.15.08.21.15.04.04.07.09.1.14.03.06.06.12.07.18.07.28-.12.57-.01.85.02.06.06.12.08.18.02.06.03.13,0,.19-.03.05-.07.08-.09.14-.03.08-.04.16-.07.24-.02.09-.05.18-.09.25-.11.19-.26.21-.46.13-.26-.1-.5-.25-.72-.43Z"/>
                      <path class="cls-67" d="m59.22,60.82c.02-.55.18-.64.39-.82.2-.17.47-.25.73-.24.27,0,.53.1.76.24,0,0,.02.01.03.02.12.08.22.16.28.29.03.07.06.14.07.22.02.14-.1.2-.22.24-.16.05-.4-.02-.57-.04-.08,0-.16-.02-.24,0-.08.02-.15.08-.17.15-.02.08.03.16.04.24.04.16-.04.33-.18.42-.08.05-.14.06-.22.02-.08-.03-.15-.09-.24-.04-.08.05-.05.15-.03.22,0,.01.03.12,0,.12-.04,0-.46-.39-.44-1.05Z"/>
                      <path class="cls-25" d="m60.29,60.88c-.02.08.03.16.04.24.04.16-.04.33-.18.42-.08.05-.14.06-.22.02-.08-.03-.15-.09-.24-.04-.08.05-.05.15-.03.22,0,.01.03.12,0,.12-.04,0-.46-.39-.44-1.05.01-.32.07-.49.16-.6,0,0,.25.1.47.26.21.15.44.42.44.42Z"/>
                      <path class="cls-30" d="m59.75,61.32c-.19-.01-.23.22-.11.4.04.05.1.1.15.14.33.29.42-.02.31-.12-.25-.23-.12-.4-.36-.42Z"/>
                      <path class="cls-5" d="m59.86,61.74s-.23-.15-.09-.23c.04-.02.08.01.09.05,0,.02,0,.04,0,.07,0,.01,0,.03.01.04.02.03.08.06.07.11-.01.04-.07-.02-.09-.03Z"/>
                    </g>
                  </g>
                </g>
                <path class="cls-14" d="m62.84,69.07c.08-.14.19-.27.33-.33.15-.07.34-.05.48.06.07.06.12.14.18.2.17.18.37.19.58.24.22.05.46.01.68.12.03.02.06.03.08.06.02.02.03.06.04.09.03.14-.01.29-.06.42-.05.17-.14.37-.31.41-.16.04-.39-.09-.55-.14-.41-.12-.83-.21-1.24-.19-.11,0-.25.01-.33-.09-.17-.21,0-.66.1-.84,0-.01.01-.02.02-.03Z"/>
                <path class="cls-32" d="m59.8,69.99c.74-.08,1.44-.24,2.14-.48.15-.05.3-.1.44-.15.12-.04.27-.12.4-.11.13,0,.23.11.3.22.05.08.1.16.11.26.02.09,0,.18-.03.26-.04.08-.12.12-.2.16-.16.08-.32.11-.48.18-.13.06-.27.13-.4.21-.29.16-.56.36-.87.49-.25.11-.53.19-.8.26-.21.06-.42.09-.63.11-.19.02-.77.03-.95-.06-.07-.03.66-1.32.95-1.35Z"/>
              </g>
              <g class="cls-18">
                <polygon class="cls-12" points="65.28 67.99 65.28 68.27 62.02 70.17 62.03 69.89 65.28 67.99"/>
                <polygon class="cls-45" points="62.03 69.89 62.02 70.17 60.02 69.01 60.02 68.73 62.03 69.89"/>
                <g>
                  <polygon class="cls-12" points="65.25 68.01 62.03 69.89 60.02 68.73 63.25 66.85 65.25 68.01"/>
                  <polygon class="cls-33" points="62.73 67.83 61.86 68.34 61.38 68.06 62.25 67.55 62.73 67.83"/>
                  <polygon class="cls-33" points="60.9 69.04 63.85 67.32 64.9 67.93 61.95 69.65 60.9 69.04"/>
                </g>
              </g>
              <path class="cls-10" d="m58.46,66.19c-.09-.47-.14-1.09-.23-1.85-.02-.21-.02-.42.03-.62.04-.21.14-.37.28-.53.06-.07.14-.15.24-.15.09,0,.16.07.22.13.34.4.45.96.44,1.47-.01.47.04.95.03,1.43,0,.09,0,.19-.02.28-.1.42-.44.62-.69.43-.13-.09-.24-.33-.29-.58Z"/>
              <g>
                <g>
                  <g>
                    <path class="cls-41" d="m62.98,67.31c.03.05.12.19.16.23s.01-.13.07-.13c.09,0,.18.06.25,0,.05-.05.11-.09.15-.15s.07-.13.06-.2c0-.03,0-.05-.02-.08-.01-.02-.02-.03-.04-.04-.08-.07-.16-.14-.23-.21-.02-.02-.03-.03-.05-.04-.03-.01-.06-.02-.09-.02-.11,0-.21.05-.29.13-.04.04-.08.09-.09.14,0,.04.02.09.03.13.03.08.06.16.09.24Z"/>
                    <path class="cls-41" d="m62.88,67.1c0,.11-.01.23-.02.34,0,.04,0,.09,0,.13,0,.03.02.06.03.1.01.03.02.06.03.09.04.09.12.14.2.19.03.02.07.04.1.05.02,0,.05,0,.06-.02,0-.01,0-.02,0-.03,0-.03-.01-.07-.03-.09-.02-.03-.06-.05-.09-.08-.05-.05-.05-.13-.03-.2s.06-.13.09-.19c.03-.06.04-.14.01-.2-.01-.02-.03-.04-.04-.06-.04-.04-.08-.08-.13-.11-.04-.02-.1-.03-.14-.01-.05.02-.05.06-.06.11Z"/>
                  </g>
                  <path class="cls-41" d="m63.41,67.24c-.06-.03-.19.11-.21.15-.03.09.06.01.18.2.03.05.07.11.08.17.01.04.02.1.06.12.03.01.07,0,.09-.03,0,.06.11.01.12-.05.04-.12.13-.01.15-.23.01,0,.02.01.04.02.15-.12-.16-.47-.29-.61-.23-.24-.29.14-.22.27Z"/>
                </g>
                <path class="cls-62" d="m62.01,66.3c.22-.23.46-.44.72-.63.24.33.46.69.58.98.12.26-.39.51-.51.37-.1-.11-.52-.39-.8-.72Z"/>
                <g>
                  <path class="cls-30" d="m61.45,68.3c.06.03.21.14.25.19.04.05-.15,0-.15.07,0,.1.06.21,0,.28-.05.06-.11.11-.18.16-.07.04-.14.07-.22.06-.03,0-.06-.01-.08-.03-.02-.01-.03-.03-.04-.04-.07-.09-.15-.18-.22-.27-.02-.02-.03-.04-.04-.06-.02-.03-.02-.07-.02-.1,0-.12.06-.24.15-.31.04-.04.1-.08.16-.09.05,0,.1.03.15.04.09.03.17.07.26.11Z"/>
                  <path class="cls-30" d="m61.22,68.17c.13,0,.26,0,.38,0,.05,0,.1,0,.15.01.04.01.07.03.11.04.03.01.07.02.1.04.09.05.15.14.2.24.02.04.04.08.05.12,0,.03,0,.06-.03.07-.01,0-.03,0-.04,0-.04,0-.07-.02-.1-.04-.04-.03-.05-.07-.09-.11-.06-.05-.15-.06-.22-.04-.08.02-.14.06-.22.09-.07.03-.16.04-.23,0-.02-.01-.05-.03-.07-.05-.05-.04-.09-.09-.11-.15-.02-.05-.03-.11,0-.16.02-.06.07-.06.13-.06Z"/>
                </g>
                <path class="cls-10" d="m60.82,68.55c-.16.03-.32-.07-.45-.16-.3-.22-1.75-1.43-1.85-1.99-.02-.14.14-.22.26-.33.1-.09.59.02.68.12.14.16,1.21,1.25,1.57,1.79.05.07.1.15.09.24,0,.14-.19.31-.32.34Z"/>
                <path class="cls-30" d="m61.36,68.77c-.03-.07.13-.21.17-.22.1-.03.01.07.21.21.06.04.12.08.18.1.05.01.11.02.13.07.01.04,0,.08-.04.1.07.01,0,.12-.06.14-.14.04-.02.15-.26.15,0,.01.01.03.02.04-.14.16-.51-.19-.66-.35-.26-.27.16-.31.31-.24Z"/>
              </g>
              <g class="cls-18">
                <g>
                  <path class="cls-45" d="m65.74,66.12l.24.14s-.04,0-.06,0l-.24-.14s.05-.02.06,0Z"/>
                  <g class="cls-65">
                    <g class="cls-18">
                      <path class="cls-45" d="m65.91,66.26l-.24-.14s.02,0,.03-.01l.24.14s-.02,0-.03.01h0Z"/>
                      <path class="cls-45" d="m65.94,66.25l-.24-.14s.03,0,.04,0l.24.14s-.02,0-.04,0h0Z"/>
                      <polygon class="cls-45" points="65.97 66.26 65.74 66.12 65.74 66.12 65.98 66.26 65.97 66.26 65.97 66.26"/>
                    </g>
                  </g>
                </g>
                <polygon class="cls-45" points="62.91 68.02 62.67 67.88 65.67 66.13 65.91 66.26 62.91 68.02"/>
                <g>
                  <path class="cls-45" d="m62.82,68.17l-.24-.14c0-.06.04-.13.09-.16l.24.14c-.05.03-.09.1-.09.16Z"/>
                  <g class="cls-44">
                    <g>
                      <path class="cls-45" d="m62.86,68.06l-.24-.14s.03-.03.04-.04l.24.14s-.03.02-.04.04h0Z"/>
                      <path class="cls-45" d="m62.83,68.11l-.24-.14s.02-.03.03-.05l.24.14s-.02.03-.03.05h0Z"/>
                    </g>
                  </g>
                </g>
                <path class="cls-12" d="m65.91,66.26c.05-.03.09,0,.09.05l-.72,1.71-3.18,1.86.71-1.72s.02-.11.1-.15l3-1.75Z"/>
                <polygon class="cls-45" points="62.09 69.89 61.86 69.75 62.59 67.97 62.83 68.11 62.09 69.89"/>
              </g>
            </g>
          </g>
        </g>
      </g>
    </g>
  </g>
</svg>