<?xml version="1.0" encoding="UTF-8"?>
<svg xmlns="http://www.w3.org/2000/svg" xmlns:xlink="http://www.w3.org/1999/xlink" viewBox="0 0 104.28 75.63">
  <defs>
    <style>
      .cls-1 {
        opacity: .8;
      }

      .cls-1, .cls-2, .cls-3 {
        mix-blend-mode: multiply;
      }

      .cls-1, .cls-4, .cls-3 {
        fill: #bcc5df;
      }

      .cls-5 {
        clip-path: url(#clippath-45);
      }

      .cls-6 {
        fill: #b09061;
      }

      .cls-7 {
        fill: #f3a984;
      }

      .cls-8 {
        clip-path: url(#clippath-20);
      }

      .cls-9 {
        fill: #4f5154;
      }

      .cls-10 {
        clip-path: url(#clippath-11);
      }

      .cls-11, .cls-12 {
        fill: #13b7fd;
      }

      .cls-13 {
        clip-path: url(#clippath-16);
      }

      .cls-14 {
        fill: #eff6fe;
      }

      .cls-15 {
        fill: #fff;
      }

      .cls-16 {
        clip-path: url(#clippath-59);
      }

      .cls-17 {
        fill: #1c232a;
      }

      .cls-18 {
        fill: #15d8fc;
      }

      .cls-19 {
        fill: #ee9c76;
      }

      .cls-20 {
        clip-path: url(#clippath-33);
      }

      .cls-21 {
        clip-path: url(#clippath-47);
      }

      .cls-22 {
        fill: #9f2b3b;
      }

      .cls-12, .cls-2, .cls-3 {
        opacity: .5;
      }

      .cls-23 {
        clip-path: url(#clippath-41);
      }

      .cls-24 {
        fill: #e9ecf5;
      }

      .cls-25 {
        clip-path: url(#clippath-32);
      }

      .cls-26 {
        clip-path: url(#clippath-2);
      }

      .cls-27 {
        fill: #ffde23;
      }

      .cls-28 {
        fill: #f75061;
      }

      .cls-29 {
        clip-path: url(#clippath-13);
      }

      .cls-30 {
        isolation: isolate;
      }

      .cls-31 {
        fill: #8763cd;
      }

      .cls-32 {
        fill: #a6afcd;
      }

      .cls-33 {
        fill: #ffbf99;
      }

      .cls-34 {
        clip-path: url(#clippath-37);
      }

      .cls-35 {
        clip-path: url(#clippath-46);
      }

      .cls-36 {
        fill: #372b3d;
      }

      .cls-37 {
        clip-path: url(#clippath-25);
      }

      .cls-38 {
        clip-path: url(#clippath-15);
      }

      .cls-39 {
        clip-path: url(#clippath-6);
      }

      .cls-40 {
        clip-path: url(#clippath-40);
      }

      .cls-41 {
        clip-path: url(#clippath-26);
      }

      .cls-42 {
        fill: #ffb700;
      }

      .cls-43 {
        fill: #47e0ff;
        mix-blend-mode: screen;
        opacity: .3;
      }

      .cls-44 {
        clip-path: url(#clippath-7);
      }

      .cls-45 {
        clip-path: url(#clippath-21);
      }

      .cls-46 {
        fill: #e5354f;
      }

      .cls-47 {
        clip-path: url(#clippath-34);
      }

      .cls-48 {
        clip-path: url(#clippath-57);
      }

      .cls-49 {
        fill: #ecf5fe;
      }

      .cls-50 {
        clip-path: url(#clippath-1);
      }

      .cls-51 {
        clip-path: url(#clippath-4);
      }

      .cls-52 {
        clip-path: url(#clippath-38);
      }

      .cls-53 {
        clip-path: url(#clippath-36);
      }

      .cls-54 {
        clip-path: url(#clippath-27);
      }

      .cls-55 {
        fill: #ffd438;
      }

      .cls-56 {
        fill: #ffbfa2;
      }

      .cls-57 {
        clip-path: url(#clippath-60);
      }

      .cls-58 {
        clip-path: url(#clippath-44);
      }

      .cls-59 {
        clip-path: url(#clippath-12);
      }

      .cls-60 {
        fill: #1499fc;
      }

      .cls-61 {
        fill: #0f1317;
      }

      .cls-62 {
        fill: #cddcfb;
      }

      .cls-63 {
        fill: #828cc0;
      }

      .cls-64 {
        fill: #e2dbd8;
      }

      .cls-65 {
        fill: #15d9fd;
      }

      .cls-66 {
        clip-path: url(#clippath-24);
      }

      .cls-67 {
        fill: #fcd4c2;
      }

      .cls-68 {
        clip-path: url(#clippath-30);
      }

      .cls-69 {
        clip-path: url(#clippath-22);
      }

      .cls-70 {
        fill: #1b2224;
      }

      .cls-71 {
        clip-path: url(#clippath-9);
      }

      .cls-72 {
        fill: #dde3f4;
      }

      .cls-73 {
        clip-path: url(#clippath-52);
      }

      .cls-74 {
        clip-path: url(#clippath);
      }

      .cls-75 {
        fill: #546282;
      }

      .cls-76 {
        clip-path: url(#clippath-50);
      }

      .cls-77 {
        clip-path: url(#clippath-48);
      }

      .cls-78 {
        fill: #f8b495;
      }

      .cls-79 {
        clip-path: url(#clippath-39);
      }

      .cls-80 {
        fill: none;
      }

      .cls-81 {
        clip-path: url(#clippath-19);
      }

      .cls-82 {
        clip-path: url(#clippath-31);
      }

      .cls-83 {
        clip-path: url(#clippath-54);
      }

      .cls-84 {
        clip-path: url(#clippath-3);
      }

      .cls-85 {
        clip-path: url(#clippath-43);
      }

      .cls-86 {
        fill: #ff445f;
      }

      .cls-87 {
        clip-path: url(#clippath-8);
      }

      .cls-88 {
        fill: #1582d6;
      }

      .cls-89 {
        fill: #ffc400;
      }

      .cls-90 {
        fill: #f9435d;
      }

      .cls-91 {
        fill: #6e4cb3;
      }

      .cls-92 {
        clip-path: url(#clippath-55);
      }

      .cls-93 {
        clip-path: url(#clippath-29);
      }

      .cls-94 {
        clip-path: url(#clippath-18);
      }

      .cls-95 {
        clip-path: url(#clippath-14);
      }

      .cls-96 {
        clip-path: url(#clippath-17);
      }

      .cls-97 {
        fill: #c5243c;
      }

      .cls-98 {
        clip-path: url(#clippath-5);
      }

      .cls-99 {
        fill: #5e3e9e;
      }

      .cls-100 {
        clip-path: url(#clippath-58);
      }

      .cls-101 {
        fill: #d12842;
      }

      .cls-102 {
        fill: #d6af75;
      }

      .cls-103 {
        clip-path: url(#clippath-42);
      }

      .cls-104 {
        fill: #3f4961;
      }

      .cls-105 {
        clip-path: url(#clippath-10);
      }

      .cls-106 {
        fill: #d4dbef;
      }

      .cls-107 {
        clip-path: url(#clippath-23);
      }

      .cls-108 {
        clip-path: url(#clippath-56);
      }

      .cls-109 {
        clip-path: url(#clippath-53);
      }

      .cls-110 {
        clip-path: url(#clippath-49);
      }

      .cls-111 {
        fill: #7f89a6;
      }

      .cls-112 {
        clip-path: url(#clippath-51);
      }

      .cls-113 {
        fill: #f2f2f2;
      }

      .cls-114 {
        clip-path: url(#clippath-28);
      }

      .cls-115 {
        fill: #d4e2fc;
      }

      .cls-116 {
        clip-path: url(#clippath-35);
      }
    </style>
    <clipPath id="clippath">
      <path class="cls-15" d="m19.45,65.1l-2.54-1.47c-.39-.23-.63-.7-.63-1.39l2.54,1.47c0,.68.24,1.16.63,1.39Z"/>
    </clipPath>
    <clipPath id="clippath-1">
      <path class="cls-15" d="m38.93.15l2.54,1.47c-.39-.23-.94-.2-1.54.15l-2.54-1.47c.6-.35,1.14-.38,1.54-.15Z"/>
    </clipPath>
    <clipPath id="clippath-2">
      <path class="cls-15" d="m18.69,16.52l-2.54-1.47c0-1.37.96-3.04,2.15-3.73l2.54,1.47c-1.19.69-2.16,2.36-2.15,3.73Z"/>
    </clipPath>
    <clipPath id="clippath-3">
      <path class="cls-72" d="m51.13,23.63l4.27,24.3c.08.47-.14,1-.7,1.47-1.12.95-3.14,1.31-4.52.81-.7-.25-1.1-.67-1.18-1.15l-4.27-24.3c.08.48.48.9,1.18,1.15,1.38.5,3.41.14,4.52-.81.55-.47.78-1,.7-1.47Z"/>
    </clipPath>
    <clipPath id="clippath-4">
      <path class="cls-24" d="m52.07,10.14l1.9,1.11c-1-.58-2.38-.5-3.9.37l-1.9-1.11c1.53-.88,2.91-.95,3.9-.37Z"/>
    </clipPath>
    <clipPath id="clippath-5">
      <path class="cls-24" d="m46.16,24.6l-1.9-1.11c-.98-.57-1.59-1.79-1.59-3.52,0-3.48,2.46-7.71,5.49-9.45l1.9,1.11c-3.03,1.74-5.49,5.97-5.49,9.45,0,1.73.61,2.95,1.59,3.52Z"/>
    </clipPath>
    <clipPath id="clippath-6">
      <path class="cls-11" d="m55.87,10.06l6.28,3.63c-1.25-.73-2.99-.63-4.91.47l-6.28-3.63c1.92-1.1,3.66-1.2,4.91-.47Z"/>
    </clipPath>
    <clipPath id="clippath-7">
      <path class="cls-11" d="m52.33,30.48l-6.28-3.63c-1.24-.72-2-2.26-2-4.43,0-4.38,3.09-9.71,6.91-11.9l6.28,3.63c-3.82,2.19-6.91,7.52-6.91,11.9,0,2.18.76,3.71,2,4.43Z"/>
    </clipPath>
    <clipPath id="clippath-8">
      <path class="cls-24" d="m80.24,17.85l2.39,1.39c-2.09-1.22-4.99-1.04-8.18.8l-2.39-1.39c3.2-1.85,6.09-2.02,8.18-.8Z"/>
    </clipPath>
    <clipPath id="clippath-9">
      <path class="cls-24" d="m66.34,47.28l-2.39-1.39c-2.06-1.2-3.34-3.75-3.35-7.38-.02-7.3,5.11-16.19,11.46-19.86l2.39,1.39c-6.35,3.67-11.49,12.56-11.46,19.86.01,3.63,1.29,6.18,3.36,7.38Z"/>
    </clipPath>
    <clipPath id="clippath-10">
      <path class="cls-80" d="m78,24.38l-1.09.64s.1-.05.15-.08c.51-.21,1.26-.09,2,.34l1.09-.64c-.75-.43-1.49-.55-2-.34-.05.02-.1.05-.15.08Z"/>
    </clipPath>
    <clipPath id="clippath-11">
      <path class="cls-80" d="m81.34,28.12l1.09-.64c-.51-1.37-1.4-2.32-2.28-2.84l-1.09.64c.88.51,1.77,1.46,2.28,2.84Z"/>
    </clipPath>
    <clipPath id="clippath-12">
      <path class="cls-80" d="m84.45,36.56l1.09-.64c2.75-1.6,2.49-4.61,1.18-6.67-.51-.8-1.25-1.54-2-1.97-.67-.39-1.35-.52-1.86-.23l-1.09.64c.51-.3,1.19-.16,1.86.23.75.43,1.49,1.17,2,1.97,1.31,2.06,1.57,5.07-1.18,6.67Z"/>
    </clipPath>
    <clipPath id="clippath-13">
      <path class="cls-80" d="m96.2,49.25l-.71.41s.07-.03.1-.05c.33-.14.81-.06,1.3.22l.71-.41c-.48-.28-.97-.36-1.3-.22-.03.01-.07.03-.1.05Z"/>
    </clipPath>
    <clipPath id="clippath-14">
      <path class="cls-80" d="m98.37,51.67l.71-.41c-.33-.89-.91-1.51-1.48-1.84l-.71.41c.57.33,1.15.95,1.48,1.84Z"/>
    </clipPath>
    <clipPath id="clippath-15">
      <path class="cls-80" d="m100.39,57.15l.71-.41c1.78-1.04,1.61-2.99.76-4.33-.33-.52-.81-1-1.3-1.28-.44-.25-.87-.34-1.21-.15l-.71.41c.33-.19.77-.1,1.21.15.48.28.97.76,1.3,1.28.85,1.33,1.02,3.29-.76,4.33Z"/>
    </clipPath>
    <clipPath id="clippath-16">
      <path class="cls-42" d="m71.92,36.72l.88-.51c.9-.52,2.15-.45,3.53.35l-.88.51c-1.38-.8-2.63-.87-3.53-.35Z"/>
    </clipPath>
    <clipPath id="clippath-17">
      <path class="cls-42" d="m79.82,48.29l-.88.51c.89-.52,1.44-1.62,1.45-3.18,0-3.15-2.2-6.98-4.94-8.56l.88-.51c2.74,1.58,4.95,5.41,4.94,8.56,0,1.56-.56,2.66-1.45,3.18Z"/>
    </clipPath>
    <clipPath id="clippath-18">
      <path class="cls-42" d="m90.33,22.44l.62-.36c.64-.37,1.51-.32,2.49.24l-.62.36c-.97-.56-1.85-.61-2.49-.24Z"/>
    </clipPath>
    <clipPath id="clippath-19">
      <path class="cls-42" d="m95.89,30.59l-.62.36c.63-.36,1.02-1.14,1.02-2.24,0-2.22-1.55-4.92-3.48-6.03l.62-.36c1.93,1.11,3.49,3.81,3.48,6.03,0,1.1-.39,1.88-1.02,2.24Z"/>
    </clipPath>
    <clipPath id="clippath-20">
      <path class="cls-42" d="m87.63,38.53l1.24-.72s.09-.03.15,0l-1.24.72c-.06-.02-.11-.02-.15,0Z"/>
    </clipPath>
    <clipPath id="clippath-21">
      <path class="cls-42" d="m94.85,46.4l-1.24.72c.06-.03.09-.11.08-.23l1.24-.72c.01.12-.02.2-.08.23Z"/>
    </clipPath>
    <clipPath id="clippath-22">
      <path class="cls-42" d="m91.2,38.5l-1.24.72s-.09.03-.15,0l1.24-.72c.06.02.11.02.15,0Z"/>
    </clipPath>
    <clipPath id="clippath-23">
      <path class="cls-42" d="m93.54,44.16l1.24-.72c-.06.04-.09.12-.08.23l-1.24.72c0-.1.02-.19.08-.23Z"/>
    </clipPath>
    <clipPath id="clippath-24">
      <path class="cls-42" d="m92.56,40.64l1.24-.72c.04.11.12.21.2.28l-1.24.72c-.08-.07-.16-.17-.2-.28Z"/>
    </clipPath>
    <clipPath id="clippath-25">
      <path class="cls-42" d="m91.08,37.64l1.24-.72c.06-.03.13-.02.21.02l-1.24.72c-.08-.04-.15-.06-.21-.02Z"/>
    </clipPath>
    <clipPath id="clippath-26">
      <path class="cls-42" d="m91.29,37.66l1.24-.72c.1.06.2.17.26.32l-1.24.72c-.06-.15-.16-.26-.26-.32Z"/>
    </clipPath>
    <clipPath id="clippath-27">
      <path class="cls-42" d="m94.79,42.57l1.24-.72c.23.18.32.55.16.66l-1.24.72c.16-.11.07-.47-.16-.66Z"/>
    </clipPath>
    <clipPath id="clippath-28">
      <path class="cls-42" d="m98.96,41.32l.76-.44s.06-.02.09,0l-.76.44s-.07-.01-.09,0Z"/>
    </clipPath>
    <clipPath id="clippath-29">
      <path class="cls-42" d="m103.41,46.17l-.76.44s.06-.07.05-.14l.76-.44c0,.07-.01.12-.05.14Z"/>
    </clipPath>
    <clipPath id="clippath-30">
      <path class="cls-42" d="m101.16,41.3l-.76.44s-.06.02-.09,0l.76-.44s.07.01.09,0Z"/>
    </clipPath>
    <clipPath id="clippath-31">
      <path class="cls-42" d="m102.6,44.79l.76-.44s-.05.07-.05.14l-.76.44c0-.06.01-.12.05-.14Z"/>
    </clipPath>
    <clipPath id="clippath-32">
      <path class="cls-42" d="m102,42.62l.76-.44c.03.07.07.13.12.17l-.76.44c-.05-.04-.1-.11-.12-.17Z"/>
    </clipPath>
    <clipPath id="clippath-33">
      <path class="cls-42" d="m101.09,40.77l.76-.44s.08-.01.13.01l-.76.44s-.09-.03-.13-.01Z"/>
    </clipPath>
    <clipPath id="clippath-34">
      <path class="cls-42" d="m101.22,40.78l.76-.44c.06.04.12.11.16.2l-.76.44c-.03-.09-.1-.16-.16-.2Z"/>
    </clipPath>
    <clipPath id="clippath-35">
      <path class="cls-42" d="m103.37,43.8l.76-.44c.14.11.19.34.1.4l-.76.44c.1-.06.04-.29-.1-.4Z"/>
    </clipPath>
    <clipPath id="clippath-36">
      <path class="cls-32" d="m82.83,48.58l1.1-.64s.08-.02.14,0l-1.1.64c-.05-.02-.1-.02-.14,0Z"/>
    </clipPath>
    <clipPath id="clippath-37">
      <path class="cls-32" d="m89.26,55.6l-1.1.64c.05-.03.08-.1.07-.21l1.1-.64c0,.1-.02.17-.07.21Z"/>
    </clipPath>
    <clipPath id="clippath-38">
      <path class="cls-4" d="m86.01,48.55l-1.1.64s-.08.02-.14,0l1.1-.64c.05.02.1.02.14,0Z"/>
    </clipPath>
    <clipPath id="clippath-39">
      <path class="cls-32" d="m88.1,53.6l1.1-.64c-.05.03-.08.11-.07.2l-1.1.64c0-.09.02-.17.07-.2Z"/>
    </clipPath>
    <clipPath id="clippath-40">
      <path class="cls-4" d="m87.22,50.46l1.1-.64c.04.1.1.19.18.25l-1.1.64c-.08-.06-.14-.15-.18-.25Z"/>
    </clipPath>
    <clipPath id="clippath-41">
      <path class="cls-4" d="m85.91,47.79l1.1-.64c.05-.03.12-.02.19.02l-1.1.64c-.07-.04-.14-.05-.19-.02Z"/>
    </clipPath>
    <clipPath id="clippath-42">
      <path class="cls-4" d="m86.09,47.8l1.1-.64c.09.05.18.16.23.29l-1.1.64c-.05-.13-.14-.24-.23-.29Z"/>
    </clipPath>
    <clipPath id="clippath-43">
      <path class="cls-4" d="m89.21,52.18l1.1-.64c.2.16.28.49.14.59l-1.1.64c.14-.09.06-.42-.14-.59Z"/>
    </clipPath>
    <clipPath id="clippath-44">
      <path class="cls-32" d="m97.54,31.61l.92-.53s.07-.02.11,0l-.92.53s-.08-.01-.11,0Z"/>
    </clipPath>
    <clipPath id="clippath-45">
      <path class="cls-32" d="m102.89,37.44l-.92.53s.07-.08.06-.17l.92-.53c0,.09-.02.14-.06.17Z"/>
    </clipPath>
    <clipPath id="clippath-46">
      <path class="cls-4" d="m100.19,31.59l-.92.53s-.07.02-.11,0l.92-.53s.08.01.11,0Z"/>
    </clipPath>
    <clipPath id="clippath-47">
      <path class="cls-32" d="m101.92,35.79l.92-.53s-.06.09-.06.17l-.92.53c0-.08.01-.14.06-.17Z"/>
    </clipPath>
    <clipPath id="clippath-48">
      <path class="cls-4" d="m101.19,33.18l.92-.53c.03.08.09.16.15.21l-.92.53c-.06-.05-.12-.13-.15-.21Z"/>
    </clipPath>
    <clipPath id="clippath-49">
      <path class="cls-4" d="m100.1,30.96l.92-.53s.1-.02.16.02l-.92.53c-.06-.03-.11-.04-.16-.02Z"/>
    </clipPath>
    <clipPath id="clippath-50">
      <path class="cls-4" d="m100.25,30.97l.92-.53c.07.04.15.13.19.24l-.92.53c-.04-.11-.12-.2-.19-.24Z"/>
    </clipPath>
    <clipPath id="clippath-51">
      <path class="cls-4" d="m102.84,34.6l.92-.53c.17.14.23.41.12.49l-.92.53c.12-.08.05-.35-.12-.49Z"/>
    </clipPath>
    <clipPath id="clippath-52">
      <path class="cls-4" d="m53.56,56.41v2.28c0-.94-.62-1.87-1.86-2.59-2.46-1.42-6.43-1.42-8.87,0-1.21.7-1.82,1.63-1.82,2.55v-2.28c0-.92.62-1.85,1.83-2.55,2.44-1.42,6.41-1.42,8.87,0,1.24.71,1.85,1.65,1.85,2.59Z"/>
    </clipPath>
    <clipPath id="clippath-53">
      <path class="cls-4" d="m55.83,56.42v2.28c-.01,1.26-.84,2.51-2.49,3.47-3.33,1.93-8.73,1.93-12.08,0-1.68-.97-2.53-2.25-2.52-3.52v-2.28c0,1.27.84,2.55,2.53,3.52,3.35,1.93,8.76,1.93,12.08,0,1.65-.96,2.48-2.22,2.48-3.47Z"/>
    </clipPath>
    <clipPath id="clippath-54">
      <path class="cls-36" d="m34,63.54l6.17-3.59c.15-.09.35-.07.57.06l-6.17,3.59c-.22-.13-.43-.14-.57-.06Z"/>
    </clipPath>
    <clipPath id="clippath-55">
      <path class="cls-36" d="m41.31,61.91l-6.17,3.59c.14-.08.23-.26.23-.52,0-.51-.36-1.13-.8-1.39l6.17-3.59c.44.26.8.88.8,1.39,0,.25-.09.43-.23.52Z"/>
    </clipPath>
    <clipPath id="clippath-56">
      <path class="cls-46" d="m27.99,65.94l8.82-5.13c.27-.16.64-.13,1.05.1l-8.82,5.13c-.41-.24-.78-.26-1.05-.1Z"/>
    </clipPath>
    <clipPath id="clippath-57">
      <path class="cls-46" d="m38.9,64.41l-8.82,5.13c.27-.15.43-.48.43-.95,0-.94-.66-2.08-1.47-2.55l8.82-5.13c.82.47,1.48,1.61,1.47,2.55,0,.47-.17.79-.43.95Z"/>
    </clipPath>
    <clipPath id="clippath-58">
      <path class="cls-14" d="m72.97,61.67l.08-.05s.05-.06.05-.11l-.08.05c0,.06-.02.09-.05.11Z"/>
    </clipPath>
    <clipPath id="clippath-59">
      <path class="cls-14" d="m73.03,59.89l.08-.05c0-.11-.08-.25-.18-.31l-.08.05c.1.06.18.19.18.31Z"/>
    </clipPath>
    <clipPath id="clippath-60">
      <path class="cls-80" d="m33.32,55.99l.51.3s-.09-.02-.14.01l-.51-.3c.05-.03.1-.03.14-.01Z"/>
    </clipPath>
  </defs>
  <g class="cls-30">
    <g id="Layer_2" data-name="Layer 2">
      <g id="Layer_1-2" data-name="Layer 1">
        <g>
          <g>
            <g class="cls-2">
              <polygon class="cls-4" points="8.9 63.34 .07 64.34 .07 65.81 4.42 68.35 11.06 64.53 8.9 63.34"/>
            </g>
            <g>
              <g class="cls-2">
                <polygon class="cls-4" points="3.05 60.65 10.38 64.92 17.13 61.01 13.31 58.49 8.18 57.69 3.05 60.65"/>
              </g>
              <g class="cls-30">
                <polygon class="cls-97" points="5.97 47.3 6.04 60.93 10.76 63.67 10.69 50.04 5.97 47.3"/>
                <polygon class="cls-46" points="10.69 50.04 10.76 63.67 15.5 60.93 15.43 47.3 10.69 50.04"/>
                <polygon class="cls-28" points="5.97 47.3 10.69 50.04 15.43 47.3 10.72 44.56 5.97 47.3"/>
              </g>
            </g>
            <g class="cls-30">
              <polygon class="cls-42" points="0 38.28 .07 64.39 4.79 67.13 4.72 41.02 0 38.28"/>
              <polygon class="cls-89" points="4.72 41.02 4.79 67.13 9.53 64.39 9.46 38.28 4.72 41.02"/>
              <polygon class="cls-27" points="0 38.28 4.72 41.02 9.46 38.28 4.75 35.53 0 38.28"/>
            </g>
          </g>
          <g>
            <g class="cls-30">
              <g class="cls-30">
                <path class="cls-15" d="m19.45,65.1l-2.54-1.47c-.39-.23-.63-.7-.63-1.39l2.54,1.47c0,.68.24,1.16.63,1.39Z"/>
                <g class="cls-74">
                  <g class="cls-30">
                    <path class="cls-106" d="m19.45,65.1l-2.54-1.47c-.39-.23-.63-.7-.63-1.39l2.54,1.47c0,.68.24,1.16.63,1.39h0Z"/>
                  </g>
                </g>
              </g>
              <g class="cls-30">
                <path class="cls-15" d="m38.93.15l2.54,1.47c-.39-.23-.94-.2-1.54.15l-2.54-1.47c.6-.35,1.14-.38,1.54-.15Z"/>
                <g class="cls-50">
                  <g class="cls-30">
                    <path class="cls-15" d="m39.93,1.77l-2.54-1.47c.6-.35,1.14-.38,1.54-.15l2.54,1.47c-.39-.23-.94-.2-1.54.15h0Z"/>
                  </g>
                </g>
              </g>
              <polygon class="cls-106" points="18.82 63.71 16.28 62.24 16.15 15.05 18.69 16.52 18.82 63.71"/>
              <polygon class="cls-15" points="20.84 12.79 18.3 11.32 37.39 .3 39.93 1.77 20.84 12.79"/>
              <g class="cls-30">
                <path class="cls-15" d="m18.69,16.52l-2.54-1.47c0-1.37.96-3.04,2.15-3.73l2.54,1.47c-1.19.69-2.16,2.36-2.15,3.73Z"/>
                <g class="cls-26">
                  <g class="cls-30">
                    <path class="cls-24" d="m18.69,16.52l-2.54-1.47c0-1.37.96-3.04,2.15-3.73l2.54,1.47c-1.19.69-2.16,2.36-2.15,3.73h0Z"/>
                  </g>
                </g>
              </g>
              <g>
                <polygon class="cls-18" points="42.11 6.51 18.7 20.02 18.81 59.38 42.22 45.86 42.11 6.51"/>
                <path class="cls-24" d="m42.1,3.01c0-1.37-.97-1.92-2.17-1.24l-19.09,11.02c-1.19.69-2.16,2.36-2.15,3.73v3.5s23.42-13.52,23.42-13.52v-3.5Z"/>
                <path class="cls-24" d="m18.81,59.38v4.33c.02,1.37.99,1.92,2.18,1.24l19.09-11.02c1.19-.69,2.16-2.36,2.15-3.73v-4.33s-23.42,13.52-23.42,13.52Z"/>
              </g>
            </g>
            <g>
              <path class="cls-36" d="m35.88,7.42c0,.54-.38,1.2-.85,1.47s-.85.05-.85-.49.38-1.2.85-1.47.85-.05.85.49Z"/>
              <path class="cls-36" d="m26.72,12.67c0,.38-.27.85-.6,1.04-.33.19-.6.04-.6-.35s.27-.85.6-1.04c.33-.19.6-.04.6.35Z"/>
              <path class="cls-36" d="m25.17,13.56c0,.38-.27.85-.6,1.04-.33.19-.6.04-.6-.35s.27-.85.6-1.04c.33-.19.6-.04.6.35Z"/>
              <path class="cls-36" d="m33.03,9.75l-5.64,3.27c-.13.08-.24.01-.24-.14v-.81c0-.16.11-.34.24-.42l5.64-3.27c.13-.08.24-.01.24.14v.81c0,.16-.11.34-.24.42Z"/>
            </g>
            <path class="cls-63" d="m29.67,58.56c-.12,0-.24-.03-.34-.09-.24-.14-.38-.42-.38-.79v-1.09c0-.7.48-1.53,1.09-1.88l3.47-2c.32-.19.63-.21.87-.07.24.14.38.42.38.79v1.09c0,.7-.48,1.53-1.09,1.88l-.08-.14.08.14-3.47,2c-.18.11-.36.16-.53.16Zm4.36-5.69c-.11,0-.23.04-.37.12l-3.47,2c-.5.29-.92,1.02-.92,1.6v1.09c0,.25.08.43.21.51.14.08.33.05.55-.07l3.47-2c.5-.29.92-1.02.92-1.6v-1.09c0-.25-.08-.43-.21-.51-.05-.03-.11-.05-.18-.05Z"/>
          </g>
          <g>
            <g>
              <g>
                <path class="cls-9" d="m37.17,40.01c-1.01.58-1.95.78-2.74.63-.24-.09-.49-.18-.76-.28-.9-.52-1.45-1.63-1.45-3.21,0-3.16,2.22-7,4.95-8.57,1.23-.71,2.35-.84,3.22-.49.1.05.19.1.29.14.89.52,1.44,1.63,1.44,3.2,0,1.26-.35,2.63-.95,3.92-.24.46-.48.91-.74,1.36-.87,1.38-2.01,2.58-3.26,3.3Z"/>
                <path class="cls-9" d="m34.96,41.05c-.2,0-.4-.02-.59-.05-.2-.04-.33-.23-.29-.43.04-.2.23-.33.43-.29.72.14,1.58-.06,2.48-.58,1.15-.66,2.26-1.79,3.13-3.17.25-.44.49-.89.72-1.33.6-1.29.91-2.59.91-3.76,0-1.39-.45-2.41-1.26-2.88-.18-.1-.24-.33-.13-.5.1-.18.33-.24.5-.13,1.05.61,1.63,1.86,1.63,3.52,0,1.27-.34,2.68-.99,4.08,0,0,0,0,0,.01-.24.46-.49.92-.75,1.37,0,0,0,0,0,.01-.93,1.48-2.14,2.7-3.39,3.42-.83.48-1.65.73-2.4.73Zm6.21-5.7h0,0Z"/>
                <path class="cls-64" d="m39.34,40.44c-.94.54-1.81.72-2.53.58-.22-.08-.46-.17-.7-.26-.83-.48-1.35-1.51-1.35-2.97,0-2.92,2.05-6.48,4.58-7.94,1.14-.66,2.18-.78,2.98-.45.09.04.18.09.27.13.83.48,1.34,1.51,1.34,2.96,0,1.17-.33,2.43-.88,3.63-.22.42-.45.84-.68,1.26-.81,1.28-1.86,2.39-3.02,3.05Z"/>
                <path class="cls-113" d="m37.29,41.32c-.18,0-.36-.02-.54-.05-.14-.03-.23-.16-.21-.3.03-.14.16-.23.3-.21.69.13,1.51-.06,2.36-.55,1.07-.62,2.11-1.67,2.93-2.96.23-.41.46-.82.67-1.24.56-1.21.86-2.42.86-3.52,0-1.31-.43-2.29-1.21-2.74-.12-.07-.17-.23-.09-.35.07-.12.23-.17.35-.09.94.55,1.46,1.68,1.46,3.19,0,1.17-.31,2.46-.91,3.74,0,0,0,0,0,0-.22.42-.45.85-.69,1.27,0,0,0,0,0,0-.86,1.36-1.96,2.48-3.11,3.14-.76.44-1.5.66-2.18.66Zm5.75-5.19h0,0Z"/>
                <path class="cls-78" d="m33.35,25.7c1.79.91,5.71,2.74,7.24,3.75.2.13.42.28.51.51.07.17.06.37.05.55-.14,1.89-.39,3.77-.77,5.63-.19.94,0,5.51-1.03,5.66-.57.09-2.43-1.45-3.01-1.62-.96-.28-1.93-.56-2.88-.85-.95-.29-.77-.1-1.71-.41l1.6-13.22Z"/>
                <path class="cls-15" d="m39.34,29.85c-2.53,1.46-4.58,5.02-4.58,7.94,0,1.46.51,2.49,1.35,2.97-3.31-1.21-7.71-2.73-8.61-3.13l6.47-12.31c1.9.89,4.95,2.41,8.35,4.08-.8-.33-1.84-.21-2.98.45Z"/>
                <path class="cls-56" d="m37.95,34.04c.41-1.17,1-2.29,1.76-3.27.76-.99,1.43-1.15,2.57-1.55,1.61-.57,3.3-.82,5-.86,2.17-.06,4.33.21,6.49.47,1.01.12,2.02.25,2.99.57.84.28,1.63.7,2.41,1.13.33.18.67.37.93.64.05.05.09.1.13.16h-2.95v12.35h.84c-.28.38-.55.86-.8,1.51-.31.83-.69,1.66-1.33,2.27-1.06,1-2.64,1.22-4.09,1.17-1.08-.03-1.8-.07-2.8-.51-1.01-.44-2-.91-2.99-1.39-1.98-.97-3.92-2.01-5.81-3.13-.78-.46-1.56-.94-2.14-1.63-.77-.91-.71-1.81-.82-2.92-.16-1.69.07-3.41.62-5.01Z"/>
                <path class="cls-78" d="m42.43,33.5c-.47,2.84-1.63,5.92-4.28,7.4-.21.12-.01.45.19.32,2.63-1.74,3.77-4.69,4.11-7.71,0-.01-.02-.02-.02,0Z"/>
                <path class="cls-78" d="m43.69,44.84c-.11-.4-.33-.76-.45-1.16-.12-.38-.21-.76-.29-1.15-.16-.85-.21-1.73-.19-2.6.05-1.82.42-3.6.81-5.37.02-.11-.14-.15-.17-.05-.41,1.8-.8,3.63-.85,5.48-.02.82.02,1.65.16,2.46.07.43.17.86.3,1.28.12.39.24.85.47,1.18.07.1.24.04.21-.09Z"/>
                <path class="cls-78" d="m40.6,35.62s0,0,0,0c-.19.13-.27.38-.37.58-.14.26-.3.51-.49.74-.17.21-.36.4-.55.59-.2.18-.47.32-.61.55-.04.06.02.12.08.11.25-.04.48-.27.67-.43.22-.2.42-.43.6-.66.26-.34.79-1.01.67-1.47Z"/>
                <path class="cls-78" d="m57.27,31.32h2.95c-.04-.05-.08-.11-.13-.16-.26-.28-.6-.46-.93-.64-.78-.42-1.57-.85-2.41-1.13-.96-.32-1.98-.44-2.99-.57-2.15-.26-4.32-.53-6.49-.47-1.7.04-3.39.3-5,.86-.5.18-.91.31-1.28.48-1.04,1.58-1.32,3.65-.2,5.39.74,1.11,1.99,1.18,3.25,1.55.15,0,.22.37.22.52.05,3.4.44,7.11,2.4,9.84.8.38,1.61.76,2.42,1.11.99.44,1.72.48,2.8.51,1.46.05,3.03-.17,4.09-1.17.64-.61,1.02-1.44,1.33-2.27.24-.65.51-1.13.8-1.51h-.84v-12.35Z"/>
                <path class="cls-19" d="m55.74,33.71c.6-.33,1.19-.64,1.89-.68,1.01-.06,2.04.32,2.82.95.46.37.88.87.91,1.46.02.42-.15.8-.42,1.12-.63-.37-1.26-.77-1.95-1.1-1.11-.56-2.15-1.17-3.25-1.76Z"/>
                <g>
                  <g class="cls-30">
                    <g class="cls-30">
                      <path class="cls-72" d="m51.13,23.63l4.27,24.3c.08.47-.14,1-.7,1.47-1.12.95-3.14,1.31-4.52.81-.7-.25-1.1-.67-1.18-1.15l-4.27-24.3c.08.48.48.9,1.18,1.15,1.38.5,3.41.14,4.52-.81.55-.47.78-1,.7-1.47Z"/>
                      <g class="cls-84">
                        <g class="cls-30">
                          <path class="cls-72" d="m51.13,23.63l4.27,24.3c.02.13.02.27,0,.41l-4.27-24.3c.03-.14.03-.28,0-.41h0Z"/>
                          <path class="cls-72" d="m51.12,24.04l4.27,24.3c-.03.16-.1.33-.2.5l-4.27-24.3c.1-.17.17-.33.2-.5h0Z"/>
                          <path class="cls-24" d="m50.93,24.54l4.27,24.3c-.12.19-.28.38-.49.56-.31.27-.7.48-1.12.65l-4.27-24.3c.42-.17.81-.39,1.12-.65.21-.18.38-.37.49-.56h0Z"/>
                          <path class="cls-24" d="m49.31,25.75l4.27,24.3c-.25.1-.52.18-.79.24l-4.27-24.3c.27-.06.54-.14.79-.24h0Z"/>
                          <path class="cls-24" d="m48.52,25.99l4.27,24.3c-.23.05-.47.09-.7.11l-4.27-24.3c.24-.02.47-.06.7-.11h0Z"/>
                          <path class="cls-24" d="m47.82,26.1l4.27,24.3c-.25.02-.5.03-.74.02l-4.27-24.3c.24.01.49,0,.74-.02h0Z"/>
                          <path class="cls-72" d="m47.08,26.12l4.27,24.3c-.41-.02-.81-.09-1.17-.22-.7-.25-1.1-.67-1.18-1.15l-4.27-24.3c.08.48.48.9,1.18,1.15.36.13.75.2,1.17.22h0Z"/>
                        </g>
                      </g>
                    </g>
                    <path class="cls-24" d="m49.95,22.48c1.38.5,1.6,1.67.48,2.62s-3.14,1.31-4.52.81c-1.38-.5-1.6-1.67-.48-2.62,1.12-.95,3.14-1.31,4.52-.8Z"/>
                  </g>
                  <path class="cls-78" d="m56.3,40.11s-.1,0-.08.04c.28.55.39,1.16.33,1.77-.02.17.26.18.27,0,.03-.66-.15-1.27-.53-1.81Z"/>
                  <path class="cls-78" d="m56.86,40.31c-.05-.07-.14.02-.11.09.11.24.14.5.17.76.02.16.25.17.26,0,.01-.32-.12-.6-.32-.85Z"/>
                  <path class="cls-78" d="m55.61,44.68c-.02-.17-.07-.33-.13-.49-.03-.07-.13-.04-.11.03.04.16.06.32.06.49,0,.12-.05.26.02.36.03.03.07.04.1.01.11-.09.07-.27.06-.41Z"/>
                </g>
                <path class="cls-56" d="m57.43,48.57c-1.72,1.13-3.95,1.25-5.95.77-.69-.16-1.4-.42-1.85-.96-.45-.54-.54-1.45,0-1.92.48-.43,1.2-.34,1.84-.34,1.75,0,3.41-.79,5.14-1.03.84-.12,2.28-.25,2.38.9.09,1.05-.74,2.04-1.56,2.58Z"/>
                <path class="cls-78" d="m59,46.14c0-.05,0-.1,0-.15-.1-1.15-1.53-1.02-2.38-.9-1.74.24-3.39,1.04-5.14,1.03-.64,0-1.36-.09-1.84.34-.16.15-.27.33-.32.54,1.03.5,2.17.65,3.33.55.3-.03.6-.06.9-.09,0,.23,0,.46-.02.69-.01.28-.1.54-.11.82,0,.08.1.09.14.04.3-.42.19-1.06.1-1.56,1.83-.22,3.64-.6,5.35-1.3Z"/>
                <path class="cls-67" d="m51.27,47.92c-.12.8-1.5.56-1.69,0-.18-.55.1-1.65,1.16-1.38.42.11.52.37.54.76.01.21.02.42-.01.62Z"/>
                <path class="cls-56" d="m60.51,43.84c-.02.16-.05.32-.12.47-.08.16-.19.31-.32.44-.93.97-2.66,1.43-3.94,1.68-1.35.26-2.91.5-4.26.32-1-.14-2.03-.31-2.91-.82-1.04-.61-2.44-2.66-.79-3.44.94-.45,2.31,0,3.29.03,1.2.03,2.4-.06,3.59-.22.99-.13,1.97-.31,2.95-.49.45-.08.83-.15,1.23-.32.28-.12.66-.43.98-.23.44.29.29,1.67.3,2.12,0,.15,0,.3,0,.45Z"/>
                <path class="cls-56" d="m60.22,41.27c-.32-.21-.7.1-.98.23-.4.18-.78.24-1.23.32-.98.18-1.96.36-2.95.49-1.19.16-2.39.25-3.59.22-.86-.02-2.01-.37-2.92-.16.47.24.98.47,1.17.91.3.74-.22,1.77-.96,1.99-.16.05-.34.08-.52.06.23.25.48.46.72.6.87.51,1.9.68,2.91.82,1.36.18,2.92-.06,4.26-.32,1.28-.25,3.01-.72,3.94-1.68.12-.13.24-.27.32-.44.07-.15.1-.31.12-.47.01-.15.01-.3,0-.45-.01-.45.14-1.83-.3-2.12Z"/>
                <path class="cls-78" d="m59.55,42.75c.35-.1.64-.31.98-.45-.02-.45-.09-.88-.31-1.03-.32-.21-.7.1-.98.23-.4.18-.78.24-1.23.32-.98.18-1.96.36-2.95.49-1.19.16-2.39.25-3.59.22-.99-.03-2.35-.47-3.29-.03-.06.03-.11.06-.16.09.24.29.5.55.85.69,2.58,1.03,5.36.53,8.01.4.55-.03,1.05-.3,1.56-.51,0,0,0,.01.02.02.19.17.24.73.26.97.03.31-.02.61-.09.91-.03.12.14.2.21.09.19-.34.22-.72.16-1.1-.04-.26-.12-.77-.36-.96.1-.04.2-.07.29-.1.23-.07.4-.17.63-.23Z"/>
                <path class="cls-67" d="m50.3,43.51c.55.91-.49,2-1.35,1.67-2.28-.88-.81-2.84.42-2.31.32.14.72.32.93.63Z"/>
                <path class="cls-56" d="m49.6,38.99c.68-.29,1.46-.3,2.19-.29,2.65.03,5.79.34,7.92-1.56.27-.24.61-.63.93-.72.2.13.39.27.59.38,0,.02.02.04.03.07.32.85.5,1.75.51,2.65,0,.33-.02.67-.15.97-.13.3-.35.54-.59.77-.44.43-1,1-1.58,1.19-2.76.9-5.96,1.32-8.77.44-.36-.11-.71-.24-1.05-.39-.58-.25-1.16-.55-1.29-1.21-.19-.94.28-1.89,1.26-2.31Z"/>
                <path class="cls-67" d="m51.34,41.53c-.14.26-.4.43-.64.59-.28.19-.66.08-.96-.01-.52-.16-1.4-.39-1.11-1.43.12-.43.23-1.19,1.31-1.08.67.07,1.93.94,1.4,1.93Z"/>
                <path class="cls-78" d="m51.79,38.7c2.65.03,5.79.34,7.92-1.56.27-.24.6-.64.92-.73.2.13.39.24.59.35,0,.02.03.09.04.11.05.13.1.27.14.4,0,0-.02.01-.03.02-1.13.56-2.12,1.39-3.38,1.79-.03,0-.17.07-.2.07-1.99.33-3.87.96-5.89.56-.67-.15-1.25-.47-1.79-.88.54-.13,1.13-.13,1.68-.13Z"/>
                <path class="cls-56" d="m52.06,35.29c.76-.5,1.67-.69,2.52-1.01.4-.15.78-.37,1.16-.58,1.1.59,2.13,1.2,3.25,1.76.69.33,1.31.75,1.95,1.12-.3.36-.72.63-1.14.86-1.89,1.02-4.05,1.53-6.2,1.44-.5-.02-1.02-.07-1.48-.27-.47-.19-.88-.55-1.06-1.02-.31-.85.25-1.81,1.01-2.31Z"/>
                <path class="cls-78" d="m52.06,35.29c.76-.5,1.67-.69,2.52-1.01.4-.15.78-.37,1.16-.58,1.51.6,2.23,1.22,3.25,1.76.68.36,1.31.72,1.95,1.12-.09.11-.18.18-.29.28-.64-.28-1.3-.48-1.99-.57-1.32-.17-2.35.66-3.54,1.03-1.39.42-2.88.17-4.11-.54.12-.59.55-1.14,1.06-1.49Z"/>
                <path class="cls-67" d="m53.11,36.15c.17.05.34.13.46.24.21.19.47.54.43.84-.1.79-.54,1.12-1.24,1.1-.56-.02-1.15-.23-1.37-.79-.16-.4-.11-1.05.26-1.32.22-.17.53-.17.81-.17.2,0,.43.03.65.09Z"/>
                <path class="cls-70" d="m25.53,34.6c0-3.39,2.38-7.52,5.32-9.22,1.28-.74,2.45-.89,3.36-.56h0c.14.05.27.11.4.19,2.12.98,2.73,1.31,6.18,3-.87-.35-2.39-.15-3.62.56-2.73,1.58-4.95,5.42-4.95,8.57,0,1.58.94,3.09,1.84,3.61-3.33-1.22-5.14-1.92-6.57-2.52-.09-.03-.18-.07-.27-.11h0c-1.04-.52-1.7-1.74-1.7-3.52Z"/>
              </g>
              <path class="cls-113" d="m36.8,41.28s-.06,0-.09-.02c-.22-.08-.46-.17-.7-.26-.01,0-.03-.01-.04-.02-.95-.55-1.48-1.68-1.48-3.19,0-3,2.11-6.66,4.71-8.16,1.16-.67,2.3-.84,3.2-.47,0,0,.01,0,.02,0l.27.13c.13.06.18.22.12.35-.06.13-.22.18-.35.12l-.26-.13c-.75-.3-1.73-.15-2.74.44-2.46,1.42-4.45,4.88-4.45,7.72,0,1.31.43,2.28,1.2,2.73.24.09.47.17.68.25.13.05.2.2.15.33-.04.1-.14.17-.24.17Z"/>
              <path class="cls-9" d="m34.43,41.01s-.08,0-.13-.02c-.48-.14-2.46-.55-2.46-3.83,0-3.27,2.3-7.26,5.14-8.89,1.28-.74,2.54-.92,3.54-.51,0,0,.02,0,.02.01l.29.14c.18.09.26.31.17.49-.09.18-.16.16-.34.07h-.25c-.79-.44-1.98-.19-3.06.43-2.63,1.52-4.77,5.22-4.77,8.26,0,1.38.17,2.39,1.58,2.91.26.09.16.14.39.23.19.07.29.28.22.47-.05.15-.2.24-.35.24Z"/>
              <path class="cls-56" d="m56.41,36.15c-.81,1.12-2.24,1.36-3.34.74-1.59-.88-2.64-3.22-4.37-3.37-1-.09-1.89.25-2.73.78-.48.3-.93.65-1.46.85-.71.28-1.96.35-2.58-.21-.57-.51-.97-1.44-1.14-2.17-.23-1-.09-2.14.42-2.96.45-.72,1.13-1.15,1.81-1.47,1.65-.79,3.52-1.16,5.28-1.01.02,0,.03,0,.05,0,.05,0,.1,0,.15.02.1.01.19.03.29.05.02,0,.05.01.07.02.02,0,.04.01.06.02.19.06.37.14.55.23.06.03.13.06.19.1.35.19.7.42,1.03.67.49.37.96.79,1.39,1.19,1,.94,1.91,2,2.8,3.07.64.77,1.56,1.77,1.73,2.84.03.22-.08.43-.2.59Z"/>
              <path class="cls-78" d="m53.64,36.64c-2.07-1.03-3.32-2.88-5.09-4.28-.15-.07-.07-.52.07-.74-.52.37-.74,1.11-1.25,1.4-1.11.66-2.36.74-3.47,1.25-.93.41-2.04.13-2.79-.58.21.48.49.95.84,1.26.62.56,1.87.48,2.58.21.53-.2.98-.55,1.46-.85.83-.53,1.73-.87,2.73-.78,1.73.15,2.78,2.5,4.37,3.37,1.04.57,2.35.4,3.18-.54-.82.53-1.8.73-2.61.29Z"/>
              <path class="cls-67" d="m56.41,36.15c.12-.16.23-.37.2-.59-.13-.84-.73-1.63-1.29-2.31-1.03.15-2.2.96-1.98,2.06.18.81.83,1.57,1.62,1.83.55-.14,1.07-.47,1.45-1Z"/>
              <path class="cls-78" d="m54.38,41.34c0-.36-.01-.79-.23-1.1-.04-.05-.1-.02-.1.04.11.81.09,1.59,0,2.4-.01.12.18.14.21.03.1-.45.12-.92.11-1.38Z"/>
              <path class="cls-78" d="m54.77,40.91s-.06-.02-.06,0c0,.46-.02.96.04,1.42,0,.02.04.03.04,0,.08-.46.04-.97-.03-1.43Z"/>
              <path class="cls-78" d="m55.43,41.46c0-.44-.1-.87-.27-1.28-.03-.08-.16-.05-.14.04.11.43.13.87.12,1.31,0,.4-.1.82-.07,1.22.01.14.21.18.25.03.12-.41.11-.9.1-1.32Z"/>
              <path class="cls-78" d="m60.21,38.63c-.04-.06-.12,0-.09.05.34.65.47,1.38.4,2.11-.02.2.31.21.32,0,.03-.79-.18-1.51-.63-2.16Z"/>
              <path class="cls-78" d="m60.88,38.87c-.07-.08-.17.02-.14.1.13.29.17.59.2.9.02.19.3.2.31,0,.02-.38-.15-.72-.38-1.01Z"/>
              <path class="cls-78" d="m53.75,43.99s-.07-.03-.07.01c-.03.73-.01,1.44-.2,2.15-.03.12.15.17.19.05.26-.72.21-1.48.09-2.22Z"/>
              <path class="cls-78" d="m54.07,47.43s-.04-.03-.04,0c-.08.39-.14.83-.08,1.22.01.07.12.07.14,0,.08-.38.04-.83,0-1.22Z"/>
              <path class="cls-78" d="m59.39,44.07c-.03-.2-.08-.39-.15-.58-.03-.08-.15-.05-.13.04.05.19.07.38.07.58,0,.15-.07.31.03.43.03.04.08.05.12.02.14-.11.09-.33.07-.48Z"/>
              <path class="cls-78" d="m54.24,44.34s-.03-.02-.04,0c-.06.32-.11.64-.15.97-.03.28-.12.59-.01.85.01.03.07.04.09.01.17-.22.15-.52.17-.8.02-.35,0-.69-.06-1.04Z"/>
              <path class="cls-78" d="m48.36,29.6c-.06.13-.25.02-.19-.11.19-.39.14-.86.14-1.29,0-.29,0-.57,0-.86.02,0,.03,0,.05,0,.05,0,.1,0,.15.02,0,.38,0,.75.01,1.13,0,.39.01.75-.16,1.11Z"/>
              <path class="cls-78" d="m48.88,28.43c-.01.08-.15.06-.15-.02.02-.22.04-.43.06-.65,0-.11,0-.23,0-.34.02,0,.05.01.07.02.02,0,.04.01.06.02.04.32,0,.69-.05.97Z"/>
              <path class="cls-78" d="m49.67,27.79c-.02.29-.06.57-.13.87-.11.48-.23,1.09-.51,1.5-.08.11-.31.09-.29-.08.05-.46.31-.93.46-1.38.11-.33.21-.67.28-1.01.06.03.13.06.19.1Z"/>
            </g>
            <g class="cls-30">
              <g class="cls-30">
                <path class="cls-24" d="m52.07,10.14l1.9,1.11c-1-.58-2.38-.5-3.9.37l-1.9-1.11c1.53-.88,2.91-.95,3.9-.37Z"/>
                <g class="cls-51">
                  <g class="cls-30">
                    <path class="cls-24" d="m50.06,11.63l-1.9-1.11c1.53-.88,2.91-.95,3.9-.37l1.9,1.11c-1-.58-2.38-.5-3.9.37h0Z"/>
                  </g>
                </g>
              </g>
              <g class="cls-30">
                <path class="cls-24" d="m46.16,24.6l-1.9-1.11c-.98-.57-1.59-1.79-1.59-3.52,0-3.48,2.46-7.71,5.49-9.45l1.9,1.11c-3.03,1.74-5.49,5.97-5.49,9.45,0,1.73.61,2.95,1.59,3.52Z"/>
                <g class="cls-98">
                  <g class="cls-30">
                    <path class="cls-24" d="m46.16,24.6l-1.9-1.11c-.98-.57-1.59-1.79-1.59-3.52,0-3.48,2.46-7.71,5.49-9.45l1.9,1.11c-3.03,1.74-5.49,5.97-5.49,9.45,0,1.73.61,2.95,1.59,3.52h0Z"/>
                  </g>
                </g>
              </g>
              <path class="cls-32" d="m50.06,11.63c3.03-1.74,5.49-.33,5.49,3.15s-2.46,7.71-5.49,9.45c-3.03,1.74-5.49.33-5.49-3.15s2.46-7.71,5.49-9.45Z"/>
            </g>
            <g class="cls-30">
              <g class="cls-30">
                <path class="cls-11" d="m55.87,10.06l6.28,3.63c-1.25-.73-2.99-.63-4.91.47l-6.28-3.63c1.92-1.1,3.66-1.2,4.91-.47Z"/>
                <g class="cls-39">
                  <g class="cls-30">
                    <path class="cls-11" d="m57.24,14.15l-6.28-3.63c1.92-1.1,3.66-1.2,4.91-.47l6.28,3.63c-1.25-.73-2.99-.63-4.91.47h0Z"/>
                  </g>
                </g>
              </g>
              <g class="cls-30">
                <path class="cls-11" d="m52.33,30.48l-6.28-3.63c-1.24-.72-2-2.26-2-4.43,0-4.38,3.09-9.71,6.91-11.9l6.28,3.63c-3.82,2.19-6.91,7.52-6.91,11.9,0,2.18.76,3.71,2,4.43Z"/>
                <g class="cls-44">
                  <g class="cls-30">
                    <path class="cls-11" d="m52.33,30.48l-6.28-3.63c-1.24-.72-2-2.26-2-4.43,0-4.38,3.09-9.71,6.91-11.9l6.28,3.63c-3.82,2.19-6.91,7.52-6.91,11.9,0,2.18.76,3.71,2,4.43h0Z"/>
                  </g>
                </g>
              </g>
              <path class="cls-60" d="m57.24,14.15c3.82-2.19,6.91-.42,6.91,3.96,0,4.38-3.09,9.71-6.91,11.9s-6.91.42-6.91-3.96c0-4.38,3.09-9.71,6.91-11.9Z"/>
            </g>
            <g>
              <path class="cls-24" d="m62.51,13.92c-1.35-.53-2.99-.63-4.91.48-3.81,2.2-6.89,7.53-6.88,11.91,0,2.18.95,3.47,2.01,4.43,2.02,1.81,7.73,11.92,9.72,14.01-.18-.81-2.09-5.41-2.1-6.37-.02-7.3,5.11-16.19,11.46-19.86,1.46-.84,4.81-1.34,6.09-1.51-4.28-.78-12.72-2.04-15.41-3.09Z"/>
              <g class="cls-30">
                <path class="cls-4" d="m71.82,18.52c6.35-3.67,11.52-.72,11.54,6.58.02,7.3-5.11,16.19-11.46,19.86-6.35,3.67-11.52.72-11.54-6.58-.02-7.3,5.11-16.19,11.46-19.86Z"/>
              </g>
            </g>
            <g class="cls-30">
              <g class="cls-30">
                <path class="cls-24" d="m80.24,17.85l2.39,1.39c-2.09-1.22-4.99-1.04-8.18.8l-2.39-1.39c3.2-1.85,6.09-2.02,8.18-.8Z"/>
                <g class="cls-87">
                  <g class="cls-30">
                    <path class="cls-24" d="m74.45,20.05l-2.39-1.39c3.2-1.85,6.09-2.02,8.18-.8l2.39,1.39c-2.09-1.22-4.99-1.04-8.18.8h0Z"/>
                  </g>
                </g>
              </g>
              <g class="cls-30">
                <path class="cls-24" d="m66.34,47.28l-2.39-1.39c-2.06-1.2-3.34-3.75-3.35-7.38-.02-7.3,5.11-16.19,11.46-19.86l2.39,1.39c-6.35,3.67-11.49,12.56-11.46,19.86.01,3.63,1.29,6.18,3.36,7.38Z"/>
                <g class="cls-71">
                  <g class="cls-30">
                    <path class="cls-24" d="m66.34,47.28l-2.39-1.39c-2.06-1.2-3.34-3.75-3.35-7.38-.02-7.3,5.11-16.19,11.46-19.86l2.39,1.39c-6.35,3.67-11.49,12.56-11.46,19.86.01,3.63,1.29,6.18,3.36,7.38h0Z"/>
                  </g>
                </g>
              </g>
              <g>
                <path class="cls-15" d="m74.45,20.05c6.35-3.67,11.52-.72,11.54,6.58.02,7.3-5.11,16.19-11.46,19.86-6.35,3.67-11.52.72-11.54-6.58-.02-7.3,5.11-16.19,11.46-19.86Z"/>
                <path class="cls-32" d="m69.37,46.18c-1.31,0-2.37-.48-3.14-1.44-.89-1.1-1.36-2.78-1.37-4.84,0-1.6.27-3.32.81-5.12.53-1.77,1.3-3.53,2.28-5.23.98-1.7,2.12-3.25,3.39-4.6,1.29-1.37,2.65-2.48,4.04-3.28,1.5-.87,2.96-1.33,4.22-1.33s2.37.48,3.14,1.44c.89,1.1,1.36,2.78,1.37,4.84,0,1.6-.27,3.32-.81,5.12-.53,1.77-1.3,3.53-2.28,5.23-.98,1.7-2.12,3.25-3.39,4.6-1.29,1.37-2.65,2.48-4.04,3.28-1.5.87-2.96,1.33-4.22,1.33Z"/>
              </g>
            </g>
            <path class="cls-60" d="m71.87,36.42c0-2.74,1.92-6.07,4.3-7.44,1.2-.69,2.28-.76,3.07-.3l-7.36-4.27c-.18.18-.35.36-.53.54-1.27,1.35-2.41,2.9-3.39,4.6-.98,1.7-1.75,3.46-2.28,5.23,0,.02-.01.05-.02.07l7.47,4.34c-.77-.45-1.25-1.41-1.26-2.76Z"/>
            <path class="cls-11" d="m76.16,28.98c2.38-1.37,4.32-.27,4.32,2.46,0,2.74-1.92,6.07-4.3,7.44-2.38,1.37-4.32.27-4.32-2.46,0-2.74,1.92-6.07,4.3-7.44Z"/>
          </g>
          <g>
            <g class="cls-30">
              <g class="cls-30">
                <g class="cls-105">
                  <g class="cls-30">
                    <path class="cls-22" d="m79.06,25.28l1.09-.64c-.75-.43-1.49-.55-2-.34-.05.02-.1.05-.15.08l-1.09.64s.1-.05.15-.08c.51-.21,1.26-.09,2,.34h0Z"/>
                  </g>
                </g>
              </g>
              <g class="cls-30">
                <g class="cls-10">
                  <g class="cls-30">
                    <path class="cls-22" d="m81.34,28.12l1.09-.64c-.51-1.37-1.4-2.32-2.28-2.84l-1.09.64c.88.51,1.77,1.46,2.28,2.84h0Z"/>
                  </g>
                </g>
              </g>
              <g class="cls-30">
                <g class="cls-59">
                  <g class="cls-30">
                    <path class="cls-22" d="m84.45,36.56l1.09-.64c2.75-1.6,2.49-4.61,1.18-6.67-.51-.8-1.25-1.54-2-1.97-.67-.39-1.35-.52-1.86-.23l-1.09.64c.51-.3,1.19-.16,1.86.23.75.43,1.49,1.17,2,1.97,1.31,2.06,1.57,5.07-1.18,6.67h0Z"/>
                  </g>
                </g>
              </g>
              <path class="cls-90" d="m79.06,25.28c-.75-.43-1.49-.55-2-.34-1.69.69-1.67,4.96,4.26,12.59,5.95-.76,6-4.99,4.32-7.63-.51-.8-1.25-1.54-2-1.97-.88-.51-1.77-.59-2.29.19-.51-1.37-1.4-2.32-2.28-2.84Z"/>
            </g>
            <g class="cls-30">
              <g class="cls-30">
                <g class="cls-29">
                  <g class="cls-30">
                    <path class="cls-22" d="m96.89,49.83l.71-.41c-.48-.28-.97-.36-1.3-.22-.03.01-.07.03-.1.05l-.71.41s.07-.03.1-.05c.33-.14.81-.06,1.3.22h0Z"/>
                  </g>
                </g>
              </g>
              <g class="cls-30">
                <g class="cls-95">
                  <g class="cls-30">
                    <path class="cls-22" d="m98.37,51.67l.71-.41c-.33-.89-.91-1.51-1.48-1.84l-.71.41c.57.33,1.15.95,1.48,1.84h0Z"/>
                  </g>
                </g>
              </g>
              <g class="cls-30">
                <g class="cls-38">
                  <g class="cls-30">
                    <path class="cls-22" d="m100.39,57.15l.71-.41c1.78-1.04,1.61-2.99.76-4.33-.33-.52-.81-1-1.3-1.28-.44-.25-.87-.34-1.21-.15l-.71.41c.33-.19.77-.1,1.21.15.48.28.97.76,1.3,1.28.85,1.33,1.02,3.29-.76,4.33h0Z"/>
                  </g>
                </g>
              </g>
              <path class="cls-90" d="m96.89,49.83c-.48-.28-.97-.36-1.3-.22-1.1.45-1.08,3.22,2.76,8.16,3.86-.5,3.89-3.24,2.8-4.95-.33-.52-.81-1-1.3-1.28-.57-.33-1.15-.38-1.49.13-.33-.89-.91-1.51-1.48-1.84Z"/>
            </g>
            <g>
              <g class="cls-30">
                <g class="cls-30">
                  <path class="cls-42" d="m71.92,36.72l.88-.51c.9-.52,2.15-.45,3.53.35l-.88.51c-1.38-.8-2.63-.87-3.53-.35Z"/>
                  <g class="cls-13">
                    <g class="cls-30">
                      <path class="cls-42" d="m71.92,36.72l.88-.51c.9-.52,2.15-.45,3.53.35l-.88.51c-1.38-.8-2.63-.87-3.53-.35h0Z"/>
                    </g>
                  </g>
                </g>
                <g class="cls-30">
                  <path class="cls-42" d="m79.82,48.29l-.88.51c.89-.52,1.44-1.62,1.45-3.18,0-3.15-2.2-6.98-4.94-8.56l.88-.51c2.74,1.58,4.95,5.41,4.94,8.56,0,1.56-.56,2.66-1.45,3.18Z"/>
                  <g class="cls-96">
                    <g class="cls-30">
                      <path class="cls-42" d="m75.45,37.07l.88-.51c2.74,1.58,4.95,5.41,4.94,8.56,0,1.56-.56,2.66-1.45,3.18l-.88.51c.89-.52,1.44-1.62,1.45-3.18,0-3.15-2.2-6.98-4.94-8.56h0Z"/>
                    </g>
                  </g>
                </g>
                <path class="cls-55" d="m75.45,37.07c2.74,1.58,4.95,5.41,4.94,8.56,0,3.15-2.23,4.41-4.97,2.83-2.74-1.58-4.95-5.41-4.94-8.56,0-3.15,2.24-4.41,4.97-2.83Z"/>
              </g>
              <g>
                <g>
                  <path class="cls-36" d="m76.86,42.33c0,.51.36,1.12.8,1.38.44.25.8.05.8-.46s-.36-1.12-.8-1.38c-.44-.25-.8-.05-.8.46Z"/>
                  <path class="cls-36" d="m72.44,39.78c0,.51.36,1.12.8,1.38s.8.05.8-.46-.36-1.12-.8-1.38-.8-.05-.8.46Z"/>
                </g>
                <path class="cls-36" d="m76.49,46.58c.69,0,1.22-.44,1.41-1.2.02-.1-.04-.2-.14-.22-.1-.02-.2.04-.22.14-.17.7-.68,1.03-1.36.88-.74-.16-1.59-.88-2.16-1.83-.32-.53-.55-1.12-.66-1.66-.02-.1-.12-.17-.22-.15-.1.02-.17.12-.15.22.11.59.36,1.21.7,1.78.64,1.05,1.55,1.82,2.4,2,.13.03.26.04.39.04Z"/>
                <g>
                  <path class="cls-86" d="m78.53,46.22l.67.39c.2.12.37.02.37-.21h0c0-.24-.17-.52-.37-.64l-.67-.39c-.2-.12-.37-.02-.37.21h0c0,.24.17.52.37.64Z"/>
                  <path class="cls-86" d="m71.69,42.27l.67.39c.2.12.37.02.37-.21h0c0-.24-.17-.52-.37-.64l-.67-.39c-.2-.12-.37-.02-.37.21h0c0,.24.17.52.37.64Z"/>
                </g>
              </g>
            </g>
            <g>
              <g class="cls-30">
                <g class="cls-30">
                  <path class="cls-42" d="m90.33,22.44l.62-.36c.64-.37,1.51-.32,2.49.24l-.62.36c-.97-.56-1.85-.61-2.49-.24Z"/>
                  <g class="cls-94">
                    <g class="cls-30">
                      <path class="cls-42" d="m90.33,22.44l.62-.36c.64-.37,1.51-.32,2.49.24l-.62.36c-.97-.56-1.85-.61-2.49-.24h0Z"/>
                    </g>
                  </g>
                </g>
                <g class="cls-30">
                  <path class="cls-42" d="m95.89,30.59l-.62.36c.63-.36,1.02-1.14,1.02-2.24,0-2.22-1.55-4.92-3.48-6.03l.62-.36c1.93,1.11,3.49,3.81,3.48,6.03,0,1.1-.39,1.88-1.02,2.24Z"/>
                  <g class="cls-81">
                    <g class="cls-30">
                      <path class="cls-42" d="m92.81,22.68l.62-.36c1.93,1.11,3.49,3.81,3.48,6.03,0,1.1-.39,1.88-1.02,2.24l-.62.36c.63-.36,1.02-1.14,1.02-2.24,0-2.22-1.55-4.92-3.48-6.03h0Z"/>
                    </g>
                  </g>
                </g>
                <path class="cls-55" d="m92.81,22.68c1.93,1.11,3.49,3.81,3.48,6.03,0,2.22-1.58,3.11-3.5,2-1.93-1.11-3.49-3.81-3.48-6.03,0-2.22,1.58-3.11,3.5-2Z"/>
              </g>
              <g>
                <g>
                  <path class="cls-36" d="m93.81,26.39c0,.36.25.79.56.97.31.18.56.03.56-.32s-.25-.79-.56-.97c-.31-.18-.56-.03-.56.32Z"/>
                  <path class="cls-36" d="m90.7,24.6c0,.36.25.79.56.97.31.18.56.03.56-.32s-.25-.79-.56-.97-.56-.03-.56.32Z"/>
                </g>
                <path class="cls-36" d="m93.55,29.39c.49,0,.86-.31.99-.85.02-.07-.03-.14-.1-.16-.07-.02-.14.03-.16.1-.12.5-.48.73-.96.62-.52-.11-1.12-.62-1.52-1.29-.23-.37-.39-.79-.46-1.17-.01-.07-.08-.12-.15-.1-.07.01-.12.08-.1.15.08.42.25.85.5,1.26.45.74,1.1,1.28,1.69,1.41.09.02.19.03.27.03Z"/>
                <g>
                  <path class="cls-86" d="m94.99,29.14l.47.27c.14.08.26.02.26-.15h0c0-.17-.12-.37-.26-.45l-.47-.27c-.14-.08-.26-.02-.26.15h0c0,.17.12.37.26.45Z"/>
                  <path class="cls-86" d="m90.17,26.35l.47.27c.14.08.26.01.26-.15h0c0-.17-.12-.37-.26-.45l-.47-.27c-.14-.08-.26-.02-.26.15h0c0,.17.12.37.26.45Z"/>
                </g>
              </g>
            </g>
            <g class="cls-30">
              <g class="cls-30">
                <path class="cls-42" d="m87.63,38.53l1.24-.72s.09-.03.15,0l-1.24.72c-.06-.02-.11-.02-.15,0Z"/>
                <g class="cls-8">
                  <g class="cls-30">
                    <path class="cls-42" d="m87.63,38.53l1.24-.72s.09-.03.15,0l-1.24.72c-.06-.02-.11-.02-.15,0h0Z"/>
                  </g>
                </g>
              </g>
              <g class="cls-30">
                <path class="cls-42" d="m94.85,46.4l-1.24.72c.06-.03.09-.11.08-.23l1.24-.72c.01.12-.02.2-.08.23Z"/>
                <g class="cls-45">
                  <g class="cls-30">
                    <path class="cls-42" d="m93.69,46.89l1.24-.72c.01.12-.02.2-.08.23l-1.24.72c.06-.03.09-.11.08-.23h0Z"/>
                  </g>
                </g>
              </g>
              <polygon class="cls-42" points="87.78 38.52 89.02 37.8 91.05 38.5 89.81 39.22 87.78 38.52"/>
              <g class="cls-30">
                <path class="cls-42" d="m91.2,38.5l-1.24.72s-.09.03-.15,0l1.24-.72c.06.02.11.02.15,0Z"/>
                <g class="cls-69">
                  <g class="cls-30">
                    <path class="cls-42" d="m89.81,39.22l1.24-.72c.06.02.11.02.15,0l-1.24.72s-.09.03-.15,0h0Z"/>
                  </g>
                </g>
              </g>
              <polygon class="cls-42" points="93.46 44.39 94.7 43.67 94.93 46.17 93.69 46.89 93.46 44.39"/>
              <g class="cls-30">
                <path class="cls-42" d="m93.54,44.16l1.24-.72c-.06.04-.09.12-.08.23l-1.24.72c0-.1.02-.19.08-.23Z"/>
                <g class="cls-107">
                  <g class="cls-30">
                    <path class="cls-42" d="m93.54,44.16l1.24-.72c-.06.04-.09.12-.08.23l-1.24.72c0-.1.02-.19.08-.23h0Z"/>
                  </g>
                </g>
              </g>
              <g class="cls-30">
                <path class="cls-42" d="m92.56,40.64l1.24-.72c.04.11.12.21.2.28l-1.24.72c-.08-.07-.16-.17-.2-.28Z"/>
                <g class="cls-66">
                  <g class="cls-30">
                    <path class="cls-42" d="m92.56,40.64l1.24-.72c.04.11.12.21.2.28l-1.24.72c-.08-.07-.16-.17-.2-.28h0Z"/>
                  </g>
                </g>
              </g>
              <g class="cls-30">
                <path class="cls-42" d="m91.08,37.64l1.24-.72c.06-.03.13-.02.21.02l-1.24.72c-.08-.04-.15-.06-.21-.02Z"/>
                <g class="cls-37">
                  <g class="cls-30">
                    <path class="cls-42" d="m91.08,37.64l1.24-.72c.06-.03.13-.02.21.02l-1.24.72c-.08-.04-.15-.06-.21-.02h0Z"/>
                  </g>
                </g>
              </g>
              <polygon class="cls-42" points="91.55 37.98 92.79 37.26 93.8 39.92 92.56 40.64 91.55 37.98"/>
              <g class="cls-30">
                <path class="cls-42" d="m91.29,37.66l1.24-.72c.1.06.2.17.26.32l-1.24.72c-.06-.15-.16-.26-.26-.32Z"/>
                <g class="cls-41">
                  <g class="cls-30">
                    <path class="cls-42" d="m91.29,37.66l1.24-.72c.1.06.2.17.26.32l-1.24.72c-.06-.15-.16-.26-.26-.32h0Z"/>
                  </g>
                </g>
              </g>
              <polygon class="cls-42" points="94.94 43.22 96.18 42.5 94.78 43.44 93.54 44.16 94.94 43.22"/>
              <polygon class="cls-42" points="92.76 40.92 94 40.2 96.03 41.85 94.79 42.57 92.76 40.92"/>
              <path class="cls-55" d="m91.29,37.66c.1.06.2.17.26.32l1.01,2.66c.04.11.12.21.2.28l2.03,1.64c.23.18.32.55.16.66l-1.41.94c-.06.04-.09.12-.08.23l.23,2.5c.02.22-.13.31-.3.21-.04-.02-.08-.06-.12-.1l-1.88-2.08s-.08-.08-.12-.1c-.04-.02-.08-.04-.12-.04l-1.88-.1s-.08-.02-.12-.04c-.17-.1-.32-.35-.29-.55l.24-2.22c.01-.09-.02-.21-.08-.31l-1.4-2.56c-.16-.29-.07-.55.16-.47l2.03.7c.08.03.16.01.2-.05l1.02-1.49c.06-.08.16-.08.26-.02Z"/>
              <g class="cls-30">
                <path class="cls-42" d="m94.79,42.57l1.24-.72c.23.18.32.55.16.66l-1.24.72c.16-.11.07-.47-.16-.66Z"/>
                <g class="cls-54">
                  <g class="cls-30">
                    <path class="cls-42" d="m94.79,42.57l1.24-.72c.23.18.32.55.16.66l-1.24.72c.16-.11.07-.47-.16-.66h0Z"/>
                  </g>
                </g>
              </g>
            </g>
            <g class="cls-30">
              <g class="cls-30">
                <path class="cls-42" d="m98.96,41.32l.76-.44s.06-.02.09,0l-.76.44s-.07-.01-.09,0Z"/>
                <g class="cls-114">
                  <g class="cls-30">
                    <path class="cls-42" d="m98.96,41.32l.76-.44s.06-.02.09,0l-.76.44s-.07-.01-.09,0h0Z"/>
                  </g>
                </g>
              </g>
              <g class="cls-30">
                <path class="cls-42" d="m103.41,46.17l-.76.44s.06-.07.05-.14l.76-.44c0,.07-.01.12-.05.14Z"/>
                <g class="cls-93">
                  <g class="cls-30">
                    <path class="cls-42" d="m102.7,46.47l.76-.44c0,.07-.01.12-.05.14l-.76.44s.06-.07.05-.14h0Z"/>
                  </g>
                </g>
              </g>
              <polygon class="cls-42" points="99.06 41.31 99.82 40.87 101.07 41.3 100.31 41.74 99.06 41.31"/>
              <g class="cls-30">
                <path class="cls-42" d="m101.16,41.3l-.76.44s-.06.02-.09,0l.76-.44s.07.01.09,0Z"/>
                <g class="cls-68">
                  <g class="cls-30">
                    <path class="cls-42" d="m100.31,41.74l.76-.44s.07.01.09,0l-.76.44s-.06.02-.09,0h0Z"/>
                  </g>
                </g>
              </g>
              <polygon class="cls-42" points="102.56 44.93 103.32 44.48 103.46 46.02 102.7 46.47 102.56 44.93"/>
              <g class="cls-30">
                <path class="cls-42" d="m102.6,44.79l.76-.44s-.05.07-.05.14l-.76.44c0-.06.01-.12.05-.14Z"/>
                <g class="cls-82">
                  <g class="cls-30">
                    <path class="cls-42" d="m102.6,44.79l.76-.44s-.05.07-.05.14l-.76.44c0-.06.01-.12.05-.14h0Z"/>
                  </g>
                </g>
              </g>
              <g class="cls-30">
                <path class="cls-42" d="m102,42.62l.76-.44c.03.07.07.13.12.17l-.76.44c-.05-.04-.1-.11-.12-.17Z"/>
                <g class="cls-25">
                  <g class="cls-30">
                    <path class="cls-42" d="m102,42.62l.76-.44c.03.07.07.13.12.17l-.76.44c-.05-.04-.1-.11-.12-.17h0Z"/>
                  </g>
                </g>
              </g>
              <g class="cls-30">
                <path class="cls-42" d="m101.09,40.77l.76-.44s.08-.01.13.01l-.76.44s-.09-.03-.13-.01Z"/>
                <g class="cls-20">
                  <g class="cls-30">
                    <path class="cls-42" d="m101.09,40.77l.76-.44s.08-.01.13.01l-.76.44s-.09-.03-.13-.01h0Z"/>
                  </g>
                </g>
              </g>
              <polygon class="cls-42" points="101.38 40.98 102.14 40.54 102.76 42.18 102 42.62 101.38 40.98"/>
              <g class="cls-30">
                <path class="cls-42" d="m101.22,40.78l.76-.44c.06.04.12.11.16.2l-.76.44c-.03-.09-.1-.16-.16-.2Z"/>
                <g class="cls-47">
                  <g class="cls-30">
                    <path class="cls-42" d="m101.22,40.78l.76-.44c.06.04.12.11.16.2l-.76.44c-.03-.09-.1-.16-.16-.2h0Z"/>
                  </g>
                </g>
              </g>
              <polygon class="cls-42" points="103.47 44.21 104.23 43.76 103.37 44.34 102.6 44.79 103.47 44.21"/>
              <polygon class="cls-42" points="102.12 42.79 102.89 42.35 104.13 43.36 103.37 43.8 102.12 42.79"/>
              <path class="cls-55" d="m101.22,40.78c.06.04.12.11.16.2l.62,1.64c.03.07.07.13.12.17l1.25,1.01c.14.11.19.34.1.4l-.87.58s-.05.07-.05.14l.14,1.54c.01.14-.08.19-.18.13-.03-.01-.05-.04-.08-.06l-1.16-1.28s-.05-.05-.08-.06c-.03-.01-.05-.02-.08-.02l-1.16-.06s-.05-.01-.08-.02c-.1-.06-.19-.22-.18-.34l.15-1.37c0-.06-.01-.13-.05-.19l-.86-1.58c-.1-.18-.04-.34.1-.29l1.25.43c.05.02.1,0,.12-.03l.63-.92c.04-.05.1-.05.16-.01Z"/>
              <g class="cls-30">
                <path class="cls-42" d="m103.37,43.8l.76-.44c.14.11.19.34.1.4l-.76.44c.1-.06.04-.29-.1-.4Z"/>
                <g class="cls-116">
                  <g class="cls-30">
                    <path class="cls-42" d="m103.37,43.8l.76-.44c.14.11.19.34.1.4l-.76.44c.1-.06.04-.29-.1-.4h0Z"/>
                  </g>
                </g>
              </g>
            </g>
            <g class="cls-30">
              <g>
                <path class="cls-32" d="m82.83,48.58l1.1-.64s.08-.02.14,0l-1.1.64c-.05-.02-.1-.02-.14,0Z"/>
                <g class="cls-53">
                  <g class="cls-30">
                    <path class="cls-32" d="m82.83,48.58l1.1-.64s.08-.02.14,0l-1.1.64c-.05-.02-.1-.02-.14,0h0Z"/>
                  </g>
                </g>
              </g>
              <g class="cls-30">
                <path class="cls-32" d="m89.26,55.6l-1.1.64c.05-.03.08-.1.07-.21l1.1-.64c0,.1-.02.17-.07.21Z"/>
                <g class="cls-34">
                  <g class="cls-30">
                    <path class="cls-32" d="m88.23,56.03l1.1-.64c0,.1-.02.17-.07.21l-1.1.64c.05-.03.08-.1.07-.21h0Z"/>
                  </g>
                </g>
              </g>
              <polygon class="cls-32" points="82.96 48.57 84.07 47.93 85.88 48.55 84.77 49.2 82.96 48.57"/>
              <g class="cls-30">
                <path class="cls-4" d="m86.01,48.55l-1.1.64s-.08.02-.14,0l1.1-.64c.05.02.1.02.14,0Z"/>
                <g class="cls-52">
                  <g class="cls-30">
                    <path class="cls-4" d="m84.77,49.2l1.1-.64c.05.02.1.02.14,0l-1.1.64s-.08.02-.14,0h0Z"/>
                  </g>
                </g>
              </g>
              <polygon class="cls-32" points="88.03 53.8 89.13 53.16 89.34 55.39 88.23 56.03 88.03 53.8"/>
              <g class="cls-30">
                <path class="cls-32" d="m88.1,53.6l1.1-.64c-.05.03-.08.11-.07.2l-1.1.64c0-.09.02-.17.07-.2Z"/>
                <g class="cls-79">
                  <g class="cls-30">
                    <path class="cls-32" d="m88.1,53.6l1.1-.64c-.05.03-.08.11-.07.2l-1.1.64c0-.09.02-.17.07-.2h0Z"/>
                  </g>
                </g>
              </g>
              <g class="cls-30">
                <path class="cls-4" d="m87.22,50.46l1.1-.64c.04.1.1.19.18.25l-1.1.64c-.08-.06-.14-.15-.18-.25Z"/>
                <g class="cls-40">
                  <g class="cls-30">
                    <path class="cls-4" d="m87.22,50.46l1.1-.64c.04.1.1.19.18.25l-1.1.64c-.08-.06-.14-.15-.18-.25h0Z"/>
                  </g>
                </g>
              </g>
              <g class="cls-30">
                <path class="cls-4" d="m85.91,47.79l1.1-.64c.05-.03.12-.02.19.02l-1.1.64c-.07-.04-.14-.05-.19-.02Z"/>
                <g class="cls-23">
                  <g class="cls-30">
                    <path class="cls-4" d="m85.91,47.79l1.1-.64c.05-.03.12-.02.19.02l-1.1.64c-.07-.04-.14-.05-.19-.02h0Z"/>
                  </g>
                </g>
              </g>
              <polygon class="cls-4" points="86.32 48.09 87.43 47.45 88.33 49.82 87.22 50.46 86.32 48.09"/>
              <g class="cls-30">
                <path class="cls-4" d="m86.09,47.8l1.1-.64c.09.05.18.16.23.29l-1.1.64c-.05-.13-.14-.24-.23-.29Z"/>
                <g class="cls-103">
                  <g class="cls-30">
                    <path class="cls-4" d="m86.09,47.8l1.1-.64c.09.05.18.16.23.29l-1.1.64c-.05-.13-.14-.24-.23-.29h0Z"/>
                  </g>
                </g>
              </g>
              <polygon class="cls-32" points="89.35 52.76 90.45 52.12 89.2 52.96 88.1 53.6 89.35 52.76"/>
              <polygon class="cls-4" points="87.4 50.71 88.51 50.07 90.31 51.54 89.21 52.18 87.4 50.71"/>
              <path class="cls-72" d="m86.09,47.8c.09.05.18.16.23.29l.9,2.37c.04.1.1.19.18.25l1.81,1.46c.2.16.28.49.14.59l-1.25.84c-.05.03-.08.11-.07.2l.21,2.23c.02.2-.11.27-.26.19-.04-.02-.07-.05-.11-.09l-1.68-1.85s-.07-.07-.11-.09-.08-.03-.11-.04l-1.68-.09s-.07-.01-.11-.04c-.15-.09-.28-.31-.26-.49l.22-1.98c0-.08-.02-.18-.07-.28l-1.24-2.28c-.14-.25-.06-.49.14-.42l1.81.63c.08.03.14,0,.18-.05l.91-1.32c.05-.07.14-.07.23-.02Z"/>
              <g class="cls-30">
                <path class="cls-4" d="m89.21,52.18l1.1-.64c.2.16.28.49.14.59l-1.1.64c.14-.09.06-.42-.14-.59Z"/>
                <g class="cls-85">
                  <g class="cls-30">
                    <path class="cls-4" d="m89.21,52.18l1.1-.64c.2.16.28.49.14.59l-1.1.64c.14-.09.06-.42-.14-.59h0Z"/>
                  </g>
                </g>
              </g>
            </g>
            <g class="cls-30">
              <g>
                <path class="cls-32" d="m97.54,31.61l.92-.53s.07-.02.11,0l-.92.53s-.08-.01-.11,0Z"/>
                <g class="cls-58">
                  <g class="cls-30">
                    <path class="cls-32" d="m97.54,31.61l.92-.53s.07-.02.11,0l-.92.53s-.08-.01-.11,0h0Z"/>
                  </g>
                </g>
              </g>
              <g class="cls-30">
                <path class="cls-32" d="m102.89,37.44l-.92.53s.07-.08.06-.17l.92-.53c0,.09-.02.14-.06.17Z"/>
                <g class="cls-5">
                  <g class="cls-30">
                    <path class="cls-32" d="m102.03,37.8l.92-.53c0,.09-.02.14-.06.17l-.92.53s.07-.08.06-.17h0Z"/>
                  </g>
                </g>
              </g>
              <polygon class="cls-32" points="97.65 31.61 98.57 31.07 100.07 31.59 99.16 32.13 97.65 31.61"/>
              <g class="cls-30">
                <path class="cls-4" d="m100.19,31.59l-.92.53s-.07.02-.11,0l.92-.53s.08.01.11,0Z"/>
                <g class="cls-35">
                  <g class="cls-30">
                    <path class="cls-4" d="m99.16,32.13l.92-.53s.08.01.11,0l-.92.53s-.07.02-.11,0h0Z"/>
                  </g>
                </g>
              </g>
              <polygon class="cls-32" points="101.86 35.95 102.78 35.42 102.95 37.27 102.03 37.8 101.86 35.95"/>
              <g class="cls-30">
                <path class="cls-32" d="m101.92,35.79l.92-.53s-.06.09-.06.17l-.92.53c0-.08.01-.14.06-.17Z"/>
                <g class="cls-21">
                  <g class="cls-30">
                    <path class="cls-32" d="m101.92,35.79l.92-.53s-.06.09-.06.17l-.92.53c0-.08.01-.14.06-.17h0Z"/>
                  </g>
                </g>
              </g>
              <g class="cls-30">
                <path class="cls-4" d="m101.19,33.18l.92-.53c.03.08.09.16.15.21l-.92.53c-.06-.05-.12-.13-.15-.21Z"/>
                <g class="cls-77">
                  <g class="cls-30">
                    <path class="cls-4" d="m101.19,33.18l.92-.53c.03.08.09.16.15.21l-.92.53c-.06-.05-.12-.13-.15-.21h0Z"/>
                  </g>
                </g>
              </g>
              <g class="cls-30">
                <path class="cls-4" d="m100.1,30.96l.92-.53s.1-.02.16.02l-.92.53c-.06-.03-.11-.04-.16-.02Z"/>
                <g class="cls-110">
                  <g class="cls-30">
                    <path class="cls-4" d="m100.1,30.96l.92-.53s.1-.02.16.02l-.92.53c-.06-.03-.11-.04-.16-.02h0Z"/>
                  </g>
                </g>
              </g>
              <polygon class="cls-4" points="100.44 31.21 101.36 30.68 102.11 32.65 101.19 33.18 100.44 31.21"/>
              <g class="cls-30">
                <path class="cls-4" d="m100.25,30.97l.92-.53c.07.04.15.13.19.24l-.92.53c-.04-.11-.12-.2-.19-.24Z"/>
                <g class="cls-76">
                  <g class="cls-30">
                    <path class="cls-4" d="m100.25,30.97l.92-.53c.07.04.15.13.19.24l-.92.53c-.04-.11-.12-.2-.19-.24h0Z"/>
                  </g>
                </g>
              </g>
              <polygon class="cls-32" points="102.96 35.09 103.88 34.56 102.83 35.25 101.92 35.79 102.96 35.09"/>
              <polygon class="cls-4" points="101.34 33.39 102.26 32.85 103.76 34.07 102.84 34.6 101.34 33.39"/>
              <path class="cls-72" d="m100.25,30.97c.07.04.15.13.19.24l.75,1.97c.03.08.09.16.15.21l1.5,1.21c.17.14.23.41.12.49l-1.04.7s-.06.09-.06.17l.17,1.85c.02.17-.09.23-.22.16-.03-.02-.06-.04-.09-.08l-1.39-1.54s-.06-.06-.09-.08c-.03-.02-.06-.03-.09-.03l-1.39-.07s-.06-.01-.09-.03c-.12-.07-.23-.26-.22-.41l.18-1.65c0-.07-.01-.15-.06-.23l-1.03-1.89c-.12-.21-.05-.41.12-.35l1.5.52c.06.02.12,0,.15-.04l.76-1.1c.04-.06.12-.06.19-.02Z"/>
              <g class="cls-30">
                <path class="cls-4" d="m102.84,34.6l.92-.53c.17.14.23.41.12.49l-.92.53c.12-.08.05-.35-.12-.49Z"/>
                <g class="cls-112">
                  <g class="cls-30">
                    <path class="cls-4" d="m102.84,34.6l.92-.53c.17.14.23.41.12.49l-.92.53c.12-.08.05-.35-.12-.49h0Z"/>
                  </g>
                </g>
              </g>
            </g>
          </g>
          <g>
            <path class="cls-3" d="m42.49,60.91c-.22-.13-.43-.14-.57-.06l-2.01,1.17c-.1-.08-.19-.15-.3-.2-.41-.24-.78-.26-1.05-.1l-8.82,5.13s0,0,0,0c-.27.15-.43.48-.43.95,0,.94.66,2.08,1.47,2.55.42.24.8.26,1.07.09,0,0-.01,0-.02.01l8.82-5.13c.27-.15.43-.48.43-.95,0-.13-.01-.26-.03-.39l2.01-1.17c.14-.08.23-.26.23-.52,0-.51-.36-1.13-.8-1.39Zm-12.35,5.83s-.02,0-.03,0c.01,0,.02,0,.03,0Zm-.35.07s-.02,0-.02.01c0,0,.02,0,.02-.01Zm.29-.07s-.02,0-.03,0c.01,0,.02,0,.03,0Zm-.06,0s-.02,0-.03,0c0,0,.02,0,.03,0Zm-.06,0s-.02,0-.03,0c0,0,.02,0,.03,0Zm-.06.01s-.02,0-.03,0c0,0,.02,0,.03,0Zm-.06.02s-.02,0-.03.01c0,0,.02,0,.03-.01Zm.34-.05s.02,0,.03,0c-.01,0-.02,0-.03,0Zm.07,0s.02,0,.03,0c-.01,0-.02,0-.03,0Zm.07.01s.02,0,.03,0c-.01,0-.02,0-.03,0Zm.07.02s.02,0,.03,0c-.01,0-.02,0-.03,0Zm.07.02s.02,0,.03.01c-.01,0-.02,0-.03-.01Zm.07.03s.02,0,.03.01c-.01,0-.02,0-.03-.01Zm.07.03s.02,0,.03.01c-.01,0-.02,0-.03-.01Zm.08.04s.02,0,.03.01c0,0-.02,0-.03-.01Zm1.19,3.52s.02-.01.02-.02c0,0-.02.01-.02.02Zm.05-.03s.02-.01.02-.02c0,0-.01.01-.02.02Zm.04-.04s.01-.01.02-.02c0,0-.01.01-.02.02Zm.29-.76s0-.06,0-.09c0,.03,0,.06,0,.09Zm-.25.72s.01-.02.02-.02c0,0-.01.02-.02.02Zm.04-.05s.01-.02.02-.03c0,0-.01.02-.02.03Zm.04-.05s.01-.02.02-.03c0,0-.01.02-.02.03Zm.03-.05s.01-.02.02-.03c0,0,0,.02-.02.03Zm.03-.06s0-.02.01-.03c0,.01,0,.02-.01.03Zm.03-.06s0-.02.01-.03c0,.01,0,.02-.01.03Zm.02-.07s0-.02.01-.04c0,.01,0,.03-.01.04Zm.02-.07s0-.03,0-.04c0,.01,0,.03,0,.04Zm.02-.07s0-.03,0-.04c0,.01,0,.03,0,.04Zm.01-.08s0-.03,0-.05c0,.02,0,.03,0,.05Zm0-.08s0-.04,0-.05c0,.02,0,.04,0,.05Z"/>
            <path class="cls-3" d="m55.32,54.84c3.66,2.12,3.66,5.54,0,7.66-3.66,2.11-9.6,2.11-13.27,0-3.66-2.12-3.66-5.54,0-7.66,3.66-2.12,9.6-2.12,13.27,0Z"/>
            <g class="cls-30">
              <g class="cls-30">
                <path class="cls-4" d="m53.56,56.41v2.28c0-.94-.62-1.87-1.86-2.59-2.46-1.42-6.43-1.42-8.87,0-1.21.7-1.82,1.63-1.82,2.55v-2.28c0-.92.62-1.85,1.83-2.55,2.44-1.42,6.41-1.42,8.87,0,1.24.71,1.85,1.65,1.85,2.59Z"/>
                <g class="cls-73">
                  <g class="cls-30">
                    <path class="cls-4" d="m53.56,56.41v2.28c0-.44-.14-.89-.42-1.31v-2.28c.28.42.42.86.42,1.31h0Z"/>
                    <path class="cls-4" d="m53.15,55.1v2.28c-.31-.47-.79-.9-1.44-1.28-1.63-.94-3.94-1.26-6.02-.95v-2.28c2.08-.31,4.39,0,6.02.95.65.38,1.13.81,1.44,1.28h0Z"/>
                    <path class="cls-4" d="m45.69,52.87v2.28c-1.05.16-2.04.47-2.86.95-1.21.7-1.82,1.63-1.82,2.55v-2.28c0-.92.62-1.85,1.83-2.55.82-.48,1.81-.79,2.86-.95h0Z"/>
                  </g>
                </g>
              </g>
              <g class="cls-30">
                <path class="cls-4" d="m55.83,56.42v2.28c-.01,1.26-.84,2.51-2.49,3.47-3.33,1.93-8.73,1.93-12.08,0-1.68-.97-2.53-2.25-2.52-3.52v-2.28c0,1.27.84,2.55,2.53,3.52,3.35,1.93,8.76,1.93,12.08,0,1.65-.96,2.48-2.22,2.48-3.47Z"/>
                <g class="cls-109">
                  <g class="cls-30">
                    <path class="cls-4" d="m55.83,56.42v2.28c-.01,1.26-.84,2.51-2.49,3.47-1.11.65-2.46,1.08-3.89,1.29v-2.28c1.43-.21,2.78-.64,3.89-1.29,1.65-.96,2.48-2.22,2.48-3.47h0Z"/>
                    <path class="cls-4" d="m49.46,61.18v2.28c-2.84.42-5.97,0-8.2-1.29-.89-.51-1.54-1.11-1.96-1.74v-2.28c.43.64,1.08,1.23,1.97,1.74,2.23,1.29,5.36,1.72,8.19,1.29h0Z"/>
                    <path class="cls-4" d="m39.31,58.15v2.28c-.38-.57-.57-1.18-.57-1.78v-2.28c0,.6.19,1.21.57,1.78h0Z"/>
                  </g>
                </g>
              </g>
            </g>
            <g class="cls-30">
              <g class="cls-30">
                <path class="cls-36" d="m34,63.54l6.17-3.59c.15-.09.35-.07.57.06l-6.17,3.59c-.22-.13-.43-.14-.57-.06Z"/>
                <g class="cls-83">
                  <g class="cls-30">
                    <path class="cls-36" d="m34,63.54l6.17-3.59c.15-.09.35-.07.57.06l-6.17,3.59c-.22-.13-.43-.14-.57-.06h0Z"/>
                  </g>
                </g>
              </g>
              <g class="cls-30">
                <path class="cls-36" d="m41.31,61.91l-6.17,3.59c.14-.08.23-.26.23-.52,0-.51-.36-1.13-.8-1.39l6.17-3.59c.44.26.8.88.8,1.39,0,.25-.09.43-.23.52Z"/>
                <g class="cls-92">
                  <g class="cls-30">
                    <path class="cls-36" d="m34.57,63.59l6.17-3.59c.44.26.8.88.8,1.39,0,.25-.09.43-.23.52l-6.17,3.59c.14-.08.23-.26.23-.52,0-.51-.36-1.13-.8-1.39h0Z"/>
                  </g>
                </g>
              </g>
              <path class="cls-36" d="m34.57,63.59c.44.26.8.88.8,1.39,0,.51-.36.72-.81.46-.44-.26-.8-.88-.8-1.39,0-.51.36-.72.81-.46Z"/>
            </g>
            <g class="cls-30">
              <g class="cls-30">
                <path class="cls-46" d="m27.99,65.94l8.82-5.13c.27-.16.64-.13,1.05.1l-8.82,5.13c-.41-.24-.78-.26-1.05-.1Z"/>
                <g class="cls-108">
                  <g class="cls-30">
                    <path class="cls-46" d="m27.99,65.94l8.82-5.13c.27-.16.64-.13,1.05.1l-8.82,5.13c-.41-.24-.78-.26-1.05-.1h0Z"/>
                  </g>
                </g>
              </g>
              <g class="cls-30">
                <path class="cls-46" d="m38.9,64.41l-8.82,5.13c.27-.15.43-.48.43-.95,0-.94-.66-2.08-1.47-2.55l8.82-5.13c.82.47,1.48,1.61,1.47,2.55,0,.47-.17.79-.43.95Z"/>
                <g class="cls-48">
                  <g class="cls-30">
                    <path class="cls-46" d="m29.04,66.04l8.82-5.13c.82.47,1.48,1.61,1.47,2.55,0,.47-.17.79-.43.95l-8.82,5.13c.27-.15.43-.48.43-.95,0-.94-.66-2.08-1.47-2.55h0Z"/>
                  </g>
                </g>
              </g>
              <path class="cls-101" d="m29.04,66.04c.82.47,1.48,1.61,1.47,2.55,0,.94-.67,1.32-1.48.84-.82-.47-1.48-1.61-1.47-2.55,0-.94.67-1.32,1.48-.84Z"/>
            </g>
            <path class="cls-12" d="m42.87,59.66c2.46,1.42,6.43,1.42,8.87,0s2.43-3.72-.03-5.14c-2.46-1.42-6.43-1.42-8.87,0s-2.43,3.72.03,5.14h0Z"/>
            <path class="cls-12" d="m51.74,59.66c-2.44,1.42-6.41,1.42-8.87,0-1.13-.65-1.74-1.49-1.84-2.34.24.22.53.43.86.62,2.46,1.42,6.43,1.42,8.87,0,1.32-.77,1.92-1.79,1.81-2.8,1.56,1.4,1.28,3.29-.83,4.52Z"/>
            <path class="cls-24" d="m53.31,52.89c3.35,1.93,3.37,5.07.04,7-3.33,1.93-8.73,1.93-12.08,0-3.35-1.93-3.36-5.07-.04-7,3.33-1.93,8.73-1.93,12.08,0Zm-10.44,6.07c2.46,1.42,6.43,1.42,8.87,0s2.43-3.72-.03-5.14c-2.46-1.42-6.43-1.42-8.87,0s-2.43,3.72.03,5.14h0Z"/>
          </g>
          <g id="man">
            <path class="cls-3" d="m71.92,71.48c1.64.95,1.64,2.49,0,3.44-1.64.95-4.31.95-5.95,0-1.64-.95-1.64-2.49,0-3.44,1.64-.95,4.31-.95,5.95,0Z"/>
            <path class="cls-56" d="m73.27,60.05s-.09-.1-.14-.07c-.05.03-.04.11-.05.16,0,.07,0,.13.03.2.03.06.06.13.06.2,0,.02,0,.04-.01.06.13.1.25.21.36.32.02-.04.03-.09.04-.13.02-.27-.14-.53-.29-.74Z"/>
            <path class="cls-33" d="m69.93,60.14s0,0-.01,0c-.02-.08,0-.16.01-.24.03-.2-.05-.41-.01-.62,0-.06.03-.12.07-.17.03-.04.08-.07.13-.1.02,0,.23-.14.22-.14.14.26.17.58.06.86l-.47.41Z"/>
            <path class="cls-15" d="m69.51,60.05c-.48.09-.95.22-1.41.37-.21.07-.42.13-.58.3-.16.17-.16.43-.09.65.04.12.1.24.23.27.12.03.32-.03.43-.06.3-.09.6-.21.89-.35.1-.05.19-.1.29-.16.14-.08.29-.16.43-.24-.15-.23-.22-.5-.18-.77Z"/>
            <g>
              <g class="cls-30">
                <g class="cls-30">
                  <path class="cls-14" d="m72.97,61.67l.08-.05s.05-.06.05-.11l-.08.05c0,.06-.02.09-.05.11Z"/>
                  <g class="cls-100">
                    <g class="cls-30">
                      <path class="cls-14" d="m72.97,61.67l.08-.05s.05-.06.05-.11l-.08.05c0,.06-.02.09-.05.11h0Z"/>
                    </g>
                  </g>
                </g>
                <polygon class="cls-14" points="73.03 61.55 73.11 61.51 73.11 59.84 73.03 59.89 73.03 61.55"/>
                <polygon class="cls-14" points="72.85 59.59 72.94 59.54 70.56 58.16 70.48 58.21 72.85 59.59"/>
                <g class="cls-30">
                  <path class="cls-14" d="m73.03,59.89l.08-.05c0-.11-.08-.25-.18-.31l-.08.05c.1.06.18.19.18.31Z"/>
                  <g class="cls-16">
                    <g class="cls-30">
                      <path class="cls-14" d="m73.03,59.89l.08-.05s-.01-.09-.03-.13l-.08.05s.03.09.03.13h0Z"/>
                      <path class="cls-14" d="m73,59.76l.08-.05s-.04-.07-.06-.1l-.08.05s.04.06.06.1h0Z"/>
                      <path class="cls-14" d="m72.94,59.66l.08-.05s-.05-.06-.09-.07l-.08.05s.06.04.09.07h0Z"/>
                    </g>
                  </g>
                </g>
                <g>
                  <path class="cls-62" d="m70.48,58.21c-.1-.06-.18-.01-.18.1v1.66c0,.11.07.25.17.31l2.38,1.37c.1.06.18.01.18-.1v-1.66c0-.11-.07-.25-.17-.31l-2.38-1.37Z"/>
                  <path class="cls-4" d="m70.39,59.98c0,.08.06.18.13.22l2.38,1.37s.02.01.03.01c0,0,0-.01,0-.03v-1.66c0-.08-.06-.18-.12-.22l-2.36-1.36h-.02s-.02-.02-.03-.02c0,0,0,.01,0,.03v1.66Z"/>
                  <path class="cls-65" d="m70.44,59.96c0,.08.06.18.13.22l2.36,1.36v-1.65c0-.08-.06-.18-.12-.22l-2.36-1.36v1.65Z"/>
                </g>
              </g>
              <path class="cls-14" d="m70.43,58.15l-.08.05s.08-.02.13.01l.08-.05s-.09-.03-.13-.01Z"/>
              <polygon class="cls-15" points="72.29 60.84 70.85 60 70.85 59.5 72.29 60.33 72.29 60.84"/>
              <polygon class="cls-43" points="72.35 59.41 72.93 60.34 72.93 60.7 71.9 59.15 72.35 59.41"/>
              <polygon class="cls-43" points="72.93 61.14 72.93 61.54 72.8 61.46 70.75 58.49 71.44 58.88 72.93 61.14"/>
            </g>
            <path class="cls-56" d="m73.15,60.61s-.03.03-.04.04c-.06.03-.17.08-.2-.02,0-.03,0-.06,0-.09.01-.06.02-.13.03-.19,0-.03,0-.08-.03-.09-.02,0-.05.01-.06.03-.05.05-.08.11-.11.17-.01.02-.02.05-.03.07-.09.2-.18.38-.23.59-.03.12-.05.23-.04.35,0,.1.02.19.05.29.02.06.05.15.11.19.07.04.14-.02.19-.07.07-.08.1-.18.15-.27.03-.04.04-.08.06-.12.03-.05.08-.08.13-.11.1-.07.19-.16.26-.26.04-.06.09-.13.13-.21-.12-.12-.23-.23-.36-.32,0,0,0,0,0,.01Z"/>
            <g id="man-2" data-name="man">
              <g>
                <path class="cls-4" d="m67.73,73.1s.04-.07.13-.08c.1,0,.19-.01.29-.02.13,0,.26-.02.4-.03,0-.11,0-.22-.02-.32.14.03.22-.01.35-.06.16-.06.32-.11.48-.16.07-.02.14-.04.21-.02.18.04.28.33.25.48-.02.11-.09.2-.18.27-.13.1-.31.19-.48.21-.18.03-.34.08-.48.19-.18.14-.31.29-.55.31-.24.02-.44-.13-.45-.38,0-.09.01-.18.03-.27,0-.06.01-.1.02-.13Z"/>
                <path class="cls-106" d="m68.47,73.4s0-.04,0-.06c-.01-.2.06-.36.14-.55.03-.07.06-.14.11-.19.13-.1.34-.01.42.13.04.07.06.14.09.21.07.13.2.29.36.3.21,0,.45-.06.67-.08.08,0,.17,0,.25.02.18.07.24.37.17.54-.04.1-.13.18-.23.22-.15.07-.35.11-.51.1-.18-.01-.35,0-.51.08-.28.13-.6.32-.88.06-.08-.07-.11-.17-.12-.27-.02-.18.05-.35.05-.53Z"/>
              </g>
            </g>
            <path class="cls-91" d="m68.55,69.3l.1-.42c-.04.14-.07.28-.1.42Z"/>
            <path class="cls-91" d="m66.92,65.96c-.03.32-.05.64-.02.96.03.34.09.64.21,1.23.12.57.14.66.16.96-.03-.02-.2,2,.35,3.84.03.11.08.24.18.3.05.03.12.04.18.05.06,0,.12.01.18,0,.06,0,.13-.03.18-.09.05-.06.08-.13.1-.21.04-.13.04-.26.04-.4,0-.63-.04-1.25-.04-1.88,0-.36.01-.73.06-1.09.12-.42.21-.84.26-1.27.06-.4.03-.82.12-1.22.07-.3.12-.78.12-1.22h-2.09Z"/>
            <path class="cls-99" d="m68.53,65.04c0,.07-.51.32-.65.18-.03-.03-.08-.11-.14-.19-.53.56-.67,1.51-.38,2.12.22.45.53,1.52.64,2.74.12,1.35.02,2.86.05,3.42.04,0,.07,0,.11,0,.06,0,.13-.03.18-.09.05-.06.08-.13.1-.21.04-.13.04-.26.04-.4,0-.63-.04-1.25-.04-1.88,0-.36.01-.73.06-1.09.12-.41.21-.84.26-1.27.06-.4.03-.82.12-1.22.17-.74.24-2.6-.36-2.14Z"/>
            <path class="cls-31" d="m68.81,65.35c.06-.03.35-.18.35-.26,0-.05.14-.1.18-.1.07,0,.14.04.19.08.13.1.23.24.3.4.08.22.1.46.12.69.04.7.02,1.4-.05,2.1-.04.35-.09.7-.16,1.05-.03.17-.07.35-.11.52-.04.17-.07.22-.21.3-.3.19-.83.16-1.05-.17-.23-.36-.13-.93-.21-1.34-.11-.59-.5-1.03-.68-1.59-.13-.41-.11-.8-.05-1.23.03-.2.09-.68.3-.79.05-.03.42-.11.71.18.17.17.15.25.37.14Z"/>
            <path class="cls-49" d="m66.78,63.71c-.01-.1-.03-.21-.05-.31-.09-.5-.24-.98-.3-1.48-.05-.39-.08-.88.23-1.18.05-.05.11-.09.17-.12.6-.34,1.18.07,1.74.28.37.13.72.31,1.06.52.12.07.23.12.31.24.08.12.13.25.13.4,0,.17-.02.33-.05.5-.16.96-.23,1.94-.12,2.91.05.42.1,1.55.1,1.55-.14.06-.23.12-.9.13-1.39.02-2.15-.32-2.23-.4-.08-.07-.05-.24-.05-.34,0-.3,0-.6,0-.9.01-.59.03-1.19-.04-1.78Z"/>
            <path class="cls-115" d="m70.07,62.05c0-.15-.05-.28-.13-.4-.08-.11-.2-.17-.31-.24-.07-.04-.14-.09-.21-.13-.44.37-1.04.81-.73,1.35.8,1.43.99,2.94,1.03,4.46.16-.02.22-.06.29-.09,0,0-.05-1.14-.1-1.55-.12-.97-.04-1.95.12-2.91.03-.16.06-.33.05-.5Z"/>
            <path class="cls-62" d="m68.86,61.01c-.1-.04-.21-.09-.29-.12-.39-.14-.79-.38-1.19-.4-.2.3-.04.63.25.79.36.18.84.16,1.19-.08.07-.05.12-.13.05-.19Z"/>
            <path class="cls-31" d="m69.61,70.12c-.03.3-.05.61-.07.91-.02.24-.03.48-.04.72,0,.19-.02.37-.02.56-.04,1.02.07,1.24-.41,1.38-.11.03-.22.04-.33.01-.31-.08-.37-.35-.4-.69-.02-.19-.03-.42-.04-.61,0-.16,0-.33-.01-.49,0-.22,0-.44,0-.66,0-.29,0-.58,0-.87,0-.37-.03-.75-.04-1.13,0-.05.03-.11.08-.14.06-.04,1.18.37,1.29.5,0,0,.05.14.01.52Z"/>
            <path class="cls-15" d="m69.82,61.52c-.2-.14-.44-.25-.67-.14-.09.04-.17.12-.23.2-.16.21-.28.46-.26.73,0,.05.01.1.03.15.07.18.24.23.4.31.19.09.37.2.55.3.36.21.73.43,1.12.59.23.09.49.17.72.07.15-.07.27-.21.3-.38.08-.4-.22-.49-.26-.52-1.28-.96-1.73-1.34-1.7-1.32Z"/>
            <path class="cls-15" d="m72.81,61.26c.07.04.2.14.21.24,0,.08-.09.2-.13.27-.11.22-.23.43-.35.64-.05.1-.11.19-.16.29-.16.28-.35.53-.57.77-.08.09-.22.25-.34.28-.12.04-.23-.02-.33-.11-.18-.15-.31-.37-.26-.6.04-.23.19-.39.33-.56.33-.39.67-.76,1.04-1.1.07-.06.13-.12.22-.15.1-.04.22-.02.33.04Z"/>
            <path class="cls-33" d="m70.58,59.54c-.05.14-.09.3-.1.45,0,.06,0,.13-.02.19-.03.12-.12.21-.22.28-.05.03-.1.07-.16.06.01-.04.02-.08.01-.13,0-.06-.03-.11-.07-.15-.03-.03-.08-.05-.1-.08-.04-.08.01-.15.04-.22.03-.08.02-.16.05-.24,0-.02.02-.05.04-.06s.04-.03.07-.02c.04.01.04.06.05.1,0,0,0,.01,0,.02.01.01.03,0,.04-.02.05-.08.1-.16.15-.23.04-.06.07-.14.14-.18,0,0,.02-.01.03-.01,0,0,0,0,0,0,.03,0,.05.03.05.06.02.06,0,.12-.02.18Z"/>
            <path class="cls-15" d="m70.09,60.23c-.06-.11-.16-.19-.26-.21-.09-.02-.18,0-.27.02-.02,0-.04,0-.06.01-.04.27.03.54.18.77.07-.04.13-.08.2-.12.07-.04.21-.09.25-.16.05-.08,0-.24-.05-.31Z"/>
            <path class="cls-56" d="m68.72,60.4c.02-.15.13-.11.08-.25-.05-.11-.12-.22-.22-.3s-.22-.12-.35-.11c-.04,0-.07.03-.11.03-.12,0-.23-.02-.35,0-.12.02-.22.03-.22.16,0,.17,0,.34-.05.52-.03.09-.08.18-.08.28-.02.19.12.37.29.45.21.1.45.09.67.06.11-.02.27-.04.34-.15.05-.08.03-.19.02-.27-.02-.13-.03-.27,0-.4Z"/>
            <g>
              <path class="cls-56" d="m69.22,58.5c.07.09.13.18.14.3.04.25-.06.51,0,.76.05.24-.05.79-.53.94-.24.07-.72-.01-.87-.09-.21-.1-.34-.3-.46-.49-1-1.59,1.06-2.24,1.74-1.42Z"/>
              <path class="cls-102" d="m67.19,58.18s.11-.09.18-.13c.02-.01.05-.02.06-.04.01-.01.02-.03.03-.05.03-.07.1-.12.17-.16.27-.15.59-.16.89-.11.1.01.2.03.3.08.11.05.2.12.29.2.16.15.35.38.34.61,0,.05-.03.09-.06.14-.02.03-.05.06-.07.09-.08.1-.11.24-.16.35-.02.05-.04.1-.09.13-.09.06-.21,0-.3.03-.06.02-.1.06-.13.12-.03.05-.05.11-.06.17-.02.09-.03.17-.04.26-.01.09-.04.19-.1.26-.15.16-.42.15-.61.11-.07-.02-.14-.03-.2-.06-.15-.07-.25-.21-.34-.34-.09-.12-.17-.24-.22-.39-.03-.08-.04-.16-.05-.25-.05-.33-.08-.76.16-1.02Z"/>
              <path class="cls-56" d="m68.67,59.21c-.19-.02-.24.22-.12.41.04.05.1.1.15.15.34.3.43-.02.32-.12-.25-.24-.12-.42-.36-.44Z"/>
              <path class="cls-7" d="m68.72,59.58s-.24-.15-.09-.24c.04-.02.09.01.09.06,0,.02,0,.05,0,.07,0,.01,0,.03.01.04.02.03.08.06.07.11-.01.04-.08-.02-.09-.03Z"/>
            </g>
          </g>
          <g>
            <path class="cls-1" d="m26.45,68.79c1.41.81,1.41,2.13,0,2.94-1.41.81-3.69.81-5.1,0-1.41-.81-1.41-2.13,0-2.94,1.41-.81,3.69-.81,5.1,0Z"/>
            <path class="cls-1" d="m35.11,70.4c1.41.81,1.41,2.13,0,2.94-1.41.81-3.69.81-5.1,0-1.41-.81-1.41-2.13,0-2.94,1.41-.81,3.69-.81,5.1,0Z"/>
            <g id="woman">
              <g>
                <path class="cls-61" d="m23.24,69.54s.05.1.07.14c.03.07.08.14.11.21.04.09.05.2.08.29l.15.58c.02.08.04.15.05.23,0,.08,0,.16-.05.23-.08.12-.23.17-.37.2-.08.02-.17.04-.25,0-.06-.03-.1-.09-.13-.15-.16-.26-.23-.55-.31-.84-.04-.15-.08-.31-.06-.47,0-.09.03-.18.08-.25.02-.04.05-.08.09-.11.03-.03.07-.04.09-.09.04-.08.07-.17.14-.23.06-.05.16-.05.23-.01.07.04.13.11.15.18,0,.02-.04.05-.04.07,0,0,0,0,0,0Z"/>
                <path class="cls-61" d="m25.03,69.7c-.04-.1-.1-.2-.17-.29-.09-.11-.2-.21-.3-.31-.14-.13-.26-.27-.39-.41,0,0-.02-.02-.02-.03h-.81c-.02.06-.04.12-.05.19,0,.12.03.23.11.32.09.09.22.14.33.21.14.09.24.21.32.35.07.13.2.27.33.35.09.05.19.09.29.07.1-.02.19-.1.26-.17.04-.04.08-.08.1-.13.03-.06.02-.09,0-.15Z"/>
                <path class="cls-42" d="m25.38,63.82c.05.57.02,1.14,0,1.71-.01.26.09.92-.37.88-.23-.02-.66-.34-.78-.8-.06-.25-.11-.61-.16-.86-.12-.52-.91-2.12.11-2.63.15-.08.57-.53.72-.44.44.26.44,1.63.49,2.15Z"/>
                <path class="cls-42" d="m25.33,66.16c-.1.22-.23.37-.37.63-.27.49-.53.89-.69,1.44-.03.12-.07.25-.1.37-.04.15-.1.31-.25.36-.08.03-.17.01-.25-.02-.12-.05-.22-.14-.29-.24-.08-.13-.02-.23.03-.36.15-.39.07-.84.14-1.25.03-.21.11-.41.18-.61.14-.39.35-.7.65-1,.07-.07.16-.14.27-.13l.69.81Z"/>
                <path class="cls-27" d="m22.19,62.8c.03-.4.17-.81.46-1.1v.35c0-.08.03-.16.06-.23.01-.04.03-.06.04-.08.06-.08.13-.03.26,0,.16.04.32.03.48.05.5.07.54.18.88-.09.06.42-.02.81-.02.9.01.48-.36.52-.38.77-.04.58-.11,1.74-.19,2.32-.03.23-.15.45-.25.65-.12.23-.24.35-.46.33-.1-.01-.27-.12-.33-.21-.04-.05-.04-.16-.06-.22-.06-.18-.11-.37-.15-.56,0-.04-.02-.08-.02-.12h0s0,0,0-.01c-.1-.5-.16-1.02-.23-1.52-.06-.4-.12-.81-.09-1.21Z"/>
                <g id="people">
                  <g>
                    <path class="cls-56" d="m24.38,58.5c-.34-.61-.25-1.26.03-1.34.49-.14.66.22,1.05,1.25,0,.02.02.05.03.07.1.25.2.5.27.76.04.14.08.29.1.44,0,.03,0,.07.01.1,0,.04,0,.07-.02.11-.02.09-.04.18-.08.26-.05.1-.14.19-.25.22-.13.03-.26-.03-.35-.13-.09-.09-.14-.22-.19-.34-.05-.13-.1-.27-.14-.41-.03-.09-.06-.19-.09-.28-.02-.07-.07-.15-.11-.22-.09-.17-.18-.33-.27-.49Z"/>
                    <path class="cls-88" d="m24.38,58.5c-.34-.61-.25-1.26.03-1.34.49-.14.66.22,1.05,1.25,0,.02.02.05.03.07.1.25.2.5.27.76.04.14.08.29.1.44,0,.03,0,.07.01.1,0,.04,0,.07-.02.11-.02.09-.04.18-.08.26-.05.1-.14.19-.25.22-.13.03-.26-.03-.35-.13-.09-.09-.14-.22-.19-.34-.05-.13-.1-.27-.14-.41-.03-.09-.06-.19-.09-.28-.02-.07-.07-.15-.11-.22-.09-.17-.18-.33-.27-.49Z"/>
                    <path class="cls-6" d="m21.45,55.62c-.04.29,0,.56-.01.85,0,.31-.04.61-.1.92-.06.27-.14.54-.17.81-.03.27,0,.57.15.8.04.06.09.11.15.15.08.05.18.05.27.03.29-.05.52-.28.63-.55.11-.27.11-.57.08-.86s-.11-.57-.15-.86c-.05-.35-.01-.68.01-1.03,0-.11,0-.18.07-.27.09-.09.22-.16.34-.18.12-.02.24,0,.35-.05.15-.06.24-.23.22-.39-.02-.11-.09-.21-.17-.29-.17-.18-.39-.34-.64-.36-.25-.02-.5.12-.67.31s-.26.44-.32.69c-.02.09-.04.18-.05.28Z"/>
                    <g>
                      <path class="cls-7" d="m22.65,57.17c.24-.11.32-.17.57-.22.04,0,.18.04.22.03.3-.06.62-.05.9.07,0,0,0,0,0,0v1.85h-1.77l.08-1.74Z"/>
                      <path class="cls-60" d="m21.79,58.04s0-.07.01-.12c.12-.38.54-.57.85-.76-.02.01.05.24.06.26.03.08.07.16.12.24.21.31.57.4.91.26.44-.19.21-.52.38-.81.03-.06.09-.08.16-.09.12,0,.23.02.3.12.05.08.07.17.11.25.05.13.11.27.18.39.09.18.19.36.27.56.07.19.14.42.13.63,0,.24-.29,1.17-.29,1.76,0,.4.2.81.13,1.21,0,.04-.01.07-.02.11-.05.17-.18.31-.32.42-.14.11-.31.18-.47.24-.34.13-.69.23-1.04.31-.31.07-.8.12-1.03-.16-.08-.1-.11-.22-.11-.35,0-.13.03-.25.06-.37.09-.34.24-.66.33-1,.11-.41.2-.83.09-1.25-.05-.18-.12-.34-.2-.51-.11-.26-.23-.51-.34-.77-.06-.12-.11-.25-.17-.38-.03-.08-.07-.14-.08-.2Z"/>
                    </g>
                    <g>
                      <path class="cls-7" d="m22.75,57.25c-.02.65,1.12.66,1.1.05-.02-.86-.07-.95-.45-1.09-.1-.04-.21-.06-.32-.07-.4,0-.24.21-.23.36.04.45-.1.51-.11.74Z"/>
                      <path class="cls-19" d="m23.4,56.21c-.1-.04-.21-.06-.32-.07-.4,0-.24.21-.23.36.01.12,0,.22,0,.29.24.33.6.55.98.63.01-.04.02-.08.01-.12-.02-.86-.07-.95-.45-1.09Z"/>
                      <path class="cls-56" d="m23.27,56.92s-.07-.06-.1-.09c-.11-.1-.24-.22-.31-.36-.25-.42-.26-.99.09-1.35.25-.26.65-.37,1-.27.09.03.18.07.27.11.08.04.15.08.21.14.04.04.07.09.09.14.03.05.06.11.07.17.07.27-.11.55-.01.82.02.06.06.11.08.17.02.06.03.13,0,.18-.03.05-.07.08-.09.13-.02.08-.04.16-.06.23-.02.08-.05.17-.09.25-.1.19-.26.2-.44.13-.25-.1-.49-.24-.69-.41Z"/>
                      <path class="cls-102" d="m22.43,55.64c.02-.53.18-.62.38-.79.2-.16.46-.24.71-.23.26,0,.51.1.73.23,0,0,.02.01.03.02.11.07.21.16.27.28.03.07.06.14.07.21.02.14-.09.19-.21.23-.16.05-.39-.02-.55-.04-.08,0-.15-.02-.23,0s-.14.07-.16.15c-.02.08.02.16.04.23.03.15-.04.32-.17.41-.08.05-.13.05-.21.02-.07-.03-.15-.09-.23-.04-.08.05-.05.15-.03.22,0,.01.03.11,0,.11-.04,0-.44-.38-.42-1.01Z"/>
                      <path class="cls-6" d="m23.47,55.7c-.02.08.02.16.04.23.03.15-.04.32-.17.41-.08.05-.13.05-.21.02-.07-.03-.15-.09-.23-.04-.08.05-.05.15-.03.22,0,.01.03.11,0,.11-.04,0-.44-.38-.42-1.01.01-.31.07-.47.16-.58,0,0,.24.09.46.25.2.14.42.4.42.4Z"/>
                      <path class="cls-56" d="m22.94,56.12c-.18-.01-.23.21-.1.39.04.05.1.1.15.14.32.28.41-.02.3-.12-.24-.22-.12-.39-.35-.41Z"/>
                      <path class="cls-7" d="m23.06,56.53s-.23-.14-.09-.22c.04-.02.08.01.09.05,0,.02,0,.04,0,.06,0,.01,0,.02.01.04.02.03.08.06.07.1-.01.04-.07-.02-.08-.03Z"/>
                    </g>
                    <path class="cls-56" d="m21.22,58.18c.37-.59.98-.83,1.19-.62.35.36.17.75-.54,1.6-.17.21-.75.92-1.16,1.17-.26.17-.6.06-.63-.05-.1-.37.41-.94,1.14-2.1Z"/>
                  </g>
                </g>
                <path class="cls-27" d="m23.77,65.5c-.04.58-.28,1-.38,1.58-.1.6-.14,1.19-.11,1.8,0,.13,0,.26.02.38,0,.1.03.24,0,.34-.04.1-.14.16-.24.19-.08.02-.15.04-.23.03-.07,0-.15-.03-.2-.08-.05-.05-.07-.13-.08-.19-.03-.14-.02-.28-.03-.42-.01-.12-.05-.24-.07-.36-.06-.27-.16-.53-.2-.8-.03-.23-.03-.46-.03-.69,0-.45.16-1.08.35-1.49.04-.1.06.02.16,0l1.05-.28Z"/>
              </g>
              <path class="cls-56" d="m22.49,61.64c.01-.16-1.86-2.38-2.32-1.72-.07.1-.12.3-.06.42.07.15,1.31.9,1.88,1.42.06.06.08.04.16.03.13-.02.32-.04.33-.16Z"/>
              <path class="cls-11" d="m21.22,58.18c.37-.59.98-.83,1.19-.62.35.36.17.75-.54,1.6-.17.21-.75.92-1.16,1.17-.26.17-.6.06-.63-.05-.1-.37.41-.94,1.14-2.1Z"/>
              <path class="cls-56" d="m22.56,62.73s-.02.05-.04.06c-.03.01-.07-.03-.09-.05-.03-.04-.04-.1-.04-.15,0-.07,0-.13,0-.2,0-.02,0-.04-.02-.05s-.03-.02-.05-.01c-.03.02-.03.08-.04.11,0,.05-.02.09-.02.14,0,.09,0,.19.02.28.01.05.03.1.02.15,0,.06-.03.1-.07.14-.02.02-.03.02-.06,0-.02-.02-.05-.03-.07-.05-.09-.08-.15-.18-.19-.29-.05-.14-.07-.3-.06-.45.01-.14.04-.28.08-.42.02-.07.04-.14.06-.21.01-.05.02-.14.06-.18.07-.09.18-.11.28-.07.02,0,.04.02.06.03.07.05.1.12.11.2,0,.04.02.23.03.29.04.23.06.47.03.7,0,.01,0,.03,0,.04Z"/>
              <path class="cls-56" d="m27.43,60.27c.06-.01.11-.04.16-.05.07-.02.15-.02.22-.03.22,0,.43-.01.65-.02.04,0,.08,0,.09.04,0,.01,0,.03,0,.05-.02.04-.06.07-.11.09-.05.01-.09.01-.14.02-.08,0-.16.02-.24.05,0,0-.01,0-.02.01,0,.01,0,.03.01.04.04.04.09.08.15.11.03.02.06.03.09.04.03.01.05.03.08.04.15.05.3.07.44.14.05.02.1.09.02.12-.07.02-.14,0-.21-.02-.08-.02-.17-.04-.25-.05-.02,0-.04,0-.06,0,0,0-.02-.01-.03,0-.05.02.07.09.08.1l.17.12c.06.05.13.1.14.17,0,.02,0,.05-.02.06-.02,0-.05,0-.06,0-.04,0-.07-.04-.11-.06-.08-.06-.16-.12-.25-.17-.04-.02-.09-.05-.13-.07-.06-.02-.04.04,0,.06.06.06.12.11.17.18.02.03.05.07.05.1,0,.04-.04.06-.07.04-.03-.01-.06-.03-.08-.06-.06-.06-.12-.11-.18-.17-.03-.02-.05-.06-.08-.08-.02-.01-.05,0-.04.02,0,.04.03.08.05.12.01.03.02.06.02.09,0,.01,0,.03-.02.04-.01,0-.02,0-.03,0-.05-.03-.1-.07-.13-.13-.03-.06-.08-.11-.13-.16-.09-.1-.19-.2-.31-.25-.07-.04-.15-.06-.23-.1-.02,0-.03-.02-.04-.04,0-.02,0-.04,0-.07.02-.07.05-.14.1-.2.03-.04.1-.13.16-.11.05.02.09.03.14.01Z"/>
              <path class="cls-11" d="m22.49,61.64c.01-.16-1.86-2.38-2.32-1.72-.07.1-.12.3-.06.42.07.15,1.31.9,1.88,1.42.06.06.08.04.16.03.13-.02.32-.04.33-.16Z"/>
              <path class="cls-88" d="m25.19,59.91c-.02.12,0,.33.11.41.1.08,1.13.21,1.86.38.08-.15.13-.31.13-.46-.8-.36-2-.84-2.1-.33Z"/>
            </g>
            <g id="man-3" data-name="man">
              <g class="cls-30">
                <g class="cls-30">
                  <g class="cls-57">
                    <g class="cls-30">
                      <path class="cls-111" d="m33.69,56.29l-.51-.3c.05-.03.1-.03.14-.01l.51.3s-.09-.02-.14.01h0Z"/>
                    </g>
                  </g>
                </g>
              </g>
              <g id="man-4" data-name="man">
                <g id="man-5" data-name="man">
                  <g>
                    <path class="cls-61" d="m34.33,71.41s-.05-.07-.13-.08c-.1,0-.2,0-.31,0-.14,0-.28,0-.41-.01,0-.11,0-.23.01-.34-.15.04-.23,0-.37-.05-.17-.06-.34-.1-.51-.15-.07-.02-.15-.04-.22-.02-.18.04-.28.35-.24.51.02.11.1.21.2.28.14.1.33.18.51.2.18.02.35.07.51.18.2.14.34.3.59.3.25,0,.46-.15.46-.42,0-.09-.02-.19-.04-.28-.01-.06-.02-.1-.03-.14Z"/>
                    <path class="cls-17" d="m33.32,71.91s0-.04,0-.06c.01-.21-.07-.38-.14-.57-.03-.07-.06-.15-.12-.19-.14-.11-.35-.01-.44.14-.04.07-.06.15-.1.22-.07.14-.21.3-.37.31-.22.01-.47-.07-.7-.08-.09,0-.18,0-.26.02-.19.08-.25.39-.18.56.04.11.14.18.24.23.16.07.36.12.53.1.18-.01.36,0,.53.08.29.14.63.33.92.07.08-.07.12-.18.13-.28.02-.19-.05-.37-.05-.55Z"/>
                  </g>
                </g>
                <path class="cls-91" d="m33.23,67.63l-.1-.44c.04.14.08.29.1.44Z"/>
                <path class="cls-104" d="m34.84,63.5c-.05-.26.02-.75-.35-.79-.34-.04-.52.38-.61.48-.13.15-.67-.1-.68-.16-.65-.46-.5,1.48-.29,2.24.11.41.1.85.18,1.27.08.44.19.88.32,1.31.06.37.09.76.1,1.14.02.65,0,1.31.03,1.97,0,.14.01.28.06.41.02.07.06.15.11.21.05.05.12.08.19.08.06,0,.13,0,.19-.01.06-.01.13-.03.18-.06.11-.07.15-.2.18-.32.04-.15.07-.3.11-.45.08-.39.14-.79.17-1.19.03-.39.04-.78.03-1.18,0-.2-.02-.4-.03-.6,0-.1-.02-.2-.02-.31,0-.05,0-.1-.01-.16,0-.02-.03-.14-.02-.15,0,0,0,0,0,0,0-.15.01-.31.03-.46.05-.32.1-.63.16-.95.05-.28.09-.55.11-.83.03-.5-.03-1.01-.12-1.5Z"/>
                <path class="cls-75" d="m32.96,63.5c-.06-.03-.37-.19-.37-.27,0-.06-.15-.1-.19-.1-.07,0-.14.05-.2.09-.14.1-.24.26-.31.42-.09.23-.11.48-.12.72-.04.73-.02,1.47.06,2.2.04.37.09.73.16,1.1.03.18.07.36.11.54.04.17.08.23.22.32.31.2.87.17,1.1-.18.24-.38.14-.97.22-1.4.11-.62.52-1.07.71-1.66.14-.43.12-.84.05-1.28-.03-.21-.1-.71-.31-.83-.06-.03-.44-.12-.75.19-.18.18-.16.26-.38.15Z"/>
                <path class="cls-91" d="m35.08,61.79c.01-.11.03-.22.05-.33.09-.52.25-1.03.31-1.55.05-.41.09-.92-.24-1.23-.05-.05-.11-.09-.18-.13-.63-.35-1.23.08-1.82.29-.39.14-.76.32-1.1.54-.12.08-.24.13-.33.25-.09.13-.13.26-.14.42,0,.17.02.35.05.52.17,1,.24,2.03.12,3.04-.04.32-.05.65-.07.98,0,.12-.08.32-.02.43.06.12.3.22.42.27.32.16.67.26,1.03.27.55.02,1.11-.15,1.56-.47.19-.14.34-.29.32-.53-.02-.3,0-.6-.01-.9-.01-.62-.03-1.24.04-1.86Z"/>
                <path class="cls-99" d="m33.09,59.93c-.1-.48-.56-.63-1.01-.53-.11.07-.23.12-.3.24-.09.13-.13.26-.14.42,0,.17.02.35.05.52.17,1,.24,2.03.12,3.04-.04.32-.05.65-.07.98,0,.12-.08.32-.02.43.06.12.3.22.42.27.02.01.04.02.06.03,0-.14.02-.29.05-.43.26-1.71,1.25-3.22.84-4.96Z"/>
                <path class="cls-62" d="m32.91,58.96c.11-.05.22-.09.3-.12.41-.15.82-.4,1.25-.42.21.31.04.66-.26.83-.38.19-.88.17-1.24-.09-.07-.05-.13-.14-.05-.2Z"/>
                <path class="cls-75" d="m32.12,68.49c.03.32.05.64.07.95.02.25.03.5.05.76.01.19.02.39.03.58.04,1.06-.08,1.3.43,1.44.11.03.23.04.34.01.33-.08.38-.37.42-.72.02-.2.03-.44.04-.64,0-.17,0-.34.01-.51,0-.23,0-.46,0-.69,0-.3,0-.61,0-.91,0-.39.04-.79.04-1.18,0-.06-.04-.12-.08-.15-.06-.04-1.23.39-1.35.52,0,0-.05.15-.01.54Z"/>
                <path class="cls-56" d="m33.05,58.32c-.02-.16-.14-.12-.08-.26.05-.12.13-.23.23-.31s.23-.13.36-.12c.04,0,.07.03.12.03.12,0,.25-.02.37,0,.12.02.23.03.23.16,0,.18,0,.36.05.54.03.1.08.19.09.29.02.2-.13.38-.31.47-.22.11-.47.1-.7.06-.12-.02-.28-.04-.35-.15-.05-.08-.03-.19-.02-.29.02-.14.03-.28.01-.42Z"/>
                <path class="cls-56" d="m32.53,56.33c-.07.09-.13.19-.15.31-.04.26.07.54,0,.8-.06.25.05.83.55.98.25.07.75-.01.91-.09.22-.1.36-.31.49-.51,1.05-1.66-1.1-2.34-1.81-1.48Z"/>
              </g>
              <path class="cls-102" d="m34.82,57.07s-.01.1-.02.15c0,.04-.02.07-.03.11,0,.03-.02.06-.03.09-.05.11-.12.21-.19.31-.1.14-.2.28-.35.36-.07.03-.14.05-.21.06-.2.04-.49.05-.64-.11-.07-.07-.09-.18-.11-.27-.01-.1-.02-.18-.04-.27,0-.02-.01-.05-.02-.07-.01-.04-.03-.07-.04-.11-.03-.05-.08-.1-.14-.12-.1-.03-.23.03-.32-.03-.05-.03-.07-.09-.09-.14-.02-.05-.04-.11-.06-.16-.03-.07-.06-.15-.11-.2-.02-.03-.05-.06-.07-.09-.03-.05-.06-.09-.06-.14-.01-.24.19-.48.36-.64.09-.08.19-.16.3-.21.1-.04.21-.06.31-.08.32-.05.65-.04.93.12.07.04.14.09.18.17,0,.02.01.04.03.05.02.02.04.03.06.04.08.04.14.08.19.13.26.26.22.71.17,1.06Z"/>
              <path class="cls-56" d="m33.1,57.08c.2-.02.26.23.12.43-.04.06-.11.11-.16.15-.35.31-.45-.02-.34-.12.26-.25.13-.43.38-.46Z"/>
              <path class="cls-7" d="m33.05,57.46s.25-.16.09-.25c-.04-.02-.09.01-.1.06,0,.02,0,.05,0,.07,0,.01,0,.03-.01.04-.02.03-.09.07-.07.11.01.04.08-.02.09-.04Z"/>
              <path class="cls-7" d="m26.67,62.65c-.05-.06-.04-.18.03-.15-.02-.04-.01-.09.02-.11.04-.03.1,0,.15.02.07.02.14.02.21.02.15,0,.31-.08.29-.1-.04-.05-.11-.09-.17-.08-.04,0-.07.03-.11.03-.03,0-.06,0-.09-.02-.01,0-.02,0-.03-.02-.01-.02,0-.05.01-.06.02-.03.06-.04.09-.06.08-.04.16-.08.25-.07.03,0,.06.01.09.02.03,0,.06.01.09.02.04.01.27.1.35.16.4.11.41.36.22.55-.09.09-.37.19-.53.23,0,0,0,0-.01,0,0,0-.02,0-.03,0h0s0,0,0,0c-.23.05-.7.11-.73-.09.01,0,.02-.02.04-.03-.2-.15-.04-.17-.13-.28Z"/>
              <path class="cls-31" d="m27.81,62.55c-.01.09,0,.26.08.32.07.05.22.04.3.05.41.06,2.83.13,3.22-.17.2-.16-.06-.69-.43-.86-.4-.18-2.32.17-2.74.26-.09.02-.18.04-.26.09-.09.06-.15.18-.16.31Z"/>
              <path class="cls-31" d="m31.48,59.97c.11-.23.27-.46.52-.48.11-.01.21.02.31.06.26.11.49.27.62.52.02.05.05.1.05.15.03.2-.09.34-.19.49-.12.18-.23.37-.34.57-.22.38-.43.77-.69,1.12-.16.21-.35.41-.61.44-.17.02-.35-.05-.47-.18-.28-.32-.17-.59-.15-.64.64-1.54.95-2.09.94-2.05Z"/>
            </g>
            <g>
              <path class="cls-72" d="m22.68,50.66l2.27,1.31c.29.17.52.57.52.9v.59c.09.34.42,1.52.44,1.63l-.72-.94c-.1-.13-.21-.23-.33-.3l-2.18-1.26c-.29-.16-.52-.57-.52-.9v-.74c0-.33.23-.46.52-.3Z"/>
              <path class="cls-72" d="m37.62,54.53l-2.27-1.31c-.29-.17-.52-.03-.52.3v.59c-.09.23-.42,1.04-.44,1.12l.72-.1c.1-.01.21.01.33.08l2.18,1.26c.29.17.52.03.52-.3v-.74c0-.33-.23-.73-.52-.9Z"/>
            </g>
          </g>
        </g>
      </g>
    </g>
  </g>
</svg>