<?xml version="1.0" encoding="UTF-8"?>
<svg xmlns="http://www.w3.org/2000/svg" xmlns:xlink="http://www.w3.org/1999/xlink" viewBox="0 0 82.68 83.58">
  <defs>
    <style>
      .cls-1 {
        opacity: .8;
      }

      .cls-1, .cls-2, .cls-3 {
        mix-blend-mode: multiply;
      }

      .cls-1, .cls-4, .cls-3 {
        fill: #bcc5df;
      }

      .cls-5 {
        fill: #f3a984;
      }

      .cls-6 {
        clip-path: url(#clippath-20);
      }

      .cls-7 {
        clip-path: url(#clippath-11);
      }

      .cls-8 {
        fill: #13b7fd;
      }

      .cls-9 {
        fill: #f4f4f4;
      }

      .cls-10 {
        fill: #eff6fe;
      }

      .cls-11 {
        fill: #fff;
      }

      .cls-12 {
        fill: #9aa7d2;
      }

      .cls-13 {
        fill: #1c232a;
      }

      .cls-14 {
        fill: #ee9c76;
      }

      .cls-15 {
        fill: #404b63;
      }

      .cls-16 {
        fill: #283032;
      }

      .cls-17 {
        fill: #e9ecf5;
      }

      .cls-18 {
        clip-path: url(#clippath-2);
      }

      .cls-19 {
        fill: #ffde23;
      }

      .cls-20 {
        fill: #f75061;
      }

      .cls-21 {
        isolation: isolate;
      }

      .cls-22 {
        fill: #8763cd;
      }

      .cls-23 {
        fill: #a6afcd;
      }

      .cls-24 {
        fill: #ffbf99;
      }

      .cls-25 {
        fill: #372b3d;
      }

      .cls-26 {
        clip-path: url(#clippath-25);
      }

      .cls-27 {
        opacity: .2;
      }

      .cls-28 {
        fill: #7b839f;
      }

      .cls-29 {
        clip-path: url(#clippath-6);
      }

      .cls-30 {
        fill: #bf3347;
      }

      .cls-31 {
        clip-path: url(#clippath-26);
      }

      .cls-32 {
        fill: #84888d;
      }

      .cls-33 {
        fill: #ffb700;
      }

      .cls-34 {
        fill: #b98c74;
      }

      .cls-35 {
        fill: #47e0ff;
      }

      .cls-35, .cls-36, .cls-37 {
        mix-blend-mode: screen;
      }

      .cls-35, .cls-38, .cls-37 {
        opacity: .3;
      }

      .cls-39 {
        clip-path: url(#clippath-7);
      }

      .cls-40 {
        clip-path: url(#clippath-21);
      }

      .cls-41 {
        fill: #e5354f;
      }

      .cls-42 {
        fill: #ecf5fe;
      }

      .cls-43 {
        clip-path: url(#clippath-1);
      }

      .cls-44 {
        fill: #962838;
      }

      .cls-45 {
        clip-path: url(#clippath-4);
      }

      .cls-46 {
        fill: #ffd438;
      }

      .cls-47 {
        fill: #ffbfa2;
      }

      .cls-48 {
        fill: #c99c83;
      }

      .cls-49 {
        opacity: .4;
      }

      .cls-50 {
        clip-path: url(#clippath-12);
      }

      .cls-51 {
        fill: #1499fc;
      }

      .cls-52 {
        fill: #c6d5fa;
      }

      .cls-53 {
        fill: #0f1317;
      }

      .cls-54 {
        fill: #cddcfb;
      }

      .cls-55, .cls-38 {
        fill: #15d9fd;
      }

      .cls-56 {
        clip-path: url(#clippath-24);
      }

      .cls-57 {
        clip-path: url(#clippath-22);
      }

      .cls-2, .cls-3 {
        opacity: .5;
      }

      .cls-58 {
        clip-path: url(#clippath-9);
      }

      .cls-59 {
        fill: #dde3f4;
      }

      .cls-60 {
        clip-path: url(#clippath);
      }

      .cls-61 {
        fill: #546282;
      }

      .cls-62 {
        fill: #0d1315;
      }

      .cls-63 {
        fill: #f8b495;
      }

      .cls-64 {
        fill: none;
      }

      .cls-65 {
        clip-path: url(#clippath-19);
      }

      .cls-66 {
        fill: #251b29;
      }

      .cls-67 {
        clip-path: url(#clippath-3);
      }

      .cls-68 {
        fill: #3c6ff7;
      }

      .cls-69 {
        fill: #ff445f;
      }

      .cls-70 {
        clip-path: url(#clippath-8);
      }

      .cls-71 {
        fill: #1582d6;
      }

      .cls-72 {
        fill: #ffc400;
      }

      .cls-73 {
        fill: #912736;
      }

      .cls-74 {
        fill: #6e4cb3;
      }

      .cls-75 {
        fill: #f1f1f1;
      }

      .cls-76 {
        clip-path: url(#clippath-14);
      }

      .cls-77 {
        clip-path: url(#clippath-17);
      }

      .cls-78 {
        fill: #c5243c;
      }

      .cls-79 {
        clip-path: url(#clippath-5);
      }

      .cls-80 {
        fill: #5e3e9e;
      }

      .cls-81 {
        fill: #d6af75;
      }

      .cls-82 {
        clip-path: url(#clippath-10);
      }

      .cls-83 {
        fill: #d4dbef;
      }

      .cls-84 {
        clip-path: url(#clippath-23);
      }

      .cls-85 {
        fill: #eef1f8;
      }

      .cls-86 {
        fill: #10191b;
      }

      .cls-87 {
        fill: #f5a783;
      }

      .cls-88 {
        fill: #d4e2fc;
      }
    </style>
    <clipPath id="clippath">
      <path class="cls-86" d="m47.29,58.01v1.26c0,1.34-.89,2.67-2.64,3.69-3.53,2.05-9.27,2.05-12.83,0-1.79-1.03-2.68-2.39-2.68-3.74v-1.26c0,1.35.89,2.71,2.68,3.74,3.55,2.05,9.29,2.05,12.83,0,1.75-1.02,2.63-2.35,2.63-3.69Z"/>
    </clipPath>
    <clipPath id="clippath-1">
      <path class="cls-64" d="m47.29,57.26v1.26c0,1.34-.89,2.67-2.64,3.69-3.53,2.05-9.27,2.05-12.83,0-1.79-1.03-2.68-2.39-2.68-3.74v-1.26c0,1.35.89,2.71,2.68,3.74,3.55,2.05,9.29,2.05,12.83,0,1.75-1.02,2.63-2.35,2.63-3.69Z"/>
    </clipPath>
    <clipPath id="clippath-2">
      <path class="cls-52" d="m57.65,1.78l1.48.86c-.31-.18-.74-.15-1.22.12l-1.48-.86c.48-.27.91-.3,1.22-.12Z"/>
    </clipPath>
    <clipPath id="clippath-3">
      <path class="cls-52" d="m15.89,60.73l-1.48-.86c-.31-.18-.5-.56-.5-1.1l1.48.86c0,.54.19.92.5,1.1Z"/>
    </clipPath>
    <clipPath id="clippath-4">
      <path class="cls-52" d="m15.31,29.33l-1.48-.86c0-1.09.76-2.41,1.7-2.95l1.48.86c-.95.55-1.71,1.87-1.7,2.95Z"/>
    </clipPath>
    <clipPath id="clippath-5">
      <path class="cls-64" d="m48.86,64.52v-2.86c0,.69.15,1.39.46,2.09v2.86c-.31-.7-.46-1.4-.46-2.09Z"/>
    </clipPath>
    <clipPath id="clippath-6">
      <path class="cls-64" d="m55.35,68.72v2.86c-.87-.34-1.65-.7-2.33-1.1-1.82-1.05-3.03-2.32-3.71-3.87v-2.86c.68,1.55,1.9,2.82,3.71,3.87.69.4,1.46.76,2.32,1.1Z"/>
    </clipPath>
    <clipPath id="clippath-7">
      <path class="cls-64" d="m77.38,64.32v2.86c-2.48,4.44-10.7,6.87-18.38,5.43-1.35-.25-2.48-.57-3.66-1.03v-2.86c1.19.46,2.32.78,3.67,1.03,7.68,1.44,15.9-.99,18.37-5.43Z"/>
    </clipPath>
    <clipPath id="clippath-8">
      <path class="cls-64" d="m82.39,57.56v2.86c-.01.88-.26,1.78-.76,2.68v-2.86c.51-.9.76-1.8.76-2.68Z"/>
    </clipPath>
    <clipPath id="clippath-9">
      <path class="cls-78" d="m61.01,25.75l-1.41-.55c-1.45-.56-3.26-.16-5.1,1.33l1.41.55c1.84-1.49,3.66-1.89,5.1-1.33Z"/>
    </clipPath>
    <clipPath id="clippath-10">
      <path class="cls-78" d="m52.08,44.59l1.41.55c-1.43-.55-2.49-2.04-2.86-4.34-.74-4.62,1.62-10.77,5.28-13.73l-1.41-.55c-3.66,2.96-6.02,9.1-5.28,13.73.37,2.3,1.44,3.78,2.86,4.34Z"/>
    </clipPath>
    <clipPath id="clippath-11">
      <path class="cls-10" d="m38.9,68.17l-.09-.05s-.06-.06-.06-.13l.09.05c0,.06.02.11.06.13Z"/>
    </clipPath>
    <clipPath id="clippath-12">
      <path class="cls-10" d="m38.84,66.18l-.09-.05c0-.13.09-.28.2-.34l.09.05c-.11.06-.2.22-.2.34Z"/>
    </clipPath>
    <clipPath id="clippath-14">
      <path class="cls-25" d="m56.15,66.13l-.29.17s.05-.01.08,0l.29-.17s-.06-.02-.08,0Z"/>
    </clipPath>
    <clipPath id="clippath-17">
      <path class="cls-25" d="m59.75,68.65l.29-.17c0-.07-.05-.16-.11-.19l-.29.17c.06.04.11.12.11.19Z"/>
    </clipPath>
    <clipPath id="clippath-19">
      <path class="cls-66" d="m17.96,29.31l1.53.89c.7.41,1.14,1.28,1.14,2.52,0,2.49-1.74,5.52-3.91,6.77l-1.53-.89c2.17-1.25,3.92-4.28,3.91-6.77,0-1.24-.44-2.11-1.14-2.52Z"/>
    </clipPath>
    <clipPath id="clippath-20">
      <path class="cls-66" d="m13.94,39.76l-1.53-.89c.71.41,1.7.36,2.79-.27l1.53.89c-1.09.63-2.08.69-2.79.27Z"/>
    </clipPath>
    <clipPath id="clippath-21">
      <path class="cls-66" d="m18.97,27.58l1.53.89c-.97-.56-2.32-.48-3.8.37l-1.53-.89c1.48-.86,2.83-.94,3.8-.37Z"/>
    </clipPath>
    <clipPath id="clippath-22">
      <path class="cls-66" d="m12.93,41.49l-1.53-.89c-.96-.56-1.55-1.74-1.56-3.43,0-3.39,2.37-7.52,5.32-9.22l1.53.89c-2.95,1.7-5.33,5.83-5.32,9.22,0,1.68.6,2.87,1.56,3.43Z"/>
    </clipPath>
    <clipPath id="clippath-23">
      <path class="cls-17" d="m8.02,44l2.8-4s.14.1.4.28l-2.8,4c-.26-.18-.4-.28-.4-.28Z"/>
    </clipPath>
    <clipPath id="clippath-24">
      <path class="cls-17" d="m12.44,41.13l-2.8,4s-.03-.02-.11-.08c-.22-.16-.72-.5-1.1-.77l2.8-4c.39.27.88.62,1.1.77.07.05.11.08.11.08Z"/>
    </clipPath>
    <clipPath id="clippath-25">
      <path class="cls-41" d="m3.12,49.88l5.29-7.56s.24.17.66.46l-5.29,7.56c-.42-.3-.66-.46-.66-.46Z"/>
    </clipPath>
    <clipPath id="clippath-26">
      <path class="cls-41" d="m11.05,44.17l-5.29,7.56s-.06-.04-.18-.12c-.37-.26-1.17-.82-1.81-1.26l5.29-7.56c.63.44,1.44,1.01,1.81,1.26.12.08.18.12.18.12Z"/>
    </clipPath>
  </defs>
  <g class="cls-21">
    <g id="Layer_2" data-name="Layer 2">
      <g id="Layer_1-2" data-name="Layer 1">
        <g>
          <g>
            <g class="cls-21">
              <polygon class="cls-4" points=".88 47.81 .07 47.34 0 20.29 .82 20.76 .88 47.81"/>
              <polygon class="cls-11" points=".82 20.76 0 20.29 35.14 0 35.95 .47 .82 20.76"/>
              <polygon class="cls-85" points="35.95 .47 36.02 27.53 .88 47.81 .82 20.76 35.95 .47"/>
            </g>
            <g>
              <g class="cls-27">
                <path class="cls-23" d="m34.65,3.01h0L1.84,21.95h0l-.03.02v24.24l32.92-19.01V2.96l-.08.05Zm-.03,20.68l-2.87,1.66v-3.32l2.87-1.66v3.32ZM1.92,22.03l2.87-1.66v3.32l-2.87,1.66v-3.32ZM34.62,6.47l-2.87,1.66v-3.32l2.87-1.66v3.32Zm-14.91,12.18v3.32l-2.87,1.66v-3.32l2.87-1.66Zm-2.87,8.42v-3.32l2.87-1.66v3.32l-2.87,1.66Zm-.11-3.25v3.32l-2.87,1.66v-3.32l2.87-1.66Zm3.09,1.53v-3.32l2.87-1.66v3.32l-2.87,1.66Zm0-3.44v-3.32l2.87-1.66v3.32l-2.87,1.66Zm-3.09-1.53v3.32l-2.87,1.66v-3.32l2.87-1.66Zm-2.98,5.17v3.32l-2.87,1.66v-3.32l2.87-1.66Zm0,3.44v3.32l-2.87,1.66v-3.32l2.87-1.66Zm.11-.06l2.87-1.66v3.32l-2.87,1.66v-3.32Zm2.98-1.72l2.87-1.66v3.32l-2.87,1.66v-3.32Zm2.98-1.72l2.87-1.66v3.32l-2.87,1.66v-3.32Zm2.98-1.85v-3.32l2.87-1.66v3.32l-2.87,1.66Zm0-3.44v-3.32l2.87-1.66v3.32l-2.87,1.66Zm-9.06,1.91v3.32l-2.87,1.66v-3.32l2.87-1.66Zm-2.98,5.17v3.32l-2.87,1.66v-3.32l2.87-1.66Zm0,3.44v3.32l-2.87,1.66v-3.32l2.87-1.66Zm12.04-3.64v-3.32l2.87-1.66v3.32l-2.87,1.66Zm2.98-5.17v-3.32l2.87-1.66v3.32l-2.87,1.66Zm0-3.44v-3.32l2.87-1.66v3.32l-2.87,1.66Zm-2.98-1.72v-3.32l2.87-1.66v3.32l-2.87,1.66Zm-.11.06l-2.87,1.66v-3.32l2.87-1.66v3.32Zm-2.98,1.72l-2.87,1.66v-3.32l2.87-1.66v3.32Zm-2.98,1.72l-2.87,1.66v-3.32l2.87-1.66v3.32Zm-2.98,1.72l-2.87,1.66v-3.32l2.87-1.66v3.32Zm-2.98,1.72l-2.87,1.66v-3.32l2.87-1.66v3.32Zm0,.13v3.32l-2.87,1.66v-3.32l2.87-1.66Zm-2.98,5.17v3.32l-2.87,1.66v-3.32l2.87-1.66Zm0,3.44v3.32l-2.87,1.66v-3.32l2.87-1.66Zm18.01-7.08v-3.32l2.87-1.66v3.32l-2.87,1.66Zm2.98-5.17v-3.32l2.87-1.66v3.32l-2.87,1.66Zm0-3.44v-3.32l2.87-1.66v3.32l-2.87,1.66Zm-2.98-1.72v-3.32l2.87-1.66v3.32l-2.87,1.66Zm0-3.44v-3.32l2.87-1.66v3.32l-2.87,1.66Zm-.11.06l-2.87,1.66v-3.32l2.87-1.66v3.32Zm-2.98,1.72l-2.87,1.66v-3.32l2.87-1.66v3.32Zm-2.98,1.72l-2.87,1.66v-3.32l2.87-1.66v3.32Zm-2.98,1.72l-2.87,1.66v-3.32l2.87-1.66v3.32Zm-2.98,1.72l-2.87,1.66v-3.32l2.87-1.66v3.32Zm-2.98,1.72l-2.87,1.66v-3.32l2.87-1.66v3.32Zm-2.98,1.72l-2.87,1.66v-3.32l2.87-1.66v3.32Zm0,.13v3.32l-2.87,1.66v-3.32l2.87-1.66Zm0,3.44v3.32l-2.87,1.66v-3.32l2.87-1.66Zm-2.98,5.17v3.32l-2.87,1.66v-3.32l2.87-1.66Zm-2.87,5.1l2.87-1.66v3.32l-2.87,1.66v-3.32Zm8.84-1.66v3.32l-2.87,1.66v-3.32l2.87-1.66Zm.11-.06l2.87-1.66v3.32l-2.87,1.66v-3.32Zm2.98-1.72l2.87-1.66v3.32l-2.87,1.66v-3.32Zm2.98-1.72l2.87-1.66v3.32l-2.87,1.66v-3.32Zm2.98-1.72l2.87-1.66v3.32l-2.87,1.66v-3.32Zm2.98-1.72l2.87-1.66v3.32l-2.87,1.66v-3.32Zm2.98-1.72l2.87-1.66v3.32l-2.87,1.66v-3.32Zm2.98-1.85v-3.32l2.87-1.66v3.32l-2.87,1.66Zm2.98-5.17v-3.32l2.87-1.66v3.32l-2.87,1.66Zm0-3.44v-3.32l2.87-1.66v3.32l-2.87,1.66Zm-2.98-1.72v-3.32l2.87-1.66v3.32l-2.87,1.66Zm0-3.44v-3.32l2.87-1.66v3.32l-2.87,1.66ZM1.92,25.48l2.87-1.66v3.32l-2.87,1.66v-3.32Zm0,3.44l2.87-1.66v3.32l-2.87,1.66v-3.32Zm0,10.33l2.87-1.66v3.32l-2.87,1.66v-3.32Zm2.98-1.72l2.87-1.66v3.32l-2.87,1.66v-3.32Zm2.87,1.79v3.32l-2.87,1.66v-3.32l2.87-1.66Zm.11-.06l2.87-1.66v3.32l-2.87,1.66v-3.32Zm2.98-1.72l2.87-1.66v3.32l-2.87,1.66v-3.32Zm2.98-1.72l2.87-1.66v3.32l-2.87,1.66v-3.32Zm2.98-1.72l2.87-1.66v3.32l-2.87,1.66v-3.32Zm2.98-1.72l2.87-1.66v3.32l-2.87,1.66v-3.32Zm2.98-1.72l2.87-1.66v3.32l-2.87,1.66v-3.32Zm2.98-1.72l2.87-1.66v3.32l-2.87,1.66v-3.32Zm2.98-1.72l2.87-1.66v3.32l-2.87,1.66v-3.32Zm0-.13v-3.32l2.87-1.66v3.32l-2.87,1.66Zm5.86-6.83l-2.87,1.66v-3.32l2.87-1.66v3.32Zm0-10.33l-2.87,1.66v-3.32l2.87-1.66v3.32ZM1.92,42.7l2.87-1.66v3.32l-2.87,1.66v-3.32Zm29.83-13.9v-3.32l2.87-1.66v3.32l-2.87,1.66Z"/>
              </g>
              <path class="cls-20" d="m2.39,35.55s-.06,0-.09-.02c-.11-.05-.16-.18-.11-.29.21-.47,2.08-4.64,3.18-5.31.59-.36,1.13.16,1.61.61.49.46.8.72,1.09.54,1.11-.71,2.11-3.24,3.08-5.69,1.04-2.62,2.02-5.1,3.24-5.89.66-.43,1.29.14,1.85.65.57.51.96.83,1.31.61.69-.43,1.26-2.09,1.86-3.84.88-2.58,1.88-5.51,3.77-6.27,1.25-.5,2.34-.29,3.33.64.84.79,1.48,1.96,2.11,3.1,1.16,2.13,1.96,3.38,3.21,2.8.9-.42,1.89-2.68,2.19-3.51.04-.11.17-.17.28-.13.11.04.17.17.13.28-.05.13-1.17,3.18-2.42,3.76-.78.36-1.5.19-2.19-.52-.58-.6-1.07-1.5-1.6-2.46-1.22-2.22-2.47-4.52-4.89-3.55-1.7.69-2.67,3.51-3.52,6-.65,1.91-1.21,3.55-2.04,4.07-.66.41-1.29-.16-1.84-.66-.59-.53-.97-.83-1.32-.6-1.1.72-2.11,3.24-3.07,5.69-1.04,2.63-2.03,5.11-3.25,5.9-.59.38-1.14-.14-1.63-.59-.47-.44-.8-.72-1.08-.55-.83.5-2.45,3.86-3.01,5.11-.04.08-.12.13-.2.13Z"/>
              <g>
                <polygon class="cls-20" points="10.31 41.17 5.01 44.23 5.01 34.51 10.31 31.45 10.31 41.17"/>
                <polygon class="cls-19" points="18.27 36.58 12.97 39.64 12.96 25.12 18.27 22.06 18.27 36.58"/>
                <polygon class="cls-46" points="34.18 27.39 28.88 30.45 28.88 21.41 34.18 18.34 34.18 27.39"/>
                <polygon class="cls-8" points="26.23 31.98 20.92 35.04 20.92 16.6 26.23 13.54 26.23 31.98"/>
              </g>
            </g>
          </g>
          <g id="smart_watch" data-name="smart watch">
            <g>
              <g class="cls-21">
                <polygon class="cls-52" points="38.74 73.9 38.74 74.97 31.42 79.23 31.42 78.16 38.74 73.9"/>
                <path class="cls-52" d="m39.31,73.1v1.07c0,.29-.19.58-.58.8v-1.07c.38-.22.57-.51.58-.8Z"/>
                <polygon class="cls-88" points="28.63 78.16 28.63 79.23 12.73 70.05 12.73 68.98 28.63 78.16"/>
                <path class="cls-88" d="m12.15,69.23v-1.07c0,.29.2.59.58.81v1.07c-.39-.22-.59-.52-.58-.81Z"/>
                <path class="cls-54" d="m31.42,78.16v1.07c-.77.45-2.02.45-2.79,0v-1.07c.78.45,2.02.45,2.79,0Z"/>
                <path class="cls-88" d="m38.73,72.29c.77.45.78,1.17,0,1.62l-7.32,4.25c-.77.45-2.02.45-2.79,0l-15.9-9.18c-.77-.45-.78-1.17,0-1.61l7.32-4.25c.77-.45,2.02-.45,2.79,0l15.9,9.18Z"/>
              </g>
              <g>
                <path class="cls-75" d="m38.73,72.29l-1.4-.81-10.13,5.85,1.43.83c.77.45,2.02.45,2.79,0l7.32-4.25c.77-.45.76-1.17,0-1.62Z"/>
                <path class="cls-75" d="m22.83,63.11c-.77-.45-2.02-.45-2.79,0l-7.32,4.25c-.77.45-.76,1.17,0,1.61l.49.28,10.13-5.85-.52-.3Z"/>
                <polygon class="cls-55" points="37.33 71.48 27.2 77.33 16.41 71.1 15.02 70.3 14.32 69.89 13.22 69.26 15.78 67.78 17.77 66.64 23.35 63.41 24.45 64.04 37.33 71.48"/>
                <g>
                  <polygon class="cls-68" points="24.45 64.04 14.32 69.89 13.22 69.26 15.78 67.78 17.77 66.64 23.35 63.41 24.45 64.04"/>
                  <path class="cls-75" d="m16.62,68.02l-.13.02s-.02-.01-.03-.02c-.01,0-.03-.01-.04-.02l.04-.08s0-.02-.02-.02l-.18-.03s-.04,0-.04.01l-.04.08s-.06,0-.08.01l-.1-.06s-.03,0-.05,0l-.13.07s-.01.02,0,.03l.1.06s-.02.03-.02.05l-.14.02s-.03.01-.02.02l.05.1s.02.02.04.01l.13-.02s.02.02.03.02c0,0,.02.01.03.02l-.04.08s0,.02.02.02l.18.03s.04,0,.04-.01l.03-.07s.06,0,.1-.01l.09.05s.03,0,.05,0l.13-.07s.01-.02,0-.03l-.09-.05s.02-.04.02-.06l.13-.02s.03-.01.02-.02l-.05-.1s-.02-.02-.04-.01Zm-.28.2c-.06.03-.16.03-.22,0-.06-.04-.06-.09,0-.13s.16-.04.22,0c.06.04.06.09,0,.13Z"/>
                  <g>
                    <path class="cls-75" d="m18.97,66.11c-.25.15-.33.35-.25.54l.1-.02c-.08-.17,0-.35.22-.48s.55-.17.83-.13l.03-.06c-.32-.05-.68,0-.93.14Z"/>
                    <path class="cls-75" d="m19.18,66.24c-.17.1-.23.24-.17.37l.1-.02c-.05-.11,0-.23.14-.31.15-.08.35-.11.54-.08l.03-.06c-.22-.03-.46,0-.64.1Z"/>
                    <path class="cls-75" d="m19.4,66.36c-.09.05-.12.13-.09.2l.1-.02s0-.1.07-.14c.07-.04.16-.05.24-.04l.03-.06c-.12-.02-.25,0-.34.05Z"/>
                    <path class="cls-75" d="m19.76,66.57c-.05.03-.14.03-.19,0-.02,0-.03-.02-.03-.03-.01-.03,0-.05.03-.07s.08-.03.13-.02c.02,0,.04,0,.06.02.05.03.05.08,0,.11Z"/>
                  </g>
                  <g>
                    <path class="cls-75" d="m13.95,69.22s-.03.05-.06.07l-.06-.03c.07-.04.05-.08.02-.11l.05-.03.63.36-.07.04-.51-.3Z"/>
                    <path class="cls-75" d="m14.16,69.15c-.1-.06-.11-.12-.01-.17.1-.06.21-.05.3,0l.32.19c.1.06.11.12.01.18-.1.06-.21.05-.3,0l-.32-.19Zm.4.15c.06.03.12.04.17,0,.05-.03.04-.06-.02-.1l-.33-.19c-.06-.03-.12-.04-.17,0-.05.03-.04.06.02.1l.33.19Z"/>
                    <path class="cls-75" d="m14.63,68.93l.09.05-.07.04-.09-.05.07-.04Zm.34.2l.09.05-.07.04-.09-.05.07-.04Z"/>
                    <path class="cls-75" d="m14.93,68.7c.19.11.04.27.19.36h0s.21-.11.21-.11l.06.04-.28.16-.05-.03c-.2-.12-.03-.26-.21-.36-.06-.04-.12-.04-.17-.01-.05.03-.04.06.02.1l.06.03-.07.04-.05-.03c-.1-.06-.12-.12-.02-.17.1-.06.2-.05.3,0Z"/>
                    <path class="cls-75" d="m15.28,68.5h.01s-.07.04-.07.04h-.02c-.06-.04-.11-.05-.16-.02-.05.03-.04.06.03.1l.14.08s-.02-.07.03-.1c.08-.05.18-.03.27.02l.1.05c.1.06.11.12.02.17-.1.06-.21.05-.3,0l-.32-.19c-.1-.06-.12-.12-.02-.18.1-.06.2-.05.3,0Zm.02.26l.09.05c.06.03.11.04.17,0,.05-.03.04-.06-.02-.1l-.09-.05c-.06-.03-.11-.04-.17,0-.05.03-.04.06.02.1Z"/>
                  </g>
                  <g>
                    <path class="cls-75" d="m21.77,65.15l.13.07-.07.04-.13-.07-.2.12-.06-.04-.24-.37.08-.04.44.25.05-.03.06.04-.05.03Zm-.27.08l.14-.08-.31-.18.17.26Z"/>
                    <path class="cls-75" d="m21.65,64.72l-.21.12-.06-.04.28-.16.06.04.41.42-.07.04-.4-.42Z"/>
                    <path class="cls-75" d="m22,64.56l.2.11c.06.04.07.08.01.11-.06.04-.13.03-.19,0l-.2-.11c-.06-.03-.07-.08-.01-.11.06-.04.13-.03.19,0Zm-.14.08l.2.12s.07.03.1,0c.03-.02.02-.04-.01-.06l-.2-.12s-.07-.03-.1,0c-.03.02-.02.04.01.06Zm.25-.25l.38.51-.04.02-.38-.51.04-.02Zm.43.13l.2.11c.06.04.07.07.01.11-.06.04-.13.03-.19,0l-.2-.11c-.06-.03-.07-.07-.01-.11.06-.04.13-.03.19,0Zm-.14.08l.2.12s.07.03.1,0c.03-.02.02-.04-.01-.06l-.2-.12s-.07-.02-.1,0c-.03.02-.02.04.01.06Z"/>
                  </g>
                  <g>
                    <path class="cls-75" d="m23.34,64.61l-.85-.49.48-.28.85.49-.48.28Zm-.72-.49l.72.42.35-.2-.72-.42-.35.2Z"/>
                    <polygon class="cls-75" points="23.76 64.33 23.34 64.57 22.99 64.37 23.41 64.13 23.76 64.33"/>
                    <polygon class="cls-75" points="22.88 63.94 22.66 64.06 22.53 63.99 22.75 63.86 22.88 63.94"/>
                  </g>
                  <g>
                    <polygon class="cls-75" points="20.82 66 20.6 66.13 20.18 65.88 20.4 65.75 20.82 66"/>
                    <polygon class="cls-75" points="21.14 65.81 20.92 65.94 20.34 65.6 20.56 65.48 21.14 65.81"/>
                    <polygon class="cls-75" points="21.46 65.63 21.24 65.76 20.38 65.26 20.6 65.13 21.46 65.63"/>
                  </g>
                </g>
              </g>
              <g>
                <path class="cls-25" d="m18.81,65.12l-1.81,1.04c-.13.07-.33.07-.46,0h0c-.13-.07-.13-.19,0-.26l1.81-1.04c.13-.07.33-.07.46,0h0c.13.07.13.19,0,.26Z"/>
                <path class="cls-25" d="m19.7,64.34c-.18-.1-.47-.1-.64,0-.18.1-.18.27,0,.37.18.1.47.1.64,0,.18-.1.18-.27,0-.37Z"/>
                <ellipse class="cls-25" cx="16.02" cy="66.47" rx=".24" ry=".14"/>
                <path class="cls-25" d="m15.61,66.7c-.09-.05-.24-.05-.33,0s-.09.14,0,.19c.09.05.24.05.33,0,.09-.05.09-.14,0-.19Z"/>
              </g>
              <path class="cls-54" d="m33.01,76.3c-.07,0-.15-.02-.2-.05l-.95-.55c-.07-.04-.1-.09-.1-.16s.04-.12.1-.16l2.16-1.25c.11-.07.29-.07.41,0l.95.55c.07.04.1.09.1.16s-.04.12-.1.16h0l-2.16,1.25c-.06.03-.13.05-.2.05Zm1.21-2.07c-.05,0-.1.01-.14.03l-2.16,1.25s-.04.03-.04.04,0,.03.04.04l.95.55c.07.04.2.04.28,0l2.16-1.25s.04-.03.04-.04,0-.03-.04-.04l-.95-.55s-.09-.03-.14-.03Z"/>
              <g>
                <polygon class="cls-88" points="35.63 75.93 35.13 76.22 35.74 76.51 35.74 75.86 35.63 75.93"/>
                <polygon class="cls-75" points="34.79 76.41 34.79 77.06 35.74 76.51 35.13 76.22 34.79 76.41"/>
              </g>
              <polygon class="cls-86" points="35.63 75.93 35.63 76.46 34.79 76.94 34.79 76.41 35.63 75.93"/>
              <polygon class="cls-4" points="15.5 71.46 13.68 70.41 13.68 69.8 15.5 70.85 15.5 71.46"/>
              <g class="cls-36">
                <polygon class="cls-66" points="19.83 65.44 17.86 71.94 20.23 73.3 23.2 63.5 19.83 65.44"/>
              </g>
              <g class="cls-36">
                <polygon class="cls-66" points="16.41 71.1 17.77 66.64 15.78 67.78 15.02 70.3 16.41 71.1"/>
              </g>
            </g>
          </g>
          <g>
            <g class="cls-21">
              <g class="cls-21">
                <path class="cls-86" d="m47.29,58.01v1.26c0,1.34-.89,2.67-2.64,3.69-3.53,2.05-9.27,2.05-12.83,0-1.79-1.03-2.68-2.39-2.68-3.74v-1.26c0,1.35.89,2.71,2.68,3.74,3.55,2.05,9.29,2.05,12.83,0,1.75-1.02,2.63-2.35,2.63-3.69Z"/>
                <g class="cls-60">
                  <g class="cls-21">
                    <path class="cls-86" d="m47.29,58.01v1.26c0,.7-.25,1.4-.73,2.05v-1.26c.48-.65.73-1.35.73-2.05h0Z"/>
                    <path class="cls-86" d="m46.56,60.06v1.26c-.44.59-1.08,1.15-1.91,1.64-1.73,1-3.99,1.52-6.26,1.54v-1.26c2.28-.02,4.54-.53,6.26-1.54.84-.49,1.47-1.04,1.91-1.64h0Z"/>
                    <path class="cls-86" d="m38.39,63.23v1.26c-2.37.02-4.76-.49-6.57-1.54-1.79-1.03-2.68-2.39-2.68-3.74v-1.26c0,1.35.89,2.71,2.68,3.74,1.81,1.05,4.2,1.56,6.56,1.54h0Z"/>
                  </g>
                </g>
              </g>
              <path class="cls-86" d="m44.61,54.27c3.55,2.05,3.57,5.38.04,7.43-3.53,2.05-9.27,2.05-12.83,0-3.55-2.05-3.57-5.38-.04-7.43,3.53-2.05,9.27-2.05,12.83,0Z"/>
            </g>
            <g class="cls-21">
              <g class="cls-21">
                <g class="cls-43">
                  <g class="cls-21">
                    <path class="cls-83" d="m47.29,57.26v1.26c0,.7-.25,1.4-.73,2.05v-1.26c.48-.65.73-1.35.73-2.05h0Z"/>
                    <path class="cls-83" d="m46.56,59.31v1.26c-.44.59-1.08,1.15-1.91,1.64-1.73,1-3.99,1.52-6.26,1.54v-1.26c2.28-.02,4.54-.53,6.26-1.54.84-.49,1.47-1.04,1.91-1.64h0Z"/>
                    <path class="cls-83" d="m38.39,62.48v1.26c-2.37.02-4.76-.49-6.57-1.54-1.79-1.03-2.68-2.39-2.68-3.74v-1.26c0,1.35.89,2.71,2.68,3.74,1.81,1.05,4.2,1.56,6.56,1.54h0Z"/>
                  </g>
                </g>
              </g>
              <path class="cls-17" d="m44.61,53.52c3.55,2.05,3.57,5.38.04,7.43-3.53,2.05-9.27,2.05-12.83,0-3.55-2.05-3.57-5.38-.04-7.43,3.53-2.05,9.27-2.05,12.83,0Z"/>
            </g>
            <g class="cls-21">
              <polygon class="cls-86" points="33.68 58.96 31.5 57.69 34.2 42.37 36.38 43.64 33.68 58.96"/>
              <polygon class="cls-66" points="36.38 43.64 34.2 42.37 41.9 37.95 44.08 39.21 36.38 43.64"/>
              <polygon class="cls-66" points="44.08 39.21 41.38 54.54 33.68 58.96 36.38 43.64 44.08 39.21"/>
            </g>
            <g class="cls-21">
              <g class="cls-21">
                <path class="cls-52" d="m57.65,1.78l1.48.86c-.31-.18-.74-.15-1.22.12l-1.48-.86c.48-.27.91-.3,1.22-.12Z"/>
                <g class="cls-18">
                  <g class="cls-21">
                    <path class="cls-52" d="m57.92,2.76l-1.48-.86c.48-.27.91-.3,1.22-.12l1.48.86c-.31-.18-.74-.15-1.22.12h0Z"/>
                  </g>
                </g>
              </g>
              <g class="cls-21">
                <path class="cls-52" d="m15.89,60.73l-1.48-.86c-.31-.18-.5-.56-.5-1.1l1.48.86c0,.54.19.92.5,1.1Z"/>
                <g class="cls-67">
                  <g class="cls-21">
                    <path class="cls-52" d="m15.89,60.73l-1.48-.86c-.31-.18-.5-.56-.5-1.1l1.48.86c0,.54.19.92.5,1.1h0Z"/>
                  </g>
                </g>
              </g>
              <polygon class="cls-52" points="15.39 59.64 13.91 58.77 13.82 28.47 15.31 29.33 15.39 59.64"/>
              <polygon class="cls-52" points="17.01 26.38 15.53 25.52 56.43 1.9 57.92 2.76 17.01 26.38"/>
              <g class="cls-21">
                <path class="cls-52" d="m15.31,29.33l-1.48-.86c0-1.09.76-2.41,1.7-2.95l1.48.86c-.95.55-1.71,1.87-1.7,2.95Z"/>
                <g class="cls-45">
                  <g class="cls-21">
                    <path class="cls-52" d="m15.31,29.33l-1.48-.86c0-1.09.76-2.41,1.7-2.95l1.48.86c-.95.55-1.71,1.87-1.7,2.95h0Z"/>
                  </g>
                </g>
              </g>
              <path class="cls-17" d="m57.92,2.76c.94-.55,1.71-.11,1.72.98l.09,30.31c0,1.09-.76,2.41-1.7,2.95l-40.91,23.62c-.94.55-1.71.11-1.72-.98l-.09-30.31c0-1.09.76-2.41,1.7-2.95L57.92,2.76Z"/>
            </g>
            <g>
              <path class="cls-17" d="m16.3,57.56v2.07c0,.17.04.26.06.3.04,0,.14-.02.3-.11l40.91-23.62c.67-.39,1.25-1.39,1.25-2.16v-1.03s-42.51,24.54-42.51,24.54Z"/>
              <path class="cls-4" d="m58.8,33.02l-42.5,24.54v-.68s-.08-27.56-.08-27.56c0-.77.58-1.77,1.25-2.16L58.07,3.73l.31-.18c.16-.09.25-.11.3-.11.02.04.05.13.05.3l.08,29.28Z"/>
              <path class="cls-55" d="m58.15,32.72l-39.14,22.6-2.72,1.57-.02-6.78-.02-7.75-.02-6.42-.02-6.6c0-.76.58-1.77,1.25-2.16l6.56-3.79,7.9-4.56h0l8.12-4.69,12.05-6.96,5.97-3.45.08,28.99Z"/>
            </g>
            <g class="cls-37">
              <polygon class="cls-55" points="31.93 18.82 16.26 42.35 16.24 35.93 24.03 23.38 31.93 18.82"/>
            </g>
            <g class="cls-37">
              <polygon class="cls-55" points="52.09 7.18 19.01 55.32 16.3 56.88 16.28 50.1 40.05 14.13 52.09 7.18"/>
            </g>
          </g>
          <g>
            <ellipse class="cls-3" cx="65.64" cy="65.03" rx="17.03" ry="9.84"/>
            <g>
              <g class="cls-21">
                <polygon class="cls-73" points="73.77 55.73 73.76 58.58 63.47 64.56 63.47 61.71 73.77 55.73"/>
                <polygon class="cls-44" points="63.47 61.71 63.47 64.56 49.31 66.61 49.32 63.75 63.47 61.71"/>
                <g class="cls-21">
                  <g class="cls-79">
                    <g class="cls-21">
                      <path class="cls-30" d="m49.32,63.75v2.86c-.31-.7-.46-1.4-.46-2.09v-2.86c0,.69.15,1.39.46,2.09h0Z"/>
                    </g>
                  </g>
                </g>
                <path class="cls-20" d="m73.77,55.73l-10.29,5.98-14.16,2.05c-1.98-4.53,2.76-9.12,10.58-10.25,5.06-.73,10.17.09,13.87,2.23Z"/>
                <path class="cls-17" d="m63.47,61.71l-8.13,7.01c-.86-.34-1.64-.7-2.32-1.1-1.82-1.05-3.03-2.32-3.71-3.87l14.16-2.05Z"/>
                <polygon class="cls-32" points="63.47 61.71 63.47 64.56 55.34 71.57 55.35 68.72 63.47 61.71"/>
                <g class="cls-21">
                  <g class="cls-29">
                    <g class="cls-21">
                      <path class="cls-83" d="m55.35,68.72v2.86c-.87-.34-1.65-.7-2.33-1.1-1.82-1.05-3.03-2.32-3.71-3.87v-2.86c.68,1.55,1.9,2.82,3.71,3.87.69.4,1.46.76,2.32,1.1h0Z"/>
                    </g>
                  </g>
                </g>
                <g class="cls-21">
                  <g class="cls-39">
                    <g class="cls-21">
                      <path class="cls-33" d="m77.38,64.32v2.86c-2.48,4.44-10.7,6.87-18.38,5.43-1.35-.25-2.48-.57-3.66-1.03v-2.86c1.19.46,2.32.78,3.67,1.03,7.68,1.44,15.9-.99,18.37-5.43h0Z"/>
                    </g>
                  </g>
                </g>
                <path class="cls-19" d="m77.38,64.32c-2.47,4.44-10.69,6.87-18.37,5.43-1.35-.25-2.48-.57-3.66-1.03l8.13-7.01,13.9,2.61Z"/>
              </g>
              <g class="cls-21">
                <g class="cls-21">
                  <g class="cls-70">
                    <path class="cls-71" d="m82.39,57.56v2.86c-.01.88-.26,1.78-.76,2.68v-2.86c.51-.9.76-1.8.76-2.68h0Z"/>
                  </g>
                </g>
                <polygon class="cls-51" points="81.64 60.25 81.63 63.1 67.73 60.49 67.74 57.63 81.64 60.25"/>
                <path class="cls-8" d="m78.03,51.65c4.03,2.33,5.35,5.46,3.61,8.59l-13.9-2.61,10.29-5.98Z"/>
              </g>
            </g>
          </g>
          <g>
            <g class="cls-21">
              <polygon class="cls-4" points="20.75 53.45 19.94 52.98 19.88 29.09 20.68 29.56 20.75 53.45"/>
              <polygon class="cls-11" points="20.68 29.56 19.88 29.09 54.62 9.03 55.42 9.5 20.68 29.56"/>
              <polygon class="cls-17" points="55.42 9.5 55.49 33.39 20.75 53.45 20.68 29.56 55.42 9.5"/>
            </g>
            <g>
              <g class="cls-49">
                <path class="cls-25" d="m21.95,51.92v-21.84s0,0,0,0L54.67,11.18v21.84s0,0,0,0l-32.71,18.89Zm.04-21.82v21.75s32.64-18.85,32.64-18.85V11.25S21.99,30.1,21.99,30.1Z"/>
                <polygon class="cls-25" points="21.98 33.74 21.96 33.7 54.64 14.83 54.66 14.87 21.98 33.74"/>
                <polygon class="cls-25" points="21.98 37.37 21.96 37.34 54.64 18.47 54.66 18.5 21.98 37.37"/>
                <polygon class="cls-25" points="21.98 41 21.96 40.97 54.64 22.1 54.66 22.13 21.98 41"/>
                <rect class="cls-25" x="19.44" y="35.16" width="37.74" height=".04" transform="translate(-12.44 23.77) rotate(-29.88)"/>
                <polygon class="cls-25" points="21.98 48.27 21.96 48.23 54.64 29.36 54.66 29.4 21.98 48.27"/>
                <rect class="cls-25" x="51.36" y="13.11" width=".04" height="21.79"/>
                <rect class="cls-25" x="48.09" y="14.99" width=".04" height="21.79"/>
                <rect class="cls-25" x="44.83" y="16.88" width=".04" height="21.79"/>
                <rect class="cls-25" x="41.56" y="18.77" width=".04" height="21.79"/>
                <rect class="cls-25" x="38.29" y="20.65" width=".04" height="21.79"/>
                <rect class="cls-25" x="35.02" y="22.54" width=".04" height="21.79"/>
                <rect class="cls-25" x="31.75" y="24.43" width=".04" height="21.79"/>
                <rect class="cls-25" x="28.48" y="26.31" width=".04" height="21.79"/>
                <rect class="cls-25" x="25.22" y="28.2" width=".04" height="21.79"/>
              </g>
              <polygon class="cls-23" points="25.24 50 21.97 51.88 21.97 41.84 25.24 39.96 25.24 50"/>
              <polygon class="cls-23" points="30.14 47.16 26.87 49.05 26.87 45.93 30.14 44.04 30.14 47.16"/>
              <polygon class="cls-23" points="49.75 35.84 46.48 37.73 46.48 21.44 49.75 19.55 49.75 35.84"/>
              <polygon class="cls-23" points="39.94 41.5 36.68 43.39 36.67 35.98 39.94 34.09 39.94 41.5"/>
              <polygon class="cls-23" points="54.65 33.01 51.38 34.9 51.38 28.74 54.65 26.85 54.65 33.01"/>
              <polygon class="cls-23" points="35.04 44.33 31.77 46.22 31.77 26.98 35.04 25.09 35.04 44.33"/>
              <polygon class="cls-23" points="44.85 38.67 41.58 40.56 41.58 28.23 44.85 26.35 44.85 38.67"/>
            </g>
          </g>
          <g>
            <g class="cls-21">
              <polygon class="cls-4" points="33.26 35.11 32.45 34.64 32.43 25.16 33.23 25.63 33.26 35.11"/>
              <polygon class="cls-11" points="33.23 25.63 32.43 25.16 67.17 5.1 67.97 5.57 33.23 25.63"/>
              <polygon class="cls-85" points="67.97 5.57 68 15.05 33.26 35.11 33.23 25.63 67.97 5.57"/>
            </g>
            <g>
              <path class="cls-28" d="m36.27,27.07c.06.09.12.19.19.33s.15.28.23.43c.08.16.16.32.24.49.08.17.15.32.22.47.07-.23.14-.47.22-.72.08-.26.16-.51.24-.76.08-.25.16-.48.23-.7.07-.22.14-.4.19-.55l.66-.38c.03.23.06.49.09.78.03.29.05.6.07.92s.04.64.06.97c.02.32.03.63.04.92l-.71.41c0-.36-.02-.74-.04-1.16s-.04-.84-.07-1.25c-.06.18-.12.39-.19.61-.07.22-.14.44-.2.67-.07.22-.13.43-.19.64-.06.2-.12.38-.16.52l-.51.29c-.04-.09-.1-.21-.16-.34-.06-.13-.13-.27-.19-.41-.07-.14-.14-.29-.2-.43-.07-.14-.13-.27-.19-.39-.03.45-.05.9-.07,1.33-.02.44-.03.84-.04,1.21l-.71.41c.01-.3.03-.62.04-.97.02-.34.04-.69.06-1.03.02-.34.04-.68.07-1,.03-.32.06-.62.09-.88l.69-.4Z"/>
              <path class="cls-28" d="m42.67,25.23c0,.32-.04.62-.12.91-.08.29-.2.56-.34.8-.14.25-.31.47-.51.66-.2.2-.41.36-.64.49-.22.13-.43.21-.62.24s-.37,0-.51-.07c-.15-.08-.26-.22-.35-.41-.08-.19-.13-.45-.13-.77,0-.32.04-.63.13-.92.09-.29.2-.56.35-.81.15-.25.32-.47.51-.67.19-.19.4-.35.61-.48.22-.13.43-.21.62-.24.2-.03.37,0,.51.08.15.08.26.22.35.41.08.19.13.45.13.77Zm-2.47,1.42c0,.18.02.34.06.46.04.12.09.22.17.28.07.06.16.09.27.09.11,0,.23-.04.36-.12.13-.08.25-.18.36-.29.11-.12.2-.25.27-.4.07-.15.13-.31.17-.48.04-.17.06-.35.06-.53s-.02-.34-.06-.46c-.04-.13-.09-.22-.17-.29-.07-.06-.16-.09-.27-.09-.11,0-.23.05-.36.12-.14.08-.26.18-.36.3-.11.12-.2.25-.27.4-.07.15-.13.31-.17.48-.04.17-.06.35-.06.53Z"/>
              <path class="cls-28" d="m45.45,25.5c-.21-.31-.43-.6-.68-.87-.24-.28-.5-.52-.77-.73v2.44l-.72.41v-3.73s.59-.34.59-.34c.1.06.22.14.34.24.12.1.25.21.38.33.13.12.26.25.38.39.13.14.25.27.36.4v-2.2s.72-.42.72-.42v3.73s-.61.35-.61.35Z"/>
              <path class="cls-28" d="m46.8,20.99l.73-.42v3.73s-.73.42-.73.42v-3.73Z"/>
              <path class="cls-28" d="m50.67,18.75v.72l-.97.56v3.02s-.73.42-.73.42v-3.02l-.97.56v-.72l2.68-1.55Z"/>
              <path class="cls-28" d="m54.11,18.63c0,.32-.04.62-.12.91s-.19.56-.34.8c-.14.25-.31.47-.51.66-.2.2-.41.36-.64.49-.22.13-.43.21-.62.24s-.37,0-.51-.07c-.15-.08-.26-.22-.35-.41s-.13-.45-.13-.77c0-.32.04-.63.13-.92.09-.29.2-.56.35-.81.15-.25.32-.47.51-.67.19-.19.4-.35.61-.48.22-.13.43-.21.62-.24.2-.03.37,0,.51.08.15.08.26.22.35.41.08.19.13.45.13.77Zm-2.47,1.42c0,.18.02.34.06.46.04.12.09.22.17.28.07.06.16.09.27.09s.23-.04.36-.12c.13-.08.25-.18.36-.29.11-.12.2-.25.27-.4.07-.15.13-.31.17-.48.04-.17.06-.35.06-.53s-.02-.34-.06-.46c-.04-.13-.09-.22-.17-.29-.07-.06-.16-.09-.27-.09-.11,0-.23.05-.36.12-.14.08-.26.18-.36.3s-.2.25-.27.4c-.07.15-.13.31-.17.48-.04.17-.06.35-.06.53Z"/>
              <path class="cls-28" d="m55.66,15.83c.48-.28.86-.39,1.11-.34s.39.29.39.71c0,.26-.05.5-.16.73-.1.22-.25.44-.45.64.07.06.13.12.21.2.07.08.14.16.21.25.07.09.14.19.2.29.07.1.13.21.18.31l-.81.47c-.06-.09-.12-.18-.18-.27s-.12-.18-.19-.26c-.06-.08-.13-.16-.19-.23-.06-.07-.12-.13-.19-.18l-.36.21v1.36l-.73.42v-3.68c.16-.13.32-.25.49-.36.17-.11.32-.21.45-.28Zm.04.69c-.05.03-.1.06-.14.09-.04.03-.08.05-.12.08v1.01l.21-.12c.27-.16.47-.31.59-.46.12-.15.18-.32.18-.51s-.06-.28-.18-.29c-.12,0-.3.06-.53.19Z"/>
              <path class="cls-28" d="m57.83,14.62l.73-.42v3.73l-.73.42v-3.73Z"/>
              <path class="cls-28" d="m61.47,16.25c-.21-.31-.43-.6-.68-.87-.24-.28-.5-.52-.77-.73v2.44s-.72.41-.72.41v-3.73s.59-.34.59-.34c.1.06.22.14.34.24.12.1.25.21.38.33.13.12.26.25.38.39s.25.27.36.4v-2.2s.72-.42.72-.42v3.73s-.61.35-.61.35Z"/>
              <path class="cls-28" d="m64.4,11.47c-.34.2-.58.45-.73.75-.15.3-.23.64-.23,1.02,0,.18.02.34.06.47.04.13.09.22.17.29.07.06.17.09.28.09s.24-.05.39-.14c.08-.05.15-.09.21-.13.06-.04.11-.07.15-.11v-1.3s.73-.42.73-.42v1.85c-.09.09-.23.21-.42.37-.19.16-.43.32-.71.48-.24.14-.46.22-.66.25-.2.03-.37,0-.51-.08-.14-.08-.25-.22-.32-.42-.08-.2-.11-.45-.11-.76,0-.31.04-.61.13-.9.08-.29.2-.56.35-.81.15-.25.32-.48.52-.68.2-.2.41-.36.63-.49.15-.09.29-.16.41-.2s.23-.08.32-.1c.09-.02.16-.03.22-.03.06,0,.1,0,.12,0l-.21.79c-.1,0-.21,0-.34.04-.13.03-.27.09-.42.18Z"/>
            </g>
          </g>
          <g>
            <path class="cls-1" d="m49.57,40.08c-2.33,1.34-2.33,3.52,0,4.86,2.33,1.34,6.1,1.34,8.42,0,2.33-1.34,2.33-3.52,0-4.86-2.33-1.34-6.1-1.34-8.42,0Z"/>
            <g class="cls-21">
              <g class="cls-21">
                <path class="cls-78" d="m61.01,25.75l-1.41-.55c-1.45-.56-3.26-.16-5.1,1.33l1.41.55c1.84-1.49,3.66-1.89,5.1-1.33Z"/>
                <g class="cls-58">
                  <g class="cls-21">
                    <path class="cls-78" d="m61.01,25.75l-1.41-.55c-1.45-.56-3.26-.16-5.1,1.33l1.41.55c1.84-1.49,3.66-1.89,5.1-1.33h0Z"/>
                  </g>
                </g>
              </g>
              <g class="cls-21">
                <path class="cls-78" d="m52.08,44.59l1.41.55c-1.43-.55-2.49-2.04-2.86-4.34-.74-4.62,1.62-10.77,5.28-13.73l-1.41-.55c-3.66,2.96-6.02,9.1-5.28,13.73.37,2.3,1.44,3.78,2.86,4.34Z"/>
                <g class="cls-82">
                  <g class="cls-21">
                    <path class="cls-78" d="m55.91,27.08l-1.41-.55c-3.66,2.96-6.02,9.1-5.28,13.73.37,2.3,1.44,3.78,2.86,4.34l1.41.55c-1.43-.55-2.49-2.04-2.86-4.34-.74-4.62,1.62-10.77,5.28-13.73h0Z"/>
                  </g>
                </g>
              </g>
              <path class="cls-69" d="m55.91,27.08c-3.66,2.96-6.02,9.1-5.28,13.73.74,4.62,4.31,5.97,7.97,3.01,3.66-2.96,6.02-9.1,5.28-13.73-.74-4.62-4.31-5.97-7.97-3.01Z"/>
              <path class="cls-17" d="m56.17,28.7c-2.95,2.39-4.85,7.34-4.25,11.07.6,3.73,3.48,4.81,6.43,2.43,2.95-2.39,4.85-7.34,4.25-11.07-.6-3.73-3.48-4.81-6.43-2.43Z"/>
              <path class="cls-69" d="m56.45,30.48c-2.17,1.76-3.57,5.41-3.13,8.15.44,2.74,2.56,3.54,4.73,1.79,2.17-1.76,3.57-5.41,3.13-8.15-.44-2.74-2.56-3.54-4.73-1.79Z"/>
              <path class="cls-17" d="m56.72,32.13c-1.45,1.17-2.38,3.61-2.09,5.44.29,1.83,1.71,2.36,3.16,1.19,1.45-1.17,2.38-3.61,2.09-5.44-.29-1.83-1.71-2.36-3.16-1.19Z"/>
              <path class="cls-69" d="m56.96,33.61c-.8.65-1.32,2-1.16,3.01.16,1.01.95,1.31,1.75.66.8-.65,1.32-2,1.16-3.01-.16-1.01-.95-1.31-1.75-.66Z"/>
            </g>
            <g>
              <g class="cls-21">
                <polygon class="cls-4" points="58.68 35.36 59.21 35.06 58.95 34.72 58.43 35.03 58.68 35.36"/>
                <polygon class="cls-4" points="58.43 35.03 58.95 34.72 58.96 34.38 58.44 34.69 58.43 35.03"/>
                <polygon class="cls-4" points="59.47 36.39 60 36.08 59.21 35.06 58.68 35.36 59.47 36.39"/>
                <path class="cls-11" d="m58.48,33.64l-.04,1.05v.34s.24.34.24.34l.79,1.03-2.25-1.05c0-.26.02-.51.07-.76l1.19-.94Z"/>
                <polygon class="cls-4" points="58.44 34.69 58.96 34.38 59.01 33.33 58.48 33.64 58.44 34.69"/>
              </g>
              <path class="cls-12" d="m67.44,34.71c.04-.05.06-.12.06-.19,0-.16-.15-.29-.31-.28l-8.31.34c-.16,0-.29.14-.28.31s.15.29.31.28l8.31-.34c.09,0,.18-.05.23-.12Z"/>
              <polygon class="cls-83" points="68.94 36.2 69.47 35.9 67.94 34.47 67.42 34.78 68.94 36.2"/>
              <polygon class="cls-83" points="67.9 33.29 68.42 32.99 66.6 33.04 66.08 33.34 67.9 33.29"/>
              <polygon class="cls-4" points="67.42 34.78 67.94 34.47 68.42 32.99 67.9 33.29 67.42 34.78"/>
              <polygon class="cls-11" points="67.9 33.29 66.08 33.34 65.07 34.32 65 34.92 65.45 35.17 67.13 36.25 68.94 36.2 67.42 34.78 67.9 33.29"/>
            </g>
            <g class="cls-21">
              <polygon class="cls-4" points="57.67 36.9 57.68 37.51 58.1 37.53 58.1 36.92 57.67 36.9"/>
              <polygon class="cls-4" points="58.1 36.92 58.1 37.53 59.41 37.6 59.41 36.99 58.1 36.92"/>
              <polygon class="cls-4" points="57.43 37.11 57.43 37.71 57.68 37.51 57.67 36.9 57.43 37.11"/>
              <path class="cls-4" d="m56.67,38.34l-.17-2.23s.03-.02.04-.02l.12,1.64v.61Z"/>
              <path class="cls-11" d="m57.19,35.8l2.22,1.2-1.31-.07-.43-.02-.25.2-.76.62-.12-1.64c.2-.11.42-.21.64-.29Z"/>
              <polygon class="cls-4" points="56.67 37.73 56.67 38.34 57.43 37.71 57.43 37.11 56.67 37.73"/>
              <polygon class="cls-4" points="61.97 42.53 61.97 43.14 62.27 43.06 62.27 42.45 61.97 42.53"/>
              <polygon class="cls-4" points="61.93 42.76 61.93 43.37 61.97 43.14 61.97 42.53 61.93 42.76"/>
              <path class="cls-12" d="m62.98,44.11c.06,0,.13-.02.18-.06.13-.1.15-.29.05-.42l-5.15-6.53c-.1-.13-.29-.15-.42-.05s-.15.29-.05.42l5.15,6.53c.06.07.15.11.23.11Z"/>
              <polygon class="cls-83" points="63.65 44.42 63.65 45.02 65.77 45.47 65.77 44.87 63.65 44.42"/>
              <polygon class="cls-4" points="62.87 45.64 62.87 46.25 63.65 45.02 63.65 44.42 62.87 45.64"/>
              <polygon class="cls-83" points="61.66 44.13 61.66 44.73 62.87 46.25 62.87 45.64 61.66 44.13"/>
              <polygon class="cls-11" points="61.82 42.82 61.66 44.13 62.87 45.64 63.65 44.42 65.77 44.87 64.56 43.35 62.6 42.58 62.33 42.51 61.82 42.82"/>
            </g>
          </g>
          <g>
            <g class="cls-21">
              <polygon class="cls-4" points="10.83 53.49 10.02 53.03 10 45.99 10.8 46.46 10.83 53.49"/>
              <polygon class="cls-11" points="10.8 46.46 10 45.99 27.76 35.74 28.56 36.21 10.8 46.46"/>
              <polygon class="cls-85" points="28.56 36.21 28.59 43.25 10.83 53.49 10.8 46.46 28.56 36.21"/>
            </g>
            <g>
              <path class="cls-28" d="m14.32,46.36v.56l-.76.44v2.34l-.57.33v-2.34l-.76.44v-.56l2.08-1.2Z"/>
              <path class="cls-28" d="m15.42,45.69c.38-.22.66-.31.87-.27.2.04.3.22.3.55,0,.2-.04.39-.12.57-.08.17-.2.34-.35.5.05.04.1.1.16.16.06.06.11.13.16.2.05.07.11.15.16.23.05.08.1.16.14.24l-.63.36c-.05-.07-.09-.14-.14-.21-.05-.07-.1-.14-.15-.2-.05-.06-.1-.12-.15-.18-.05-.05-.1-.1-.15-.14l-.28.16v1.06l-.56.33v-2.86c.12-.1.25-.19.38-.28.13-.09.25-.16.35-.22Zm.03.54s-.08.05-.11.07c-.03.02-.06.04-.09.06v.79l.16-.09c.21-.12.36-.24.46-.36.09-.11.14-.25.14-.39s-.05-.22-.14-.22c-.09,0-.23.04-.41.15Z"/>
              <path class="cls-28" d="m18.9,46.62c-.03-.08-.06-.17-.09-.26-.03-.09-.06-.17-.1-.26l-.98.57c-.03.12-.06.25-.1.37-.03.12-.06.24-.09.36l-.59.34c.09-.37.18-.71.27-1.02s.17-.61.25-.89c.08-.28.16-.55.24-.81.08-.26.16-.51.25-.76l.54-.31c.08.15.16.31.24.48.08.16.16.34.24.53.08.19.16.39.25.6.09.22.17.45.27.71l-.61.35Zm-.68-1.85s-.03.12-.06.2c-.02.09-.05.19-.08.3-.03.11-.07.24-.1.37s-.08.28-.12.43l.72-.41c-.04-.1-.08-.2-.11-.3-.04-.09-.07-.18-.1-.25-.03-.08-.06-.14-.09-.2-.02-.06-.04-.1-.06-.14Z"/>
              <path class="cls-28" d="m19.83,46.08v-2.9l1.68-.97v.55l-1.12.64v.61l.99-.57v.55l-.99.57v1.2l-.56.33Z"/>
              <path class="cls-28" d="m21.9,44.88v-2.9l1.68-.97v.55l-1.12.64v.61l.99-.57v.55l-.99.57v1.2l-.56.33Z"/>
              <path class="cls-28" d="m23.98,40.79l.56-.33v2.9l-.56.33v-2.9Z"/>
              <path class="cls-28" d="m26.27,42.42c-.41.24-.72.28-.93.15-.21-.14-.32-.45-.32-.93,0-.24.03-.47.1-.7.07-.23.15-.44.27-.63.11-.2.25-.37.41-.53.16-.16.33-.29.51-.4.11-.06.2-.11.29-.14.09-.03.16-.05.23-.07.07-.01.12-.02.16-.02.04,0,.07,0,.09,0l-.16.62c-.08,0-.17,0-.27.03-.1.03-.22.08-.35.15-.09.05-.17.12-.26.2-.08.08-.16.18-.22.29-.06.11-.12.24-.15.38-.04.14-.06.29-.06.46,0,.13.01.25.04.35.03.1.07.18.12.23.06.05.13.07.22.07.09,0,.2-.04.33-.12.08-.05.16-.1.22-.14.07-.05.12-.1.17-.14s.1-.09.13-.13c.04-.04.07-.08.1-.11l.16.43c-.08.1-.19.22-.34.35-.14.13-.31.25-.5.36Z"/>
            </g>
          </g>
          <g>
            <g>
              <path class="cls-20" d="m14.27,57.58c-.08,0-.15-.03-.22-.08-.14-.12-.15-.33-.03-.46l11.38-12.89c.12-.14.33-.15.46-.03.14.12.15.33.03.46l-11.38,12.89c-.06.07-.15.11-.25.11Z"/>
              <path class="cls-20" d="m34.78,45.24s-.01,0-.02,0l-9.13-.56c-.18-.01-.32-.17-.31-.35.01-.18.17-.32.35-.31l9.13.56c.18.01.32.17.31.35-.01.17-.15.31-.33.31Z"/>
              <path class="cls-20" d="m34.78,45.24c-.06,0-.12-.02-.18-.05-.15-.1-.19-.3-.09-.45l7.56-11.48c.1-.15.3-.19.45-.09.15.1.19.3.09.45l-7.56,11.48c-.06.1-.17.15-.27.15Z"/>
              <path class="cls-20" d="m42.34,33.76c-.1,0-.19-.04-.26-.12-.11-.14-.09-.35.05-.46l12.87-10.35c.14-.11.35-.09.46.05.11.14.09.35-.05.46l-12.87,10.35c-.06.05-.13.07-.2.07Z"/>
              <path class="cls-20" d="m55.21,23.41s-.08,0-.12-.02c-.17-.07-.25-.26-.18-.43l4.66-11.59c.07-.17.26-.25.43-.18.17.07.25.26.18.43l-4.66,11.59c-.05.13-.17.2-.3.2Z"/>
            </g>
            <g>
              <polygon class="cls-41" points="13.42 56.17 13.42 58.51 15.44 57.34 15.44 55.01 13.42 56.17"/>
              <polygon class="cls-41" points="24.84 43.78 24.84 46.11 26.86 44.94 26.86 42.61 24.84 43.78"/>
              <polygon class="cls-41" points="33.77 44.06 33.77 46.39 35.79 45.22 35.79 42.89 33.77 44.06"/>
              <polygon class="cls-41" points="42.12 31.97 42.12 34.3 44.15 33.14 44.15 30.8 42.12 31.97"/>
              <polygon class="cls-41" points="54.93 24.39 56.95 23.22 56.95 20.89 54.93 22.05 54.93 24.39"/>
              <polygon class="cls-41" points="59.47 10.03 59.47 12.36 61.49 11.19 61.49 8.86 59.47 10.03"/>
            </g>
          </g>
          <g id="man">
            <path class="cls-3" d="m57.91,58.94c1.33.77,1.33,2.01,0,2.78-1.33.77-3.49.77-4.82,0-1.33-.77-1.33-2.01,0-2.78,1.33-.77,3.49-.77,4.82,0Z"/>
            <g id="man-2" data-name="man">
              <g>
                <g>
                  <path class="cls-11" d="m54.19,47.88c.22-.52.43-1.21.73-2.06.08-.23.12-.48.13-.72,0-.25-.07-.46-.19-.68-.05-.1-.13-.21-.24-.23-.1-.02-.2.04-.28.1-.49.37-.76.99-.88,1.58-.11.55-.29,1.08-.39,1.63-.02.1-.05.22-.04.32.01.51.35.82.69.67.17-.08.35-.31.48-.6Z"/>
                  <path class="cls-4" d="m56.5,59.31c-.42.35-.8.75-1.18,1.14-.11.11-.22.23-.31.36-.07.11-.17.25-.15.38.03.17.4.22.55.22.2.01.38-.02.56-.1.18-.08.28-.19.36-.37.08-.15.15-.32.29-.42.13-.09.32-.11.41-.25.04-.07.05-.16.05-.24,0-.16-.04-.31-.04-.46,0-.11.02-.24-.01-.35-.03-.09-.15-.15-.24-.15-.1,0-.21.04-.28.11v.12Z"/>
                  <path class="cls-4" d="m55.17,58.58c-.48.27-.93.59-1.37.9-.13.09-.26.18-.37.29-.09.09-.21.21-.22.35,0,.18.36.29.49.32.19.05.38.05.57,0,.19-.04.31-.14.42-.29.11-.14.21-.29.37-.36.15-.06.34-.05.45-.17.06-.06.08-.14.09-.23.03-.15.01-.31.04-.46.02-.11.07-.23.05-.34-.01-.1-.12-.18-.21-.2-.1-.02-.21,0-.3.06l-.02.11Z"/>
                  <path class="cls-66" d="m55.81,56.66c.03-.98-.14-1.27-.2-1.72,0,0,0,0,0,0,.08-.17.13-.35.14-.55.01-.33-.02-.8-.02-1.13.01-.69.6-2.91-.81-3.29-.21-.06-.55-.46-.72-.31-.04.03-.15.18-.22.5-.04.18-.06.46-.08.7-.04.41-.03.89.06,1.4.12.67.14,2.29.48,3.01h0c.17.8.27,3.67.27,3.67.04.19.17.4.83.35.18-.01.26-.54.29-.68.1-.61-.03-1.32-.01-1.94Z"/>
                  <path class="cls-25" d="m57.14,50.07s-.08-.11-.08-.11c-.31.15-.69.1-1.05.14-.78.08-.85.21-1.35-.14-.11.54,0,1.04,0,1.16-.04.62.54.68.55,1,.04.75.11,2.25.21,2.99.03.21.06.42.13.62.01.25.02.51.04.76.1,1.89.09,2.86.23,3.25.12.33.55.31.84.22.12-.04.24-.11.31-.21.07-.1.09-.23.11-.35.18-1.14.17-2.28-.06-3.4,0,0,0,0,0,0-.05-.6.05-1.43.19-2.01.28-1.17.41-2.47-.07-3.93Z"/>
                  <path class="cls-5" d="m57.18,48.81h0c-.03.2-.04.4-.05.59,0-.2.03-.4.05-.59Z"/>
                  <path class="cls-5" d="m57.12,49.4c0,.12,0,.24,0,.36,0,0,0,0,0,0,0-.12,0-.24,0-.36Z"/>
                  <path class="cls-9" d="m57.12,49.4c0-.2.03-.4.05-.59h0c.03-.25.08-.5.14-.75.1-.44.22-.79.34-1.23.07-.24.21-.61.23-.78.05-.4-.19-.71-.7-1.06-.35-.24-1.05-.55-1.73-.76-.96-.3-1.09.05-1.37.81-.26.71-.18,1.88-.07,2.64.06.4.1.8.11,1.21.01.35-.03.68-.09,1.02.84.59,1.98.44,2.93.21.06-.01.12-.03.17-.05-.02-.22-.02-.45-.02-.67Z"/>
                  <path class="cls-88" d="m56.19,46.57c-.19.53.09,1.07.09,1.6.03.7,0,1.4-.04,2.1.25-.04.49-.09.73-.15.06-.01.12-.03.17-.05-.02-.22-.02-.45-.02-.67,0-.2.03-.4.05-.59h0c.03-.25.08-.5.14-.75.1-.44.22-.79.34-1.23.07-.24.21-.61.23-.78.03-.24-.04-.45-.22-.65-.57.32-1.22.51-1.47,1.16Z"/>
                  <path class="cls-13" d="m55.43,49.42c-.1.09-.23.19-.33.28-.15-.23-.15-.25-.29-.48,0-1.38.06-2.68.39-4,.13.09.19.14.32.23-.17,1.27-.27,2.59-.09,3.98Z"/>
                  <path class="cls-16" d="m55.06,45.19s0,.01,0,.02c0,.04.03.09.04.12.03.08.06.16.11.23.02.04.05.08.09.1.05.02.1,0,.15-.02.05-.03.15-.07.13-.14-.01-.06-.03-.11-.05-.17-.04-.11-.09-.25-.19-.31-.11-.08-.2.04-.26.12-.01.02-.02.03-.03.04Z"/>
                  <path class="cls-87" d="m56.5,44.63c.02.77-1.42.79-1.4.06.03-1.01.09-1.13.57-1.29.13-.04.27-.08.41-.08.5,0,.31.25.29.42-.06.53.13.6.14.88Z"/>
                  <path class="cls-14" d="m56.5,44.63c0-.28-.2-.35-.14-.88.02-.18.21-.43-.29-.42-.14,0-.27.04-.41.08-.47.15-.54.27-.57,1.24.4-.04.75-.48,1.16-.22.11.08.18.19.23.3,0-.03,0-.07,0-.1Z"/>
                  <path class="cls-87" d="m56.26,44.43c-.41-.26-.76.18-1.16.22,0,.01,0,.03,0,.04-.02.69,1.3.71,1.4.04-.05-.12-.12-.22-.23-.3Z"/>
                  <path class="cls-11" d="m55.34,45.1c-.03.08-.13.11-.21.16-.03.02-.09.06-.13.05-.04,0-.07-.06-.08-.1-.1-.25-.16-.52-.16-.79,0-.09.01-.18.08-.24.06-.05.16-.07.24-.03.08.03.1.19.07.26-.1.26.01.56.19.69Z"/>
                  <path class="cls-11" d="m55.32,45.11s.13.2.28.34c.04.03.07.08.12.06.25-.08.77-.52.88-.8.04-.1-.04-.23-.09-.3-.01-.01-.09-.12-.11-.13-.01.02-.06.22-.15.34-.2.3-.57.45-.93.5Z"/>
                </g>
                <g>
                  <path class="cls-47" d="m54.94,49.39c-.08-.01-.29,0-.37,0-.07.01.13.11.09.17-.07.09-.2.16-.18.27.01.09.03.18.06.27s.09.17.17.21c.03.02.07.03.1.03.02,0,.05,0,.07-.01.13-.03.26-.07.4-.1.03,0,.06-.02.08-.03.04-.02.07-.05.09-.08.09-.11.1-.27.07-.4-.02-.07-.04-.15-.09-.2-.04-.04-.11-.04-.17-.06-.11-.03-.21-.05-.32-.07Z"/>
                  <path class="cls-47" d="m55.24,49.43c-.12-.09-.24-.18-.36-.27-.05-.03-.09-.07-.15-.09-.04-.02-.09-.02-.13-.03-.04-.01-.08-.02-.12-.03-.12-.02-.24.03-.36.08-.05.02-.09.04-.13.08-.02.02-.04.06-.02.09,0,.01.02.02.04.03.04.02.08.03.13.03.05,0,.1-.03.15-.04.09-.01.18.05.24.12.06.07.09.16.14.24.05.08.12.15.21.16.03,0,.07,0,.1,0,.07-.01.15-.03.21-.07.05-.03.1-.09.12-.15.02-.07-.03-.1-.08-.14Z"/>
                </g>
                <polygon class="cls-13" points="54 47.85 52.08 46.74 52.17 46.68 54.09 47.79 54 47.85"/>
                <polygon class="cls-53" points="54.09 47.79 54.9 50.26 54.75 50.16 54 47.85 54.09 47.79"/>
                <polygon class="cls-53" points="54.81 50.33 52.89 49.21 52.08 46.74 54 47.85 54.81 50.33"/>
                <path class="cls-47" d="m54.93,49.76c.08-.05-.21-.15-.24-.19-.08-.1-.06.06-.35.06-.08,0-.17,0-.24-.03-.06-.02-.12-.06-.17-.02-.04.02-.05.08-.03.12-.08-.04-.09.11-.03.17.11.13-.08.15.14.32-.01,0-.03.02-.04.03.02.25.62.17.87.12.43-.08.29-.55.09-.58Z"/>
                <g>
                  <path class="cls-47" d="m52.69,48.36c-.13.07-.21-.1-.15-.15.06-.05.27-.08.32.04.04.09-.08.07-.17.12Z"/>
                  <path class="cls-47" d="m52.33,47.6c-.08.06-.02.21.02.21.02,0,.05-.02.07-.03.05-.02.11-.03.17-.02.02,0,.05.01.07.01.02,0,.05-.01.06-.04.04-.1-.13-.16-.17-.18-.13-.04-.19.01-.22.04Z"/>
                  <path class="cls-47" d="m52.38,48.01c.07.06.09-.05.27-.02.02,0,.05.01.07,0s.05-.01.06-.04c.04-.11-.13-.16-.18-.17-.23-.06-.34.12-.22.23Z"/>
                  <path class="cls-47" d="m52.46,48.19c.07.03.08,0,.23-.02.22-.02.14-.22-.12-.18-.02,0-.09.01-.11.02-.08.03-.08.15,0,.18Z"/>
                </g>
              </g>
              <path class="cls-11" d="m58.26,46.7c-.01-.24-.06-.49-.15-.72-.09-.23-.24-.4-.43-.56-.09-.07-.19-.15-.31-.13-.1.02-.18.11-.23.2-.32.53-.34,1.2-.23,1.79.1.54.13,1.1.24,1.64-.57.1-1.36.3-1.8.52-.09.05-.18.1-.23.19-.08.14.03.43.14.53.15.13.37.11.55.08.37-.05,1.54-.15,2.12-.51.07-.02.13-.06.19-.12.13-.13.21-.42.22-.73.02-.57-.04-1.28-.08-2.18Z"/>
              <g>
                <path class="cls-47" d="m54.6,42.2c-.1.16-.16.35-.16.54,0,.08.01.17.04.25.03.08.07.15.08.23,0,.1-.07.2-.1.3-.03.08-.04.17-.01.26.02.05.05.09.08.13.13.2,0,.5.23.64.06.04.12.04.19.05.08,0,.45-.1.6-.16.16-.07.31-.25.43-.38.09-.1.24-.23.3-.36.02-.04-.02-.04.01-.06.02-.01.05-.16.08-.16.03,0,.07-.04.1-.05.05-.03.07.09.09.03.07-.24.16-.49.15-.75,0-.24,0-.44-.16-.64-.11-.15-.28-.26-.45-.33-.27-.1-.58-.11-.85-.02-.26.09-.49.27-.63.5Z"/>
                <path class="cls-63" d="m56.7,42.68c0-.24,0-.44-.16-.64-.11-.15-.28-.26-.45-.33-.16-.06-.34-.09-.51-.08-.26.52.12,1.18-.17,1.71-.09.13-.28.22-.28.38-.06.28.22.53.06.81.13-.03.27-.08.35-.11.16-.07.31-.25.43-.38.09-.1.24-.23.3-.36.02-.04-.02-.04.01-.06.02-.01.05-.16.08-.16.03,0,.07-.04.1-.05.05-.03.07.09.09.03.07-.24.16-.49.15-.75Z"/>
                <path class="cls-48" d="m55.5,42.42c.07-.01.13,0,.19.02.1.05.17.16.18.27.04.25-.05.5-.06.74,0,.04,0,.08.02.11.05.09.14.04.19-.02.03-.04.06-.08.09-.11.03-.04.07-.07.12-.08.08-.01.14.05.15.12.01.06,0,.13-.02.19,0,.01-.04.13,0,.13.05,0,.46-.42.48-1.14.02-.69-.46-.82-.46-.82,0,0-.21-.36-.77-.33-.29.01-.58.11-.82.26,0,0-.02.01-.03.02-.12.08-.23.17-.31.29-.21.33.07.59.42.54.16-.03.31-.1.47-.16.04-.02.09-.03.14-.04h0Z"/>
              </g>
              <path class="cls-34" d="m56.86,42.65c0,.07,0,.14-.02.21-.08.59-.42.93-.46.93-.05,0-.01-.11-.01-.13.02-.06.03-.13.02-.19-.01-.07-.07-.13-.15-.12-.05,0-.09.04-.12.08-.03.04-.06.08-.09.11-.05.06-.15.1-.19.02-.02-.03-.02-.07-.02-.11,0-.04,0-.07,0-.11,0-.06.02-.13.03-.19.02-.15.04-.3.02-.44-.02-.11-.08-.22-.18-.27-.06-.03-.13-.03-.2-.02,0,0,.22-.23.42-.35.2-.13.48-.23.48-.23,0,0,.44.12.46.73,0,.03,0,.06,0,.09Z"/>
              <path class="cls-63" d="m56.32,43.16c.2-.01.26.24.12.44-.04.06-.11.11-.17.15-.37.31-.46-.03-.34-.13.27-.25.14-.44.39-.46Z"/>
              <path class="cls-5" d="m56.19,43.64s.26-.16.1-.25c-.04-.03-.09.01-.1.06,0,.02,0,.05,0,.07,0,.01,0,.03-.02.04-.02.03-.09.07-.08.12.01.04.08-.02.09-.03Z"/>
            </g>
          </g>
          <g id="man-3" data-name="man">
            <path class="cls-3" d="m46.33,79.56c1.59.92,1.59,2.41,0,3.33-1.59.92-4.18.92-5.77,0-1.59-.92-1.59-2.41,0-3.33,1.59-.92,4.18-.92,5.77,0Z"/>
            <path class="cls-47" d="m38.57,66.36c.04-.05.1-.11.16-.08.05.03.05.12.06.17.01.08,0,.15-.04.22-.03.07-.07.15-.07.22,0,.02,0,.04.01.06-.15.11-.28.23-.41.36-.02-.05-.04-.1-.04-.14-.02-.3.16-.59.33-.83Z"/>
            <path class="cls-24" d="m42.32,66.46s.01,0,.01,0c.03-.09,0-.18-.02-.27-.03-.23.05-.46.01-.69-.01-.07-.03-.13-.08-.19-.04-.05-.09-.08-.14-.11-.02-.01-.26-.15-.25-.16-.16.29-.19.65-.07.96l.53.46Z"/>
            <path class="cls-11" d="m42.79,66.36c.53.1,1.06.24,1.58.41.23.08.47.14.65.34.18.19.18.48.1.72-.05.14-.12.26-.25.3-.14.03-.35-.03-.49-.07-.34-.1-.67-.23-.99-.4-.11-.06-.22-.12-.32-.18-.16-.09-.32-.18-.48-.27.17-.25.25-.56.2-.86Z"/>
            <g>
              <g class="cls-21">
                <g class="cls-21">
                  <path class="cls-10" d="m38.9,68.17l-.09-.05s-.06-.06-.06-.13l.09.05c0,.06.02.11.06.13Z"/>
                  <g class="cls-7">
                    <g class="cls-21">
                      <path class="cls-10" d="m38.9,68.17l-.09-.05s-.06-.06-.06-.13l.09.05c0,.06.02.11.06.13h0Z"/>
                    </g>
                  </g>
                </g>
                <polygon class="cls-10" points="38.84 68.04 38.75 67.99 38.74 66.12 38.84 66.18 38.84 68.04"/>
                <polygon class="cls-10" points="39.03 65.83 38.94 65.78 41.61 64.24 41.7 64.29 39.03 65.83"/>
                <g class="cls-21">
                  <path class="cls-10" d="m38.84,66.18l-.09-.05c0-.13.09-.28.2-.34l.09.05c-.11.06-.2.22-.2.34Z"/>
                  <g class="cls-50">
                    <g class="cls-21">
                      <path class="cls-10" d="m38.84,66.18l-.09-.05s.01-.1.03-.15l.09.05s-.04.1-.03.15h0Z"/>
                      <path class="cls-10" d="m38.87,66.03l-.09-.05s.04-.08.07-.11l.09.05s-.05.07-.07.11h0Z"/>
                      <path class="cls-10" d="m38.94,65.92l-.09-.05s.06-.06.1-.08l.09.05s-.07.05-.1.08h0Z"/>
                    </g>
                  </g>
                </g>
                <g>
                  <path class="cls-54" d="m41.7,64.29c.11-.06.2-.01.2.11v1.86c0,.13-.08.28-.19.34l-2.67,1.54c-.11.06-.2.01-.2-.11v-1.86c0-.13.08-.28.19-.34l2.67-1.54Z"/>
                  <path class="cls-4" d="m41.8,66.27c0,.09-.07.2-.14.25l-2.67,1.54s-.03.01-.03.01c0,0,0-.01,0-.03v-1.86c0-.09.06-.2.14-.25l2.64-1.53h.02s.03-.03.03-.03c0,0,0,.01,0,.03v1.86Z"/>
                  <path class="cls-55" d="m41.74,66.25c0,.09-.07.2-.14.25l-2.64,1.53v-1.85c0-.09.06-.2.14-.25l2.64-1.53v1.85Z"/>
                </g>
              </g>
              <path class="cls-10" d="m41.75,64.23l.09.05s-.09-.02-.14.01l-.09-.05c.06-.03.11-.03.14-.01Z"/>
              <polygon class="cls-11" points="39.66 67.23 41.28 66.3 41.28 65.73 39.66 66.67 39.66 67.23"/>
              <polygon class="cls-35" points="39.6 65.63 38.95 66.68 38.95 67.08 40.1 65.34 39.6 65.63"/>
              <polygon class="cls-35" points="38.95 67.57 38.95 68.02 39.09 67.94 41.39 64.6 40.62 65.04 38.95 67.57"/>
            </g>
            <path class="cls-47" d="m38.7,66.98s.03.03.05.04c.07.04.19.09.22-.02,0-.03,0-.07,0-.1-.01-.07-.02-.14-.04-.21,0-.04,0-.09.03-.1.03,0,.05.01.07.03.05.06.09.12.12.19.01.03.03.06.04.08.1.22.2.43.26.66.03.14.05.25.04.39,0,.11-.03.22-.06.32-.02.07-.05.17-.12.21-.08.04-.16-.02-.21-.08-.08-.09-.11-.2-.17-.3-.03-.05-.04-.1-.07-.14-.03-.05-.09-.09-.14-.12-.11-.08-.21-.18-.3-.29-.05-.06-.1-.15-.14-.23.13-.13.26-.25.41-.36,0,0,0,.01,0,.01Z"/>
            <g id="man-4" data-name="man">
              <g>
                <path class="cls-4" d="m44.78,80.98c-.02-.05-.05-.08-.14-.09-.11,0-.22-.01-.33-.02-.15,0-.3-.02-.44-.03,0-.12.01-.24.02-.36-.16.03-.24-.01-.39-.07-.18-.07-.36-.12-.54-.18-.08-.02-.16-.04-.24-.03-.2.04-.31.37-.28.54.02.12.1.23.2.3.15.11.35.21.53.24.2.03.38.09.53.21.2.16.35.33.62.35.27.02.5-.15.51-.43,0-.1-.01-.2-.03-.3-.01-.06-.01-.11-.03-.15Z"/>
                <path class="cls-83" d="m43.95,81.32s0-.04,0-.06c.01-.22-.07-.41-.15-.61-.03-.08-.06-.16-.13-.21-.15-.12-.38-.01-.47.15-.04.08-.07.16-.11.24-.07.15-.22.32-.4.33-.24.01-.51-.07-.75-.09-.09,0-.19,0-.28.03-.21.08-.27.42-.19.6.05.11.15.2.26.25.17.08.39.13.57.11.2-.01.39,0,.57.09.31.15.67.36.99.07.08-.08.13-.19.14-.3.02-.2-.05-.4-.05-.59Z"/>
              </g>
            </g>
            <path class="cls-74" d="m43.86,76.73l-.11-.47c.04.15.08.31.11.47Z"/>
            <path class="cls-74" d="m45.69,72.97c.04.36.05.72.02,1.08-.03.39-.11.72-.24,1.38-.13.64-.16.74-.18,1.08.03-.02.23,2.24-.39,4.3-.04.13-.09.27-.2.34-.06.04-.13.05-.2.06-.07,0-.14.01-.2,0-.07-.01-.15-.04-.2-.1-.05-.06-.09-.15-.11-.23-.04-.14-.05-.3-.05-.44,0-.7.04-1.4.04-2.11,0-.41-.02-.82-.07-1.22-.13-.47-.23-.94-.3-1.42-.06-.45-.03-.92-.14-1.37-.08-.33-.14-.87-.14-1.36h2.34Z"/>
            <path class="cls-80" d="m43.88,71.94c0,.07.57.35.72.2.04-.04.09-.12.16-.21.59.63.75,1.69.42,2.38-.25.5-.59,1.71-.72,3.07-.13,1.52-.03,3.21-.05,3.83-.04,0-.08,0-.12,0-.07-.01-.15-.04-.2-.1-.05-.06-.09-.15-.11-.23-.04-.14-.05-.3-.05-.44,0-.7.04-1.4.04-2.11,0-.41-.02-.82-.07-1.22-.13-.47-.23-.94-.3-1.42-.06-.45-.03-.92-.14-1.37-.19-.83-.27-2.92.4-2.39Z"/>
            <path class="cls-22" d="m43.57,72.29c-.06-.03-.4-.2-.39-.29,0-.06-.16-.11-.2-.11-.08,0-.15.05-.21.09-.15.11-.26.27-.33.45-.09.24-.12.51-.13.78-.04.79-.02,1.57.06,2.36.04.39.1.79.17,1.18.04.19.08.39.12.58.04.19.08.24.24.34.33.21.94.18,1.17-.2.26-.41.15-1.04.23-1.5.12-.66.56-1.15.77-1.78.15-.46.13-.9.05-1.37-.04-.22-.11-.76-.33-.89-.06-.03-.47-.13-.8.2-.19.19-.17.28-.41.16Z"/>
            <path class="cls-42" d="m45.84,70.46c.01-.12.03-.23.05-.35.1-.56.26-1.1.33-1.66.05-.44.09-.98-.25-1.32-.06-.05-.12-.1-.19-.14-.67-.38-1.32.08-1.95.31-.41.15-.81.35-1.18.58-.13.08-.26.14-.35.27-.09.14-.14.28-.15.45-.01.19.02.37.05.56.18,1.08.26,2.18.13,3.26-.06.47-.11,1.74-.11,1.74.16.07.25.13,1.01.14,1.55.03,2.41-.36,2.5-.45.09-.08.06-.27.06-.38,0-.34,0-.68,0-1.01-.02-.66-.04-1.33.05-1.99Z"/>
            <path class="cls-88" d="m42.16,68.59c0-.16.06-.31.15-.45.09-.13.22-.19.35-.27.08-.05.16-.1.24-.14.49.41,1.17.91.82,1.51-.9,1.61-1.11,3.29-1.15,5-.17-.03-.24-.06-.33-.1,0,0,.06-1.27.11-1.74.13-1.08.05-2.18-.13-3.26-.03-.18-.07-.37-.05-.56Z"/>
            <path class="cls-54" d="m43.51,67.43c.11-.05.24-.1.32-.13.44-.16.88-.43,1.34-.45.22.33.04.71-.28.89-.41.2-.94.18-1.33-.09-.08-.05-.14-.15-.05-.21Z"/>
            <path class="cls-22" d="m42.68,77.64c.03.34.06.68.08,1.02.02.27.04.54.05.81.01.21.02.42.03.62.04,1.14-.08,1.39.46,1.54.12.03.25.04.37.01.35-.09.41-.39.45-.77.02-.21.04-.47.04-.69,0-.18,0-.37.01-.55,0-.25,0-.5,0-.74,0-.33,0-.65,0-.98,0-.42.04-.84.04-1.26,0-.06-.04-.12-.09-.16-.06-.04-1.32.42-1.45.56,0,0-.05.16-.01.58Z"/>
            <path class="cls-11" d="m42.43,68.01c.23-.15.5-.28.75-.16.1.05.19.13.26.22.18.24.31.52.29.82,0,.06-.01.12-.03.17-.08.2-.27.26-.45.35-.21.1-.42.22-.62.34-.41.24-.81.48-1.25.66-.26.11-.55.19-.8.07-.17-.08-.3-.24-.34-.42-.09-.44.25-.55.29-.58,1.43-1.08,1.94-1.5,1.91-1.48Z"/>
            <path class="cls-11" d="m39.09,67.71c-.08.04-.23.16-.23.27,0,.09.1.22.14.3.12.24.26.48.39.72.06.11.12.22.18.32.18.31.4.6.63.86.09.1.24.27.38.32.13.04.26-.03.37-.12.2-.17.34-.41.29-.67-.05-.26-.22-.44-.37-.63-.36-.44-.76-.85-1.17-1.23-.07-.07-.15-.14-.24-.17-.11-.04-.25-.02-.37.04Z"/>
            <path class="cls-24" d="m41.58,65.78c.06.16.1.33.11.51,0,.07,0,.15.03.22.04.13.14.23.25.31.05.04.12.08.18.06-.01-.05-.02-.09-.02-.14,0-.06.03-.12.08-.17.03-.03.09-.05.11-.09.04-.09-.02-.17-.04-.25-.03-.09-.02-.18-.06-.27,0-.03-.02-.05-.04-.07-.02-.02-.05-.03-.08-.02-.04.02-.05.07-.05.12,0,0,0,.02,0,.02-.02.01-.04,0-.05-.02-.06-.09-.11-.18-.17-.26-.05-.07-.08-.15-.15-.2-.01,0-.02-.01-.04-.02,0,0,0,0,0,0-.03,0-.05.04-.06.07-.02.07,0,.14.02.2Z"/>
            <path class="cls-11" d="m42.14,66.56c.07-.12.18-.21.29-.23.1-.02.2,0,.3.02.02,0,.04,0,.06.01.05.3-.03.61-.2.86-.08-.04-.15-.09-.22-.13-.07-.04-.23-.1-.28-.18-.06-.1,0-.27.06-.35Z"/>
            <path class="cls-47" d="m43.67,66.75c-.02-.17-.15-.13-.09-.28.05-.13.14-.25.25-.33s.25-.14.39-.13c.05,0,.08.03.13.03.13,0,.26-.02.39,0,.13.02.25.03.25.18,0,.2,0,.38.05.58.03.1.08.2.09.31.02.21-.14.41-.33.5-.24.11-.5.1-.75.07-.13-.02-.3-.04-.38-.16-.06-.09-.03-.21-.02-.31.02-.15.03-.3.01-.45Z"/>
            <g>
              <path class="cls-47" d="m43.11,64.61c-.08.1-.14.2-.16.33-.04.28.07.57.01.86-.06.27.06.89.59,1.05.27.08.81-.01.98-.1.23-.11.38-.34.52-.55,1.12-1.78-1.18-2.51-1.95-1.59Z"/>
              <path class="cls-81" d="m45.38,64.26c-.05-.06-.12-.1-.2-.14-.02-.01-.05-.02-.07-.04-.01-.02-.02-.04-.03-.05-.04-.08-.11-.14-.19-.18-.3-.17-.66-.17-1-.13-.11.02-.23.04-.34.08-.12.05-.23.13-.33.22-.18.17-.39.42-.38.68,0,.06.04.1.06.15.02.04.05.07.08.1.09.11.13.27.18.39.02.06.05.11.1.15.1.06.23,0,.34.04.06.02.12.07.15.13.03.06.05.12.07.19.03.1.03.19.04.29.01.1.04.21.11.29.16.18.48.17.69.12.08-.02.15-.04.22-.07.16-.08.27-.23.38-.38.1-.14.19-.27.24-.43.03-.09.04-.18.05-.27.05-.38.09-.86-.18-1.14Z"/>
              <path class="cls-47" d="m43.72,65.41c.22-.02.27.25.13.46-.04.06-.12.12-.17.16-.38.34-.48-.02-.36-.13.28-.26.13-.47.41-.49Z"/>
              <path class="cls-5" d="m43.67,65.82s.27-.17.1-.27c-.05-.03-.1.01-.1.06,0,.03,0,.05,0,.08,0,.02,0,.03-.02.04-.02.04-.09.07-.08.12.01.05.09-.03.1-.04Z"/>
            </g>
          </g>
          <g>
            <path class="cls-3" d="m64.7,67.48c1.37.79,1.37,2.08,0,2.87-1.37.79-3.6.79-4.98,0-1.37-.79-1.37-2.08,0-2.87,1.37-.79,3.6-.79,4.98,0Z"/>
            <g>
              <g>
                <g>
                  <path class="cls-86" d="m57.62,73.75c-.53.26-1.02.57-1.52.88-.14.09-.28.11-.4.22-.1.09-.25.28-.26.42-.01.19.36.33.51.37.2.06.4.08.6.04.2-.03.34-.13.47-.28.12-.14.24-.29.41-.36.16-.06.36-.03.48-.15.06-.06.09-.15.11-.23.04-.16.03-.33.07-.49.03-.12.08-.24.08-.36,0-.1-.12-.19-.21-.22-.11-.03-.22,0-.32.04l-.03.12Z"/>
                  <path class="cls-51" d="m61.35,65.11c.24-.55.46-1.27.77-2.17.08-.24.13-.5.13-.76,0-.26-.08-.48-.2-.71-.06-.11-.13-.22-.25-.25-.11-.02-.21.04-.3.1-.52.39-.8,1.04-.92,1.66-.11.57-.08,1.26-.13,1.84,0,.11.04,1.07.4.91.18-.08.37-.33.5-.63Z"/>
                  <path class="cls-51" d="m61.23,64.56c-.12-.1-.58-.29-.66-.17-.05.08-.36.69-.61,1.04.34.23.63.51.91.79.38-.46.72-.96.71-1.28,0-.16-.2-.25-.36-.37Z"/>
                  <path class="cls-86" d="m59.87,74.87c-.45.36-.86.77-1.26,1.18-.12.12-.23.23-.33.37-.08.11-.18.26-.16.4.03.18.42.23.57.25.21.02.4-.01.59-.09.19-.08.29-.2.39-.38.09-.16.16-.33.32-.43.14-.09.34-.11.43-.25.05-.07.06-.16.06-.25,0-.16-.04-.33-.04-.49,0-.12.03-.25,0-.36-.03-.1-.15-.16-.25-.17-.11,0-.22.04-.3.11v.12Z"/>
                  <path class="cls-5" d="m64.49,66.08h0c-.03.21-.04.42-.05.62,0-.21.03-.42.05-.62Z"/>
                  <path class="cls-5" d="m64.43,66.71c0,.13,0,.25,0,.38,0,0,0,0,0,0,0-.13,0-.25,0-.38Z"/>
                  <g>
                    <path class="cls-15" d="m57.18,69.15c-.3.2-.64,1.52.53,1.57.6.03,1.15-.31,1.7-.58.75-.37,1.55-.61,2.31-.96.23-.11.46-.22.66-.38.48-.39.75-1.03.69-1.65,0-.09-.02-.18-.07-.25-.2-.36-1.48-.24-1.78-.09-1.1.55-3.72,2.15-4.04,2.35Z"/>
                    <path class="cls-15" d="m56.82,69.92c.02.32.05.64.09.96.05.36.11.71.13,1.07.02.39,0,.77,0,1.16,0,.24,0,.49.06.72.03.11.07.23.17.29.12.07.26.12.4.13.1.01.19.01.28-.02.31-.1.32-.53.38-.79.06-.24.1-.49.13-.74.06-.49.09-.98.11-1.47.02-.33.03-.65.02-.98-.01-.3-.02-.61-.16-.87-.14-.26-.44-.45-.73-.51-.32-.07-.63.06-.78.35-.09.17-.13.38-.12.57,0,.03,0,.07,0,.1Z"/>
                  </g>
                  <g>
                    <path class="cls-61" d="m59.18,70.29c-.27.23-.51,1.62.6,1.58.57-.02,1.07-.41,1.57-.72,1.6-1.01,3.58-1.36,3.28-3.35-.03-.18-.08-.96-.22-1.05-.1-.06-.68.14-.81.16-1.24.21-1.4.21-1.61.35-.03.93-.18,1.09-.69,1.4-.24.14-1.92,1.45-2.12,1.62Z"/>
                    <path class="cls-61" d="m58.94,71.21c.04.32.09.64.16.95.08.35.16.7.2,1.06.05.39.05.77.08,1.16.02.24.03.49.11.72.04.11.08.23.19.28.12.06.27.1.41.11.1,0,.19,0,.28-.04.3-.12.28-.55.33-.82.04-.25.07-.5.08-.75.03-.49.02-.98.01-1.47,0-.33-.01-.65-.04-.98-.03-.3-.06-.6-.22-.86-.15-.25-.47-.42-.76-.46-.32-.04-.62.1-.76.4-.08.18-.1.38-.08.58,0,.03,0,.07.01.1Z"/>
                  </g>
                  <path class="cls-8" d="m64.49,62.07c-.37-.25-1.1-.58-1.82-.8-1.01-.32-1.15.05-1.44.85-.27.75-.19,1.98-.07,2.77.06.42.1.85.12,1.27,0,.15-.03.31-.05.47,0,.07-.03.14,0,.2.03.08.15.16.22.22.31.26.71.4,1.11.43.56.04,1.17-.06,1.7-.23.11-.04.23-.08.3-.17.06-.08.08-.19.1-.29.05-.33.07-.67.08-1,0-.15,0-.3.01-.45.02-.22.06-.44.11-.65.06-.3.13-.59.2-.89.03-.15.07-.3.1-.44.03-.11.07-.2.06-.32-.02-.44-.41-.74-.74-.97Z"/>
                  <path class="cls-51" d="m63.17,64.3c-.22,1.05-.43,2.13-1.45,2.66-.08.04-.16.09-.23.14.3.23.68.36,1.06.39.56.04,1.17-.06,1.7-.23.11-.04.23-.08.3-.17.06-.08.08-.19.1-.29.05-.33.07-.67.08-1,0-.15,0-.3.01-.45.02-.22.06-.44.11-.65.06-.3.13-.59.2-.89.03-.15.07-.3.1-.44.03-.11.07-.2.06-.32,0-.06-.01-.12-.03-.18-.17.07-.34.14-.52.2-.62.25-1.39.59-1.51,1.24Z"/>
                </g>
                <path class="cls-8" d="m65.05,66.44c.18-.57.32-1.31.53-2.24.06-.25.08-.51.05-.77-.02-.26-.13-.47-.27-.69-.07-.1-.15-.21-.28-.22-.11-.01-.21.06-.29.13-.47.44-.69,1.12-.74,1.75-.05.58-.18,1.16-.22,1.74,0,.11-.02.23-.01.34.07.53.45.82.8.62.17-.1.34-.37.43-.68Z"/>
                <g>
                  <path class="cls-25" d="m62.64,66.64c-.11.09-.23.2-.34.29-.15-.24-.16-.26-.3-.5,0-1.42.06-2.75.4-4.11.13.09.2.14.33.23-.17,1.3-.28,2.65-.09,4.08Z"/>
                  <path class="cls-16" d="m62.26,62.29s0,.01,0,.02c0,.04.03.09.04.13.03.08.07.16.11.23.02.04.05.08.1.1.05.02.11,0,.15-.02.05-.03.15-.07.14-.14-.01-.06-.03-.12-.05-.17-.04-.11-.09-.25-.2-.32-.12-.08-.2.04-.26.13-.01.02-.02.03-.03.05Z"/>
                  <path class="cls-14" d="m63.74,61.72c0-.29-.2-.36-.14-.9.02-.18.22-.45-.3-.44-.14,0-.28.04-.42.08-.48.16-.55.28-.58,1.28.41-.04.77-.49,1.19-.22.11.08.19.19.24.31,0-.03,0-.07,0-.11Z"/>
                  <path class="cls-87" d="m63.5,61.51c-.42-.27-.78.18-1.19.22,0,.01,0,.03,0,.04-.02.71,1.33.73,1.43.04-.05-.12-.13-.23-.24-.31Z"/>
                  <path class="cls-11" d="m62.55,62.21c-.03.08-.14.11-.21.16-.03.02-.09.06-.13.05-.04,0-.07-.07-.08-.1-.1-.26-.16-.53-.17-.81,0-.09.01-.19.08-.25.06-.06.17-.07.24-.03.08.04.1.2.07.27-.1.27.01.57.2.71Z"/>
                  <path class="cls-11" d="m62.54,62.21s.13.2.29.34c.04.03.07.08.12.06.26-.08.79-.53.9-.82.04-.1-.04-.23-.09-.31-.01-.01-.09-.13-.11-.14-.01.02-.07.22-.16.35-.21.3-.58.46-.95.51Z"/>
                  <path class="cls-47" d="m61.79,59.23c-.1.16-.16.35-.16.56,0,.09.02.17.04.26.03.08.08.15.08.24,0,.1-.07.21-.1.3-.03.08-.05.18-.01.26.02.05.05.09.08.13.13.21,0,.51.24.66.06.04.12.04.19.05.08,0,.47-.1.61-.17.16-.07.32-.26.44-.39.09-.1.25-.24.31-.37.02-.04-.03-.05.01-.06.02-.01.05-.16.08-.17.03,0,.07-.04.1-.06.05-.03.08.09.09.03.07-.25.16-.51.15-.77,0-.24,0-.45-.16-.66-.12-.15-.28-.27-.47-.34-.28-.11-.59-.11-.87-.02-.27.09-.5.27-.65.51Z"/>
                  <path class="cls-63" d="m63.94,59.72c0-.24,0-.45-.16-.66-.12-.15-.28-.27-.47-.34-.17-.06-.34-.09-.52-.08-.26.53.12,1.21-.17,1.75-.1.13-.29.23-.29.39-.06.29.22.55.07.84.13-.04.28-.08.36-.12.16-.07.32-.26.44-.39.09-.1.25-.24.31-.37.02-.04-.03-.05.01-.06.02-.01.05-.16.08-.17.03,0,.07-.04.1-.06.05-.03.08.09.09.03.07-.25.16-.51.15-.77Z"/>
                  <path class="cls-25" d="m64.11,59.69c.02-.71-.47-.84-.47-.84,0,0-.22-.37-.79-.34-.3.01-.59.11-.85.27-.01,0-.02.01-.03.02-.12.08-.24.17-.32.3-.22.34.08.61.43.55.17-.03.32-.1.48-.16.11-.04.24-.07.34-.02.11.05.17.16.19.28.04.25-.05.51-.06.76,0,.04,0,.08.02.11.05.09.15.04.2-.02.03-.04.06-.08.09-.12.03-.04.07-.07.12-.08.08-.01.14.05.15.12.01.07,0,.13-.02.2,0,.02-.04.13.01.13.05,0,.47-.43.49-1.17Z"/>
                  <path class="cls-66" d="m62.71,59.45c.07-.01.14,0,.2.02.11.05.17.16.19.28.04.25-.05.51-.06.76,0,.04,0,.08.02.11.05.09.15.04.2-.02.03-.04.06-.08.09-.12.03-.04.07-.07.12-.08.08-.01.14.05.15.12.01.07,0,.13-.02.2,0,.02-.04.13.01.13.05,0,.47-.43.49-1.17.02-.71-.47-.84-.47-.84,0,0-.21.04-.46.21-.27.18-.46.4-.46.4Z"/>
                  <path class="cls-47" d="m63.65,60.72c-.1.14-.25.19-.35.12s-.09-.23,0-.37c.1-.14.25-.19.35-.12.1.07.09.23,0,.37Z"/>
                  <path class="cls-5" d="m63.56,60.49s.03.09,0,.12c-.04.04-.11.04-.13.09,0,.02,0,.04-.03.05-.02,0-.04-.01-.05-.03,0-.02.01-.04.03-.06.01-.02.03-.03.04-.05,0-.02,0-.05,0-.07,0-.08.09-.12.14-.05Z"/>
                </g>
              </g>
              <g class="cls-21">
                <polygon class="cls-86" points="56.71 68.47 56.72 68.81 60.64 71.09 60.64 70.75 56.71 68.47"/>
                <polygon class="cls-66" points="60.64 70.75 60.64 71.09 63.08 69.69 63.08 69.35 60.64 70.75"/>
                <g>
                  <polygon class="cls-25" points="56.71 68.47 60.64 70.75 63.08 69.35 59.15 67.07 56.71 68.47"/>
                  <polygon class="cls-62" points="59.78 68.26 60.85 68.87 61.43 68.53 60.36 67.92 59.78 68.26"/>
                  <polygon class="cls-62" points="62.01 69.73 58.42 67.64 57.14 68.38 60.73 70.47 62.01 69.73"/>
                </g>
              </g>
              <g>
                <g>
                  <g>
                    <path class="cls-63" d="m59.55,67.59c-.03.06-.15.23-.2.28-.05.05-.02-.16-.09-.16-.11,0-.23.07-.31,0-.07-.06-.13-.12-.18-.19s-.08-.16-.08-.24c0-.03.01-.07.03-.1.01-.02.03-.03.05-.05.1-.09.19-.17.29-.26.02-.02.04-.04.07-.05.03-.02.07-.03.11-.03.13,0,.26.06.35.16.04.05.09.11.11.18.01.05-.03.11-.04.16-.03.1-.07.2-.11.29Z"/>
                    <path class="cls-63" d="m59.68,67.33c0,.14.01.28.02.42,0,.05,0,.11,0,.16,0,.04-.03.08-.04.12-.01.04-.02.07-.04.11-.05.11-.15.17-.25.24-.04.03-.08.05-.13.06-.03,0-.07,0-.08-.03,0-.01,0-.03,0-.04,0-.04.02-.08.04-.12.03-.04.08-.06.11-.1.06-.06.06-.16.03-.25-.03-.08-.08-.16-.11-.23-.03-.08-.05-.17-.02-.25.01-.03.03-.05.05-.07.05-.05.1-.1.16-.13.05-.02.12-.03.18-.02.07.02.07.08.07.14Z"/>
                  </g>
                  <path class="cls-63" d="m59.03,67.5c.08-.04.24.14.25.18.03.11-.08.02-.22.24-.04.06-.08.13-.1.21-.01.05-.02.12-.07.15-.04.02-.09,0-.11-.04-.01.08-.13.02-.15-.06-.05-.15-.16-.01-.18-.28-.01,0-.03.01-.04.02-.18-.15.19-.58.36-.74.29-.3.35.17.27.33Z"/>
                </g>
                <path class="cls-51" d="m60.88,66.19c-.28-.28-.43-.79-.76-1.02-.3.41-.82,1.22-.98,1.57-.15.32.48.63.63.46.12-.14.78-.61,1.11-1.01Z"/>
                <g>
                  <path class="cls-47" d="m61.44,68.8c-.07.04-.25.17-.31.23-.05.06.18.01.18.09,0,.12-.07.25,0,.34.07.07.13.14.22.19.08.05.18.08.27.07.04,0,.07-.01.1-.04.02-.02.04-.04.05-.05.09-.11.18-.22.27-.33.02-.02.04-.05.05-.08.02-.04.03-.08.03-.12,0-.15-.08-.29-.19-.39-.05-.05-.13-.1-.2-.11-.06-.01-.12.03-.18.05-.11.04-.22.08-.32.14Z"/>
                  <path class="cls-47" d="m61.72,68.65c-.16,0-.31,0-.47,0-.06,0-.12,0-.18.01-.05.01-.09.04-.13.05-.04.02-.08.03-.12.05-.12.06-.19.18-.25.29-.03.05-.05.09-.06.15,0,.03,0,.08.04.09.02,0,.03,0,.05,0,.05-.01.09-.02.13-.05.04-.03.07-.09.11-.13.07-.07.18-.07.27-.04.09.03.18.08.27.11.09.04.19.05.28,0,.03-.02.06-.04.08-.06.06-.05.11-.12.14-.19.03-.06.03-.13.01-.2-.02-.07-.09-.07-.16-.07Z"/>
                </g>
                <path class="cls-8" d="m62.21,69.11c.2.04.4-.09.55-.2.37-.27,2.15-1.75,2.27-2.45.03-.17-.17-.27-.32-.41-.12-.11-.73.02-.84.15-.17.2-1.49,1.53-1.94,2.2-.06.09-.12.19-.12.29,0,.17.24.38.39.41Z"/>
                <path class="cls-47" d="m61.55,69.38c.04-.09-.16-.26-.21-.28-.13-.03-.02.09-.26.26-.07.05-.14.1-.23.12-.06.02-.14.03-.16.08-.02.04,0,.1.05.12-.09.02-.01.15.08.17.17.04.02.18.32.19,0,.02-.01.03-.02.05.17.19.63-.24.81-.43.32-.33-.2-.39-.38-.29Z"/>
              </g>
              <g class="cls-21">
                <g>
                  <path class="cls-25" d="m56.15,66.13l-.29.17s.05-.01.08,0l.29-.17s-.06-.02-.08,0Z"/>
                  <g class="cls-76">
                    <g class="cls-21">
                      <path class="cls-25" d="m55.94,66.3l.29-.17s-.02-.01-.03-.01l-.29.17s.02,0,.03.01h0Z"/>
                      <path class="cls-25" d="m55.9,66.29l.29-.17s-.03,0-.04,0l-.29.17s.03,0,.04,0h0Z"/>
                      <polygon class="cls-25" points="55.86 66.3 56.15 66.13 56.15 66.13 55.86 66.3 55.86 66.3 55.86 66.3"/>
                    </g>
                  </g>
                </g>
                <polygon class="cls-25" points="59.64 68.46 59.93 68.29 56.23 66.13 55.94 66.3 59.64 68.46"/>
                <g>
                  <path class="cls-25" d="m59.75,68.65l.29-.17c0-.07-.05-.16-.11-.19l-.29.17c.06.04.11.12.11.19Z"/>
                  <g class="cls-77">
                    <g>
                      <path class="cls-25" d="m59.69,68.5l.29-.17s-.03-.04-.05-.05l-.29.17s.04.03.05.05h0Z"/>
                      <path class="cls-25" d="m59.73,68.57l.29-.17s-.02-.04-.04-.06l-.29.17s.03.04.04.06h0Z"/>
                    </g>
                  </g>
                </g>
                <path class="cls-86" d="m55.94,66.3c-.06-.04-.11,0-.11.06l.89,2.1,3.93,2.28-.88-2.11s-.02-.13-.13-.19l-3.7-2.15Z"/>
                <polygon class="cls-66" points="60.64 70.75 60.93 70.58 60.02 68.39 59.73 68.57 60.64 70.75"/>
              </g>
            </g>
          </g>
          <g>
            <g class="cls-21">
              <g class="cls-21">
                <path class="cls-66" d="m17.96,29.31l1.53.89c.7.41,1.14,1.28,1.14,2.52,0,2.49-1.74,5.52-3.91,6.77l-1.53-.89c2.17-1.25,3.92-4.28,3.91-6.77,0-1.24-.44-2.11-1.14-2.52Z"/>
                <g class="cls-65">
                  <g class="cls-21">
                    <path class="cls-66" d="m16.73,39.49l-1.53-.89c.68-.39,1.31-.95,1.87-1.62l1.53.89c-.55.67-1.19,1.23-1.87,1.62h0Z"/>
                    <path class="cls-66" d="m18.59,37.87l-1.53-.89c1.22-1.47,2.05-3.44,2.04-5.15,0-.63-.11-1.16-.32-1.58l1.53.89c.2.43.31.96.32,1.58,0,1.71-.82,3.68-2.04,5.15h0Z"/>
                    <path class="cls-66" d="m20.32,31.14l-1.53-.89c-.2-.42-.48-.73-.83-.93l1.53.89c.35.2.63.52.83.93h0Z"/>
                  </g>
                </g>
              </g>
              <g class="cls-21">
                <path class="cls-66" d="m13.94,39.76l-1.53-.89c.71.41,1.7.36,2.79-.27l1.53.89c-1.09.63-2.08.69-2.79.27Z"/>
                <g class="cls-6">
                  <g class="cls-21">
                    <path class="cls-66" d="m13.94,39.76l-1.53-.89c.71.41,1.7.36,2.79-.27l1.53.89c-1.09.63-2.08.69-2.79.27h0Z"/>
                  </g>
                </g>
              </g>
              <g class="cls-21">
                <path class="cls-66" d="m18.97,27.58l1.53.89c-.97-.56-2.32-.48-3.8.37l-1.53-.89c1.48-.86,2.83-.94,3.8-.37Z"/>
                <g class="cls-40">
                  <g class="cls-21">
                    <path class="cls-66" d="m16.7,28.84l-1.53-.89c1.48-.86,2.83-.94,3.8-.37l1.53.89c-.97-.56-2.32-.48-3.8.37h0Z"/>
                  </g>
                </g>
              </g>
              <g class="cls-21">
                <path class="cls-66" d="m12.93,41.49l-1.53-.89c-.96-.56-1.55-1.74-1.56-3.43,0-3.39,2.37-7.52,5.32-9.22l1.53.89c-2.95,1.7-5.33,5.83-5.32,9.22,0,1.68.6,2.87,1.56,3.43Z"/>
                <g class="cls-57">
                  <g class="cls-21">
                    <path class="cls-66" d="m12.93,41.49l-1.53-.89c-.47-.28-.86-.7-1.13-1.27l1.53.89c.27.57.65,1,1.13,1.27h0Z"/>
                    <path class="cls-66" d="m11.8,40.22l-1.53-.89c-.27-.58-.43-1.3-.43-2.15,0-2.33,1.12-5.01,2.78-7.01l1.53.89c-1.66,2-2.79,4.68-2.78,7.01,0,.85.16,1.57.43,2.15h0Z"/>
                    <path class="cls-66" d="m14.16,31.05l-1.53-.89c.75-.91,1.62-1.68,2.54-2.21l1.53.89c-.92.53-1.79,1.3-2.54,2.21h0Z"/>
                  </g>
                </g>
              </g>
            </g>
            <g class="cls-21">
              <g class="cls-21">
                <path class="cls-17" d="m8.02,44l2.8-4s.14.1.4.28l-2.8,4c-.26-.18-.4-.28-.4-.28Z"/>
                <g class="cls-84">
                  <g class="cls-21">
                    <path class="cls-17" d="m8.02,44l2.8-4s.06.04.17.12l-2.8,4c-.11-.08-.17-.12-.17-.12h0Z"/>
                    <path class="cls-17" d="m8.19,44.12l2.8-4c.06.04.14.1.23.16l-2.8,4c-.09-.07-.17-.12-.23-.16h0Z"/>
                  </g>
                </g>
              </g>
              <g class="cls-21">
                <path class="cls-17" d="m12.44,41.13l-2.8,4s-.03-.02-.11-.08c-.22-.16-.72-.5-1.1-.77l2.8-4c.39.27.88.62,1.1.77.07.05.11.08.11.08Z"/>
                <g class="cls-56">
                  <g class="cls-21">
                    <path class="cls-11" d="m8.43,44.28l2.8-4c.23.16.5.35.73.51l-2.8,4c-.23-.16-.5-.35-.73-.51h0Z"/>
                    <path class="cls-17" d="m9.15,44.79l2.8-4c.15.11.28.2.37.26.07.05.11.08.11.08l-2.8,4s-.03-.02-.11-.08c-.09-.06-.22-.15-.37-.26h0Z"/>
                  </g>
                </g>
              </g>
            </g>
            <g class="cls-21">
              <g class="cls-21">
                <path class="cls-41" d="m3.12,49.88l5.29-7.56s.24.17.66.46l-5.29,7.56c-.42-.3-.66-.46-.66-.46Z"/>
                <g class="cls-26">
                  <g class="cls-21">
                    <path class="cls-41" d="m3.12,49.88l5.29-7.56s.1.07.28.19l-5.29,7.56c-.18-.13-.28-.19-.28-.19h0Z"/>
                    <path class="cls-41" d="m3.39,50.07l5.29-7.56c.1.07.23.16.39.27l-5.29,7.56c-.15-.11-.28-.2-.39-.27h0Z"/>
                  </g>
                </g>
              </g>
              <g class="cls-21">
                <path class="cls-41" d="m11.05,44.17l-5.29,7.56s-.06-.04-.18-.12c-.37-.26-1.17-.82-1.81-1.26l5.29-7.56c.63.44,1.44,1.01,1.81,1.26.12.08.18.12.18.12Z"/>
                <g class="cls-31">
                  <g class="cls-21">
                    <path class="cls-69" d="m3.78,50.34l5.29-7.56c.38.27.82.58,1.2.84l-5.29,7.56c-.37-.26-.82-.57-1.2-.84h0Z"/>
                    <path class="cls-41" d="m4.97,51.18l5.29-7.56c.25.17.46.33.61.43.12.08.18.12.18.12l-5.29,7.56s-.06-.04-.18-.12c-.15-.1-.36-.25-.61-.43h0Z"/>
                  </g>
                </g>
              </g>
            </g>
            <path class="cls-38" d="m15.96,39.06c2.17-1.25,3.92-4.28,3.91-6.77,0-2.49-1.77-3.49-3.93-2.24-2.17,1.25-3.92,4.28-3.91,6.77,0,2.49,1.77,3.49,3.93,2.24h0Z"/>
            <path class="cls-38" d="m19.87,32.29c0,2.49-1.74,5.52-3.91,6.77-1.33.77-2.5.69-3.22-.06.55.02,1.18-.15,1.85-.54,2.17-1.25,3.92-4.28,3.91-6.77,0-.96-.27-1.71-.72-2.18,1.24.04,2.08,1.06,2.09,2.78Z"/>
            <path class="cls-25" d="m16.7,28.84c2.95-1.7,5.35-.34,5.36,3.05,0,3.39-2.37,7.52-5.32,9.22-2.95,1.7-5.35.34-5.36-3.05,0-3.39,2.37-7.52,5.32-9.22Zm.03,10.64c2.17-1.25,3.92-4.28,3.91-6.77,0-2.49-1.77-3.49-3.94-2.24-2.17,1.25-3.92,4.28-3.91,6.77,0,2.49,1.77,3.49,3.93,2.24h0Z"/>
          </g>
          <g>
            <g class="cls-2">
              <polygon class="cls-4" points="32.78 73.2 28.29 75.83 25.14 74.01 25.14 73.39 29.63 71.39 32.78 73.2"/>
            </g>
            <g class="cls-2">
              <polygon class="cls-4" points="29.09 71.07 24.6 73.69 21.46 71.88 21.46 71.26 25.94 69.25 29.09 71.07"/>
            </g>
            <g class="cls-2">
              <polygon class="cls-4" points="25.41 68.97 20.92 71.59 17.78 69.78 17.78 69.16 22.27 67.16 25.41 68.97"/>
            </g>
            <g class="cls-21">
              <polygon class="cls-78" points="23.62 54.2 23.58 69.14 20.69 70.82 20.73 55.88 23.62 54.2"/>
              <polygon class="cls-41" points="20.73 55.88 20.69 70.82 17.78 69.14 17.82 54.2 20.73 55.88"/>
              <polygon class="cls-20" points="23.62 54.2 20.73 55.88 17.82 54.2 20.71 52.52 23.62 54.2"/>
            </g>
            <g class="cls-21">
              <polygon class="cls-4" points="27.31 63.47 27.27 71.27 24.38 72.95 24.42 65.15 27.31 63.47"/>
              <polygon class="cls-59" points="24.42 65.15 24.38 72.95 21.47 71.27 21.51 63.47 24.42 65.15"/>
              <polygon class="cls-17" points="27.31 63.47 24.42 65.15 21.51 63.47 24.4 61.79 27.31 63.47"/>
            </g>
            <g class="cls-21">
              <polygon class="cls-33" points="31 61.79 30.95 73.4 28.06 75.08 28.1 63.47 31 61.79"/>
              <polygon class="cls-72" points="28.1 63.47 28.06 75.08 25.15 73.4 25.19 61.79 28.1 63.47"/>
              <polygon class="cls-19" points="31 61.79 28.1 63.47 25.19 61.79 28.09 60.11 31 61.79"/>
            </g>
          </g>
        </g>
      </g>
    </g>
  </g>
</svg>