<svg xmlns="http://www.w3.org/2000/svg" version="1.1" xmlns:xlink="http://www.w3.org/1999/xlink" xmlns:svgjs="http://svgjs.com/svgjs" width="512" height="512" x="0" y="0" viewBox="0 0 64 64" style="enable-background:new 0 0 512 512" xml:space="preserve" class=""><g><path fill="#937963" d="M42 34h10v27H42z" data-original="#937963"></path><circle cx="32" cy="9" r="6" fill="#039791" data-original="#039791" class=""></circle><path fill="#039791" d="m38 39 1-16v10.5a2.5 2.5 0 0 0 2.5 2.5 2.5 2.5 0 0 0 2.5-2.5V20a4 4 0 0 0-4-4H24a4 4 0 0 0-4 4v13.5a2.5 2.5 0 0 0 2.5 2.5 2.5 2.5 0 0 0 2.5-2.5V23l1 16v19a3 3 0 0 0 3 3 3 3 0 0 0 3-3 3 3 0 0 0 3 3 3 3 0 0 0 3-3z" data-original="#039791" class=""></path><path fill="#d6c2ad" d="M42 34h19v27H42z" data-original="#d6c2ad"></path><path fill="#c7b29e" d="M47 56V34h5v27z" data-original="#c7b29e"></path><path fill="#f4bb3a" d="M3 34h22v27H3z" data-original="#f4bb3a"></path><path fill="#d6562b" d="M3 34h10v27H3z" data-original="#d6562b"></path><path fill="#f09b36" d="M8 56V34h5v27z" data-original="#f09b36"></path><path fill="#29485a" d="M23 34h-2v-4a2 2 0 0 0-4 0v4h-2v-4a4 4 0 0 1 8 0zM12 34h-2v-4a2 2 0 0 0-4 0v4H4v-4a4 4 0 0 1 8 0z" data-original="#29485a"></path><path fill="#ed7c31" d="m3 61 5-5 5 5z" data-original="#ed7c31"></path><path fill="#b29c88" d="m42 61 5-5 5 5z" data-original="#b29c88"></path><path fill="#29485a" d="M40 43h-2v-4a2 2 0 0 0-4 0v4h-2v-4a4 4 0 0 1 8 0zM29 43h-2v-4a2 2 0 0 0-4 0v4h-2v-4a4 4 0 0 1 8 0z" data-original="#29485a"></path><path fill="#97d7d9" d="M20 43h22v18H20z" data-original="#97d7d9"></path><path fill="#6ac9cd" d="M20 43h10v18H20z" data-original="#6ac9cd"></path><path fill="#4ec3c7" d="m20 61 5-5 5 5z" data-original="#4ec3c7"></path><path fill="#81d0d3" d="M25 56V43h5v18z" data-original="#81d0d3"></path><g fill="#29485a"><path d="M60 34h-2v-4a2 2 0 0 0-4 0v4h-2v-4a4 4 0 0 1 8 0zM51 34h-2v-4a2 2 0 0 0-4 0v4h-2v-4a4 4 0 0 1 8 0z" fill="#29485a" data-original="#29485a"></path></g></g></svg>