<svg xmlns="http://www.w3.org/2000/svg" version="1.1" xmlns:xlink="http://www.w3.org/1999/xlink" xmlns:svgjs="http://svgjs.com/svgjs" width="512" height="512" x="0" y="0" viewBox="0 0 512 512" style="enable-background:new 0 0 512 512" xml:space="preserve" class=""><g><path fill="#83a7c5" d="M470.1 66.091H426L438.585 44.3a24.209 24.209 0 1 0-41.942-24.191v.008l-15.558 26.947a32.986 32.986 0 0 0-21.256-7.814H152.171a33.068 33.068 0 0 0-32.442 26.841H41.866A33.974 33.974 0 0 0 8 99.986V399.7a33.974 33.974 0 0 0 33.866 33.9h162.1l-4.987 45.33h-43.61c-10.062 0-20.826 8.226-23.947 18.29l-2.1 6.767h253.332l-2.1-6.767c-3.093-10.064-13.886-18.29-23.949-18.29H313l-4.99-45.33h162.1A34 34 0 0 0 504 399.7V99.986a34 34 0 0 0-33.9-33.895z" data-original="#83a7c5" class=""></path><path fill="#72d1fb" d="M429.721 11.232a24.294 24.294 0 0 0-33.078 8.881v.008l-15.558 26.943a32.986 32.986 0 0 0-21.256-7.814H152.171a33.051 33.051 0 0 0-33.028 33v139.459a33.052 33.052 0 0 0 33.028 33h15.556v41.378a8 8 0 0 0 13.012 6.235l59.229-47.613h119.861a33.052 33.052 0 0 0 33.029-33v-88.217L438.585 44.3a24.235 24.235 0 0 0-8.864-33.068z" data-original="#72d1fb" class=""></path><path fill="#41739f" d="M8 384.359V399.7a33.974 33.974 0 0 0 33.866 33.9h162.1l-4.988 45.33h-43.61c-10.063 0-20.826 8.226-23.947 18.29l-2.1 6.767h253.333l-2.1-6.767c-3.092-10.064-13.885-18.29-23.948-18.29H313l-4.989-45.33h162.1A34 34 0 0 0 504 399.7v-15.341z" data-original="#41739f"></path><path fill="#2e6c93" d="M172.364 478.928h-17c-10.063 0-20.826 8.226-23.947 18.29l-2.1 6.767h17l2.1-6.767c3.121-10.064 13.883-18.29 23.947-18.29z" data-original="#2e6c93"></path><path fill="#628db2" d="M25 384.359V99.986a33.974 33.974 0 0 1 33.866-33.9h-17A33.974 33.974 0 0 0 8 99.986v284.373z" data-original="#628db2"></path><path fill="#2e6c93" d="M8 384.359V399.7a33.974 33.974 0 0 0 33.866 33.9h17A33.974 33.974 0 0 1 25 399.7v-15.341zM309.625 448.283l-1.616-14.683H203.962l-4.988 45.33h17l2.4-21.81a9.919 9.919 0 0 1 9.86-8.835z" data-original="#2e6c93"></path><path fill="#5d83a0" fill-rule="evenodd" d="M390.057 416.231a7.22 7.22 0 1 0-7.235-7.231 7.225 7.225 0 0 0 7.235 7.234zM416.565 416.231A7.22 7.22 0 1 0 409.33 409a7.25 7.25 0 0 0 7.235 7.234zM443.072 416.231a7.22 7.22 0 1 0-7.235-7.231 7.25 7.25 0 0 0 7.235 7.234z" data-original="#5d83a0"></path><path fill="#4fcbf7" d="M134.143 211.709V72.25a33.051 33.051 0 0 1 33.028-33h-15a33.051 33.051 0 0 0-33.028 33v139.459a33.052 33.052 0 0 0 33.028 33h15a33.052 33.052 0 0 1-33.028-33zM182.727 286.088V244.71h-15v41.378a8 8 0 0 0 13.012 6.235l2.988-2.4a7.961 7.961 0 0 1-1-3.835z" data-original="#4fcbf7"></path><path fill="#ffe958" d="M429.721 11.232a24.294 24.294 0 0 0-33.078 8.881v.008l-78.494 135.972a8.054 8.054 0 0 0-.956 2.648l-7.908 46.117a8 8 0 0 0 13 7.5l35.97-29.933a7.985 7.985 0 0 0 1.81-2.149L438.585 44.3a24.235 24.235 0 0 0-8.864-33.068z" data-original="#ffe958" class=""></path><path fill="#eafaff" d="M470.119 93.715h-60.066l-17.195 29.777v88.217a33.052 33.052 0 0 1-33.029 33H239.968l-59.229 47.613a8 8 0 0 1-13.012-6.235V244.71h-15.556a33.052 33.052 0 0 1-33.028-33V93.715H41.866a6.357 6.357 0 0 0-6.266 6.271v250.508a6.377 6.377 0 0 0 6.271 6.271h428.248a6.377 6.377 0 0 0 6.271-6.271V99.986a6.357 6.357 0 0 0-6.271-6.271z" data-original="#eafaff" class=""></path><path fill="#41739f" d="m375.008 57.592 41.929 24.201 10.927-18.922-41.922-24.222z" data-original="#41739f"></path><path fill="#ff6969" d="M429.721 11.232a24.294 24.294 0 0 0-33.078 8.881v.008l-10.7 18.528 41.922 24.222 10.72-18.571a24.235 24.235 0 0 0-8.864-33.068z" data-original="#ff6969"></path><path fill="#f4baa6" d="M318.148 156.1a8.02 8.02 0 0 0-.955 2.645l-7.908 46.117a8 8 0 0 0 13 7.5l35.97-29.933a7.985 7.985 0 0 0 1.81-2.149z" data-original="#f4baa6" class=""></path><path fill="#41739f" d="m310.753 196.3-1.468 8.562a8 8 0 0 0 13 7.5l6.68-5.559z" data-original="#41739f"></path><path fill="#41739f" d="m310.753 196.3-1.468 8.562a8 8 0 0 0 13 7.5l6.68-5.559z" data-original="#41739f"></path><g fill="#fff"><path d="M260.28 103.663h80.275a8 8 0 0 0 0-16H260.28a8 8 0 1 0 0 16zM172.863 103.663h63.012a8 8 0 0 0 0-16h-63.012a8 8 0 0 0 0 16zM322 149.428h-61.72a8 8 0 1 0 0 16h55.766l1.147-6.687a8.054 8.054 0 0 1 .956-2.648zM172.863 165.428h63.012a8 8 0 0 0 0-16h-63.012a8 8 0 0 0 0 16zM172.863 134.532H330.6l9.235-16H172.863a8 8 0 1 0 0 16zM313.494 180.317c-.136-.007-.269-.021-.406-.021H172.863a8 8 0 0 0 0 16h137.89z" fill="#ffffff" data-original="#ffffff"></path></g><path fill="#f75e5e" d="m409.465 26.363.005-.008a24.306 24.306 0 0 1 24.7-11.812 24.189 24.189 0 0 0-37.532 5.57v.008l-10.7 18.528 12.321 7.119z" data-original="#f75e5e"></path><path fill="#2e6c93" d="m374.905 57.523 10.935-18.938 12.323 7.115-10.934 18.938zM320.274 213.578a3.2 3.2 0 0 0 1.836-2.463v-.014l1.288-7.511-12.645-7.29-1.418 8.273a8.272 8.272 0 0 0 2.815 7.873 7.984 7.984 0 0 0 8.124 1.136z" data-original="#2e6c93"></path><path fill="#ffdb06" d="M330.536 163.241a7.875 7.875 0 0 1 .441-.905l56.355-97.63-12.324-7.114-56.859 98.5z" data-original="#ffdb06"></path><path fill="#efad9c" d="m310.753 196.3 12.647 7.29 6.621-38.607a7.984 7.984 0 0 1 .515-1.742l-12.388-7.141a8.02 8.02 0 0 0-.955 2.645z" data-original="#efad9c" class=""></path><path fill="#cce6f2" d="M198.974 336.8H73.243A20.648 20.648 0 0 1 52.6 316.148V99.971a6.356 6.356 0 0 1 5.986-6.256h-16.72a6.357 6.357 0 0 0-6.266 6.271v250.508a6.377 6.377 0 0 0 6.271 6.271h428.248a6.377 6.377 0 0 0 6.271-6.271V336.8z" data-original="#cce6f2"></path></g></svg>