<svg xmlns="http://www.w3.org/2000/svg" version="1.1" xmlns:xlink="http://www.w3.org/1999/xlink" xmlns:svgjs="http://svgjs.com/svgjs" width="512" height="512" x="0" y="0" viewBox="0 0 512 512" style="enable-background:new 0 0 512 512" xml:space="preserve" class=""><g><path fill="#eafaff" d="M503.163 283.155a24.2 24.2 0 0 0-42.856-8.086 7.987 7.987 0 0 0-2.038-3.607l-.163-.165V162a16.314 16.314 0 0 0 8.532-14.3V32.565a16.318 16.318 0 0 0-16.272-16.272H279.245a16.319 16.319 0 0 0-16.273 16.272v28.259H54.632a26.933 26.933 0 0 0-26.9 26.9v267.4a85.845 85.845 0 1 0 141.383 96.047h72.912v26.649a17.908 17.908 0 0 0 17.887 17.887h182.771a17.907 17.907 0 0 0 17.887-17.887V371.1l40.161-69.571a23.986 23.986 0 0 0 2.43-18.374z" data-original="#eafaff" class=""></path><path fill="#e1efff" d="M431.609 421.27a8 8 0 0 1-1.812 2.15l-35.972 29.9a7.993 7.993 0 0 1-12.989-7.5l7.909-46.119a7.994 7.994 0 0 1 .956-2.645L458.836 277.3a24.172 24.172 0 0 1 1.471-2.233 7.987 7.987 0 0 0-2.038-3.607l-50.71-51.42a8 8 0 0 0-5.691-2.381H259.912a17.909 17.909 0 0 0-17.887 17.888V477.82a17.908 17.908 0 0 0 17.887 17.887h182.773a17.907 17.907 0 0 0 17.887-17.887V371.1z" data-original="#e1efff"></path><path fill="#d7e8f9" d="M252.025 477.82V235.549a17.909 17.909 0 0 1 17.887-17.888h-10a17.909 17.909 0 0 0-17.887 17.888V477.82a17.908 17.908 0 0 0 17.887 17.887h10a17.908 17.908 0 0 1-17.887-17.887z" data-original="#d7e8f9"></path><path fill="#f7d119" d="M279.245 16.293h171.121a16.318 16.318 0 0 1 16.272 16.272V147.7a16.318 16.318 0 0 1-16.272 16.273H333.783L295.456 202.3v-38.325h-16.211a16.318 16.318 0 0 1-16.273-16.275V32.565a16.318 16.318 0 0 1 16.273-16.272z" data-original="#f7d119" class=""></path><path fill="#efc411" d="M309.456 163.975h-14v38.327l14-14zM276.972 147.7V32.565a16.319 16.319 0 0 1 16.273-16.272h-14a16.319 16.319 0 0 0-16.273 16.272V147.7a16.319 16.319 0 0 0 16.273 16.273h14a16.319 16.319 0 0 1-16.273-16.273z" data-original="#efc411"></path><path fill="#72d1fb" d="M409.691 38.359a7.994 7.994 0 0 0-7.994 7.995v4.082c-10.488 5.558-22.03 8.276-35.148 8.276H327.4c-8.534 0-15.477 6.561-15.477 14.627v23.81c0 8.066 6.943 14.627 15.477 14.627h8.521l4.761 23.711a7.992 7.992 0 0 0 7.837 6.421h8.615a7.994 7.994 0 0 0 8-7.994v-22.138h1.417c13.116 0 24.659 2.718 35.148 8.277v4.053a7.994 7.994 0 1 0 15.988 0V46.354a7.994 7.994 0 0 0-7.996-7.995z" data-original="#72d1fb"></path><path fill="#ff6969" d="M93.89 323.958a85.875 85.875 0 1 0 85.861 85.86 85.971 85.971 0 0 0-85.861-85.86z" data-original="#ff6969"></path><path fill="#f75e5e" d="M19 409.818a85.968 85.968 0 0 1 80.387-85.665 86.293 86.293 0 0 0-5.5-.195 85.875 85.875 0 1 0 0 171.749c1.85 0 3.679-.079 5.5-.195A85.986 85.986 0 0 1 19 409.818z" data-original="#f75e5e"></path><path fill="#c4daec" d="M262.972 60.824H54.632a26.933 26.933 0 0 0-26.9 26.9v55.786h129.653a8 8 0 0 0 6.663-3.578l12.171-18.362h86.753zM263 31.944c-.008.208-.032.412-.032.621.004-.209.032-.413.032-.621z" data-original="#c4daec" class=""></path><path fill="#83a7c5" fill-rule="evenodd" d="M76.089 110.175a8.008 8.008 0 1 0-8.022-8.022 8.027 8.027 0 0 0 8.022 8.022zM102.564 110.175a8.008 8.008 0 1 0-7.993-8.022 8.027 8.027 0 0 0 7.993 8.022zM129.039 110.175a8.008 8.008 0 1 0-7.993-8.022 8.009 8.009 0 0 0 7.993 8.022z" data-original="#83a7c5"></path><path fill="#ffffff" d="M135.178 402.763 72.7 369.485a7.994 7.994 0 0 0-11.752 7.055v66.56a7.992 7.992 0 0 0 11.752 7.051l62.474-33.277a7.994 7.994 0 0 0 0-14.111z" data-original="#ffffff"></path><rect width="144.594" height="129.287" x="70.079" y="169.87" fill="#9dd46f" rx="7.994" data-original="#9dd46f"></rect><path fill="#94c961" d="M81.062 291.163v-113.3a8 8 0 0 1 8-7.994H78.073a7.994 7.994 0 0 0-7.994 7.994v113.3a7.994 7.994 0 0 0 7.994 7.994h10.984a8 8 0 0 1-7.995-7.994z" data-original="#94c961"></path><path fill="#ffffff" d="M127.111 192.66a20.864 20.864 0 1 0 20.863 20.863 20.887 20.887 0 0 0-20.863-20.863z" data-original="#ffffff"></path><path fill="#ffe958" d="M503.163 283.155a24.206 24.206 0 0 0-44.327-5.853L389.7 397.063a7.994 7.994 0 0 0-.956 2.645l-7.909 46.119a7.993 7.993 0 0 0 12.989 7.5l35.972-29.9a8 8 0 0 0 1.812-2.15l69.124-119.743a23.986 23.986 0 0 0 2.431-18.379z" data-original="#ffe958"></path><path fill="#cadeef" d="M417.725 277.075h41.257q.616-1.041 1.325-2.006a7.987 7.987 0 0 0-2.038-3.607l-50.71-51.42a8 8 0 0 0-5.691-2.381v43.557a15.857 15.857 0 0 0 15.857 15.857z" data-original="#cadeef"></path><g fill="#83a7c5"><path d="M308.3 422.773h-23.87a7.994 7.994 0 0 1 0-15.988h23.87a7.994 7.994 0 0 1 0 15.988zM366.209 455.173H284.43a7.994 7.994 0 0 1 0-15.988h81.779a7.994 7.994 0 0 1 0 15.988zM366.209 422.773H335.68a7.994 7.994 0 0 1 0-15.988h30.529a7.994 7.994 0 0 1 0 15.988zM308.3 358.031h-23.87a7.994 7.994 0 0 1 0-15.988h23.87a7.994 7.994 0 0 1 0 15.988zM366.209 390.4H284.43a7.994 7.994 0 0 1 0-15.988h81.779a7.994 7.994 0 0 1 0 15.988zM395.292 358.031H335.68a7.994 7.994 0 0 1 0-15.988h59.612a7.994 7.994 0 1 1 0 15.988zM409.379 325.632H284.43a7.994 7.994 0 1 1 0-15.988h124.949a7.994 7.994 0 0 1 0 15.988zM314.959 293.261H284.43a7.995 7.995 0 0 1 0-15.989h30.529a7.995 7.995 0 0 1 0 15.989z" fill="#83a7c5" data-original="#83a7c5"></path></g><path fill="#ff6969" d="M409.691 132.1a7.994 7.994 0 0 1-7.994-8V46.354a7.994 7.994 0 1 1 15.988 0v77.752a7.994 7.994 0 0 1-7.994 7.994z" data-original="#ff6969"></path><path fill="#83a7c5" d="m437.209 314.767 41.905 24.212 10.938-18.949-41.934-24.161z" data-original="#83a7c5"></path><path fill="#ff6969" d="m490.052 320.03 10.681-18.5a24.2 24.2 0 0 0-41.9-24.225l-10.718 18.566z" data-original="#ff6969"></path><path fill="#f4baa6" d="M389.705 397.057v.006a7.994 7.994 0 0 0-.956 2.645l-7.909 46.119a7.993 7.993 0 0 0 12.989 7.5l35.972-29.9a8 8 0 0 0 1.812-2.15z" data-original="#f4baa6"></path><path fill="#ffdb06" d="m389.703 397.097 47.508-82.285 12.335 7.122-47.509 82.284z" data-original="#ffdb06"></path><path fill="#a3c0d9" d="M27.73 87.725v55.785h17.842V87.248a26.98 26.98 0 0 1 21.62-26.424h-12.56A26.933 26.933 0 0 0 27.73 87.725z" data-original="#a3c0d9" class=""></path><path fill="#cce6f2" d="M45.572 338.877V143.51H27.73v211.619a86.6 86.6 0 0 1 17.842-16.252z" data-original="#cce6f2"></path><path fill="#ff6969" d="M365.132 58.712H327.4c-8.534 0-15.477 6.561-15.477 14.627v23.81c0 8.066 6.943 14.627 15.477 14.627h37.729z" data-original="#ff6969"></path><path fill="#f75e5e" d="M333.756 103.306c-8.534 0-15.477-6.562-15.477-14.627V64.868a13.81 13.81 0 0 1 .514-3.676 14.429 14.429 0 0 0-6.867 12.147v23.81c0 8.066 6.943 14.627 15.477 14.627h37.729v-8.47z" data-original="#f75e5e"></path><path fill="#41739f" d="M340.685 135.487a7.992 7.992 0 0 0 7.837 6.421h8.615a7.994 7.994 0 0 0 8-7.994v-22.138h-29.213z" data-original="#41739f"></path><path fill="#376f99" d="m350.3 139.017-3.338-16.624a5.921 5.921 0 0 1 5.805-7.087h12.362v-3.53h-29.204l4.759 23.711a7.992 7.992 0 0 0 7.837 6.421h3a7.933 7.933 0 0 1-1.221-2.891z" data-original="#376f99"></path><path fill="#51c8f2" d="M401.7 120.053V83.476c0 19.53-36.565 19.83-36.565 19.83v8.47h1.417c13.113 0 24.656 2.718 35.148 8.277z" data-original="#51c8f2"></path><path fill="#f75e5e" d="M471.071 284.6a24.286 24.286 0 0 1 26.669-11.419 24.22 24.22 0 0 0-38.9 4.125l-10.718 18.566 12.341 7.11z" data-original="#f75e5e"></path><path fill="#759fbc" d="m460.459 302.979-12.341-7.11-10.909 18.898 12.332 7.125z" data-original="#759fbc"></path><path fill="#83a7c5" d="m382.605 435.51-1.769 10.317a7.993 7.993 0 0 0 12.989 7.5l8.042-6.686z" data-original="#83a7c5"></path><path fill="#efad9c" d="m382.605 435.51 12.27 7.09 6.105-35.6a8.011 8.011 0 0 1 .956-2.644l.1-.176-12.332-7.125v.006a7.994 7.994 0 0 0-.956 2.645l-6.14 35.8z" data-original="#efad9c"></path><path fill="#759fbc" d="m382.605 435.51-1.769 10.317A7.983 7.983 0 0 0 393 453.919a7.735 7.735 0 0 1 .074-.8l1.8-10.521z" data-original="#759fbc"></path><path fill="#ffffff" d="M178.831 218.265a9.182 9.182 0 0 0-6.549-2.728 8.963 8.963 0 0 0-6.48 2.889l-32.208 34.968-9.918-10.251a8.959 8.959 0 0 0-6.439-2.73h-.11a8.965 8.965 0 0 0-6.48 2.888L81.062 275.41v12.082h122.627v-43.544z" data-original="#ffffff"></path></g></svg>