<svg xmlns="http://www.w3.org/2000/svg" version="1.1" xmlns:xlink="http://www.w3.org/1999/xlink" xmlns:svgjs="http://svgjs.com/svgjs" width="512" height="512" x="0" y="0" viewBox="0 0 512 512" style="enable-background:new 0 0 512 512" xml:space="preserve" class=""><g><path fill="#eafaff" d="M487.727 246.969A16.3 16.3 0 0 0 504 230.7V115.587a16.318 16.318 0 0 0-16.273-16.273h-49.346V53.968a26.936 26.936 0 0 0-26.906-26.906H34.907A26.937 26.937 0 0 0 8 53.968v336.573a26.938 26.938 0 0 0 26.907 26.907h61.254v-.028h13.4l10.868 60.923a8 8 0 0 0 7.876 6.595h27.013a8 8 0 0 0 8-8v-59.314c25.813 1.212 48.741 8.481 69.744 22.111v7.015a16.238 16.238 0 0 0 16.22 16.22h11.2a16.224 16.224 0 0 0 16.191-16.22v-29.3h65.662a85.863 85.863 0 1 0 96.049-123.769v-46.71z" data-original="#eafaff" class=""></path><path fill="#c4daec" d="M438.381 87.848v-33.88a26.936 26.936 0 0 0-26.906-26.906H34.907A26.937 26.937 0 0 0 8 53.968v55.819h129.659a8 8 0 0 0 6.668-3.58L156.5 87.848z" data-original="#c4daec"></path><path fill="#72d1fb" d="M316.6 99.314h171.127A16.318 16.318 0 0 1 504 115.587V230.7a16.3 16.3 0 0 1-16.273 16.273H371.141l-38.359 38.359v-38.363H316.6a16.305 16.305 0 0 1-16.3-16.269V115.587a16.325 16.325 0 0 1 16.3-16.273zM276.67 336.112v-47.075a16.224 16.224 0 0 0-16.22-16.191h-11.168a16.224 16.224 0 0 0-16.22 16.191v7.019c-23.1 15.014-48.578 22.341-77.744 22.341H96.161a22.878 22.878 0 0 0-22.852 22.852v53.318a22.879 22.879 0 0 0 22.852 22.853h13.4l10.868 60.923a8 8 0 0 0 7.876 6.595h27.013a8 8 0 0 0 8-8v-59.314c25.813 1.212 48.74 8.481 69.744 22.111v7.015a16.238 16.238 0 0 0 16.22 16.22h11.2a16.224 16.224 0 0 0 16.191-16.22v-47.074a32.773 32.773 0 0 0 0-63.564z" data-original="#72d1fb" class=""></path><path fill="#ff6969" d="M260.45 272.846h-11.168a16.224 16.224 0 0 0-16.22 16.191V446.75a16.238 16.238 0 0 0 16.22 16.22h11.2a16.224 16.224 0 0 0 16.191-16.22V289.037a16.224 16.224 0 0 0-16.223-16.191z" data-original="#ff6969"></path><path fill="#f75e5e" d="M272.427 453.088h-11.2a16.238 16.238 0 0 1-16.221-16.22V279.155a16.071 16.071 0 0 1 1.17-6 16.222 16.222 0 0 0-13.118 15.887V446.75a16.238 16.238 0 0 0 16.22 16.22h11.2a16.209 16.209 0 0 0 15.022-10.183 16.16 16.16 0 0 1-3.073.301z" data-original="#f75e5e"></path><path fill="#ff6969" d="M163.617 318.172c-2.737.136-5.495.225-8.3.225H96.161a22.878 22.878 0 0 0-22.852 22.852v53.318a22.879 22.879 0 0 0 22.852 22.853h59.317c2.749 0 5.454.087 8.139.218z" data-original="#ff6969"></path><path fill="#f75e5e" d="M106.043 402.6a22.879 22.879 0 0 1-22.852-22.853v-53.321a22.893 22.893 0 0 1 .4-4.25 22.848 22.848 0 0 0-10.284 19.073v53.318a22.879 22.879 0 0 0 22.854 22.853h59.317c2.749 0 5.454.087 8.139.218V402.6z" data-original="#f75e5e"></path><path fill="#41739f" d="M155.478 417.42h-45.917l10.868 60.923a8 8 0 0 0 7.876 6.595h27.013a8 8 0 0 0 8-8v-59.314a163.36 163.36 0 0 0-7.84-.204z" data-original="#41739f"></path><path fill="#376f99" d="M126.043 432.959a7.063 7.063 0 0 1 6.953-8.3h30.322v-7.031c-2.587-.122-5.193-.2-7.84-.2h-45.917l10.868 60.923a8 8 0 0 0 7.876 6.595h7.01z" data-original="#376f99"></path><path fill="#51c8f2" d="M233.062 439.735V368.06c-2.581 40.5-69.445 34.536-69.445 34.536v15.047c25.691 1.257 48.523 8.515 69.445 22.092zM295.245 387.05c-18.116-8.085-18.575-24.9-18.575-24.9v37.53a32.874 32.874 0 0 0 18.575-12.63z" data-original="#51c8f2"></path><path fill="#83a7c5" fill-rule="evenodd" d="M56.336 76.418a7.994 7.994 0 1 0-7.993-7.993 8.009 8.009 0 0 0 7.993 7.993zM82.839 76.418a7.994 7.994 0 1 0-7.994-7.993 8 8 0 0 0 7.994 7.993zM109.313 76.418a7.994 7.994 0 1 0-7.993-7.993 7.985 7.985 0 0 0 7.993 7.993z" data-original="#83a7c5"></path><path fill="#ff6969" d="M418.107 291.241A85.879 85.879 0 1 0 504 377.105a85.961 85.961 0 0 0-85.893-85.864z" data-original="#ff6969"></path><path fill="#51c8f2" d="M315.3 230.7V115.587a16.325 16.325 0 0 1 16.3-16.273h-15a16.325 16.325 0 0 0-16.3 16.273V230.7a16.306 16.306 0 0 0 16.3 16.273h15a16.306 16.306 0 0 1-16.3-16.273zM347.782 246.969h-15v38.359l15-15z" data-original="#51c8f2"></path><path fill="#f75e5e" d="M347.243 377.105a85.967 85.967 0 0 1 78.366-85.517 86.542 86.542 0 0 0-7.5-.347 85.879 85.879 0 0 0 0 171.758c2.53 0 5.027-.133 7.5-.348a85.984 85.984 0 0 1-78.366-85.546z" data-original="#f75e5e"></path><g fill="#83a7c5"><path d="M106.933 179.687H81.479a8 8 0 1 1 0-16h25.454a8 8 0 0 1 0 16zM215.041 179.687h-85.518a8 8 0 0 1 0-16h85.518a8 8 0 0 1 0 16zM215.041 208.2H81.309a8 8 0 1 1 0-16h133.732a8 8 0 0 1 0 16zM215.041 236.689H81.309a8 8 0 0 1 0-16h133.732a8 8 0 0 1 0 16z" fill="#83a7c5" data-original="#83a7c5"></path></g><path fill="#ffffff" d="M354.3 152.64h6.236a8 8 0 0 0 0-16H354.3a8 8 0 0 0 0 16zM383.129 152.64h67.037a8 8 0 1 0 0-16h-67.037a8 8 0 0 0 0 16zM450.166 165.127h-96.034a8 8 0 0 0 0 16h96.034a8 8 0 0 0 0-16zM450.166 193.643h-96.034a8 8 0 0 0 0 16h96.034a8 8 0 0 0 0-16z" data-original="#ffffff" class=""></path><path fill="#cce6f2" d="M27 390.547V109.788H8v280.759a26.937 26.937 0 0 0 26.907 26.907h19A26.937 26.937 0 0 1 27 390.547z" data-original="#cce6f2"></path><path fill="#a3c0d9" d="M8 53.969v55.819h19V53.969a26.937 26.937 0 0 1 26.907-26.907h-19A26.937 26.937 0 0 0 8 53.969z" data-original="#a3c0d9"></path><path fill="#ffffff" d="m459.4 370.044-62.472-33.277a8 8 0 0 0-11.761 7.061v66.554a8 8 0 0 0 11.761 7.061l62.472-33.277a8 8 0 0 0 0-14.122z" data-original="#ffffff" class=""></path></g></svg>