<svg xmlns="http://www.w3.org/2000/svg" version="1.1" xmlns:xlink="http://www.w3.org/1999/xlink" xmlns:svgjs="http://svgjs.com/svgjs" width="512" height="512" x="0" y="0" viewBox="0 0 512 512" style="enable-background:new 0 0 512 512" xml:space="preserve" class=""><g><path fill="#eafaff" d="M479.226 354.649V37.3a28.81 28.81 0 0 0-28.777-28.776H36.777A28.81 28.81 0 0 0 8 37.3v369.738a28.8 28.8 0 0 0 28.777 28.749h259.2a22.994 22.994 0 0 0 2.743.17h13.4l10.868 60.923a8 8 0 0 0 7.876 6.6h27.013a8 8 0 0 0 8-8v-59.318c25.814 1.212 48.741 8.48 69.744 22.11v7.016a16.24 16.24 0 0 0 16.221 16.22h11.2a16.225 16.225 0 0 0 16.192-16.22v-47.075a32.773 32.773 0 0 0 0-63.564z" data-original="#eafaff" class=""></path><path fill="#c4daec" d="M450.449 8.524H36.777A28.81 28.81 0 0 0 8 37.3v60.525h141.648a8 8 0 0 0 6.672-3.586L169.906 73.7h309.32V37.3a28.81 28.81 0 0 0-28.777-28.776z" data-original="#c4daec"></path><path fill="#72d1fb" d="M479.226 354.649v-47.075a16.225 16.225 0 0 0-16.22-16.192h-11.168a16.225 16.225 0 0 0-16.221 16.192v7.019c-23.1 15.014-48.578 22.341-77.744 22.341h-59.157a22.878 22.878 0 0 0-22.853 22.852V413.1a22.879 22.879 0 0 0 22.853 22.853h13.4l10.868 60.923a8 8 0 0 0 7.876 6.6h27.013a8 8 0 0 0 8-8v-59.314c25.814 1.212 48.741 8.48 69.744 22.11v7.016a16.24 16.24 0 0 0 16.221 16.22h11.2a16.225 16.225 0 0 0 16.192-16.22v-47.075a32.773 32.773 0 0 0 0-63.564z" data-original="#72d1fb"></path><path fill="#ff6969" d="M463.006 291.382h-11.168a16.225 16.225 0 0 0-16.221 16.192v157.714a16.24 16.24 0 0 0 16.221 16.22h11.2a16.225 16.225 0 0 0 16.192-16.22V307.574a16.225 16.225 0 0 0-16.224-16.192z" data-original="#ff6969"></path><path fill="#f75e5e" d="M474.982 471.625h-11.2a16.239 16.239 0 0 1-16.221-16.22V297.692a16.064 16.064 0 0 1 1.17-6 16.221 16.221 0 0 0-13.118 15.887v157.709a16.24 16.24 0 0 0 16.221 16.22h11.2a16.209 16.209 0 0 0 15.016-10.183 16.152 16.152 0 0 1-3.068.3z" data-original="#f75e5e"></path><path fill="#ff6969" d="M366.172 336.709c-2.736.135-5.5.225-8.3.225h-59.156a22.878 22.878 0 0 0-22.853 22.852V413.1a22.879 22.879 0 0 0 22.853 22.853h59.317c2.749 0 5.454.087 8.139.218z" data-original="#ff6969"></path><path fill="#f75e5e" d="M308.6 421.133a22.878 22.878 0 0 1-22.852-22.853v-53.317a22.893 22.893 0 0 1 .4-4.25 22.848 22.848 0 0 0-10.285 19.073V413.1a22.879 22.879 0 0 0 22.853 22.853h59.317c2.749 0 5.454.087 8.139.218v-15.038z" data-original="#f75e5e"></path><path fill="#41739f" d="M358.033 435.957h-45.917l10.868 60.923a8 8 0 0 0 7.876 6.6h27.013a8 8 0 0 0 8-8v-59.319a166.004 166.004 0 0 0-7.84-.204z" data-original="#41739f"></path><path fill="#376f99" d="M328.6 451.5a7.063 7.063 0 0 1 6.953-8.3h30.322v-7.031c-2.587-.122-5.193-.2-7.84-.2h-45.919l10.868 60.923a8 8 0 0 0 7.876 6.6h7.01z" data-original="#376f99"></path><path fill="#51c8f2" d="M435.617 458.272V386.6c-2.581 40.5-69.445 34.536-69.445 34.536v15.044c25.691 1.255 48.528 8.52 69.445 22.092zM497.8 405.587c-18.115-8.085-18.574-24.9-18.574-24.9v37.53a32.872 32.872 0 0 0 18.574-12.63z" data-original="#51c8f2"></path><path fill="#83a7c5" fill-rule="evenodd" d="M59.538 61.168a7.994 7.994 0 1 0-7.993-7.993 8.021 8.021 0 0 0 7.993 7.993zM86.013 61.168a7.994 7.994 0 1 0-7.994-7.993 8.027 8.027 0 0 0 7.994 7.993zM112.516 61.168a7.994 7.994 0 1 0-8.022-7.993 8.021 8.021 0 0 0 8.022 7.993z" data-original="#83a7c5" class=""></path><path fill="#cce6f2" d="M28 407.038V97.825H8v309.213a28.8 28.8 0 0 0 28.777 28.749h20A28.8 28.8 0 0 1 28 407.038z" data-original="#cce6f2"></path><path fill="#a3c0d9" d="M8 37.3v60.525h20V37.3A28.81 28.81 0 0 1 56.777 8.524h-20A28.81 28.81 0 0 0 8 37.3z" data-original="#a3c0d9"></path><path fill="#72d1fb" d="M203.918 166.653a80.073 80.073 0 0 0-113.071 0h-.006a79.956 79.956 0 1 0 113.077 0z" data-original="#72d1fb"></path><g fill="#83a7c5"><path d="M261.442 178.043h75.172a8 8 0 0 0 0-16h-75.172a8 8 0 0 0 0 16zM261.442 204.631h150.344a8 8 0 0 0 0-16H261.442a8 8 0 0 0 0 16zM411.786 215.19H261.442a8 8 0 0 0 0 16h150.344a8 8 0 0 0 0-16zM411.786 241.778H261.442a8 8 0 1 0 0 16h150.344a8 8 0 0 0 0-16zM411.786 268.338H261.442a8 8 0 0 0 0 16h150.344a8 8 0 0 0 0-16z" fill="#83a7c5" data-original="#83a7c5" class=""></path></g><path fill="#6193ff" d="M203.918 166.653a80.073 80.073 0 0 0-113.071 0h-.006a79.956 79.956 0 1 0 113.077 0zm6.861 48.537h-26.243c-.731-16.648-3.745-32.861-9.053-45.893q-.963-2.37-1.969-4.461a63.7 63.7 0 0 1 37.265 50.354zm-62.847 71.9h-1.11c-3.164-.466-8.173-4.847-12.723-16.035-4.537-11.16-7.148-25.285-7.847-39.867h42.278c-.7 14.581-3.318 28.706-7.868 39.867-4.554 11.199-9.562 15.577-12.73 16.037zm-21.679-71.9c.7-14.577 3.311-28.7 7.847-39.869 4.54-11.162 9.536-15.551 12.7-16.033h1.15c3.165.477 8.166 4.861 12.712 16.039s7.163 25.287 7.865 39.862zm-24.095-37.222a63.678 63.678 0 0 1 19.086-13.123q-1 2.093-1.966 4.452c-5.294 13.031-8.3 29.243-9.031 45.89H83.983a63.676 63.676 0 0 1 18.175-37.219zM83.981 231.19h26.264c.729 16.654 3.736 32.868 9.033 45.894.643 1.58 1.3 3.057 1.972 4.455a63.677 63.677 0 0 1-37.269-50.349zM192.6 268.413a63.575 63.575 0 0 1-19.1 13.134 80.36 80.36 0 0 0 1.973-4.456c5.311-13.028 8.326-29.245 9.056-45.9h26.245a63.6 63.6 0 0 1-18.174 37.222z" data-original="#6193ff" class=""></path></g></svg>