<svg xmlns="http://www.w3.org/2000/svg" version="1.1" xmlns:xlink="http://www.w3.org/1999/xlink" xmlns:svgjs="http://svgjs.com/svgjs" width="512" height="512" x="0" y="0" viewBox="0 0 512 512" style="enable-background:new 0 0 512 512" xml:space="preserve" class=""><g><path fill="#eafaff" d="M443.212 134.24a79.373 79.373 0 0 0-39.155-21.5v-62.1A42.638 42.638 0 0 0 361.419 8h-210.8a42.638 42.638 0 0 0-42.637 42.638v90.792H77.117a6.141 6.141 0 0 0-5.571 3.558L45.988 200.13a6.147 6.147 0 0 0-.569 2.583V220.6a29.673 29.673 0 0 0 8.843 21.1v115.5a10 10 0 0 0 10 10h43.715v94.165A42.638 42.638 0 0 0 150.614 504h210.8a42.638 42.638 0 0 0 42.638-42.638V268.774a79.89 79.89 0 0 0 39.16-134.534z" data-original="#eafaff"></path><path fill="#72d1fb" d="M443.212 134.24a79.917 79.917 0 1 0 0 113.072 79.433 79.433 0 0 0 0-113.072z" data-original="#72d1fb" class=""></path><path fill="#41739f" d="M123.977 141.43V50.638A26.667 26.667 0 0 1 150.614 24h50a6.138 6.138 0 0 1 5.368 2.82l.525.744c5.114 7.272 12.844 18.262 26.761 18.262h47.648c12.863 0 19.029-9.6 23.109-15.944.71-1.105 1.38-2.148 2.026-3.068A6.208 6.208 0 0 1 311.446 24h49.973a26.668 26.668 0 0 1 26.638 26.638v60.225a80.546 80.546 0 0 1 16 1.873v-62.1A42.686 42.686 0 0 0 361.419 8h-210.8a42.685 42.685 0 0 0-42.637 42.638v90.792zM388.057 270.661v161.952h-264.08V367.2h-16v94.165A42.685 42.685 0 0 0 150.614 504h210.8a42.686 42.686 0 0 0 42.638-42.638V268.774a80.5 80.5 0 0 1-15.995 1.887z" data-original="#41739f"></path><path fill="#e1efff" d="m282.652 200.131-25.529-55.14a6.14 6.14 0 0 0-5.573-3.561H77.117a6.141 6.141 0 0 0-5.571 3.558L45.988 200.13a6.147 6.147 0 0 0-.569 2.583V220.6a29.673 29.673 0 0 0 8.843 21.1v115.5a10 10 0 0 0 10 10h200.115a10 10 0 0 0 10-10V241.712a29.681 29.681 0 0 0 8.844-21.116v-17.885a6.149 6.149 0 0 0-.569-2.58z" data-original="#e1efff"></path><path fill="#5d83a0" d="M275.362 476.307H236.7a8 8 0 0 1 0-16h38.663a8 8 0 1 1 0 16z" data-original="#5d83a0"></path><g fill="#cce6f2" fill-rule="evenodd"><path d="M283.866 408.129a7.993 7.993 0 1 0-7.993-7.993 8.027 8.027 0 0 0 7.993 7.993zM256.031 408.129a7.993 7.993 0 1 0-7.993-7.993 8.02 8.02 0 0 0 7.993 7.993zM228.168 408.129a7.993 7.993 0 1 0-7.994-7.993 8.027 8.027 0 0 0 7.994 7.993z" fill="#cce6f2" data-original="#cce6f2"></path></g><path fill="#ffe958" d="M71.546 144.988 45.988 200.13a6.147 6.147 0 0 0-.569 2.583V220.6a29.737 29.737 0 1 0 59.473 0 29.722 29.722 0 1 0 59.443 0 29.722 29.722 0 1 0 59.443 0 29.83 29.83 0 0 0 29.722 29.747 29.831 29.831 0 0 0 29.721-29.747v-17.889a6.133 6.133 0 0 0-.569-2.58l-25.529-55.14a6.14 6.14 0 0 0-5.573-3.561H77.118a6.141 6.141 0 0 0-5.572 3.558z" data-original="#ffe958"></path><path fill="#f4baa6" d="M149.421 367.2v-82.025a8 8 0 0 0-8-8H87.053a8 8 0 0 0-8 8V367.2z" data-original="#f4baa6"></path><rect width="83.404" height="53.957" x="166.212" y="277.175" fill="#72d1fb" rx="8" data-original="#72d1fb" class=""></rect><path fill="#efad9c" d="M97.053 277.175h-10a8 8 0 0 0-8 8V367.2h10v-82.025a8 8 0 0 1 8-8z" data-original="#efad9c"></path><path fill="#51c8f2" d="M173.212 323.132v-37.957a8 8 0 0 1 8-8h-7a8 8 0 0 0-8 8v37.957a8 8 0 0 0 8 8h7a8 8 0 0 1-8-8z" data-original="#51c8f2"></path><path fill="#ffdb06" d="M45.419 202.713V220.6a29.737 29.737 0 1 0 59.473 0v-17.887z" data-original="#ffdb06"></path><path fill="#f4cc08" d="M55.419 220.6v-17.887h-10V220.6a29.85 29.85 0 0 0 29.721 29.747 29.517 29.517 0 0 0 5-.433A29.881 29.881 0 0 1 55.419 220.6z" data-original="#f4cc08"></path><path fill="#f75e5e" d="M104.892 202.713V220.6a29.737 29.737 0 1 0 59.473 0v-17.887z" data-original="#f75e5e"></path><path fill="#ffdb06" d="M164.365 202.713V220.6a29.737 29.737 0 1 0 59.473 0v-17.887z" data-original="#ffdb06"></path><path fill="#f75e5e" d="M223.838 202.713V220.6a29.737 29.737 0 1 0 59.473 0v-17.887z" data-original="#f75e5e"></path><path fill="#ff6969" d="M164.335 141.43h-45.489l-13.954 61.283h59.443zM223.838 202.713h59.383a6.149 6.149 0 0 0-.569-2.58l-25.529-55.14a6.14 6.14 0 0 0-5.573-3.561h-41.7z" data-original="#ff6969"></path><path fill="#d7e8f9" d="M64.262 357.2V248.255a29.964 29.964 0 0 1-10-6.555v115.5a10 10 0 0 0 10 10h10a10 10 0 0 1-10-10z" data-original="#d7e8f9"></path><path fill="#ffdb06" d="M77.118 141.43a6.141 6.141 0 0 0-5.572 3.558L45.988 200.13a6.143 6.143 0 0 0-.569 2.583h10a6.143 6.143 0 0 1 .569-2.583l25.558-55.142a6.141 6.141 0 0 1 5.572-3.558z" data-original="#ffdb06"></path><path fill="#6193ff" d="M443.212 134.24a79.917 79.917 0 1 0 0 113.072 79.433 79.433 0 0 0 0-113.072zm6.864 48.537h-26.244c-.731-16.654-3.745-32.869-9.055-45.893a75.364 75.364 0 0 0-2-4.5 63.874 63.874 0 0 1 37.3 50.4zm-63.035 71.917c-.122 0-.245.009-.367.009s-.244-.008-.366-.009c-3.151-.309-8.269-4.628-12.916-16.054-4.547-11.165-7.164-25.288-7.866-39.863h42.3c-.7 14.576-3.319 28.7-7.866 39.867-4.649 11.422-9.767 15.741-12.919 16.05zm-21.516-71.917c.7-14.579 3.317-28.7 7.866-39.86v-.006c4.827-11.87 10.17-16.082 13.281-16.082s8.454 4.212 13.284 16.088c4.548 11.157 7.165 25.28 7.865 39.86zm-24.073-37.222a63.907 63.907 0 0 1 19.116-13.176 79.725 79.725 0 0 0-1.994 4.5c-5.31 13.027-8.325 29.244-9.055 45.9h-26.246a63.589 63.589 0 0 1 18.179-37.224zm-18.176 53.222h26.244c.731 16.649 3.745 32.862 9.052 45.894q.964 2.372 1.972 4.465a63.723 63.723 0 0 1-37.268-50.359zM431.9 236a63.6 63.6 0 0 1-19.091 13.137q1.005-2.1 1.97-4.462c5.308-13.034 8.322-29.249 9.055-45.9h26.242A63.663 63.663 0 0 1 431.9 236z" data-original="#6193ff" class=""></path><path fill="#cce6f2" d="M142.977 50.638A26.667 26.667 0 0 1 169.614 24h-19a26.637 26.637 0 0 0-26.637 26.638v90.792h19zM157.615 415.717a14.638 14.638 0 0 1-14.638-14.639V367.2h-19v65.416h264.08v-16.9z" data-original="#cce6f2"></path></g></svg>