<svg xmlns="http://www.w3.org/2000/svg" version="1.1" xmlns:xlink="http://www.w3.org/1999/xlink" xmlns:svgjs="http://svgjs.com/svgjs" width="512" height="512" x="0" y="0" viewBox="0 0 512 512" style="enable-background:new 0 0 512 512" xml:space="preserve" class=""><g><path fill="#e1efff" d="m484.755 194.05-51.481-42.36V86.5a8 8 0 0 0-2.342-5.657l-70.5-70.5A8 8 0 0 0 354.775 8H86.527a8 8 0 0 0-8 8v135.585l-51.281 42.181a8 8 0 0 0-2.918 6.178V496a8 8 0 0 0 8 8h447.146a8 8 0 0 0 8-8l.2-295.772a8 8 0 0 0-2.919-6.178z" data-original="#e1efff" class=""></path><path fill="#ffe22f" d="m484.755 194.05-51.481-42.36v86.339L259.2 381.246a5 5 0 0 1-6.353 0L78.527 237.849v-86.264l-51.281 42.181a8 8 0 0 0-2.918 6.178V496a8 8 0 0 0 8 8h447.146a8 8 0 0 0 8-8l.2-295.772a8 8 0 0 0-2.919-6.178z" data-original="#ffe22f" class=""></path><path fill="#fff180" d="M299.642 347.972 259.2 381.246a5 5 0 0 1-6.353 0L212.4 347.973 26.2 501.14a7.98 7.98 0 0 0 6.128 2.86h447.146a7.983 7.983 0 0 0 6.213-2.965z" data-original="#fff180" class=""></path><path fill="#72d1fb" d="m317.365 134.861-9.509-37.03a13.177 13.177 0 0 0-16.03-9.46l-8.785 2.256a13.177 13.177 0 0 0-9.488 16.014l1.418 5.521c-15.141 16.477-33.7 27.386-56.642 33.278L171.8 157.39a18.581 18.581 0 0 0-13.36 22.593l10.771 41.941a18.58 18.58 0 0 0 22.592 13.36l10.541-2.707 20.856 45.728a6.5 6.5 0 0 0 7.528 3.6l21.248-5.457a6.5 6.5 0 0 0 4.677-7.909l-11.981-46.658a111.057 111.057 0 0 1 59.328 3.3l1.417 5.519a13.188 13.188 0 0 0 16.036 9.482l8.807-2.262a13.176 13.176 0 0 0 9.46-16.03l-9.509-37.029a26.617 26.617 0 0 0-12.841-50z" data-original="#72d1fb"></path><path fill="#ff6969" d="m291.826 88.371-8.785 2.256a13.177 13.177 0 0 0-9.488 16.014L305.412 230.7a13.188 13.188 0 0 0 16.036 9.482l8.807-2.262a13.176 13.176 0 0 0 9.46-16.03L307.856 97.831a13.177 13.177 0 0 0-16.03-9.46z" data-original="#ff6969"></path><path fill="#f75e5e" d="M337.658 227.734 328.851 230a13.189 13.189 0 0 1-16.037-9.483L280.955 96.453a13.038 13.038 0 0 1-.292-4.959 13.172 13.172 0 0 0-7.11 15.147L305.412 230.7a13.188 13.188 0 0 0 16.036 9.482l8.807-2.262a13.163 13.163 0 0 0 9.755-11.043 13.085 13.085 0 0 1-2.352.857z" data-original="#f75e5e"></path><path fill="#ff6969" d="M224.811 143.587a136.004 136.004 0 0 1-6.482 1.853L171.8 157.39a18.581 18.581 0 0 0-13.36 22.593l10.771 41.941a18.58 18.58 0 0 0 22.592 13.36l46.54-11.952.12-.031a135.266 135.266 0 0 1 6.446-1.472z" data-original="#ff6969"></path><path fill="#f75e5e" d="M196.577 221.627a18.581 18.581 0 0 1-22.592-13.36l-10.771-41.941a18.626 18.626 0 0 1-.542-3.424 18.555 18.555 0 0 0-4.237 17.081l10.771 41.941a18.58 18.58 0 0 0 22.592 13.36l46.54-11.952.12-.031a135.266 135.266 0 0 1 6.446-1.472L241.866 210z" data-original="#f75e5e"></path><path fill="#41739f" d="m238.458 223.3-.12.031-36 9.245 20.862 45.729a6.5 6.5 0 0 0 7.528 3.6l21.248-5.457a6.5 6.5 0 0 0 4.677-7.909l-11.982-46.658c-2.064.424-4.131.886-6.213 1.419z" data-original="#41739f"></path><path fill="#376f99" d="M218.443 241.471a5.736 5.736 0 0 1 3.792-7.937l23.852-6.125-1.421-5.531c-2.059.427-4.126.889-6.208 1.423l-.12.031-36 9.245 20.862 45.728a6.5 6.5 0 0 0 7.528 3.6l5.514-1.416z" data-original="#376f99"></path><path fill="#51c8f2" d="M304 225.182 289.516 168.8c6.152 32.381-47.65 41.2-47.65 41.2l3.039 11.836A111.018 111.018 0 0 1 304 225.182zM342.266 171.178c-15.883-2.7-19.641-15.838-19.641-15.838l7.581 29.522a26.7 26.7 0 0 0 12.06-13.684z" data-original="#51c8f2"></path><path fill="#cadeef" d="M362.775 86.5h70.5a8 8 0 0 0-2.342-5.657l-70.5-70.5A8 8 0 0 0 354.775 8v70.5a8 8 0 0 0 8 8z" data-original="#cadeef"></path><path fill="#f7d119" d="m433.274 238.029 52.381-43.094a8.007 8.007 0 0 0-.9-.885l-51.481-42.36zM78.527 151.585l-51.281 42.181a7.883 7.883 0 0 0-1.039 1.044l52.32 43.039z" data-original="#f7d119"></path><path fill="#d7e8f9" d="m259.2 381.246 174.074-143.217v-19.673L259.2 361.573a5 5 0 0 1-6.353 0L78.527 218.176v19.673l174.318 143.4a5 5 0 0 0 6.355-.003z" data-original="#d7e8f9"></path><g fill="#edc315"><path d="m60.9 223.349 17.627 14.5v-86.264L60.9 166.084zM450.902 166.195l-17.628-14.505v86.339l17.628-14.502z" fill="#edc315" data-original="#edc315"></path></g></g></svg>