<svg xmlns="http://www.w3.org/2000/svg" version="1.1" xmlns:xlink="http://www.w3.org/1999/xlink" xmlns:svgjs="http://svgjs.com/svgjs" width="512" height="512" x="0" y="0" viewBox="0 0 472 472" style="enable-background:new 0 0 512 512" xml:space="preserve" class=""><g><path fill="#c6f7cb" d="m310.425 205.075 10.606 13.028.651-28.344c31.578-40.295 68.083-66.325 96.034-82.807 45.157-26.627 51.988-12.257 53.965 30.3 1.222 26.302-1.113 50.637-6.151 73.094l-17.877 16.842 12.571 3.077c-13.133 42.436-35.951 77.543-61.76 106.009l-22.278 9.321 12.574.94c-61.759 62.667-135.295 89.595-135.295 89.595-6.208-104.016 20.621-178.288 56.96-231.055z" data-original="#c6f7cb" class=""></path><path fill="#ffffff" d="m358.815 270.233 9.094-14.946 24.05-39.524 78.997-40.57c.032-.373.501-6.776.58-8.143a3.712 3.712 0 0 0-1.954.396l-70.141 36.022 63.891-105.002c-.966-1.929-4.228-3.723-6.238-4.225L354.951 262.107V157.106c0-1.004-.4-1.912-1.043-2.586a642.52 642.52 0 0 0-6.484 6.282v113.675l-94.296 154.97c.104 2.221.202 4.437.336 6.686l.094-.035a.017.017 0 0 0 .005-.002l.258-.097.039-.015c.637-.241 2.031-.778 4.086-1.62l.027-.011c.409-.168.844-.347 1.304-.539l.004-.002 50.34-82.731 110.212-41.04c.929-1.277 5.091-7.206 6.001-8.554a3.763 3.763 0 0 0-3.435-.425l-106.466 39.645 36.548-60.066 103.937-39.024a260.128 260.128 0 0 0 3.121-9.203z" data-original="#ffffff" class=""></path><path fill="#4a5e64" d="M267.31 459.74H20c-11.046 0-20-8.954-20-20V20C0 8.954 8.954 0 20 0h247.31c11.046 0 20 8.954 20 20v419.74c0 11.046-8.954 20-20 20z" data-original="#4a5e64" class=""></path><path fill="#ffffff" d="M21.058 25.541h245.195v408.658H21.058z" data-original="#ffffff" class=""></path><path fill="#4a5e64" d="M171.492 44.211h-55.674c-6.075 0-11-4.925-11-11V0h77.674v33.211c0 6.076-4.925 11-11 11z" data-original="#4a5e64" class=""></path><path fill="#e8469c" d="m208.5 64.589-62.623 52.641c-26.497 20.165-50.3 27.323-66.612 29.638-11.508 1.633-17.368 14.726-10.813 24.324l.231.338a15.629 15.629 0 0 0 12.894 6.771h41.75c8.913 0 17.385-3.88 23.207-10.629l41.679-48.313a137.651 137.651 0 0 1 10.278 53.894l-.062 5.048h18.141a180.716 180.716 0 0 1 6.937-64.809l.377-1.272.976-8.82a43.198 43.198 0 0 0-16.36-38.811z" data-original="#e8469c"></path><path fill="#a280ff" d="m168.178 272.712-47.984-.018-11.846 17.972 20.87 4.633s15.678-10.424 30.286 0l15.511 8.333 7.478-24.326z" data-original="#a280ff"></path><g fill="#9e6cff"><path d="M70.986 334.584c12.259 12.954 32.338 12.739 44.847-.48 8.582-9.068 13.794-36.654 13.77-50.491-.011-6.056-4.648-10.957-10.38-10.968-13.095-.026-39.201 5.482-47.783 14.55-12.509 13.218-12.713 34.435-.454 47.389zM216.514 334.584c-12.002 12.954-31.66 12.739-43.907-.48-8.402-9.068-13.505-36.654-13.481-50.491.011-6.056 4.551-10.957 10.162-10.968 12.82-.026 38.379 5.482 46.781 14.55 12.248 13.218 12.447 34.435.445 47.389z" fill="#9e6cff" data-original="#9e6cff"></path></g><g fill="#e0e0e0"><path d="M207.109 225.019H80.2a5 5 0 1 1 0-10h126.909a5 5 0 1 1 0 10zM207.109 385.417H80.2a5 5 0 1 1 0-10h126.909a5 5 0 1 1 0 10z" fill="#e0e0e0" data-original="#e0e0e0"></path></g><path fill="#d2ccff" d="M306.428 394.97c-12.678 47.143-37.693 81.426-55.872 76.572s-22.64-47.005-9.962-94.148 37.693-81.426 55.872-76.572 22.64 47.005 9.962 94.148zM398.949 394.97c12.678 47.143 37.693 81.426 55.872 76.572s22.64-47.005 9.962-94.148-37.693-81.426-55.872-76.572-22.64 47.005-9.962 94.148z" data-original="#d2ccff"></path><path fill="#a280ff" d="M448.325 472H256.03l18.505-155.643c1.1-9.251 8.944-16.219 18.261-16.219h118.763c9.316 0 17.161 6.967 18.261 16.219z" data-original="#a280ff"></path><g fill="#d2ccff"><path d="M395.087 350.204a5 5 0 0 1-5-5v-92.658c0-20.903-17.006-37.909-37.909-37.909s-37.909 17.006-37.909 37.909v92.658a5 5 0 1 1-10 0v-92.658c0-26.417 21.492-47.909 47.909-47.909s47.909 21.492 47.909 47.909v92.658a5 5 0 0 1-5 5z" fill="#d2ccff" data-original="#d2ccff"></path><path d="M435.632 360.245h-78.454v-5.416a5 5 0 1 0-10 0v5.416h-78.455a5 5 0 1 0 0 10h78.455v5.416a5 5 0 1 0 10 0v-5.416h78.454a5 5 0 1 0 0-10z" fill="#d2ccff" data-original="#d2ccff"></path></g><path fill="#f7c74d" d="m416.378 420.089-40.223.847c-11.457.241-20.872-8.985-20.863-20.444l.045-56.624a20.434 20.434 0 0 1 6.019-14.467l33.749-33.588 34.692 31.784a20.437 20.437 0 0 1 6.63 15.082l-.045 56.998c-.01 11.11-8.896 20.178-20.004 20.412z" data-original="#f7c74d"></path><path fill="#e5b148" d="M395.087 339.987a5 5 0 0 1-5-5v-42.538a5 5 0 1 1 10 0v42.538a5 5 0 0 1-5 5z" data-original="#e5b148"></path><path fill="#ffffff" d="M409.461 343.175c-.89 8.816-10.044 14.093-18.122 10.44-4.868-2.201-7.88-7.414-7.342-12.744.89-8.816 10.044-14.093 18.122-10.44 4.869 2.201 7.881 7.414 7.342 12.744z" data-original="#ffffff" class=""></path></g></svg>