<svg xmlns="http://www.w3.org/2000/svg" version="1.1" xmlns:xlink="http://www.w3.org/1999/xlink" xmlns:svgjs="http://svgjs.com/svgjs" width="512" height="512" x="0" y="0" viewBox="0 0 512 512" style="enable-background:new 0 0 512 512" xml:space="preserve" class=""><g><path fill="#acecef" d="M490 267c0 135.309-109.691 245-245 245S0 402.309 0 267 109.691 22 245 22s245 109.691 245 245zm0 0" data-original="#acecef" class=""></path><path fill="#ea2a3d" d="M383.324 83V5c0-2.75-2.25-5-5-5h-12c-2.75 0-5 2.25-5 5v78zm0 0" data-original="#ea2a3d" class=""></path><path fill="#b7092b" d="M372 83V5c0-2.75 2.25-5 5-5h-10.676c-2.75 0-5 2.25-5 5v78zm0 0" data-original="#b7092b" class=""></path><path fill="#eef6ff" d="m469.61 112-13.883-25.605C454.414 83.98 451.094 82 448.344 82h-152.04c-2.75 0-6.074 1.98-7.382 4.395L275.039 112zm0 0" data-original="#eef6ff"></path><path fill="#d9eafc" d="m306.57 112 13.883-25.605c1.309-2.415 4.633-4.395 7.383-4.395h-31.531c-2.75 0-6.075 1.98-7.383 4.395L275.039 112zm0 0" data-original="#d9eafc" class=""></path><path fill="#52bbef" d="M285.871 166.188a3.188 3.188 0 0 1 2.508-.508c.863.187 1.625.73 2.078 1.492a61.26 61.26 0 0 1 4.766 9.937 33.18 33.18 0 0 1 6.332 3.266 32.76 32.76 0 0 1 12.652 15.785l1.516.457c5.625-4 12.257-6.117 19.187-6.117a32.84 32.84 0 0 1 18.14 5.46 33.286 33.286 0 0 1 7.313 6.59 51.975 51.975 0 0 1 23.48 26.493 32.576 32.576 0 0 1 7.587-.902c17.894 0 32.457 14.562 32.457 32.46 0 1.75-.149 3.544-.442 5.317l.817 1.148c16.308 2.872 28.148 16.993 28.148 33.575 0 8.004-2.777 15.363-7.406 21.187h7.723c2.972 0 5.703 1.024 7.882 2.727L473.871 138H270.777l2.621 36.895zm0 0" data-original="#52bbef"></path><path fill="#2da1dc" d="M285.871 166.188a3.188 3.188 0 0 1 2.508-.508c.863.187 1.625.73 2.078 1.492a61.26 61.26 0 0 1 4.766 9.937 33.18 33.18 0 0 1 6.332 3.266 33.68 33.68 0 0 1 3.547 2.719L301.895 138h-31.118l2.621 36.895zm0 0" data-original="#2da1dc"></path><path fill="#ffffff" d="M411.55 235.156c7.509 5.95 12.337 15.14 12.337 25.442 0 1.754-.149 3.543-.442 5.316l.817 1.149c2.832.5 5.531 1.347 8.058 2.48l34.664-34.668 4.223-59.375zm0 0" data-original="#ffffff"></path><path fill="#d9eafc" d="M488.324 134c0 2.75-2.25 5-5 5h-222c-2.75 0-5-2.25-5-5v-18c0-2.75 2.25-5 5-5h222c2.75 0 5 2.25 5 5zm0 0" data-original="#d9eafc" class=""></path><path fill="#c3ddf4" d="M297 134v-18c0-2.75 2.25-5 5-5h-40.676c-2.75 0-5 2.25-5 5v18c0 2.75 2.25 5 5 5H302c-2.75 0-5-2.25-5-5zm0 0" data-original="#c3ddf4" class=""></path><path fill="#994334" d="M121.945 478.887C158.105 499.934 200.141 512 245 512c44.855 0 86.895-12.066 123.055-33.113zm0 0" data-original="#994334"></path><path fill="#ea2a3d" d="M68.93 166.523c-27.989-10.28-43.446-40.753-35.192-69.382a3.824 3.824 0 0 1 5-2.536l99.75 36.633c1 .367 1.801 1.133 2.215 2.114.41.98.395 2.09-.043 3.058-12.234 27.164-43.746 40.39-71.73 30.113zm0 0" data-original="#ea2a3d" class=""></path><path fill="#fe3745" d="M46.309 97.387c-2.407 20.867 9.765 41.41 30.066 48.863 20.297 7.457 42.871-.324 54.543-17.79zm0 0" data-original="#fe3745" class=""></path><g fill="#b7092b"><path d="M57.438 121.93a6.163 6.163 0 0 1-12.325 0 6.163 6.163 0 0 1 12.324 0zM67.645 140.379a6.16 6.16 0 0 1-7.907 3.656 6.16 6.16 0 0 1-3.66-7.906 6.162 6.162 0 0 1 11.567 4.25zM106.508 151.195a6.162 6.162 0 1 1-11.569-4.25 6.162 6.162 0 0 1 11.569 4.25zM126.25 140.293a6.16 6.16 0 1 1-12.32 0 6.16 6.16 0 0 1 12.32 0zM86.387 148.453a6.163 6.163 0 1 1-12.322-.006 6.163 6.163 0 0 1 12.322.006zm0 0" fill="#b7092b" data-original="#b7092b" class=""></path></g><path fill="#02af8e" d="m386.309 237.18.863.265c.848.262 1.555.868 1.941 1.664s.426 1.727.106 2.555a61.828 61.828 0 0 1-1.817 4.2c.028.702.051 1.41.051 2.12a51.39 51.39 0 0 1-3.601 18.922l6.773-6.777a12.764 12.764 0 0 1 9.086-3.762c3.43 0 6.656 1.336 9.082 3.762a12.764 12.764 0 0 1 3.762 9.086c0 3.43-1.336 6.656-3.762 9.082L399.09 288h14.62c5.032 0 9.384 2.914 11.49 7.14a12.74 12.74 0 0 1 7.722-2.597c3.43 0 6.656 1.336 9.082 3.762a12.77 12.77 0 0 1 3.762 9.086c0 3.43-1.336 6.656-3.762 9.082l-7.352 7.355h11.641a34.948 34.948 0 0 0 7.117-21.187c0-17.297-12.512-31.66-28.976-34.563.293-1.781.453-3.61.453-5.476 0-18.48-14.98-33.461-33.457-33.461-2.75 0-5.418.34-7.973.964a50.953 50.953 0 0 1 2.852 9.075zm0 0" data-original="#02af8e"></path><path fill="#a9d326" d="M335.797 210.121a37.641 37.641 0 0 0-19.211 5.258c.129.164.262.324.387.492l53.238 16.363c-5.988-13.035-19.156-22.113-34.414-22.113zM299.055 200.836a52.12 52.12 0 0 1 7.46 4.621 51.342 51.342 0 0 1 29.282-9.133 51.33 51.33 0 0 1 26.812 7.531 33.932 33.932 0 0 0-9.011-8.73c-12.067-7.969-27.34-7.23-38.457.68a33.825 33.825 0 0 0-13.036-16.266 33.976 33.976 0 0 0-7.359-3.668 61.342 61.342 0 0 1 4.309 24.965zm0 0" data-original="#a9d326"></path><path fill="#ff9518" d="M452.727 320.824h-17.079l-13.578 13.578c2 2.086 3.227 4.72 3.516 7.563h21.68c4.382 0 8.254 2.207 10.574 5.566 5.113-2.035 8.734-7.02 8.734-12.86 0-7.648-6.199-13.847-13.847-13.847zm0 0" data-original="#ff9518" class=""></path><path fill="#ffd00d" d="M425.656 343.29c0 3.429-1.336 6.655-3.761 9.081a12.762 12.762 0 0 1-5.208 3.164l41.762 7.414a13.759 13.759 0 0 0 2.664-8.14c0-7.645-6.199-13.844-13.847-13.844H425.44c.137.762.215 1.535.215 2.324zm0 0" data-original="#ffd00d" class=""></path><path fill="#ffaf10" d="M442.71 295.598c-4.91-4.907-12.577-5.344-17.995-1.34 1.16 1.93 1.84 4.18 1.84 6.59 0 7.082-5.766 12.843-12.848 12.843h-12.363l20.547 20.516c.3.3.586.613.851.938l19.969-19.965c5.406-5.407 5.406-14.172 0-19.582zm0 0" data-original="#ffaf10" class=""></path><path fill="#ffe98d" d="M402.797 313.691H389.59v1.47a189.881 189.881 0 0 1 15.02 37.655l.788.715 13.164 2.336a13.792 13.792 0 0 0 4.04-2.789c5.406-5.406 5.406-14.172 0-19.578zm0 0" data-original="#ffe98d"></path><path fill="#ffd00d" d="M383.164 303.922a189.742 189.742 0 0 1 6.176 10.77h24.367c7.648 0 13.848-6.196 13.848-13.844 0-7.649-6.2-13.848-13.848-13.848H400.09zm0 0" data-original="#ffd00d" class=""></path><path fill="#ffe98d" d="M370.652 286.07A190.718 190.718 0 0 1 383.7 304.8l25.801-25.796c5.406-5.406 5.406-14.176 0-19.582s-14.176-5.406-19.582 0l-5.238 5.238a51.784 51.784 0 0 1-14.028 21.41zm0 0" data-original="#ffe98d"></path><path fill="#a9d326" d="m87.188 267.348.984-.239a213.578 213.578 0 0 1 3.617-3.418l.113-1.351c-4.004-5.14-6.394-11.153-7.02-17.55-5.898 2.065-11.25 5.737-15.327 10.858 4.527 5.43 10.593 9.59 17.632 11.7zM30.605 389.754A190.617 190.617 0 0 1 76.82 279.082l-.332-1.562a50.06 50.06 0 0 1-13.297-9.118 33.984 33.984 0 0 0-.949 5.625c-12.39-.726-24.73 5.368-31.406 16.817-7.285 12.492-5.703 27.703 2.812 38.363a33.845 33.845 0 0 0-15.515 13.918c-9.457 16.227-3.977 37.047 12.25 46.508.074.043.148.082.222.12zm0 0" data-original="#a9d326"></path><path fill="#9bba19" d="M30.605 389.754c.051-.664.102-1.328.157-1.992-8.95-11.504-10.543-27.742-2.75-41.11 3.937-6.757 9.707-11.765 16.3-14.82.079-.184.157-.371.235-.559-8.988-11.507-10.606-27.773-2.805-41.156a36.606 36.606 0 0 1 19.45-16.11c-12.032-.335-23.868 5.712-30.36 16.84-7.281 12.493-5.7 27.704 2.816 38.364a33.845 33.845 0 0 0-15.515 13.918c-9.461 16.226-3.977 37.047 12.25 46.508.074.039.148.074.222.117zm0 0" data-original="#9bba19"></path><path fill="#37c47a" d="M83.71 241.402a34.971 34.971 0 0 0 8.032 22.348c12.797-11.781 27.192-21.852 42.832-29.813.035-.625.051-1.25.051-1.878 0-9.786-3.844-18.688-10.094-25.293a35.331 35.331 0 0 0-5.715-.47c-19.39 0-35.105 15.716-35.105 35.106zm0 0" data-original="#37c47a"></path><path fill="#2bb381" d="M118.816 206.297c-19.39 0-35.105 15.715-35.105 35.105a34.971 34.971 0 0 0 8.031 22.348 194.284 194.284 0 0 1 10.793-9.23A35.019 35.019 0 0 1 100 241.402c0-16.007 10.719-29.504 25.367-33.726a35.61 35.61 0 0 0-.824-.899 35 35 0 0 0-5.727-.48zm0 0" data-original="#2bb381"></path><path fill="#37c47a" d="M220.84 213.29c10.316 0 20.543.835 30.586 2.464-6.215-12.43-19.063-20.988-33.88-20.988-15.323 0-28.542 9.16-34.495 22.289a190.953 190.953 0 0 1 37.789-3.766zM147.793 227.836a189.7 189.7 0 0 1 19.441-6.867c3.078-13.285 11.293-24.617 22.43-31.793-6.242-5.711-14.547-9.207-23.676-9.207-13.383 0-25.011 7.488-30.937 18.504 7.14 7.922 11.8 18.12 12.742 29.363zm0 0" data-original="#37c47a"></path><path fill="#2bb381" d="M147.793 227.836c1.855-.77 3.73-1.504 5.617-2.219a35.117 35.117 0 0 1-1.62-10.547c0-15.746 10.37-29.07 24.651-33.52a35.124 35.124 0 0 0-10.453-1.581c-13.383 0-25.011 7.488-30.937 18.504 7.14 7.922 11.8 18.12 12.742 29.363zm0 0" data-original="#2bb381"></path><path fill="#ffffff" d="M77.012 278.863a192.045 192.045 0 0 1 11.57-12.156c-15.34-4.059-26.648-18.031-26.648-34.648 0-19.793 16.046-35.844 35.843-35.844s35.844 16.05 35.844 35.844c0 .812-.035 1.613-.09 2.41a191.607 191.607 0 0 1 15.235-7.032c-2.336-26.113-24.266-46.582-50.989-46.582-28.28 0-51.207 22.926-51.207 51.204 0 20.886 12.512 38.84 30.442 46.804zm0 0" data-original="#ffffff"></path><path fill="#ea2a3d" d="M410.691 385.238c.004.055.07 1.903.54 4.637h49.21a61.897 61.897 0 0 0 9.93-21.246 4.196 4.196 0 0 0-.547-3.313 4.193 4.193 0 0 0-2.793-1.855l-62.55-11.11a189.481 189.481 0 0 1 6.21 32.887zm0 0" data-original="#ea2a3d" class=""></path><path fill="#fe3745" d="M430.855 383.328a6.727 6.727 0 0 1 4.567 3.121 51.382 51.382 0 0 0 8.238-5.41 6.73 6.73 0 0 1-1.414-5.441 6.76 6.76 0 0 1 7.836-5.477 6.74 6.74 0 0 1 2.824 1.219 50.313 50.313 0 0 0 5.414-9.426l-53.84-9.562a189.779 189.779 0 0 1 6.211 32.886c0 .055.067 1.903.54 4.637h11.69c.009-.355.032-.715.099-1.074a6.758 6.758 0 0 1 7.835-5.473zm0 0" data-original="#fe3745" class=""></path><path fill="#b7092b" d="M436.43 389.875a6.758 6.758 0 0 0-13.41-1.074 6.69 6.69 0 0 0-.094 1.074zM455.555 377.957a6.752 6.752 0 0 1-7.836 5.473 6.756 6.756 0 0 1-5.473-7.832 6.758 6.758 0 1 1 13.309 2.36zm0 0" data-original="#b7092b" class=""></path><path fill="#ffffff" d="M361.035 274.836c3.586 3.89 7.004 7.91 10.242 12.055 10.555-9.63 17.176-23.493 17.176-38.907 0-1.37-.066-2.722-.172-4.066-5.094 11.719-13.734 21.355-24.351 27.871a38.067 38.067 0 0 1-2.895 3.047zM316.973 215.871l.48.145a36.697 36.697 0 0 1 18.344-4.895c14.57 0 27.16 8.453 33.144 20.723l18.23 5.601c.087.024.165.07.247.106-4.844-24.086-26.11-42.227-51.621-42.227a52.376 52.376 0 0 0-30.168 9.512 52.232 52.232 0 0 1 11.344 11.035zm0 0" data-original="#ffffff"></path><path fill="#ea2a3d" d="M220.84 213.29c5.07 0 10.113.214 15.129.608a52.151 52.151 0 0 1 8.351-8.015 38.109 38.109 0 0 0-8.152-6.203l-19.563 13.66c1.41-.028 2.82-.05 4.235-.05zM256.621 198.89a51.356 51.356 0 0 1 19.07-3.663c8.793 0 17.082 2.21 24.336 6.105.52-11.824-2.27-23.883-8.71-34.672a4.19 4.19 0 0 0-2.727-1.957 4.184 4.184 0 0 0-3.29.664l-36.976 25.82a52.213 52.213 0 0 1 8.297 7.704zm0 0" data-original="#ea2a3d" class=""></path><path fill="#fe3745" d="M220.84 213.29c5.07 0 10.113.214 15.129.608a52.151 52.151 0 0 1 8.351-8.015 38.109 38.109 0 0 0-8.152-6.203l-19.563 13.66c1.41-.028 2.82-.05 4.235-.05zM269.14 218.46c.04-2.98.286-5.983.77-8.991a37.63 37.63 0 0 0-5.57 1.3 51.175 51.175 0 0 1 2.71 7.16c.696.173 1.395.348 2.09.532zM276.355 191.473a6.759 6.759 0 0 1 1.668-9.41 6.7 6.7 0 0 1 2.836-1.133 50.335 50.335 0 0 0-2.812-10.496l-29.723 20.754a52.2 52.2 0 0 1 8.293 7.703 51.356 51.356 0 0 1 24.45-3.38c.05-.398.074-.796.117-1.195a6.726 6.726 0 0 1-4.829-2.843zm0 0" data-original="#fe3745" class=""></path><path fill="#b7092b" d="M288.656 187.602a6.758 6.758 0 0 1-6.761 6.757 6.758 6.758 0 1 1 0-13.515 6.758 6.758 0 0 1 6.761 6.758zm0 0" data-original="#b7092b" class=""></path><path fill="#ea2a3d" d="M275.691 209.027a37.7 37.7 0 0 0-5.785.442 62.202 62.202 0 0 0-.785 10.058 189.669 189.669 0 0 1 42.996 17.067c-4.496-15.887-19.117-27.567-36.426-27.567zM327.32 245.855a191.623 191.623 0 0 1 21.953 17.262 192.946 192.946 0 0 1 11.653 11.586c12.965-6.824 23.594-18.14 29.222-32.68a4.205 4.205 0 0 0-2.684-5.535l-71.597-22.004c6.961 8.621 11.223 19.508 11.453 31.371zm0 0" data-original="#ea2a3d" class=""></path><path fill="#fe3745" d="M312.117 236.594c-3.71-13.117-14.332-23.364-27.664-26.535a50.723 50.723 0 0 0 3.059 15.3 190.7 190.7 0 0 1 24.605 11.235zM349.137 251.79a6.732 6.732 0 0 1 4.156 3.66 51.714 51.714 0 0 0 8.828-4.376 6.737 6.737 0 0 1-.738-5.566 6.76 6.76 0 0 1 8.449-4.477 6.716 6.716 0 0 1 2.648 1.551 50.621 50.621 0 0 0 6.532-8.691l-63.145-19.407c6.961 8.621 11.223 19.508 11.457 31.371a191.973 191.973 0 0 1 13.504 10.032 6.754 6.754 0 0 1 8.309-4.098zm0 0" data-original="#fe3745" class=""></path><path fill="#b7092b" d="M349.273 263.117c.38.348.75.703 1.13 1.055a6.75 6.75 0 0 0 3.206-3.934 6.764 6.764 0 0 0-4.476-8.449 6.75 6.75 0 0 0-8.309 4.102c2.871 2.328 5.7 4.718 8.45 7.226zM374.602 247.492c0 3.735-3.024 6.758-6.758 6.758s-6.758-3.023-6.758-6.758c0-3.734 3.023-6.758 6.758-6.758s6.758 3.024 6.758 6.758zm0 0" data-original="#b7092b" class=""></path><path fill="#ffe2b8" d="M251.414 215.754a37.972 37.972 0 0 0-7.84-10.586 53.023 53.023 0 0 0-8.824 8.633 190.64 190.64 0 0 1 16.664 1.953zM275.691 210.027c16.543 0 30.54 10.895 35.204 25.903a190.114 190.114 0 0 1 17.445 10.605c-.188-28.922-23.684-52.308-52.649-52.308a52.482 52.482 0 0 0-19.773 3.851 51.816 51.816 0 0 1 8.832 13.602 36.82 36.82 0 0 1 10.941-1.653zm0 0" data-original="#ffe2b8"></path><path fill="#ffffff" d="M184.238 216.824c5.918-12.449 18.606-21.058 33.309-21.058 14.203 0 26.523 8.035 32.676 19.804 6.168.961 12.273 2.215 18.289 3.77-5.887-22.653-26.473-39.375-50.965-39.375-25.192 0-46.238 17.695-51.422 41.332a189.18 189.18 0 0 1 18.113-4.473zm0 0" data-original="#ffffff"></path><path fill="#ffaf10" d="M412.227 389.875c-.489-2.82-.54-4.734-.54-4.734-9.539-96.895-91.488-172.852-190.847-172.852-100.977 0-183.969 78.441-191.258 177.586zm0 0" data-original="#ffaf10" class=""></path><path fill="#ff9518" d="M453.504 408.773c.07-.277.152-.55.21-.828-.273.125-.538.235-.812.356.196.164.399.316.602.472zM60.863 389.875c6.91-93.969 81.825-169.324 175.598-176.941a193.095 193.095 0 0 0-15.621-.645c-100.977 0-183.969 78.441-191.258 177.586zM344.805 307.223c0 10.3-8.352 18.648-18.653 18.648-10.297 0-18.648-8.348-18.648-18.648 0-10.301 8.351-18.649 18.648-18.649 10.301 0 18.653 8.348 18.653 18.649zm0 0" data-original="#ff9518" class=""></path><path fill="#ffd00d" d="M378.305 363.973c0 8.039-6.52 14.554-14.559 14.554s-14.555-6.515-14.555-14.554c0-8.04 6.516-14.555 14.555-14.555 8.04 0 14.559 6.516 14.559 14.555zm0 0" data-original="#ffd00d" class=""></path><path fill="#ff9518" d="M318.477 357.848c0 6.148-4.985 11.129-11.133 11.129s-11.13-4.98-11.13-11.13c0-6.148 4.981-11.132 11.13-11.132s11.133 4.984 11.133 11.133zm0 0" data-original="#ff9518" class=""></path><path fill="#ffd00d" d="M292.145 268.824c0 7.88-6.383 14.266-14.262 14.266-7.875 0-14.262-6.387-14.262-14.266 0-7.875 6.387-14.261 14.262-14.261 7.879 0 14.262 6.386 14.262 14.261zm0 0" data-original="#ffd00d" class=""></path><path fill="#60d882" d="M180.383 140a29.635 29.635 0 0 1-16.45-4.98c-7.761-5.16-12.578-13.465-13.21-22.79a29.62 29.62 0 0 1-19.09-4.855c-12.38-8.227-16.793-24.492-10.266-37.828l-16.043-42.352a5.003 5.003 0 0 1 4.5-6.77l45.258-1.6a29.75 29.75 0 0 1 22.414-10.153c5.86 0 11.543 1.723 16.441 4.976 5.688 3.782 9.79 9.22 11.864 15.723a29.89 29.89 0 0 1 9.695-1.613c5.856 0 11.54 1.719 16.434 4.972 13.668 9.086 17.394 27.594 8.308 41.258a35.066 35.066 0 0 1-1.152 1.61c12.324 9.48 15.226 27.066 6.613 40.023-5.527 8.32-14.8 13.285-24.804 13.285a29.692 29.692 0 0 1-14.668-3.883c-.329.57-.66 1.133-1.032 1.684A29.722 29.722 0 0 1 180.383 140zm0 0" data-original="#60d882" class=""></path><path fill="#2bb381" d="M214.992 67.559c-7.062-1.68-14.668.578-20.453 5.73l-11.906-7.91c5.058-4.422 11.43-6.48 17.008-5.152a6.933 6.933 0 0 0 8.351-5.141c.887-3.73-1.414-7.473-5.14-8.356-10.852-2.582-22.645 1.352-31.25 9.958-.27.269-.528.55-.79.832l-13.863-9.215c5.059-4.422 11.43-6.48 17.008-5.149a6.934 6.934 0 0 0 8.352-5.144 6.938 6.938 0 0 0-5.141-8.356c-10.852-2.578-22.645 1.356-31.25 9.957-.27.274-.527.555-.79.832L114.75 20.254l-4.934.176a4.995 4.995 0 0 0-3.98 2.23 5.005 5.005 0 0 0-.512 4.54l1.75 4.612 30.383 20.196c-5.102 11.535-4.34 24.426 2.45 33.71a6.932 6.932 0 0 0 9.69 1.509 6.93 6.93 0 0 0 1.508-9.696c-3.382-4.629-3.953-11.297-1.835-17.672l13.87 9.223c-5.1 11.535-4.34 24.426 2.45 33.711a6.932 6.932 0 0 0 9.691 1.508 6.935 6.935 0 0 0 1.508-9.696c-3.383-4.628-3.953-11.296-1.836-17.671l11.918 7.921c-2.508 7.325-1.66 15.207 2.617 21.07 2.258 3.095 6.598 3.77 9.696 1.513s3.77-6.598 1.511-9.692c-.82-1.125-1.316-2.746-1.332-4.59l7.801 5.188a6.936 6.936 0 1 0 7.68-11.555l-7.801-5.187c1.703-.696 3.387-.868 4.742-.543a6.938 6.938 0 1 0 3.207-13.5zm0 0" data-original="#2bb381"></path><path fill="#52bbef" d="M30.375 431h429.25l20.09-34.797a4.896 4.896 0 0 0 0-4.887 4.891 4.891 0 0 0-4.235-2.441H14.52c-1.747 0-3.36.93-4.235 2.441a4.896 4.896 0 0 0 0 4.887zm0 0" data-original="#52bbef"></path><path fill="#2da1dc" d="M30.375 431h41.633l-20.09-34.797a4.885 4.885 0 0 1 4.23-7.328H14.52c-1.747 0-3.36.93-4.235 2.441a4.896 4.896 0 0 0 0 4.887zm0 0" data-original="#2da1dc"></path><path fill="#bf7e52" d="M490 474.887c0 2.75-2.25 5-5 5H5c-2.75 0-5-2.25-5-5V435c0-2.75 2.25-5 5-5h480c2.75 0 5 2.25 5 5zm0 0" data-original="#bf7e52"></path><path fill="#a86639" d="M51 474.887V435c0-2.75 2.25-5 5-5H5c-2.75 0-5 2.25-5 5v39.887c0 2.75 2.25 5 5 5h51c-2.75 0-5-2.25-5-5zm0 0" data-original="#a86639"></path></g></svg>