<svg xmlns="http://www.w3.org/2000/svg" version="1.1" xmlns:xlink="http://www.w3.org/1999/xlink" xmlns:svgjs="http://svgjs.com/svgjs" width="512" height="512" x="0" y="0" viewBox="0 0 512 512" style="enable-background:new 0 0 512 512" xml:space="preserve" class=""><g><path fill="#eafaff" d="M475.223 19.38H36.777A28.809 28.809 0 0 0 8 48.157v369.737a28.8 28.8 0 0 0 28.777 28.748h102.867a62.594 62.594 0 0 0-44.772 29.976H64.7a8 8 0 0 0 0 16h382.6a8 8 0 0 0 0-16h-30.173a62.6 62.6 0 0 0-44.771-29.976h102.867A28.8 28.8 0 0 0 504 417.894V48.157a28.809 28.809 0 0 0-28.777-28.777z" data-original="#eafaff" class=""></path><path fill="#ffe958" d="m334.259 305.98-14.091-14.093a224.33 224.33 0 0 0-.691-52.92c-6.271-45.991-27.949-82.812-59.475-101.023a8 8 0 0 0-8 0c-31.526 18.211-53.2 55.032-59.474 101.023a224.223 224.223 0 0 0-.691 52.92l-14.096 14.093c-10.1 10.131-18.008 33.267-18.008 52.671v37.984a8 8 0 0 0 13.394 5.907l38.146-34.842q3.705 8.937 8.051 17.716a8 8 0 0 0 7.168 4.446h59.016a8 8 0 0 0 7.168-4.446q4.347-8.769 8.052-17.716l38.145 34.838a8 8 0 0 0 13.395-5.907v-37.98c0-19.404-7.911-42.54-18.009-52.671z" data-original="#ffe958"></path><path fill="#bed7ea" d="M447.3 476.618h-30.173a62.5 62.5 0 0 0-53.527-30.613h-.157c-5.968-25.116-28.907-40.931-60.531-40.931-3.2 0-9.075-.008-9.388-21.4-.284.582-.56 1.165-.847 1.746a8 8 0 0 1-7.168 4.446h-59.017a8 8 0 0 1-7.168-4.446c-.3-.6-.582-1.2-.875-1.8-.3 21.449-6.17 21.458-9.361 21.458-31.624 0-54.561 15.815-60.53 40.931h-.158a62.5 62.5 0 0 0-53.53 30.613H64.7a8 8 0 0 0 0 16h382.6a8 8 0 0 0 0-16z" data-original="#bed7ea"></path><path fill="#c4daec" d="M475.223 19.38H36.777A28.809 28.809 0 0 0 8 48.157v60.524h141.648a8 8 0 0 0 6.672-3.586l13.586-20.536H504v-36.4a28.809 28.809 0 0 0-28.777-28.779z" data-original="#c4daec" class=""></path><path fill="#83a7c5" fill-rule="evenodd" d="M59.538 72.024a7.994 7.994 0 1 0-7.993-7.994 8.021 8.021 0 0 0 7.993 7.994zM86.013 72.024a7.994 7.994 0 1 0-7.994-7.994 8 8 0 0 0 7.994 7.994zM112.516 72.024a7.994 7.994 0 1 0-8.022-7.994 8.021 8.021 0 0 0 8.022 7.994z" data-original="#83a7c5"></path><path fill="#cce6f2" d="M28 417.894V108.681H8v309.213a28.8 28.8 0 0 0 28.777 28.748h20A28.8 28.8 0 0 1 28 417.894z" data-original="#cce6f2"></path><path fill="#a3c0d9" d="M8 48.157v60.524h20V48.157A28.809 28.809 0 0 1 56.776 19.38h-20A28.809 28.809 0 0 0 8 48.157z" data-original="#a3c0d9"></path><path fill="#ff6969" d="M252 137.944c-23.625 13.647-41.72 37.746-51.944 68.323h111.89c-10.224-30.577-28.318-54.676-51.946-68.323a8 8 0 0 0-8 0z" data-original="#ff6969" class=""></path><path fill="#f75e5e" d="M253.86 137.168a8 8 0 0 0-1.862.776c-23.625 13.647-41.72 37.746-51.944 68.323h13.608c7.768-28.85 21.685-52.806 40.198-69.099z" data-original="#f75e5e"></path><path fill="#ff6969" d="M211.273 367.7q3.705 8.937 8.051 17.716a8 8 0 0 0 7.168 4.446h59.016a8 8 0 0 0 7.168-4.446q4.347-8.769 8.052-17.716z" data-original="#ff6969" class=""></path><path fill="#f75e5e" d="M219.324 385.42a8 8 0 0 0 7.168 4.446h16a7.975 7.975 0 0 1-7.168-4.643q-4.118-8.676-7.653-17.519h-16.4q3.707 8.937 8.053 17.716z" data-original="#f75e5e"></path><path fill="#ff6969" d="M256 241.068a22.6 22.6 0 1 0 22.6 22.6 22.624 22.624 0 0 0-22.6-22.6z" data-original="#ff6969" class=""></path><path fill="#f75e5e" d="M241.4 263.666A22.631 22.631 0 0 1 260 241.43a22.6 22.6 0 1 0 0 44.473 22.632 22.632 0 0 1-18.6-22.237z" data-original="#f75e5e"></path><g fill="#83a7c5"><path d="M384.942 180.905h-6.235a8 8 0 0 1 0-16h6.235a8 8 0 0 1 0 16zM447.926 180.905h-40.392a8 8 0 0 1 0-16h40.392a8 8 0 0 1 0 16zM447.926 209.392h-69.389a8 8 0 0 1 0-16h69.389a8 8 0 0 1 0 16zM70.479 209.392h-6.236a8 8 0 1 1 0-16h6.236a8 8 0 0 1 0 16zM133.463 209.392H93.071a8 8 0 1 1 0-16h40.392a8 8 0 1 1 0 16zM133.463 237.907h-69.39a8 8 0 1 1 0-16h69.39a8 8 0 0 1 0 16zM418.929 237.907h-40.392a8 8 0 0 1 0-16h40.392a8 8 0 0 1 0 16z" fill="#83a7c5" data-original="#83a7c5"></path></g><path fill="#ffdb06" d="M227.671 367.7c-17.987-44.846-24.779-92.291-19.147-135.428a199.228 199.228 0 0 1 5.138-26.009h-13.608a179.67 179.67 0 0 0-7.53 32.7c-5.591 41 1.056 86.073 18.749 128.737z" data-original="#ffdb06"></path><path fill="#bed7ea" d="M99.641 492.62h.028-.064zM412.358 492.62h.036-.064z" data-original="#bed7ea"></path><path fill="#aacde2" d="M447.028 476.618h-257.72a18.583 18.583 0 0 1-14.522-6.678c-3.275-4.062-4.847-9.564-3.524-16.992 6.117-34.353 36.714-35.484 45.968-37.883 10.441-2.706 9.262-25.2 9.262-25.2a8 8 0 0 1-7.168-4.446c-.3-.6-.582-1.2-.875-1.8-.3 21.449-6.17 21.458-9.361 21.458-31.624 0-54.561 15.815-60.53 40.931a62.5 62.5 0 0 0-53.686 30.613h-29.9a8.182 8.182 0 0 0-8.257 7.467 8 8 0 0 0 7.982 8.533H447.3a8 8 0 0 0 7.982-8.533 8.182 8.182 0 0 0-8.254-7.47z" data-original="#aacde2"></path><path fill="#ffab1e" d="M232.849 389.866c1.122 29.236 8.364 46.364 16.147 60.465a8 8 0 0 0 14.008 0c7.783-14.1 15.025-31.229 16.147-60.465z" data-original="#ffab1e"></path><path fill="#f7d119" d="M247.033 389.866c.434 16.6 3.24 26.318 6.254 34.323a2.742 2.742 0 0 0 5.426 0c3.014-8 5.82-17.727 6.254-34.323z" data-original="#f7d119"></path><path fill="#efc411" d="M257.073 397.418h7.5c.187-2.356.326-4.855.4-7.552h-17.94c.109 4.175.369 7.913.744 11.3a13.406 13.406 0 0 1 9.296-3.748z" data-original="#efc411"></path><path fill="#f49b19" d="M247.777 401.165c-.375-3.386-.635-7.124-.744-11.3h-14.184c1.122 29.236 8.364 46.364 16.147 60.465a8 8 0 0 0 7 4.135c-9.05-14.9-11.708-31.532-12.334-42.977a13.238 13.238 0 0 1 4.115-10.323zM264.967 389.866c-.07 2.7-.209 5.2-.4 7.552h14.135c.194-2.426.345-4.938.445-7.552z" data-original="#f49b19"></path><path fill="#ff6969" d="m191.833 291.887-14.092 14.093c-10.1 10.131-18.008 33.267-18.008 52.671v37.984a8 8 0 0 0 13.394 5.907l38.146-34.842a270.176 270.176 0 0 1-19.44-75.813z" data-original="#ff6969" class=""></path><path fill="#f75e5e" d="M194.371 347.12a20.882 20.882 0 0 1-7.845 22.353c-9.4 6.847-22.577 9.516-26.438-18.193a79.395 79.395 0 0 0-.355 7.371v37.984a8 8 0 0 0 13.394 5.907l38.146-34.842a270.176 270.176 0 0 1-19.44-75.817s-4.297 30.262 2.538 55.237z" data-original="#f75e5e"></path><path fill="#ff6969" d="m320.168 291.887 14.091 14.093c10.1 10.131 18.009 33.267 18.009 52.671v37.984a8 8 0 0 1-13.395 5.907L300.728 367.7a270.21 270.21 0 0 0 19.44-75.813z" data-original="#ff6969" class=""></path><path fill="#f75e5e" d="M317.629 347.12a20.882 20.882 0 0 0 7.845 22.353c9.4 6.847 22.577 9.516 26.438-18.193a79.4 79.4 0 0 1 .356 7.371v37.984a8 8 0 0 1-13.395 5.907L300.728 367.7a270.21 270.21 0 0 0 19.44-75.817s4.296 30.262-2.539 55.237z" data-original="#f75e5e"></path></g></svg>