<svg xmlns="http://www.w3.org/2000/svg" version="1.1" xmlns:xlink="http://www.w3.org/1999/xlink" xmlns:svgjs="http://svgjs.com/svgjs" width="512" height="512" x="0" y="0" viewBox="0 0 512 512" style="enable-background:new 0 0 512 512" xml:space="preserve" class=""><g><path fill="#eafaff" d="m501.375 454.459-22.145-38.377v-88.791a96.766 96.766 0 0 0 0-41.873V48.917a28.81 28.81 0 0 0-28.777-28.778H36.773A28.811 28.811 0 0 0 8 48.917V418.66a28.8 28.8 0 0 0 28.777 28.749h396.752l20.008 34.675a19.472 19.472 0 0 0 11.912 9.105 19.794 19.794 0 0 0 5.094.672 19.415 19.415 0 0 0 9.763-2.637l13.873-8.012a19.591 19.591 0 0 0 7.2-26.753z" data-original="#eafaff" class=""></path><path fill="#83a7c5" d="M360.313 127.007a28.251 28.251 0 0 0-26.732 37.437l-33.62 23.869a28.2 28.2 0 0 0-38.345 3.183L232.6 177.427a28.267 28.267 0 1 0-55.764-.01L147.809 191.5a28.284 28.284 0 1 0 6.991 14.4l29.032-14.087a28.224 28.224 0 0 0 41.782.008l29.013 14.068a28.267 28.267 0 1 0 54.613-4.535l33.62-23.869a28.259 28.259 0 1 0 17.457-50.475z" data-original="#83a7c5" class=""></path><path fill="#ff6969" d="m501.375 454.459-31.32-54.28a56.942 56.942 0 0 0-8.851-11.73l-10.5-10.9a97.419 97.419 0 1 0-91.868 23.041 97.95 97.95 0 0 0 25.366 3.361 96.175 96.175 0 0 0 28.09-4.193l4.177 14.526a58.523 58.523 0 0 0 5.744 13.509l31.329 54.3a19.472 19.472 0 0 0 11.912 9.105 19.794 19.794 0 0 0 5.094.672 19.415 19.415 0 0 0 9.763-2.637l13.873-8.012a19.591 19.591 0 0 0 7.2-26.753zm-81.712-86.293a70.78 70.78 0 0 1-35.492 9.574 71.358 71.358 0 0 1-68.946-89.694 71.237 71.237 0 1 1 104.438 80.12z" data-original="#ff6969" class=""></path><path fill="#c4daec" d="M450.45 20.14H36.778A28.81 28.81 0 0 0 8 48.917v60.524h141.649a8 8 0 0 0 6.672-3.586l13.586-20.536h309.319v-36.4A28.809 28.809 0 0 0 450.45 20.14z" data-original="#c4daec"></path><path fill="#a3c0d9" d="M8 48.917v60.524h20V48.917A28.809 28.809 0 0 1 56.777 20.14h-20A28.81 28.81 0 0 0 8 48.917z" data-original="#a3c0d9"></path><path fill="#f75e5e" d="M394.982 399.8a97.943 97.943 0 0 1-25.366-3.36 97.429 97.429 0 0 1-23.5-178.486q4.219-2.439 8.6-4.428a98.287 98.287 0 0 0-19.387 8.574 97.436 97.436 0 0 0 23.5 178.486 97.95 97.95 0 0 0 25.366 3.361 96.468 96.468 0 0 0 40.028-8.71 96.212 96.212 0 0 1-29.241 4.563z" data-original="#f75e5e" class=""></path><g fill="#83a7c5"><path fill-rule="evenodd" d="M59.535 72.784a7.994 7.994 0 1 0-7.993-7.994 8.021 8.021 0 0 0 7.993 7.994zM86.01 72.784a7.994 7.994 0 1 0-7.993-7.994 8.027 8.027 0 0 0 7.993 7.994zM112.514 72.784a7.994 7.994 0 1 0-8.022-7.994 8.021 8.021 0 0 0 8.022 7.994z" fill="#83a7c5" data-original="#83a7c5" class=""></path><path d="M450.7 377.545a98.479 98.479 0 0 1-38.412 22.209l4.177 14.526a59.825 59.825 0 0 0 2.82 7.776l47.264-27.289a57.308 57.308 0 0 0-5.344-6.318z" fill="#83a7c5" data-original="#83a7c5" class=""></path></g><path fill="#628db2" d="m430.111 408.162-3.976-13.829a97.49 97.49 0 0 1-13.848 5.421l4.177 14.526a59.825 59.825 0 0 0 2.82 7.776l13.042-7.53a61.055 61.055 0 0 1-2.215-6.364z" data-original="#628db2"></path><path fill="#f75e5e" d="M484.19 485.743a19.751 19.751 0 0 1-5.094-.672 19.472 19.472 0 0 1-11.912-9.105l-31.329-54.3a59.538 59.538 0 0 1-3.529-7.145l-13.042 7.53a60.95 60.95 0 0 0 2.924 5.733l31.329 54.3a19.472 19.472 0 0 0 11.912 9.105 19.794 19.794 0 0 0 5.094.672 19.415 19.415 0 0 0 9.763-2.637l6.294-3.635a19.374 19.374 0 0 1-2.41.154z" data-original="#f75e5e" class=""></path><path fill="#cce6f2" d="M426.722 362.47a70.781 70.781 0 0 1-35.492 9.573 71.359 71.359 0 0 1-68.947-89.693 70.77 70.77 0 0 1 20.6-34.022 71.233 71.233 0 0 0 22.729 126.952 71.615 71.615 0 0 0 18.559 2.46 70.78 70.78 0 0 0 35.492-9.574 71.757 71.757 0 0 0 12.593-9.247 72.356 72.356 0 0 1-5.534 3.551zM28 418.66V109.441H8V418.66a28.8 28.8 0 0 0 28.777 28.749h20A28.8 28.8 0 0 1 28 418.66z" data-original="#cce6f2" class=""></path><rect width="56.534" height="97.069" x="96.067" y="285.347" fill="#72d1fb" rx="8" data-original="#72d1fb" class=""></rect><rect width="56.506" height="134.798" x="173.876" y="247.619" fill="#9dd46f" rx="8" data-original="#9dd46f" class=""></rect><path fill="#9dd46f" d="M232.99 172.792a28.267 28.267 0 1 1-28.267-28.267 28.3 28.3 0 0 1 28.267 28.267zm127.323-45.785a28.268 28.268 0 1 0 28.268 28.268 28.3 28.3 0 0 0-28.268-28.268z" data-original="#9dd46f" class=""></path><path fill="#72d1fb" d="M310.771 210.521a28.267 28.267 0 1 1-28.271-28.268 28.3 28.3 0 0 1 28.271 28.268zm-183.858-28.268a28.268 28.268 0 1 0 28.268 28.268 28.3 28.3 0 0 0-28.268-28.268z" data-original="#72d1fb" class=""></path><path fill="#94c961" d="M185.456 172.792a28.31 28.31 0 0 1 23.767-27.9 28.268 28.268 0 1 0 0 55.811 28.311 28.311 0 0 1-23.767-27.911zM341.046 155.275a28.31 28.31 0 0 1 23.767-27.906 28.268 28.268 0 1 0 0 55.81 28.31 28.31 0 0 1-23.767-27.904z" data-original="#94c961" class=""></path><path fill="#4fcbf7" d="M107.646 210.521a28.312 28.312 0 0 1 23.767-27.906 28.268 28.268 0 1 0 0 55.811 28.311 28.311 0 0 1-23.767-27.905zM263.237 210.521A28.311 28.311 0 0 1 287 182.615a28.268 28.268 0 1 0 0 55.811 28.31 28.31 0 0 1-23.763-27.905z" data-original="#4fcbf7" class=""></path><path fill="#72d1fb" d="M299.668 355.166a96.714 96.714 0 0 1-10.727-69.819h-29.284a8 8 0 0 0-8 8v81.07a8 8 0 0 0 8 8h40.535a8 8 0 0 0 8-8v-6.8a98.631 98.631 0 0 1-8.524-12.451z" data-original="#72d1fb" class=""></path><path fill="#4fcbf7" d="M109.067 374.417v-81.07a8 8 0 0 1 8-8h-13a8 8 0 0 0-8 8v81.07a8 8 0 0 0 8 8h13a8 8 0 0 1-8-8z" data-original="#4fcbf7" class=""></path><path fill="#94c961" d="M186.876 374.417v-118.8a8 8 0 0 1 8-8h-13a8 8 0 0 0-8 8v118.8a8 8 0 0 0 8 8h13a8 8 0 0 1-8-8z" data-original="#94c961" class=""></path><path fill="#4fcbf7" d="M264.657 374.417v-81.07a8 8 0 0 1 8-8h-13a8 8 0 0 0-8 8v81.07a8 8 0 0 0 8 8h13a8 8 0 0 1-8-8z" data-original="#4fcbf7" class=""></path></g></svg>