<svg xmlns="http://www.w3.org/2000/svg" version="1.1" xmlns:xlink="http://www.w3.org/1999/xlink" xmlns:svgjs="http://svgjs.com/svgjs" width="512" height="512" x="0" y="0" viewBox="0 0 512 512" style="enable-background:new 0 0 512 512" xml:space="preserve" class=""><g><path fill="#eafaff" d="M475.223 19.38H36.777A28.809 28.809 0 0 0 8 48.157v369.737a28.8 28.8 0 0 0 28.777 28.749h58.385v29.977H64.7a8 8 0 0 0 0 16h382.6a8 8 0 0 0 0-16h-30.462v-29.977h58.385A28.8 28.8 0 0 0 504 417.894V48.157a28.809 28.809 0 0 0-28.777-28.777zm-312.5 457.24v-29.977h17.135v29.977zm84.7 0v-29.977h17.164v29.977zm101.859 0h-17.139v-29.977h17.134z" data-original="#eafaff" class=""></path><path fill="#c4daec" d="M475.223 19.38H36.777A28.81 28.81 0 0 0 8 48.157v60.524h141.648a8 8 0 0 0 6.672-3.586l13.586-20.536H504v-36.4a28.81 28.81 0 0 0-28.777-28.779z" data-original="#c4daec"></path><path fill="#83a7c5" fill-rule="evenodd" d="M59.538 72.024a7.994 7.994 0 1 0-7.993-7.993 8.021 8.021 0 0 0 7.993 7.993zM86.013 72.024a7.994 7.994 0 1 0-7.993-7.993 8 8 0 0 0 7.993 7.993zM112.516 72.024a7.994 7.994 0 1 0-8.022-7.993 8.021 8.021 0 0 0 8.022 7.993z" data-original="#83a7c5"></path><path fill="#cce6f2" d="M28 417.894V108.681H8v309.213a28.8 28.8 0 0 0 28.777 28.749h20A28.8 28.8 0 0 1 28 417.894z" data-original="#cce6f2"></path><path fill="#a3c0d9" d="M8 48.157v60.524h20V48.157A28.81 28.81 0 0 1 56.776 19.38h-20A28.81 28.81 0 0 0 8 48.157z" data-original="#a3c0d9"></path><g fill="#83a7c5"><path d="M447.3 492.62H64.7a8 8 0 0 1 0-16h382.6a8 8 0 0 1 0 16zM122.267 169.483h-18.935a8 8 0 0 1 0-16h18.935a8 8 0 0 1 0 16zM209.2 169.483h-61.734a8 8 0 0 1 0-16H209.2a8 8 0 0 1 0 16zM209.2 198H103.162a8 8 0 1 1 0-16H209.2a8 8 0 0 1 0 16zM164.9 226.485h-61.738a8 8 0 0 1 0-16H164.9a8 8 0 1 1 0 16z" fill="#83a7c5" data-original="#83a7c5"></path></g><path fill="#ff6969" d="M408.838 153.483h-36.707a8 8 0 0 0 0 16h17.4L288.166 270.867l-41.028-35.4a8 8 0 0 0-10.5.043L97.887 357.2a8 8 0 0 0 10.55 12.029l133.518-117.1 41.388 35.7a8 8 0 0 0 10.883-.4L400.838 180.8v17.419a8 8 0 1 0 16 0v-36.736a8 8 0 0 0-8-8z" data-original="#ff6969" class=""></path><path fill="#ffe958" d="M154.722 385.914h-51.56a8 8 0 0 0-8 8v82.706h67.56v-82.706a8 8 0 0 0-8-8z" data-original="#ffe958"></path><path fill="#ffab1e" d="M239.418 352.155h-51.561a8 8 0 0 0-8 8V476.62h67.561V360.155a8 8 0 0 0-8-8z" data-original="#ffab1e"></path><path fill="#9dd46f" d="M324.143 312.386h-51.561a8 8 0 0 0-8 8V476.62h67.561V320.386a8 8 0 0 0-8-8z" data-original="#9dd46f"></path><path fill="#72d1fb" d="M408.838 250.452h-51.561a8 8 0 0 0-8 8V476.62h67.561V258.452a8 8 0 0 0-8-8z" data-original="#72d1fb"></path><path fill="#f49b19" d="M201.857 352.155h-14a8 8 0 0 0-8 8V476.62h14V360.155a8 8 0 0 1 8-8z" data-original="#f49b19"></path><path fill="#ffdb06" d="M117.162 385.914h-14a8 8 0 0 0-8 8v82.706h14v-82.706a8 8 0 0 1 8-8z" data-original="#ffdb06"></path><path fill="#4fcbf7" d="M371.277 250.452h-14a8 8 0 0 0-8 8V476.62h14V258.452a8 8 0 0 1 8-8z" data-original="#4fcbf7"></path><path fill="#94c961" d="M286.582 312.386h-14a8 8 0 0 0-8 8V476.62h14V320.386a8 8 0 0 1 8-8z" data-original="#94c961"></path></g></svg>