<svg xmlns="http://www.w3.org/2000/svg" version="1.1" xmlns:xlink="http://www.w3.org/1999/xlink" xmlns:svgjs="http://svgjs.com/svgjs" width="512" height="512" x="0" y="0" viewBox="0 0 512 512" style="enable-background:new 0 0 512 512" xml:space="preserve" class=""><g><path fill="#eafaff" d="m501.375 454.459-22.145-38.377v-88.791a96.766 96.766 0 0 0 0-41.873V48.917a28.81 28.81 0 0 0-28.777-28.778H36.773A28.811 28.811 0 0 0 8 48.917V418.66a28.8 28.8 0 0 0 28.777 28.749h396.752l20.008 34.675a19.472 19.472 0 0 0 11.912 9.105 19.794 19.794 0 0 0 5.094.672 19.415 19.415 0 0 0 9.763-2.637l13.873-8.012a19.591 19.591 0 0 0 7.2-26.753z" data-original="#eafaff" class=""></path><path fill="#ff6969" d="m501.375 454.459-31.32-54.28a56.942 56.942 0 0 0-8.851-11.73l-10.5-10.9a97.419 97.419 0 1 0-91.868 23.041 97.95 97.95 0 0 0 25.366 3.361 96.175 96.175 0 0 0 28.09-4.193l4.177 14.526a58.523 58.523 0 0 0 5.744 13.509l31.329 54.3a19.472 19.472 0 0 0 11.912 9.105 19.794 19.794 0 0 0 5.094.672 19.415 19.415 0 0 0 9.763-2.637l13.873-8.012a19.591 19.591 0 0 0 7.2-26.753zm-81.712-86.293a70.78 70.78 0 0 1-35.492 9.574 71.358 71.358 0 0 1-68.946-89.694 71.237 71.237 0 1 1 104.438 80.12z" data-original="#ff6969" class=""></path><path fill="#c4daec" d="M450.45 20.14H36.778A28.81 28.81 0 0 0 8 48.917v60.524h141.649a8 8 0 0 0 6.672-3.586l13.586-20.536h309.319v-36.4A28.809 28.809 0 0 0 450.45 20.14z" data-original="#c4daec"></path><path fill="#a3c0d9" d="M8 48.917v60.524h20V48.917A28.809 28.809 0 0 1 56.777 20.14h-20A28.81 28.81 0 0 0 8 48.917z" data-original="#a3c0d9"></path><path fill="#f75e5e" d="M394.982 399.8a97.943 97.943 0 0 1-25.366-3.36 97.429 97.429 0 0 1-23.5-178.486q4.219-2.439 8.6-4.428a98.287 98.287 0 0 0-19.387 8.574 97.436 97.436 0 0 0 23.5 178.486 97.95 97.95 0 0 0 25.366 3.361 96.468 96.468 0 0 0 40.028-8.71 96.212 96.212 0 0 1-29.241 4.563z" data-original="#f75e5e" class=""></path><path fill="#83a7c5" d="M289.364 385.729H73.737a8 8 0 0 1 0-16h215.627a8 8 0 0 1 0 16z" data-original="#83a7c5" class=""></path><path fill="#9dd46f" d="M121.868 123.545a56.117 56.117 0 1 0 56.1 56.1 56.181 56.181 0 0 0-56.1-56.1z" data-original="#9dd46f"></path><path fill="#ff6969" d="M177.971 179.648a56.167 56.167 0 0 0-56.1-56.1v56.1z" data-original="#ff6969" class=""></path><path fill="#72d1fb" d="M84.039 221.078a56.08 56.08 0 0 0 93.932-41.43h-56.1z" data-original="#72d1fb"></path><path fill="#94c961" d="m84.039 221.078 3.418-3.744a56.637 56.637 0 0 1 31.108-93.684 56.077 56.077 0 0 0-34.526 97.428z" data-original="#94c961"></path><path fill="#4fcbf7" d="m87.457 217.334-3.418 3.744a55.917 55.917 0 0 0 37.829 14.7c1.178 0 2.345-.049 3.505-.121a55.849 55.849 0 0 1-37.916-18.323z" data-original="#4fcbf7"></path><g fill="#83a7c5"><path d="M258.07 173.39h-47.451a8 8 0 0 1 0-16h47.451a8 8 0 0 1 0 16zM418.139 173.39H297.045a8 8 0 0 1 0-16h121.094a8 8 0 1 1 0 16zM418.139 201.934h-208a8 8 0 0 1 0-16h208a8 8 0 0 1 0 16z" fill="#83a7c5" data-original="#83a7c5" class=""></path><path fill-rule="evenodd" d="M59.535 72.784a7.994 7.994 0 1 0-7.993-7.994 8.021 8.021 0 0 0 7.993 7.994zM86.01 72.784a7.994 7.994 0 1 0-7.993-7.994 8.027 8.027 0 0 0 7.993 7.994zM112.514 72.784a7.994 7.994 0 1 0-8.022-7.994 8.021 8.021 0 0 0 8.022 7.994z" fill="#83a7c5" data-original="#83a7c5" class=""></path></g><path fill="#72d1fb" d="M209.831 369.729v-77.378a8 8 0 0 0-8-8H161.3a8 8 0 0 0-8 8v77.378z" data-original="#72d1fb"></path><path fill="#9dd46f" d="M273.865 369.729V244.05a8 8 0 0 0-8-8H225.33a8 8 0 0 0-8 8v125.679z" data-original="#9dd46f"></path><path fill="#ffe958" d="M145.77 369.729v-44.185a8 8 0 0 0-8-8H97.264a8 8 0 0 0-8 8v44.185z" data-original="#ffe958"></path><path fill="#4fcbf7" d="M174.3 284.351h-13a8 8 0 0 0-8 8v77.378h13v-77.378a8 8 0 0 1 8-8z" data-original="#4fcbf7"></path><path fill="#94c961" d="M238.33 236.05h-13a8 8 0 0 0-8 8v125.679h13V244.05a8 8 0 0 1 8-8z" data-original="#94c961"></path><path fill="#ffdb06" d="M110.264 317.544h-13a8 8 0 0 0-8 8v44.185h13v-44.185a8 8 0 0 1 8-8z" data-original="#ffdb06"></path><path fill="#83a7c5" d="M450.7 377.545a98.479 98.479 0 0 1-38.412 22.209l4.177 14.526a59.825 59.825 0 0 0 2.82 7.776l47.264-27.289a57.308 57.308 0 0 0-5.344-6.318z" data-original="#83a7c5" class=""></path><path fill="#628db2" d="m430.111 408.162-3.976-13.829a97.49 97.49 0 0 1-13.848 5.421l4.177 14.526a59.825 59.825 0 0 0 2.82 7.776l13.042-7.53a61.055 61.055 0 0 1-2.215-6.364z" data-original="#628db2"></path><path fill="#f75e5e" d="M484.19 485.743a19.751 19.751 0 0 1-5.094-.672 19.472 19.472 0 0 1-11.912-9.105l-31.329-54.3a59.538 59.538 0 0 1-3.529-7.145l-13.042 7.53a60.95 60.95 0 0 0 2.924 5.733l31.329 54.3a19.472 19.472 0 0 0 11.912 9.105 19.794 19.794 0 0 0 5.094.672 19.415 19.415 0 0 0 9.763-2.637l6.294-3.635a19.374 19.374 0 0 1-2.41.154z" data-original="#f75e5e" class=""></path><path fill="#cce6f2" d="M426.722 362.47a70.781 70.781 0 0 1-35.492 9.573 71.359 71.359 0 0 1-68.947-89.693 70.77 70.77 0 0 1 20.6-34.022 71.233 71.233 0 0 0 22.729 126.952 71.615 71.615 0 0 0 18.559 2.46 70.78 70.78 0 0 0 35.492-9.574 71.757 71.757 0 0 0 12.593-9.247 72.356 72.356 0 0 1-5.534 3.551zM28 418.66V109.441H8V418.66a28.8 28.8 0 0 0 28.777 28.749h20A28.8 28.8 0 0 1 28 418.66z" data-original="#cce6f2" class=""></path></g></svg>