<svg xmlns="http://www.w3.org/2000/svg" version="1.1" xmlns:xlink="http://www.w3.org/1999/xlink" xmlns:svgjs="http://svgjs.com/svgjs" width="512" height="512" x="0" y="0" viewBox="0 0 512 512" style="enable-background:new 0 0 512 512" xml:space="preserve" class=""><g><path fill="#f7d119" d="M426.412 348.824a77.209 77.209 0 0 0-48.882 17.392l-33.263-33.263A116.664 116.664 0 0 0 372.879 264h29.158a25.659 25.659 0 1 0 0-16h-29.158a116.666 116.666 0 0 0-28.612-68.953l33.263-33.262a77.7 77.7 0 1 0-11.314-11.314l-33.263 33.263A116.671 116.671 0 0 0 264 139.121v-29.155a25.688 25.688 0 1 0-16 0v29.155a116.676 116.676 0 0 0-68.953 28.612l-33.263-33.263a77.7 77.7 0 1 0-11.314 11.314l33.263 33.263A116.666 116.666 0 0 0 139.121 248h-29.155a25.664 25.664 0 1 0 0 16h29.158a116.664 116.664 0 0 0 28.612 68.953l-33.262 33.263a77.7 77.7 0 1 0 11.314 11.315l33.262-33.264A116.674 116.674 0 0 0 248 372.88v29.127a25.688 25.688 0 1 0 16 0V372.88a116.674 116.674 0 0 0 68.953-28.613l33.263 33.263a77.549 77.549 0 1 0 60.2-28.706z" data-original="#f7d119" class=""></path><circle cx="426.412" cy="426.412" r="77.588" fill="#fff5b5" data-original="#fff5b5" class=""></circle><path fill="#ffd886" d="M428.466 380.618a29.175 29.175 0 0 1 29.2 29.2c0 17.1-9.26 38.81-29.2 38.81-20.511 0-29.2-22.692-29.2-38.81a29.194 29.194 0 0 1 29.2-29.2z" data-original="#ffd886"></path><path fill="#6464ff" d="M454.508 448.63h-52.052c-14.316 0-26.041 10.871-26.041 24.145v12.9a77.389 77.389 0 0 0 104.1-3.731v-9.172c.003-13.272-11.69-24.142-26.007-24.142z" data-original="#6464ff" class=""></path><path fill="#f7c979" d="M410.264 409.82a29.2 29.2 0 0 1 23.707-28.679 29.2 29.2 0 0 0-34.707 28.679c0 16.118 8.691 38.81 29.2 38.81a25.328 25.328 0 0 0 5.482-.59c-16.56-3.657-23.682-23.631-23.682-38.22z" data-original="#f7c979"></path><path fill="#5e5ef7" d="M387.415 472.775c0-13.274 11.725-24.145 26.041-24.145h-11c-14.316 0-26.041 10.871-26.041 24.145v12.9a78.1 78.1 0 0 0 11 7.771z" data-original="#5e5ef7"></path><path fill="#f7eaad" d="M376.415 474.285a77.51 77.51 0 0 1 55.5-125.244 78.212 78.212 0 0 0-5.5-.217 77.543 77.543 0 0 0-50 136.854z" data-original="#f7eaad" class=""></path><path fill="#72d1fb" d="M330.642 290.692 318.423 245.1l-14.256-53.195a.264.264 0 0 0-.01-.03l-3.335-12.443a8 8 0 1 0-15.454 4.143l2.224 8.3c-11.675 12.563-25.954 20.992-43.537 25.7l-49.727 13.317a17.819 17.819 0 0 0-12.628 21.842l9.108 34.077a17.865 17.865 0 0 0 21.837 12.574l6.986-1.871 16.405 35a7.994 7.994 0 0 0 9.319 4.331L262 332.379a8 8 0 0 0 5.653-9.8l-9.483-35.389 4.223-1.131c17.6-4.716 34.184-4.559 50.567.475l2.224 8.3a8 8 0 1 0 15.454-4.142z" data-original="#72d1fb" class=""></path><path fill="#ff6969" d="M322.91 300.765a8 8 0 0 1-7.722-5.931l-29.82-111.259a8 8 0 1 1 15.454-4.143l29.82 111.26a8.007 8.007 0 0 1-7.732 10.073zM239.82 218.705l-45.492 12.183a17.819 17.819 0 0 0-12.628 21.846l9.108 34.077a17.865 17.865 0 0 0 21.837 12.574l45.526-12.192z" data-original="#ff6969"></path><path fill="#f75e5e" d="M222.406 285.609a17.865 17.865 0 0 1-21.837-12.574l-9.108-34.077a17.74 17.74 0 0 1-.481-6.814 17.834 17.834 0 0 0-9.277 20.59l9.108 34.077a17.865 17.865 0 0 0 21.837 12.574l45.526-12.192-2.792-10.415z" data-original="#f75e5e"></path><path fill="#41739f" d="m258.174 287.193-38.54 10.321 16.405 35a7.994 7.994 0 0 0 9.319 4.331L262 332.379a8 8 0 0 0 5.653-9.8z" data-original="#41739f"></path><path fill="#376f99" d="m247.639 333.694-13.455-28.707a5.823 5.823 0 0 1 3.766-8.1l21.294-5.7-1.07-4-38.54 10.321 16.405 35a7.994 7.994 0 0 0 9.319 4.331l3.771-1.013a7.944 7.944 0 0 1-1.49-2.132z" data-original="#376f99"></path><path fill="#51c8f2" d="m255.382 276.778 2.792 10.415 4.223-1.131c17.6-4.716 34.184-4.559 50.567.475l-12.542-46.8s-7.529 29.814-45.04 37.041z" data-original="#51c8f2"></path><path fill="#efc411" d="M154.842 256A117.305 117.305 0 0 1 264 139.121a118.416 118.416 0 0 0-8-.279 117.158 117.158 0 0 0 0 234.316c2.689 0 5.355-.1 8-.278A117.307 117.307 0 0 1 154.842 256z" data-original="#efc411"></path><path fill="#72d1fb" d="M281.688 85.588A25.688 25.688 0 1 1 256 59.9a25.7 25.7 0 0 1 25.688 25.688zm144.724 144.753A25.659 25.659 0 1 0 452.1 256a25.689 25.689 0 0 0-25.688-25.659zM256 400.725a25.688 25.688 0 1 0 25.688 25.687A25.717 25.717 0 0 0 256 400.725zM85.588 230.312A25.674 25.674 0 1 0 111.247 256a25.718 25.718 0 0 0-25.659-25.688z" data-original="#72d1fb" class=""></path><path fill="#4fcbf7" d="M68.9 256a25.725 25.725 0 0 1 21.185-25.284 25.673 25.673 0 1 0 0 50.54A25.7 25.7 0 0 1 68.9 256zM256 111.247a25.766 25.766 0 0 0 4.5-.4 25.664 25.664 0 0 1 0-50.542 25.672 25.672 0 1 0-4.5 50.944zM409.753 256a25.694 25.694 0 0 1 21.162-25.256 25.659 25.659 0 1 0 0 50.512A25.694 25.694 0 0 1 409.753 256zM239.312 426.412a25.725 25.725 0 0 1 21.188-25.285 25.688 25.688 0 1 0 0 50.57 25.724 25.724 0 0 1-21.188-25.285z" data-original="#4fcbf7"></path><circle cx="426.412" cy="85.588" r="77.588" fill="#fff5b5" data-original="#fff5b5" class=""></circle><circle cx="85.588" cy="85.588" r="77.588" fill="#fff5b5" data-original="#fff5b5" class=""></circle><circle cx="85.588" cy="426.412" r="77.588" fill="#fff5b5" data-original="#fff5b5" class=""></circle><path fill="#ffd886" d="M87.642 380.618a29.174 29.174 0 0 1 29.2 29.2c0 17.1-9.26 38.81-29.2 38.81-20.511 0-29.2-22.692-29.2-38.81a29.194 29.194 0 0 1 29.2-29.2z" data-original="#ffd886"></path><path fill="#6464ff" d="M113.684 448.63H61.632c-14.317 0-26.042 10.871-26.042 24.145v12.9a77.39 77.39 0 0 0 104.1-3.731v-9.172c.004-13.272-11.69-24.142-26.006-24.142z" data-original="#6464ff" class=""></path><path fill="#f7c979" d="M69.44 409.82a29.2 29.2 0 0 1 23.706-28.679A29.2 29.2 0 0 0 58.44 409.82c0 16.118 8.691 38.81 29.2 38.81a25.335 25.335 0 0 0 5.482-.59c-16.56-3.657-23.682-23.631-23.682-38.22z" data-original="#f7c979"></path><path fill="#5e5ef7" d="M46.59 472.775c0-13.274 11.725-24.145 26.042-24.145h-11c-14.317 0-26.042 10.871-26.042 24.145v12.9a78.077 78.077 0 0 0 11 7.771z" data-original="#5e5ef7"></path><g fill="#83a7c5"><path d="M248 372.88v29.127a25.6 25.6 0 0 1 16 0V372.88c-2.645.179-5.311.278-8 .278s-5.355-.099-8-.278zM179.047 167.733l-33.263-33.263a78.168 78.168 0 0 1-11.314 11.314l33.263 33.263a118.339 118.339 0 0 1 11.314-11.314zM332.953 344.267l33.263 33.263a78.168 78.168 0 0 1 11.314-11.314l-33.263-33.263a118.223 118.223 0 0 1-11.314 11.314zM264 139.121v-29.155a25.621 25.621 0 0 1-16 0v29.155c2.645-.179 5.311-.279 8-.279s5.355.1 8 .279zM109.966 248a25.593 25.593 0 0 1 0 16h29.158c-.18-2.645-.279-5.311-.279-8s.1-5.355.279-8zM402.037 264a25.564 25.564 0 0 1 0-16h-29.158c.18 2.645.279 5.311.279 8s-.1 5.355-.279 8zM167.733 332.953l-33.262 33.263a78.275 78.275 0 0 1 11.314 11.315l33.262-33.264a118.223 118.223 0 0 1-11.314-11.314zM344.267 179.047l33.263-33.262a78.369 78.369 0 0 1-11.314-11.314l-33.263 33.263a118.213 118.213 0 0 1 11.314 11.313z" fill="#83a7c5" data-original="#83a7c5" class=""></path></g><path fill="#f7eaad" d="M35.59 474.285a77.511 77.511 0 0 1 55.5-125.244 78.212 78.212 0 0 0-5.5-.217 77.544 77.544 0 0 0-50 136.854z" data-original="#f7eaad" class=""></path><path fill="#ffd886" d="M428.217 39.794a29.174 29.174 0 0 1 29.2 29.2c0 17.1-9.26 38.81-29.2 38.81-20.511 0-29.2-22.692-29.2-38.81a29.194 29.194 0 0 1 29.2-29.2z" data-original="#ffd886"></path><path fill="#6464ff" d="M454.259 107.805h-52.052c-14.317 0-26.042 10.872-26.042 24.146v12.9a77.389 77.389 0 0 0 104.1-3.73v-9.172c.004-13.272-11.69-24.144-26.006-24.144z" data-original="#6464ff" class=""></path><path fill="#f7c979" d="M410.015 69a29.2 29.2 0 0 1 23.706-28.679A29.2 29.2 0 0 0 399.015 69c0 16.118 8.691 38.809 29.2 38.809a25.326 25.326 0 0 0 5.481-.589c-16.559-3.662-23.681-23.635-23.681-38.22z" data-original="#f7c979"></path><path fill="#5e5ef7" d="M387.165 131.951c0-13.274 11.725-24.146 26.042-24.146h-11c-14.317 0-26.042 10.872-26.042 24.146v12.9a78.084 78.084 0 0 0 11 7.772z" data-original="#5e5ef7"></path><path fill="#f7eaad" d="M376.165 133.461a77.511 77.511 0 0 1 55.5-125.244 77.636 77.636 0 0 0-5.5-.217 77.543 77.543 0 0 0-50 136.853z" data-original="#f7eaad" class=""></path><path fill="#ffd886" d="M87.642 39.794a29.174 29.174 0 0 1 29.2 29.2c0 17.1-9.26 38.81-29.2 38.81-20.511 0-29.2-22.692-29.2-38.81a29.194 29.194 0 0 1 29.2-29.2z" data-original="#ffd886"></path><path fill="#6464ff" d="M113.684 107.805H61.632c-14.317 0-26.042 10.872-26.042 24.146v12.9a77.389 77.389 0 0 0 104.1-3.73v-9.172c.004-13.272-11.69-24.144-26.006-24.144z" data-original="#6464ff" class=""></path><path fill="#f7c979" d="M69.44 69a29.2 29.2 0 0 1 23.706-28.683A29.2 29.2 0 0 0 58.44 69c0 16.118 8.691 38.809 29.2 38.809a25.336 25.336 0 0 0 5.482-.589C76.562 103.558 69.44 83.585 69.44 69z" data-original="#f7c979"></path><path fill="#5e5ef7" d="M46.59 131.951c0-13.274 11.725-24.146 26.042-24.146h-11c-14.317 0-26.042 10.872-26.042 24.146v12.9a78.084 78.084 0 0 0 11 7.772z" data-original="#5e5ef7"></path><path fill="#f7eaad" d="M35.59 133.461A77.511 77.511 0 0 1 91.088 8.217a77.612 77.612 0 0 0-5.5-.217 77.543 77.543 0 0 0-50 136.853z" data-original="#f7eaad" class=""></path></g></svg>