<svg xmlns="http://www.w3.org/2000/svg" version="1.1" xmlns:xlink="http://www.w3.org/1999/xlink" xmlns:svgjs="http://svgjs.com/svgjs" width="512" height="512" x="0" y="0" viewBox="0 0 682.667 682.667" style="enable-background:new 0 0 512 512" xml:space="preserve" class=""><g><defs><clipPath id="a" clipPathUnits="userSpaceOnUse"><path d="M0 512h512V0H0Z" fill="#000000" data-original="#000000"></path></clipPath></defs><g clip-path="url(#a)" transform="matrix(1.33333 0 0 -1.33333 0 682.667)"><path d="M0 0c-107.764-.016-199.94-66.747-237.473-161.141l-.347-.876c-19.175-48.751-1.593-104.292 41.859-133.555l146.444-115.363c63.187-49.775 149.83-58.916 221.25-21.914 14.895 7.717 27.216 16.483 34.672 26.678 31.049 42.454 49.315 94.849 49.131 151.519C255.081-114.339 140.314.02 0 0" style="fill-opacity:1;fill-rule:nonzero;stroke:none" transform="translate(255.462 511)" fill="#00b7f0" data-original="#00b7f0" class=""></path><path d="M0 0c0-5.55 4.5-10.05 10.05-10.05 5.551 0 10.051 4.5 10.051 10.05 0 5.551-4.5 10.05-10.051 10.05C4.5 10.05 0 5.551 0 0" style="fill-opacity:1;fill-rule:nonzero;stroke:none" transform="translate(312.613 99.512)" fill="#0091c8" data-original="#0091c8" class=""></path><path d="M0 0c1.788-1.793 41.93-42.048 43.751-43.437 15.798-12.413 39.887-4.936 45.271 15.21l25.032 93.665c20.961 22.606 40.382 49.116 56.077 76.022-19.905 53.927-57.486 99.284-105.711 129.065-20.286-10.717-40.602-23.723-59.379-37.948-17.676-13.388-28.612-23.747-29.752-24.73l-96.54-25.801c-21.39-5.716-28.393-32.4-12.86-47.935l21.199-21.199 20.864-20.864c-.035-6.558.66-12.704 2.073-18.85l-30.911-30.911c-20.383 1.203-41.168-5.967-56.741-21.54-7.281-7.282-19.486-4.816-23.623 4.613a63.28 63.28 0 0 1-.824 1.794 7.077 7.077 0 0 1-.281.519 59.814 59.814 0 0 1-16.872 20.775c-6.941 5.412-9.788 14.718-6.795 22.995 2.342 6.481 3.417 13.569 2.917 20.967-3.201 47.439-66.148 66.266-93.834 24.977C-359.076-53.03-109.375-239.328 26.542-183.934c39.33 16.03 75.714 42.545 103.973 78.251 18.963 23.961-14.235 54.126-36.294 32.982a256.327 256.327 0 0 0-35.586-28.491c-5.167-3.431-11.681-3.444-17.221-.656-4.569 2.299-9.917-.83-10.398-5.708-.609-6.208-4.231-11.732-9.932-14.264a252.477 252.477 0 0 0-31.893-11.66c-6.057-1.765-12.538.273-16.547 5.144l-.068.082c-9.57 11.563-23.28 19.78-38.533 22.553-10.272 1.867-14.346 14.358-6.963 21.741 15.573 15.573 22.744 36.358 21.541 56.741l29.932 29.933C-14.611.903-7.459-.039 0 0" style="fill-opacity:1;fill-rule:nonzero;stroke:none" transform="translate(325.13 202.51)" fill="#0091c8" data-original="#0091c8" class=""></path><path d="M0 0c7.164 0 12.972 5.808 12.972 12.971 0 7.164-5.808 12.972-12.972 12.972s-12.972-5.808-12.972-12.972C-12.972 5.808-7.164 0 0 0" style="fill-opacity:1;fill-rule:nonzero;stroke:none" transform="translate(141.86 259.478)" fill="#0091c8" data-original="#0091c8" class=""></path><path d="M0 0a6.486 6.486 0 1 1 0 12.972A6.486 6.486 0 0 1 0 0" style="fill-opacity:1;fill-rule:nonzero;stroke:none" transform="translate(135.375 314.32)" fill="#0091c8" data-original="#0091c8" class=""></path><path d="M0 0c-9.228-1.729-18.565 2.254-24.185 9.775-9.893 13.241-24.463 22.156-40.518 25.074-10.273 1.868-14.346 14.358-6.964 21.741 28.915 28.914 28.915 75.793 0 104.707-28.914 28.914-75.793 28.914-104.707 0-7.281-7.281-19.485-4.815-23.623 4.613a59.795 59.795 0 0 1-18.218 23.276c-6.961 5.37-9.527 14.566-6.543 22.836 2.335 6.474 3.405 13.551 2.907 20.938-1.706 25.271-22.038 45.753-47.297 47.618a52.36 52.36 0 0 1-8.091-.03c-11.305-28.861-17.517-60.277-17.517-93.146 0-141.109 114.391-255.5 255.5-255.5 34.001 0 66.443 6.658 96.115 18.715a48.12 48.12 0 0 1-.194 7.244C53.704-13.555 26.482 4.963 0 0" style="fill-opacity:1;fill-rule:nonzero;stroke:none" transform="translate(294.756 68.098)" fill="#ffffff" data-original="#ffffff" class=""></path><path d="M0 0c-3.162 6.591-13.252 2.091-10.464-4.666.805-1.952 1.862-3.589 3.241-4.654a59.773 59.773 0 0 0 18.218-23.275c4.138-9.428 16.343-11.894 23.624-4.613 28.914 28.914 75.793 28.914 104.707 0A74.206 74.206 0 0 0 150.48-51.49c-1.614 16.457-8.721 32.477-21.326 45.083-28.914 28.914-75.793 28.914-104.707 0C17.166-13.688 4.962-11.222.824-1.794.559-1.19.284-.592 0 0" style="fill-opacity:1;fill-rule:nonzero;stroke:none" transform="translate(93.936 235.802)" fill="#f5f0f0" data-original="#f5f0f0"></path><path d="M0 0c-7.383-7.383-3.309-19.873 6.964-21.741 16.181-2.941 30.855-11.973 40.751-25.387 5.502-7.457 14.845-11.168 23.953-9.461 11.484 2.151 23.103-.117 32.823-5.705 5.861-3.37 12.581 2.643 9.822 8.815-8.824 19.733-30.636 31.754-52.626 27.726-9.206-1.686-18.588 1.897-24.145 9.428A65.026 65.026 0 0 1 15.606 2.538C10.481 5.248 4.168 4.174.072.072Z" style="fill-opacity:1;fill-rule:nonzero;stroke:none" transform="translate(233.261 93.887)" fill="#f5f0f0" data-original="#f5f0f0"></path><path d="M0 0c-.543.006-1.084.001-1.623-.009-.32-.007-.642-.011-.961-.023A52.51 52.51 0 0 1-4.767-.16a253.713 253.713 0 0 1-11.442-37.592c8.618 5.026 18.83 7.624 29.705 6.821a50.451 50.451 0 0 0 12.756-2.625c10.058-3.469 18.131 8.959 11.042 16.829-.306.335-.623.66-.939.987-.209.218-.414.44-.627.654-.308.308-.626.607-.942.907-.246.235-.489.473-.74.702-.301.277-.612.545-.92.814-.277.243-.553.487-.835.724-.296.247-.599.487-.901.728-.308.247-.617.494-.931.733-.289.222-.584.436-.877.65-.339.247-.679.494-1.023.732-.284.197-.571.388-.858.579a51.26 51.26 0 0 1-1.109.719c-.277.174-.557.344-.838.513a45.808 45.808 0 0 1-2.011 1.15 54.58 54.58 0 0 1-2.075 1.065c-.442.214-.888.42-1.337.621-.264.119-.528.238-.794.352-.463.199-.931.387-1.4.572-.262.103-.523.208-.787.307-.48.18-.965.348-1.451.514-.262.089-.523.182-.787.267-.493.159-.992.305-1.491.449-.265.077-.528.158-.794.23-.506.137-1.017.259-1.528.381-.267.064-.53.133-.799.192-.521.115-1.049.214-1.577.313-.262.049-.522.106-.785.151-.561.096-1.128.174-1.694.251-.234.033-.465.073-.7.102-.802.097-1.608.179-2.42.238-.83.062-1.655.095-2.478.117C.563-.005.282-.003 0 0" style="fill-opacity:1;fill-rule:nonzero;stroke:none" transform="translate(22.284 348.806)" fill="#f5f0f0" data-original="#f5f0f0"></path><path d="m0 0-42.386 42.386-59.597-104.195 24.483-61.675c15.601-15.6 42.239-8.453 47.935 12.86z" style="fill-opacity:1;fill-rule:nonzero;stroke:none" transform="translate(414.597 291.046)" fill="#8757f3" data-original="#8757f3" class=""></path><path d="M0 0c9.704-7.793 21.394 6.439 12.2 14.829a29.8 29.8 0 0 0-.999.955H11.2c-6.921 6.921-5.282 18.484 3.232 23.313l.63.359c28.117 16.089 48.464 42.952 56.829 74.25l3.193 11.946-42.386 42.386-86.876-86.876-13.616-13.616 44.179-44.179L-2.416 2.168A29.933 29.933 0 0 1 0 0" style="fill-opacity:1;fill-rule:nonzero;stroke:none" transform="translate(339.513 165.394)" fill="#6a2bc2" data-original="#6a2bc2" class=""></path><path d="m0 0 42.386-42.386-111.469-44.442-54.401 9.329c-15.6 15.6-8.453 42.238 12.86 47.935z" style="fill-opacity:1;fill-rule:nonzero;stroke:none" transform="translate(285.383 420.26)" fill="#8757f3" data-original="#8757f3" class=""></path><path d="M0 0c-7.793 9.704 6.439 21.394 14.829 12.2.308-.338.627-.672.955-1 6.921-6.921 18.484-5.282 23.314 3.232.118.21.238.419.358.629 16.089 28.118 42.952 48.465 74.25 56.83l11.946 3.192 42.387-42.385-86.876-86.876-13.617-13.616-44.179 44.179L2.168-2.416A29.933 29.933 0 0 0 0 0" style="fill-opacity:1;fill-rule:nonzero;stroke:none" transform="translate(159.73 345.176)" fill="#6a2bc2" data-original="#6a2bc2" class=""></path><path d="M0 0c-71.639-71.639-129.517-66.371-168.463-27.424-38.948 38.947-32.058 75.147 39.581 146.786 71.639 71.639 180.9 151.59 219.847 112.642C129.912 193.058 71.639 71.639 0 0" style="fill-opacity:1;fill-rule:nonzero;stroke:none" transform="translate(400.6 264.248)" fill="#fec502" data-original="#fec502" class=""></path><path d="M0 0c-3.154 5.222-6.857 9.761-10.966 13.619-10.887 10.221-.686 28.358 13.55 23.85a58.764 58.764 0 0 0 23.817-14.475l1.105-1.105C49.531-.136 87.29 10.053 95 40.231c5.906 23.112 7.158 46.138-2.818 62.117-23.517 37.593-93.417 11.548-132.794-8.728a414.765 414.765 0 0 1-2.378-1.235c-36.313-19.033-73.177-45.677-101.99-74.49-71.639-71.639-66.371-129.516-27.423-168.463 6.414-6.415 13.345-11.908 20.763-16.303-13.933 23.523-16.741 51.975-2.266 84.621 10.032 22.626 40.153 28 57.11 9.97.431-.459.871-.912 1.319-1.361 26.811-26.811 72.449-23.32 94.357 10.471C11.238-44.111 11.744-19.443 0 0" style="fill-opacity:1;fill-rule:nonzero;stroke:none" transform="translate(404.54 387.392)" fill="#ffa50a" data-original="#ffa50a" class=""></path><path d="M0 0c21.82 47.631 28.709 91.869 7.936 112.643-20.774 20.773-51.117-.012-98.748-21.831z" style="fill-opacity:1;fill-rule:nonzero;stroke:none" transform="translate(483.63 383.61)" fill="#8757f3" data-original="#8757f3" class=""></path><path d="m0 0-13.722 13.721C-25.575 25.574-20.601 45.8-4.594 50.777c7.532 2.342 14.832 4.176 21.808 5.445 10.042 1.826 14.108 14.23 6.934 21.492l-.155.156C3.22 98.644-41.018 91.754-88.649 69.935L0-18.714C5.167-13.547 5.167-5.168 0 0" style="fill-opacity:1;fill-rule:nonzero;stroke:none" transform="translate(467.572 418.382)" fill="#6a2bc2" data-original="#6a2bc2" class=""></path><path d="M0 0c-23.723-23.722-62.184-23.722-85.907 0-23.722 23.723-23.722 62.184 0 85.907 23.723 23.722 62.184 23.722 85.907 0C23.722 62.184 23.722 23.723 0 0" style="fill-opacity:1;fill-rule:nonzero;stroke:none" transform="translate(404.805 323.584)" fill="#ffffff" data-original="#ffffff" class=""></path><path d="m0 0-24.967-3.206c-4.818-.618-8.92 3.483-8.301 8.301l3.206 24.967A113.665 113.665 0 0 0 2.305 95.963c17.562 17.561 46.034 17.561 63.596 0 17.561-17.562 17.561-46.034 0-63.595A113.675 113.675 0 0 0 0 0" style="fill-opacity:1;fill-rule:nonzero;stroke:none" transform="translate(140.458 97.769)" fill="#f5f0f0" data-original="#f5f0f0"></path><path d="m0 0-34.491-4.428S-8.179 68.991 9.603 86.773c0 0 27.771 26.047 44.61 17.627A44.886 44.886 0 0 0 65.9 95.963h.001c17.561-17.561 17.561-46.034 0-63.595H65.9A113.67 113.67 0 0 0 0 0" style="fill-opacity:1;fill-rule:nonzero;stroke:none" transform="translate(143.887 120.13)" fill="#fec502" data-original="#fec502" class=""></path><path d="M0 0c-16.774-16.774-43.971-16.774-60.745 0-16.775 16.774-9.298 34.306 7.476 51.081 14.678 14.677 29.858 26.176 46.531 15.168A43.155 43.155 0 0 0 0 60.745C16.774 43.971 16.774 16.774 0 0" style="fill-opacity:1;fill-rule:nonzero;stroke:none" transform="translate(392.224 336.166)" fill="#00b7f0" data-original="#00b7f0" class=""></path><path d="m0 0-44.754 44.754 31.001 31.001 44.754-44.754Z" style="fill-opacity:1;fill-rule:nonzero;stroke:none" transform="translate(219.789 206.092)" fill="#6a2bc2" data-original="#6a2bc2" class=""></path><path d="m0 0-34.003 34.003c-8.561 8.561-8.561 22.441 0 31.001 8.56 8.561 22.44 8.561 31.001 0l34.003-34.003Z" style="fill-opacity:1;fill-rule:nonzero;stroke:none" transform="translate(244.54 181.34)" fill="#8757f3" data-original="#8757f3" class=""></path><path d="M0 0a9.145 9.145 0 0 1 0 12.931L-13.02 25.95c-2.863 2.863-3.018 7.513-.252 10.469l.236.251c2.892 3.041 7.773 2.984 10.741.016l3.939-3.939c3.443-3.444 9.049-3.852 12.708-.638a9.146 9.146 0 0 1 .444 13.348c-1.647 1.646-.516 4.443 1.812 4.522l.251.008c6.216.176 8.282 8.439 2.826 11.423-15.644 8.555-35.854 6.81-49.727-5.904-18.151-16.634-18.614-44.849-1.389-62.074a43.176 43.176 0 0 1 3.688-3.288c2.499-1.982 6.024.459 5.03 3.489l-.088.269C-24.723-.113-17.376 4.445-12.931 0A9.143 9.143 0 0 1 0 0" style="fill-opacity:1;fill-rule:nonzero;stroke:none" transform="translate(362.91 342.733)" fill="#0091c8" data-original="#0091c8" class=""></path><path d="M0 0a113.672 113.672 0 0 1-32.368-65.9l-4.428-34.491a15.455 15.455 0 0 1 13.345 13.26c.594 4.377 1.375 8.94 2.892 14.618 1.967 7.364 11.148 9.864 16.537 4.474l5.352-5.352c4.241-4.24 11.115-4.24 15.356 0 4.24 4.241 4.24 11.115 0 15.355L2.053-43.402a10.215 10.215 0 0 0-.682 13.694l.074.09c3.796 4.637 10.764 4.984 15.002.746l5.023-5.023c4.24-4.24 11.115-4.24 15.356 0 4.24 4.24 4.24 11.115 0 15.355-3.811 3.811-1.113 10.379 4.276 10.333.177-.001.355-.004.532-.007 11.487-.234 14.345 15.887 3.371 19.289C30.084 15.7 12.809 12.81 0 0" style="fill-opacity:1;fill-rule:nonzero;stroke:none" transform="translate(146.192 216.093)" fill="#ffa50a" data-original="#ffa50a" class=""></path><path d="M0 0c0-5.551-4.5-10.05-10.05-10.05-5.551 0-10.051 4.499-10.051 10.05 0 5.55 4.5 10.05 10.051 10.05C-4.5 10.05 0 5.55 0 0" style="fill-opacity:1;fill-rule:nonzero;stroke:none" transform="translate(303.594 105.651)" fill="#ffffff" data-original="#ffffff" class=""></path><path d="M0 0a5.982 5.982 0 1 0 11.965 0A5.982 5.982 0 0 0 0 0" style="fill-opacity:1;fill-rule:nonzero;stroke:none" transform="translate(326.99 101.584)" fill="#ffffff" data-original="#ffffff" class=""></path><path d="M0 0c0-7.164-5.808-12.972-12.972-12.972S-25.943-7.164-25.943 0s5.807 12.972 12.971 12.972S0 7.164 0 0" style="fill-opacity:1;fill-rule:nonzero;stroke:none" transform="translate(125.713 278.589)" fill="#ffffff" data-original="#ffffff" class=""></path><path d="M0 0a6.485 6.485 0 0 0-6.486-6.485 6.485 6.485 0 1 0 0 12.971A6.486 6.486 0 0 0 0 0" style="fill-opacity:1;fill-rule:nonzero;stroke:none" transform="translate(112.741 326.946)" fill="#ffffff" data-original="#ffffff" class=""></path></g></g></svg>