<svg xmlns="http://www.w3.org/2000/svg" version="1.1" xmlns:xlink="http://www.w3.org/1999/xlink" xmlns:svgjs="http://svgjs.com/svgjs" width="512" height="512" x="0" y="0" viewBox="0 0 512 512" style="enable-background:new 0 0 512 512" xml:space="preserve" class=""><g><path fill="#83a7c5" d="M470.1 66.106h-37.97V29.748A21.758 21.758 0 0 0 410.411 8H101.617A21.772 21.772 0 0 0 79.87 29.748v36.358h-38A33.974 33.974 0 0 0 8 100v299.718a33.974 33.974 0 0 0 33.866 33.895h162.1l-4.988 45.33h-43.613c-10.063 0-20.827 8.226-23.948 18.29l-2.1 6.767h253.337l-2.1-6.767c-3.092-10.064-13.885-18.29-23.948-18.29H313l-4.989-45.33h162.1A34 34 0 0 0 504 399.718V100a34 34 0 0 0-33.9-33.894z" data-original="#83a7c5"></path><path fill="#eafaff" d="M410.411 8H101.617A21.772 21.772 0 0 0 79.87 29.748v327.017h352.26V29.748A21.758 21.758 0 0 0 410.411 8z" data-original="#eafaff"></path><path fill="#72d1fb" d="M253.681 132.515a67.826 67.826 0 1 0 19.879 47.962 67.348 67.348 0 0 0-19.879-47.962z" data-original="#72d1fb"></path><path fill="#c4daec" d="M432.13 29.748A21.758 21.758 0 0 0 410.411 8H101.617A21.772 21.772 0 0 0 79.87 29.748v64.18h132.039a8 8 0 0 0 6.669-3.582l13.586-20.511H432.13z" data-original="#c4daec"></path><path fill="#41739f" d="M8 384.374v15.344a33.974 33.974 0 0 0 33.866 33.895h162.1l-4.988 45.33h-43.61c-10.063 0-20.826 8.226-23.947 18.29l-2.1 6.767h253.333l-2.1-6.767c-3.092-10.064-13.885-18.29-23.948-18.29H313l-4.989-45.33h162.1A34 34 0 0 0 504 399.718v-15.344z" data-original="#41739f" class=""></path><path fill="#2e6c93" d="M172.364 478.943h-17c-10.063 0-20.826 8.226-23.947 18.29l-2.1 6.767h17l2.1-6.767c3.121-10.064 13.883-18.29 23.947-18.29z" data-original="#2e6c93" class=""></path><path fill="#628db2" d="M25 384.374V100a33.974 33.974 0 0 1 33.866-33.9h-17A33.974 33.974 0 0 0 8 100v284.374z" data-original="#628db2"></path><path fill="#2e6c93" d="M8 384.374v15.344a33.974 33.974 0 0 0 33.866 33.895h17A33.974 33.974 0 0 1 25 399.718v-15.344zM309.625 448.3l-1.616-14.685H203.962l-4.988 45.33h17l2.4-21.81a9.919 9.919 0 0 1 9.86-8.835z" data-original="#2e6c93" class=""></path><path fill="#5d83a0" fill-rule="evenodd" d="M390.057 416.246a7.22 7.22 0 1 0-7.235-7.234 7.225 7.225 0 0 0 7.235 7.234zM416.565 416.246a7.22 7.22 0 1 0-7.235-7.234 7.25 7.25 0 0 0 7.235 7.234zM443.072 416.246a7.22 7.22 0 1 0-7.235-7.234 7.25 7.25 0 0 0 7.235 7.234z" data-original="#5d83a0"></path><path fill="#6193ff" d="M253.681 132.515a67.826 67.826 0 1 0 19.879 47.962 67.348 67.348 0 0 0-19.879-47.962zm3.264 39.973h-19.067c-.707-13.561-3.213-26.711-7.534-37.337-.058-.143-.119-.271-.177-.412a52.023 52.023 0 0 1 12.2 9.09 51.4 51.4 0 0 1 14.578 28.659zM206.007 232.3h-.606c-1.8-.295-5.694-3.154-9.5-12.506-3.53-8.666-5.624-19.758-6.284-31.3h32.173c-.657 11.544-2.745 22.636-6.263 31.3-3.816 9.351-7.722 12.206-9.52 12.506zm-16.387-59.812c.658-11.548 2.752-22.64 6.283-31.3v-.011c4.027-9.919 8.165-12.544 9.793-12.548 1.63 0 5.776 2.627 9.818 12.552 3.522 8.661 5.61 19.756 6.267 31.306zm-20.582-28.663a52.1 52.1 0 0 1 12.224-9.095c-.059.144-.12.281-.179.426-4.33 10.625-6.843 23.772-7.552 37.332h-19.02a51.537 51.537 0 0 1 14.527-28.663zm-14.524 44.663h19.019c.71 13.556 3.222 26.7 7.552 37.333.051.127.1.247.156.373a51.632 51.632 0 0 1-26.727-37.706zm87.85 28.663a51.6 51.6 0 0 1-12.164 9.029c.05-.122.1-.239.152-.362 4.317-10.63 6.822-23.776 7.53-37.33h19.064a51.484 51.484 0 0 1-14.582 28.663z" data-original="#6193ff" class=""></path><path fill="#ffab1e" d="M348.982 172.647c-10.83-2.279-12.461-3.43-12.461-8.8 0-4.763 4.855-8.638 10.822-8.638s10.821 3.875 10.821 8.638a8 8 0 0 0 16 0c0-11.027-7.927-20.385-18.821-23.518v-3.382a8 8 0 0 0-16 0v3.382c-10.894 3.133-18.822 12.491-18.822 23.518 0 19.159 15.754 22.474 25.166 24.455 10.844 2.283 12.477 3.437 12.477 8.823 0 4.763-4.854 8.638-10.821 8.638s-10.822-3.875-10.822-8.638a8 8 0 0 0-16 0c0 11.027 7.928 20.385 18.822 23.519V224a8 8 0 0 0 16 0v-3.352c10.894-3.134 18.821-12.492 18.821-23.519 0-19.182-15.764-22.499-25.182-24.482z" data-original="#ffab1e"></path><g fill="#83a7c5"><path d="M196.631 289.426h-50.257a8 8 0 1 1 0-16h50.257a8 8 0 1 1 0 16zM366.164 289.426H237.9a8 8 0 0 1 0-16h128.264a8 8 0 0 1 0 16zM366.164 317.969h-220.3a8 8 0 1 1 0-16h220.3a8 8 0 0 1 0 16z" fill="#83a7c5" data-original="#83a7c5"></path><path fill-rule="evenodd" d="M123.415 58.972a8.008 8.008 0 1 0-7.994-7.994 8.021 8.021 0 0 0 7.994 7.994zM149.889 58.972a8.008 8.008 0 1 0-7.993-7.994 8 8 0 0 0 7.993 7.994zM176.364 58.972a8.008 8.008 0 1 0-7.994-7.994 8.026 8.026 0 0 0 7.994 7.994z" fill="#83a7c5" data-original="#83a7c5"></path></g><path fill="#cce6f2" d="M79.87 93.729h-38A6.358 6.358 0 0 0 35.6 100v250.509a6.377 6.377 0 0 0 6.271 6.271h38zM470.119 93.729H432.13V356.78h37.989a6.377 6.377 0 0 0 6.271-6.271V100a6.358 6.358 0 0 0-6.271-6.271z" data-original="#cce6f2"></path></g></svg>