<?xml version="1.0" encoding="UTF-8"?> <svg xmlns="http://www.w3.org/2000/svg" width="282.823" height="317.628" viewBox="0 0 282.823 317.628"><g id="Best_SEO_Services_2022" data-name="Best SEO Services 2022" transform="translate(-901 -986)"><path id="Path_3268" data-name="Path 3268" d="M136.1,328.826l123.5,62.815,118.807-62.815V83.3H136.1Z" transform="translate(774.558 907.669)" fill="#fff"></path><path id="Path_3269" data-name="Path 3269" d="M373.077,84.8,132.3,327.419l124.8,61.8,115.974-59.385Z" transform="translate(778.358 910.092)" fill="#f2f3f2"></path><path id="Path_3270" data-name="Path 3270" d="M123.6,158.511V323.2l4.255,2.159,120.293,61.226,3.684,1.842,3.684-1.842L371.491,325.36l4.255-2.159V70.8H123.6Zm7.939,160.179V78.739H367.807V318.691L251.832,379.917Z" transform="translate(791.956 915.2)" fill="#dcdedc"></path><path id="Path_3271" data-name="Path 3271" d="M305.279,82.677a14.709,14.709,0,0,1,3.684.318l-3.684,6.986a10.085,10.085,0,1,0-1.207,20.134h1.207a10.474,10.474,0,0,0,6.669-2.413l3.938,6.669a18.222,18.222,0,0,1-10.67,3.366,17.546,17.546,0,1,1-1.524-35.059ZM317.728,97.6l4.573,7.622-4.573,7.3-4.255-7.3h-8.828l4.573-7.622Zm-7.3-2.731a6.656,6.656,0,0,1,.889-3.366,10.976,10.976,0,0,1,2.731-2.413l.635-.318c1.207-.635,1.524-.889,1.524-1.524s-.889-1.207-1.524-1.207a2.92,2.92,0,0,0-2.731,1.842l-1.524-1.524a7.8,7.8,0,0,1,1.524-1.842,4.346,4.346,0,0,1,2.731-.635,4.4,4.4,0,0,1,2.731.889,3.837,3.837,0,0,1,1.207,2.413,3.5,3.5,0,0,1-2.731,3.366l-.889.635c-.889.635-1.524.889-1.842,1.842h5.462v2.159C318.681,95.189,310.424,94.871,310.424,94.871Zm-5.145,38.044,28.9-16.45V70.8H276v45.348C276.063,116.212,305.279,132.916,305.279,132.916Z" transform="translate(725.926 915.2)" fill="#ff492c"></path><path id="banner" d="M372.623,338.3H108.917L99.2,359.64l9.717,21.34H372.559l9.463-21.34Z" transform="translate(801.8 817.279)" fill="#ff492c"></path><path id="Path_3282" data-name="Path 3282" d="M4.4,0V-38.511H18.423q6.445,0,9.91,2.363a7.6,7.6,0,0,1,3.464,6.66,7.883,7.883,0,0,1-2.108,5.452,11.076,11.076,0,0,1-5.385,3.25v.107a10.672,10.672,0,0,1,6.566,3.035,8.487,8.487,0,0,1,2.457,6.15A10.279,10.279,0,0,1,29.541-3.1Q25.754,0,19.2,0Zm8.674-32.119v9.131h3.813a6.356,6.356,0,0,0,4.23-1.3,4.439,4.439,0,0,0,1.544-3.585q0-4.243-6.338-4.243Zm0,15.576V-6.392h4.7a7.233,7.233,0,0,0,4.713-1.4A4.665,4.665,0,0,0,24.2-11.6a4.353,4.353,0,0,0-1.678-3.625,7.426,7.426,0,0,0-4.686-1.316Zm50.736,5.21H45.876q.43,5.989,7.546,5.989A14.733,14.733,0,0,0,61.4-7.493V-1.37A20.954,20.954,0,0,1,51.488.671q-6.66,0-10.339-3.693T37.47-13.32q0-6.848,3.975-10.85a13.241,13.241,0,0,1,9.775-4q6.016,0,9.305,3.572t3.29,9.695Zm-7.869-5.21q0-5.908-4.78-5.908a4.564,4.564,0,0,0-3.531,1.692,7.679,7.679,0,0,0-1.813,4.216ZM67.34-.725V-7.6a18.068,18.068,0,0,0,4.176,1.88A13.846,13.846,0,0,0,75.45-5.1a8.438,8.438,0,0,0,3.558-.618,2,2,0,0,0,1.3-1.88,1.739,1.739,0,0,0-.591-1.343,5.492,5.492,0,0,0-1.517-.94,17.219,17.219,0,0,0-2.028-.725q-1.1-.322-2.122-.725a20.327,20.327,0,0,1-2.887-1.329,8.344,8.344,0,0,1-2.095-1.652,6.492,6.492,0,0,1-1.289-2.175,8.681,8.681,0,0,1-.443-2.927,7.536,7.536,0,0,1,1.007-3.975,8.226,8.226,0,0,1,2.686-2.726,12.271,12.271,0,0,1,3.84-1.558,20.024,20.024,0,0,1,4.5-.5,24.959,24.959,0,0,1,3.706.282,27.661,27.661,0,0,1,3.706.819v6.553a13.391,13.391,0,0,0-3.451-1.41,14.557,14.557,0,0,0-3.612-.47,8,8,0,0,0-1.571.148,5.174,5.174,0,0,0-1.3.43,2.392,2.392,0,0,0-.886.725,1.669,1.669,0,0,0-.322,1.007,1.86,1.86,0,0,0,.483,1.289,4.2,4.2,0,0,0,1.262.927,12.46,12.46,0,0,0,1.732.7q.953.309,1.893.631a24.616,24.616,0,0,1,3.062,1.289,9.789,9.789,0,0,1,2.35,1.638,6.433,6.433,0,0,1,1.5,2.2,7.827,7.827,0,0,1,.524,3.008A7.846,7.846,0,0,1,87.387-4.23a8.493,8.493,0,0,1-2.82,2.82A12.788,12.788,0,0,1,80.512.175a22.481,22.481,0,0,1-4.767.5A24.574,24.574,0,0,1,67.34-.725Zm42.895.4a12.544,12.544,0,0,1-5.667.994q-8.97,0-8.97-9.319v-12.6H91.14V-27.5H95.6v-5.935l8.459-2.417V-27.5h6.177v6.257h-6.177v11.118q0,4.3,3.411,4.3a5.75,5.75,0,0,0,2.766-.779Z" transform="translate(975.271 1125)" fill="#252530"></path><path id="Path_3281" data-name="Path 3281" d="M-67.252.184A7.855,7.855,0,0,1-70.38-.391,4.714,4.714,0,0,1-72.438-2a4.143,4.143,0,0,1-.724-2.438v-.575a.266.266,0,0,1,.08-.2.266.266,0,0,1,.2-.08h2.047a.266.266,0,0,1,.2.08.266.266,0,0,1,.081.2v.437a2.116,2.116,0,0,0,.943,1.76,4.228,4.228,0,0,0,2.576.7,3.225,3.225,0,0,0,2.116-.6,1.919,1.919,0,0,0,.713-1.541,1.6,1.6,0,0,0-.391-1.093,3.658,3.658,0,0,0-1.116-.816q-.725-.368-2.174-.92a22.743,22.743,0,0,1-2.645-1.127,4.937,4.937,0,0,1-1.69-1.437,3.68,3.68,0,0,1-.678-2.266,3.868,3.868,0,0,1,1.472-3.2A6.132,6.132,0,0,1-67.5-16.284a7.328,7.328,0,0,1,3.048.6A4.858,4.858,0,0,1-62.4-14.019a4.255,4.255,0,0,1,.736,2.473v.391a.266.266,0,0,1-.081.2.266.266,0,0,1-.2.081h-2.07a.266.266,0,0,1-.2-.081.266.266,0,0,1-.08-.2v-.253a2.307,2.307,0,0,0-.885-1.828,3.682,3.682,0,0,0-2.45-.748,3.207,3.207,0,0,0-1.966.529,1.763,1.763,0,0,0-.7,1.495,1.69,1.69,0,0,0,.368,1.127,3.306,3.306,0,0,0,1.1.793q.736.356,2.277.908A25.89,25.89,0,0,1-63.928-8a5.022,5.022,0,0,1,1.679,1.415,3.6,3.6,0,0,1,.7,2.265,3.986,3.986,0,0,1-1.53,3.289A6.52,6.52,0,0,1-67.252.184Zm19.3-14.26a.266.266,0,0,1-.081.2.266.266,0,0,1-.2.08h-7.843a.1.1,0,0,0-.115.115v4.3a.1.1,0,0,0,.115.115h5.267a.266.266,0,0,1,.2.081.266.266,0,0,1,.081.2v1.748a.266.266,0,0,1-.081.2.266.266,0,0,1-.2.081h-5.267a.1.1,0,0,0-.115.115v4.439a.1.1,0,0,0,.115.115h7.843a.266.266,0,0,1,.2.08.266.266,0,0,1,.081.2V-.276a.266.266,0,0,1-.081.2.266.266,0,0,1-.2.08h-10.35a.266.266,0,0,1-.2-.08.266.266,0,0,1-.08-.2V-15.824a.266.266,0,0,1,.08-.2.266.266,0,0,1,.2-.08h10.35a.266.266,0,0,1,.2.08.266.266,0,0,1,.081.2ZM-39.79.23a6.475,6.475,0,0,1-3.059-.7,4.953,4.953,0,0,1-2.058-1.99,5.948,5.948,0,0,1-.725-2.967v-5.244A5.764,5.764,0,0,1-44.9-13.6a5.066,5.066,0,0,1,2.058-1.978,6.406,6.406,0,0,1,3.048-.7,6.457,6.457,0,0,1,3.07.7A5.066,5.066,0,0,1-34.661-13.6a5.765,5.765,0,0,1,.736,2.933v5.244a5.874,5.874,0,0,1-.736,2.967,5.045,5.045,0,0,1-2.059,1.99A6.457,6.457,0,0,1-39.79.23Zm0-2.3a3.1,3.1,0,0,0,2.323-.9,3.25,3.25,0,0,0,.874-2.369V-10.7a3.281,3.281,0,0,0-.874-2.392,3.1,3.1,0,0,0-2.323-.9,3.066,3.066,0,0,0-2.3.9,3.281,3.281,0,0,0-.874,2.392v5.359a3.25,3.25,0,0,0,.874,2.369A3.066,3.066,0,0,0-39.79-2.07ZM-21.16.184a7.855,7.855,0,0,1-3.128-.575A4.714,4.714,0,0,1-26.346-2a4.143,4.143,0,0,1-.725-2.438v-.575a.266.266,0,0,1,.08-.2.266.266,0,0,1,.2-.08h2.047a.266.266,0,0,1,.2.08.266.266,0,0,1,.08.2v.437a2.116,2.116,0,0,0,.943,1.76,4.228,4.228,0,0,0,2.576.7,3.225,3.225,0,0,0,2.116-.6,1.919,1.919,0,0,0,.713-1.541,1.6,1.6,0,0,0-.391-1.093,3.658,3.658,0,0,0-1.116-.816q-.724-.368-2.173-.92a22.743,22.743,0,0,1-2.645-1.127,4.937,4.937,0,0,1-1.691-1.437,3.68,3.68,0,0,1-.678-2.266,3.868,3.868,0,0,1,1.472-3.2,6.132,6.132,0,0,1,3.933-1.173,7.328,7.328,0,0,1,3.048.6,4.858,4.858,0,0,1,2.059,1.667,4.255,4.255,0,0,1,.736,2.473v.391a.266.266,0,0,1-.081.2.266.266,0,0,1-.2.081h-2.07a.266.266,0,0,1-.2-.081.266.266,0,0,1-.08-.2v-.253a2.307,2.307,0,0,0-.886-1.828,3.682,3.682,0,0,0-2.449-.748,3.207,3.207,0,0,0-1.967.529,1.763,1.763,0,0,0-.7,1.495,1.69,1.69,0,0,0,.368,1.127,3.306,3.306,0,0,0,1.1.793q.736.356,2.277.908A25.89,25.89,0,0,1-17.836-8a5.022,5.022,0,0,1,1.679,1.415,3.6,3.6,0,0,1,.7,2.265,3.986,3.986,0,0,1-1.53,3.289A6.52,6.52,0,0,1-21.16.184Zm19.3-14.26a.266.266,0,0,1-.081.2.266.266,0,0,1-.2.08H-9.982a.1.1,0,0,0-.115.115v4.3a.1.1,0,0,0,.115.115h5.267a.266.266,0,0,1,.2.081.266.266,0,0,1,.081.2v1.748a.266.266,0,0,1-.081.2.266.266,0,0,1-.2.081H-9.982a.1.1,0,0,0-.115.115v4.439a.1.1,0,0,0,.115.115h7.843a.266.266,0,0,1,.2.08.266.266,0,0,1,.081.2V-.276a.266.266,0,0,1-.081.2.266.266,0,0,1-.2.08h-10.35a.266.266,0,0,1-.2-.08.266.266,0,0,1-.081-.2V-15.824a.266.266,0,0,1,.081-.2.266.266,0,0,1,.2-.08h10.35a.266.266,0,0,1,.2.08.266.266,0,0,1,.081.2ZM9.89,0a.326.326,0,0,1-.322-.207L6.532-6.831a.147.147,0,0,0-.138-.092H3.634a.1.1,0,0,0-.115.115V-.276a.266.266,0,0,1-.08.2.266.266,0,0,1-.2.08H1.127a.266.266,0,0,1-.2-.08.266.266,0,0,1-.081-.2V-15.824a.266.266,0,0,1,.081-.2.266.266,0,0,1,.2-.08H7.452a5.126,5.126,0,0,1,2.484.586,4.156,4.156,0,0,1,1.679,1.656,4.933,4.933,0,0,1,.6,2.449,4.45,4.45,0,0,1-.816,2.7A4.224,4.224,0,0,1,9.131-7.153a.074.074,0,0,0-.069.046.1.1,0,0,0,0,.092L12.3-.322a.353.353,0,0,1,.046.138Q12.351,0,12.1,0ZM3.634-13.8a.1.1,0,0,0-.115.115v4.577a.1.1,0,0,0,.115.115h3.45a2.457,2.457,0,0,0,1.783-.655,2.3,2.3,0,0,0,.679-1.737,2.342,2.342,0,0,0-.679-1.748A2.433,2.433,0,0,0,7.084-13.8ZM18.722,0a.289.289,0,0,1-.3-.23l-4.83-15.548-.023-.092q0-.23.253-.23H16.1a.3.3,0,0,1,.322.23l3.45,12.006q.023.069.069.069t.069-.069L23.437-15.87a.3.3,0,0,1,.322-.23H25.99a.242.242,0,0,1,.207.092.238.238,0,0,1,.023.23L21.321-.23a.289.289,0,0,1-.3.23ZM28.865,0a.266.266,0,0,1-.2-.08.266.266,0,0,1-.08-.2V-15.824a.266.266,0,0,1,.08-.2.266.266,0,0,1,.2-.08h2.116a.266.266,0,0,1,.2.08.266.266,0,0,1,.08.2V-.276a.266.266,0,0,1-.08.2.266.266,0,0,1-.2.08ZM40,.184a6.514,6.514,0,0,1-3.036-.679,4.891,4.891,0,0,1-2.024-1.9,5.5,5.5,0,0,1-.713-2.829V-10.9a5.5,5.5,0,0,1,.713-2.829,4.816,4.816,0,0,1,2.024-1.886A6.607,6.607,0,0,1,40-16.284a6.75,6.75,0,0,1,3.013.644,4.762,4.762,0,0,1,2.024,1.817,5.121,5.121,0,0,1,.713,2.714.266.266,0,0,1-.081.2.266.266,0,0,1-.2.081l-2.116.115q-.276,0-.276-.253a2.932,2.932,0,0,0-.84-2.185A3.054,3.054,0,0,0,40-13.984a3.094,3.094,0,0,0-2.254.828,2.91,2.91,0,0,0-.851,2.185v5.865a2.881,2.881,0,0,0,.851,2.162A3.094,3.094,0,0,0,40-2.116a3.079,3.079,0,0,0,2.243-.817,2.893,2.893,0,0,0,.84-2.174q0-.253.276-.253l2.116.092a.29.29,0,0,1,.2.069.207.207,0,0,1,.081.161,5.225,5.225,0,0,1-.713,2.749A4.738,4.738,0,0,1,43.01-.46,6.749,6.749,0,0,1,40,.184Zm19.5-14.26a.266.266,0,0,1-.081.2.266.266,0,0,1-.2.08H51.382a.1.1,0,0,0-.115.115v4.3a.1.1,0,0,0,.115.115h5.267a.266.266,0,0,1,.2.081.266.266,0,0,1,.081.2v1.748a.266.266,0,0,1-.081.2.266.266,0,0,1-.2.081H51.382a.1.1,0,0,0-.115.115v4.439a.1.1,0,0,0,.115.115h7.843a.266.266,0,0,1,.2.08.266.266,0,0,1,.081.2V-.276a.266.266,0,0,1-.081.2.266.266,0,0,1-.2.08H48.875a.266.266,0,0,1-.2-.08.266.266,0,0,1-.08-.2V-15.824a.266.266,0,0,1,.08-.2.266.266,0,0,1,.2-.08h10.35a.266.266,0,0,1,.2.08.266.266,0,0,1,.081.2ZM67.413.184a7.855,7.855,0,0,1-3.128-.575A4.714,4.714,0,0,1,62.226-2,4.143,4.143,0,0,1,61.5-4.439v-.575a.266.266,0,0,1,.081-.2.266.266,0,0,1,.2-.08h2.047a.266.266,0,0,1,.2.08.266.266,0,0,1,.081.2v.437a2.116,2.116,0,0,0,.943,1.76,4.228,4.228,0,0,0,2.576.7,3.225,3.225,0,0,0,2.116-.6,1.919,1.919,0,0,0,.713-1.541,1.6,1.6,0,0,0-.391-1.093,3.658,3.658,0,0,0-1.116-.816q-.725-.368-2.174-.92a22.743,22.743,0,0,1-2.645-1.127,4.937,4.937,0,0,1-1.69-1.437,3.68,3.68,0,0,1-.678-2.266,3.868,3.868,0,0,1,1.472-3.2,6.132,6.132,0,0,1,3.933-1.173,7.328,7.328,0,0,1,3.048.6,4.858,4.858,0,0,1,2.059,1.667A4.255,4.255,0,0,1,73-11.546v.391a.266.266,0,0,1-.081.2.266.266,0,0,1-.2.081h-2.07a.266.266,0,0,1-.2-.081.266.266,0,0,1-.08-.2v-.253a2.307,2.307,0,0,0-.885-1.828,3.682,3.682,0,0,0-2.45-.748,3.207,3.207,0,0,0-1.966.529,1.763,1.763,0,0,0-.7,1.495,1.69,1.69,0,0,0,.368,1.127,3.306,3.306,0,0,0,1.1.793q.736.356,2.277.908A25.89,25.89,0,0,1,70.736-8a5.022,5.022,0,0,1,1.679,1.415,3.6,3.6,0,0,1,.7,2.265,3.986,3.986,0,0,1-1.53,3.289A6.52,6.52,0,0,1,67.413.184Z" transform="translate(1042 1186)" fill="#fff"></path><path id="Union_7" data-name="Union 7" d="M28.069,30.075a10.06,10.06,0,0,1-2.891-7.618V10.375a10.1,10.1,0,0,1,2.891-7.551A10.693,10.693,0,0,1,35.842,0a10.512,10.512,0,0,1,7.772,2.824,9.9,9.9,0,0,1,2.891,7.551V22.457a10.06,10.06,0,0,1-2.891,7.618A10.682,10.682,0,0,1,35.842,32.9,10.531,10.531,0,0,1,28.069,30.075ZM32.693,6.9a4.844,4.844,0,0,0-1.218,3.347V22.788a4.24,4.24,0,0,0,4.366,4.6,3.98,3.98,0,0,0,3.149-1.248,4.852,4.852,0,0,0,1.221-3.347V10.243A4.559,4.559,0,0,0,38.99,6.9a4.073,4.073,0,0,0-3.149-1.248A4.073,4.073,0,0,0,32.693,6.9ZM50.809,32.373a.53.53,0,0,1-.386-.132.49.49,0,0,1-.129-.395v-4.2a1,1,0,0,1,.257-.722c1.479-1.447,2.954-3.023,4.5-4.73s2.5-2.824,2.891-3.215c.835-.985,1.67-1.97,2.5-2.891,2.7-3.084,4.046-5.317,4.046-6.829A3.5,3.5,0,0,0,63.4,6.633a4.3,4.3,0,0,0-2.891-.985,4.073,4.073,0,0,0-2.891.985A3.511,3.511,0,0,0,56.462,9.39v1.117a.974.974,0,0,1-.129.395.466.466,0,0,1-.386.132H50.68a.924.924,0,0,1-.386-.132.571.571,0,0,1-.191-.395V8.34a8.8,8.8,0,0,1,1.541-4.4A8.569,8.569,0,0,1,55.3,1.049a13.2,13.2,0,0,1,5.2-.985,11.3,11.3,0,0,1,5.525,1.248,9.169,9.169,0,0,1,3.594,3.219,8.673,8.673,0,0,1,1.287,4.6,9.374,9.374,0,0,1-.964,3.941A20.725,20.725,0,0,1,67.122,17.4c-.9,1.181-1.927,2.362-3.017,3.546s-2.634,2.821-4.756,4.99l-.64.655a.245.245,0,0,0-.066.2.24.24,0,0,0,.195.064H70.914a.911.911,0,0,1,.383.132.576.576,0,0,1,.195.395v4.464a.576.576,0,0,1-.195.395.46.46,0,0,1-.383.132Zm-50.1,0a.536.536,0,0,1-.386-.132.49.49,0,0,1-.129-.395v-4.2a1,1,0,0,1,.257-.722c1.479-1.447,2.957-3.023,4.5-4.73s2.5-2.824,2.888-3.215c.835-.985,1.67-1.97,2.5-2.891,2.7-3.084,4.05-5.317,4.05-6.829A3.5,3.5,0,0,0,13.3,6.633a4.3,4.3,0,0,0-2.891-.985,4.073,4.073,0,0,0-2.891.985A3.522,3.522,0,0,0,6.36,9.39v1.117a.974.974,0,0,1-.129.395.466.466,0,0,1-.386.132H.578A.924.924,0,0,1,.191,10.9.571.571,0,0,1,0,10.506V8.34a8.831,8.831,0,0,1,1.541-4.4A8.588,8.588,0,0,1,5.2,1.049a13.211,13.211,0,0,1,5.2-.985,11.294,11.294,0,0,1,5.525,1.248,9.179,9.179,0,0,1,3.6,3.219,8.67,8.67,0,0,1,1.284,4.6,9.325,9.325,0,0,1-.964,3.941A20.831,20.831,0,0,1,17.023,17.4c-.9,1.181-1.927,2.362-3.02,3.546s-2.634,2.821-4.752,4.99l-.644.655a.253.253,0,0,0-.063.2.23.23,0,0,0,.191.064H20.812a.924.924,0,0,1,.386.132.571.571,0,0,1,.191.395v4.464a.571.571,0,0,1-.191.395.466.466,0,0,1-.386.132ZM75.8,32.309a.535.535,0,0,1-.383-.132.49.49,0,0,1-.129-.395v-4.2a.994.994,0,0,1,.257-.722c1.475-1.444,2.954-3.02,4.5-4.727s2.5-2.824,2.891-3.219c.835-.985,1.67-1.97,2.5-2.888,2.7-3.087,4.046-5.321,4.046-6.829a3.509,3.509,0,0,0-1.092-2.628A4.307,4.307,0,0,0,85.5,5.58a4.086,4.086,0,0,0-2.888.985,3.516,3.516,0,0,0-1.158,2.76v1.117a.928.928,0,0,1-.129.391.466.466,0,0,1-.386.132H75.67a.879.879,0,0,1-.386-.132.576.576,0,0,1-.195-.391V8.273a8.854,8.854,0,0,1,1.541-4.4A8.591,8.591,0,0,1,80.294.985,13.123,13.123,0,0,1,85.5,0,11.285,11.285,0,0,1,91.02,1.248a9.146,9.146,0,0,1,3.6,3.215,8.682,8.682,0,0,1,1.284,4.6A9.325,9.325,0,0,1,94.938,13a20.684,20.684,0,0,1-2.825,4.332c-.9,1.181-1.927,2.365-3.02,3.546s-2.634,2.824-4.752,4.99l-.644.658a.246.246,0,0,0-.063.2.226.226,0,0,0,.191.067H95.9a.879.879,0,0,1,.386.132.564.564,0,0,1,.191.391v4.467a.571.571,0,0,1-.191.395.466.466,0,0,1-.386.132Z" transform="translate(983.185 1217.703)" fill="#252530"></path></g></svg> 