<?xml version="1.0" encoding="UTF-8"?> <svg xmlns="http://www.w3.org/2000/svg" xmlns:xlink="http://www.w3.org/1999/xlink" width="1206" height="1080" viewBox="0 0 1206 1080"><defs><clipPath id="clip-path"><rect id="Rectangle_2" data-name="Rectangle 2" width="1206" height="1080"></rect></clipPath></defs><g id="Forbs" clip-path="url(#clip-path)"><rect id="Rectangle_1" data-name="Rectangle 1" width="1206" height="1080" fill="#fff"></rect><g id="Group_2" data-name="Group 2"><g id="Group_1" data-name="Group 1" transform="translate(76 72.599)"><path id="Path_2" data-name="Path 2" d="M684.831,67.708c-17.481,0-31.211,3.75-44.949,11.236,0-39.959,0-76.168,1.255-88.651L557.462,5.27v7.493l8.74,1.248c11.228,2.5,14.993,8.733,17.466,23.726,2.517,29.971,1.255,189.815,0,216.043,22.478,5,46.211,8.748,69.944,8.748,66.187,0,106.146-41.214,106.146-106.154,0-51.195-32.466-88.666-74.928-88.666ZM656.108,248.782c-5,0-11.25,0-14.986-1.24-1.255-17.481-2.5-91.168-1.255-156.1,7.493-2.5,12.483-3.75,18.736-3.75,27.49,0,42.476,32.466,42.476,72.418-.007,49.969-18.743,88.673-44.971,88.673ZM242.751-4.718H22.958V6.518l12.49,1.248c16.226,2.5,22.478,12.483,24.966,36.209,3.757,44.957,2.5,126.137,0,164.834-2.5,23.733-8.733,34.976-24.966,36.209l-12.49,2.51v9.988H164.073v-9.988l-14.986-2.51c-16.233-1.24-22.478-12.476-24.974-36.209-1.255-16.24-2.5-42.469-2.5-74.928l29.971,1.248c18.736,0,27.469,14.986,31.219,36.209h11.243V82.7H182.8c-3.757,21.231-12.483,36.209-31.219,36.209l-29.964,1.255c0-42.461,1.248-82.42,2.5-106.146h43.7c33.728,0,51.209,21.224,63.692,58.695L244,68.963l-1.255-73.68Z" transform="translate(-22.958 9.708)" fill="#231f20"></path><path id="Path_3" data-name="Path 3" d="M147.206,1.24c62.445,0,93.663,42.461,93.663,98.654,0,53.7-34.969,98.668-97.413,98.668S49.8,156.093,49.8,99.893C49.8,46.2,84.761,1.24,147.206,1.24Zm-3.75,12.49c-27.476,0-34.969,37.464-34.969,86.163,0,47.452,12.49,86.163,37.471,86.163,28.7,0,36.209-37.464,36.209-86.163C182.167,52.441,169.691,13.73,143.456,13.73Zm465.8,87.418c0-51.2,32.466-99.908,96.159-99.908,52.435,0,77.423,38.719,77.423,89.913H666.7c-1.255,46.2,21.224,79.925,66.187,79.925,19.983,0,29.971-4.983,42.469-13.731l4.983,6.238c-12.49,17.481-39.959,34.976-74.92,34.976-56.2-.007-96.158-39.966-96.158-97.413ZM666.7,77.422l58.7-1.255c0-24.974-3.75-62.437-24.974-62.437S667.936,48.691,666.7,77.422ZM931.466,11.235c-14.986-6.252-34.961-10-57.44-10-46.2,0-74.935,27.469-74.935,59.942s21.209,46.2,51.216,56.2c31.212,11.228,39.959,19.976,39.959,34.961s-11.243,28.716-31.226,28.716c-23.719,0-41.214-13.731-54.945-51.2l-8.748,2.51,1.255,54.945c14.986,6.238,42.454,11.243,66.187,11.243,48.707,0,79.933-24.988,79.933-63.692,0-26.228-13.745-41.207-46.211-53.7C861.536,67.427,849.06,58.687,849.06,42.446S860.317,14.97,875.3,14.97c22.464,0,37.449,13.738,48.707,47.459l8.733-2.5-1.276-48.7Zm-528.258-5c-21.223-12.476-58.7-6.245-78.67,38.719l1.24-43.709L242.117,17.48v7.493l8.74,1.248c11.25,1.255,16.233,7.493,17.488,23.733,2.5,29.971,1.248,82.428,0,108.649-1.255,14.971-6.238,22.464-17.488,23.719l-8.74,1.255v9.988H358.251v-9.988l-14.986-1.255c-12.483-1.255-16.233-8.748-17.488-23.719-2.5-23.733-2.5-71.185-1.24-101.156,6.238-8.748,33.714-16.233,58.687,0l19.984-51.21Z" transform="translate(143.772 73.681)" fill="#231f20"></path></g><path id="SEO_SERVICES" data-name="SEO SERVICES" d="M86.352-32.169q0,15.829-11.592,25.428Q63,2.688,46.2,2.688A42.225,42.225,0,0,1,19.824-6.048Q8.4-14.784,4.032-29.9l14.784-6.048a38.23,38.23,0,0,0,4.2,9.744,31.651,31.651,0,0,0,6.3,7.476A28.555,28.555,0,0,0,37.3-13.86a24.441,24.441,0,0,0,9.24,1.764q10.584,0,17.3-5.46a17.779,17.779,0,0,0,6.72-14.532,17.372,17.372,0,0,0-5.544-12.936Q59.808-50.232,45.528-55.1,31.08-60.312,27.552-62.16,8.4-71.9,8.4-90.888q0-13.272,10.584-22.68,10.752-9.408,26.376-9.408,13.776,0,23.856,7.056,10.08,6.888,13.44,17.3L68.208-92.568a21.362,21.362,0,0,0-7.98-11.172A23.6,23.6,0,0,0,45.7-108.192a23.555,23.555,0,0,0-15.288,5.019,14.594,14.594,0,0,0-6.216,12.209,14.131,14.131,0,0,0,4.872,10.707q5.376,4.515,23.352,10.7Q70.728-63.32,78.54-54.313T86.352-32.169Zm88.872-88.119V-105.5H120.456v38.136h49.392V-52.92H120.456v38.136h54.768V0H105V-120.288Zm135.24,60.144q0,26.712-17.808,44.688Q274.68,2.688,248.64,2.688q-26.208,0-44.016-18.144-17.808-17.976-17.808-44.688t17.808-44.688q17.808-18.144,44.016-18.144t44.016,18.312Q310.464-86.688,310.464-60.144Zm-107.856,0q0,20.832,13.1,34.44Q228.984-12.1,248.64-12.1T281.4-25.7q13.272-13.44,13.272-34.44T281.4-94.584q-13.1-13.608-32.76-13.608T215.712-94.584Q202.608-80.976,202.608-60.144ZM434.952-32.169q0,15.829-11.592,25.428Q411.6,2.688,394.8,2.688a42.225,42.225,0,0,1-26.376-8.736Q357-14.784,352.632-29.9l14.784-6.048a38.23,38.23,0,0,0,4.2,9.744,31.651,31.651,0,0,0,6.3,7.476,28.555,28.555,0,0,0,7.98,4.872,24.441,24.441,0,0,0,9.24,1.764q10.584,0,17.3-5.46a17.779,17.779,0,0,0,6.72-14.532,17.372,17.372,0,0,0-5.544-12.936q-5.208-5.208-19.488-10.08-14.448-5.208-17.976-7.056Q357-71.9,357-90.888q0-13.272,10.584-22.68,10.752-9.408,26.376-9.408,13.776,0,23.856,7.056,10.08,6.888,13.44,17.3l-14.448,6.048a21.362,21.362,0,0,0-7.98-11.172,23.6,23.6,0,0,0-14.532-4.452,23.555,23.555,0,0,0-15.288,5.019,14.594,14.594,0,0,0-6.216,12.209,14.131,14.131,0,0,0,4.872,10.707q5.376,4.515,23.352,10.7,18.312,6.232,26.124,15.239T434.952-32.169Zm88.872-88.119V-105.5H469.056v38.136h49.392V-52.92H469.056v38.136h54.768V0H453.6V-120.288ZM560.112-105.5v42.336h24.864a22.5,22.5,0,0,0,15.96-6.132,19.983,19.983,0,0,0,6.552-15.2,20.417,20.417,0,0,0-6.132-14.7,20.563,20.563,0,0,0-15.372-6.3Zm0,105.5H544.656V-120.288h40.992a37.5,37.5,0,0,1,26.628,10.332,33.536,33.536,0,0,1,11,25.452,33.3,33.3,0,0,1-8.148,22.092,36.22,36.22,0,0,1-20.58,12.348l-.336.5L627.984-.672V0H609.672L577.248-48.72H560.112ZM690.144,0H674.016L631.68-120.288h17.136L681.744-22.68h.672l34.272-97.608h17.136Zm73.248,0H747.936V-120.288h15.456ZM842.52,2.688q-26.712,0-44.688-17.976-17.808-17.976-17.808-44.856t17.808-44.688q17.808-18.144,44.688-18.144,27.216,0,44.184,19.656L875.616-92.568q-12.936-15.624-33.1-15.624-19.992,0-33.432,13.44Q795.816-81.48,795.816-60.144t13.272,34.608Q822.528-12.1,842.52-12.1q21,0,36.456-17.64l11.256,10.92a58.354,58.354,0,0,1-21,15.876A64.008,64.008,0,0,1,842.52,2.688ZM978.6-120.288V-105.5H923.832v38.136h49.392V-52.92H923.832v38.136H978.6V0H908.376V-120.288Zm95.088,88.119q0,15.829-11.592,25.428-11.76,9.429-28.56,9.429a42.226,42.226,0,0,1-26.376-8.736Q995.736-14.784,991.368-29.9l14.784-6.048a38.23,38.23,0,0,0,4.2,9.744,31.65,31.65,0,0,0,6.3,7.476,28.555,28.555,0,0,0,7.98,4.872,24.441,24.441,0,0,0,9.24,1.764q10.584,0,17.3-5.46a17.779,17.779,0,0,0,6.72-14.532,17.372,17.372,0,0,0-5.544-12.936q-5.208-5.208-19.488-10.08-14.448-5.208-17.976-7.056Q995.736-71.9,995.736-90.888q0-13.272,10.584-22.68,10.752-9.408,26.376-9.408,13.776,0,23.856,7.056,10.08,6.888,13.44,17.3l-14.448,6.048a21.362,21.362,0,0,0-7.98-11.172,23.6,23.6,0,0,0-14.532-4.452,23.555,23.555,0,0,0-15.288,5.019,14.594,14.594,0,0,0-6.216,12.209,14.131,14.131,0,0,0,4.872,10.707q5.376,4.515,23.352,10.7,18.312,6.232,26.124,15.239T1073.688-32.169Z" transform="translate(77 521)" fill="#3a59ac"></path><g id="Group_1-2" data-name="Group 1"><path id="Path_1" data-name="Path 1" d="M9.775,0V-129.391H56.253q24.972,0,37.991,9.153t13.019,26.571q0,10.042-4.621,17.151a26.928,26.928,0,0,1-13.6,10.486q10.131,2.666,15.552,9.953T110.018-38.3q0,19.018-12.042,28.571T62.3,0ZM40.968-55.009v31.015H61.407q8.442,0,12.975-3.866t4.532-10.886q0-16.174-16.085-16.263Zm0-20.439H57.23q10.22-.089,14.574-3.744t4.354-10.785q0-8.2-4.71-11.81t-15.2-3.61H40.968ZM207.416-54.92H158.361v30.926H216.3V0H127.169V-129.391H216.48v24.083H158.361v27.282h49.055ZM295.75-34.392q0-6.843-4.843-10.664t-17.018-7.909a163.267,163.267,0,0,1-19.906-7.909q-25.149-12.353-25.149-33.947a30.442,30.442,0,0,1,6.265-18.973q6.265-8.22,17.729-12.8a68.993,68.993,0,0,1,25.771-4.577,60.349,60.349,0,0,1,25.016,4.977,39.607,39.607,0,0,1,17.2,14.174A37.015,37.015,0,0,1,326.942-91h-31.1q0-7.909-4.843-12.264t-13.108-4.354q-8.354,0-13.2,3.688a11.313,11.313,0,0,0-4.843,9.375q0,4.977,5.332,9.02t18.751,8.354a114.866,114.866,0,0,1,22.039,9.287q20.973,12.086,20.973,33.325,0,16.974-12.8,26.66t-35.1,9.687a69.643,69.643,0,0,1-28.482-5.643q-12.752-5.643-19.2-15.463a40.29,40.29,0,0,1-6.443-22.617H256.2q0,10.4,5.376,15.33t17.462,4.932q7.731,0,12.219-3.333A11,11,0,0,0,295.75-34.392Zm148.764-70.916H405.679V0H374.486V-105.308H336.362v-24.083H444.514ZM607.229-62.029q0,18.929-7.021,33.5A51.887,51.887,0,0,1,580.258-6.087,55.552,55.552,0,0,1,550.8,1.777q-16.529,0-29.326-7.6a51.8,51.8,0,0,1-19.951-21.728q-7.154-14.13-7.509-32.437v-7.287q0-19.018,6.976-33.547a51.759,51.759,0,0,1,20-22.439,55.94,55.94,0,0,1,29.637-7.909,55.4,55.4,0,0,1,29.326,7.82,52.692,52.692,0,0,1,20.04,22.261q7.154,14.441,7.243,33.1ZM575.5-67.45q0-19.284-6.443-29.282t-18.44-10q-23.461,0-24.794,35.191l-.089,9.509q0,19.018,6.31,29.237T550.8-22.572q11.819,0,18.218-10.042T575.5-61.5Zm129.3,15.907h-50.3V0H623.314V-129.391h86.557v24.083H654.507v29.771h50.3Z" transform="translate(428 715)" fill="#3a59ac"></path><path id="Path_2-2" data-name="Path 2" d="M166.616-40.913H67.983q-.322-4.026,7.034-10.466,7.347-6.277,26.26-19.8l17.976-13.2q21.416-15.134,34.858-32.682,12.818-17.065,13.13-44.435-.312-33.649-21.4-53.776-21.088-19.8-56.389-20.124-26.554.322-41.864,9.487-15.62,9.968-22.961,24.117a107.357,107.357,0,0,0-9.059,27.654,196.655,196.655,0,0,0-2.5,22.027h44.12a92.084,92.084,0,0,1,4.7-30.784A28.171,28.171,0,0,1,71.9-194.341q6.73-4.351,17.84-4.351,16.743.322,24.409,10.957a40.439,40.439,0,0,1,7.042,23.045q0,19.822-10.149,32.068-10.62,12.568-31.388,27.4Q39.989-75.9,26.247-55.435,12.505-34.646,10.632,0H166.616Zm27.4-74.136Q191.28,5,272.317,5.317,350.459,5,350.771-115.122q-.312-119.956-78.454-120.278Q191.28-235.078,194.019-115.049Zm46.054,0q0-16.471.78-31.647a181.041,181.041,0,0,1,3.437-26.484,88.161,88.161,0,0,1,4.215-10.98,37.036,37.036,0,0,1,5.778-7.911q6.4-6.622,18.112-6.622,12.181,0,19.205,6.622,6.715,6.941,9.371,18.89a137.985,137.985,0,0,1,3.434,26.484q.312,15.177.312,31.647,0,16.31-.312,30.842a150.068,150.068,0,0,1-3.434,27.128q-2.656,11.463-9.371,18.407-7.024,7.266-19.205,7.266-11.71,0-18.112-7.266-6.715-6.944-9.993-18.407a199.218,199.218,0,0,1-3.437-27.128Q240.073-98.739,240.073-115.049Zm293.6,74.136H435.043q-.322-4.026,7.034-10.466,7.347-6.277,26.26-19.8l17.976-13.2q21.416-15.134,34.858-32.682Q533.989-134.13,534.3-161.5q-.312-33.649-21.4-53.776-21.088-19.8-56.389-20.124-26.554.322-41.864,9.487-15.62,9.968-22.961,24.117a107.356,107.356,0,0,0-9.059,27.654,196.656,196.656,0,0,0-2.5,22.027h44.12a92.084,92.084,0,0,1,4.7-30.784,28.172,28.172,0,0,1,10.013-11.443q6.73-4.351,17.84-4.351,16.743.322,24.409,10.957a40.439,40.439,0,0,1,7.042,23.045q0,19.822-10.149,32.068-10.62,12.568-31.388,27.4-39.661,29.329-53.4,49.793Q379.566-34.646,377.693,0H533.677Zm86.543-62.066h7.07q18.888-.322,31.376,6.314a21.083,21.083,0,0,1,9.678,10.2q3.434,6.964,3.434,18.3,0,17.327-8.908,26.881-9.378,9.877-24.694,9.877-10.159,0-16.879-4.534a29.222,29.222,0,0,1-10-10.363,75.559,75.559,0,0,1-4.844-13.278A66.01,66.01,0,0,1,605.2-71.727H561.08q1.563,76.08,75.8,77.044Q662.2,5,678.447-2.9q15.63-8.049,24.381-19.482a70.8,70.8,0,0,0,12.191-24.475,100.6,100.6,0,0,0,2.812-22.38q-.322-16.1-5-27.05-4.512-10.949-11.44-16.425-6.606-6.279-11.924-8.694-5.64-2.253-6.929-2.253v-.645q10.8-4.993,19.5-16.1,8.218-11.591,8.54-29.787-.312-19-6.7-31.882a53.433,53.433,0,0,0-17.619-19.8,74.146,74.146,0,0,0-22.919-10.949,124.7,124.7,0,0,0-24.633-2.576q-71.1,1.287-73.436,75.173h41.572a95.912,95.912,0,0,1,.778-10.667,64.12,64.12,0,0,1,3.424-12.606,23.976,23.976,0,0,1,9.177-10.829q6.692-4.363,17.893-4.363,9.645,0,14.938,3.072a19.961,19.961,0,0,1,8.711,8.243q4.99,10.182,4.668,17.777-.312,19.233-10.735,26.829-10.892,7.6-28.473,7.6h-7Z" transform="translate(428 995)" fill="#3a59ac"></path></g><path id="_1" data-name="#1" d="M32.23,0l8.5-56.256H6.739L11.72-86.142h33.4l4.4-30.765H15.529l4.688-29.886h33.7l8.2-53.619H94.639l-8.2,53.619h32.816l8.2-53.619h32.23l-7.911,53.619h33.7l-4.688,29.886h-33.4l-4.688,30.765h34.281l-4.688,29.886H138.3L129.8,0H97.569l8.2-56.256H72.957L64.753,0ZM76.766-85.556h33.988l4.981-31.937H81.747ZM232.931,0V-318l-72.6,30.6-28.8-66.6,120.6-56.4h59.4V0Z" transform="translate(76 997)" fill="#3663aa"></path></g></g></svg> 